<svg width="39" height="41" viewBox="0 0 39 41" fill="none" xmlns="http://www.w3.org/2000/svg">
<path d="M35.8404 22.6843C35.7057 32.4282 27.7344 40.284 17.9218 40.284C8.10929 40.284 6.10352e-05 32.294 6.10352e-05 22.4351C6.10352e-05 12.5762 8.09646 4.66921 17.9218 4.58614V6.19948C9.01067 6.28254 1.62319 13.5378 1.62319 22.4319C1.62319 31.326 8.93369 38.6675 17.9218 38.6675C22.2555 38.6675 26.3326 36.9934 29.4088 33.9521C32.453 30.9426 34.1563 26.946 34.2205 22.6843H35.8436H35.8404Z" fill="white"/>
<path d="M24.0768 28.5243V22.8473H33.7045C33.4833 31.3667 26.4244 38.2523 17.8288 38.2523C13.656 38.2523 9.8548 36.6395 7.01535 34.0111C6.95752 33.9567 6.90156 33.9041 6.84584 33.8485L6.84447 33.8472C3.89395 30.9783 2.06196 26.9777 2.06196 22.5566C2.06196 13.9354 9.04087 6.89964 17.669 6.76986V16.3492H11.7565H11.5967V16.509V28.6042V28.7639H11.7565H23.9011H24.0608V28.6841H24.0768V28.5243Z" stroke="white" stroke-width="0.319473"/>
<path d="M17.8833 18.3172V16.8955H12.2023V28.2144H23.5674V22.6844H22.2202V26.9078H13.4951V18.3172H17.8833Z" fill="white"/>
<path d="M38.567 8.90213L36.8252 11.2982C36.8252 11.2982 36.8188 11.279 36.8156 11.2694L39.0001 7.89579L38.7595 7.75203L36.5878 11.1097C36.0072 11.148 34.0024 11.4292 31.8885 13.4227C31.8885 13.3524 31.8885 13.2821 31.8885 13.2086C31.7954 7.89898 29.8644 5.44863 29.2421 4.79371L29.2677 0.5H28.9854L28.9598 4.68189C28.9534 4.68189 28.9501 4.68828 28.9437 4.69467L28.793 1.57343L28.5107 1.58621L28.6743 4.98539C27.9237 5.86075 26.2877 8.32708 26.2043 13.2054C26.2043 13.2789 26.2043 13.3492 26.2043 13.4195C24.1866 11.5122 22.2652 11.1736 21.5947 11.1129L19.4167 7.74883L19.1761 7.89259L21.306 11.1832C21.306 11.1832 21.2996 11.2055 21.2932 11.2183L19.6091 8.90213L19.3782 9.05547L21.2002 11.5633C20.9756 12.5313 20.7511 14.9338 22.849 17.9943C25.1137 21.2913 27.8467 21.7449 28.7448 21.8024V22.6874H29.4313V21.7928C30.4033 21.713 33.0433 21.1954 35.2438 17.9911C37.2839 15.02 37.1299 12.6655 36.9118 11.6464L38.798 9.05228L38.567 8.89893V8.90213ZM29.2709 5.1611C30.0055 6.04604 31.5837 8.48042 31.6671 13.2086C31.6671 13.3556 31.6671 13.4993 31.6671 13.6399C31.295 14.0073 30.9229 14.4322 30.5604 14.9146C29.967 15.6973 29.5564 16.4449 29.2709 17.1413V5.1611ZM29.0496 21.0229C29.0303 21.1156 29.0111 21.1986 28.9918 21.2721C28.9854 21.2881 28.9822 21.3072 28.9758 21.3296L28.8379 21.1411L27.0191 18.6173L21.7904 11.3557C22.5956 11.4739 24.3695 11.9275 26.2011 13.7294C26.586 14.1063 26.971 14.5408 27.3495 15.0456C28.2059 16.1829 28.6807 17.2436 28.9277 18.17C28.9501 18.2563 28.9694 18.3393 28.9886 18.4192C29.0111 18.5151 29.0303 18.6077 29.0464 18.6972C29.1266 19.1348 29.1554 19.5342 29.1554 19.8888C29.1554 20.3424 29.1073 20.7258 29.0464 21.0229H29.0496ZM31.0769 18.6141L30.7946 19.0007L30.4706 19.4511L29.2709 21.1156L29.2549 21.1379C29.2613 21.1124 29.2645 21.0868 29.2709 21.0612C29.3864 20.5086 29.4634 19.6715 29.2709 18.6428C29.2421 18.4863 29.2068 18.3298 29.1651 18.1668C29.1971 18.0486 29.2324 17.9272 29.2709 17.8026C29.5404 16.9656 29.9959 16.0296 30.7433 15.0392C31.048 14.6335 31.356 14.2757 31.6639 13.9562C31.6992 13.9178 31.7409 13.8763 31.7762 13.838L31.8917 13.723C33.7265 11.9211 35.5004 11.4675 36.3023 11.3493L31.0737 18.6109L31.0769 18.6141Z" fill="white"/>
<path d="M4.00967 25.6076L3.75946 24.777L7.95201 24.991L8.22467 25.8983L4.83727 28.3583L4.58065 27.5021L5.28956 27.0261L4.86935 25.6332L4.00967 25.6044V25.6076ZM5.58789 25.6523L5.87658 26.6139L7.23347 25.7003V25.6907L5.58789 25.6555V25.6523Z" fill="white"/>
<path d="M8.54881 30.1057L9.5785 31.3932L7.91046 32.7158L7.56723 32.2877L7.90405 31.9171C7.58327 31.9043 7.11494 31.8916 6.66585 31.3293C6.07241 30.5881 6.0692 29.4891 7.15343 28.6266C7.99386 27.9589 9.16149 27.7927 9.98909 28.8246L9.99551 28.8342C10.7493 29.7799 10.4318 30.6392 10.034 31.013L9.51755 30.3677C9.63945 30.2718 9.85116 29.7447 9.48868 29.2911C9.123 28.831 8.4622 28.6585 7.66988 29.2911C6.82624 29.962 6.97379 30.5945 7.32344 31.0322C7.43571 31.1727 7.86876 31.6008 8.60013 31.2398L8.02594 30.5242L8.54881 30.1121V30.1057Z" fill="white"/>
<path d="M11.6732 30.7669L13.4374 31.703C14.3645 32.195 14.1688 32.9681 14.0084 33.2684C13.8031 33.6518 13.4342 33.8754 13.0268 33.8083C13.245 34.0863 13.3444 34.2747 12.998 34.9233C12.7253 35.4312 12.6579 35.5558 12.783 35.6964L12.7349 35.789L11.9298 35.361C11.9683 35.1693 12.0356 34.9776 12.2281 34.6198C12.4815 34.147 12.5521 33.9457 12.0132 33.6614L11.2594 33.262L10.5312 34.623L9.81586 34.2428L11.6764 30.7701L11.6732 30.7669ZM12.4238 33.1278C12.8023 33.3291 13.0557 33.2972 13.2417 32.9521C13.3412 32.7668 13.4021 32.4538 12.9755 32.2269L12.0677 31.7445L11.5705 32.6742L12.4238 33.1278Z" fill="white"/>
<path d="M15.4454 36.4376L14.637 36.2715L15.4358 32.4123L16.2441 32.5784L15.4454 36.4376Z" fill="white"/>
<path d="M18.0309 35.4567C18.0533 35.6739 18.1945 36.0829 18.913 36.0286C19.3044 35.9998 19.731 35.872 19.6989 35.4567C19.6765 35.15 19.3717 35.0925 18.9483 35.0254L18.5185 34.9583C17.8705 34.8593 17.245 34.7635 17.1776 33.9009C17.1455 33.4632 17.322 32.6741 18.6019 32.5783C19.8112 32.4856 20.1929 33.2491 20.2378 33.7316L19.4455 33.7923C19.4102 33.6197 19.314 33.2076 18.5922 33.2619C18.2779 33.2843 17.9154 33.4281 17.9411 33.7859C17.9635 34.0926 18.2234 34.1373 18.3902 34.1628L19.3685 34.3258C19.9171 34.4152 20.4271 34.5973 20.4816 35.3034C20.5714 36.4854 19.3717 36.6803 19.0253 36.7058C17.585 36.8145 17.2771 36.0094 17.2386 35.5206L18.0277 35.4599L18.0309 35.4567Z" fill="white"/>
<path d="M23.9075 31.7157L22.0117 32.6103L22.3677 33.3578L24.1096 32.5368L24.4079 33.1662L22.6661 33.9872L23.1055 34.9105L25.0879 33.9776L25.3863 34.607L22.6725 35.8849L20.982 32.3259L23.6092 31.0864L23.9075 31.7157Z" fill="white"/>
<path d="M26.9806 29.633C26.7624 29.5211 26.3486 29.3103 25.8835 29.8087C25.614 30.0962 25.4088 30.7032 26.2267 31.4603C26.7464 31.9427 27.4072 32.1696 27.8819 31.6616C28.1931 31.3294 28.222 30.9204 27.9333 30.5179L28.4946 29.9173C29.0111 30.6201 29.0688 31.438 28.392 32.16C27.6766 32.9267 26.6405 32.9938 25.6429 32.0673C24.6325 31.1281 24.6581 30.0706 25.3542 29.3263C26.1594 28.4637 27.0832 28.665 27.5419 29.0292L26.9806 29.633Z" fill="white"/>
<path d="M27.42 25.8919C27.5964 25.3999 28.2668 24.1827 30.0182 24.8025C31.7665 25.4191 31.5195 26.7864 31.3463 27.2784C31.173 27.7704 30.4994 28.9876 28.748 28.3678C26.9997 27.7512 27.2467 26.3807 27.42 25.8919ZM30.6855 27.0452C30.833 26.6267 30.7849 25.9462 29.7424 25.5756C28.6999 25.2082 28.2283 25.7034 28.0808 26.1251C27.9332 26.5436 27.9813 27.2241 29.0238 27.5947C30.0664 27.9621 30.5379 27.4669 30.6855 27.0452Z" fill="white"/>
</svg>
