<svg width="100" height="35" viewBox="0 0 100 35" fill="none" xmlns="http://www.w3.org/2000/svg">
<path d="M91.484 1.02051H8.22328C7.90119 1.02051 7.5791 1.02051 7.25701 1.02051C6.93491 1.02051 6.77387 1.02051 6.45178 1.02051C5.96864 1.02051 5.32445 1.02051 4.84132 1.18155C4.35818 1.3426 3.714 1.50365 3.23086 1.66469C2.74772 1.98678 2.26458 2.30888 1.94249 2.63097C1.6204 2.95306 1.13726 3.4362 0.976211 3.91933C0.654119 4.40247 0.493075 4.88561 0.493075 5.52979C0.332029 6.01293 0.332031 6.65712 0.332031 7.14025C0.332031 7.46235 0.332031 7.62339 0.332031 7.94548V27.1099C0.332031 27.432 0.332031 27.5931 0.332031 27.9152C0.332031 28.3983 0.332029 29.0425 0.493075 29.5256C0.654121 30.0088 0.815165 30.653 0.976211 31.1361C1.2983 31.6192 1.6204 32.1024 1.94249 32.4245C2.26458 32.7466 2.74772 33.2297 3.23086 33.3907C3.714 33.7128 4.19713 33.8739 4.84132 33.8739C5.32445 34.0349 5.96864 34.0349 6.45178 34.0349C6.77387 34.0349 6.93491 34.0349 7.25701 34.0349C7.5791 34.0349 7.90119 34.0349 8.22328 34.0349H91.484C91.8061 34.0349 92.1282 34.0349 92.4503 34.0349C92.7724 34.0349 92.9335 34.0349 93.2555 34.0349C93.7387 34.0349 94.3829 34.0349 94.866 33.8739C95.3491 33.7128 95.9933 33.5518 96.4765 33.3907C96.9596 33.0686 97.4427 32.7466 97.7648 32.4245C98.0869 32.1024 98.409 31.6192 98.7311 31.1361C99.0532 30.653 99.2142 30.1698 99.2142 29.5256C99.3753 29.0425 99.3753 28.3983 99.3753 27.9152C99.3753 27.5931 99.3753 27.432 99.3753 27.1099C99.3753 26.7879 99.3753 26.4658 99.3753 26.1437V8.91176C99.3753 8.58967 99.3753 8.26758 99.3753 7.94548C99.3753 7.62339 99.3753 7.46235 99.3753 7.14025C99.3753 6.65712 99.3753 6.01293 99.2142 5.52979C99.0532 5.04666 98.8922 4.40247 98.7311 3.91933C98.248 2.95306 97.4427 2.14783 96.4765 1.66469C95.9933 1.3426 95.5102 1.18155 94.866 1.18155C94.3829 1.02051 93.7387 1.02051 93.2555 1.02051C92.9335 1.02051 92.7724 1.02051 92.4503 1.02051C92.1282 1.02051 91.8061 1.02051 91.484 1.02051Z" fill="black"/>
<path d="M7.25825 33.3911C6.93615 33.3911 6.77511 33.3911 6.45302 33.3911C5.96988 33.3911 5.48674 33.3911 4.84256 33.23C4.35942 33.069 3.87628 33.069 3.39314 32.7469C2.91 32.5859 2.58791 32.2638 2.26582 31.9417C1.94373 31.6196 1.62164 31.1364 1.46059 30.8144C1.29955 30.3312 1.1385 29.8481 0.97745 29.3649C0.816404 28.8818 0.816406 28.3987 0.816406 27.7545C0.816406 27.5934 0.816406 26.9493 0.816406 26.9493V7.94583C0.816406 7.94583 0.816406 7.30165 0.816406 7.1406C0.816406 6.65746 0.816404 6.17433 0.97745 5.53014C0.97745 5.047 1.1385 4.56387 1.46059 4.08073C1.78268 3.91968 2.10477 3.43654 2.42687 3.11445C2.74896 2.79236 3.2321 2.47027 3.55419 2.30922C4.03733 2.14818 4.52046 1.98713 5.0036 1.82608C5.48674 1.66504 5.96988 1.66504 6.61406 1.66504H7.41929H92.6126H93.4178C93.901 1.66504 94.3841 1.66504 95.0283 1.82608C95.5114 1.98713 95.9946 1.98713 96.4777 2.30922C97.283 2.79236 98.0882 3.43654 98.4103 4.24177C98.5713 4.72491 98.7324 5.20805 98.8934 5.53014C99.0545 6.01328 99.0545 6.49642 99.0545 7.1406C99.0545 7.30165 99.0545 7.62374 99.0545 7.94583C99.0545 8.26792 99.0545 8.59002 99.0545 8.91211V26.3051C99.0545 26.6272 99.0545 26.9493 99.0545 27.2713C99.0545 27.5934 99.0545 27.7545 99.0545 28.0766C99.0545 28.5597 99.0545 29.0429 98.8934 29.687C98.8934 30.1702 98.7324 30.6533 98.4103 31.1364C98.2492 31.6196 97.9271 31.9417 97.605 32.2638C97.2829 32.5859 96.7998 32.908 96.4777 33.069C95.9946 33.23 95.5114 33.3911 95.0283 33.5521C94.5452 33.7132 94.062 33.7132 93.4178 33.7132C93.0958 33.7132 92.9347 33.7132 92.6126 33.7132H91.6463L7.25825 33.3911Z" fill="white"/>
<path d="M20.9454 17.4478C20.9454 15.9984 21.7506 14.71 23.039 13.9048C22.2337 12.7774 20.9453 11.9722 19.657 11.9722C18.2076 11.8112 16.7582 12.7774 16.114 12.7774C15.3087 12.7774 14.1814 11.9722 12.8931 11.9722C11.2826 11.9722 9.83318 12.9385 9.02795 14.3879C7.41749 17.2867 8.54481 21.4739 10.1553 23.8896C10.9605 25.0169 11.9268 26.3053 13.0541 26.3053C14.1814 26.3053 14.6646 25.5001 16.114 25.5001C17.5634 25.5001 17.8855 26.3053 19.1739 26.3053C20.4622 26.3053 21.2674 25.178 22.0727 24.0507C22.7169 23.2454 23.0389 22.2791 23.361 21.3129C22.0727 20.5076 20.9454 19.0582 20.9454 17.4478Z" fill="black"/>
<path d="M18.6909 10.5228C19.335 9.71753 19.6571 8.59021 19.6571 7.46289C18.5298 7.62394 17.5635 8.10707 16.9194 8.9123C16.2752 9.71753 15.792 10.6838 15.9531 11.8111C16.9194 11.8111 18.0467 11.328 18.6909 10.5228Z" fill="black"/>
<path d="M35.2778 19.952H31.4127L30.4464 22.6898H28.8359L32.54 12.3828H34.3115L38.0156 22.6898H36.4051L35.2778 19.952ZM31.8958 18.6636H34.9557L33.3452 14.1543L31.8958 18.6636Z" fill="black"/>
<path d="M46.0665 18.9857C46.0665 21.2403 44.7781 22.8508 43.0066 22.8508C42.0403 22.8508 41.0741 22.3676 40.5909 21.5624V25.2664H38.9805V15.2816H40.4299V16.57C40.913 15.7647 41.8793 15.2816 42.8456 15.2816C44.7781 15.1206 46.0665 16.731 46.0665 18.9857ZM44.456 18.9857C44.456 17.5362 43.6508 16.4089 42.5235 16.4089C41.3962 16.4089 40.5909 17.3752 40.5909 18.9857C40.5909 20.4351 41.3962 21.5624 42.5235 21.5624C43.6508 21.5624 44.456 20.5961 44.456 18.9857Z" fill="black"/>
<path d="M54.2852 18.9857C54.2852 21.2403 52.9969 22.8508 51.2254 22.8508C50.2591 22.8508 49.2928 22.3676 48.8097 21.5624V25.2664H47.1992V15.2816H48.6486V16.57C49.1318 15.7647 50.098 15.2816 51.0643 15.2816C52.9969 15.1206 54.2852 16.731 54.2852 18.9857ZM52.6748 18.9857C52.6748 17.5362 51.8695 16.4089 50.7422 16.4089C49.6149 16.4089 48.8097 17.3752 48.8097 18.9857C48.8097 20.4351 49.6149 21.5624 50.7422 21.5624C51.8695 21.5624 52.6748 20.5961 52.6748 18.9857Z" fill="black"/>
<path d="M59.755 19.9519C59.916 20.9182 60.8823 21.5623 62.1707 21.5623C63.459 21.5623 64.4253 20.9182 64.4253 19.9519C64.4253 19.1467 63.9422 18.6635 62.4928 18.3414L61.2044 18.0193C59.2719 17.5362 58.4666 16.731 58.4666 15.2816C58.4666 13.51 60.0771 12.2217 62.1707 12.2217C64.4253 12.2217 65.8747 13.51 65.8747 15.2816H64.2643C64.1032 14.3153 63.298 13.6711 62.0096 13.6711C60.7213 13.6711 59.916 14.3153 59.916 15.2816C59.916 16.0868 60.3992 16.4089 61.8486 16.731L62.9759 17.0531C65.0695 17.5362 66.0358 18.3414 66.0358 19.9519C66.0358 21.8844 64.4253 23.0118 62.0096 23.0118C59.755 23.0118 58.1445 21.8844 58.1445 19.9519H59.755Z" fill="black"/>
<path d="M69.2603 13.5098V15.2813H70.7097V16.5696H69.2603V20.7568C69.2603 21.401 69.5824 21.7231 70.2266 21.7231C70.3876 21.7231 70.5487 21.7231 70.7097 21.7231V23.0115C70.3877 23.0115 70.0656 23.0115 69.9045 23.0115C68.4551 23.0115 67.8109 22.3673 67.8109 20.9179V16.5696H66.6836V15.2813H67.8109V13.5098H69.2603Z" fill="black"/>
<path d="M71.5117 18.9852C71.5117 16.5695 72.9611 15.1201 75.0547 15.1201C77.3094 15.1201 78.5977 16.5695 78.5977 18.9852C78.5977 21.4009 77.1483 22.8503 75.0547 22.8503C72.9611 22.8503 71.5117 21.4009 71.5117 18.9852ZM77.1483 18.9852C77.1483 17.3748 76.3431 16.4085 75.2158 16.4085C74.0884 16.4085 73.2832 17.3748 73.2832 18.9852C73.2832 20.5957 74.0884 21.562 75.2158 21.562C76.3431 21.562 77.1483 20.5957 77.1483 18.9852Z" fill="black"/>
<path d="M80.0478 15.2817H81.4972V16.57C81.6582 15.7648 82.4635 15.1206 83.2687 15.2817C83.4297 15.2817 83.5908 15.2817 83.7518 15.2817V16.7311C83.5908 16.7311 83.2687 16.57 83.1076 16.57C82.3024 16.57 81.4972 17.2142 81.4972 18.0195V18.1805V22.6898H79.8867L80.0478 15.2817Z" fill="black"/>
<path d="M90.8421 20.5957C90.681 21.884 89.2316 22.8503 87.6211 22.8503C85.3665 22.8503 84.0781 21.4009 84.0781 18.9852C84.0781 16.5695 85.3665 15.1201 87.6211 15.1201C89.7147 15.1201 91.0031 16.5695 91.0031 18.8242V19.3073H85.6886V19.4684C85.5275 20.5957 86.3328 21.562 87.4601 21.562C87.6211 21.562 87.6211 21.562 87.7822 21.562C88.5874 21.562 89.2316 21.2399 89.5537 20.4346L90.8421 20.5957ZM85.6886 18.341H89.3926C89.3926 17.3748 88.7485 16.5695 87.6211 16.4085H87.4601C86.4938 16.4085 85.6886 17.2137 85.6886 18.341Z" fill="black"/>
</svg>
