<svg width="63" height="21" viewBox="0 0 63 21" fill="none" xmlns="http://www.w3.org/2000/svg">
<path d="M57.4669 0.21814H4.97566C4.7726 0.21814 4.56954 0.21814 4.36648 0.21814C4.16342 0.21814 4.06189 0.21814 3.85883 0.21814C3.55424 0.21814 3.14812 0.21814 2.84352 0.310355C2.53893 0.402571 2.13281 0.494787 1.82822 0.587003C1.52363 0.771434 1.21904 0.955866 1.01598 1.1403C0.812915 1.32473 0.508321 1.60138 0.406791 1.87802C0.20373 2.15467 0.1022 2.43132 0.1022 2.80018C0.000669836 3.07683 0.000671387 3.44569 0.000671387 3.72234C0.000671387 3.90677 0.000671387 3.99899 0.000671387 4.18342V15.1571C0.000671387 15.3415 0.000671387 15.4337 0.000671387 15.6182C0.000671387 15.8948 0.000669836 16.2637 0.1022 16.5403C0.203731 16.817 0.305261 17.1858 0.406791 17.4625C0.609852 17.7391 0.812915 18.0158 1.01598 18.2002C1.21904 18.3846 1.52363 18.6613 1.82822 18.7535C2.13281 18.9379 2.4374 19.0302 2.84352 19.0302C3.14812 19.1224 3.55424 19.1224 3.85883 19.1224C4.06189 19.1224 4.16342 19.1224 4.36648 19.1224C4.56954 19.1224 4.7726 19.1224 4.97566 19.1224H57.4669C57.67 19.1224 57.873 19.1224 58.0761 19.1224C58.2792 19.1224 58.3807 19.1224 58.5838 19.1224C58.8884 19.1224 59.2945 19.1224 59.5991 19.0302C59.9037 18.9379 60.3098 18.8457 60.6144 18.7535C60.919 18.5691 61.2235 18.3846 61.4266 18.2002C61.6297 18.0158 61.8327 17.7391 62.0358 17.4625C62.2389 17.1858 62.3404 16.9092 62.3404 16.5403C62.4419 16.2637 62.4419 15.8948 62.4419 15.6182C62.4419 15.4337 62.4419 15.3415 62.4419 15.1571C62.4419 14.9727 62.4419 14.7882 62.4419 14.6038V4.73671C62.4419 4.55228 62.4419 4.36785 62.4419 4.18342C62.4419 3.99899 62.4419 3.90677 62.4419 3.72234C62.4419 3.44569 62.4419 3.07683 62.3404 2.80018C62.2389 2.52353 62.1373 2.15467 62.0358 1.87802C61.7312 1.32473 61.2236 0.86365 60.6144 0.587003C60.3098 0.402571 60.0052 0.310355 59.5991 0.310355C59.2945 0.21814 58.8884 0.21814 58.5838 0.21814C58.3807 0.21814 58.2792 0.21814 58.0761 0.21814C57.873 0.21814 57.67 0.21814 57.4669 0.21814Z" fill="white"/>
<path d="M4.63049 18.3653C4.42764 18.3653 4.32622 18.3653 4.12337 18.3653C3.8191 18.3653 3.51483 18.3653 3.10914 18.2732C2.80487 18.1811 2.50059 18.1811 2.19632 17.9968C1.89205 17.9047 1.68921 17.7205 1.48636 17.5363C1.28351 17.352 1.08067 17.0757 0.979243 16.8914C0.87782 16.6151 0.776393 16.3387 0.674969 16.0624C0.573546 15.786 0.573547 15.5097 0.573547 15.1412C0.573547 15.0491 0.573547 14.6806 0.573547 14.6806V3.81075C0.573547 3.81075 0.573547 3.44228 0.573547 3.35016C0.573547 3.07381 0.573546 2.79746 0.674969 2.42899C0.674969 2.15264 0.776396 1.87628 0.979243 1.59993C1.18209 1.50781 1.38494 1.23146 1.58778 1.04723C1.79063 0.862992 2.0949 0.678757 2.29775 0.58664C2.60202 0.494523 2.90629 0.402405 3.21056 0.310288C3.51483 0.21817 3.8191 0.21817 4.22479 0.21817H4.73191H58.385H58.8921C59.1964 0.21817 59.5007 0.21817 59.9063 0.310288C60.2106 0.402405 60.5149 0.402405 60.8192 0.58664C61.3263 0.862992 61.8334 1.23146 62.0362 1.69205C62.1377 1.9684 62.2391 2.24475 62.3405 2.42899C62.4419 2.70534 62.4419 2.98169 62.4419 3.35016C62.4419 3.44228 62.4419 3.62652 62.4419 3.81075C62.4419 3.99499 62.4419 4.17922 62.4419 4.36346V14.3121C62.4419 14.4964 62.4419 14.6806 62.4419 14.8648C62.4419 15.0491 62.4419 15.1412 62.4419 15.3254C62.4419 15.6018 62.4419 15.8781 62.3405 16.2466C62.3405 16.523 62.2391 16.7993 62.0362 17.0757C61.9348 17.352 61.732 17.5363 61.5291 17.7205C61.3263 17.9047 61.022 18.089 60.8192 18.1811C60.5149 18.2732 60.2106 18.3653 59.9063 18.4574C59.6021 18.5495 59.2978 18.5495 58.8921 18.5495C58.6893 18.5495 58.5878 18.5495 58.385 18.5495H57.7765L4.63049 18.3653Z" fill="white"/>
<path d="M15.2954 9.51338C15.2954 8.68308 15.7567 7.94503 16.4947 7.48375C16.0335 6.83795 15.2954 6.37667 14.5574 6.37667C13.7271 6.28442 12.8968 6.83795 12.5277 6.83795C12.0664 6.83795 11.4207 6.37667 10.6826 6.37667C9.76005 6.37667 8.92974 6.93021 8.46846 7.76052C7.5459 9.42112 8.19169 11.8198 9.11425 13.2036C9.57553 13.8494 10.1291 14.5875 10.7749 14.5875C11.4207 14.5875 11.6974 14.1262 12.5277 14.1262C13.358 14.1262 13.5425 14.5875 14.2806 14.5875C15.0186 14.5875 15.4799 13.9417 15.9412 13.2959C16.3102 12.8346 16.4947 12.2811 16.6792 11.7275C15.9412 11.2662 15.2954 10.4359 15.2954 9.51338Z" fill="black"/>
<path d="M14.0039 5.54638C14.3729 5.0851 14.5574 4.43931 14.5574 3.79352C13.9116 3.88577 13.3581 4.16254 12.9891 4.62382C12.6201 5.0851 12.3433 5.63864 12.4355 6.28443C12.9891 6.28443 13.6349 6.00766 14.0039 5.54638Z" fill="black"/>
<path d="M23.5054 10.948H21.2913L20.7377 12.5163H19.8152L21.9371 6.61194H22.9519L25.0738 12.5163H24.1512L23.5054 10.948ZM21.5681 10.2099H23.3209L22.3984 7.62676L21.5681 10.2099Z" fill="black"/>
<path d="M29.6868 10.3944C29.6868 11.6859 28.9487 12.6085 27.9339 12.6085C27.3804 12.6085 26.8268 12.3317 26.5501 11.8705V13.9923H25.6275V8.27247H26.4578V9.01051C26.7346 8.54923 27.2881 8.27247 27.8416 8.27247C28.9487 8.18021 29.6868 9.10277 29.6868 10.3944ZM28.7642 10.3944C28.7642 9.56405 28.3029 8.91826 27.6571 8.91826C27.0113 8.91826 26.5501 9.47179 26.5501 10.3944C26.5501 11.2247 27.0113 11.8705 27.6571 11.8705C28.3029 11.8705 28.7642 11.3169 28.7642 10.3944Z" fill="black"/>
<path d="M34.3932 10.3944C34.3932 11.6859 33.6551 12.6085 32.6403 12.6085C32.0868 12.6085 31.5333 12.3317 31.2565 11.8705V13.9923H30.3339V8.27247H31.1642V9.01051C31.441 8.54923 31.9945 8.27247 32.5481 8.27247C33.6551 8.18021 34.3932 9.10277 34.3932 10.3944ZM33.4706 10.3944C33.4706 9.56405 33.0093 8.91826 32.3636 8.91826C31.7178 8.91826 31.2565 9.47179 31.2565 10.3944C31.2565 11.2247 31.7178 11.8705 32.3636 11.8705C33.0093 11.8705 33.4706 11.3169 33.4706 10.3944Z" fill="black"/>
<path d="M37.5278 10.9479C37.62 11.5014 38.1736 11.8705 38.9116 11.8705C39.6497 11.8705 40.2032 11.5014 40.2032 10.9479C40.2032 10.4866 39.9264 10.2099 39.0961 10.0254L38.3581 9.84084C37.251 9.56407 36.7897 9.10279 36.7897 8.27249C36.7897 7.25767 37.7123 6.51962 38.9116 6.51962C40.2032 6.51962 41.0335 7.25767 41.0335 8.27249H40.111C40.0187 7.71895 39.5574 7.34993 38.8194 7.34993C38.0813 7.34993 37.62 7.71895 37.62 8.27249C37.62 8.73377 37.8968 8.91828 38.7271 9.10279L39.3729 9.2873C40.5722 9.56407 41.1258 10.0254 41.1258 10.9479C41.1258 12.055 40.2032 12.7008 38.8194 12.7008C37.5278 12.7008 36.6052 12.055 36.6052 10.9479H37.5278Z" fill="black"/>
<path d="M42.9715 7.25757V8.27238H43.8018V9.01043H42.9715V11.4091C42.9715 11.7781 43.156 11.9626 43.5251 11.9626C43.6173 11.9626 43.7096 11.9626 43.8018 11.9626V12.7007C43.6173 12.7007 43.4328 12.7007 43.3405 12.7007C42.5102 12.7007 42.1412 12.3317 42.1412 11.5013V9.01043H41.4954V8.27238H42.1412V7.25757H42.9715Z" fill="black"/>
<path d="M44.2626 10.3941C44.2626 9.0103 45.0929 8.17999 46.2923 8.17999C47.5838 8.17999 48.3219 9.0103 48.3219 10.3941C48.3219 11.778 47.4916 12.6083 46.2923 12.6083C45.0929 12.6083 44.2626 11.778 44.2626 10.3941ZM47.4916 10.3941C47.4916 9.47158 47.0303 8.91804 46.3845 8.91804C45.7387 8.91804 45.2774 9.47158 45.2774 10.3941C45.2774 11.3167 45.7387 11.8702 46.3845 11.8702C47.0303 11.8702 47.4916 11.3167 47.4916 10.3941Z" fill="black"/>
<path d="M49.1519 8.27253H49.9822V9.01058C50.0744 8.5493 50.5357 8.18028 50.997 8.27253C51.0893 8.27253 51.1815 8.27253 51.2738 8.27253V9.10284C51.1815 9.10284 50.997 9.01058 50.9048 9.01058C50.4435 9.01058 49.9822 9.3796 49.9822 9.84088V9.93314V12.5163H49.0596L49.1519 8.27253Z" fill="black"/>
<path d="M55.3355 11.3167C55.2432 12.0547 54.4129 12.6083 53.4903 12.6083C52.1987 12.6083 51.4607 11.778 51.4607 10.3941C51.4607 9.0103 52.1987 8.17999 53.4903 8.17999C54.6897 8.17999 55.4277 9.0103 55.4277 10.3019V10.5786H52.3833V10.6709C52.291 11.3167 52.7523 11.8702 53.3981 11.8702C53.4903 11.8702 53.4903 11.8702 53.5826 11.8702C54.0439 11.8702 54.4129 11.6857 54.5974 11.2244L55.3355 11.3167ZM52.3833 10.0251H54.5051C54.5051 9.47158 54.1361 9.0103 53.4903 8.91804H53.3981C52.8445 8.91804 52.3833 9.37932 52.3833 10.0251Z" fill="black"/>
</svg>
