<svg width="705" height="718" viewBox="0 0 705 718" fill="none" xmlns="http://www.w3.org/2000/svg">
<path d="M647.885 399.823C645.45 575.434 501.353 717.017 323.972 717.017C146.59 717.017 0 573.016 0 395.332C0 217.648 146.358 75.1437 323.972 73.6467V102.723C162.885 104.22 29.3413 234.979 29.3413 395.274C29.3413 555.57 161.493 687.883 323.972 687.883C402.312 687.883 476.013 657.712 531.622 602.899C586.651 548.661 617.442 476.631 618.602 399.823H647.943H647.885Z" fill="#F5F6F8"/>
<path d="M323.278 321.114V295.492H220.584V499.489H426.031V399.822H401.676V475.939H243.953V321.114H323.278Z" fill="#F5F6F8"/>
<path d="M697.172 151.429L665.685 194.612C665.685 194.612 665.569 194.266 665.511 194.094L705 133.292L700.651 130.701L661.394 191.215C650.899 191.906 614.657 196.972 576.444 232.901C576.444 231.634 576.444 230.367 576.444 229.043C574.762 133.349 539.854 89.1875 528.605 77.3841L529.069 0H523.966L523.502 75.3689C523.386 75.3689 523.328 75.484 523.212 75.5992L520.487 19.346L515.384 19.5763L518.341 80.8387C504.772 96.615 475.199 141.065 473.691 228.985C473.691 230.31 473.691 231.576 473.691 232.843C437.218 198.469 402.484 192.366 390.365 191.272L350.992 130.643L346.643 133.234L385.146 192.539C385.146 192.539 385.03 192.942 384.914 193.172L354.471 151.429L350.296 154.192L383.232 199.391C379.173 216.837 375.114 260.135 413.037 315.294C453.976 374.714 503.381 382.89 519.617 383.926V399.875H532.026V383.754C549.596 382.314 597.319 372.987 637.098 315.237C673.978 261.689 671.194 219.255 667.251 200.888L701.347 154.135L697.172 151.371V151.429ZM529.127 84.0055C542.406 99.9544 570.935 143.828 572.443 229.043C572.443 231.692 572.443 234.283 572.443 236.816C565.716 243.437 558.99 251.095 552.437 259.789C541.71 273.896 534.288 287.369 529.127 299.921V84.0055ZM525.126 369.877C524.778 371.547 524.43 373.044 524.082 374.369C523.966 374.656 523.908 375.002 523.792 375.405L521.299 372.008L488.42 326.522L393.902 195.648C408.456 197.779 440.523 205.955 473.633 238.428C480.592 245.222 487.55 253.053 494.393 262.15C509.875 282.648 518.457 301.763 522.922 318.461C523.328 320.015 523.676 321.512 524.024 322.952C524.43 324.679 524.778 326.349 525.068 327.961C526.517 335.849 527.039 343.046 527.039 349.438C527.039 357.613 526.169 364.523 525.068 369.877H525.126ZM561.773 326.464L556.67 333.431L550.814 341.549L529.127 371.547L528.837 371.95C528.953 371.49 529.011 371.029 529.127 370.568C531.214 360.608 532.606 345.522 529.127 326.982C528.605 324.161 527.967 321.34 527.213 318.403C527.793 316.273 528.431 314.085 529.127 311.839C533.998 296.754 542.232 279.884 555.743 262.035C561.251 254.723 566.818 248.274 572.385 242.516C573.023 241.825 573.776 241.077 574.414 240.386L576.502 238.313C609.67 205.839 641.737 197.663 656.234 195.533L561.715 326.407L561.773 326.464Z" fill="#F5F6F8"/>
<path fill-rule="evenodd" clip-rule="evenodd" d="M612.228 399.819L612.227 399.876H432.353V505.07H432.063V506.51H212.526V288.522H322.295V110.089C163.411 110.895 34.3906 239.581 34.3906 397.516C34.3906 478.009 67.8489 550.844 121.719 603.067C122.762 604.104 123.806 605.082 124.85 606.061C176.69 653.908 246.1 683.273 322.295 683.273C480.231 683.273 609.761 556.345 612.227 399.876H612.286L612.228 399.819ZM72.4852 452.503L67.9623 437.533L143.751 441.391L148.68 457.743L87.4458 502.078L82.8069 486.647L95.6219 478.068L88.0257 452.964L72.4852 452.446V452.503ZM106.233 470.64L101.032 453.367L130.762 454V454.173L106.233 470.64ZM173.146 556.775L154.533 533.572V533.687L145.081 541.114L155.461 554.012C142.24 560.518 134.411 552.802 132.382 550.269C126.061 542.381 123.394 530.981 138.644 518.889C152.967 507.489 164.912 510.598 171.523 518.889C178.075 527.065 174.248 536.566 172.045 538.293L181.381 549.924C188.571 543.187 194.312 527.699 180.685 510.656L180.569 510.483C165.608 491.886 144.501 494.88 129.309 506.913C109.709 522.459 109.767 542.266 120.495 555.624C128.527 565.651 136.901 565.982 142.693 566.211L142.877 566.218L136.789 572.897L142.993 580.612L173.146 556.775ZM211.015 545.495L242.908 562.365C259.666 571.232 256.129 585.166 253.23 590.578C249.518 597.487 242.85 601.518 235.486 600.308C239.429 605.318 241.226 608.715 234.964 620.403L234.928 620.469C230.029 629.569 228.823 631.809 231.079 634.337L230.209 636.006L215.654 628.291C216.35 624.836 217.568 621.382 221.047 614.933C225.628 606.412 226.904 602.784 217.162 597.66L203.535 590.463L190.372 614.991L177.441 608.139L211.073 545.552L211.015 545.495ZM224.584 588.044C231.427 591.672 236.007 591.096 239.371 584.878C241.168 581.538 242.27 575.896 234.558 571.808L218.148 563.113L209.16 579.868L224.584 588.044ZM264.585 644.693L279.197 647.687L293.636 578.133L279.023 575.139L264.585 644.693ZM325.95 630.014C326.356 633.929 328.907 641.299 341.896 640.32C348.971 639.802 356.683 637.499 356.103 630.014C355.697 624.486 350.188 623.45 342.534 622.241L334.764 621.032C323.051 619.247 311.743 617.519 310.525 601.974C309.946 594.085 313.135 579.864 336.272 578.136C358.133 576.467 365.033 590.228 365.845 598.922L351.522 600.016C350.884 596.907 349.145 589.479 336.098 590.458C330.415 590.861 323.862 593.452 324.326 599.901C324.732 605.428 329.429 606.234 332.444 606.695L350.13 609.631C360.046 611.243 369.266 614.525 370.252 627.25C371.875 648.554 350.188 652.066 343.926 652.526C317.89 654.484 312.323 639.975 311.627 631.165L325.892 630.071L325.95 630.014ZM397.918 578.717L432.188 562.596L426.796 551.253L379.304 573.593L409.863 637.734L458.92 614.703L453.527 603.36L417.692 620.173L409.747 603.533L441.234 588.736L435.842 577.393L404.355 592.19L397.918 578.717ZM487.727 525.052C483.784 523.037 476.303 519.237 467.895 528.219C463.024 533.401 459.313 544.34 474.1 557.986C483.494 566.681 495.439 570.768 504.021 561.614C509.646 555.626 510.168 548.256 504.949 541.001L515.097 530.176C524.432 542.843 525.476 557.583 513.241 570.596C500.31 584.414 481.58 585.623 463.546 568.926C445.281 551.998 445.744 532.94 458.328 519.525C472.882 503.979 489.582 507.606 497.874 514.17L487.727 525.052ZM542.641 437.998C510.98 426.828 498.861 448.765 495.672 457.632C492.541 466.441 488.076 491.142 519.678 502.254C551.339 513.424 563.516 491.487 566.648 482.621C569.779 473.754 574.244 449.11 542.641 437.998ZM537.654 451.932C556.5 458.611 557.37 470.875 554.702 478.417C552.035 486.018 543.511 494.942 524.665 488.321C505.82 481.642 504.95 469.378 507.617 461.835C510.285 454.235 518.809 445.31 537.654 451.932Z" fill="#F5F6F8"/>
</svg>
