<svg width="413" height="251" viewBox="0 0 413 251" fill="none" xmlns="http://www.w3.org/2000/svg">
<rect width="413" height="251" rx="8" fill="white"/>
<line x1="10" y1="228.5" x2="352.536" y2="228.5" stroke="#E2E5ED"/>
<line x1="10" y1="185.5" x2="352.536" y2="185.5" stroke="#E2E5ED"/>
<line x1="10.4634" y1="142.5" x2="353" y2="142.5" stroke="#E2E5ED"/>
<line x1="10.4634" y1="99.5" x2="353" y2="99.5" stroke="#E2E5ED"/>
<line x1="10.4634" y1="56.5" x2="353" y2="56.5" stroke="#E2E5ED"/>
<line x1="10.4634" y1="13.5" x2="353" y2="13.5" stroke="#E2E5ED"/>
<line x1="353.5" y1="14" x2="353.5" y2="229" stroke="#E2E5ED"/>
<line x1="318.814" y1="14" x2="318.814" y2="229" stroke="#E2E5ED"/>
<line x1="285.093" y1="14" x2="285.093" y2="229" stroke="#E2E5ED"/>
<line x1="250.407" y1="14" x2="250.407" y2="229" stroke="#E2E5ED"/>
<line x1="216.686" y1="14" x2="216.686" y2="229" stroke="#E2E5ED"/>
<line x1="182" y1="14" x2="182" y2="229" stroke="#E2E5ED"/>
<line x1="147.314" y1="14" x2="147.314" y2="229" stroke="#E2E5ED"/>
<line x1="113.593" y1="14" x2="113.593" y2="229" stroke="#E2E5ED"/>
<line x1="78.9072" y1="14" x2="78.9072" y2="229" stroke="#E2E5ED"/>
<line x1="45.1855" y1="14" x2="45.1855" y2="229" stroke="#E2E5ED"/>
<line x1="10.5" y1="14" x2="10.5" y2="229" stroke="#E2E5ED"/>
<path d="M1.56445 238.059V237.25C2.32617 237.176 2.85742 237.053 3.1582 236.881C3.45898 236.705 3.68359 236.293 3.83203 235.645H4.66406V244H3.53906V238.059H1.56445ZM7.35352 238.059V237.25C8.11523 237.176 8.64648 237.053 8.94727 236.881C9.24805 236.705 9.47266 236.293 9.62109 235.645H10.4531V244H9.32812V238.059H7.35352ZM14.2148 237.807H15.4395V239.084H14.2148V237.807ZM14.2148 242.723H15.4395V244H14.2148V242.723ZM19.4707 235.609C20.5566 235.609 21.3418 236.057 21.8262 236.951C22.2012 237.643 22.3887 238.59 22.3887 239.793C22.3887 240.934 22.2188 241.877 21.8789 242.623C21.3867 243.693 20.582 244.229 19.4648 244.229C18.457 244.229 17.707 243.791 17.2148 242.916C16.8047 242.186 16.5996 241.205 16.5996 239.975C16.5996 239.021 16.7227 238.203 16.9688 237.52C17.4297 236.246 18.2637 235.609 19.4707 235.609ZM19.459 243.268C20.0059 243.268 20.4414 243.025 20.7656 242.541C21.0898 242.057 21.252 241.154 21.252 239.834C21.252 238.881 21.1348 238.098 20.9004 237.484C20.666 236.867 20.2109 236.559 19.5352 236.559C18.9141 236.559 18.459 236.852 18.1699 237.438C17.8848 238.02 17.7422 238.879 17.7422 240.016C17.7422 240.871 17.834 241.559 18.0176 242.078C18.2988 242.871 18.7793 243.268 19.459 243.268ZM26.1504 235.609C27.2363 235.609 28.0215 236.057 28.5059 236.951C28.8809 237.643 29.0684 238.59 29.0684 239.793C29.0684 240.934 28.8984 241.877 28.5586 242.623C28.0664 243.693 27.2617 244.229 26.1445 244.229C25.1367 244.229 24.3867 243.791 23.8945 242.916C23.4844 242.186 23.2793 241.205 23.2793 239.975C23.2793 239.021 23.4023 238.203 23.6484 237.52C24.1094 236.246 24.9434 235.609 26.1504 235.609ZM26.1387 243.268C26.6855 243.268 27.1211 243.025 27.4453 242.541C27.7695 242.057 27.9316 241.154 27.9316 239.834C27.9316 238.881 27.8145 238.098 27.5801 237.484C27.3457 236.867 26.8906 236.559 26.2148 236.559C25.5938 236.559 25.1387 236.852 24.8496 237.438C24.5645 238.02 24.4219 238.879 24.4219 240.016C24.4219 240.871 24.5137 241.559 24.6973 242.078C24.9785 242.871 25.459 243.268 26.1387 243.268Z" fill="#333333"/>
<path d="M54.1543 238.059V237.25C54.916 237.176 55.4473 237.053 55.748 236.881C56.0488 236.705 56.2734 236.293 56.4219 235.645H57.2539V244H56.1289V238.059H54.1543ZM59.9434 238.059V237.25C60.7051 237.176 61.2363 237.053 61.5371 236.881C61.8379 236.705 62.0625 236.293 62.2109 235.645H63.043V244H61.918V238.059H59.9434ZM66.8047 237.807H68.0293V239.084H66.8047V237.807ZM66.8047 242.723H68.0293V244H66.8047V242.723ZM72.0605 235.609C73.1465 235.609 73.9316 236.057 74.416 236.951C74.791 237.643 74.9785 238.59 74.9785 239.793C74.9785 240.934 74.8086 241.877 74.4688 242.623C73.9766 243.693 73.1719 244.229 72.0547 244.229C71.0469 244.229 70.2969 243.791 69.8047 242.916C69.3945 242.186 69.1895 241.205 69.1895 239.975C69.1895 239.021 69.3125 238.203 69.5586 237.52C70.0195 236.246 70.8535 235.609 72.0605 235.609ZM72.0488 243.268C72.5957 243.268 73.0312 243.025 73.3555 242.541C73.6797 242.057 73.8418 241.154 73.8418 239.834C73.8418 238.881 73.7246 238.098 73.4902 237.484C73.2559 236.867 72.8008 236.559 72.125 236.559C71.5039 236.559 71.0488 236.852 70.7598 237.438C70.4746 238.02 70.332 238.879 70.332 240.016C70.332 240.871 70.4238 241.559 70.6074 242.078C70.8887 242.871 71.3691 243.268 72.0488 243.268ZM78.6113 244.229C77.6191 244.229 76.8984 243.957 76.4492 243.414C76.0039 242.867 75.7812 242.203 75.7812 241.422H76.8828C76.9297 241.965 77.0312 242.359 77.1875 242.605C77.4609 243.047 77.9551 243.268 78.6699 243.268C79.2246 243.268 79.6699 243.119 80.0059 242.822C80.3418 242.525 80.5098 242.143 80.5098 241.674C80.5098 241.096 80.332 240.691 79.9766 240.461C79.625 240.23 79.1348 240.115 78.5059 240.115C78.4355 240.115 78.3633 240.117 78.2891 240.121C78.2188 240.121 78.1465 240.123 78.0723 240.127V239.195C78.1816 239.207 78.2734 239.215 78.3477 239.219C78.4219 239.223 78.502 239.225 78.5879 239.225C78.9824 239.225 79.3066 239.162 79.5605 239.037C80.0059 238.818 80.2285 238.428 80.2285 237.865C80.2285 237.447 80.0801 237.125 79.7832 236.898C79.4863 236.672 79.1406 236.559 78.7461 236.559C78.043 236.559 77.5566 236.793 77.2871 237.262C77.1387 237.52 77.0547 237.887 77.0352 238.363H75.9922C75.9922 237.738 76.1172 237.207 76.3672 236.77C76.7969 235.988 77.5527 235.598 78.6348 235.598C79.4902 235.598 80.1523 235.789 80.6211 236.172C81.0898 236.551 81.3242 237.102 81.3242 237.824C81.3242 238.34 81.1855 238.758 80.9082 239.078C80.7363 239.277 80.5137 239.434 80.2402 239.547C80.6816 239.668 81.0254 239.902 81.2715 240.25C81.5215 240.594 81.6465 241.016 81.6465 241.516C81.6465 242.316 81.3828 242.969 80.8555 243.473C80.3281 243.977 79.5801 244.229 78.6113 244.229Z" fill="#333333"/>
<path d="M111.677 238.059V237.25C112.439 237.176 112.97 237.053 113.271 236.881C113.572 236.705 113.796 236.293 113.945 235.645H114.777V244H113.652V238.059H111.677ZM117.466 238.059V237.25C118.228 237.176 118.759 237.053 119.06 236.881C119.361 236.705 119.585 236.293 119.734 235.645H120.566V244H119.441V238.059H117.466ZM124.328 237.807H125.552V239.084H124.328V237.807ZM124.328 242.723H125.552V244H124.328V242.723ZM129.584 235.609C130.669 235.609 131.455 236.057 131.939 236.951C132.314 237.643 132.501 238.59 132.501 239.793C132.501 240.934 132.332 241.877 131.992 242.623C131.5 243.693 130.695 244.229 129.578 244.229C128.57 244.229 127.82 243.791 127.328 242.916C126.918 242.186 126.712 241.205 126.712 239.975C126.712 239.021 126.835 238.203 127.082 237.52C127.543 236.246 128.376 235.609 129.584 235.609ZM129.572 243.268C130.119 243.268 130.554 243.025 130.878 242.541C131.203 242.057 131.365 241.154 131.365 239.834C131.365 238.881 131.248 238.098 131.013 237.484C130.779 236.867 130.324 236.559 129.648 236.559C129.027 236.559 128.572 236.852 128.283 237.438C127.998 238.02 127.855 238.879 127.855 240.016C127.855 240.871 127.947 241.559 128.13 242.078C128.412 242.871 128.892 243.268 129.572 243.268ZM136.527 235.574C137.464 235.574 138.117 235.818 138.484 236.307C138.855 236.791 139.041 237.291 139.041 237.807H137.998C137.935 237.475 137.835 237.215 137.699 237.027C137.445 236.676 137.06 236.5 136.544 236.5C135.955 236.5 135.486 236.773 135.138 237.32C134.791 237.863 134.597 238.643 134.558 239.658C134.8 239.303 135.105 239.037 135.472 238.861C135.808 238.705 136.183 238.627 136.597 238.627C137.3 238.627 137.914 238.852 138.437 239.301C138.96 239.75 139.222 240.42 139.222 241.311C139.222 242.072 138.974 242.748 138.478 243.338C137.982 243.924 137.275 244.217 136.357 244.217C135.572 244.217 134.894 243.92 134.324 243.326C133.753 242.729 133.468 241.725 133.468 240.314C133.468 239.271 133.595 238.387 133.849 237.66C134.337 236.27 135.23 235.574 136.527 235.574ZM136.451 243.279C137.005 243.279 137.419 243.094 137.693 242.723C137.97 242.348 138.109 241.906 138.109 241.398C138.109 240.969 137.986 240.561 137.74 240.174C137.494 239.783 137.046 239.588 136.398 239.588C135.945 239.588 135.546 239.738 135.203 240.039C134.863 240.34 134.693 240.793 134.693 241.398C134.693 241.93 134.847 242.377 135.156 242.74C135.468 243.1 135.9 243.279 136.451 243.279Z" fill="#333333"/>
<path d="M168.842 238.059V237.25C169.604 237.176 170.135 237.053 170.436 236.881C170.737 236.705 170.961 236.293 171.11 235.645H171.942V244H170.817V238.059H168.842ZM174.631 238.059V237.25C175.393 237.176 175.924 237.053 176.225 236.881C176.526 236.705 176.75 236.293 176.899 235.645H177.731V244H176.606V238.059H174.631ZM181.493 237.807H182.717V239.084H181.493V237.807ZM181.493 242.723H182.717V244H181.493V242.723ZM186.749 235.609C187.834 235.609 188.62 236.057 189.104 236.951C189.479 237.643 189.667 238.59 189.667 239.793C189.667 240.934 189.497 241.877 189.157 242.623C188.665 243.693 187.86 244.229 186.743 244.229C185.735 244.229 184.985 243.791 184.493 242.916C184.083 242.186 183.877 241.205 183.877 239.975C183.877 239.021 184 238.203 184.247 237.52C184.708 236.246 185.542 235.609 186.749 235.609ZM186.737 243.268C187.284 243.268 187.719 243.025 188.043 242.541C188.368 242.057 188.53 241.154 188.53 239.834C188.53 238.881 188.413 238.098 188.178 237.484C187.944 236.867 187.489 236.559 186.813 236.559C186.192 236.559 185.737 236.852 185.448 237.438C185.163 238.02 185.02 238.879 185.02 240.016C185.02 240.871 185.112 241.559 185.295 242.078C185.577 242.871 186.057 243.268 186.737 243.268ZM191.776 241.973C191.807 242.555 192.032 242.957 192.45 243.18C192.665 243.297 192.907 243.355 193.176 243.355C193.68 243.355 194.11 243.146 194.465 242.729C194.821 242.307 195.073 241.453 195.221 240.168C194.987 240.539 194.696 240.801 194.348 240.953C194.004 241.102 193.633 241.176 193.235 241.176C192.426 241.176 191.786 240.924 191.313 240.42C190.844 239.916 190.61 239.268 190.61 238.475C190.61 237.713 190.842 237.043 191.307 236.465C191.772 235.887 192.458 235.598 193.364 235.598C194.586 235.598 195.43 236.148 195.895 237.25C196.153 237.855 196.282 238.613 196.282 239.523C196.282 240.551 196.127 241.461 195.819 242.254C195.307 243.574 194.44 244.234 193.217 244.234C192.397 244.234 191.774 244.02 191.348 243.59C190.922 243.16 190.709 242.621 190.709 241.973H191.776ZM193.375 240.25C193.793 240.25 194.174 240.113 194.518 239.84C194.866 239.562 195.04 239.08 195.04 238.393C195.04 237.775 194.883 237.316 194.571 237.016C194.262 236.711 193.868 236.559 193.387 236.559C192.872 236.559 192.461 236.732 192.157 237.08C191.856 237.424 191.706 237.885 191.706 238.463C191.706 239.01 191.838 239.445 192.104 239.77C192.37 240.09 192.793 240.25 193.375 240.25Z" fill="#333333"/>
<path d="M225.114 238.059V237.25C225.875 237.176 226.407 237.053 226.708 236.881C227.008 236.705 227.233 236.293 227.381 235.645H228.213V244H227.088V238.059H225.114ZM230.903 238.059V237.25C231.665 237.176 232.196 237.053 232.497 236.881C232.797 236.705 233.022 236.293 233.17 235.645H234.002V244H232.877V238.059H230.903ZM237.764 237.807H238.989V239.084H237.764V237.807ZM237.764 242.723H238.989V244H237.764V242.723ZM240.922 238.059V237.25C241.684 237.176 242.215 237.053 242.516 236.881C242.817 236.705 243.042 236.293 243.19 235.645H244.022V244H242.897V238.059H240.922ZM246.829 244C246.868 243.277 247.016 242.648 247.274 242.113C247.536 241.578 248.043 241.092 248.797 240.654L249.922 240.004C250.426 239.711 250.78 239.461 250.983 239.254C251.303 238.93 251.463 238.559 251.463 238.141C251.463 237.652 251.317 237.266 251.024 236.98C250.731 236.691 250.34 236.547 249.852 236.547C249.129 236.547 248.629 236.82 248.352 237.367C248.204 237.66 248.122 238.066 248.106 238.586H247.034C247.045 237.855 247.18 237.26 247.438 236.799C247.895 235.986 248.702 235.58 249.858 235.58C250.819 235.58 251.52 235.84 251.961 236.359C252.407 236.879 252.629 237.457 252.629 238.094C252.629 238.766 252.393 239.34 251.92 239.816C251.647 240.094 251.157 240.43 250.45 240.824L249.647 241.27C249.264 241.48 248.963 241.682 248.745 241.873C248.354 242.213 248.108 242.59 248.006 243.004H252.588V244H246.829Z" fill="#333333"/>
<path d="M282.254 238.059V237.25C283.016 237.176 283.547 237.053 283.848 236.881C284.149 236.705 284.374 236.293 284.522 235.645H285.354V244H284.229V238.059H282.254ZM288.043 238.059V237.25C288.805 237.176 289.336 237.053 289.637 236.881C289.938 236.705 290.163 236.293 290.311 235.645H291.143V244H290.018V238.059H288.043ZM294.905 237.807H296.129V239.084H294.905V237.807ZM294.905 242.723H296.129V244H294.905V242.723ZM298.063 238.059V237.25C298.825 237.176 299.356 237.053 299.657 236.881C299.958 236.705 300.182 236.293 300.331 235.645H301.163V244H300.038V238.059H298.063ZM305.077 241.861C305.147 242.463 305.426 242.879 305.915 243.109C306.165 243.227 306.454 243.285 306.782 243.285C307.407 243.285 307.87 243.086 308.17 242.688C308.471 242.289 308.622 241.848 308.622 241.363C308.622 240.777 308.442 240.324 308.083 240.004C307.727 239.684 307.299 239.523 306.799 239.523C306.436 239.523 306.124 239.594 305.862 239.734C305.604 239.875 305.383 240.07 305.2 240.32L304.286 240.268L304.924 235.75H309.284V236.77H305.715L305.358 239.102C305.553 238.953 305.739 238.842 305.915 238.768C306.227 238.639 306.588 238.574 306.999 238.574C307.768 238.574 308.42 238.822 308.956 239.318C309.491 239.814 309.758 240.443 309.758 241.205C309.758 241.998 309.512 242.697 309.02 243.303C308.532 243.908 307.75 244.211 306.676 244.211C305.993 244.211 305.387 244.02 304.86 243.637C304.336 243.25 304.043 242.658 303.981 241.861H305.077Z" fill="#333333"/>
<path d="M339.309 238.059V237.25C340.07 237.176 340.602 237.053 340.902 236.881C341.203 236.705 341.428 236.293 341.576 235.645H342.408V244H341.283V238.059H339.309ZM345.098 238.059V237.25C345.859 237.176 346.391 237.053 346.691 236.881C346.992 236.705 347.217 236.293 347.365 235.645H348.197V244H347.072V238.059H345.098ZM351.959 237.807H353.184V239.084H351.959V237.807ZM351.959 242.723H353.184V244H351.959V242.723ZM355.117 238.059V237.25C355.879 237.176 356.41 237.053 356.711 236.881C357.012 236.705 357.236 236.293 357.385 235.645H358.217V244H357.092V238.059H355.117ZM363.912 239.125C364.377 239.125 364.74 238.996 365.002 238.738C365.264 238.477 365.395 238.166 365.395 237.807C365.395 237.494 365.27 237.207 365.02 236.945C364.77 236.684 364.389 236.553 363.877 236.553C363.369 236.553 363.002 236.684 362.775 236.945C362.549 237.207 362.436 237.514 362.436 237.865C362.436 238.26 362.582 238.568 362.875 238.791C363.168 239.014 363.514 239.125 363.912 239.125ZM363.977 243.279C364.465 243.279 364.869 243.148 365.189 242.887C365.514 242.621 365.676 242.227 365.676 241.703C365.676 241.16 365.51 240.748 365.178 240.467C364.846 240.186 364.42 240.045 363.9 240.045C363.396 240.045 362.984 240.189 362.664 240.479C362.348 240.764 362.189 241.16 362.189 241.668C362.189 242.105 362.334 242.484 362.623 242.805C362.916 243.121 363.367 243.279 363.977 243.279ZM362.477 239.529C362.184 239.404 361.955 239.258 361.791 239.09C361.482 238.777 361.328 238.371 361.328 237.871C361.328 237.246 361.555 236.709 362.008 236.26C362.461 235.811 363.104 235.586 363.936 235.586C364.74 235.586 365.371 235.799 365.828 236.225C366.285 236.646 366.514 237.141 366.514 237.707C366.514 238.23 366.381 238.654 366.115 238.979C365.967 239.162 365.736 239.342 365.424 239.518C365.771 239.678 366.045 239.861 366.244 240.068C366.615 240.459 366.801 240.967 366.801 241.592C366.801 242.33 366.553 242.957 366.057 243.473C365.561 243.984 364.859 244.24 363.953 244.24C363.137 244.24 362.445 244.02 361.879 243.578C361.316 243.133 361.035 242.488 361.035 241.645C361.035 241.148 361.156 240.721 361.398 240.361C361.641 239.998 362 239.721 362.477 239.529Z" fill="#333333"/>
<path opacity="0.2" fill-rule="evenodd" clip-rule="evenodd" d="M10.3486 93.8575L23.5216 64.9211L36.6946 117.007L49.8676 119.9L63.0406 105.432L76.2136 114.113L89.3866 88.0702L102.56 82.283L115.733 93.8575L128.906 105.432L142.079 157.518L155.252 223.613L168.425 198.029L181.598 180.667L194.77 186.454L207.943 169.092L221.116 174.879L234.289 145.943L247.462 151.73L260.635 140.156L273.808 198.029L286.981 111.219L300.154 93.8575L313.327 24.4102L326.5 41.772L339.673 24.4102L352.846 53.3466V228.701H10.3486V93.8575Z" fill="url(#paint0_linear_1251_29717)"/>
<path d="M10.3486 93.8575L23.5216 64.9211L36.6946 117.007L49.8676 119.9L63.0406 105.432L76.2136 114.113L89.3866 88.0702L102.56 82.283L115.733 93.8575L128.906 105.432L142.079 157.518L155.252 223.613L168.425 198.029L181.598 180.667L194.77 186.454L207.943 169.092L221.116 174.879L234.289 145.943L247.462 151.73L260.635 140.156L273.808 198.029L286.981 111.219L300.154 93.8575L313.327 24.4102L326.5 41.772L339.673 24.4102L352.846 53.3466" stroke="#0CAB61" stroke-width="1.68038" stroke-linejoin="round"/>
<path d="M10.3487 96.2898C11.6799 96.2898 12.4209 94.9897 12.4209 93.8596C12.4209 92.7294 11.6799 91.4293 10.3487 91.4293C9.01746 91.4293 8.27651 92.7294 8.27651 93.8596C8.27651 94.9897 9.01746 96.2898 10.3487 96.2898Z" fill="white" stroke="#0CAB61" stroke-width="1.68038"/>
<path d="M23.522 67.3562C24.8533 67.3562 25.5942 66.0562 25.5942 64.926C25.5942 63.7958 24.8533 62.4957 23.522 62.4957C22.1908 62.4957 21.4498 63.7958 21.4498 64.926C21.4498 66.0562 22.1908 67.3562 23.522 67.3562Z" fill="white" stroke="#0CAB61" stroke-width="1.68038"/>
<path d="M36.6944 119.442C38.0257 119.442 38.7666 118.142 38.7666 117.012C38.7666 115.882 38.0257 114.582 36.6944 114.582C35.3632 114.582 34.6222 115.882 34.6222 117.012C34.6222 118.142 35.3632 119.442 36.6944 119.442Z" fill="white" stroke="#0CAB61" stroke-width="1.68038"/>
<path d="M49.8677 122.337C51.199 122.337 51.9399 121.037 51.9399 119.906C51.9399 118.776 51.199 117.476 49.8677 117.476C48.5365 117.476 47.7956 118.776 47.7956 119.906C47.7956 121.037 48.5365 122.337 49.8677 122.337Z" fill="white" stroke="#0CAB61" stroke-width="1.68038"/>
<path d="M63.0406 107.868C64.3718 107.868 65.1128 106.568 65.1128 105.438C65.1128 104.308 64.3718 103.007 63.0406 103.007C61.7094 103.007 60.9684 104.308 60.9684 105.438C60.9684 106.568 61.7094 107.868 63.0406 107.868Z" fill="white" stroke="#0CAB61" stroke-width="1.68038"/>
<path d="M76.2139 116.548C77.5452 116.548 78.2861 115.248 78.2861 114.117C78.2861 112.987 77.5452 111.687 76.2139 111.687C74.8827 111.687 74.1417 112.987 74.1417 114.117C74.1417 115.248 74.8827 116.548 76.2139 116.548Z" fill="white" stroke="#0CAB61" stroke-width="1.68038"/>
<path d="M89.3863 90.5046C90.7175 90.5046 91.4585 89.2046 91.4585 88.0744C91.4585 86.9442 90.7175 85.6442 89.3863 85.6442C88.0551 85.6442 87.3141 86.9442 87.3141 88.0744C87.3141 89.2046 88.0551 90.5046 89.3863 90.5046Z" fill="white" stroke="#0CAB61" stroke-width="1.68038"/>
<path d="M102.56 84.7156C103.891 84.7156 104.632 83.4155 104.632 82.2853C104.632 81.1552 103.891 79.8551 102.56 79.8551C101.229 79.8551 100.488 81.1552 100.488 82.2853C100.488 83.4155 101.229 84.7156 102.56 84.7156Z" fill="white" stroke="#0CAB61" stroke-width="1.68038"/>
<path d="M115.733 96.2898C117.064 96.2898 117.805 94.9897 117.805 93.8596C117.805 92.7294 117.064 91.4293 115.733 91.4293C114.402 91.4293 113.661 92.7294 113.661 93.8596C113.661 94.9897 114.402 96.2898 115.733 96.2898Z" fill="white" stroke="#0CAB61" stroke-width="1.68038"/>
<path d="M128.906 107.868C130.237 107.868 130.978 106.568 130.978 105.438C130.978 104.308 130.237 103.007 128.906 103.007C127.575 103.007 126.834 104.308 126.834 105.438C126.834 106.568 127.575 107.868 128.906 107.868Z" fill="white" stroke="#0CAB61" stroke-width="1.68038"/>
<path d="M142.078 159.95C143.409 159.95 144.15 158.65 144.15 157.52C144.15 156.39 143.409 155.089 142.078 155.089C140.747 155.089 140.006 156.39 140.006 157.52C140.006 158.65 140.747 159.95 142.078 159.95Z" fill="white" stroke="#0CAB61" stroke-width="1.68038"/>
<path d="M155.252 226.048C156.583 226.048 157.324 224.748 157.324 223.617C157.324 222.487 156.583 221.187 155.252 221.187C153.92 221.187 153.179 222.487 153.179 223.617C153.179 224.748 153.92 226.048 155.252 226.048Z" fill="white" stroke="#0CAB61" stroke-width="1.68038"/>
<path d="M168.424 200.462C169.756 200.462 170.497 199.162 170.497 198.031C170.497 196.901 169.756 195.601 168.424 195.601C167.093 195.601 166.352 196.901 166.352 198.031C166.352 199.162 167.093 200.462 168.424 200.462Z" fill="white" stroke="#0CAB61" stroke-width="1.68038"/>
<path d="M181.597 183.102C182.928 183.102 183.669 181.802 183.669 180.672C183.669 179.542 182.928 178.242 181.597 178.242C180.266 178.242 179.525 179.542 179.525 180.672C179.525 181.802 180.266 183.102 181.597 183.102Z" fill="white" stroke="#0CAB61" stroke-width="1.68038"/>
<path d="M194.771 188.887C196.102 188.887 196.843 187.587 196.843 186.457C196.843 185.327 196.102 184.027 194.771 184.027C193.439 184.027 192.698 185.327 192.698 186.457C192.698 187.587 193.439 188.887 194.771 188.887Z" fill="white" stroke="#0CAB61" stroke-width="1.68038"/>
<path d="M207.943 171.528C209.275 171.528 210.016 170.228 210.016 169.098C210.016 167.968 209.275 166.668 207.943 166.668C206.612 166.668 205.871 167.968 205.871 169.098C205.871 170.228 206.612 171.528 207.943 171.528Z" fill="white" stroke="#0CAB61" stroke-width="1.68038"/>
<path d="M221.117 177.313C222.448 177.313 223.189 176.013 223.189 174.883C223.189 173.753 222.448 172.453 221.117 172.453C219.786 172.453 219.045 173.753 219.045 174.883C219.045 176.013 219.786 177.313 221.117 177.313Z" fill="white" stroke="#0CAB61" stroke-width="1.68038"/>
<path d="M234.29 148.38C235.621 148.38 236.362 147.08 236.362 145.949C236.362 144.819 235.621 143.519 234.29 143.519C232.958 143.519 232.217 144.819 232.217 145.949C232.217 147.08 232.958 148.38 234.29 148.38Z" fill="white" stroke="#0CAB61" stroke-width="1.68038"/>
<path d="M247.462 154.165C248.794 154.165 249.535 152.865 249.535 151.735C249.535 150.604 248.794 149.304 247.462 149.304C246.131 149.304 245.39 150.604 245.39 151.735C245.39 152.865 246.131 154.165 247.462 154.165Z" fill="white" stroke="#0CAB61" stroke-width="1.68038"/>
<path d="M260.635 142.591C261.967 142.591 262.708 141.291 262.708 140.16C262.708 139.03 261.967 137.73 260.635 137.73C259.304 137.73 258.563 139.03 258.563 140.16C258.563 141.291 259.304 142.591 260.635 142.591Z" fill="white" stroke="#0CAB61" stroke-width="1.68038"/>
<path d="M273.808 200.462C275.139 200.462 275.88 199.162 275.88 198.031C275.88 196.901 275.139 195.601 273.808 195.601C272.477 195.601 271.736 196.901 271.736 198.031C271.736 199.162 272.477 200.462 273.808 200.462Z" fill="white" stroke="#0CAB61" stroke-width="1.68038"/>
<path d="M286.982 113.657C288.313 113.657 289.054 112.357 289.054 111.227C289.054 110.097 288.313 108.797 286.982 108.797C285.65 108.797 284.909 110.097 284.909 111.227C284.909 112.357 285.65 113.657 286.982 113.657Z" fill="white" stroke="#0CAB61" stroke-width="1.68038"/>
<path d="M300.154 96.2898C301.486 96.2898 302.227 94.9897 302.227 93.8596C302.227 92.7294 301.486 91.4293 300.154 91.4293C298.823 91.4293 298.082 92.7294 298.082 93.8596C298.082 94.9897 298.823 96.2898 300.154 96.2898Z" fill="white" stroke="#0CAB61" stroke-width="1.68038"/>
<path d="M313.328 26.8445C314.659 26.8445 315.4 25.5444 315.4 24.4143C315.4 23.2841 314.659 21.984 313.328 21.984C311.996 21.984 311.256 23.2841 311.256 24.4143C311.256 25.5444 311.996 26.8445 313.328 26.8445Z" fill="white" stroke="#0CAB61" stroke-width="1.68038"/>
<path d="M326.501 44.2078C327.832 44.2078 328.573 42.9077 328.573 41.7775C328.573 40.6474 327.832 39.3473 326.501 39.3473C325.169 39.3473 324.428 40.6474 324.428 41.7775C324.428 42.9077 325.169 44.2078 326.501 44.2078Z" fill="white" stroke="#0CAB61" stroke-width="1.68038"/>
<path d="M339.673 26.8445C341.005 26.8445 341.746 25.5444 341.746 24.4143C341.746 23.2841 341.005 21.984 339.673 21.984C338.342 21.984 337.601 23.2841 337.601 24.4143C337.601 25.5444 338.342 26.8445 339.673 26.8445Z" fill="white" stroke="#0CAB61" stroke-width="1.68038"/>
<path d="M352.846 55.782C354.178 55.782 354.918 54.4819 354.918 53.3518C354.918 52.2216 354.178 50.9215 352.846 50.9215C351.515 50.9215 350.774 52.2216 350.774 53.3518C350.774 54.4819 351.515 55.782 352.846 55.782Z" fill="white" stroke="#0CAB61" stroke-width="1.68038"/>
<path d="M362.801 2.75V3.66992C362.532 3.93164 362.172 4.38672 361.723 5.03516C361.278 5.68359 360.883 6.38281 360.54 7.13281C360.2 7.86328 359.942 8.5293 359.766 9.13086C359.653 9.51758 359.506 10.1406 359.327 11H358.161C358.426 9.39844 359.012 7.80469 359.918 6.21875C360.454 5.28906 361.016 4.48633 361.606 3.81055H356.965V2.75H362.801ZM369.481 2.75V3.66992C369.211 3.93164 368.852 4.38672 368.403 5.03516C367.958 5.68359 367.563 6.38281 367.219 7.13281C366.879 7.86328 366.622 8.5293 366.446 9.13086C366.333 9.51758 366.186 10.1406 366.006 11H364.84C365.106 9.39844 365.692 7.80469 366.598 6.21875C367.133 5.28906 367.696 4.48633 368.286 3.81055H363.645V2.75H369.481ZM377.192 8.0293V4.22656L374.502 8.0293H377.192ZM377.209 11V8.94922H373.53V7.91797L377.374 2.58594H378.264V8.0293H379.5V8.94922H378.264V11H377.209ZM383.151 2.60938C384.237 2.60938 385.022 3.05664 385.506 3.95117C385.881 4.64258 386.069 5.58984 386.069 6.79297C386.069 7.93359 385.899 8.87695 385.559 9.62305C385.067 10.6934 384.262 11.2285 383.145 11.2285C382.137 11.2285 381.387 10.791 380.895 9.91602C380.485 9.18555 380.28 8.20508 380.28 6.97461C380.28 6.02148 380.403 5.20312 380.649 4.51953C381.11 3.24609 381.944 2.60938 383.151 2.60938ZM383.139 10.2676C383.686 10.2676 384.122 10.0254 384.446 9.54102C384.77 9.05664 384.932 8.1543 384.932 6.83398C384.932 5.88086 384.815 5.09766 384.581 4.48438C384.346 3.86719 383.891 3.55859 383.215 3.55859C382.594 3.55859 382.139 3.85156 381.85 4.4375C381.565 5.01953 381.422 5.87891 381.422 7.01562C381.422 7.87109 381.514 8.55859 381.698 9.07812C381.979 9.87109 382.459 10.2676 383.139 10.2676ZM389.831 2.60938C390.917 2.60938 391.702 3.05664 392.186 3.95117C392.561 4.64258 392.749 5.58984 392.749 6.79297C392.749 7.93359 392.579 8.87695 392.239 9.62305C391.747 10.6934 390.942 11.2285 389.825 11.2285C388.817 11.2285 388.067 10.791 387.575 9.91602C387.165 9.18555 386.959 8.20508 386.959 6.97461C386.959 6.02148 387.083 5.20312 387.329 4.51953C387.79 3.24609 388.624 2.60938 389.831 2.60938ZM389.819 10.2676C390.366 10.2676 390.801 10.0254 391.125 9.54102C391.45 9.05664 391.612 8.1543 391.612 6.83398C391.612 5.88086 391.495 5.09766 391.26 4.48438C391.026 3.86719 390.571 3.55859 389.895 3.55859C389.274 3.55859 388.819 3.85156 388.53 4.4375C388.245 5.01953 388.102 5.87891 388.102 7.01562C388.102 7.87109 388.194 8.55859 388.377 9.07812C388.659 9.87109 389.139 10.2676 389.819 10.2676Z" fill="#222222"/>
<path d="M362.801 41.4414V42.3613C362.532 42.623 362.172 43.0781 361.723 43.7266C361.278 44.375 360.883 45.0742 360.54 45.8242C360.2 46.5547 359.942 47.2207 359.766 47.8223C359.653 48.209 359.506 48.832 359.327 49.6914H358.161C358.426 48.0898 359.012 46.4961 359.918 44.9102C360.454 43.9805 361.016 43.1777 361.606 42.502H356.965V41.4414H362.801ZM369.481 41.4414V42.3613C369.211 42.623 368.852 43.0781 368.403 43.7266C367.958 44.375 367.563 45.0742 367.219 45.8242C366.879 46.5547 366.622 47.2207 366.446 47.8223C366.333 48.209 366.186 48.832 366.006 49.6914H364.84C365.106 48.0898 365.692 46.4961 366.598 44.9102C367.133 43.9805 367.696 43.1777 368.286 42.502H363.645V41.4414H369.481ZM376.342 49.9199C375.35 49.9199 374.629 49.6484 374.18 49.1055C373.735 48.5586 373.512 47.8945 373.512 47.1133H374.614C374.661 47.6562 374.762 48.0508 374.918 48.2969C375.192 48.7383 375.686 48.959 376.401 48.959C376.956 48.959 377.401 48.8105 377.737 48.5137C378.073 48.2168 378.241 47.834 378.241 47.3652C378.241 46.7871 378.063 46.3828 377.708 46.1523C377.356 45.9219 376.866 45.8066 376.237 45.8066C376.167 45.8066 376.094 45.8086 376.02 45.8125C375.95 45.8125 375.877 45.8145 375.803 45.8184V44.8867C375.913 44.8984 376.004 44.9062 376.079 44.9102C376.153 44.9141 376.233 44.916 376.319 44.916C376.713 44.916 377.038 44.8535 377.292 44.7285C377.737 44.5098 377.959 44.1191 377.959 43.5566C377.959 43.1387 377.811 42.8164 377.514 42.5898C377.217 42.3633 376.872 42.25 376.477 42.25C375.774 42.25 375.288 42.4844 375.018 42.9531C374.87 43.2109 374.786 43.5781 374.766 44.0547H373.723C373.723 43.4297 373.848 42.8984 374.098 42.4609C374.528 41.6797 375.284 41.2891 376.366 41.2891C377.221 41.2891 377.883 41.4805 378.352 41.8633C378.821 42.2422 379.055 42.793 379.055 43.5156C379.055 44.0312 378.917 44.4492 378.639 44.7695C378.467 44.9688 378.245 45.125 377.971 45.2383C378.413 45.3594 378.756 45.5938 379.002 45.9414C379.252 46.2852 379.377 46.707 379.377 47.207C379.377 48.0078 379.114 48.6602 378.586 49.1641C378.059 49.668 377.311 49.9199 376.342 49.9199ZM381.387 47.5527C381.458 48.1543 381.737 48.5703 382.225 48.8008C382.475 48.918 382.764 48.9766 383.092 48.9766C383.717 48.9766 384.18 48.7773 384.481 48.3789C384.782 47.9805 384.932 47.5391 384.932 47.0547C384.932 46.4688 384.752 46.0156 384.393 45.6953C384.038 45.375 383.61 45.2148 383.11 45.2148C382.747 45.2148 382.434 45.2852 382.172 45.4258C381.915 45.5664 381.694 45.7617 381.51 46.0117L380.596 45.959L381.235 41.4414H385.594V42.4609H382.026L381.668 44.793C381.864 44.6445 382.049 44.5332 382.225 44.459C382.538 44.3301 382.899 44.2656 383.309 44.2656C384.079 44.2656 384.731 44.5137 385.266 45.0098C385.801 45.5059 386.069 46.1348 386.069 46.8965C386.069 47.6895 385.823 48.3887 385.331 48.9941C384.842 49.5996 384.061 49.9023 382.987 49.9023C382.303 49.9023 381.698 49.7109 381.17 49.3281C380.647 48.9414 380.354 48.3496 380.292 47.5527H381.387ZM389.831 41.3008C390.917 41.3008 391.702 41.748 392.186 42.6426C392.561 43.334 392.749 44.2812 392.749 45.4844C392.749 46.625 392.579 47.5684 392.239 48.3145C391.747 49.3848 390.942 49.9199 389.825 49.9199C388.817 49.9199 388.067 49.4824 387.575 48.6074C387.165 47.877 386.959 46.8965 386.959 45.666C386.959 44.7129 387.083 43.8945 387.329 43.2109C387.79 41.9375 388.624 41.3008 389.831 41.3008ZM389.819 48.959C390.366 48.959 390.801 48.7168 391.125 48.2324C391.45 47.748 391.612 46.8457 391.612 45.5254C391.612 44.5723 391.495 43.7891 391.26 43.1758C391.026 42.5586 390.571 42.25 389.895 42.25C389.274 42.25 388.819 42.543 388.53 43.1289C388.245 43.7109 388.102 44.5703 388.102 45.707C388.102 46.5625 388.194 47.25 388.377 47.7695C388.659 48.5625 389.139 48.959 389.819 48.959Z" fill="#222222"/>
<path d="M362.801 80.1367V81.0566C362.532 81.3184 362.172 81.7734 361.723 82.4219C361.278 83.0703 360.883 83.7695 360.54 84.5195C360.2 85.25 359.942 85.916 359.766 86.5176C359.653 86.9043 359.506 87.5273 359.327 88.3867H358.161C358.426 86.7852 359.012 85.1914 359.918 83.6055C360.454 82.6758 361.016 81.873 361.606 81.1973H356.965V80.1367H362.801ZM369.481 80.1367V81.0566C369.211 81.3184 368.852 81.7734 368.403 82.4219C367.958 83.0703 367.563 83.7695 367.219 84.5195C366.879 85.25 366.622 85.916 366.446 86.5176C366.333 86.9043 366.186 87.5273 366.006 88.3867H364.84C365.106 86.7852 365.692 85.1914 366.598 83.6055C367.133 82.6758 367.696 81.873 368.286 81.1973H363.645V80.1367H369.481ZM376.342 88.6152C375.35 88.6152 374.629 88.3438 374.18 87.8008C373.735 87.2539 373.512 86.5898 373.512 85.8086H374.614C374.661 86.3516 374.762 86.7461 374.918 86.9922C375.192 87.4336 375.686 87.6543 376.401 87.6543C376.956 87.6543 377.401 87.5059 377.737 87.209C378.073 86.9121 378.241 86.5293 378.241 86.0605C378.241 85.4824 378.063 85.0781 377.708 84.8477C377.356 84.6172 376.866 84.502 376.237 84.502C376.167 84.502 376.094 84.5039 376.02 84.5078C375.95 84.5078 375.877 84.5098 375.803 84.5137V83.582C375.913 83.5938 376.004 83.6016 376.079 83.6055C376.153 83.6094 376.233 83.6113 376.319 83.6113C376.713 83.6113 377.038 83.5488 377.292 83.4238C377.737 83.2051 377.959 82.8145 377.959 82.252C377.959 81.834 377.811 81.5117 377.514 81.2852C377.217 81.0586 376.872 80.9453 376.477 80.9453C375.774 80.9453 375.288 81.1797 375.018 81.6484C374.87 81.9062 374.786 82.2734 374.766 82.75H373.723C373.723 82.125 373.848 81.5938 374.098 81.1562C374.528 80.375 375.284 79.9844 376.366 79.9844C377.221 79.9844 377.883 80.1758 378.352 80.5586C378.821 80.9375 379.055 81.4883 379.055 82.2109C379.055 82.7266 378.917 83.1445 378.639 83.4648C378.467 83.6641 378.245 83.8203 377.971 83.9336C378.413 84.0547 378.756 84.2891 379.002 84.6367C379.252 84.9805 379.377 85.4023 379.377 85.9023C379.377 86.7031 379.114 87.3555 378.586 87.8594C378.059 88.3633 377.311 88.6152 376.342 88.6152ZM383.151 79.9961C384.237 79.9961 385.022 80.4434 385.506 81.3379C385.881 82.0293 386.069 82.9766 386.069 84.1797C386.069 85.3203 385.899 86.2637 385.559 87.0098C385.067 88.0801 384.262 88.6152 383.145 88.6152C382.137 88.6152 381.387 88.1777 380.895 87.3027C380.485 86.5723 380.28 85.5918 380.28 84.3613C380.28 83.4082 380.403 82.5898 380.649 81.9062C381.11 80.6328 381.944 79.9961 383.151 79.9961ZM383.139 87.6543C383.686 87.6543 384.122 87.4121 384.446 86.9277C384.77 86.4434 384.932 85.541 384.932 84.2207C384.932 83.2676 384.815 82.4844 384.581 81.8711C384.346 81.2539 383.891 80.9453 383.215 80.9453C382.594 80.9453 382.139 81.2383 381.85 81.8242C381.565 82.4062 381.422 83.2656 381.422 84.4023C381.422 85.2578 381.514 85.9453 381.698 86.4648C381.979 87.2578 382.459 87.6543 383.139 87.6543ZM389.831 79.9961C390.917 79.9961 391.702 80.4434 392.186 81.3379C392.561 82.0293 392.749 82.9766 392.749 84.1797C392.749 85.3203 392.579 86.2637 392.239 87.0098C391.747 88.0801 390.942 88.6152 389.825 88.6152C388.817 88.6152 388.067 88.1777 387.575 87.3027C387.165 86.5723 386.959 85.5918 386.959 84.3613C386.959 83.4082 387.083 82.5898 387.329 81.9062C387.79 80.6328 388.624 79.9961 389.831 79.9961ZM389.819 87.6543C390.366 87.6543 390.801 87.4121 391.125 86.9277C391.45 86.4434 391.612 85.541 391.612 84.2207C391.612 83.2676 391.495 82.4844 391.26 81.8711C391.026 81.2539 390.571 80.9453 389.895 80.9453C389.274 80.9453 388.819 81.2383 388.53 81.8242C388.245 82.4062 388.102 83.2656 388.102 84.4023C388.102 85.2578 388.194 85.9453 388.377 86.4648C388.659 87.2578 389.139 87.6543 389.819 87.6543Z" fill="#222222"/>
<path d="M362.801 118.828V119.748C362.532 120.01 362.172 120.465 361.723 121.113C361.278 121.762 360.883 122.461 360.54 123.211C360.2 123.941 359.942 124.607 359.766 125.209C359.653 125.596 359.506 126.219 359.327 127.078H358.161C358.426 125.477 359.012 123.883 359.918 122.297C360.454 121.367 361.016 120.564 361.606 119.889H356.965V118.828H362.801ZM369.481 118.828V119.748C369.211 120.01 368.852 120.465 368.403 121.113C367.958 121.762 367.563 122.461 367.219 123.211C366.879 123.941 366.622 124.607 366.446 125.209C366.333 125.596 366.186 126.219 366.006 127.078H364.84C365.106 125.477 365.692 123.883 366.598 122.297C367.133 121.367 367.696 120.564 368.286 119.889H363.645V118.828H369.481ZM373.6 127.078C373.639 126.355 373.788 125.727 374.045 125.191C374.307 124.656 374.815 124.17 375.569 123.732L376.694 123.082C377.198 122.789 377.551 122.539 377.754 122.332C378.075 122.008 378.235 121.637 378.235 121.219C378.235 120.73 378.088 120.344 377.795 120.059C377.502 119.77 377.112 119.625 376.624 119.625C375.901 119.625 375.401 119.898 375.124 120.445C374.975 120.738 374.893 121.145 374.877 121.664H373.805C373.817 120.934 373.952 120.338 374.209 119.877C374.667 119.064 375.473 118.658 376.629 118.658C377.59 118.658 378.292 118.918 378.733 119.438C379.178 119.957 379.401 120.535 379.401 121.172C379.401 121.844 379.165 122.418 378.692 122.895C378.418 123.172 377.928 123.508 377.221 123.902L376.418 124.348C376.036 124.559 375.735 124.76 375.516 124.951C375.125 125.291 374.879 125.668 374.778 126.082H379.36V127.078H373.6ZM381.387 124.939C381.458 125.541 381.737 125.957 382.225 126.188C382.475 126.305 382.764 126.363 383.092 126.363C383.717 126.363 384.18 126.164 384.481 125.766C384.782 125.367 384.932 124.926 384.932 124.441C384.932 123.855 384.752 123.402 384.393 123.082C384.038 122.762 383.61 122.602 383.11 122.602C382.747 122.602 382.434 122.672 382.172 122.812C381.915 122.953 381.694 123.148 381.51 123.398L380.596 123.346L381.235 118.828H385.594V119.848H382.026L381.668 122.18C381.864 122.031 382.049 121.92 382.225 121.846C382.538 121.717 382.899 121.652 383.309 121.652C384.079 121.652 384.731 121.9 385.266 122.396C385.801 122.893 386.069 123.521 386.069 124.283C386.069 125.076 385.823 125.775 385.331 126.381C384.842 126.986 384.061 127.289 382.987 127.289C382.303 127.289 381.698 127.098 381.17 126.715C380.647 126.328 380.354 125.736 380.292 124.939H381.387ZM389.831 118.688C390.917 118.688 391.702 119.135 392.186 120.029C392.561 120.721 392.749 121.668 392.749 122.871C392.749 124.012 392.579 124.955 392.239 125.701C391.747 126.771 390.942 127.307 389.825 127.307C388.817 127.307 388.067 126.869 387.575 125.994C387.165 125.264 386.959 124.283 386.959 123.053C386.959 122.1 387.083 121.281 387.329 120.598C387.79 119.324 388.624 118.688 389.831 118.688ZM389.819 126.346C390.366 126.346 390.801 126.104 391.125 125.619C391.45 125.135 391.612 124.232 391.612 122.912C391.612 121.959 391.495 121.176 391.26 120.562C391.026 119.945 390.571 119.637 389.895 119.637C389.274 119.637 388.819 119.93 388.53 120.516C388.245 121.098 388.102 121.957 388.102 123.094C388.102 123.949 388.194 124.637 388.377 125.156C388.659 125.949 389.139 126.346 389.819 126.346Z" fill="#222222"/>
<path d="M362.801 157.52V158.439C362.532 158.701 362.172 159.156 361.723 159.805C361.278 160.453 360.883 161.152 360.54 161.902C360.2 162.633 359.942 163.299 359.766 163.9C359.653 164.287 359.506 164.91 359.327 165.77H358.161C358.426 164.168 359.012 162.574 359.918 160.988C360.454 160.059 361.016 159.256 361.606 158.58H356.965V157.52H362.801ZM369.481 157.52V158.439C369.211 158.701 368.852 159.156 368.403 159.805C367.958 160.453 367.563 161.152 367.219 161.902C366.879 162.633 366.622 163.299 366.446 163.9C366.333 164.287 366.186 164.91 366.006 165.77H364.84C365.106 164.168 365.692 162.574 366.598 160.988C367.133 160.059 367.696 159.256 368.286 158.58H363.645V157.52H369.481ZM373.6 165.77C373.639 165.047 373.788 164.418 374.045 163.883C374.307 163.348 374.815 162.861 375.569 162.424L376.694 161.773C377.198 161.48 377.551 161.23 377.754 161.023C378.075 160.699 378.235 160.328 378.235 159.91C378.235 159.422 378.088 159.035 377.795 158.75C377.502 158.461 377.112 158.316 376.624 158.316C375.901 158.316 375.401 158.59 375.124 159.137C374.975 159.43 374.893 159.836 374.877 160.355H373.805C373.817 159.625 373.952 159.029 374.209 158.568C374.667 157.756 375.473 157.35 376.629 157.35C377.59 157.35 378.292 157.609 378.733 158.129C379.178 158.648 379.401 159.227 379.401 159.863C379.401 160.535 379.165 161.109 378.692 161.586C378.418 161.863 377.928 162.199 377.221 162.594L376.418 163.039C376.036 163.25 375.735 163.451 375.516 163.643C375.125 163.982 374.879 164.359 374.778 164.773H379.36V165.77H373.6ZM383.151 157.379C384.237 157.379 385.022 157.826 385.506 158.721C385.881 159.412 386.069 160.359 386.069 161.562C386.069 162.703 385.899 163.646 385.559 164.393C385.067 165.463 384.262 165.998 383.145 165.998C382.137 165.998 381.387 165.561 380.895 164.686C380.485 163.955 380.28 162.975 380.28 161.744C380.28 160.791 380.403 159.973 380.649 159.289C381.11 158.016 381.944 157.379 383.151 157.379ZM383.139 165.037C383.686 165.037 384.122 164.795 384.446 164.311C384.77 163.826 384.932 162.924 384.932 161.604C384.932 160.65 384.815 159.867 384.581 159.254C384.346 158.637 383.891 158.328 383.215 158.328C382.594 158.328 382.139 158.621 381.85 159.207C381.565 159.789 381.422 160.648 381.422 161.785C381.422 162.641 381.514 163.328 381.698 163.848C381.979 164.641 382.459 165.037 383.139 165.037ZM389.831 157.379C390.917 157.379 391.702 157.826 392.186 158.721C392.561 159.412 392.749 160.359 392.749 161.562C392.749 162.703 392.579 163.646 392.239 164.393C391.747 165.463 390.942 165.998 389.825 165.998C388.817 165.998 388.067 165.561 387.575 164.686C387.165 163.955 386.959 162.975 386.959 161.744C386.959 160.791 387.083 159.973 387.329 159.289C387.79 158.016 388.624 157.379 389.831 157.379ZM389.819 165.037C390.366 165.037 390.801 164.795 391.125 164.311C391.45 163.826 391.612 162.924 391.612 161.604C391.612 160.65 391.495 159.867 391.26 159.254C391.026 158.637 390.571 158.328 389.895 158.328C389.274 158.328 388.819 158.621 388.53 159.207C388.245 159.789 388.102 160.648 388.102 161.785C388.102 162.641 388.194 163.328 388.377 163.848C388.659 164.641 389.139 165.037 389.819 165.037Z" fill="#222222"/>
<path d="M362.801 196.211V197.131C362.532 197.393 362.172 197.848 361.723 198.496C361.278 199.145 360.883 199.844 360.54 200.594C360.2 201.324 359.942 201.99 359.766 202.592C359.653 202.979 359.506 203.602 359.327 204.461H358.161C358.426 202.859 359.012 201.266 359.918 199.68C360.454 198.75 361.016 197.947 361.606 197.271H356.965V196.211H362.801ZM369.481 196.211V197.131C369.211 197.393 368.852 197.848 368.403 198.496C367.958 199.145 367.563 199.844 367.219 200.594C366.879 201.324 366.622 201.99 366.446 202.592C366.333 202.979 366.186 203.602 366.006 204.461H364.84C365.106 202.859 365.692 201.266 366.598 199.68C367.133 198.75 367.696 197.947 368.286 197.271H363.645V196.211H369.481ZM374.374 198.52V197.711C375.135 197.637 375.667 197.514 375.967 197.342C376.268 197.166 376.493 196.754 376.641 196.105H377.473V204.461H376.348V198.52H374.374ZM381.387 202.322C381.458 202.924 381.737 203.34 382.225 203.57C382.475 203.688 382.764 203.746 383.092 203.746C383.717 203.746 384.18 203.547 384.481 203.148C384.782 202.75 384.932 202.309 384.932 201.824C384.932 201.238 384.752 200.785 384.393 200.465C384.038 200.145 383.61 199.984 383.11 199.984C382.747 199.984 382.434 200.055 382.172 200.195C381.915 200.336 381.694 200.531 381.51 200.781L380.596 200.729L381.235 196.211H385.594V197.23H382.026L381.668 199.562C381.864 199.414 382.049 199.303 382.225 199.229C382.538 199.1 382.899 199.035 383.309 199.035C384.079 199.035 384.731 199.283 385.266 199.779C385.801 200.275 386.069 200.904 386.069 201.666C386.069 202.459 385.823 203.158 385.331 203.764C384.842 204.369 384.061 204.672 382.987 204.672C382.303 204.672 381.698 204.48 381.17 204.098C380.647 203.711 380.354 203.119 380.292 202.322H381.387ZM389.831 196.07C390.917 196.07 391.702 196.518 392.186 197.412C392.561 198.104 392.749 199.051 392.749 200.254C392.749 201.395 392.579 202.338 392.239 203.084C391.747 204.154 390.942 204.689 389.825 204.689C388.817 204.689 388.067 204.252 387.575 203.377C387.165 202.646 386.959 201.666 386.959 200.436C386.959 199.482 387.083 198.664 387.329 197.98C387.79 196.707 388.624 196.07 389.831 196.07ZM389.819 203.729C390.366 203.729 390.801 203.486 391.125 203.002C391.45 202.518 391.612 201.615 391.612 200.295C391.612 199.342 391.495 198.559 391.26 197.945C391.026 197.328 390.571 197.02 389.895 197.02C389.274 197.02 388.819 197.312 388.53 197.898C388.245 198.48 388.102 199.34 388.102 200.477C388.102 201.332 388.194 202.02 388.377 202.539C388.659 203.332 389.139 203.729 389.819 203.729Z" fill="#222222"/>
<path d="M10 53L353 53" stroke="#0CAB61" stroke-linecap="round" stroke-dasharray="4 4"/>
<rect x="340" y="46" width="62" height="22" rx="4" fill="#0CAB61"/>
<path d="M350.838 52.75V53.6699C350.568 53.9316 350.209 54.3867 349.76 55.0352C349.314 55.6836 348.92 56.3828 348.576 57.1328C348.236 57.8633 347.979 58.5293 347.803 59.1309C347.689 59.5176 347.543 60.1406 347.363 61H346.197C346.463 59.3984 347.049 57.8047 347.955 56.2188C348.49 55.2891 349.053 54.4863 349.643 53.8105H345.002V52.75H350.838ZM357.518 52.75V53.6699C357.248 53.9316 356.889 54.3867 356.439 55.0352C355.994 55.6836 355.6 56.3828 355.256 57.1328C354.916 57.8633 354.658 58.5293 354.482 59.1309C354.369 59.5176 354.223 60.1406 354.043 61H352.877C353.143 59.3984 353.729 57.8047 354.635 56.2188C355.17 55.2891 355.732 54.4863 356.322 53.8105H351.682V52.75H357.518ZM364.379 61.2285C363.387 61.2285 362.666 60.957 362.217 60.4141C361.771 59.8672 361.549 59.2031 361.549 58.4219H362.65C362.697 58.9648 362.799 59.3594 362.955 59.6055C363.229 60.0469 363.723 60.2676 364.438 60.2676C364.992 60.2676 365.438 60.1191 365.773 59.8223C366.109 59.5254 366.277 59.1426 366.277 58.6738C366.277 58.0957 366.1 57.6914 365.744 57.4609C365.393 57.2305 364.902 57.1152 364.273 57.1152C364.203 57.1152 364.131 57.1172 364.057 57.1211C363.986 57.1211 363.914 57.123 363.84 57.127V56.1953C363.949 56.207 364.041 56.2148 364.115 56.2188C364.189 56.2227 364.27 56.2246 364.355 56.2246C364.75 56.2246 365.074 56.1621 365.328 56.0371C365.773 55.8184 365.996 55.4277 365.996 54.8652C365.996 54.4473 365.848 54.125 365.551 53.8984C365.254 53.6719 364.908 53.5586 364.514 53.5586C363.811 53.5586 363.324 53.793 363.055 54.2617C362.906 54.5195 362.822 54.8867 362.803 55.3633H361.76C361.76 54.7383 361.885 54.207 362.135 53.7695C362.564 52.9883 363.32 52.5977 364.402 52.5977C365.258 52.5977 365.92 52.7891 366.389 53.1719C366.857 53.5508 367.092 54.1016 367.092 54.8242C367.092 55.3398 366.953 55.7578 366.676 56.0781C366.504 56.2773 366.281 56.4336 366.008 56.5469C366.449 56.668 366.793 56.9023 367.039 57.25C367.289 57.5938 367.414 58.0156 367.414 58.5156C367.414 59.3164 367.15 59.9688 366.623 60.4727C366.096 60.9766 365.348 61.2285 364.379 61.2285ZM369.424 58.8613C369.494 59.4629 369.773 59.8789 370.262 60.1094C370.512 60.2266 370.801 60.2852 371.129 60.2852C371.754 60.2852 372.217 60.0859 372.518 59.6875C372.818 59.2891 372.969 58.8477 372.969 58.3633C372.969 57.7773 372.789 57.3242 372.43 57.0039C372.074 56.6836 371.646 56.5234 371.146 56.5234C370.783 56.5234 370.471 56.5938 370.209 56.7344C369.951 56.875 369.73 57.0703 369.547 57.3203L368.633 57.2676L369.271 52.75H373.631V53.7695H370.062L369.705 56.1016C369.9 55.9531 370.086 55.8418 370.262 55.7676C370.574 55.6387 370.936 55.5742 371.346 55.5742C372.115 55.5742 372.768 55.8223 373.303 56.3184C373.838 56.8145 374.105 57.4434 374.105 58.2051C374.105 58.998 373.859 59.6973 373.367 60.3027C372.879 60.9082 372.098 61.2109 371.023 61.2109C370.34 61.2109 369.734 61.0195 369.207 60.6367C368.684 60.25 368.391 59.6582 368.328 58.8613H369.424ZM380.896 52.75V53.6699C380.627 53.9316 380.268 54.3867 379.818 55.0352C379.373 55.6836 378.979 56.3828 378.635 57.1328C378.295 57.8633 378.037 58.5293 377.861 59.1309C377.748 59.5176 377.602 60.1406 377.422 61H376.256C376.521 59.3984 377.107 57.8047 378.014 56.2188C378.549 55.2891 379.111 54.4863 379.701 53.8105H375.061V52.75H380.896ZM382.297 62.2246C382.566 62.1777 382.756 61.9883 382.865 61.6562C382.924 61.4805 382.953 61.3105 382.953 61.1465C382.953 61.1191 382.951 61.0938 382.947 61.0703C382.947 61.0508 382.943 61.0273 382.936 61H382.297V59.7227H383.551V60.9062C383.551 61.3711 383.457 61.7793 383.27 62.1309C383.082 62.4824 382.758 62.6992 382.297 62.7812V62.2246ZM385.789 55.0586V54.25C386.551 54.1758 387.082 54.0527 387.383 53.8809C387.684 53.7051 387.908 53.293 388.057 52.6445H388.889V61H387.764V55.0586H385.789ZM395.287 58.0293V54.2266L392.598 58.0293H395.287ZM395.305 61V58.9492H391.625V57.918L395.469 52.5859H396.359V58.0293H397.596V58.9492H396.359V61H395.305Z" fill="white"/>
<defs>
<linearGradient id="paint0_linear_1251_29717" x1="181.718" y1="36.9432" x2="181.718" y2="243.329" gradientUnits="userSpaceOnUse">
<stop stop-color="#0CAB61"/>
<stop offset="1" stop-color="#0CAB61" stop-opacity="0"/>
</linearGradient>
</defs>
</svg>
