<svg width="914" height="367" viewBox="0 0 914 367" fill="none" xmlns="http://www.w3.org/2000/svg">
<path d="M223.673 42.0495C228.275 41.6545 232.893 41.4723 237.511 41.5034L236.5 191.5L223.673 42.0495Z" fill="#FFA200" stroke="white" stroke-width="2"/>
<path d="M86.5 191.5C86.5 153.706 100.767 117.305 126.448 89.5762C152.128 61.8474 187.33 44.8348 225.013 41.9405L236.5 191.5L86.5 191.5Z" fill="#0D6EFD" stroke="white" stroke-width="2"/>
<path d="M236.5 41.5C266.087 41.5 295.013 50.2499 319.64 66.6488C344.266 83.0478 363.493 106.363 374.901 133.662C386.309 160.961 389.389 191.025 383.754 220.07C378.119 249.115 364.02 275.845 343.23 296.897C322.441 317.95 295.89 332.384 266.918 338.383C237.946 344.383 207.846 341.681 180.406 330.617C152.966 319.552 129.411 300.62 112.703 276.202C95.9963 251.783 86.8836 222.97 86.5118 193.385L236.5 191.5V41.5Z" fill="#20C997" stroke="white" stroke-width="2"/>
<rect x="497" y="124.5" width="16" height="16" fill="#0D6EFD"/>
<rect x="497" y="124.5" width="16" height="16" stroke="#0D6EFD"/>
<path d="M511 125.5C511.552 125.5 512 125.948 512 126.5V138.5C512 139.052 511.552 139.5 511 139.5H499C498.448 139.5 498 139.052 498 138.5V126.5C498 125.948 498.448 125.5 499 125.5H511ZM499 124.5C497.895 124.5 497 125.395 497 126.5V138.5C497 139.605 497.895 140.5 499 140.5H511C512.105 140.5 513 139.605 513 138.5V126.5C513 125.395 512.105 124.5 511 124.5H499Z" fill="#0D6EFD"/>
<path d="M519.328 139.202C517.6 139.202 516.226 138.61 515.206 137.427C514.187 136.237 513.677 134.638 513.677 132.628C513.677 130.642 514.187 129.06 515.206 127.882C516.231 126.704 517.605 126.115 519.328 126.115C520.213 126.115 521.024 126.294 521.763 126.651C522.507 127.009 523.116 127.51 523.591 128.154C524.065 128.799 524.358 129.528 524.47 130.343H523.266C523.09 129.429 522.636 128.682 521.903 128.102C521.171 127.521 520.312 127.231 519.328 127.231C517.98 127.231 516.905 127.721 516.103 128.699C515.306 129.672 514.907 130.981 514.907 132.628C514.907 134.298 515.306 135.625 516.103 136.609C516.905 137.594 517.983 138.086 519.337 138.086C520.351 138.086 521.212 137.831 521.921 137.321C522.63 136.812 523.078 136.12 523.266 135.247H524.47C524.247 136.483 523.679 137.453 522.765 138.156C521.851 138.854 520.705 139.202 519.328 139.202ZM532.883 137.875C532.121 138.725 531.113 139.149 529.86 139.149C528.606 139.149 527.598 138.725 526.836 137.875C526.074 137.02 525.694 135.871 525.694 134.43C525.694 132.988 526.074 131.843 526.836 130.993C527.604 130.138 528.611 129.71 529.86 129.71C531.113 129.71 532.121 130.138 532.883 130.993C533.645 131.843 534.026 132.988 534.026 134.43C534.026 135.871 533.645 137.02 532.883 137.875ZM527.689 137.137C528.228 137.793 528.951 138.121 529.86 138.121C530.768 138.121 531.491 137.793 532.03 137.137C532.575 136.48 532.848 135.578 532.848 134.43C532.848 133.281 532.575 132.379 532.03 131.723C531.491 131.066 530.768 130.738 529.86 130.738C528.951 130.738 528.228 131.066 527.689 131.723C527.15 132.379 526.88 133.281 526.88 134.43C526.88 135.578 527.15 136.48 527.689 137.137ZM530.668 124.34V123.654C530.914 123.508 531.239 123.435 531.644 123.435C532.118 123.435 532.496 123.558 532.778 123.804C533.059 124.044 533.199 124.366 533.199 124.771C533.199 125.11 533.103 125.406 532.909 125.658C532.722 125.91 532.455 126.098 532.11 126.221L531.626 125.729C531.861 125.635 532.042 125.509 532.171 125.351C532.306 125.187 532.373 125.011 532.373 124.823C532.373 124.624 532.297 124.463 532.145 124.34C531.992 124.211 531.799 124.146 531.565 124.146C531.254 124.146 530.955 124.211 530.668 124.34ZM530.325 125.975L532.69 128.471H531.565L529.877 126.687H529.842L528.154 128.471H527.029L529.394 125.975H530.325ZM540.982 137.066C541.521 137.734 542.227 138.068 543.1 138.068C543.973 138.068 544.679 137.731 545.218 137.058C545.763 136.384 546.036 135.508 546.036 134.43C546.036 133.352 545.763 132.476 545.218 131.802C544.673 131.128 543.967 130.791 543.1 130.791C542.227 130.791 541.521 131.125 540.982 131.793C540.449 132.461 540.182 133.34 540.182 134.43C540.182 135.52 540.449 136.398 540.982 137.066ZM548.33 127.39V128.225H547.196V139H546.088V137.066H546.062C545.798 137.693 545.385 138.191 544.823 138.561C544.266 138.924 543.624 139.105 542.898 139.105C541.744 139.105 540.803 138.675 540.077 137.813C539.35 136.946 538.987 135.818 538.987 134.43C538.987 133.041 539.347 131.916 540.068 131.055C540.794 130.188 541.729 129.754 542.872 129.754C543.598 129.754 544.237 129.936 544.788 130.299C545.344 130.656 545.749 131.137 546 131.74H546.027V128.225H543.812V127.39H546.027V126.317H547.196V127.39H548.33ZM556.268 137.875C555.506 138.725 554.499 139.149 553.245 139.149C551.991 139.149 550.983 138.725 550.221 137.875C549.46 137.02 549.079 135.871 549.079 134.43C549.079 132.988 549.46 131.843 550.221 130.993C550.989 130.138 551.997 129.71 553.245 129.71C554.499 129.71 555.506 130.138 556.268 130.993C557.03 131.843 557.411 132.988 557.411 134.43C557.411 135.871 557.03 137.02 556.268 137.875ZM551.074 137.137C551.613 137.793 552.337 138.121 553.245 138.121C554.153 138.121 554.877 137.793 555.416 137.137C555.961 136.48 556.233 135.578 556.233 134.43C556.233 133.281 555.961 132.379 555.416 131.723C554.877 131.066 554.153 130.738 553.245 130.738C552.337 130.738 551.613 131.066 551.074 131.723C550.535 132.379 550.265 133.281 550.265 134.43C550.265 135.578 550.535 136.48 551.074 137.137ZM553.702 125.816L556.066 128.471H554.95L553.262 126.572H553.218L551.531 128.471H550.415L552.788 125.816H553.702ZM559.048 139V129.859H560.146V131.547H560.173C560.413 130.979 560.794 130.53 561.315 130.202C561.843 129.874 562.467 129.71 563.187 129.71C564.189 129.71 564.977 130.012 565.552 130.615C566.132 131.219 566.422 132.039 566.422 133.076V139H565.262V133.261C565.262 132.464 565.051 131.846 564.629 131.406C564.213 130.967 563.621 130.747 562.853 130.747C562.062 130.747 561.424 131.008 560.937 131.529C560.451 132.051 560.208 132.736 560.208 133.586V139H559.048ZM572.084 138.06C572.963 138.06 573.672 137.726 574.211 137.058C574.756 136.384 575.028 135.499 575.028 134.403C575.028 133.308 574.756 132.423 574.211 131.749C573.672 131.075 572.963 130.738 572.084 130.738C571.223 130.738 570.528 131.075 570.001 131.749C569.474 132.417 569.21 133.305 569.21 134.412C569.21 135.514 569.474 136.398 570.001 137.066C570.528 137.729 571.223 138.06 572.084 138.06ZM572.198 142.384C571.214 142.384 570.373 142.144 569.676 141.663C568.984 141.183 568.574 140.576 568.445 139.844H569.649C569.802 140.301 570.109 140.67 570.572 140.951C571.041 141.238 571.601 141.382 572.251 141.382C573.101 141.382 573.774 141.153 574.272 140.696C574.776 140.245 575.028 139.645 575.028 138.895V137.058H575.002C574.75 137.661 574.343 138.15 573.78 138.525C573.224 138.9 572.588 139.088 571.873 139.088C570.713 139.088 569.778 138.66 569.069 137.805C568.366 136.949 568.015 135.815 568.015 134.403C568.015 132.985 568.369 131.849 569.078 130.993C569.787 130.138 570.728 129.71 571.899 129.71C572.614 129.71 573.25 129.9 573.807 130.281C574.369 130.656 574.788 131.16 575.063 131.793H575.09V129.859H576.197V138.851C576.197 139.917 575.834 140.772 575.107 141.417C574.387 142.062 573.417 142.384 572.198 142.384ZM582.081 139V129.859H583.18V131.547H583.206C583.447 130.979 583.827 130.53 584.349 130.202C584.876 129.874 585.5 129.71 586.221 129.71C587.223 129.71 588.011 130.012 588.585 130.615C589.165 131.219 589.455 132.039 589.455 133.076V139H588.295V133.261C588.295 132.464 588.084 131.846 587.662 131.406C587.246 130.967 586.655 130.747 585.887 130.747C585.096 130.747 584.457 131.008 583.971 131.529C583.485 132.051 583.241 132.736 583.241 133.586V139H582.081ZM591.584 139V126.317H592.753V131.547H592.78C593.014 130.979 593.395 130.53 593.922 130.202C594.45 129.874 595.074 129.71 595.794 129.71C596.79 129.71 597.584 130.018 598.176 130.633C598.768 131.248 599.064 132.068 599.064 133.094V139H597.895V133.287C597.895 132.49 597.681 131.869 597.253 131.424C596.826 130.973 596.228 130.747 595.46 130.747C594.64 130.747 593.984 131.011 593.492 131.538C592.999 132.065 592.753 132.76 592.753 133.621V139H591.584ZM604.049 138.147C604.852 138.147 605.529 137.898 606.08 137.4C606.63 136.902 606.906 136.29 606.906 135.563V134.553L604.199 134.737C603.478 134.784 602.924 134.96 602.538 135.265C602.151 135.563 601.958 135.965 601.958 136.469C601.958 136.967 602.151 137.371 602.538 137.682C602.924 137.992 603.428 138.147 604.049 138.147ZM603.812 139.149C602.91 139.149 602.177 138.903 601.615 138.411C601.058 137.913 600.78 137.266 600.78 136.469C600.78 135.684 601.061 135.062 601.624 134.605C602.192 134.148 603.004 133.885 604.058 133.814L606.906 133.639V132.848C606.906 132.186 606.707 131.67 606.308 131.301C605.91 130.926 605.356 130.738 604.647 130.738C603.979 130.738 603.434 130.894 603.012 131.204C602.596 131.515 602.338 131.948 602.239 132.505H601.114C601.178 131.673 601.53 130.999 602.169 130.483C602.813 129.968 603.648 129.71 604.673 129.71C605.716 129.71 606.543 129.982 607.152 130.527C607.761 131.072 608.066 131.811 608.066 132.742V139H606.959V137.26H606.932C606.68 137.828 606.267 138.285 605.693 138.631C605.119 138.977 604.492 139.149 603.812 139.149ZM605.122 128.462H604.076L601.914 125.808H603.197L605.122 128.462ZM613.889 139V129.859H614.987V131.547H615.014C615.254 130.979 615.635 130.53 616.156 130.202C616.684 129.874 617.308 129.71 618.028 129.71C619.03 129.71 619.818 130.012 620.393 130.615C620.973 131.219 621.263 132.039 621.263 133.076V139H620.102V133.261C620.102 132.464 619.892 131.846 619.47 131.406C619.054 130.967 618.462 130.747 617.694 130.747C616.903 130.747 616.265 131.008 615.778 131.529C615.292 132.051 615.049 132.736 615.049 133.586V139H613.889ZM629.518 137.304C629.272 137.872 628.882 138.323 628.349 138.657C627.821 138.985 627.2 139.149 626.485 139.149C625.495 139.149 624.71 138.851 624.13 138.253C623.55 137.649 623.26 136.832 623.26 135.801V129.859H624.429V135.599C624.429 136.407 624.634 137.028 625.044 137.462C625.46 137.896 626.052 138.112 626.819 138.112C627.616 138.112 628.258 137.854 628.744 137.339C629.236 136.823 629.482 136.138 629.482 135.282V129.859H630.695C631.264 129.859 631.548 129.596 631.548 129.068V127.855H632.611V129.279C632.611 129.736 632.468 130.094 632.181 130.352C631.899 130.604 631.504 130.729 630.994 130.729H630.643V139H629.544V137.304H629.518ZM637.043 138.121C637.957 138.121 638.684 137.793 639.223 137.137C639.762 136.475 640.031 135.572 640.031 134.43C640.031 133.287 639.759 132.388 639.214 131.731C638.675 131.069 637.951 130.738 637.043 130.738C636.135 130.738 635.411 131.066 634.872 131.723C634.333 132.379 634.064 133.281 634.064 134.43C634.064 135.578 634.333 136.48 634.872 137.137C635.411 137.793 636.135 138.121 637.043 138.121ZM641.209 134.43C641.209 135.865 640.828 137.011 640.067 137.866C639.305 138.722 638.297 139.149 637.043 139.149C635.789 139.149 634.781 138.722 634.02 137.866C633.258 137.011 632.877 135.865 632.877 134.43C632.877 132.994 633.258 131.849 634.02 130.993C634.781 130.138 635.789 129.71 637.043 129.71C637.43 129.71 637.866 129.751 638.353 129.833C638.839 129.915 639.199 129.956 639.434 129.956C639.803 129.956 640.058 129.895 640.198 129.771C640.345 129.648 640.418 129.432 640.418 129.121V127.996H641.482V129.464C641.482 129.868 641.364 130.188 641.13 130.422C640.902 130.65 640.585 130.765 640.181 130.765H639.768V130.8C640.225 131.175 640.579 131.676 640.831 132.303C641.083 132.924 641.209 133.633 641.209 134.43ZM637.518 128.471H636.472L638.397 125.816H639.68L637.518 128.471ZM650.563 132.751H649.42C649.291 132.159 648.996 131.676 648.533 131.301C648.076 130.926 647.501 130.738 646.81 130.738C645.913 130.738 645.196 131.072 644.657 131.74C644.123 132.408 643.857 133.305 643.857 134.43C643.857 135.566 644.126 136.466 644.665 137.128C645.204 137.79 645.922 138.121 646.819 138.121C647.498 138.121 648.067 137.945 648.524 137.594C648.987 137.242 649.286 136.768 649.42 136.17H650.572C650.443 137.049 650.033 137.767 649.341 138.323C648.656 138.874 647.812 139.149 646.81 139.149C645.556 139.149 644.551 138.728 643.795 137.884C643.045 137.034 642.67 135.883 642.67 134.43C642.67 132.994 643.045 131.849 643.795 130.993C644.551 130.138 645.553 129.71 646.801 129.71C647.838 129.71 648.694 130.003 649.368 130.589C650.047 131.175 650.446 131.896 650.563 132.751ZM652.789 133.999C652.789 130.946 653.6 128.386 655.223 126.317H656.234C655.572 127.12 655.03 128.245 654.608 129.692C654.186 131.134 653.975 132.569 653.975 133.999C653.975 135.429 654.186 136.864 654.608 138.306C655.03 139.741 655.572 140.863 656.234 141.672H655.223C653.6 139.604 652.789 137.046 652.789 133.999ZM662.09 129.288C662.09 130.237 661.864 130.993 661.413 131.556C660.967 132.112 660.37 132.391 659.62 132.391C658.864 132.391 658.26 132.112 657.809 131.556C657.364 130.993 657.141 130.237 657.141 129.288C657.141 128.345 657.364 127.592 657.809 127.029C658.26 126.467 658.864 126.186 659.62 126.186C660.37 126.186 660.967 126.467 661.413 127.029C661.864 127.592 662.09 128.345 662.09 129.288ZM659.62 131.556C660.048 131.556 660.384 131.354 660.631 130.949C660.883 130.545 661.009 129.991 661.009 129.288C661.009 128.591 660.883 128.04 660.631 127.636C660.384 127.226 660.048 127.021 659.62 127.021C659.192 127.021 658.852 127.226 658.6 127.636C658.348 128.04 658.222 128.591 658.222 129.288C658.222 129.991 658.345 130.545 658.592 130.949C658.843 131.354 659.186 131.556 659.62 131.556ZM659.031 139H657.844L662.722 132.391L667.196 126.317H668.374L663.592 132.812L659.031 139ZM669.086 136.012C669.086 136.961 668.86 137.717 668.409 138.279C667.964 138.836 667.363 139.114 666.607 139.114C665.851 139.114 665.248 138.836 664.797 138.279C664.351 137.717 664.129 136.961 664.129 136.012C664.129 135.068 664.354 134.315 664.805 133.753C665.257 133.19 665.857 132.909 666.607 132.909C667.357 132.909 667.958 133.19 668.409 133.753C668.86 134.315 669.086 135.068 669.086 136.012ZM665.579 137.673C665.831 138.077 666.174 138.279 666.607 138.279C667.041 138.279 667.381 138.077 667.627 137.673C667.879 137.269 668.005 136.715 668.005 136.012C668.005 135.314 667.879 134.764 667.627 134.359C667.381 133.955 667.041 133.753 666.607 133.753C666.174 133.753 665.831 133.955 665.579 134.359C665.333 134.764 665.21 135.314 665.21 136.012C665.21 136.715 665.333 137.269 665.579 137.673ZM673.43 133.999C673.43 137.04 672.618 139.598 670.995 141.672H669.984C670.57 140.945 671.092 139.896 671.549 138.525C672.012 137.154 672.243 135.646 672.243 133.999C672.243 133.138 672.173 132.294 672.032 131.468C671.891 130.636 671.707 129.897 671.478 129.253C671.25 128.603 671.01 128.034 670.758 127.548C670.506 127.056 670.248 126.646 669.984 126.317H670.995C672.618 128.392 673.43 130.952 673.43 133.999Z" fill="#241F1F"/>
<path d="M830.85 139L836.483 128.022V127.979H829.795V126.317H838.426V128.022L832.915 139H830.85ZM845.053 139V136.495H838.707V134.772C839.727 132.851 841.522 130.032 844.095 126.317H846.942V134.843H848.683V136.495H846.942V139H845.053ZM840.544 134.825V134.869H845.07V127.838H845.035C842.938 130.867 841.44 133.196 840.544 134.825ZM852.4 138.763C852.178 138.985 851.905 139.097 851.583 139.097C851.261 139.097 850.988 138.985 850.766 138.763C850.543 138.54 850.432 138.268 850.432 137.945C850.432 137.623 850.543 137.351 850.766 137.128C850.988 136.905 851.261 136.794 851.583 136.794C851.905 136.794 852.178 136.905 852.4 137.128C852.623 137.351 852.734 137.623 852.734 137.945C852.734 138.268 852.623 138.54 852.4 138.763ZM859.511 139.237C858.099 139.237 856.944 138.895 856.048 138.209C855.157 137.523 854.712 136.645 854.712 135.572C854.712 134.77 854.97 134.069 855.485 133.472C856.007 132.874 856.689 132.487 857.533 132.312V132.268C856.83 132.074 856.268 131.723 855.846 131.213C855.43 130.697 855.222 130.1 855.222 129.42C855.222 128.459 855.626 127.662 856.435 127.029C857.243 126.396 858.269 126.08 859.511 126.08C860.759 126.08 861.784 126.396 862.587 127.029C863.39 127.656 863.791 128.456 863.791 129.429C863.791 130.097 863.583 130.686 863.167 131.195C862.751 131.705 862.191 132.062 861.488 132.268V132.312C862.332 132.487 863.012 132.874 863.527 133.472C864.049 134.069 864.31 134.77 864.31 135.572C864.31 136.65 863.861 137.532 862.965 138.218C862.068 138.897 860.917 139.237 859.511 139.237ZM857.516 137.031C858.037 137.447 858.702 137.655 859.511 137.655C860.319 137.655 860.981 137.447 861.497 137.031C862.013 136.609 862.271 136.076 862.271 135.432C862.271 134.775 862.013 134.239 861.497 133.823C860.981 133.401 860.319 133.19 859.511 133.19C858.702 133.19 858.037 133.401 857.516 133.823C857 134.245 856.742 134.781 856.742 135.432C856.742 136.076 857 136.609 857.516 137.031ZM859.511 131.608C860.19 131.608 860.75 131.424 861.189 131.055C861.629 130.68 861.849 130.205 861.849 129.631C861.849 129.051 861.629 128.576 861.189 128.207C860.756 127.832 860.196 127.645 859.511 127.645C858.825 127.645 858.263 127.832 857.823 128.207C857.39 128.576 857.173 129.051 857.173 129.631C857.173 130.211 857.39 130.686 857.823 131.055C858.263 131.424 858.825 131.608 859.511 131.608ZM874.224 137.462C873.374 138.646 872.193 139.237 870.682 139.237C869.17 139.237 867.983 138.648 867.122 137.471C866.267 136.287 865.839 134.679 865.839 132.646C865.839 130.63 866.27 129.033 867.131 127.855C867.992 126.672 869.176 126.08 870.682 126.08C872.188 126.08 873.368 126.669 874.224 127.847C875.079 129.019 875.507 130.615 875.507 132.637C875.507 134.67 875.079 136.278 874.224 137.462ZM868.581 136.275C869.079 137.148 869.779 137.585 870.682 137.585C871.584 137.585 872.281 137.148 872.773 136.275C873.271 135.396 873.521 134.187 873.521 132.646C873.521 131.122 873.269 129.924 872.765 129.051C872.267 128.172 871.572 127.732 870.682 127.732C869.791 127.732 869.094 128.172 868.59 129.051C868.086 129.93 867.834 131.128 867.834 132.646C867.834 134.187 868.083 135.396 868.581 136.275ZM881.457 127.003C881.955 127.583 882.204 128.359 882.204 129.332C882.204 130.305 881.955 131.081 881.457 131.661C880.959 132.241 880.294 132.531 879.462 132.531C878.624 132.531 877.956 132.241 877.458 131.661C876.96 131.081 876.711 130.305 876.711 129.332C876.711 128.359 876.96 127.583 877.458 127.003C877.956 126.423 878.624 126.133 879.462 126.133C880.294 126.133 880.959 126.423 881.457 127.003ZM879.462 131.292C879.808 131.292 880.083 131.116 880.288 130.765C880.493 130.413 880.596 129.933 880.596 129.323C880.596 128.72 880.493 128.242 880.288 127.891C880.083 127.539 879.808 127.363 879.462 127.363C879.11 127.363 878.832 127.539 878.627 127.891C878.422 128.242 878.319 128.72 878.319 129.323C878.319 129.933 878.422 130.413 878.627 130.765C878.832 131.116 879.11 131.292 879.462 131.292ZM879.383 139H877.643L882.547 132.294L886.915 126.317H888.646L883.874 132.856L879.383 139ZM889.578 135.95C889.578 136.923 889.329 137.699 888.831 138.279C888.339 138.859 887.674 139.149 886.836 139.149C885.998 139.149 885.33 138.859 884.832 138.279C884.34 137.699 884.094 136.923 884.094 135.95C884.094 134.972 884.34 134.192 884.832 133.612C885.33 133.032 885.998 132.742 886.836 132.742C887.674 132.742 888.339 133.032 888.831 133.612C889.329 134.192 889.578 134.972 889.578 135.95ZM886.001 137.383C886.206 137.729 886.484 137.901 886.836 137.901C887.188 137.901 887.463 137.729 887.662 137.383C887.867 137.031 887.97 136.551 887.97 135.941C887.97 135.332 887.867 134.854 887.662 134.509C887.463 134.157 887.188 133.981 886.836 133.981C886.484 133.981 886.206 134.157 886.001 134.509C885.802 134.854 885.702 135.332 885.702 135.941C885.702 136.551 885.802 137.031 886.001 137.383Z" fill="#241F1F"/>
<rect x="497" y="175.5" width="16" height="16" fill="#20C997"/>
<rect x="497" y="175.5" width="16" height="16" stroke="#20C997"/>
<path d="M511 176.5C511.552 176.5 512 176.948 512 177.5V189.5C512 190.052 511.552 190.5 511 190.5H499C498.448 190.5 498 190.052 498 189.5V177.5C498 176.948 498.448 176.5 499 176.5H511ZM499 175.5C497.895 175.5 497 176.395 497 177.5V189.5C497 190.605 497.895 191.5 499 191.5H511C512.105 191.5 513 190.605 513 189.5V177.5C513 176.395 512.105 175.5 511 175.5H499Z" fill="#20C997"/>
<path d="M519.328 190.202C517.6 190.202 516.226 189.61 515.206 188.427C514.187 187.237 513.677 185.638 513.677 183.628C513.677 181.642 514.187 180.06 515.206 178.882C516.231 177.704 517.605 177.115 519.328 177.115C520.213 177.115 521.024 177.294 521.763 177.651C522.507 178.009 523.116 178.51 523.591 179.154C524.065 179.799 524.358 180.528 524.47 181.343H523.266C523.09 180.429 522.636 179.682 521.903 179.102C521.171 178.521 520.312 178.231 519.328 178.231C517.98 178.231 516.905 178.721 516.103 179.699C515.306 180.672 514.907 181.981 514.907 183.628C514.907 185.298 515.306 186.625 516.103 187.609C516.905 188.594 517.983 189.086 519.337 189.086C520.351 189.086 521.212 188.831 521.921 188.321C522.63 187.812 523.078 187.12 523.266 186.247H524.47C524.247 187.483 523.679 188.453 522.765 189.156C521.851 189.854 520.705 190.202 519.328 190.202ZM532.883 188.875C532.121 189.725 531.113 190.149 529.86 190.149C528.606 190.149 527.598 189.725 526.836 188.875C526.074 188.02 525.694 186.871 525.694 185.43C525.694 183.988 526.074 182.843 526.836 181.993C527.604 181.138 528.611 180.71 529.86 180.71C531.113 180.71 532.121 181.138 532.883 181.993C533.645 182.843 534.026 183.988 534.026 185.43C534.026 186.871 533.645 188.02 532.883 188.875ZM527.689 188.137C528.228 188.793 528.951 189.121 529.86 189.121C530.768 189.121 531.491 188.793 532.03 188.137C532.575 187.48 532.848 186.578 532.848 185.43C532.848 184.281 532.575 183.379 532.03 182.723C531.491 182.066 530.768 181.738 529.86 181.738C528.951 181.738 528.228 182.066 527.689 182.723C527.15 183.379 526.88 184.281 526.88 185.43C526.88 186.578 527.15 187.48 527.689 188.137ZM530.668 175.34V174.654C530.914 174.508 531.239 174.435 531.644 174.435C532.118 174.435 532.496 174.558 532.778 174.804C533.059 175.044 533.199 175.366 533.199 175.771C533.199 176.11 533.103 176.406 532.909 176.658C532.722 176.91 532.455 177.098 532.11 177.221L531.626 176.729C531.861 176.635 532.042 176.509 532.171 176.351C532.306 176.187 532.373 176.011 532.373 175.823C532.373 175.624 532.297 175.463 532.145 175.34C531.992 175.211 531.799 175.146 531.565 175.146C531.254 175.146 530.955 175.211 530.668 175.34ZM530.325 176.975L532.69 179.471H531.565L529.877 177.687H529.842L528.154 179.471H527.029L529.394 176.975H530.325ZM540.982 188.066C541.521 188.734 542.227 189.068 543.1 189.068C543.973 189.068 544.679 188.731 545.218 188.058C545.763 187.384 546.036 186.508 546.036 185.43C546.036 184.352 545.763 183.476 545.218 182.802C544.673 182.128 543.967 181.791 543.1 181.791C542.227 181.791 541.521 182.125 540.982 182.793C540.449 183.461 540.182 184.34 540.182 185.43C540.182 186.52 540.449 187.398 540.982 188.066ZM548.33 178.39V179.225H547.196V190H546.088V188.066H546.062C545.798 188.693 545.385 189.191 544.823 189.561C544.266 189.924 543.624 190.105 542.898 190.105C541.744 190.105 540.803 189.675 540.077 188.813C539.35 187.946 538.987 186.818 538.987 185.43C538.987 184.041 539.347 182.916 540.068 182.055C540.794 181.188 541.729 180.754 542.872 180.754C543.598 180.754 544.237 180.936 544.788 181.299C545.344 181.656 545.749 182.137 546 182.74H546.027V179.225H543.812V178.39H546.027V177.317H547.196V178.39H548.33ZM556.268 188.875C555.506 189.725 554.499 190.149 553.245 190.149C551.991 190.149 550.983 189.725 550.221 188.875C549.46 188.02 549.079 186.871 549.079 185.43C549.079 183.988 549.46 182.843 550.221 181.993C550.989 181.138 551.997 180.71 553.245 180.71C554.499 180.71 555.506 181.138 556.268 181.993C557.03 182.843 557.411 183.988 557.411 185.43C557.411 186.871 557.03 188.02 556.268 188.875ZM551.074 188.137C551.613 188.793 552.337 189.121 553.245 189.121C554.153 189.121 554.877 188.793 555.416 188.137C555.961 187.48 556.233 186.578 556.233 185.43C556.233 184.281 555.961 183.379 555.416 182.723C554.877 182.066 554.153 181.738 553.245 181.738C552.337 181.738 551.613 182.066 551.074 182.723C550.535 183.379 550.265 184.281 550.265 185.43C550.265 186.578 550.535 187.48 551.074 188.137ZM553.702 176.816L556.066 179.471H554.95L553.262 177.572H553.218L551.531 179.471H550.415L552.788 176.816H553.702ZM559.048 190V180.859H560.146V182.547H560.173C560.413 181.979 560.794 181.53 561.315 181.202C561.843 180.874 562.467 180.71 563.187 180.71C564.189 180.71 564.977 181.012 565.552 181.615C566.132 182.219 566.422 183.039 566.422 184.076V190H565.262V184.261C565.262 183.464 565.051 182.846 564.629 182.406C564.213 181.967 563.621 181.747 562.853 181.747C562.062 181.747 561.424 182.008 560.937 182.529C560.451 183.051 560.208 183.736 560.208 184.586V190H559.048ZM572.084 189.06C572.963 189.06 573.672 188.726 574.211 188.058C574.756 187.384 575.028 186.499 575.028 185.403C575.028 184.308 574.756 183.423 574.211 182.749C573.672 182.075 572.963 181.738 572.084 181.738C571.223 181.738 570.528 182.075 570.001 182.749C569.474 183.417 569.21 184.305 569.21 185.412C569.21 186.514 569.474 187.398 570.001 188.066C570.528 188.729 571.223 189.06 572.084 189.06ZM572.198 193.384C571.214 193.384 570.373 193.144 569.676 192.663C568.984 192.183 568.574 191.576 568.445 190.844H569.649C569.802 191.301 570.109 191.67 570.572 191.951C571.041 192.238 571.601 192.382 572.251 192.382C573.101 192.382 573.774 192.153 574.272 191.696C574.776 191.245 575.028 190.645 575.028 189.895V188.058H575.002C574.75 188.661 574.343 189.15 573.78 189.525C573.224 189.9 572.588 190.088 571.873 190.088C570.713 190.088 569.778 189.66 569.069 188.805C568.366 187.949 568.015 186.815 568.015 185.403C568.015 183.985 568.369 182.849 569.078 181.993C569.787 181.138 570.728 180.71 571.899 180.71C572.614 180.71 573.25 180.9 573.807 181.281C574.369 181.656 574.788 182.16 575.063 182.793H575.09V180.859H576.197V189.851C576.197 190.917 575.834 191.772 575.107 192.417C574.387 193.062 573.417 193.384 572.198 193.384ZM582.081 190V180.859H583.18V182.547H583.206C583.447 181.979 583.827 181.53 584.349 181.202C584.876 180.874 585.5 180.71 586.221 180.71C587.223 180.71 588.011 181.012 588.585 181.615C589.165 182.219 589.455 183.039 589.455 184.076V190H588.295V184.261C588.295 183.464 588.084 182.846 587.662 182.406C587.246 181.967 586.655 181.747 585.887 181.747C585.096 181.747 584.457 182.008 583.971 182.529C583.485 183.051 583.241 183.736 583.241 184.586V190H582.081ZM597.71 188.304C597.464 188.872 597.075 189.323 596.541 189.657C596.014 189.985 595.393 190.149 594.678 190.149C593.688 190.149 592.903 189.851 592.323 189.253C591.743 188.649 591.453 187.832 591.453 186.801V180.859H592.622V186.599C592.622 187.407 592.827 188.028 593.237 188.462C593.653 188.896 594.245 189.112 595.012 189.112C595.809 189.112 596.451 188.854 596.937 188.339C597.429 187.823 597.675 187.138 597.675 186.282V180.859H598.888C599.456 180.859 599.741 180.596 599.741 180.068V178.855H600.804V180.279C600.804 180.736 600.661 181.094 600.373 181.352C600.092 181.604 599.697 181.729 599.187 181.729H598.835V190H597.737V188.304H597.71ZM605.236 189.121C606.15 189.121 606.877 188.793 607.416 188.137C607.955 187.475 608.224 186.572 608.224 185.43C608.224 184.287 607.952 183.388 607.407 182.731C606.868 182.069 606.144 181.738 605.236 181.738C604.328 181.738 603.604 182.066 603.065 182.723C602.526 183.379 602.256 184.281 602.256 185.43C602.256 186.578 602.526 187.48 603.065 188.137C603.604 188.793 604.328 189.121 605.236 189.121ZM609.402 185.43C609.402 186.865 609.021 188.011 608.259 188.866C607.498 189.722 606.49 190.149 605.236 190.149C603.982 190.149 602.974 189.722 602.213 188.866C601.451 188.011 601.07 186.865 601.07 185.43C601.07 183.994 601.451 182.849 602.213 181.993C602.974 181.138 603.982 180.71 605.236 180.71C605.623 180.71 606.059 180.751 606.546 180.833C607.032 180.915 607.392 180.956 607.627 180.956C607.996 180.956 608.251 180.895 608.391 180.771C608.538 180.648 608.611 180.432 608.611 180.121V178.996H609.674V180.464C609.674 180.868 609.557 181.188 609.323 181.422C609.094 181.65 608.778 181.765 608.374 181.765H607.961V181.8C608.418 182.175 608.772 182.676 609.024 183.303C609.276 183.924 609.402 184.633 609.402 185.43ZM605.711 179.471H604.665L606.589 176.816H607.873L605.711 179.471ZM618.756 183.751H617.613C617.484 183.159 617.188 182.676 616.725 182.301C616.268 181.926 615.694 181.738 615.003 181.738C614.106 181.738 613.388 182.072 612.849 182.74C612.316 183.408 612.05 184.305 612.05 185.43C612.05 186.566 612.319 187.466 612.858 188.128C613.397 188.79 614.115 189.121 615.011 189.121C615.691 189.121 616.26 188.945 616.717 188.594C617.179 188.242 617.478 187.768 617.613 187.17H618.764C618.636 188.049 618.225 188.767 617.534 189.323C616.848 189.874 616.005 190.149 615.003 190.149C613.749 190.149 612.744 189.728 611.988 188.884C611.238 188.034 610.863 186.883 610.863 185.43C610.863 183.994 611.238 182.849 611.988 181.993C612.744 181.138 613.746 180.71 614.994 180.71C616.031 180.71 616.886 181.003 617.56 181.589C618.24 182.175 618.638 182.896 618.756 183.751ZM624.086 190V180.859H625.185V182.547H625.211C625.451 181.979 625.832 181.53 626.354 181.202C626.881 180.874 627.505 180.71 628.226 180.71C629.228 180.71 630.016 181.012 630.59 181.615C631.17 182.219 631.46 183.039 631.46 184.076V190H630.3V184.261C630.3 183.464 630.089 182.846 629.667 182.406C629.251 181.967 628.659 181.747 627.892 181.747C627.101 181.747 626.462 182.008 625.976 182.529C625.489 183.051 625.246 183.736 625.246 184.586V190H624.086ZM637.122 189.06C638.001 189.06 638.71 188.726 639.249 188.058C639.794 187.384 640.067 186.499 640.067 185.403C640.067 184.308 639.794 183.423 639.249 182.749C638.71 182.075 638.001 181.738 637.122 181.738C636.261 181.738 635.567 182.075 635.039 182.749C634.512 183.417 634.248 184.305 634.248 185.412C634.248 186.514 634.512 187.398 635.039 188.066C635.567 188.729 636.261 189.06 637.122 189.06ZM637.237 193.384C636.252 193.384 635.411 193.144 634.714 192.663C634.023 192.183 633.613 191.576 633.484 190.844H634.688C634.84 191.301 635.148 191.67 635.611 191.951C636.079 192.238 636.639 192.382 637.289 192.382C638.139 192.382 638.813 192.153 639.311 191.696C639.815 191.245 640.067 190.645 640.067 189.895V188.058H640.04C639.788 188.661 639.381 189.15 638.819 189.525C638.262 189.9 637.626 190.088 636.911 190.088C635.751 190.088 634.817 189.66 634.108 188.805C633.405 187.949 633.053 186.815 633.053 185.403C633.053 183.985 633.407 182.849 634.116 181.993C634.825 181.138 635.766 180.71 636.938 180.71C637.653 180.71 638.288 180.9 638.845 181.281C639.407 181.656 639.826 182.16 640.102 182.793H640.128V180.859H641.236V189.851C641.236 190.917 640.872 191.772 640.146 192.417C639.425 193.062 638.455 193.384 637.237 193.384ZM650.071 188.875C649.309 189.725 648.301 190.149 647.047 190.149C645.793 190.149 644.786 189.725 644.024 188.875C643.262 188.02 642.881 186.871 642.881 185.43C642.881 183.988 643.262 182.843 644.024 181.993C644.791 181.138 645.799 180.71 647.047 180.71C648.301 180.71 649.309 181.138 650.071 181.993C650.832 182.843 651.213 183.988 651.213 185.43C651.213 186.871 650.832 188.02 650.071 188.875ZM644.876 188.137C645.415 188.793 646.139 189.121 647.047 189.121C647.955 189.121 648.679 188.793 649.218 188.137C649.763 187.48 650.036 186.578 650.036 185.43C650.036 184.281 649.763 183.379 649.218 182.723C648.679 182.066 647.955 181.738 647.047 181.738C646.139 181.738 645.415 182.066 644.876 182.723C644.337 183.379 644.068 184.281 644.068 185.43C644.068 186.578 644.337 187.48 644.876 188.137ZM655.794 189.147C656.597 189.147 657.274 188.898 657.825 188.4C658.376 187.902 658.651 187.29 658.651 186.563V185.553L655.944 185.737C655.223 185.784 654.669 185.96 654.283 186.265C653.896 186.563 653.703 186.965 653.703 187.469C653.703 187.967 653.896 188.371 654.283 188.682C654.669 188.992 655.173 189.147 655.794 189.147ZM655.557 190.149C654.655 190.149 653.922 189.903 653.36 189.411C652.803 188.913 652.525 188.266 652.525 187.469C652.525 186.684 652.806 186.062 653.369 185.605C653.937 185.148 654.749 184.885 655.803 184.814L658.651 184.639V183.848C658.651 183.186 658.452 182.67 658.053 182.301C657.655 181.926 657.101 181.738 656.392 181.738C655.724 181.738 655.179 181.894 654.757 182.204C654.341 182.515 654.084 182.948 653.984 183.505H652.859C652.923 182.673 653.275 181.999 653.914 181.483C654.558 180.968 655.393 180.71 656.419 180.71C657.461 180.71 658.288 180.982 658.897 181.527C659.506 182.072 659.811 182.811 659.811 183.742V190H658.704V188.26H658.677C658.425 188.828 658.012 189.285 657.438 189.631C656.864 189.977 656.237 190.149 655.557 190.149ZM656.867 179.462H655.821L653.659 176.808H654.942L656.867 179.462ZM661.931 190V180.859H663.092V190H661.931ZM662.511 179.014C662.301 179.014 662.119 178.94 661.967 178.794C661.814 178.642 661.738 178.457 661.738 178.24C661.738 178.029 661.814 177.851 661.967 177.704C662.119 177.552 662.301 177.476 662.511 177.476C662.728 177.476 662.913 177.552 663.065 177.704C663.217 177.851 663.294 178.029 663.294 178.24C663.294 178.457 663.217 178.642 663.065 178.794C662.913 178.94 662.728 179.014 662.511 179.014Z" fill="#241F1F"/>
<path d="M830.779 181.035C830.779 179.893 831.189 178.949 832.01 178.205C832.836 177.455 833.879 177.08 835.139 177.08C836.346 177.08 837.351 177.42 838.153 178.1C838.956 178.779 839.357 179.623 839.357 180.631C839.357 181.34 839.161 182.014 838.769 182.652C838.376 183.285 837.69 184.103 836.712 185.104L833.539 188.295V188.339H839.56V190H830.885V188.664L835.464 183.997C836.237 183.188 836.756 182.567 837.02 182.134C837.283 181.694 837.415 181.226 837.415 180.728C837.415 180.165 837.189 179.688 836.738 179.295C836.287 178.902 835.733 178.706 835.077 178.706C834.386 178.706 833.806 178.929 833.337 179.374C832.874 179.813 832.643 180.364 832.643 181.026V181.053H830.779V181.035ZM844.068 184.261V182.714H845.598C846.277 182.714 846.831 182.521 847.259 182.134C847.692 181.747 847.909 181.255 847.909 180.657C847.909 180.054 847.707 179.576 847.303 179.225C846.904 178.873 846.336 178.697 845.598 178.697C844.912 178.697 844.355 178.882 843.928 179.251C843.5 179.614 843.257 180.109 843.198 180.736H841.344C841.42 179.623 841.848 178.735 842.627 178.073C843.412 177.411 844.432 177.08 845.686 177.08C846.893 177.08 847.886 177.391 848.665 178.012C849.444 178.627 849.834 179.421 849.834 180.394C849.834 181.179 849.597 181.841 849.122 182.38C848.647 182.913 848.015 183.25 847.224 183.391V183.426C848.185 183.49 848.946 183.798 849.509 184.349C850.077 184.899 850.361 185.617 850.361 186.502C850.361 187.598 849.919 188.494 849.034 189.191C848.149 189.889 847.039 190.237 845.703 190.237C844.35 190.237 843.257 189.9 842.425 189.227C841.599 188.547 841.153 187.653 841.089 186.546H842.979C843.043 187.161 843.315 187.656 843.796 188.031C844.282 188.406 844.918 188.594 845.703 188.594C846.477 188.594 847.112 188.397 847.61 188.005C848.108 187.606 848.357 187.097 848.357 186.476C848.357 185.79 848.114 185.251 847.628 184.858C847.147 184.46 846.488 184.261 845.65 184.261H844.068ZM854.176 189.763C853.953 189.985 853.681 190.097 853.358 190.097C853.036 190.097 852.764 189.985 852.541 189.763C852.318 189.54 852.207 189.268 852.207 188.945C852.207 188.623 852.318 188.351 852.541 188.128C852.764 187.905 853.036 187.794 853.358 187.794C853.681 187.794 853.953 187.905 854.176 188.128C854.398 188.351 854.51 188.623 854.51 188.945C854.51 189.268 854.398 189.54 854.176 189.763ZM856.83 190L862.464 179.022V178.979H855.775V177.317H864.406V179.022L858.896 190H856.83ZM870.726 190.237C869.313 190.237 868.159 189.895 867.263 189.209C866.372 188.523 865.927 187.645 865.927 186.572C865.927 185.77 866.185 185.069 866.7 184.472C867.222 183.874 867.904 183.487 868.748 183.312V183.268C868.045 183.074 867.482 182.723 867.061 182.213C866.645 181.697 866.437 181.1 866.437 180.42C866.437 179.459 866.841 178.662 867.649 178.029C868.458 177.396 869.483 177.08 870.726 177.08C871.974 177.08 872.999 177.396 873.802 178.029C874.604 178.656 875.006 179.456 875.006 180.429C875.006 181.097 874.798 181.686 874.382 182.195C873.966 182.705 873.406 183.062 872.703 183.268V183.312C873.547 183.487 874.227 183.874 874.742 184.472C875.264 185.069 875.524 185.77 875.524 186.572C875.524 187.65 875.076 188.532 874.18 189.218C873.283 189.897 872.132 190.237 870.726 190.237ZM868.73 188.031C869.252 188.447 869.917 188.655 870.726 188.655C871.534 188.655 872.196 188.447 872.712 188.031C873.228 187.609 873.485 187.076 873.485 186.432C873.485 185.775 873.228 185.239 872.712 184.823C872.196 184.401 871.534 184.19 870.726 184.19C869.917 184.19 869.252 184.401 868.73 184.823C868.215 185.245 867.957 185.781 867.957 186.432C867.957 187.076 868.215 187.609 868.73 188.031ZM870.726 182.608C871.405 182.608 871.965 182.424 872.404 182.055C872.844 181.68 873.063 181.205 873.063 180.631C873.063 180.051 872.844 179.576 872.404 179.207C871.971 178.832 871.411 178.645 870.726 178.645C870.04 178.645 869.478 178.832 869.038 179.207C868.604 179.576 868.388 180.051 868.388 180.631C868.388 181.211 868.604 181.686 869.038 182.055C869.478 182.424 870.04 182.608 870.726 182.608ZM881.457 178.003C881.955 178.583 882.204 179.359 882.204 180.332C882.204 181.305 881.955 182.081 881.457 182.661C880.959 183.241 880.294 183.531 879.462 183.531C878.624 183.531 877.956 183.241 877.458 182.661C876.96 182.081 876.711 181.305 876.711 180.332C876.711 179.359 876.96 178.583 877.458 178.003C877.956 177.423 878.624 177.133 879.462 177.133C880.294 177.133 880.959 177.423 881.457 178.003ZM879.462 182.292C879.808 182.292 880.083 182.116 880.288 181.765C880.493 181.413 880.596 180.933 880.596 180.323C880.596 179.72 880.493 179.242 880.288 178.891C880.083 178.539 879.808 178.363 879.462 178.363C879.11 178.363 878.832 178.539 878.627 178.891C878.422 179.242 878.319 179.72 878.319 180.323C878.319 180.933 878.422 181.413 878.627 181.765C878.832 182.116 879.11 182.292 879.462 182.292ZM879.383 190H877.643L882.547 183.294L886.915 177.317H888.646L883.874 183.856L879.383 190ZM889.578 186.95C889.578 187.923 889.329 188.699 888.831 189.279C888.339 189.859 887.674 190.149 886.836 190.149C885.998 190.149 885.33 189.859 884.832 189.279C884.34 188.699 884.094 187.923 884.094 186.95C884.094 185.972 884.34 185.192 884.832 184.612C885.33 184.032 885.998 183.742 886.836 183.742C887.674 183.742 888.339 184.032 888.831 184.612C889.329 185.192 889.578 185.972 889.578 186.95ZM886.001 188.383C886.206 188.729 886.484 188.901 886.836 188.901C887.188 188.901 887.463 188.729 887.662 188.383C887.867 188.031 887.97 187.551 887.97 186.941C887.97 186.332 887.867 185.854 887.662 185.509C887.463 185.157 887.188 184.981 886.836 184.981C886.484 184.981 886.206 185.157 886.001 185.509C885.802 185.854 885.702 186.332 885.702 186.941C885.702 187.551 885.802 188.031 886.001 188.383Z" fill="#241F1F"/>
<rect x="497" y="226.5" width="16" height="16" fill="#F28021"/>
<rect x="497" y="226.5" width="16" height="16" stroke="#F28021"/>
<path d="M511 227.5C511.552 227.5 512 227.948 512 228.5V240.5C512 241.052 511.552 241.5 511 241.5H499C498.448 241.5 498 241.052 498 240.5V228.5C498 227.948 498.448 227.5 499 227.5H511ZM499 226.5C497.895 226.5 497 227.395 497 228.5V240.5C497 241.605 497.895 242.5 499 242.5H511C512.105 242.5 513 241.605 513 240.5V228.5C513 227.395 512.105 226.5 511 226.5H499Z" fill="#F28021"/>
<path d="M519.328 241.202C517.6 241.202 516.226 240.61 515.206 239.427C514.187 238.237 513.677 236.638 513.677 234.628C513.677 232.642 514.187 231.06 515.206 229.882C516.231 228.704 517.605 228.115 519.328 228.115C520.213 228.115 521.024 228.294 521.763 228.651C522.507 229.009 523.116 229.51 523.591 230.154C524.065 230.799 524.358 231.528 524.47 232.343H523.266C523.09 231.429 522.636 230.682 521.903 230.102C521.171 229.521 520.312 229.231 519.328 229.231C517.98 229.231 516.905 229.721 516.103 230.699C515.306 231.672 514.907 232.981 514.907 234.628C514.907 236.298 515.306 237.625 516.103 238.609C516.905 239.594 517.983 240.086 519.337 240.086C520.351 240.086 521.212 239.831 521.921 239.321C522.63 238.812 523.078 238.12 523.266 237.247H524.47C524.247 238.483 523.679 239.453 522.765 240.156C521.851 240.854 520.705 241.202 519.328 241.202ZM532.883 239.875C532.121 240.725 531.113 241.149 529.86 241.149C528.606 241.149 527.598 240.725 526.836 239.875C526.074 239.02 525.694 237.871 525.694 236.43C525.694 234.988 526.074 233.843 526.836 232.993C527.604 232.138 528.611 231.71 529.86 231.71C531.113 231.71 532.121 232.138 532.883 232.993C533.645 233.843 534.026 234.988 534.026 236.43C534.026 237.871 533.645 239.02 532.883 239.875ZM527.689 239.137C528.228 239.793 528.951 240.121 529.86 240.121C530.768 240.121 531.491 239.793 532.03 239.137C532.575 238.48 532.848 237.578 532.848 236.43C532.848 235.281 532.575 234.379 532.03 233.723C531.491 233.066 530.768 232.738 529.86 232.738C528.951 232.738 528.228 233.066 527.689 233.723C527.15 234.379 526.88 235.281 526.88 236.43C526.88 237.578 527.15 238.48 527.689 239.137ZM530.668 226.34V225.654C530.914 225.508 531.239 225.435 531.644 225.435C532.118 225.435 532.496 225.558 532.778 225.804C533.059 226.044 533.199 226.366 533.199 226.771C533.199 227.11 533.103 227.406 532.909 227.658C532.722 227.91 532.455 228.098 532.11 228.221L531.626 227.729C531.861 227.635 532.042 227.509 532.171 227.351C532.306 227.187 532.373 227.011 532.373 226.823C532.373 226.624 532.297 226.463 532.145 226.34C531.992 226.211 531.799 226.146 531.565 226.146C531.254 226.146 530.955 226.211 530.668 226.34ZM530.325 227.975L532.69 230.471H531.565L529.877 228.687H529.842L528.154 230.471H527.029L529.394 227.975H530.325ZM540.982 239.066C541.521 239.734 542.227 240.068 543.1 240.068C543.973 240.068 544.679 239.731 545.218 239.058C545.763 238.384 546.036 237.508 546.036 236.43C546.036 235.352 545.763 234.476 545.218 233.802C544.673 233.128 543.967 232.791 543.1 232.791C542.227 232.791 541.521 233.125 540.982 233.793C540.449 234.461 540.182 235.34 540.182 236.43C540.182 237.52 540.449 238.398 540.982 239.066ZM548.33 229.39V230.225H547.196V241H546.088V239.066H546.062C545.798 239.693 545.385 240.191 544.823 240.561C544.266 240.924 543.624 241.105 542.898 241.105C541.744 241.105 540.803 240.675 540.077 239.813C539.35 238.946 538.987 237.818 538.987 236.43C538.987 235.041 539.347 233.916 540.068 233.055C540.794 232.188 541.729 231.754 542.872 231.754C543.598 231.754 544.237 231.936 544.788 232.299C545.344 232.656 545.749 233.137 546 233.74H546.027V230.225H543.812V229.39H546.027V228.317H547.196V229.39H548.33ZM556.268 239.875C555.506 240.725 554.499 241.149 553.245 241.149C551.991 241.149 550.983 240.725 550.221 239.875C549.46 239.02 549.079 237.871 549.079 236.43C549.079 234.988 549.46 233.843 550.221 232.993C550.989 232.138 551.997 231.71 553.245 231.71C554.499 231.71 555.506 232.138 556.268 232.993C557.03 233.843 557.411 234.988 557.411 236.43C557.411 237.871 557.03 239.02 556.268 239.875ZM551.074 239.137C551.613 239.793 552.337 240.121 553.245 240.121C554.153 240.121 554.877 239.793 555.416 239.137C555.961 238.48 556.233 237.578 556.233 236.43C556.233 235.281 555.961 234.379 555.416 233.723C554.877 233.066 554.153 232.738 553.245 232.738C552.337 232.738 551.613 233.066 551.074 233.723C550.535 234.379 550.265 235.281 550.265 236.43C550.265 237.578 550.535 238.48 551.074 239.137ZM553.702 227.816L556.066 230.471H554.95L553.262 228.572H553.218L551.531 230.471H550.415L552.788 227.816H553.702ZM559.048 241V231.859H560.146V233.547H560.173C560.413 232.979 560.794 232.53 561.315 232.202C561.843 231.874 562.467 231.71 563.187 231.71C564.189 231.71 564.977 232.012 565.552 232.615C566.132 233.219 566.422 234.039 566.422 235.076V241H565.262V235.261C565.262 234.464 565.051 233.846 564.629 233.406C564.213 232.967 563.621 232.747 562.853 232.747C562.062 232.747 561.424 233.008 560.937 233.529C560.451 234.051 560.208 234.736 560.208 235.586V241H559.048ZM572.084 240.06C572.963 240.06 573.672 239.726 574.211 239.058C574.756 238.384 575.028 237.499 575.028 236.403C575.028 235.308 574.756 234.423 574.211 233.749C573.672 233.075 572.963 232.738 572.084 232.738C571.223 232.738 570.528 233.075 570.001 233.749C569.474 234.417 569.21 235.305 569.21 236.412C569.21 237.514 569.474 238.398 570.001 239.066C570.528 239.729 571.223 240.06 572.084 240.06ZM572.198 244.384C571.214 244.384 570.373 244.144 569.676 243.663C568.984 243.183 568.574 242.576 568.445 241.844H569.649C569.802 242.301 570.109 242.67 570.572 242.951C571.041 243.238 571.601 243.382 572.251 243.382C573.101 243.382 573.774 243.153 574.272 242.696C574.776 242.245 575.028 241.645 575.028 240.895V239.058H575.002C574.75 239.661 574.343 240.15 573.78 240.525C573.224 240.9 572.588 241.088 571.873 241.088C570.713 241.088 569.778 240.66 569.069 239.805C568.366 238.949 568.015 237.815 568.015 236.403C568.015 234.985 568.369 233.849 569.078 232.993C569.787 232.138 570.728 231.71 571.899 231.71C572.614 231.71 573.25 231.9 573.807 232.281C574.369 232.656 574.788 233.16 575.063 233.793H575.09V231.859H576.197V240.851C576.197 241.917 575.834 242.772 575.107 243.417C574.387 244.062 573.417 244.384 572.198 244.384ZM583.329 236.184L587.847 231.859H589.288L585.184 235.806L589.367 241H588.005L584.349 236.518L583.329 237.458V241H582.16V228.317H583.329V236.184ZM590.67 241V228.317H591.839V233.547H591.866C592.1 232.979 592.481 232.53 593.008 232.202C593.536 231.874 594.16 231.71 594.88 231.71C595.876 231.71 596.67 232.018 597.262 232.633C597.854 233.248 598.15 234.068 598.15 235.094V241H596.981V235.287C596.981 234.49 596.767 233.869 596.339 233.424C595.912 232.973 595.314 232.747 594.546 232.747C593.726 232.747 593.07 233.011 592.578 233.538C592.085 234.065 591.839 234.76 591.839 235.621V241H590.67ZM603.135 240.147C603.938 240.147 604.615 239.898 605.166 239.4C605.716 238.902 605.992 238.29 605.992 237.563V236.553L603.285 236.737C602.564 236.784 602.01 236.96 601.624 237.265C601.237 237.563 601.044 237.965 601.044 238.469C601.044 238.967 601.237 239.371 601.624 239.682C602.01 239.992 602.514 240.147 603.135 240.147ZM602.898 241.149C601.996 241.149 601.263 240.903 600.701 240.411C600.144 239.913 599.866 239.266 599.866 238.469C599.866 237.684 600.147 237.062 600.71 236.605C601.278 236.148 602.089 235.885 603.144 235.814L605.992 235.639V234.848C605.992 234.186 605.793 233.67 605.394 233.301C604.996 232.926 604.442 232.738 603.733 232.738C603.065 232.738 602.52 232.894 602.098 233.204C601.682 233.515 601.424 233.948 601.325 234.505H600.2C600.264 233.673 600.616 232.999 601.254 232.483C601.899 231.968 602.734 231.71 603.759 231.71C604.802 231.71 605.629 231.982 606.238 232.527C606.847 233.072 607.152 233.811 607.152 234.742V241H606.045V239.26H606.018C605.766 239.828 605.353 240.285 604.779 240.631C604.205 240.977 603.578 241.149 602.898 241.149ZM604.164 230.462H603.118L605.043 227.808H606.326L604.164 230.462ZM616.629 234.751H615.486C615.357 234.159 615.061 233.676 614.598 233.301C614.141 232.926 613.567 232.738 612.876 232.738C611.979 232.738 611.261 233.072 610.722 233.74C610.189 234.408 609.923 235.305 609.923 236.43C609.923 237.566 610.192 238.466 610.731 239.128C611.27 239.79 611.988 240.121 612.885 240.121C613.564 240.121 614.133 239.945 614.59 239.594C615.052 239.242 615.351 238.768 615.486 238.17H616.637C616.509 239.049 616.098 239.767 615.407 240.323C614.721 240.874 613.878 241.149 612.876 241.149C611.622 241.149 610.617 240.728 609.861 239.884C609.111 239.034 608.736 237.883 608.736 236.43C608.736 234.994 609.111 233.849 609.861 232.993C610.617 232.138 611.619 231.71 612.867 231.71C613.904 231.71 614.76 232.003 615.433 232.589C616.113 233.175 616.511 233.896 616.629 234.751Z" fill="#241F1F"/>
<path d="M846.222 241V230.269H846.178L842.864 232.624V230.69L846.204 228.317H848.146V241H846.222ZM853.068 240.763C852.846 240.985 852.573 241.097 852.251 241.097C851.929 241.097 851.656 240.985 851.434 240.763C851.211 240.54 851.1 240.268 851.1 239.945C851.1 239.623 851.211 239.351 851.434 239.128C851.656 238.905 851.929 238.794 852.251 238.794C852.573 238.794 852.846 238.905 853.068 239.128C853.291 239.351 853.402 239.623 853.402 239.945C853.402 240.268 853.291 240.54 853.068 240.763ZM861.699 241V238.495H855.354V236.772C856.373 234.851 858.169 232.032 860.741 228.317H863.589V236.843H865.329V238.495H863.589V241H861.699ZM857.19 236.825V236.869H861.717V229.838H861.682C859.584 232.867 858.087 235.196 857.19 236.825ZM866.744 232.035C866.744 230.893 867.154 229.949 867.975 229.205C868.801 228.455 869.844 228.08 871.104 228.08C872.311 228.08 873.315 228.42 874.118 229.1C874.921 229.779 875.322 230.623 875.322 231.631C875.322 232.34 875.126 233.014 874.733 233.652C874.341 234.285 873.655 235.103 872.677 236.104L869.504 239.295V239.339H875.524V241H866.85V239.664L871.429 234.997C872.202 234.188 872.721 233.567 872.984 233.134C873.248 232.694 873.38 232.226 873.38 231.728C873.38 231.165 873.154 230.688 872.703 230.295C872.252 229.902 871.698 229.706 871.042 229.706C870.351 229.706 869.771 229.929 869.302 230.374C868.839 230.813 868.607 231.364 868.607 232.026V232.053H866.744V232.035ZM881.457 229.003C881.955 229.583 882.204 230.359 882.204 231.332C882.204 232.305 881.955 233.081 881.457 233.661C880.959 234.241 880.294 234.531 879.462 234.531C878.624 234.531 877.956 234.241 877.458 233.661C876.96 233.081 876.711 232.305 876.711 231.332C876.711 230.359 876.96 229.583 877.458 229.003C877.956 228.423 878.624 228.133 879.462 228.133C880.294 228.133 880.959 228.423 881.457 229.003ZM879.462 233.292C879.808 233.292 880.083 233.116 880.288 232.765C880.493 232.413 880.596 231.933 880.596 231.323C880.596 230.72 880.493 230.242 880.288 229.891C880.083 229.539 879.808 229.363 879.462 229.363C879.11 229.363 878.832 229.539 878.627 229.891C878.422 230.242 878.319 230.72 878.319 231.323C878.319 231.933 878.422 232.413 878.627 232.765C878.832 233.116 879.11 233.292 879.462 233.292ZM879.383 241H877.643L882.547 234.294L886.915 228.317H888.646L883.874 234.856L879.383 241ZM889.578 237.95C889.578 238.923 889.329 239.699 888.831 240.279C888.339 240.859 887.674 241.149 886.836 241.149C885.998 241.149 885.33 240.859 884.832 240.279C884.34 239.699 884.094 238.923 884.094 237.95C884.094 236.972 884.34 236.192 884.832 235.612C885.33 235.032 885.998 234.742 886.836 234.742C887.674 234.742 888.339 235.032 888.831 235.612C889.329 236.192 889.578 236.972 889.578 237.95ZM886.001 239.383C886.206 239.729 886.484 239.901 886.836 239.901C887.188 239.901 887.463 239.729 887.662 239.383C887.867 239.031 887.97 238.551 887.97 237.941C887.97 237.332 887.867 236.854 887.662 236.509C887.463 236.157 887.188 235.981 886.836 235.981C886.484 235.981 886.206 236.157 886.001 236.509C885.802 236.854 885.702 237.332 885.702 237.941C885.702 238.551 885.802 239.031 886.001 239.383Z" fill="#241F1F"/>
</svg>
