<svg width="109" height="35" viewBox="0 0 109 35" fill="none" xmlns="http://www.w3.org/2000/svg">
<path d="M104.648 33.0467H4.09201C1.79459 33.0467 0.0273438 31.2795 0.0273438 28.982V4.94748C0.0273438 2.65006 1.97131 0.882812 4.09201 0.882812H104.648C106.946 0.882812 108.713 2.65006 108.713 4.94748V29.1588C108.713 31.2795 106.946 33.0467 104.648 33.0467Z" fill="black"/>
<path d="M104.648 1.58971C106.592 1.58971 108.006 3.18023 108.006 4.94748V29.1588C108.006 31.1027 106.416 32.5165 104.648 32.5165H4.09201C2.14804 32.5165 0.734245 30.926 0.734245 29.1588V4.94748C0.734245 3.00351 2.32476 1.58971 4.09201 1.58971H104.648ZM104.648 0.882812H4.09201C1.97131 0.882812 0.0273438 2.65006 0.0273438 4.94748V29.1588C0.0273438 31.4562 1.79459 33.2234 4.09201 33.2234H104.648C106.946 33.2234 108.713 31.4562 108.713 29.1588V4.94748C108.713 2.65006 106.946 0.882812 104.648 0.882812Z" fill="#A6A5A5"/>
<path d="M54.5389 14.9329C52.5949 14.9329 51.1811 16.3467 51.1811 18.2907C51.1811 20.2346 52.7716 21.6484 54.5389 21.6484C56.4828 21.6484 57.8966 20.2346 57.8966 18.2907C57.8966 16.3467 56.3061 14.9329 54.5389 14.9329ZM54.5389 20.4114C53.4785 20.4114 52.5949 19.5277 52.5949 18.2907C52.5949 17.0536 53.4785 16.17 54.5389 16.17C55.5992 16.17 56.4828 17.0536 56.4828 18.2907C56.4828 19.5277 55.4225 20.4114 54.5389 20.4114ZM46.9397 14.9329C44.9957 14.9329 43.5819 16.3467 43.5819 18.2907C43.5819 20.2346 45.1725 21.6484 46.9397 21.6484C48.8837 21.6484 50.2975 20.2346 50.2975 18.2907C50.4742 16.3467 48.8837 14.9329 46.9397 14.9329ZM46.9397 20.4114C45.8794 20.4114 44.9957 19.5277 44.9957 18.2907C44.9957 17.0536 45.8794 16.17 46.9397 16.17C48.0001 16.17 48.8837 17.0536 48.8837 18.2907C48.8837 19.5277 48.0001 20.4114 46.9397 20.4114ZM38.1035 15.9932V17.407H41.638C41.4612 18.2907 41.2845 18.8208 40.9311 19.1743C40.2242 19.7045 39.5173 20.4114 38.1035 20.4114C35.9828 20.4114 34.2155 18.6441 34.2155 16.5234C34.2155 14.4027 35.8061 12.6355 38.1035 12.6355C39.3405 12.6355 40.0474 13.1657 40.7543 13.6958L41.8147 12.6355C40.9311 11.7519 39.8707 11.2217 38.1035 11.2217C35.0992 11.2217 32.625 13.5191 32.625 16.5234C32.625 19.5277 35.0992 21.8252 38.1035 21.8252C39.694 21.8252 40.9311 21.295 41.8147 20.4114C42.6983 19.5277 43.0518 18.1139 43.0518 17.0536C43.0518 16.7001 43.0518 16.3467 43.0518 16.17H38.1035V15.9932ZM74.5088 17.0536C74.1553 16.3467 73.2717 14.9329 71.5044 14.9329C69.7372 14.9329 68.3234 16.3467 68.3234 18.2907C68.3234 20.2346 69.7372 21.6484 71.6812 21.6484C73.2717 21.6484 74.1553 20.7648 74.5088 20.0579L73.2717 19.351C72.9182 19.8812 72.3881 20.2346 71.5044 20.2346C70.7975 20.2346 70.2674 19.8812 69.9139 19.1743L74.5088 17.2303V17.0536ZM69.9139 18.2907C69.9139 17.0536 70.9743 16.3467 71.6812 16.3467C72.2113 16.3467 72.7415 16.7001 72.9182 17.0536L69.9139 18.2907ZM66.2027 21.6484H67.7932V11.5751H66.2027V21.6484ZM63.7286 15.6398C63.3751 15.2863 62.6682 14.9329 61.9613 14.9329C60.1941 14.9329 58.6035 16.5234 58.6035 18.2907C58.6035 20.2346 60.1941 21.6484 61.9613 21.6484C62.8449 21.6484 63.3751 21.295 63.7286 20.9415V21.4717C63.7286 22.7088 63.0217 23.4157 61.9613 23.4157C61.0777 23.4157 60.5475 22.7088 60.1941 22.1786L58.957 22.7088C59.3104 23.5924 60.3708 24.6528 61.9613 24.6528C63.7286 24.6528 65.1424 23.5924 65.1424 21.1183V15.1096H63.7286V15.6398ZM61.9613 20.4114C60.901 20.4114 60.0173 19.5277 60.0173 18.2907C60.0173 17.0536 60.901 16.17 61.9613 16.17C63.0217 16.17 63.7286 17.0536 63.7286 18.2907C63.7286 19.5277 63.0217 20.4114 61.9613 20.4114ZM81.5778 11.5751H78.0433V21.6484H79.4571V17.7605H81.5778C83.1683 17.7605 84.9355 16.5234 84.9355 14.5794C84.9355 12.6355 83.1683 11.5751 81.5778 11.5751ZM81.5778 16.3467H79.4571V12.8122H81.5778C82.6381 12.8122 83.345 13.6958 83.345 14.5794C83.345 15.4631 82.6381 16.3467 81.5778 16.3467ZM90.9442 14.9329C89.8838 14.9329 88.6467 15.4631 88.2933 16.5234L89.7071 17.0536C90.0605 16.5234 90.5907 16.3467 91.1209 16.3467C91.8278 16.3467 92.7114 16.8769 92.7114 17.5838V17.7605C92.358 17.5838 91.8278 17.407 91.1209 17.407C89.7071 17.407 88.2933 18.1139 88.2933 19.7045C88.2933 21.1183 89.5304 22.0019 90.7674 22.0019C91.8278 22.0019 92.358 21.4717 92.7114 20.9415V21.6484H94.1252V17.7605C93.9485 15.9932 92.5347 14.9329 90.9442 14.9329ZM90.7674 20.4114C90.2373 20.4114 89.5304 20.2346 89.5304 19.5277C89.5304 18.8208 90.414 18.4674 91.1209 18.4674C91.8278 18.4674 92.0045 18.6441 92.5347 18.8208C92.358 19.7045 91.4743 20.4114 90.7674 20.4114ZM99.2502 15.1096L97.483 19.5277L95.7157 15.1096H94.1252L96.7761 21.1183L95.1856 24.476H96.7761L100.841 14.9329H99.2502V15.1096ZM85.6424 21.6484H87.0562V11.5751H85.6424V21.6484Z" fill="white"/>
<path d="M8.5097 6.8916C8.33298 7.06833 8.15625 7.5985 8.15625 7.95195V25.8011C8.15625 26.3313 8.33298 26.6848 8.5097 26.8615L18.4063 16.9649V16.7882L8.5097 6.8916Z" fill="#5BC8F3"/>
<path d="M21.764 20.3229L18.4062 16.9652V16.7884L21.764 13.4307L25.652 15.7281C26.7123 16.435 26.7123 17.4953 25.652 18.0255L21.764 20.3229Z" fill="url(#paint0_linear_1725_45531)"/>
<path d="M21.9428 20.3226L18.585 16.9648L8.51172 27.0382C8.86517 27.3916 9.57207 27.3916 10.1022 27.0382L21.9428 20.3226Z" fill="url(#paint1_linear_1725_45531)"/>
<path d="M21.9419 13.6066L10.278 6.89106C9.57112 6.53761 9.04095 6.53761 8.6875 6.89106L18.7608 16.9644L21.9419 13.6066Z" fill="url(#paint2_linear_1725_45531)"/>
<defs>
<linearGradient id="paint0_linear_1725_45531" x1="25.1223" y1="16.9715" x2="5.67448" y2="16.9715" gradientUnits="userSpaceOnUse">
<stop stop-color="#FFDF00"/>
<stop offset="0.4087" stop-color="#FBBC0E"/>
<stop offset="0.7754" stop-color="#F9A418"/>
<stop offset="1" stop-color="#F89B1C"/>
</linearGradient>
<linearGradient id="paint1_linear_1725_45531" x1="20.0773" y1="18.8157" x2="1.78558" y2="37.1072" gradientUnits="userSpaceOnUse">
<stop stop-color="#EE4447"/>
<stop offset="1" stop-color="#C5166C"/>
</linearGradient>
<linearGradient id="paint2_linear_1725_45531" x1="1.70316" y1="-3.24746" x2="16.638" y2="11.6874" gradientUnits="userSpaceOnUse">
<stop stop-color="#269E6F"/>
<stop offset="0.05089" stop-color="#2BA06F"/>
<stop offset="0.4663" stop-color="#53B26B"/>
<stop offset="0.7971" stop-color="#6BBD69"/>
<stop offset="1" stop-color="#74C168"/>
</linearGradient>
</defs>
</svg>
