<svg width="63" height="20" viewBox="0 0 63 20" fill="none" xmlns="http://www.w3.org/2000/svg">
<path d="M60.6139 19.1766H3.00962C1.69353 19.1766 0.681152 18.1643 0.681152 16.8482V3.07984C0.681152 1.76375 1.79477 0.751373 3.00962 0.751373H60.6139C61.93 0.751373 62.9423 1.76375 62.9423 3.07984V16.9494C62.9423 18.1643 61.93 19.1766 60.6139 19.1766Z" fill="white"/>
<path d="M60.6139 1.35042C61.7275 1.35042 62.5374 2.26156 62.5374 3.27393V17.1435C62.5374 18.2571 61.6262 19.067 60.6139 19.067H3.00962C1.896 19.067 1.0861 18.1559 1.0861 17.1435V3.27393C1.0861 2.16032 1.99724 1.35042 3.00962 1.35042H60.6139ZM60.6139 0.945465H3.00962C1.79477 0.945465 0.681152 1.95784 0.681152 3.27393V17.1435C0.681152 18.4596 1.69353 19.472 3.00962 19.472H60.6139C61.93 19.472 62.9423 18.4596 62.9423 17.1435V3.27393C62.9423 1.95784 61.93 0.945465 60.6139 0.945465Z" fill="#F5F6F8"/>
<path d="M31.9089 8.80012C30.7953 8.80012 29.9854 9.61003 29.9854 10.7236C29.9854 11.8373 30.8966 12.6472 31.9089 12.6472C33.0226 12.6472 33.8325 11.8373 33.8325 10.7236C33.8325 9.61003 32.9213 8.80012 31.9089 8.80012ZM31.9089 11.9385C31.3015 11.9385 30.7953 11.4323 30.7953 10.7236C30.7953 10.015 31.3015 9.50879 31.9089 9.50879C32.5164 9.50879 33.0226 10.015 33.0226 10.7236C33.0226 11.4323 32.4151 11.9385 31.9089 11.9385ZM27.5557 8.80012C26.4421 8.80012 25.6322 9.61003 25.6322 10.7236C25.6322 11.8373 26.5434 12.6472 27.5557 12.6472C28.6693 12.6472 29.4792 11.8373 29.4792 10.7236C29.5805 9.61003 28.6693 8.80012 27.5557 8.80012ZM27.5557 11.9385C26.9483 11.9385 26.4421 11.4323 26.4421 10.7236C26.4421 10.015 26.9483 9.50879 27.5557 9.50879C28.1632 9.50879 28.6693 10.015 28.6693 10.7236C28.6693 11.4323 28.1632 11.9385 27.5557 11.9385ZM22.4938 9.40755V10.2175H24.5186C24.4174 10.7236 24.3161 11.0274 24.1136 11.2298C23.7087 11.5335 23.3037 11.9385 22.4938 11.9385C21.279 11.9385 20.2666 10.9261 20.2666 9.71126C20.2666 8.49641 21.1778 7.48404 22.4938 7.48404C23.2025 7.48404 23.6075 7.78775 24.0124 8.09146L24.6198 7.48404C24.1136 6.97785 23.5062 6.67413 22.4938 6.67413C20.7728 6.67413 19.3555 7.99022 19.3555 9.71126C19.3555 11.4323 20.7728 12.7484 22.4938 12.7484C23.405 12.7484 24.1136 12.4447 24.6198 11.9385C25.126 11.4323 25.3285 10.6224 25.3285 10.015C25.3285 9.8125 25.3285 9.61003 25.3285 9.50879H22.4938V9.40755ZM43.3488 10.015C43.1463 9.61003 42.6401 8.80012 41.6278 8.80012C40.6154 8.80012 39.8055 9.61003 39.8055 10.7236C39.8055 11.8373 40.6154 12.6472 41.729 12.6472C42.6402 12.6472 43.1463 12.141 43.3488 11.736L42.6401 11.3311C42.4377 11.6348 42.134 11.8373 41.6278 11.8373C41.2228 11.8373 40.9191 11.6348 40.7166 11.2298L43.3488 10.1162V10.015ZM40.7166 10.7236C40.7166 10.015 41.3241 9.61003 41.729 9.61003C42.0327 9.61003 42.3364 9.8125 42.4377 10.015L40.7166 10.7236ZM38.5906 12.6472H39.5018V6.87661H38.5906V12.6472ZM37.1733 9.20508C36.9708 9.0026 36.5659 8.80012 36.1609 8.80012C35.1486 8.80012 34.2374 9.71126 34.2374 10.7236C34.2374 11.8373 35.1486 12.6472 36.1609 12.6472C36.6671 12.6472 36.9708 12.4447 37.1733 12.2422V12.5459C37.1733 13.2546 36.7684 13.6595 36.1609 13.6595C35.6547 13.6595 35.351 13.2546 35.1486 12.9509L34.4399 13.2546C34.6424 13.7608 35.2498 14.3682 36.1609 14.3682C37.1733 14.3682 37.9832 13.7608 37.9832 12.3434V8.90136H37.1733V9.20508ZM36.1609 11.9385C35.5535 11.9385 35.0473 11.4323 35.0473 10.7236C35.0473 10.015 35.5535 9.50879 36.1609 9.50879C36.7684 9.50879 37.1733 10.015 37.1733 10.7236C37.1733 11.4323 36.7684 11.9385 36.1609 11.9385ZM47.3983 6.87661H45.3736V12.6472H46.1835V10.4199H47.3983C48.3095 10.4199 49.3218 9.71126 49.3218 8.59765C49.3218 7.48403 48.3095 6.87661 47.3983 6.87661ZM47.3983 9.61003H46.1835V7.58527H47.3983C48.0057 7.58527 48.4107 8.09146 48.4107 8.59765C48.4107 9.10384 48.0057 9.61003 47.3983 9.61003ZM52.7639 8.80012C52.1565 8.80012 51.4478 9.10384 51.2453 9.71126L52.0553 10.015C52.2577 9.71127 52.5614 9.61003 52.8652 9.61003C53.2701 9.61003 53.7763 9.91374 53.7763 10.3187V10.4199C53.5738 10.3187 53.2701 10.2175 52.8652 10.2175C52.0553 10.2175 51.2453 10.6224 51.2453 11.5335C51.2453 12.3434 51.954 12.8496 52.6627 12.8496C53.2701 12.8496 53.5738 12.5459 53.7763 12.2422V12.6472H54.5862V10.4199C54.485 9.40755 53.6751 8.80012 52.7639 8.80012ZM52.6627 11.9385C52.359 11.9385 51.954 11.8373 51.954 11.4323C51.954 11.0274 52.4602 10.8249 52.8652 10.8249C53.2701 10.8249 53.3713 10.9261 53.6751 11.0274C53.5738 11.5335 53.0676 11.9385 52.6627 11.9385ZM57.5221 8.90136L56.5097 11.4323L55.4973 8.90136H54.5862L56.1048 12.3434L55.1936 14.267H56.1048L58.4332 8.80012H57.5221V8.90136ZM49.7268 12.6472H50.5367V6.87661H49.7268V12.6472Z" fill="#201818"/>
<path d="M5.54018 4.19342C5.43895 4.29466 5.33771 4.59837 5.33771 4.80085V15.0259C5.33771 15.3296 5.43895 15.532 5.54018 15.6333L11.2095 9.96397V9.86273L5.54018 4.19342Z" fill="#5BC8F3"/>
<path d="M13.1338 11.8875L11.2103 9.96402V9.86279L13.1338 7.93927L15.361 9.25536C15.9684 9.66031 15.9684 10.2677 15.361 10.5715L13.1338 11.8875Z" fill="url(#paint0_linear_1093_10359)"/>
<path d="M13.2348 11.8876L11.3113 9.96405L5.54077 15.7346C5.74325 15.9371 6.1482 15.9371 6.45191 15.7346L13.2348 11.8876Z" fill="url(#paint1_linear_1093_10359)"/>
<path d="M13.2342 8.04024L6.55249 4.19321C6.14754 3.99073 5.84383 3.99073 5.64136 4.19321L11.4119 9.96376L13.2342 8.04024Z" fill="url(#paint2_linear_1093_10359)"/>
<defs>
<linearGradient id="paint0_linear_1093_10359" x1="15.0576" y1="9.96767" x2="3.9168" y2="9.96767" gradientUnits="userSpaceOnUse">
<stop stop-color="#FFDF00"/>
<stop offset="0.4087" stop-color="#FBBC0E"/>
<stop offset="0.7754" stop-color="#F9A418"/>
<stop offset="1" stop-color="#F89B1C"/>
</linearGradient>
<linearGradient id="paint1_linear_1093_10359" x1="12.1662" y1="11.0243" x2="1.68767" y2="21.5027" gradientUnits="userSpaceOnUse">
<stop stop-color="#EE4447"/>
<stop offset="1" stop-color="#C5166C"/>
</linearGradient>
<linearGradient id="paint2_linear_1093_10359" x1="1.64034" y1="-1.6147" x2="10.1958" y2="6.9408" gradientUnits="userSpaceOnUse">
<stop stop-color="#269E6F"/>
<stop offset="0.05089" stop-color="#2BA06F"/>
<stop offset="0.4663" stop-color="#53B26B"/>
<stop offset="0.7971" stop-color="#6BBD69"/>
<stop offset="1" stop-color="#74C168"/>
</linearGradient>
</defs>
</svg>
