<svg width="16" height="17" viewBox="0 0 16 17" fill="none" xmlns="http://www.w3.org/2000/svg">
<g clip-path="url(#clip0_1093_10316)">
<path d="M15.7243 13.8214H0.276058C0.123714 13.8214 0.000183105 13.6979 0.000183105 13.5456V3.61456C0.000183105 3.46221 0.123714 3.33868 0.276058 3.33868H15.7243C15.8767 3.33868 16.0002 3.46221 16.0002 3.61456V13.5456C16.0002 13.6979 15.8766 13.8214 15.7243 13.8214Z" fill="#FF4B55"/>
<path d="M8.12887 5.45412L8.86665 7.66631L11.1985 7.68437C11.3289 7.68537 11.383 7.85178 11.2781 7.92924L9.40221 9.31452L10.1056 11.5379C10.145 11.6622 10.0034 11.7651 9.8973 11.6892L8.00015 10.3332L6.10297 11.6892C5.9969 11.765 5.85534 11.6622 5.89465 11.5379L6.59806 9.31452L4.72216 7.92924C4.61725 7.85181 4.67134 7.68537 4.80172 7.68437L7.13362 7.66631L7.8714 5.45412C7.91268 5.33044 8.08762 5.33044 8.12887 5.45412Z" fill="#FFE15A"/>
</g>
<defs>
<clipPath id="clip0_1093_10316">
<rect width="16" height="16" fill="white" transform="translate(0 0.580078)"/>
</clipPath>
</defs>
</svg>
