<svg width="16" height="17" viewBox="0 0 16 17" fill="none" xmlns="http://www.w3.org/2000/svg">
<g clip-path="url(#clip0_1093_10316)">
<path d="M15.7241 13.8214H0.275874C0.123531 13.8214 0 13.6979 0 13.5456V3.61456C0 3.46221 0.123531 3.33868 0.275874 3.33868H15.7241C15.8765 3.33868 16 3.46221 16 3.61456V13.5456C16 13.6979 15.8764 13.8214 15.7241 13.8214Z" fill="#F5F5F5"/>
<path d="M16 4.14509H0V3.61456C0 3.46221 0.123531 3.33868 0.275874 3.33868H15.7241C15.8765 3.33868 16 3.46221 16 3.61456L16 4.14509Z" fill="#FF4B55"/>
<path d="M16 6.56412H0V7.37049H16V6.56412Z" fill="#FF4B55"/>
<path d="M16 4.95129H0V5.75767H16V4.95129Z" fill="#FF4B55"/>
<path d="M16 8.98325H0.275874C0.123531 8.98325 0 8.85972 0 8.70738V8.17685H16V8.98325Z" fill="#FF4B55"/>
<path d="M16 11.4026H0V12.2089H16V11.4026Z" fill="#FF4B55"/>
<path d="M15.7241 13.8214H0.275874C0.123531 13.8214 0 13.6979 0 13.5455V13.015H16V13.5456C16 13.6979 15.8764 13.8214 15.7241 13.8214Z" fill="#FF4B55"/>
<path d="M16 9.78973H0V10.5961H16V9.78973Z" fill="#FF4B55"/>
<path d="M7.17239 3.33875H0.275874C0.123531 3.33875 0 3.46224 0 3.61459V8.70739C0 8.85973 0.123531 8.98326 0.275874 8.98326H7.17242C7.32477 8.98326 7.4483 8.85973 7.4483 8.70739V3.61459C7.44827 3.46224 7.32474 3.33875 7.17239 3.33875Z" fill="#41479B"/>
<path d="M0.774878 3.97189L0.835941 4.15501L1.02897 4.15648C1.05397 4.1567 1.06432 4.18857 1.04422 4.20342L0.88894 4.3181L0.94719 4.50214C0.954753 4.52595 0.927597 4.5457 0.907253 4.53114L0.750222 4.41892L0.593191 4.53117C0.572847 4.5457 0.545754 4.52598 0.553254 4.50217L0.611504 4.31814L0.456223 4.20345C0.436129 4.18857 0.446473 4.15673 0.471473 4.15651L0.664503 4.15504L0.725566 3.97192C0.733441 3.94817 0.766941 3.94817 0.774878 3.97189Z" fill="#F5F5F5"/>
<path d="M0.774756 4.92981L0.835819 5.11293L1.02885 5.1144C1.05385 5.11462 1.06419 5.1465 1.0441 5.16134L0.888818 5.27603L0.947068 5.46006C0.954631 5.48387 0.927475 5.50362 0.907131 5.48906L0.7501 5.37684L0.593069 5.48909C0.572725 5.50362 0.545632 5.4839 0.553132 5.46009L0.611382 5.27606L0.456101 5.16137C0.436007 5.1465 0.446351 5.11465 0.471351 5.11444L0.664381 5.11297L0.725444 4.92984C0.733319 4.90612 0.766819 4.90612 0.774756 4.92981Z" fill="#F5F5F5"/>
<path d="M0.774756 5.88776L0.835819 6.07088L1.02885 6.07235C1.05385 6.07257 1.06419 6.10444 1.0441 6.11929L0.888818 6.23397L0.947068 6.41801C0.954631 6.44182 0.927475 6.46157 0.907131 6.44701L0.7501 6.33479L0.593069 6.44704C0.572725 6.46157 0.545632 6.44185 0.553132 6.41804L0.611382 6.23401L0.456101 6.11932C0.436007 6.10444 0.446351 6.0726 0.471351 6.07238L0.664381 6.07091L0.725444 5.88779C0.733319 5.86407 0.766819 5.86407 0.774756 5.88776Z" fill="#F5F5F5"/>
<path d="M0.774756 6.84573L0.835819 7.02885L1.02885 7.03032C1.05385 7.03054 1.06419 7.06241 1.0441 7.07726L0.888818 7.19195L0.947068 7.37598C0.954631 7.39979 0.927475 7.41954 0.907131 7.40498L0.7501 7.29276L0.593069 7.40501C0.572725 7.41954 0.545632 7.39982 0.553132 7.37601L0.611382 7.19198L0.456101 7.07729C0.436007 7.06241 0.446351 7.03057 0.471351 7.03035L0.664381 7.02888L0.725444 6.84576C0.733319 6.82201 0.766819 6.82201 0.774756 6.84573Z" fill="#F5F5F5"/>
<path d="M0.774756 7.80367L0.835819 7.98679L1.02885 7.98826C1.05385 7.98848 1.06419 8.02035 1.0441 8.0352L0.888818 8.14988L0.947068 8.33392C0.954631 8.35773 0.927475 8.37748 0.907131 8.36291L0.7501 8.2507L0.593069 8.36295C0.572725 8.37748 0.545632 8.35776 0.553132 8.33395L0.611382 8.14992L0.456101 8.03523C0.436007 8.02035 0.446351 7.98851 0.471351 7.98829L0.664381 7.98682L0.725444 7.8037C0.733319 7.77992 0.766819 7.77992 0.774756 7.80367Z" fill="#F5F5F5"/>
<path d="M1.51829 4.44153L1.57935 4.62466L1.77238 4.62613C1.79738 4.62634 1.80772 4.65822 1.78763 4.67306L1.63235 4.78775L1.6906 4.97178C1.69816 4.99559 1.671 5.01534 1.65066 5.00078L1.49363 4.88853L1.3366 5.00078C1.31626 5.01531 1.28916 4.99559 1.29666 4.97178L1.35491 4.78775L1.19963 4.67306C1.17954 4.65819 1.18988 4.62634 1.21488 4.62613L1.40791 4.62466L1.46897 4.44153C1.47682 4.41785 1.51038 4.41785 1.51829 4.44153Z" fill="#F5F5F5"/>
<path d="M1.51829 5.3995L1.57935 5.58263L1.77238 5.5841C1.79738 5.58431 1.80772 5.61619 1.78763 5.63103L1.63235 5.74572L1.6906 5.92975C1.69816 5.95356 1.671 5.97331 1.65066 5.95875L1.49363 5.8465L1.3366 5.95875C1.31626 5.97328 1.28916 5.95359 1.29666 5.92975L1.35491 5.74572L1.19963 5.63103C1.17954 5.61616 1.18988 5.58431 1.21488 5.5841L1.40791 5.58263L1.46897 5.3995C1.47682 5.37578 1.51038 5.37578 1.51829 5.3995Z" fill="#F5F5F5"/>
<path d="M1.51829 6.35745L1.57935 6.54057L1.77238 6.54204C1.79738 6.54226 1.80772 6.57414 1.78763 6.58898L1.63235 6.70367L1.6906 6.8877C1.69816 6.91151 1.671 6.93126 1.65066 6.9167L1.49363 6.80445L1.3366 6.9167C1.31626 6.93123 1.28916 6.91151 1.29666 6.8877L1.35491 6.70367L1.19963 6.58898C1.17954 6.57411 1.18988 6.54226 1.21488 6.54204L1.40791 6.54057L1.46897 6.35745C1.47682 6.33373 1.51038 6.33373 1.51829 6.35745Z" fill="#F5F5F5"/>
<path d="M1.51829 7.31537L1.57935 7.4985L1.77238 7.49997C1.79738 7.50019 1.80772 7.53206 1.78763 7.5469L1.63235 7.66159L1.6906 7.84562C1.69816 7.86943 1.671 7.88918 1.65066 7.87462L1.49363 7.76237L1.3366 7.87462C1.31626 7.88915 1.28916 7.86943 1.29666 7.84562L1.35491 7.66159L1.19963 7.5469C1.17954 7.53203 1.18988 7.50019 1.21488 7.49997L1.40791 7.4985L1.46897 7.31537C1.47682 7.29169 1.51038 7.29169 1.51829 7.31537Z" fill="#F5F5F5"/>
<path d="M2.26182 3.97189L2.32288 4.15502L2.51591 4.15648C2.54091 4.1567 2.55125 4.18858 2.53116 4.20342L2.37588 4.31811L2.43413 4.50214C2.44169 4.52595 2.41454 4.5457 2.39419 4.53114L2.23716 4.41889L2.08013 4.53114C2.05979 4.54567 2.03269 4.52595 2.04019 4.50214L2.09844 4.31811L1.94316 4.20342C1.92307 4.18855 1.93341 4.1567 1.95841 4.15648L2.15144 4.15502L2.2125 3.97189C2.22038 3.94817 2.25391 3.94817 2.26182 3.97189Z" fill="#F5F5F5"/>
<path d="M2.26182 4.92981L2.32288 5.11294L2.51591 5.11441C2.54091 5.11463 2.55125 5.1465 2.53116 5.16134L2.37588 5.27603L2.43413 5.46006C2.44169 5.48388 2.41454 5.50362 2.39419 5.48906L2.23716 5.37681L2.08013 5.48906C2.05979 5.50359 2.03269 5.48388 2.04019 5.46006L2.09844 5.27603L1.94316 5.16134C1.92307 5.14647 1.93341 5.11463 1.95841 5.11441L2.15144 5.11294L2.2125 4.92981C2.22038 4.90613 2.25391 4.90613 2.26182 4.92981Z" fill="#F5F5F5"/>
<path d="M2.26182 5.88776L2.32288 6.07089L2.51591 6.07235C2.54091 6.07257 2.55125 6.10445 2.53116 6.11929L2.37588 6.23398L2.43413 6.41801C2.44169 6.44182 2.41454 6.46157 2.39419 6.44701L2.23716 6.33476L2.08013 6.44701C2.05979 6.46154 2.03269 6.44182 2.04019 6.41801L2.09844 6.23398L1.94316 6.11929C1.92307 6.10442 1.93341 6.07257 1.95841 6.07235L2.15144 6.07089L2.2125 5.88776C2.22038 5.86407 2.25391 5.86407 2.26182 5.88776Z" fill="#F5F5F5"/>
<path d="M2.26182 6.84573L2.32288 7.02886L2.51591 7.03032C2.54091 7.03054 2.55125 7.06242 2.53116 7.07726L2.37588 7.19195L2.43413 7.37598C2.44169 7.39979 2.41454 7.41954 2.39419 7.40498L2.23716 7.29273L2.08013 7.40498C2.05979 7.41951 2.03269 7.39979 2.04019 7.37598L2.09844 7.19195L1.94316 7.07726C1.92307 7.06239 1.93341 7.03054 1.95841 7.03032L2.15144 7.02886L2.2125 6.84573C2.22038 6.82201 2.25391 6.82201 2.26182 6.84573Z" fill="#F5F5F5"/>
<path d="M2.26182 7.80367L2.32288 7.9868L2.51591 7.98826C2.54091 7.98848 2.55125 8.02036 2.53116 8.0352L2.37588 8.14989L2.43413 8.33392C2.44169 8.35773 2.41454 8.37748 2.39419 8.36292L2.23716 8.25067L2.08013 8.36292C2.05979 8.37745 2.03269 8.35773 2.04019 8.33392L2.09844 8.14989L1.94316 8.0352C1.92307 8.02033 1.93341 7.98848 1.95841 7.98826L2.15144 7.9868L2.2125 7.80367C2.22038 7.77992 2.25391 7.77992 2.26182 7.80367Z" fill="#F5F5F5"/>
<path d="M3.00541 4.44153L3.06647 4.62466L3.2595 4.62613C3.2845 4.62634 3.29484 4.65822 3.27475 4.67306L3.11947 4.78775L3.17772 4.97178C3.18528 4.99559 3.15813 5.01534 3.13778 5.00078L2.98075 4.88853L2.82372 5.00078C2.80338 5.01531 2.77628 4.99559 2.78378 4.97178L2.84203 4.78775L2.68675 4.67306C2.66666 4.65819 2.677 4.62634 2.702 4.62613L2.89503 4.62466L2.9561 4.44153C2.96394 4.41785 2.9975 4.41785 3.00541 4.44153Z" fill="#F5F5F5"/>
<path d="M3.00541 5.3995L3.06647 5.58263L3.2595 5.5841C3.2845 5.58431 3.29484 5.61619 3.27475 5.63103L3.11947 5.74572L3.17772 5.92975C3.18528 5.95356 3.15813 5.97331 3.13778 5.95875L2.98075 5.8465L2.82372 5.95875C2.80338 5.97328 2.77628 5.95359 2.78378 5.92975L2.84203 5.74572L2.68675 5.63103C2.66666 5.61616 2.677 5.58431 2.702 5.5841L2.89503 5.58263L2.9561 5.3995C2.96394 5.37578 2.9975 5.37578 3.00541 5.3995Z" fill="#F5F5F5"/>
<path d="M3.00541 6.35745L3.06647 6.54057L3.2595 6.54204C3.2845 6.54226 3.29484 6.57414 3.27475 6.58898L3.11947 6.70367L3.17772 6.8877C3.18528 6.91151 3.15813 6.93126 3.13778 6.9167L2.98075 6.80445L2.82372 6.9167C2.80338 6.93123 2.77628 6.91151 2.78378 6.8877L2.84203 6.70367L2.68675 6.58898C2.66666 6.57411 2.677 6.54226 2.702 6.54204L2.89503 6.54057L2.9561 6.35745C2.96394 6.33373 2.9975 6.33373 3.00541 6.35745Z" fill="#F5F5F5"/>
<path d="M3.00541 7.31537L3.06647 7.4985L3.2595 7.49997C3.2845 7.50019 3.29484 7.53206 3.27475 7.5469L3.11947 7.66159L3.17772 7.84562C3.18528 7.86943 3.15813 7.88918 3.13778 7.87462L2.98075 7.76237L2.82372 7.87462C2.80338 7.88915 2.77628 7.86943 2.78378 7.84562L2.84203 7.66159L2.68675 7.5469C2.66666 7.53203 2.677 7.50019 2.702 7.49997L2.89503 7.4985L2.9561 7.31537C2.96394 7.29169 2.9975 7.29169 3.00541 7.31537Z" fill="#F5F5F5"/>
<path d="M3.74891 3.97189L3.80997 4.15502L4.003 4.15648C4.028 4.1567 4.03834 4.18858 4.01825 4.20342L3.86297 4.31811L3.92122 4.50214C3.92878 4.52595 3.90163 4.5457 3.88128 4.53114L3.72422 4.41889L3.56719 4.53114C3.54685 4.54567 3.51975 4.52595 3.52725 4.50214L3.5855 4.31811L3.43022 4.20342C3.41013 4.18855 3.42047 4.1567 3.44547 4.15648L3.6385 4.15502L3.69956 3.97189C3.70747 3.94817 3.741 3.94817 3.74891 3.97189Z" fill="#F5F5F5"/>
<path d="M3.74891 4.92981L3.80997 5.11294L4.003 5.11441C4.028 5.11463 4.03834 5.1465 4.01825 5.16134L3.86297 5.27603L3.92122 5.46006C3.92878 5.48388 3.90163 5.50362 3.88128 5.48906L3.72422 5.37681L3.56719 5.48906C3.54685 5.50359 3.51975 5.48388 3.52725 5.46006L3.5855 5.27603L3.43022 5.16134C3.41013 5.14647 3.42047 5.11463 3.44547 5.11441L3.6385 5.11294L3.69956 4.92981C3.70747 4.90613 3.741 4.90613 3.74891 4.92981Z" fill="#F5F5F5"/>
<path d="M3.74891 5.88776L3.80997 6.07089L4.003 6.07235C4.028 6.07257 4.03834 6.10445 4.01825 6.11929L3.86297 6.23398L3.92122 6.41801C3.92878 6.44182 3.90163 6.46157 3.88128 6.44701L3.72422 6.33476L3.56719 6.44701C3.54685 6.46154 3.51975 6.44182 3.52725 6.41801L3.5855 6.23398L3.43022 6.11929C3.41013 6.10442 3.42047 6.07257 3.44547 6.07235L3.6385 6.07089L3.69956 5.88776C3.70747 5.86407 3.741 5.86407 3.74891 5.88776Z" fill="#F5F5F5"/>
<path d="M3.74891 6.84573L3.80997 7.02886L4.003 7.03032C4.028 7.03054 4.03834 7.06242 4.01825 7.07726L3.86297 7.19195L3.92122 7.37598C3.92878 7.39979 3.90163 7.41954 3.88128 7.40498L3.72422 7.29273L3.56719 7.40498C3.54685 7.41951 3.51975 7.39979 3.52725 7.37598L3.5855 7.19195L3.43022 7.07726C3.41013 7.06239 3.42047 7.03054 3.44547 7.03032L3.6385 7.02886L3.69956 6.84573C3.70747 6.82201 3.741 6.82201 3.74891 6.84573Z" fill="#F5F5F5"/>
<path d="M3.74891 7.80367L3.80997 7.9868L4.003 7.98826C4.028 7.98848 4.03834 8.02036 4.01825 8.0352L3.86297 8.14989L3.92122 8.33392C3.92878 8.35773 3.90163 8.37748 3.88128 8.36292L3.72422 8.25067L3.56719 8.36292C3.54685 8.37745 3.51975 8.35773 3.52725 8.33392L3.5855 8.14989L3.43022 8.0352C3.41013 8.02033 3.42047 7.98848 3.44547 7.98826L3.6385 7.9868L3.69956 7.80367C3.70747 7.77992 3.741 7.77992 3.74891 7.80367Z" fill="#F5F5F5"/>
<path d="M4.49247 4.44153L4.55353 4.62466L4.74656 4.62613C4.77156 4.62634 4.78191 4.65822 4.76181 4.67306L4.60653 4.78775L4.66478 4.97178C4.67234 4.99559 4.64519 5.01534 4.62484 5.00078L4.46781 4.88853L4.31078 5.00078C4.29044 5.01531 4.26334 4.99559 4.27084 4.97178L4.32909 4.78775L4.17381 4.67306C4.15372 4.65819 4.16406 4.62634 4.18906 4.62613L4.38209 4.62466L4.44316 4.44153C4.45106 4.41785 4.48456 4.41785 4.49247 4.44153Z" fill="#F5F5F5"/>
<path d="M4.49247 5.3995L4.55353 5.58263L4.74656 5.5841C4.77156 5.58431 4.78191 5.61619 4.76181 5.63103L4.60653 5.74572L4.66478 5.92975C4.67234 5.95356 4.64519 5.97331 4.62484 5.95875L4.46781 5.8465L4.31078 5.95875C4.29044 5.97328 4.26334 5.95359 4.27084 5.92975L4.32909 5.74572L4.17381 5.63103C4.15372 5.61616 4.16406 5.58431 4.18906 5.5841L4.38209 5.58263L4.44316 5.3995C4.45106 5.37578 4.48456 5.37578 4.49247 5.3995Z" fill="#F5F5F5"/>
<path d="M4.49247 6.35745L4.55353 6.54057L4.74656 6.54204C4.77156 6.54226 4.78191 6.57414 4.76181 6.58898L4.60653 6.70367L4.66478 6.8877C4.67234 6.91151 4.64519 6.93126 4.62484 6.9167L4.46781 6.80445L4.31078 6.9167C4.29044 6.93123 4.26334 6.91151 4.27084 6.8877L4.32909 6.70367L4.17381 6.58898C4.15372 6.57411 4.16406 6.54226 4.18906 6.54204L4.38209 6.54057L4.44316 6.35745C4.45106 6.33373 4.48456 6.33373 4.49247 6.35745Z" fill="#F5F5F5"/>
<path d="M4.49247 7.31537L4.55353 7.4985L4.74656 7.49997C4.77156 7.50019 4.78191 7.53206 4.76181 7.5469L4.60653 7.66159L4.66478 7.84562C4.67234 7.86943 4.64519 7.88918 4.62484 7.87462L4.46781 7.76237L4.31078 7.87462C4.29044 7.88915 4.26334 7.86943 4.27084 7.84562L4.32909 7.66159L4.17381 7.5469C4.15372 7.53203 4.16406 7.50019 4.18906 7.49997L4.38209 7.4985L4.44316 7.31537C4.45106 7.29169 4.48456 7.29169 4.49247 7.31537Z" fill="#F5F5F5"/>
<path d="M5.236 3.97189L5.29706 4.15502L5.49009 4.15648C5.51509 4.1567 5.52544 4.18858 5.50534 4.20342L5.35006 4.31811L5.40831 4.50214C5.41587 4.52595 5.38872 4.5457 5.36837 4.53114L5.21134 4.41889L5.05431 4.53114C5.03397 4.54567 5.00687 4.52595 5.01437 4.50214L5.07262 4.31811L4.91734 4.20342C4.89725 4.18855 4.90759 4.1567 4.93259 4.15648L5.12562 4.15502L5.18669 3.97189C5.19453 3.94817 5.22809 3.94817 5.236 3.97189Z" fill="#F5F5F5"/>
<path d="M5.236 4.92981L5.29706 5.11294L5.49009 5.11441C5.51509 5.11463 5.52544 5.1465 5.50534 5.16134L5.35006 5.27603L5.40831 5.46006C5.41587 5.48388 5.38872 5.50362 5.36837 5.48906L5.21134 5.37681L5.05431 5.48906C5.03397 5.50359 5.00687 5.48388 5.01437 5.46006L5.07262 5.27603L4.91734 5.16134C4.89725 5.14647 4.90759 5.11463 4.93259 5.11441L5.12562 5.11294L5.18669 4.92981C5.19453 4.90613 5.22809 4.90613 5.236 4.92981Z" fill="#F5F5F5"/>
<path d="M5.236 5.88776L5.29706 6.07089L5.49009 6.07235C5.51509 6.07257 5.52544 6.10445 5.50534 6.11929L5.35006 6.23398L5.40831 6.41801C5.41587 6.44182 5.38872 6.46157 5.36837 6.44701L5.21134 6.33476L5.05431 6.44701C5.03397 6.46154 5.00687 6.44182 5.01437 6.41801L5.07262 6.23398L4.91734 6.11929C4.89725 6.10442 4.90759 6.07257 4.93259 6.07235L5.12562 6.07089L5.18669 5.88776C5.19453 5.86407 5.22809 5.86407 5.236 5.88776Z" fill="#F5F5F5"/>
<path d="M5.236 6.84573L5.29706 7.02886L5.49009 7.03032C5.51509 7.03054 5.52544 7.06242 5.50534 7.07726L5.35006 7.19195L5.40831 7.37598C5.41587 7.39979 5.38872 7.41954 5.36837 7.40498L5.21134 7.29273L5.05431 7.40498C5.03397 7.41951 5.00687 7.39979 5.01437 7.37598L5.07262 7.19195L4.91734 7.07726C4.89725 7.06239 4.90759 7.03054 4.93259 7.03032L5.12562 7.02886L5.18669 6.84573C5.19453 6.82201 5.22809 6.82201 5.236 6.84573Z" fill="#F5F5F5"/>
<path d="M5.236 7.80367L5.29706 7.9868L5.49009 7.98826C5.51509 7.98848 5.52544 8.02036 5.50534 8.0352L5.35006 8.14989L5.40831 8.33392C5.41587 8.35773 5.38872 8.37748 5.36837 8.36292L5.21134 8.25067L5.05431 8.36292C5.03397 8.37745 5.00687 8.35773 5.01437 8.33392L5.07262 8.14989L4.91734 8.0352C4.89725 8.02033 4.90759 7.98848 4.93259 7.98826L5.12562 7.9868L5.18669 7.80367C5.19453 7.77992 5.22809 7.77992 5.236 7.80367Z" fill="#F5F5F5"/>
<path d="M5.97953 4.44153L6.04059 4.62466L6.23362 4.62613C6.25862 4.62634 6.26897 4.65822 6.24887 4.67306L6.09359 4.78775L6.15184 4.97178C6.1594 4.99559 6.13225 5.01534 6.1119 5.00078L5.95487 4.88853L5.79784 5.00078C5.7775 5.01531 5.7504 4.99559 5.7579 4.97178L5.81615 4.78775L5.66087 4.67306C5.64078 4.65819 5.65112 4.62634 5.67612 4.62613L5.86915 4.62466L5.93022 4.44153C5.93809 4.41785 5.97165 4.41785 5.97953 4.44153Z" fill="#F5F5F5"/>
<path d="M5.97953 5.3995L6.04059 5.58263L6.23362 5.5841C6.25862 5.58431 6.26897 5.61619 6.24887 5.63103L6.09359 5.74572L6.15184 5.92975C6.1594 5.95356 6.13225 5.97331 6.1119 5.95875L5.95487 5.8465L5.79784 5.95875C5.7775 5.97328 5.7504 5.95359 5.7579 5.92975L5.81615 5.74572L5.66087 5.63103C5.64078 5.61616 5.65112 5.58431 5.67612 5.5841L5.86915 5.58263L5.93022 5.3995C5.93809 5.37578 5.97165 5.37578 5.97953 5.3995Z" fill="#F5F5F5"/>
<path d="M5.97953 6.35745L6.04059 6.54057L6.23362 6.54204C6.25862 6.54226 6.26897 6.57414 6.24887 6.58898L6.09359 6.70367L6.15184 6.8877C6.1594 6.91151 6.13225 6.93126 6.1119 6.9167L5.95487 6.80445L5.79784 6.9167C5.7775 6.93123 5.7504 6.91151 5.7579 6.8877L5.81615 6.70367L5.66087 6.58898C5.64078 6.57411 5.65112 6.54226 5.67612 6.54204L5.86915 6.54057L5.93022 6.35745C5.93809 6.33373 5.97165 6.33373 5.97953 6.35745Z" fill="#F5F5F5"/>
<path d="M5.97953 7.31537L6.04059 7.4985L6.23362 7.49997C6.25862 7.50019 6.26897 7.53206 6.24887 7.5469L6.09359 7.66159L6.15184 7.84562C6.1594 7.86943 6.13225 7.88918 6.1119 7.87462L5.95487 7.76237L5.79784 7.87462C5.7775 7.88915 5.7504 7.86943 5.7579 7.84562L5.81615 7.66159L5.66087 7.5469C5.64078 7.53203 5.65112 7.50019 5.67612 7.49997L5.86915 7.4985L5.93022 7.31537C5.93809 7.29169 5.97165 7.29169 5.97953 7.31537Z" fill="#F5F5F5"/>
<path d="M6.72306 3.97189L6.78412 4.15502L6.97715 4.15648C7.00215 4.1567 7.0125 4.18858 6.9924 4.20342L6.83712 4.31811L6.89537 4.50214C6.90293 4.52595 6.87578 4.5457 6.85543 4.53114L6.6984 4.41889L6.54137 4.53114C6.52103 4.54567 6.49394 4.52595 6.50144 4.50214L6.55968 4.31811L6.4044 4.20342C6.38431 4.18855 6.39465 4.1567 6.41965 4.15648L6.61268 4.15502L6.67375 3.97189C6.68162 3.94817 6.71512 3.94817 6.72306 3.97189Z" fill="#F5F5F5"/>
<path d="M6.72306 4.92981L6.78412 5.11294L6.97715 5.11441C7.00215 5.11463 7.0125 5.1465 6.9924 5.16134L6.83712 5.27603L6.89537 5.46006C6.90293 5.48388 6.87578 5.50362 6.85543 5.48906L6.6984 5.37681L6.54137 5.48906C6.52103 5.50359 6.49394 5.48388 6.50144 5.46006L6.55968 5.27603L6.4044 5.16134C6.38431 5.14647 6.39465 5.11463 6.41965 5.11441L6.61268 5.11294L6.67375 4.92981C6.68162 4.90613 6.71512 4.90613 6.72306 4.92981Z" fill="#F5F5F5"/>
<path d="M6.72306 5.88776L6.78412 6.07089L6.97715 6.07235C7.00215 6.07257 7.0125 6.10445 6.9924 6.11929L6.83712 6.23398L6.89537 6.41801C6.90293 6.44182 6.87578 6.46157 6.85543 6.44701L6.6984 6.33476L6.54137 6.44701C6.52103 6.46154 6.49394 6.44182 6.50144 6.41801L6.55968 6.23398L6.4044 6.11929C6.38431 6.10442 6.39465 6.07257 6.41965 6.07235L6.61268 6.07089L6.67375 5.88776C6.68162 5.86407 6.71512 5.86407 6.72306 5.88776Z" fill="#F5F5F5"/>
<path d="M6.72306 6.84573L6.78412 7.02886L6.97715 7.03032C7.00215 7.03054 7.0125 7.06242 6.9924 7.07726L6.83712 7.19195L6.89537 7.37598C6.90293 7.39979 6.87578 7.41954 6.85543 7.40498L6.6984 7.29273L6.54137 7.40498C6.52103 7.41951 6.49394 7.39979 6.50144 7.37598L6.55968 7.19195L6.4044 7.07726C6.38431 7.06239 6.39465 7.03054 6.41965 7.03032L6.61268 7.02886L6.67375 6.84573C6.68162 6.82201 6.71512 6.82201 6.72306 6.84573Z" fill="#F5F5F5"/>
<path d="M6.72306 7.80367L6.78412 7.9868L6.97715 7.98826C7.00215 7.98848 7.0125 8.02036 6.9924 8.0352L6.83712 8.14989L6.89537 8.33392C6.90293 8.35773 6.87578 8.37748 6.85543 8.36292L6.6984 8.25067L6.54137 8.36292C6.52103 8.37745 6.49394 8.35773 6.50144 8.33392L6.55968 8.14989L6.4044 8.0352C6.38431 8.02033 6.39465 7.98848 6.41965 7.98826L6.61268 7.9868L6.67375 7.80367C6.68162 7.77992 6.71512 7.77992 6.72306 7.80367Z" fill="#F5F5F5"/>
</g>
<defs>
<clipPath id="clip0_1093_10316">
<rect width="16" height="16" fill="white" transform="translate(0 0.580078)"/>
</clipPath>
</defs>
</svg>
