<svg width="56" height="57" viewBox="0 0 56 57" fill="none" xmlns="http://www.w3.org/2000/svg">
<g id="Group">
<path id="Vector" d="M50.6175 31.8342C50.4273 45.5497 39.1694 56.6076 25.311 56.6076C11.4527 56.6076 0 45.3609 0 31.4835C0 17.6061 11.4346 6.47629 25.311 6.35938V8.6303C12.7257 8.74722 2.29235 18.9597 2.29235 31.479C2.29235 43.9983 12.617 54.3322 25.311 54.3322C31.4315 54.3322 37.1896 51.9758 41.5342 47.6948C45.8335 43.4587 48.2391 37.8331 48.3297 31.8342H50.6221H50.6175Z" fill="url(#paint0_linear_1637_26580)"/>
<path id="Vector_2" d="M47.8324 31.8334C47.6421 44.0559 37.5213 53.9716 25.1807 53.9716C19.2278 53.9716 13.805 51.6782 9.75484 47.9413C9.67329 47.8648 9.59175 47.7884 9.5102 47.7074C5.30151 43.6287 2.6875 37.9402 2.6875 31.6535C2.6875 19.3186 12.7675 9.26803 25.1807 9.20508V23.1409H16.6047V40.1661H33.7566V40.0537H33.7793V31.8379H47.8369L47.8324 31.8334Z" fill="url(#paint1_linear_1637_26580)"/>
<path id="Vector_3" d="M25.2576 25.6867V23.6855H17.2344V39.618H33.2854V31.8339H31.3826V37.7788H19.0601V25.6867H25.2576Z" fill="url(#paint2_linear_1637_26580)"/>
<g id="Group_2">
<g id="Group_3">
<path id="Vector_4" d="M44.7234 19.0992C44.7234 18.9013 44.7234 18.699 44.7234 18.4966C44.6056 11.8412 42.3812 8.41009 41.3438 7.16895V24.0368C41.747 23.0564 42.3268 22.0042 43.1649 20.9024C43.6814 20.2189 44.2069 19.6253 44.7279 19.1037L44.7234 19.0992Z" fill="url(#paint3_linear_1637_26580)"/>
<path id="Vector_5" d="M45.035 19.225C44.9806 19.2789 44.9263 19.3284 44.8719 19.3824C44.8176 19.4363 44.7632 19.4948 44.7088 19.5488C44.2739 19.9984 43.839 20.5021 43.4086 21.0732C42.353 22.4672 41.7097 23.7848 41.3292 24.963C41.2748 25.1384 41.225 25.3093 41.1797 25.4756C41.2386 25.705 41.2884 25.9298 41.3292 26.1457C41.601 27.5982 41.4923 28.7719 41.3292 29.5543C41.3201 29.5903 41.3156 29.6263 41.3065 29.6622L41.3292 29.6308L43.0235 27.2879L43.4811 26.6538L43.8752 26.1052L51.2597 15.8838C50.1271 16.0457 47.6173 16.6887 45.0305 19.225H45.035Z" fill="url(#paint4_linear_1637_26580)"/>
<path id="Vector_6" d="M41.0211 26.2225C40.9984 26.0921 40.9712 25.9617 40.9395 25.8313C40.9123 25.7144 40.8852 25.5975 40.8535 25.4805C40.5091 24.1719 39.8387 22.679 38.6245 21.0781C38.0899 20.3721 37.5418 19.7605 37.0027 19.2299C34.4158 16.6936 31.906 16.0506 30.7734 15.8887L38.1579 26.1101L40.7266 29.6626L40.9169 29.928C40.9259 29.901 40.9305 29.874 40.9395 29.847C40.9667 29.7436 40.9939 29.6267 41.0211 29.4963C41.1751 28.7498 41.2793 27.6166 41.0211 26.218V26.2225Z" fill="url(#paint5_linear_1637_26580)"/>
</g>
<path id="Vector_7" d="M54.468 12.4342L52.008 15.8069C52.008 15.8069 51.9989 15.7799 51.9944 15.7664L55.0796 11.0177L54.7398 10.8154L51.6727 15.5416C50.8528 15.5955 48.0213 15.9913 45.0358 18.7973C45.0358 18.6984 45.0358 18.5995 45.0358 18.496C44.9044 11.0222 42.1771 7.5731 41.2983 6.65124L41.3345 0.607422H40.9358L40.8996 6.49385C40.8905 6.49385 40.886 6.50284 40.8769 6.51183L40.664 2.11838L40.2653 2.13636L40.4964 6.92105C39.4363 8.1532 37.1258 11.6248 37.008 18.4915C37.008 18.595 37.008 18.6939 37.008 18.7928C34.1584 16.1082 31.4448 15.6315 30.4979 15.5461L27.4218 10.8109L27.082 11.0132L30.0902 15.645C30.0902 15.645 30.0811 15.6765 30.0721 15.6945L27.6936 12.4342L27.3674 12.6501L29.9407 16.1801C29.6236 17.5427 29.3064 20.9244 32.2693 25.2324C35.4677 29.8732 39.3276 30.5117 40.5961 30.5927V31.8383H41.5655V30.5792C42.9382 30.4667 46.6667 29.7382 49.7745 25.2279C52.6558 21.0458 52.4384 17.7316 52.1303 16.2971L54.7942 12.6456L54.468 12.4297V12.4342ZM41.339 7.16838C42.3765 8.41402 44.6054 11.8406 44.7232 18.496C44.7232 18.7029 44.7232 18.9053 44.7232 19.1031C44.1977 19.6203 43.6722 20.2183 43.1602 20.8974C42.3221 21.9991 41.7422 23.0514 41.339 24.0317V7.16838ZM41.0264 29.4954C40.9993 29.6258 40.9721 29.7427 40.9449 29.8462C40.9358 29.8687 40.9313 29.8956 40.9222 29.9271L40.7274 29.6618L38.1587 26.1093L30.7743 15.8878C31.9114 16.0542 34.4167 16.6928 37.0035 19.229C37.5471 19.7597 38.0908 20.3712 38.6254 21.0817C39.835 22.6826 40.5054 24.1756 40.8543 25.4797C40.886 25.6011 40.9132 25.718 40.9404 25.8305C40.9721 25.9654 40.9993 26.0958 41.0219 26.2217C41.1352 26.8378 41.1759 27.3999 41.1759 27.899C41.1759 28.5376 41.108 29.0772 41.0219 29.4954H41.0264ZM43.8896 26.1048L43.4909 26.6489L43.0334 27.2829L41.339 29.6258L41.3164 29.6573C41.3254 29.6213 41.33 29.5854 41.339 29.5494C41.5021 28.7714 41.6109 27.5932 41.339 26.1452C41.2983 25.9249 41.2484 25.7045 41.1895 25.4752C41.2348 25.3088 41.2847 25.1379 41.339 24.9626C41.7196 23.7844 42.3629 22.4668 43.4185 21.0727C43.8488 20.5016 44.2838 19.998 44.7187 19.5483C44.7685 19.4943 44.8274 19.4359 44.8772 19.3819L45.0403 19.22C47.6317 16.6838 50.137 16.0452 51.2695 15.8788L43.8851 26.1003L43.8896 26.1048Z" fill="url(#paint6_linear_1637_26580)"/>
</g>
<g id="Group_4">
<path id="Vector_8" d="M5.66196 35.9475L5.30859 34.7783L11.2298 35.0796L11.6148 36.3567L6.83079 39.8193L6.46836 38.6142L7.46957 37.9441L6.87609 35.9835L5.66196 35.943V35.9475ZM7.89089 36.0105L8.29862 37.364L10.215 36.0779V36.0644L7.89089 36.015V36.0105Z" fill="white"/>
<path id="Vector_9" d="M12.0739 42.2793L13.5281 44.0916L11.1723 45.9533L10.6876 45.3507L11.1633 44.829C10.7102 44.8111 10.0488 44.7931 9.41456 44.0016C8.57645 42.9583 8.57191 41.4114 10.1032 40.1973C11.2901 39.2574 12.9392 39.0236 14.108 40.4761L14.1171 40.4896C15.1817 41.8206 14.7332 43.0303 14.1714 43.5564L13.442 42.6481C13.6142 42.5132 13.9132 41.7712 13.4013 41.1326C12.8848 40.4851 11.9516 40.2422 10.8326 41.1326C9.64108 42.077 9.84947 42.9673 10.3433 43.5834C10.5018 43.7813 11.1134 44.3839 12.1464 43.8757L11.3354 42.8684L12.0739 42.2883V42.2793Z" fill="white"/>
<path id="Vector_10" d="M16.4864 43.2109L18.978 44.5285C20.2873 45.221 20.011 46.3093 19.7844 46.732C19.4945 47.2716 18.9735 47.5864 18.3982 47.492C18.7062 47.8832 18.8467 48.1485 18.3574 49.0614C17.9723 49.7764 17.8772 49.9518 18.0539 50.1496L17.9859 50.28L16.8488 49.6775C16.9031 49.4076 16.9983 49.1378 17.2701 48.6342C17.628 47.9686 17.7277 47.6853 16.9666 47.2851L15.9019 46.723L14.8735 48.6387L13.8633 48.1036L16.4909 43.2154L16.4864 43.2109ZM17.5465 46.5341C18.081 46.8174 18.4389 46.7725 18.7017 46.2868C18.8421 46.026 18.9282 45.5853 18.3257 45.266L17.0436 44.587L16.3414 45.8956L17.5465 46.5341Z" fill="white"/>
<path id="Vector_11" d="M21.8135 51.1924L20.6719 50.9586L21.7999 45.5264L22.9416 45.7602L21.8135 51.1924Z" fill="white"/>
<path id="Vector_12" d="M25.4637 49.8116C25.4955 50.1174 25.6948 50.693 26.7096 50.6165C27.2623 50.576 27.8648 50.3962 27.8195 49.8116C27.7878 49.3799 27.3574 49.2989 26.7594 49.2045L26.1524 49.1101C25.2372 48.9707 24.3538 48.8357 24.2587 47.6216C24.2134 47.0055 24.4625 45.8948 26.2701 45.7599C27.9781 45.6295 28.5172 46.7042 28.5806 47.3832L27.4616 47.4687C27.4118 47.2259 27.2759 46.6458 26.2565 46.7222C25.8126 46.7537 25.3006 46.956 25.3369 47.4597C25.3686 47.8914 25.7356 47.9544 25.9711 47.9903L27.3529 48.2197C28.1276 48.3456 28.8479 48.6019 28.9249 49.5957C29.0518 51.2596 27.3574 51.5339 26.8681 51.5699C24.834 51.7227 24.3991 50.5895 24.3447 49.9015L25.4592 49.8161L25.4637 49.8116Z" fill="white"/>
<path id="Vector_13" d="M33.7645 44.546L31.0871 45.8052L31.5899 46.8574L34.0499 45.7017L34.4712 46.5876L32.0112 47.7433L32.6319 49.0429L35.4317 47.7298L35.853 48.6157L32.0203 50.4145L29.6328 45.405L33.3432 43.6602L33.7645 44.546Z" fill="white"/>
<path id="Vector_14" d="M38.1038 41.6146C37.7957 41.4572 37.2113 41.1604 36.5544 41.8619C36.1739 42.2666 35.8839 43.121 37.0392 44.1868C37.7731 44.8658 38.7063 45.1851 39.3768 44.4701C39.8163 44.0024 39.857 43.4268 39.4493 42.8602L40.2421 42.0148C40.9715 43.0041 41.053 44.1553 40.0971 45.1716C39.0869 46.2508 37.6236 46.3453 36.2146 45.0412C34.7876 43.7191 34.8238 42.2306 35.8069 41.1829C36.944 39.9687 38.2488 40.252 38.8966 40.7646L38.1038 41.6146Z" fill="white"/>
<path id="Vector_15" d="M38.7259 36.3488C38.9751 35.6563 39.9219 33.943 42.3955 34.8154C44.8645 35.6833 44.5157 37.6079 44.2711 38.3005C44.0264 38.993 43.0751 40.7063 40.6015 39.8339C38.1325 38.966 38.4813 37.0368 38.7259 36.3488ZM43.3378 37.9722C43.5462 37.3831 43.4783 36.4253 42.0059 35.9036C40.5335 35.3865 39.8676 36.0835 39.6592 36.6771C39.4508 37.2662 39.5187 38.224 40.9911 38.7456C42.4635 39.2628 43.1294 38.5658 43.3378 37.9722Z" fill="white"/>
</g>
</g>
<defs>
<linearGradient id="paint0_linear_1637_26580" x1="28.1516" y1="12.2908" x2="21.3379" y2="59.0504" gradientUnits="userSpaceOnUse">
<stop stop-color="#FAAE42"/>
<stop offset="1" stop-color="#F15B2C"/>
</linearGradient>
<linearGradient id="paint1_linear_1637_26580" x1="42.9124" y1="20.5642" x2="5.75301" y2="44.0793" gradientUnits="userSpaceOnUse">
<stop stop-color="#F28021"/>
<stop offset="1" stop-color="#FEC015"/>
</linearGradient>
<linearGradient id="paint2_linear_1637_26580" x1="34.2141" y1="20.5962" x2="19.8429" y2="38.6068" gradientUnits="userSpaceOnUse">
<stop stop-color="#F28021"/>
<stop offset="1" stop-color="#FEC015"/>
</linearGradient>
<linearGradient id="paint3_linear_1637_26580" x1="41.3981" y1="28.4392" x2="42.9696" y2="13.4801" gradientUnits="userSpaceOnUse">
<stop stop-color="#FAAE42"/>
<stop offset="1" stop-color="#F6E92D"/>
</linearGradient>
<linearGradient id="paint4_linear_1637_26580" x1="42.3213" y1="28.9383" x2="48.0316" y2="16.4048" gradientUnits="userSpaceOnUse">
<stop stop-color="#FAAE42"/>
<stop offset="1" stop-color="#F6E92D"/>
</linearGradient>
<linearGradient id="paint5_linear_1637_26580" x1="40.5182" y1="29.6536" x2="34.8457" y2="18.3461" gradientUnits="userSpaceOnUse">
<stop stop-color="#FAAE42"/>
<stop offset="1" stop-color="#F6E92D"/>
</linearGradient>
<linearGradient id="paint6_linear_1637_26580" x1="34.4982" y1="28.8838" x2="43.3978" y2="5.56376" gradientUnits="userSpaceOnUse">
<stop stop-color="#F28021"/>
<stop offset="1" stop-color="#FEC015"/>
</linearGradient>
</defs>
</svg>
