<svg width="36" height="33" viewBox="0 0 36 33" fill="none" xmlns="http://www.w3.org/2000/svg">
<g clip-path="url(#clip0_1093_10183)">
<path d="M31.1284 31.6209H28.5559V9.81829C28.5559 9.6011 28.4286 9.40264 28.232 9.31278C28.1571 9.27907 28.0785 9.26222 27.9999 9.26222C27.8688 9.26222 27.7396 9.30903 27.6367 9.39703C26.5283 10.3538 25.2888 11.2319 23.9539 12.0051C23.7816 12.1043 23.6768 12.2878 23.6768 12.4863V31.619H22.2333V13.7969C22.2333 13.6078 22.1378 13.4318 21.9787 13.3288C21.8869 13.2708 21.7839 13.2408 21.6772 13.2408C21.6005 13.2408 21.5218 13.2576 21.4488 13.2895C20.288 13.8156 19.0411 14.2893 17.7436 14.6974C17.5114 14.7704 17.3541 14.9858 17.3541 15.2291V31.619H15.9106V15.935C15.9106 15.7646 15.832 15.6036 15.6991 15.4988C15.598 15.4201 15.4781 15.3789 15.3546 15.3789C15.3115 15.3789 15.2684 15.3845 15.2254 15.3958C14.0346 15.6804 12.7821 15.9219 11.5052 16.111C11.2318 16.1503 11.0296 16.3862 11.0296 16.6614V31.6209H9.5861V16.9685C9.5861 16.8112 9.52057 16.6633 9.40449 16.5566C9.30339 16.463 9.17046 16.4105 9.03191 16.4105C9.01319 16.4105 8.99634 16.4105 8.97761 16.4124H8.97949C7.7157 16.5285 6.46316 16.594 5.25741 16.6053C4.95223 16.609 4.70697 16.8561 4.70697 17.1613V31.6171H1.11408V3.83451C1.11408 3.52746 0.865069 3.27845 0.558017 3.27845C0.250965 3.27845 0.00195312 3.52746 0.00195312 3.83451V32.1769C0.00195312 32.484 0.250965 32.733 0.558017 32.733H31.1303C31.2838 32.733 31.4243 32.6712 31.5235 32.5701C31.6246 32.4709 31.6864 32.3286 31.6864 32.1769C31.6864 32.0234 31.6246 31.883 31.5235 31.7838C31.4243 31.6827 31.282 31.6209 31.1303 31.6209H31.1284ZM24.7889 12.8027C25.7251 12.2447 26.6106 11.6381 27.4438 10.9885V31.6209H24.7889V12.8027ZM18.4644 15.6336C19.3781 15.3359 20.2674 15.0045 21.1193 14.645V31.619H18.4644V15.6336ZM12.138 17.137C13.0404 16.9947 13.9298 16.8262 14.7929 16.6333V31.619H12.138V17.137ZM5.81348 17.7099C6.68221 17.6893 7.57154 17.6444 8.46836 17.5732V31.6209H5.81348V17.7099Z" fill="white"/>
<path d="M3.01816 14.484C3.03126 14.484 3.13798 14.4877 3.32521 14.4859C4.50099 14.4859 8.8821 14.3885 14.0365 13.0517C19.0186 11.758 24.7309 9.30716 28.9397 4.63959L30.1548 5.57011C30.2541 5.645 30.372 5.68431 30.4937 5.68431C30.5667 5.68431 30.6379 5.67121 30.7071 5.64312C30.8906 5.56636 31.0198 5.39786 31.046 5.20127L31.5815 1.12721C31.5852 1.10474 31.5852 1.08228 31.5852 1.05794C31.5852 0.88756 31.5066 0.7228 31.3681 0.616081C31.2707 0.539318 31.1509 0.5 31.0311 0.5C30.9599 0.5 30.8869 0.513106 30.8176 0.543062L27.0244 2.11577C26.8409 2.19253 26.7117 2.36104 26.6855 2.55762C26.6818 2.58196 26.6818 2.6063 26.6818 2.63064C26.6818 2.80102 26.7604 2.96578 26.899 3.0725L26.9027 3.07624L28.0579 3.96183C24.0381 8.386 18.5542 10.7432 13.7369 11.9882C8.73232 13.282 4.4598 13.3775 3.34019 13.3775C3.23908 13.3775 3.17168 13.3775 3.12675 13.3775C3.08181 13.3775 3.06496 13.3775 3.04437 13.3775H3.03875H3.02003V13.3793C2.72983 13.3906 2.49392 13.6209 2.48456 13.9129V13.9148V13.9317C2.48456 14.2312 2.72234 14.4784 3.02377 14.4877L3.01816 14.484ZM29.4808 3.64729C29.4527 3.54244 29.3947 3.44508 29.3067 3.36832C29.2037 3.28032 29.0745 3.23539 28.9472 3.23539L28.3443 2.77294L30.357 1.93978L30.0743 4.0985L29.4846 3.64541L29.4808 3.64729Z" fill="white"/>
<path d="M35.444 31.6209H33.422C33.1149 31.6209 32.8659 31.8699 32.8659 32.1769C32.8659 32.484 33.1149 32.733 33.422 32.733H35.444C35.7511 32.733 36.0001 32.484 36.0001 32.1769C36.0001 31.8699 35.7511 31.6209 35.444 31.6209Z" fill="white"/>
</g>
<defs>
<clipPath id="clip0_1093_10183">
<rect width="36" height="32.233" fill="white" transform="translate(6.10352e-05 0.5)"/>
</clipPath>
</defs>
</svg>
