<svg width="41" height="40" viewBox="0 0 41 40" fill="none" xmlns="http://www.w3.org/2000/svg">
<g clip-path="url(#clip0_1093_10197)">
<path d="M38.7207 29.0698C40.1959 27.5407 41.0001 25.6512 41.0001 23.7209C41.0001 19.8023 37.7546 16.4767 33.271 15.3198C34.0231 13.9419 34.4628 12.3953 34.4628 10.7558C34.4628 5.09884 29.418 0.5 23.2162 0.5C17.0145 0.5 11.9755 5.09884 11.9755 10.7558C11.9755 13 12.7912 15.1977 14.2838 16.9767L12.8665 22.3256C12.8086 22.5465 12.8838 22.7849 13.0631 22.9302C13.1673 23.0174 13.2946 23.0581 13.4276 23.0581C13.5202 23.0581 13.607 23.0349 13.6937 22.9942L19.0104 20.2674C19.1492 20.3198 19.2939 20.3547 19.4327 20.4012C18.9005 21.4302 18.6054 22.5465 18.6054 23.7209C18.6054 28.593 23.6328 32.564 29.8056 32.564C31.2519 32.564 32.6693 32.3488 34.0057 31.9186L39.3281 34.2558C39.4033 34.2907 39.4843 34.3023 39.5595 34.3023C39.6984 34.3023 39.8372 34.25 39.9472 34.157C40.1149 34.0058 40.1786 33.7674 40.1149 33.5523L38.7265 29.0698H38.7207ZM34.2661 30.7616C34.1908 30.7326 34.1156 30.7151 34.0346 30.7151C33.971 30.7151 33.9132 30.7267 33.8495 30.7442C32.5652 31.1802 31.1999 31.3954 29.7998 31.3954C24.2634 31.3954 19.7567 27.9535 19.7567 23.7151C19.7567 22.6454 20.0459 21.6337 20.5608 20.7035C21.4286 20.8953 22.3137 21.0058 23.2162 21.0058C27.1502 21.0058 30.6156 19.1512 32.623 16.3488C36.7884 17.2849 39.8372 20.2267 39.8372 23.7093C39.8372 25.4535 39.0852 27.1047 37.6562 28.4709C37.5 28.6221 37.4364 28.8547 37.5058 29.064L38.6223 32.6686L34.2603 30.75L34.2661 30.7616ZM18.7038 19.1105L14.3185 21.3605L15.4814 16.9767C15.5334 16.7849 15.4814 16.5872 15.3541 16.4419C13.902 14.814 13.1326 12.843 13.1326 10.7558C13.1326 5.74419 17.6566 1.66279 23.2162 1.66279C28.7759 1.66279 33.3057 5.74419 33.3057 10.7558C33.3057 12.314 32.866 13.7849 32.0966 15.0698C31.9867 15.2558 31.8594 15.4302 31.7379 15.6047C31.6106 15.7907 31.4718 15.9651 31.3272 16.1395C29.4874 18.3837 26.5428 19.8488 23.2162 19.8488C22.5625 19.8488 21.9146 19.7849 21.2724 19.6744C21.0641 19.6395 20.8559 19.5872 20.6476 19.5349C20.4451 19.4884 20.2426 19.4419 20.0459 19.3837C19.7509 19.2965 19.4616 19.2035 19.1781 19.0872C19.0219 19.0233 18.8542 19.0349 18.7038 19.1105Z" fill="white"/>
<path d="M25.3915 21.436C24.246 21.436 23.3088 22.3779 23.3088 23.5291C23.3088 24.6802 24.246 25.6221 25.3915 25.6221C26.537 25.6221 27.4742 24.6802 27.4742 23.5291C27.4742 22.3779 26.537 21.436 25.3915 21.436ZM25.3915 24.4651C24.8824 24.4651 24.4659 24.0465 24.4659 23.5349C24.4659 23.0233 24.8824 22.6047 25.3915 22.6047C25.9006 22.6047 26.3172 23.0233 26.3172 23.5349C26.3172 24.0465 25.9006 24.4651 25.3915 24.4651Z" fill="white"/>
<path d="M29.7998 21.436C28.6486 21.436 27.7172 22.3779 27.7172 23.5291C27.7172 24.6802 28.6544 25.6221 29.7998 25.6221C30.9453 25.6221 31.8825 24.6802 31.8825 23.5291C31.8825 22.3779 30.9453 21.436 29.7998 21.436ZM29.7998 24.4651C29.2907 24.4651 28.8742 24.0465 28.8742 23.5349C28.8742 23.0233 29.2907 22.6047 29.7998 22.6047C30.3089 22.6047 30.7255 23.0233 30.7255 23.5349C30.7255 24.0465 30.3089 24.4651 29.7998 24.4651Z" fill="white"/>
<path d="M34.2082 21.436C33.057 21.436 32.1255 22.3779 32.1255 23.5291C32.1255 24.6802 33.0628 25.6221 34.2082 25.6221C35.3537 25.6221 36.2909 24.6802 36.2909 23.5291C36.2909 22.3779 35.3537 21.436 34.2082 21.436ZM34.2082 24.4651C33.6991 24.4651 33.2826 24.0465 33.2826 23.5349C33.2826 23.0233 33.6991 22.6047 34.2082 22.6047C34.7173 22.6047 35.1339 23.0233 35.1339 23.5349C35.1339 24.0465 34.7173 24.4651 34.2082 24.4651Z" fill="white"/>
<path d="M18.3104 28.2093C18.0558 27.7558 17.4194 27.5872 16.974 27.8488L16.8583 27.9302C16.6731 28.0233 16.1872 28.2849 15.088 28.9419C14.1334 29.5058 13.5954 30.0814 13.2888 30.5407C12.5656 29.564 11.3334 27.5174 10.3209 25.6744C9.24489 23.8837 8.09362 21.7791 7.61923 20.6686C8.1399 20.6395 8.91513 20.4709 9.89862 19.9128C10.7606 19.4302 11.3623 19.0814 11.7036 18.8663L11.773 18.8256C11.9987 18.6977 12.1606 18.4826 12.2301 18.2326C12.2995 17.9767 12.2648 17.7151 12.1375 17.4826L7.93742 10.1744C7.76386 9.87209 7.43989 9.68023 7.09278 9.68023C6.91922 9.68023 6.75145 9.72674 6.64731 9.7907C6.54318 9.83721 4.04395 11.0058 2.4183 12.5C2.20425 12.6977 2.01334 12.9012 1.83978 13.0988C0.416609 14.7558 -0.219767 17.0058 0.0694946 19.4419C0.422394 22.4244 4.29851 28.843 4.44892 29.0872C4.59934 29.3663 8.19197 35.9477 10.5871 37.7442C12.1144 38.8953 13.8268 39.5 15.5277 39.5C16.274 39.5 17.0203 39.3837 17.7492 39.157C19.8492 38.4942 22.1055 36.9012 22.1575 36.8605C22.6204 36.5872 22.7823 35.9884 22.5162 35.5174L18.3161 28.2151L18.3104 28.2093ZM7.02914 10.9012L11.0557 17.907C10.8474 18.0349 10.5176 18.2267 10.0953 18.4709L5.95308 11.4651C6.42747 11.1977 6.82087 11 7.02914 10.9012ZM17.3963 38.0465C15.3541 38.6919 13.1788 38.2442 11.2755 36.814C9.0829 35.1686 5.49605 28.5988 5.44398 28.5058C5.40349 28.4419 1.53895 22.0407 1.21497 19.3023C1.04142 17.814 1.15712 15.6628 2.72492 13.8663C2.86955 13.6977 3.03732 13.5291 3.21667 13.3605C3.73155 12.8837 4.35636 12.4419 4.95802 12.064L9.0829 19.0407C8.31925 19.4244 7.76965 19.5174 7.43411 19.5174C7.19691 19.5174 7.06964 19.4767 7.06964 19.4767C6.89029 19.3953 6.67624 19.407 6.50847 19.5174C6.3407 19.6279 6.24235 19.8198 6.24813 20.0174C6.27706 21.0988 8.62586 25.0814 9.33166 26.2558C10.0028 27.4767 12.259 31.5116 13.1789 32.0814C13.3466 32.186 13.5549 32.186 13.7342 32.0988C13.9136 32.0174 14.0351 31.8314 14.0582 31.6395C14.0582 31.6337 14.1797 30.8837 15.5739 30.0233L19.7104 37.0174C19.0046 37.407 18.1831 37.8081 17.4021 38.0523L17.3963 38.0465ZM20.7054 36.4186L16.569 29.4186C17.0839 29.1221 17.3211 28.9942 17.4079 28.9535L21.4286 35.9477C21.2955 36.0349 21.041 36.2093 20.7112 36.4128L20.7054 36.4186Z" fill="white"/>
<path d="M21.7063 6.36628C22.117 6.22674 22.5162 6.15698 22.9154 6.15698C23.5981 6.15698 24.0898 6.31977 24.3849 6.63953C24.6799 6.9593 24.8245 7.37791 24.8245 7.88953C24.8245 8.26744 24.7551 8.60465 24.6163 8.89535C24.4774 9.19186 24.3096 9.46512 24.1014 9.72674C23.8989 9.98837 23.6733 10.2442 23.4361 10.5C23.1989 10.7558 22.979 11.0291 22.7708 11.3256C22.5683 11.6221 22.3947 11.9477 22.2559 12.3023C22.117 12.657 22.0476 13.0698 22.0476 13.5349V13.7209C22.0476 13.7849 22.0476 13.8488 22.065 13.9012H23.1584C23.1584 13.436 23.2336 13.0291 23.384 12.686C23.5344 12.343 23.7195 12.0233 23.9452 11.7267C24.1708 11.4302 24.4138 11.1512 24.6741 10.8837C24.9344 10.6163 25.1774 10.3314 25.4031 10.0291C25.6287 9.72093 25.8196 9.38372 25.9642 9.01163C26.1146 8.63953 26.1898 8.20349 26.1898 7.70349C26.1898 7.32558 26.1262 6.97093 26.0047 6.63953C25.8832 6.30814 25.6981 6.01744 25.4493 5.77326C25.2006 5.52907 24.894 5.33721 24.5237 5.19767C24.1534 5.05814 23.7253 4.98837 23.2394 4.98837C22.5567 4.98837 21.9782 5.06395 21.5154 5.21512C21.0526 5.36628 20.6071 5.56977 20.1906 5.81977L20.636 6.85465C20.9368 6.6686 21.2897 6.5 21.6947 6.36046L21.7063 6.36628Z" fill="white"/>
<path d="M22.684 15.1163C22.3948 15.1163 22.1691 15.2035 21.9956 15.3721C21.822 15.5465 21.741 15.7791 21.741 16.0814C21.741 16.3837 21.8278 16.6047 21.9956 16.7791C22.1286 16.9128 22.2906 17 22.4873 17.0291C22.551 17.0407 22.6146 17.0465 22.684 17.0465C22.9849 17.0465 23.222 16.9593 23.3956 16.7791C23.5113 16.6628 23.5923 16.5116 23.627 16.343C23.6444 16.2616 23.6617 16.1744 23.6617 16.0814C23.6617 15.7791 23.5749 15.5465 23.3956 15.3721C23.2163 15.2035 22.9791 15.1163 22.684 15.1163Z" fill="white"/>
</g>
<defs>
<clipPath id="clip0_1093_10197">
<rect width="41" height="39" fill="white" transform="translate(6.10352e-05 0.5)"/>
</clipPath>
</defs>
</svg>
