<svg width="425" height="73" viewBox="0 0 425 73" fill="none" xmlns="http://www.w3.org/2000/svg">
<g clip-path="url(#clip0_1725_29180)">
<mask id="mask0_1725_29180" style="mask-type:luminance" maskUnits="userSpaceOnUse" x="0" y="7" width="66" height="66">
<path d="M0 40.0578C0 58.06 14.5767 72.6557 32.5445 72.6557C50.5123 72.6557 64.8521 58.3079 65.089 40.5213H62.1392C62.0208 48.3043 58.931 55.6022 53.3975 61.0998C47.8102 66.6514 40.4034 69.7128 32.5337 69.7128C16.213 69.7128 2.92825 56.4107 2.92825 40.0686C2.92825 23.7265 16.3638 10.5753 32.5445 10.4243V7.4707C14.7058 7.62162 0 22.1527 0 40.0578Z" fill="white"/>
</mask>
<g mask="url(#mask0_1725_29180)">
<path d="M1.38464 -1.8973L-9.35547 71.2764L63.7159 82.0015L74.456 8.82779L1.38464 -1.8973Z" fill="url(#paint0_linear_1725_29180)"/>
</g>
<mask id="mask1_1725_29180" style="mask-type:luminance" maskUnits="userSpaceOnUse" x="3" y="11" width="59" height="59">
<path d="M3.45703 40.284C3.45703 48.4335 6.81591 55.8176 12.231 61.1105C12.3387 61.2183 12.4356 61.3153 12.5432 61.4123C17.7538 66.2632 24.7299 69.2384 32.3843 69.2384C48.2528 69.2384 61.2685 56.3782 61.5161 40.5212H43.4406V51.1824H43.4083V51.3333H21.3495V29.2456H32.3843V11.1572C16.4188 11.2435 3.45703 24.2762 3.45703 40.284Z" fill="white"/>
</mask>
<g mask="url(#mask1_1725_29180)">
<path d="M45.0768 -15.0256L-22.6719 27.5947L19.887 95.423L87.6356 52.8026L45.0768 -15.0256Z" fill="url(#paint1_linear_1725_29180)"/>
</g>
<mask id="mask2_1725_29180" style="mask-type:luminance" maskUnits="userSpaceOnUse" x="22" y="29" width="21" height="22">
<path d="M22.1562 29.9463V50.6218H42.8047V40.5212H40.3502V48.2287H24.5139V32.5442H32.4805V29.9463H22.1562Z" fill="white"/>
</mask>
<g mask="url(#mask2_1725_29180)">
<path d="M30.2608 19.8534L12.0781 42.5059L34.7009 60.7124L52.8836 38.0599L30.2608 19.8534Z" fill="url(#paint2_linear_1725_29180)"/>
</g>
<mask id="mask3_1725_29180" style="mask-type:luminance" maskUnits="userSpaceOnUse" x="53" y="8" width="5" height="23">
<path d="M53.1602 30.3984C53.6769 29.1264 54.4305 27.7682 55.5071 26.3345C56.1745 25.4505 56.842 24.6744 57.5202 24.0061C57.5202 23.7473 57.5202 23.4886 57.5202 23.2191C57.3695 14.5846 54.5059 10.1325 53.1709 8.52637V30.4092L53.1602 30.3984Z" fill="white"/>
</mask>
<g mask="url(#mask3_1725_29180)">
<path d="M53.2049 8.05996L50.8672 30.1533L57.4621 30.8511L59.7998 8.75777L53.2049 8.05996Z" fill="url(#paint3_linear_1725_29180)"/>
</g>
<mask id="mask4_1725_29180" style="mask-type:luminance" maskUnits="userSpaceOnUse" x="52" y="19" width="14" height="19">
<path d="M57.918 24.1577C57.8534 24.2224 57.778 24.2978 57.7134 24.3625C57.6488 24.4272 57.5735 24.5027 57.5089 24.5781C56.9491 25.1602 56.3893 25.8178 55.8402 26.5508C54.4838 28.3618 53.6548 30.065 53.1703 31.5957C53.095 31.8221 53.0412 32.0377 52.9766 32.2533C53.0519 32.5551 53.1165 32.8462 53.1703 33.1264C53.5256 35.0129 53.3749 36.5328 53.1703 37.5461C53.1703 37.5892 53.1488 37.6431 53.138 37.6863L53.1703 37.6431L55.345 34.6033L55.9371 33.784L56.4431 33.0725L65.9384 19.8135C64.485 20.0183 61.2553 20.8591 57.9288 24.1469" fill="white"/>
</mask>
<g mask="url(#mask4_1725_29180)">
<path d="M55.2237 14.9049L46.2031 34.5879L63.6784 42.6176L72.6989 22.9347L55.2237 14.9049Z" fill="url(#paint4_linear_1725_29180)"/>
</g>
<mask id="mask5_1725_29180" style="mask-type:luminance" maskUnits="userSpaceOnUse" x="39" y="19" width="14" height="20">
<path d="M49.0695 33.0833L52.3746 37.697L52.6222 38.042C52.6222 38.042 52.6437 37.9773 52.6437 37.9449C52.676 37.8048 52.7191 37.6539 52.7513 37.4922C52.9451 36.522 53.0851 35.056 52.7513 33.2342C52.7191 33.0725 52.6868 32.9 52.6437 32.7276C52.6114 32.5766 52.5683 32.4257 52.536 32.2748C52.0946 30.5824 51.2334 28.642 49.6724 26.5615C48.9834 25.6453 48.2836 24.8476 47.5838 24.1577C44.2573 20.8699 41.0276 20.029 39.5742 19.8242L49.0695 33.0833Z" fill="white"/>
</mask>
<g mask="url(#mask5_1725_29180)">
<path d="M50.3252 14.379L32.2422 23.5293L42.3128 43.4832L60.3958 34.3329L50.3252 14.379Z" fill="url(#paint5_linear_1725_29180)"/>
</g>
<mask id="mask6_1725_29180" style="mask-type:luminance" maskUnits="userSpaceOnUse" x="34" y="0" width="37" height="41">
<path d="M52.3741 37.6967L49.0691 33.083L39.5738 19.8239C41.0379 20.0395 44.2568 20.8696 47.5834 24.1574C48.2832 24.8473 48.9829 25.645 49.6719 26.5612C51.2329 28.6417 52.0942 30.5713 52.5356 32.2745C52.5786 32.4254 52.6109 32.5763 52.6432 32.7273C52.6863 32.8997 52.7186 33.0722 52.7401 33.2339C52.8908 34.0316 52.9339 34.7646 52.9339 35.4114C52.9339 36.2414 52.8478 36.9421 52.7401 37.4811C52.7078 37.6536 52.6648 37.8045 52.6325 37.9339C52.6325 37.9662 52.6109 37.9985 52.6109 38.0309L52.3633 37.6859L52.3741 37.6967ZM53.16 37.5566C53.3645 36.5433 53.5153 35.0233 53.16 33.1369C53.1062 32.8566 53.0416 32.5656 52.9662 32.2637C53.02 32.0481 53.0846 31.8325 53.16 31.6062C53.6444 30.0754 54.4734 28.3722 55.8299 26.5612C56.3789 25.8282 56.9495 25.1707 57.5093 24.5778C57.5739 24.5023 57.6493 24.4269 57.7138 24.3622L57.9184 24.1466C61.245 20.8588 64.4747 20.0287 65.9388 19.8131L56.4435 33.0722L55.9375 33.7729L55.3562 34.5921L53.1708 37.632L53.1492 37.6751C53.1492 37.6751 53.1708 37.5781 53.1708 37.535M53.1708 8.49443C54.5057 10.1114 57.3693 14.5526 57.5201 23.1872C57.5201 23.4567 57.5201 23.7154 57.5201 23.9741C56.8418 24.6425 56.1636 25.4186 55.5069 26.3025C54.4303 27.7362 53.6875 29.0945 53.16 30.3665V8.51598L53.1708 8.49443ZM52.6109 7.63205C52.6109 7.63205 52.5894 7.64283 52.5894 7.65361L52.3095 1.95113L51.8035 1.97269L52.105 8.18181C50.7377 9.78799 47.7772 14.2831 47.6157 23.1872C47.6157 23.3166 47.6157 23.4459 47.6157 23.5753C43.9554 20.0934 40.4673 19.4682 39.24 19.3712L35.289 13.2267L34.8477 13.4854L38.7233 19.5005C38.7233 19.5005 38.7125 19.5436 38.7018 19.5652L35.6443 15.3288L35.2245 15.609L38.5295 20.1904C38.1204 21.9583 37.7113 26.3457 41.5223 31.9296C45.6348 37.9446 50.5978 38.7747 52.2341 38.8825V40.4994H53.483V38.8717C55.2485 38.7208 60.05 37.7829 64.044 31.9296C67.7474 26.4966 67.4675 22.2062 67.0799 20.3413L70.5034 15.609L70.0835 15.3288L66.9185 19.7053C66.9185 19.7053 66.9077 19.673 66.8969 19.6514L70.8694 13.4854L70.4388 13.2267L66.4878 19.3604C65.4328 19.4359 61.794 19.9425 57.9507 23.586C57.9507 23.4567 57.9507 23.3273 57.9507 23.198C57.7784 13.507 54.2796 9.03341 53.1492 7.83686L53.1923 0H52.6863L52.6325 7.63205H52.6109Z" fill="white"/>
</mask>
<g mask="url(#mask6_1725_29180)">
<path d="M39.4506 -12.0737L21.25 35.3037L66.1841 52.6109L84.3847 5.2335L39.4506 -12.0737Z" fill="url(#paint6_linear_1725_29180)"/>
</g>
<path d="M7.27638 45.8569L6.82422 44.3369L14.4355 44.725L14.9307 46.3851L8.78356 50.8802L8.32064 49.3172L9.60175 48.4548L8.83739 45.9108L7.27638 45.8569ZM10.14 45.9323L10.6675 47.6894L13.1329 46.0186V45.997L10.14 45.9323Z" fill="white"/>
<path d="M15.5243 54.0706L17.3975 56.4206L14.3724 58.8352L13.748 58.0483L14.3616 57.3692C13.7802 57.3476 12.9298 57.3153 12.1116 56.2912C11.035 54.933 11.0242 52.9279 12.9944 51.3649C14.5231 50.1468 16.6439 49.8449 18.1403 51.7314H18.1511C19.5291 53.4669 18.9477 55.0408 18.2265 55.7307L17.2898 54.5557C17.5052 54.3832 17.8927 53.4238 17.236 52.5938C16.5685 51.7529 15.3736 51.4403 13.931 52.5938C12.3915 53.8119 12.6606 54.9761 13.2958 55.7738C13.5003 56.0325 14.2862 56.8086 15.6104 56.1511L14.5661 54.8467L15.5135 54.0921L15.5243 54.0706Z" fill="white"/>
<path d="M21.1968 55.2783L24.405 56.9923C26.0844 57.887 25.7291 59.2992 25.4385 59.8489C25.0617 60.5496 24.3942 60.9592 23.6514 60.8407C24.0497 61.3473 24.2327 61.6923 23.5975 62.878C23.1023 63.8051 22.9839 64.0315 23.21 64.2902L23.1239 64.4626L21.6597 63.6757C21.7351 63.3308 21.8535 62.975 22.198 62.3175C22.6609 61.4551 22.7794 61.0886 21.8105 60.5604L20.4432 59.8274L19.119 62.3067L17.8164 61.6168L21.1968 55.2783ZM22.564 59.5902C23.253 59.9567 23.716 59.9028 24.0497 59.2668C24.2327 58.9326 24.3404 58.3613 23.5653 57.9409L21.9181 57.057L21.0138 58.7494L22.564 59.5794V59.5902Z" fill="white"/>
<path d="M28.0296 58.2827L26.582 65.3252L28.0477 65.6273L29.4953 58.5848L28.0296 58.2827Z" fill="white"/>
<path d="M32.748 63.8369C32.7911 64.2357 33.0495 64.9795 34.3521 64.8825C35.0626 64.8286 35.8378 64.6022 35.7732 63.8369C35.7301 63.2763 35.1811 63.1685 34.4059 63.05L33.62 62.9314C32.4466 62.7481 31.3054 62.5757 31.187 61.0018C31.1224 60.2041 31.4454 58.7596 33.7708 58.5872C35.9669 58.4255 36.6667 59.816 36.7421 60.6892L35.3102 60.797C35.2457 60.4844 35.0734 59.7298 33.76 59.8268C33.1894 59.8699 32.5327 60.1287 32.5758 60.7754C32.6188 61.336 33.0818 61.4222 33.394 61.4653L35.1703 61.7564C36.1715 61.9181 37.0973 62.2523 37.1942 63.5351C37.3557 65.691 35.1811 66.0467 34.5459 66.1006C31.9298 66.3054 31.37 64.8286 31.3054 63.9339L32.7373 63.8261L32.748 63.8369Z" fill="white"/>
<path d="M43.4168 57.0128L39.9718 58.6405L40.6178 60.0096L43.7829 58.5112L44.3319 59.6646L41.1668 61.163L41.9635 62.8446L45.5592 61.1414L46.1082 62.2841L41.1776 64.6233L38.1094 58.1231L42.8785 55.8594L43.4168 57.0128Z" fill="white"/>
<path d="M48.9923 53.2082C48.5939 53.0034 47.8403 52.6153 47.0006 53.5316C46.5054 54.0598 46.1394 55.1593 47.625 56.5499C48.5724 57.4339 49.7674 57.8435 50.6286 56.9164C51.1992 56.302 51.2423 55.5582 50.7255 54.8252L51.7483 53.7256C52.6849 55.0084 52.7925 56.5068 51.5652 57.8219C50.2626 59.2233 48.3894 59.3419 46.57 57.6602C44.7291 55.9463 44.7829 54.0167 46.0425 52.6584C47.5066 51.0846 49.186 51.4511 50.015 52.1195L48.9923 53.219V53.2082Z" fill="white"/>
<path d="M49.8014 46.3738C50.1137 45.4791 51.3409 43.2585 54.5168 44.3796C57.6927 45.5114 57.2405 48.0016 56.9283 48.907C56.6161 49.8018 55.3888 52.0224 52.213 50.9013C49.0371 49.7694 49.4892 47.2793 49.8014 46.3738ZM55.7333 48.4759C56.0025 47.7105 55.9163 46.4708 54.0216 45.7917C52.1268 45.1234 51.2763 46.0289 51.0072 46.7942C50.7381 47.5596 50.8242 48.7992 52.7189 49.4784C54.6137 50.1575 55.4642 49.2412 55.7333 48.4759Z" fill="white"/>
<mask id="mask7_1725_29180" style="mask-type:luminance" maskUnits="userSpaceOnUse" x="123" y="45" width="9" height="11">
<path d="M125.596 46.5247C124.832 46.9559 124.218 47.5488 123.777 48.2926C123.335 49.0364 123.109 49.8664 123.109 50.7611C123.109 51.6559 123.325 52.4967 123.766 53.2513C124.207 54.0058 124.8 54.5987 125.564 55.0299C126.328 55.4611 127.157 55.6767 128.072 55.6767C128.729 55.6767 129.386 55.5366 130.021 55.2671C130.656 54.9976 131.227 54.6203 131.711 54.146L130.914 53.2836C130.538 53.6393 130.107 53.9196 129.623 54.1352C129.138 54.34 128.643 54.4478 128.137 54.4478C127.459 54.4478 126.834 54.2861 126.274 53.9519C125.704 53.6178 125.262 53.1758 124.929 52.6045C124.595 52.0332 124.434 51.4187 124.434 50.7504C124.434 50.082 124.595 49.446 124.929 48.8855C125.262 48.3249 125.704 47.8722 126.274 47.5488C126.845 47.2146 127.459 47.0529 128.137 47.0529C128.654 47.0529 129.149 47.1607 129.633 47.3763C130.118 47.5919 130.548 47.8937 130.914 48.271L131.7 47.3224C131.248 46.8589 130.699 46.5139 130.075 46.2552C129.45 46.0073 128.804 45.8779 128.137 45.8779C127.211 45.8779 126.361 46.0935 125.596 46.5247Z" fill="white"/>
</mask>
<g mask="url(#mask7_1725_29180)">
<path d="M131.722 45.8887H123.109V55.6874H131.722V45.8887Z" fill="url(#paint7_linear_1725_29180)"/>
</g>
<mask id="mask8_1725_29180" style="mask-type:luminance" maskUnits="userSpaceOnUse" x="133" y="45" width="8" height="11">
<path d="M133.508 45.3936V55.5912H134.778V52.0231C134.778 51.2793 134.983 50.6756 135.392 50.2121C135.801 49.7486 136.361 49.5114 137.071 49.5006C137.674 49.5006 138.148 49.6731 138.492 50.0181C138.837 50.363 139.009 50.8373 139.009 51.4518V55.602H140.29V51.1068C140.29 50.2229 140.043 49.533 139.558 49.0371C139.074 48.5412 138.406 48.2825 137.556 48.2825C136.188 48.3041 135.263 48.8431 134.778 49.8887V45.3936H133.508Z" fill="white"/>
</mask>
<g mask="url(#mask8_1725_29180)">
<path d="M140.29 45.3936H133.508V55.5912H140.29V45.3936Z" fill="url(#paint8_linear_1725_29180)"/>
</g>
<mask id="mask9_1725_29180" style="mask-type:luminance" maskUnits="userSpaceOnUse" x="141" y="45" width="8" height="11">
<path d="M143.585 54.2546C143.305 54.039 143.154 53.7372 143.154 53.3599C143.154 52.9826 143.294 52.7131 143.574 52.5407C143.854 52.3682 144.284 52.2819 144.855 52.2819H146.987V53.015C146.9 53.4893 146.653 53.8773 146.233 54.1576C145.813 54.4487 145.307 54.5888 144.715 54.5888C144.241 54.5888 143.865 54.481 143.574 54.2546M143.8 48.4983C143.359 48.6492 142.874 48.8971 142.347 49.2313L142.885 50.1152C143.638 49.5978 144.392 49.3283 145.124 49.3283C145.727 49.3283 146.19 49.4684 146.502 49.7487C146.814 50.029 146.976 50.4278 146.976 50.9345V51.2794H144.672C143.811 51.2794 143.143 51.4842 142.659 51.8615C142.185 52.2388 141.938 52.7563 141.938 53.403C141.938 53.8234 142.045 54.2007 142.25 54.5457C142.454 54.8799 142.745 55.1494 143.132 55.3434C143.509 55.5374 143.951 55.6344 144.457 55.6344C145.609 55.6344 146.459 55.2787 146.997 54.5673V55.5805H148.257V50.7943C148.235 49.9966 147.977 49.3714 147.493 48.9295C146.997 48.4875 146.298 48.2611 145.393 48.2611C144.78 48.2611 144.252 48.3366 143.811 48.4875M146.19 45.3506C146.168 45.6309 146.071 45.8572 145.899 46.0405C145.727 46.2237 145.512 46.3208 145.253 46.3208C144.995 46.3208 144.78 46.2345 144.607 46.0405C144.435 45.8572 144.338 45.6309 144.317 45.3506H143.423C143.445 45.9004 143.617 46.3423 143.961 46.6873C144.306 47.0322 144.737 47.1939 145.253 47.1939C145.77 47.1939 146.19 47.0214 146.534 46.6873C146.879 46.3531 147.062 45.9004 147.073 45.3506H146.179H146.19Z" fill="white"/>
</mask>
<g mask="url(#mask9_1725_29180)">
<path d="M148.269 45.3613H141.949V55.6452H148.269V45.3613Z" fill="url(#paint9_linear_1725_29180)"/>
</g>
<mask id="mask10_1725_29180" style="mask-type:luminance" maskUnits="userSpaceOnUse" x="150" y="48" width="13" height="8">
<path d="M157.084 50.1041C156.922 49.522 156.631 49.08 156.179 48.7566C155.738 48.4332 155.178 48.2715 154.511 48.2715C153.186 48.2931 152.282 48.8105 151.808 49.8346V48.3039H150.527V55.5694H151.808V51.9797C151.808 51.2467 152.002 50.6431 152.401 50.1795C152.799 49.716 153.337 49.4681 154.026 49.4573C154.618 49.4573 155.081 49.6298 155.415 49.9747C155.738 50.3197 155.91 50.8048 155.91 51.4192V55.5694H157.202V51.9797C157.202 51.2467 157.396 50.6431 157.794 50.1795C158.192 49.716 158.731 49.4681 159.42 49.4573C160.001 49.4573 160.464 49.6298 160.798 49.9747C161.131 50.3197 161.304 50.8048 161.304 51.4192V55.5694H162.596V51.0743C162.596 50.2011 162.359 49.5112 161.885 49.0153C161.411 48.5087 160.755 48.2607 159.926 48.2607C158.483 48.2823 157.547 48.886 157.094 50.0933" fill="white"/>
</mask>
<g mask="url(#mask10_1725_29180)">
<path d="M162.597 48.2715H150.539V55.5801H162.597V48.2715Z" fill="url(#paint10_linear_1725_29180)"/>
</g>
<mask id="mask11_1725_29180" style="mask-type:luminance" maskUnits="userSpaceOnUse" x="168" y="45" width="2" height="11">
<path d="M169.808 45.3936H168.527V55.5912H169.808V45.3936Z" fill="white"/>
</mask>
<g mask="url(#mask11_1725_29180)">
<path d="M169.808 45.3936H168.527V55.5912H169.808V45.3936Z" fill="url(#paint11_linear_1725_29180)"/>
</g>
<mask id="mask12_1725_29180" style="mask-type:luminance" maskUnits="userSpaceOnUse" x="171" y="48" width="9" height="8">
<path d="M174.125 54.2219C173.749 54.0063 173.469 53.7044 173.264 53.3056C173.06 52.9175 172.952 52.4648 172.952 51.9581C172.952 51.4515 173.049 51.0203 173.264 50.6322C173.469 50.2441 173.759 49.9423 174.125 49.7159C174.492 49.5003 174.922 49.3818 175.396 49.3818C175.87 49.3818 176.279 49.4896 176.655 49.7159C177.021 49.9315 177.312 50.2441 177.517 50.6322C177.721 51.0203 177.829 51.4622 177.829 51.9581C177.829 52.454 177.721 52.9175 177.517 53.3056C177.312 53.7044 177.021 54.0063 176.655 54.2219C176.289 54.4375 175.87 54.5452 175.396 54.5452C174.922 54.5452 174.492 54.4375 174.125 54.2219ZM173.458 48.7458C172.898 49.0584 172.457 49.4896 172.134 50.0501C171.822 50.5999 171.66 51.2359 171.66 51.9581C171.66 52.6804 171.822 53.3164 172.134 53.8769C172.446 54.4267 172.887 54.8686 173.458 55.1705C174.018 55.4831 174.664 55.634 175.396 55.634C176.128 55.634 176.763 55.4831 177.323 55.1705C177.883 54.8579 178.324 54.4267 178.636 53.8661C178.948 53.3056 179.11 52.6696 179.11 51.9581C179.11 51.2467 178.948 50.6106 178.636 50.0501C178.324 49.5003 177.883 49.0584 177.323 48.7458C176.763 48.4331 176.117 48.2822 175.396 48.2822C174.675 48.2822 174.018 48.4439 173.458 48.7458Z" fill="white"/>
</mask>
<g mask="url(#mask12_1725_29180)">
<path d="M179.11 48.2715H171.66V55.6233H179.11V48.2715Z" fill="url(#paint12_linear_1725_29180)"/>
</g>
<mask id="mask13_1725_29180" style="mask-type:luminance" maskUnits="userSpaceOnUse" x="183" y="48" width="8" height="11">
<path d="M185.647 53.5427C185.216 53.0899 185.001 52.4971 184.99 51.7856C184.99 51.3113 185.087 50.8801 185.291 50.5136C185.496 50.1363 185.765 49.856 186.12 49.6404C186.476 49.4248 186.874 49.3278 187.315 49.3278C187.757 49.3278 188.166 49.4356 188.51 49.6404C188.855 49.856 189.135 50.1363 189.329 50.5136C189.522 50.8801 189.619 51.3113 189.619 51.7856C189.619 52.2599 189.522 52.6695 189.329 53.0468C189.135 53.4133 188.855 53.7044 188.51 53.92C188.166 54.1356 187.767 54.2434 187.315 54.2434C186.626 54.2434 186.067 54.017 185.636 53.5535M185.345 48.7349C184.85 49.026 184.462 49.4356 184.183 49.953C183.913 50.4813 183.773 51.0741 183.773 51.7533C183.773 52.4324 183.913 53.0468 184.183 53.5858C184.452 54.114 184.839 54.5344 185.345 54.8255C185.84 55.1273 186.422 55.2674 187.068 55.2674C187.638 55.2674 188.144 55.1489 188.575 54.9009C189.016 54.653 189.361 54.3188 189.619 53.8769V54.9009C189.619 55.6016 189.393 56.1729 188.941 56.5934C188.489 57.0138 187.897 57.2294 187.143 57.2294C186.68 57.2294 186.26 57.1539 185.884 57.0138C185.496 56.8736 185.13 56.658 184.775 56.3562L184.215 57.294C185.141 57.9732 186.131 58.3073 187.208 58.3073C187.951 58.3073 188.596 58.1672 189.156 57.8869C189.716 57.6067 190.147 57.2078 190.448 56.6904C190.76 56.1622 190.911 55.5585 190.911 54.8578V48.3253H189.619V49.662C189.361 49.22 189.016 48.8859 188.586 48.6487C188.155 48.4115 187.649 48.293 187.068 48.293C186.422 48.293 185.84 48.4439 185.345 48.7349Z" fill="white"/>
</mask>
<g mask="url(#mask13_1725_29180)">
<path d="M190.923 48.2715H183.785V58.2966H190.923V48.2715Z" fill="url(#paint13_linear_1725_29180)"/>
</g>
<mask id="mask14_1725_29180" style="mask-type:luminance" maskUnits="userSpaceOnUse" x="193" y="45" width="2" height="11">
<path d="M193.259 55.5901H194.529V48.3246H193.259V55.5901ZM193.324 45.6512C193.173 45.8021 193.098 46.0069 193.098 46.2441C193.098 46.4813 193.173 46.6753 193.324 46.837C193.474 46.9987 193.668 47.0741 193.894 47.0741C194.12 47.0741 194.314 46.9987 194.465 46.837C194.616 46.6861 194.691 46.4813 194.691 46.2441C194.691 46.0069 194.616 45.8129 194.465 45.6512C194.314 45.5003 194.12 45.4141 193.894 45.4141C193.668 45.4141 193.474 45.4895 193.324 45.6512Z" fill="white"/>
</mask>
<g mask="url(#mask14_1725_29180)">
<path d="M194.691 45.4141H193.098V55.5793H194.691V45.4141Z" fill="url(#paint14_linear_1725_29180)"/>
</g>
<mask id="mask15_1725_29180" style="mask-type:luminance" maskUnits="userSpaceOnUse" x="196" y="48" width="8" height="8">
<path d="M198.336 49.9099C198.767 49.5219 199.295 49.3386 199.941 49.3386C200.586 49.3386 201.125 49.5326 201.534 49.9099C201.943 50.2872 202.158 50.8046 202.191 51.473H197.583C197.669 50.8262 197.917 50.3088 198.347 49.9207M198.057 48.7565C197.507 49.0691 197.077 49.5111 196.775 50.0608C196.463 50.6106 196.312 51.2466 196.312 51.9581C196.312 52.6695 196.463 53.3163 196.775 53.8661C197.077 54.4266 197.507 54.8578 198.067 55.1704C198.616 55.483 199.252 55.634 199.973 55.634C200.586 55.634 201.146 55.5262 201.652 55.3214C202.158 55.1058 202.589 54.8147 202.944 54.4266L202.244 53.7044C201.964 53.9847 201.652 54.211 201.275 54.362C200.909 54.5236 200.5 54.5991 200.07 54.5991C199.424 54.5991 198.875 54.4051 198.433 54.017C197.992 53.6289 197.712 53.1115 197.615 52.4647H203.353C203.353 52.3677 203.364 52.2383 203.364 52.0551C203.364 50.8693 203.073 49.953 202.503 49.2847C201.921 48.6164 201.071 48.293 199.951 48.293C199.241 48.293 198.616 48.4547 198.067 48.7673" fill="white"/>
</mask>
<g mask="url(#mask15_1725_29180)">
<path d="M203.341 48.2715H196.301V55.6233H203.341V48.2715Z" fill="url(#paint15_linear_1725_29180)"/>
</g>
<mask id="mask16_1725_29180" style="mask-type:luminance" maskUnits="userSpaceOnUse" x="204" y="48" width="8" height="8">
<path d="M206.833 54.2219C206.456 54.0063 206.176 53.7044 205.971 53.3056C205.767 52.9175 205.659 52.4648 205.659 51.9581C205.659 51.4515 205.767 51.0203 205.971 50.6322C206.176 50.2441 206.466 49.9423 206.833 49.7159C207.209 49.5003 207.629 49.3818 208.103 49.3818C208.577 49.3818 208.986 49.4896 209.362 49.7159C209.739 49.9315 210.019 50.2441 210.224 50.6322C210.428 51.0203 210.536 51.4622 210.536 51.9581C210.536 52.454 210.428 52.9175 210.224 53.3056C210.019 53.7044 209.728 54.0063 209.362 54.2219C208.996 54.4375 208.577 54.5452 208.103 54.5452C207.629 54.5452 207.209 54.4375 206.833 54.2219ZM206.154 48.7458C205.594 49.0584 205.153 49.4896 204.841 50.0501C204.529 50.5999 204.367 51.2359 204.367 51.9581C204.367 52.6804 204.529 53.3164 204.841 53.8769C205.153 54.4267 205.594 54.8686 206.154 55.1705C206.714 55.4831 207.36 55.634 208.103 55.634C208.846 55.634 209.47 55.4831 210.03 55.1705C210.59 54.8579 211.031 54.4267 211.343 53.8661C211.656 53.3056 211.817 52.6696 211.817 51.9581C211.817 51.2467 211.656 50.6106 211.343 50.0501C211.031 49.5003 210.59 49.0584 210.03 48.7458C209.47 48.4331 208.824 48.2822 208.103 48.2822C207.382 48.2822 206.725 48.4439 206.154 48.7458Z" fill="white"/>
</mask>
<g mask="url(#mask16_1725_29180)">
<path d="M211.829 48.2725H204.379V55.6242H211.829V48.2725Z" fill="url(#paint16_linear_1725_29180)"/>
</g>
<mask id="mask17_1725_29180" style="mask-type:luminance" maskUnits="userSpaceOnUse" x="216" y="46" width="6" height="10">
<path d="M217.471 46.6113V48.5625H216.438V49.5326H217.471V53.5643C217.471 54.2649 217.654 54.7824 218.009 55.1273C218.365 55.4723 218.838 55.6447 219.409 55.6447C219.979 55.6447 220.55 55.4615 221.11 55.1058L220.765 54.114C220.356 54.3404 219.99 54.459 219.635 54.459C219.344 54.459 219.118 54.3727 218.978 54.2003C218.827 54.0278 218.763 53.7367 218.763 53.3379V49.5434H220.991V48.5732H218.763V46.6221H217.471V46.6113Z" fill="white"/>
</mask>
<g mask="url(#mask17_1725_29180)">
<path d="M221.099 46.6113H216.438V55.6447H221.099V46.6113Z" fill="url(#paint17_linear_1725_29180)"/>
</g>
<mask id="mask18_1725_29180" style="mask-type:luminance" maskUnits="userSpaceOnUse" x="222" y="48" width="5" height="8">
<path d="M224.95 48.6919C224.509 48.9614 224.175 49.3603 223.938 49.8777V48.3146H222.668V55.5802H223.938V51.7426C224.003 51.0419 224.261 50.4921 224.724 50.0825C225.176 49.6729 225.779 49.4789 226.522 49.5004V48.2607C225.919 48.2607 225.392 48.4117 224.961 48.6812" fill="white"/>
</mask>
<g mask="url(#mask18_1725_29180)">
<path d="M226.51 48.2715H222.656V55.5801H226.51V48.2715Z" fill="url(#paint18_linear_1725_29180)"/>
</g>
<mask id="mask19_1725_29180" style="mask-type:luminance" maskUnits="userSpaceOnUse" x="227" y="43" width="8" height="13">
<path d="M229.646 54.221C229.28 54.0054 228.989 53.7036 228.785 53.3047C228.58 52.9167 228.473 52.4639 228.473 51.9573C228.473 51.4506 228.58 51.0194 228.785 50.6314C228.989 50.2433 229.28 49.9415 229.646 49.7151C230.023 49.4995 230.443 49.3809 230.916 49.3809C231.39 49.3809 231.799 49.4887 232.176 49.7151C232.542 49.9307 232.833 50.2433 233.037 50.6314C233.242 51.0194 233.349 51.4614 233.349 51.9573C233.349 52.4531 233.242 52.9167 233.037 53.3047C232.833 53.7036 232.542 54.0054 232.176 54.221C231.81 54.4366 231.39 54.5444 230.916 54.5444C230.443 54.5444 230.023 54.4366 229.646 54.221ZM228.979 48.7449C228.419 49.0575 227.977 49.4887 227.665 50.0493C227.353 50.599 227.191 51.235 227.191 51.9573C227.191 52.6795 227.353 53.3155 227.665 53.8761C227.977 54.4258 228.419 54.8678 228.979 55.1696C229.538 55.4823 230.184 55.6332 230.916 55.6332C231.648 55.6332 232.284 55.4823 232.843 55.1696C233.403 54.857 233.845 54.4258 234.157 53.8653C234.469 53.3047 234.63 52.6687 234.63 51.9573C234.63 51.2458 234.469 50.6098 234.157 50.0493C233.845 49.4995 233.403 49.0575 232.843 48.7449C232.284 48.4323 231.638 48.2814 230.916 48.2814C230.195 48.2814 229.538 48.4431 228.979 48.7449ZM230.012 45.9422L228.559 47.2573H229.937L230.927 46.492L231.907 47.2573H233.274L231.81 45.9422H230.023H230.012ZM228.871 44.4869L230.776 45.5218L231.756 45.2199L229.969 43.7539L228.871 44.4977V44.4869Z" fill="white"/>
</mask>
<g mask="url(#mask19_1725_29180)">
<path d="M234.641 43.7432H227.191V55.6332H234.641V43.7432Z" fill="url(#paint19_linear_1725_29180)"/>
</g>
<mask id="mask20_1725_29180" style="mask-type:luminance" maskUnits="userSpaceOnUse" x="236" y="48" width="8" height="8">
<path d="M237.696 49.8561V48.3146H236.426V55.5802H237.696V51.6887C237.75 51.0419 237.987 50.5029 238.385 50.1041C238.794 49.6944 239.322 49.4896 239.968 49.4789C240.571 49.4789 241.044 49.6513 241.389 49.9963C241.733 50.3412 241.905 50.8155 241.905 51.43V55.5802H243.187V51.085C243.187 50.2011 242.939 49.5112 242.455 49.0153C241.97 48.5195 241.303 48.2607 240.452 48.2607C239.096 48.2823 238.181 48.8105 237.696 49.8454" fill="white"/>
</mask>
<g mask="url(#mask20_1725_29180)">
<path d="M243.197 48.2715H236.426V55.5801H243.197V48.2715Z" fill="url(#paint20_linear_1725_29180)"/>
</g>
<mask id="mask21_1725_29180" style="mask-type:luminance" maskUnits="userSpaceOnUse" x="244" y="48" width="8" height="11">
<path d="M246.624 53.5427C246.194 53.0899 245.978 52.4971 245.967 51.7856C245.967 51.3113 246.064 50.8801 246.269 50.5136C246.473 50.1363 246.743 49.856 247.098 49.6404C247.453 49.4248 247.851 49.3278 248.304 49.3278C248.756 49.3278 249.154 49.4356 249.499 49.6404C249.843 49.856 250.123 50.1363 250.317 50.5136C250.511 50.8801 250.618 51.3113 250.618 51.7856C250.618 52.2599 250.521 52.6695 250.317 53.0468C250.123 53.4133 249.854 53.7044 249.499 53.92C249.154 54.1356 248.756 54.2434 248.304 54.2434C247.615 54.2434 247.055 54.017 246.624 53.5535M246.334 48.7349C245.838 49.026 245.451 49.4356 245.171 49.953C244.902 50.4813 244.762 51.0741 244.762 51.7533C244.762 52.4324 244.902 53.0468 245.171 53.5858C245.451 54.114 245.828 54.5344 246.334 54.8255C246.829 55.1273 247.41 55.2674 248.056 55.2674C248.627 55.2674 249.122 55.1489 249.563 54.9009C250.005 54.653 250.349 54.3188 250.607 53.8769V54.9009C250.607 55.6016 250.381 56.1729 249.94 56.5934C249.488 57.0138 248.896 57.2294 248.142 57.2294C247.679 57.2294 247.259 57.1539 246.883 57.0138C246.495 56.8736 246.129 56.658 245.774 56.3562L245.214 57.294C246.14 57.9732 247.13 58.3073 248.207 58.3073C248.95 58.3073 249.595 58.1672 250.155 57.8869C250.715 57.6067 251.146 57.2078 251.458 56.6904C251.77 56.1622 251.921 55.5585 251.921 54.8578V48.3253H250.629V49.662C250.371 49.22 250.026 48.8859 249.595 48.6487C249.165 48.4115 248.659 48.293 248.078 48.293C247.432 48.293 246.85 48.4439 246.355 48.7349" fill="white"/>
</mask>
<g mask="url(#mask21_1725_29180)">
<path d="M251.899 48.2715H244.762V58.2966H251.899V48.2715Z" fill="url(#paint21_linear_1725_29180)"/>
</g>
<mask id="mask22_1725_29180" style="mask-type:luminance" maskUnits="userSpaceOnUse" x="257" y="45" width="9" height="11">
<path d="M259.585 54.2427C259.208 54.0271 258.928 53.7361 258.713 53.3588C258.497 52.9815 258.4 52.5611 258.4 52.0868C258.4 51.6125 258.508 51.1813 258.713 50.804C258.928 50.4267 259.208 50.1357 259.585 49.9201C259.951 49.7045 260.381 49.5967 260.855 49.5967C261.329 49.5967 261.748 49.7045 262.114 49.9201C262.491 50.1357 262.782 50.4267 262.997 50.804C263.213 51.1813 263.309 51.6017 263.309 52.0868C263.309 52.5719 263.202 52.9923 262.997 53.3588C262.782 53.7361 262.491 54.0271 262.114 54.2427C261.738 54.4583 261.318 54.5553 260.855 54.5553C260.392 54.5553 259.961 54.4476 259.585 54.2427ZM263.309 45.3926V46.6107H260.36V47.4084H263.309V50.0494C263.03 49.5643 262.642 49.187 262.157 48.9068C261.673 48.6265 261.135 48.4864 260.532 48.4864C259.864 48.4864 259.272 48.6373 258.756 48.9391C258.239 49.2409 257.83 49.6614 257.539 50.2003C257.248 50.7393 257.098 51.3645 257.098 52.0544C257.098 52.7444 257.248 53.3696 257.539 53.9193C257.83 54.4691 258.239 54.8895 258.766 55.2021C259.294 55.504 259.886 55.6657 260.553 55.6657C261.146 55.6657 261.684 55.5255 262.157 55.256C262.631 54.9758 263.008 54.5985 263.299 54.1026V55.601H264.58V47.4192H265.581V46.6215H264.58V45.4034H263.299L263.309 45.3926Z" fill="white"/>
</mask>
<g mask="url(#mask22_1725_29180)">
<path d="M265.593 45.3926H257.109V55.6549H265.593V45.3926Z" fill="url(#paint22_linear_1725_29180)"/>
</g>
<mask id="mask23_1725_29180" style="mask-type:luminance" maskUnits="userSpaceOnUse" x="266" y="43" width="8" height="13">
<path d="M268.895 54.221C268.529 54.0054 268.238 53.7036 268.034 53.3047C267.829 52.9167 267.722 52.4639 267.722 51.9573C267.722 51.4506 267.829 51.0194 268.034 50.6314C268.238 50.2433 268.529 49.9415 268.895 49.7151C269.272 49.4995 269.692 49.3809 270.165 49.3809C270.639 49.3809 271.048 49.4887 271.425 49.7151C271.791 49.9307 272.082 50.2433 272.286 50.6314C272.491 51.0194 272.598 51.4614 272.598 51.9573C272.598 52.4531 272.491 52.9167 272.286 53.3047C272.082 53.7036 271.791 54.0054 271.425 54.221C271.059 54.4366 270.639 54.5444 270.165 54.5444C269.692 54.5444 269.272 54.4366 268.895 54.221ZM268.228 48.7449C267.668 49.0575 267.226 49.4887 266.903 50.0493C266.591 50.599 266.43 51.235 266.43 51.9573C266.43 52.6795 266.591 53.3155 266.903 53.8761C267.226 54.4258 267.657 54.8678 268.228 55.1696C268.787 55.4823 269.433 55.6332 270.165 55.6332C270.897 55.6332 271.533 55.4823 272.092 55.1696C272.652 54.857 273.094 54.4258 273.406 53.8653C273.718 53.3047 273.879 52.6687 273.879 51.9573C273.879 51.2458 273.718 50.6098 273.406 50.0493C273.094 49.4995 272.652 49.0575 272.092 48.7449C271.533 48.4323 270.887 48.2814 270.165 48.2814C269.444 48.2814 268.787 48.4431 268.228 48.7449ZM269.261 45.9422L267.808 47.2573H269.175L270.165 46.492L271.134 47.2573H272.512L271.048 45.9422H269.261ZM268.12 44.4869L270.025 45.5218L271.005 45.2199L269.218 43.7539L268.12 44.4977V44.4869Z" fill="white"/>
</mask>
<g mask="url(#mask23_1725_29180)">
<path d="M273.879 43.7432H266.43V55.6332H273.879V43.7432Z" fill="url(#paint23_linear_1725_29180)"/>
</g>
<mask id="mask24_1725_29180" style="mask-type:luminance" maskUnits="userSpaceOnUse" x="275" y="48" width="8" height="8">
<path d="M276.949 49.8561V48.3146H275.668V55.5802H276.949V51.6887C277.003 51.0419 277.24 50.5029 277.638 50.1041C278.047 49.6944 278.575 49.4896 279.221 49.4789C279.824 49.4789 280.297 49.6513 280.642 49.9963C280.986 50.3412 281.158 50.8155 281.158 51.43V55.5802H282.429V51.085C282.429 50.2011 282.181 49.5112 281.697 49.0153C281.212 48.5195 280.545 48.2607 279.694 48.2607C278.338 48.2823 277.423 48.8105 276.938 49.8454" fill="white"/>
</mask>
<g mask="url(#mask24_1725_29180)">
<path d="M282.44 48.2715H275.668V55.5801H282.44V48.2715Z" fill="url(#paint24_linear_1725_29180)"/>
</g>
<mask id="mask25_1725_29180" style="mask-type:luminance" maskUnits="userSpaceOnUse" x="284" y="48" width="8" height="11">
<path d="M285.863 53.5427C285.433 53.0899 285.217 52.4971 285.207 51.7856C285.207 51.3113 285.304 50.8801 285.508 50.5136C285.713 50.1363 285.982 49.856 286.337 49.6404C286.692 49.4248 287.091 49.3278 287.543 49.3278C287.995 49.3278 288.393 49.4356 288.738 49.6404C289.082 49.856 289.351 50.1363 289.556 50.5136C289.75 50.8801 289.847 51.3113 289.847 51.7856C289.847 52.2599 289.75 52.6695 289.556 53.0468C289.362 53.4133 289.082 53.7044 288.738 53.92C288.393 54.1356 287.995 54.2434 287.543 54.2434C286.854 54.2434 286.294 54.017 285.874 53.5535M285.583 48.7349C285.088 49.026 284.701 49.4356 284.421 49.953C284.152 50.4813 284.012 51.0741 284.012 51.7533C284.012 52.4324 284.152 53.0468 284.421 53.5858C284.701 54.114 285.078 54.5344 285.583 54.8255C286.079 55.1273 286.66 55.2674 287.306 55.2674C287.877 55.2674 288.372 55.1489 288.813 54.9009C289.255 54.653 289.599 54.3188 289.857 53.8769V54.9009C289.857 55.6016 289.631 56.1729 289.19 56.5934C288.738 57.0138 288.146 57.2294 287.392 57.2294C286.94 57.2294 286.509 57.1539 286.133 57.0138C285.745 56.8736 285.379 56.658 285.024 56.3562L284.464 57.294C285.39 57.9732 286.391 58.3073 287.457 58.3073C288.2 58.3073 288.845 58.1672 289.405 57.8869C289.965 57.6067 290.396 57.2078 290.697 56.6904C291.009 56.1622 291.16 55.5585 291.16 54.8578V48.3253H289.868V49.662C289.61 49.22 289.265 48.8859 288.835 48.6487C288.404 48.4115 287.898 48.293 287.317 48.293C286.671 48.293 286.089 48.4439 285.594 48.7349" fill="white"/>
</mask>
<g mask="url(#mask25_1725_29180)">
<path d="M291.138 48.2715H284V58.2966H291.138V48.2715Z" fill="url(#paint25_linear_1725_29180)"/>
</g>
<mask id="mask26_1725_29180" style="mask-type:luminance" maskUnits="userSpaceOnUse" x="295" y="48" width="8" height="8">
<path d="M301.569 48.3145L299.405 54.3188L297.22 48.3145H295.863L298.705 55.5908H300.03L302.861 48.3145H301.569Z" fill="white"/>
</mask>
<g mask="url(#mask26_1725_29180)">
<path d="M302.861 48.3145H295.863V55.58H302.861V48.3145Z" fill="url(#paint26_linear_1725_29180)"/>
</g>
<mask id="mask27_1725_29180" style="mask-type:luminance" maskUnits="userSpaceOnUse" x="303" y="43" width="8" height="13">
<path d="M305.575 54.2221C305.209 54.0065 304.918 53.7046 304.713 53.3058C304.509 52.9177 304.401 52.465 304.401 51.9583C304.401 51.4517 304.509 51.0205 304.713 50.6324C304.918 50.2444 305.209 49.9425 305.575 49.7161C305.941 49.5006 306.371 49.382 306.845 49.382C307.319 49.382 307.728 49.4898 308.105 49.7161C308.481 49.9317 308.761 50.2444 308.966 50.6324C309.17 51.0205 309.278 51.4625 309.278 51.9583C309.278 52.4542 309.17 52.9177 308.966 53.3058C308.761 53.7046 308.471 54.0065 308.105 54.2221C307.739 54.4377 307.319 54.5455 306.845 54.5455C306.371 54.5455 305.952 54.4377 305.575 54.2221ZM304.907 48.746C304.347 49.0586 303.906 49.4898 303.583 50.0503C303.271 50.6001 303.109 51.2361 303.109 51.9583C303.109 52.6806 303.271 53.3166 303.583 53.8771C303.895 54.4269 304.337 54.8689 304.907 55.1707C305.467 55.4833 306.113 55.6342 306.845 55.6342C307.577 55.6342 308.212 55.4833 308.772 55.1707C309.332 54.8581 309.773 54.4269 310.086 53.8663C310.398 53.3058 310.559 52.6698 310.559 51.9583C310.559 51.2469 310.398 50.6109 310.086 50.0503C309.773 49.5005 309.332 49.0586 308.772 48.746C308.212 48.4334 307.566 48.2824 306.845 48.2824C306.124 48.2824 305.467 48.4441 304.907 48.746ZM305.941 45.9432L304.487 47.2584H305.855L306.845 46.493L307.825 47.2584H309.192L307.728 45.9432H305.941ZM305.887 45.2102L306.856 45.5121L308.761 44.4772L307.663 43.7334L305.876 45.1994L305.887 45.2102Z" fill="white"/>
</mask>
<g mask="url(#mask27_1725_29180)">
<path d="M310.559 43.7441H303.109V55.6342H310.559V43.7441Z" fill="url(#paint27_linear_1725_29180)"/>
</g>
<mask id="mask28_1725_29180" style="mask-type:luminance" maskUnits="userSpaceOnUse" x="312" y="48" width="8" height="8">
<path d="M313.629 49.8561V48.3146H312.348V55.5802H313.629V51.6887C313.683 51.0419 313.919 50.5029 314.318 50.1041C314.727 49.6944 315.254 49.4896 315.9 49.4789C316.503 49.4789 316.977 49.6513 317.321 49.9963C317.666 50.3412 317.838 50.8155 317.838 51.43V55.5802H319.119V51.085C319.119 50.2011 318.872 49.5112 318.387 49.0153C317.903 48.5195 317.235 48.2607 316.385 48.2607C315.028 48.2823 314.113 48.8105 313.629 49.8454" fill="white"/>
</mask>
<g mask="url(#mask28_1725_29180)">
<path d="M319.119 48.2715H312.348V55.5801H319.119V48.2715Z" fill="url(#paint28_linear_1725_29180)"/>
</g>
<mask id="mask29_1725_29180" style="mask-type:luminance" maskUnits="userSpaceOnUse" x="324" y="48" width="7" height="8">
<path d="M326.017 48.7459C325.468 49.0585 325.038 49.4897 324.736 50.0502C324.424 50.6108 324.273 51.2468 324.273 51.9582C324.273 52.6697 324.424 53.3057 324.736 53.8662C325.038 54.416 325.468 54.858 326.017 55.1598C326.567 55.4724 327.191 55.6233 327.901 55.6233C328.537 55.6233 329.118 55.5155 329.624 55.2892C330.13 55.0736 330.55 54.7502 330.884 54.3405L330.151 53.5967C329.904 53.8878 329.592 54.1142 329.215 54.2651C328.838 54.4268 328.418 54.5022 327.955 54.5022C327.492 54.5022 327.073 54.3944 326.717 54.1788C326.351 53.9633 326.071 53.6614 325.867 53.2734C325.662 52.8853 325.555 52.4433 325.555 51.9367C325.555 51.43 325.662 50.9881 325.867 50.6C326.071 50.2119 326.362 49.9209 326.739 49.7053C327.116 49.4897 327.535 49.3927 328.009 49.3927C328.817 49.3927 329.506 49.6729 330.087 50.2335L330.787 49.3495C330.453 48.9938 330.044 48.7243 329.559 48.5303C329.075 48.347 328.515 48.25 327.901 48.25C327.202 48.25 326.567 48.4117 326.017 48.7135" fill="white"/>
</mask>
<g mask="url(#mask29_1725_29180)">
<path d="M330.873 48.2715H324.273V55.6233H330.873V48.2715Z" fill="url(#paint29_linear_1725_29180)"/>
</g>
<mask id="mask30_1725_29180" style="mask-type:luminance" maskUnits="userSpaceOnUse" x="332" y="44" width="8" height="12">
<path d="M337.841 48.3137V51.8818C337.841 52.6148 337.647 53.2185 337.249 53.6928C336.85 54.1671 336.312 54.4043 335.634 54.4151C335.053 54.4151 334.59 54.2426 334.256 53.8976C333.922 53.5527 333.761 53.0784 333.761 52.4639V48.3137H332.469V52.8089C332.469 53.6928 332.706 54.3719 333.179 54.8786C333.653 55.3745 334.31 55.6224 335.16 55.6224C336.484 55.6008 337.378 55.0726 337.852 54.0378V55.5793H339.143V48.3137H337.852H337.841ZM334.643 45.2631L335.063 45.953C335.246 45.8344 335.429 45.7697 335.602 45.7697C335.731 45.7697 335.838 45.8128 335.925 45.8991C336.011 45.9853 336.064 46.0823 336.064 46.2009C336.064 46.3518 336.011 46.5351 335.903 46.7399C335.795 46.9447 335.645 47.1387 335.462 47.3112L336.172 47.6454C336.463 47.3975 336.7 47.128 336.883 46.8153C337.066 46.5135 337.163 46.2332 337.163 45.9745C337.163 45.6296 337.044 45.3601 336.786 45.1661C336.538 44.972 336.226 44.875 335.849 44.875C335.419 44.875 335.009 45.0044 334.622 45.2631" fill="white"/>
</mask>
<g mask="url(#mask30_1725_29180)">
<path d="M339.132 44.8857H332.457V55.6331H339.132V44.8857Z" fill="url(#paint30_linear_1725_29180)"/>
</g>
<mask id="mask31_1725_29180" style="mask-type:luminance" maskUnits="userSpaceOnUse" x="340" y="48" width="8" height="8">
<path d="M342.632 54.2543C342.352 54.0387 342.201 53.7368 342.201 53.3596C342.201 52.9823 342.341 52.7128 342.621 52.5403C342.901 52.3678 343.331 52.2816 343.902 52.2816H346.033V53.0146C345.947 53.4889 345.7 53.877 345.28 54.1573C344.86 54.4483 344.365 54.5884 343.762 54.5884C343.288 54.5884 342.901 54.4806 342.621 54.2543M342.847 48.4979C342.405 48.6488 341.921 48.8967 341.393 49.2309L341.932 50.1149C342.696 49.5974 343.439 49.3279 344.171 49.3279C344.774 49.3279 345.237 49.4681 345.549 49.7483C345.861 50.0286 346.023 50.4275 346.023 50.9341V51.2791H343.719C342.858 51.2791 342.19 51.4839 341.706 51.8612C341.221 52.2385 340.984 52.7559 340.984 53.4027C340.984 53.8231 341.092 54.2004 341.297 54.5453C341.501 54.8795 341.792 55.149 342.179 55.343C342.556 55.5371 342.998 55.6341 343.504 55.6341C344.655 55.6341 345.506 55.2783 346.044 54.5669V55.5802H347.304V50.794C347.282 49.9963 347.024 49.3711 346.539 48.9291C346.044 48.4871 345.344 48.2607 344.44 48.2607C343.826 48.2607 343.299 48.3362 342.858 48.4871" fill="white"/>
</mask>
<g mask="url(#mask31_1725_29180)">
<path d="M347.305 48.2715H340.996V55.634H347.305V48.2715Z" fill="url(#paint31_linear_1725_29180)"/>
</g>
<mask id="mask32_1725_29180" style="mask-type:luminance" maskUnits="userSpaceOnUse" x="353" y="45" width="8" height="11">
<path d="M355.71 54.1898C355.344 53.9634 355.054 53.6616 354.838 53.2735C354.623 52.8854 354.526 52.4327 354.526 51.9368C354.526 51.4409 354.634 51.0098 354.838 50.6217C355.054 50.2336 355.344 49.921 355.71 49.6946C356.087 49.479 356.496 49.3712 356.97 49.3712C357.444 49.3712 357.853 49.479 358.219 49.6946C358.585 49.9102 358.876 50.2228 359.08 50.6217C359.295 51.0205 359.392 51.4517 359.392 51.9368C359.392 52.4219 359.285 52.8746 359.08 53.2735C358.876 53.6616 358.585 53.9742 358.219 54.2006C357.853 54.4161 357.433 54.5239 356.959 54.5239C356.486 54.5239 356.077 54.4161 355.7 54.2006M353.234 45.4043V55.6019H354.505V54.1574C354.774 54.6317 355.14 54.9983 355.603 55.257C356.066 55.5157 356.615 55.645 357.218 55.645C357.896 55.645 358.499 55.4941 359.026 55.1815C359.554 54.8797 359.963 54.4485 360.254 53.8879C360.544 53.3382 360.684 52.7022 360.684 51.9799C360.684 51.2577 360.533 50.6109 360.243 50.0504C359.952 49.4898 359.532 49.0586 359.005 48.746C358.477 48.4334 357.874 48.2825 357.196 48.2825C356.593 48.2825 356.055 48.4118 355.603 48.6706C355.14 48.9293 354.774 49.2958 354.515 49.7701V45.4043H353.245H353.234Z" fill="white"/>
</mask>
<g mask="url(#mask32_1725_29180)">
<path d="M360.708 45.3936H353.258V55.6343H360.708V45.3936Z" fill="url(#paint32_linear_1725_29180)"/>
</g>
<mask id="mask33_1725_29180" style="mask-type:luminance" maskUnits="userSpaceOnUse" x="361" y="48" width="8" height="11">
<path d="M364.58 56.8414C364.429 57.0031 364.354 57.1971 364.354 57.4343C364.354 57.6714 364.429 57.8655 364.58 58.0272C364.731 58.1781 364.925 58.2643 365.151 58.2643C365.377 58.2643 365.571 58.1889 365.721 58.0272C365.872 57.8763 365.947 57.6714 365.947 57.4343C365.947 57.1971 365.872 57.0031 365.721 56.8414C365.571 56.6905 365.377 56.6043 365.151 56.6043C364.925 56.6043 364.731 56.6797 364.58 56.8414ZM363.504 54.2543C363.224 54.0387 363.073 53.7368 363.073 53.3596C363.073 52.9823 363.213 52.7128 363.493 52.5403C363.773 52.3678 364.203 52.2816 364.774 52.2816H366.905V53.0146C366.819 53.4889 366.572 53.877 366.152 54.1573C365.732 54.4483 365.226 54.5884 364.634 54.5884C364.16 54.5884 363.773 54.4806 363.493 54.2543M363.719 48.4979C363.277 48.6488 362.793 48.8967 362.276 49.2309L362.815 50.1149C363.579 49.5974 364.322 49.3279 365.054 49.3279C365.657 49.3279 366.12 49.4681 366.432 49.7483C366.744 50.0286 366.905 50.4275 366.905 50.9341V51.2791H364.602C363.74 51.2791 363.073 51.4839 362.588 51.8612C362.104 52.2385 361.867 52.7559 361.867 53.4027C361.867 53.8231 361.975 54.2004 362.179 54.5453C362.384 54.8795 362.675 55.149 363.062 55.343C363.439 55.5371 363.88 55.6341 364.386 55.6341C365.538 55.6341 366.389 55.2783 366.927 54.5669V55.5802H368.187V50.794C368.165 49.9963 367.917 49.3711 367.422 48.9291C366.927 48.4871 366.227 48.2607 365.323 48.2607C364.709 48.2607 364.182 48.3362 363.74 48.4871" fill="white"/>
</mask>
<g mask="url(#mask33_1725_29180)">
<path d="M368.176 48.2715H361.867V58.2535H368.176V48.2715Z" fill="url(#paint33_linear_1725_29180)"/>
</g>
<mask id="mask34_1725_29180" style="mask-type:luminance" maskUnits="userSpaceOnUse" x="370" y="48" width="8" height="8">
<path d="M371.742 49.8561V48.3146H370.461V55.5802H371.742V51.6887C371.796 51.0419 372.033 50.5029 372.431 50.1041C372.84 49.6944 373.368 49.4896 374.014 49.4789C374.616 49.4789 375.09 49.6513 375.435 49.9963C375.779 50.3412 375.951 50.8155 375.951 51.43V55.5802H377.233V51.085C377.233 50.2011 376.985 49.5112 376.511 49.0153C376.027 48.5195 375.359 48.2607 374.509 48.2607C373.152 48.2823 372.237 48.8105 371.753 49.8454" fill="white"/>
</mask>
<g mask="url(#mask34_1725_29180)">
<path d="M377.244 48.2715H370.473V55.5801H377.244V48.2715Z" fill="url(#paint34_linear_1725_29180)"/>
</g>
<path d="M292.603 20.2012H296.123L303.939 38.1279H301.302C301.022 38.1279 300.763 38.0955 300.505 38.0201C300.247 37.9446 300.01 37.8476 299.794 37.7074C299.579 37.5673 299.385 37.4056 299.202 37.2116C299.03 37.0175 298.89 36.7912 298.782 36.5432L297.91 34.549H290.784L289.933 36.5432C289.836 36.7696 289.696 36.9744 289.513 37.1685C289.33 37.3625 289.136 37.5242 288.91 37.6751C288.684 37.826 288.447 37.9338 288.189 38.0093C287.931 38.0847 287.672 38.1279 287.414 38.1279H284.766L292.581 20.2012H292.603ZM292.441 30.83H296.263L294.702 27.0786C294.627 26.9062 294.573 26.7445 294.53 26.5935C294.487 26.4426 294.455 26.3133 294.433 26.1947C294.401 26.0653 294.379 25.936 294.369 25.8174C294.347 25.936 294.325 26.0653 294.293 26.2055C294.272 26.3241 294.229 26.4534 294.186 26.6043C294.142 26.7552 294.078 26.9169 294.013 27.0786L292.441 30.83Z" fill="#BE1E2D"/>
<path d="M319.999 28.0699V35.8637C319.525 36.3595 319.009 36.7584 318.47 37.071C317.921 37.3836 317.361 37.6315 316.769 37.804C316.177 37.9873 315.574 38.1058 314.95 38.1813C314.325 38.2568 313.701 38.2891 313.066 38.2891C312.226 38.2891 311.408 38.1813 310.633 37.9657C309.847 37.7501 309.115 37.4375 308.437 37.0494C307.758 36.6506 307.134 36.1763 306.574 35.6265C306.014 35.0767 305.53 34.4623 305.142 33.7832C304.744 33.104 304.443 32.3818 304.217 31.6057C304.001 30.8295 303.883 30.0103 303.883 29.1695C303.883 28.3286 303.99 27.5202 304.217 26.7332C304.443 25.9571 304.744 25.2241 305.142 24.5557C305.541 23.8766 306.014 23.2622 306.574 22.7124C307.134 22.1519 307.758 21.6775 308.437 21.2895C309.115 20.8906 309.847 20.5888 310.633 20.3732C311.419 20.1576 312.226 20.0498 313.066 20.0498C313.733 20.0498 314.39 20.136 315.047 20.2977C315.703 20.4594 316.349 20.6966 316.963 20.9984C317.587 21.3003 318.18 21.6775 318.761 22.1195C319.342 22.5615 319.881 23.0573 320.387 23.6071L319.353 24.6851C318.836 25.2241 318.18 25.5043 317.394 25.5043C316.834 25.5043 316.328 25.3534 315.886 25.0408C315.467 24.7605 315.025 24.5449 314.552 24.3833C314.078 24.2216 313.583 24.1353 313.055 24.1353C312.366 24.1353 311.709 24.2647 311.096 24.5342C310.482 24.8037 309.944 25.1594 309.481 25.6121C309.018 26.0649 308.652 26.6039 308.372 27.2183C308.092 27.8328 307.963 28.4796 307.963 29.1802C307.963 29.8809 308.103 30.5816 308.394 31.196C308.684 31.8105 309.061 32.3495 309.546 32.7914C310.019 33.2334 310.579 33.5891 311.203 33.8479C311.828 34.1066 312.495 34.2251 313.184 34.2251C313.658 34.2251 314.132 34.182 314.605 34.085C315.079 33.9988 315.51 33.8586 315.897 33.6754V31.9506C315.499 31.9506 315.133 31.8752 314.799 31.7566C314.465 31.6272 314.186 31.4655 313.949 31.2499C313.712 31.0343 313.529 30.7864 313.389 30.4954C313.26 30.2043 313.195 29.8917 313.195 29.536V28.1023H319.999V28.0699Z" fill="#BE1E2D"/>
<path d="M328.224 38.1279H324.133V20.2012H331.152C331.83 20.2012 332.455 20.2874 333.014 20.4599C333.585 20.6324 334.102 20.8695 334.565 21.1713C335.028 21.4732 335.437 21.8181 335.792 22.2278C336.147 22.6374 336.438 23.0686 336.675 23.5321C336.912 23.9956 337.095 24.4699 337.213 24.9658C337.331 25.4617 337.396 25.9468 337.396 26.4319C337.396 26.9169 337.342 27.3805 337.245 27.8548C337.138 28.3291 336.976 28.7926 336.75 29.2346C336.524 29.6873 336.233 30.1185 335.878 30.5282C335.523 30.9378 335.081 31.3259 334.575 31.6816L339.345 38.1386H335.857C335.781 38.1386 335.652 38.1279 335.48 38.0955C335.297 38.074 335.103 38.0093 334.877 37.923C334.651 37.8368 334.414 37.6967 334.166 37.5134C333.919 37.3302 333.682 37.0714 333.456 36.7481L330.452 32.6841H328.213V38.1386L328.224 38.1279ZM331.367 28.5555C331.615 28.5555 331.863 28.4908 332.089 28.3722C332.325 28.2536 332.53 28.0812 332.713 27.8871C332.896 27.6931 333.036 27.4667 333.144 27.208C333.251 26.9493 333.305 26.7013 333.305 26.4426C333.305 26.1839 333.251 25.9252 333.144 25.6773C333.036 25.4186 332.896 25.1922 332.713 24.9982C332.53 24.7933 332.325 24.6316 332.089 24.5131C331.852 24.3837 331.615 24.3298 331.367 24.3298H328.224V28.577H331.367V28.5555Z" fill="#BE1E2D"/>
<path d="M346.098 20.2012H341.996V38.1279H346.098V20.2012Z" fill="#BE1E2D"/>
<path d="M354.086 38.1279H350.867V20.2012H358.791C359.544 20.2012 360.266 20.3413 360.933 20.6324C361.601 20.9126 362.193 21.3007 362.688 21.7966C363.183 22.2924 363.581 22.8638 363.872 23.5321C364.152 24.2005 364.303 24.9011 364.303 25.6557C364.303 25.8821 364.26 26.1516 364.184 26.4642C364.109 26.7768 363.99 27.0894 363.851 27.3805C363.711 27.6715 363.538 27.941 363.334 28.1674C363.129 28.3938 362.903 28.5339 362.634 28.5878C362.989 28.6309 363.301 28.7818 363.603 29.0405C363.894 29.2993 364.152 29.6334 364.367 30.0215C364.583 30.4096 364.755 30.83 364.884 31.2827C365.013 31.7355 365.067 32.1667 365.067 32.5763C365.067 33.3524 364.916 34.0747 364.626 34.7538C364.335 35.4329 363.926 36.015 363.42 36.5217C362.914 37.0175 362.311 37.4164 361.633 37.7074C360.944 37.9985 360.223 38.1386 359.447 38.1386H354.086V38.1279ZM354.947 24.2975V27.0032H358.931C359.103 27.0032 359.275 26.9708 359.426 26.8954C359.587 26.8199 359.717 26.7337 359.835 26.6043C359.953 26.4858 360.039 26.3456 360.115 26.1839C360.179 26.0222 360.212 25.8497 360.212 25.6665C360.212 25.4832 360.179 25.3108 360.115 25.1383C360.05 24.9766 359.953 24.8257 359.835 24.6963C359.717 24.567 359.577 24.4699 359.426 24.4053C359.264 24.3298 359.103 24.2975 358.931 24.2975H354.947ZM359.598 34.0423C359.792 34.0423 359.964 33.9992 360.136 33.9238C360.298 33.8375 360.449 33.7297 360.578 33.6004C360.707 33.4602 360.804 33.3093 360.879 33.1261C360.955 32.9428 360.987 32.7596 360.987 32.5547C360.987 32.3499 360.955 32.1667 360.879 31.9942C360.804 31.8217 360.707 31.6708 360.589 31.5414C360.47 31.4121 360.319 31.3043 360.158 31.2288C359.986 31.1534 359.813 31.1103 359.62 31.1103H354.958V34.0531H359.609L359.598 34.0423Z" fill="#BE1E2D"/>
<path d="M373.798 20.2012H377.319L385.135 38.1279H382.497C382.217 38.1279 381.959 38.0955 381.7 38.0201C381.442 37.9446 381.205 37.8476 380.99 37.7074C380.774 37.5673 380.581 37.4056 380.398 37.2116C380.225 37.0175 380.085 36.7912 379.978 36.5432L379.106 34.549H371.979L371.128 36.5432C371.032 36.7696 370.892 36.9744 370.709 37.1685C370.526 37.3625 370.332 37.5242 370.106 37.6751C369.88 37.826 369.643 37.9338 369.384 38.0093C369.126 38.0847 368.868 38.1279 368.609 38.1279H365.961L373.777 20.2012H373.798ZM373.637 30.83H377.459L375.898 27.0786C375.822 26.9062 375.768 26.7445 375.725 26.5935C375.682 26.4426 375.65 26.3133 375.628 26.1947C375.596 26.0653 375.575 25.936 375.564 25.8174C375.542 25.936 375.521 26.0653 375.489 26.2055C375.467 26.3241 375.435 26.4534 375.381 26.6043C375.338 26.7552 375.273 26.9169 375.209 27.0786L373.637 30.83Z" fill="#BE1E2D"/>
<path d="M403.593 38.1279H399.534L390.976 25.7312V38.1279H386.906V20.2012H390.933C391.331 20.2012 391.686 20.2551 391.998 20.3736C392.311 20.4922 392.547 20.6647 392.709 20.9126L398.964 30.097C399.061 30.2263 399.136 30.3772 399.201 30.5389C399.265 30.7006 399.33 30.8408 399.373 30.9809C399.427 31.121 399.459 31.2396 399.481 31.3366C399.502 31.4336 399.524 31.4983 399.524 31.5199V20.2012H403.593V38.1279Z" fill="#BE1E2D"/>
<path d="M412.315 38.1279H408.234V20.2012H412.315V38.1279ZM414.037 28.1351L418.343 21.5918C418.462 21.4193 418.591 21.2468 418.752 21.0743C418.914 20.9126 419.075 20.7617 419.269 20.6324C419.452 20.503 419.646 20.3952 419.85 20.3197C420.055 20.2443 420.26 20.2012 420.486 20.2012H424.157L418.785 28.3722C418.666 28.5339 418.537 28.6633 418.376 28.7603C418.225 28.8465 418.128 28.9004 418.096 28.9112C418.096 28.9112 418.139 28.922 418.193 28.9543C418.246 28.9759 418.311 29.019 418.376 29.0621C418.44 29.1052 418.516 29.1699 418.591 29.2346C418.666 29.31 418.731 29.3855 418.785 29.461L424.534 38.1279H420.862C420.367 38.1279 419.958 37.9985 419.624 37.7506C419.291 37.4918 418.978 37.1577 418.699 36.7157L414.037 29.6981C413.94 29.558 413.843 29.4394 413.736 29.3316C413.628 29.2346 413.52 29.1483 413.434 29.0944C413.337 29.0405 413.251 28.9866 413.187 28.9651C413.122 28.9328 413.079 28.922 413.068 28.9112C413.068 28.9112 413.111 28.9004 413.187 28.8788C413.251 28.8573 413.337 28.8142 413.434 28.7495C413.531 28.6956 413.628 28.6094 413.736 28.5123C413.843 28.4153 413.94 28.286 414.037 28.1351Z" fill="#BE1E2D"/>
<path d="M85.8585 29.1802C85.8585 29.8701 85.9984 30.5169 86.2676 31.1313C86.5475 31.7458 86.9135 32.274 87.3764 32.7375C87.8393 33.1903 88.3776 33.5568 89.002 33.8155C89.6157 34.0742 90.2724 34.2035 90.9614 34.2035C91.4889 34.2035 91.9949 34.1173 92.4686 33.9556C92.9315 33.7939 93.3729 33.5783 93.782 33.298C94.2234 32.9962 94.7186 32.8453 95.2784 32.8453C95.709 32.8453 96.0751 32.91 96.3873 33.0501C96.6995 33.1902 96.9794 33.3843 97.2377 33.643L98.2928 34.7102C97.776 35.26 97.227 35.7558 96.6564 36.1978C96.0751 36.6398 95.4829 37.0171 94.8585 37.3189C94.2341 37.6315 93.599 37.8579 92.9423 38.0303C92.2855 38.192 91.6288 38.2783 90.9614 38.2783C90.1217 38.2783 89.3142 38.1705 88.5283 37.9549C87.7425 37.7393 87.0104 37.4375 86.3322 37.0386C85.6539 36.6398 85.0295 36.1655 84.4805 35.6157C83.9207 35.0659 83.447 34.4515 83.0486 33.7724C82.6503 33.0932 82.3381 32.371 82.1228 31.5949C81.8967 30.8187 81.7891 30.0102 81.7891 29.1694C81.7891 28.3286 81.8967 27.5201 82.1228 26.744C82.3489 25.9678 82.6503 25.2456 83.0486 24.5665C83.447 23.8873 83.9207 23.2729 84.4805 22.7231C85.0403 22.1734 85.6539 21.6991 86.3322 21.3002C87.0104 20.9014 87.7425 20.5995 88.5283 20.3839C89.3035 20.1683 90.1217 20.0605 90.9614 20.0605C91.6288 20.0605 92.2855 20.1468 92.9423 20.3085C93.599 20.4702 94.2341 20.7181 94.8585 21.0199C95.4722 21.3326 96.0751 21.6991 96.6564 22.141C97.2377 22.583 97.776 23.0789 98.2928 23.6286L97.2377 24.6958C96.9901 24.9438 96.6995 25.1486 96.3765 25.2887C96.0535 25.4288 95.6875 25.5043 95.2784 25.5043C94.7294 25.5043 94.2341 25.3534 93.782 25.0408C93.3621 24.7605 92.9207 24.5341 92.4578 24.3832C91.9841 24.2215 91.4889 24.1461 90.9721 24.1461C90.2831 24.1461 89.6264 24.2754 89.0128 24.5449C88.3992 24.8144 87.8609 25.1701 87.3872 25.6229C86.9243 26.0756 86.5475 26.6038 86.2783 27.2183C86.0092 27.8327 85.8692 28.4795 85.8692 29.1694" fill="#BE1E2D"/>
<path d="M117.057 38.1277H112.988V31.0455H105.043V38.1277H100.984V20.2334H105.043V27.2294H112.988V20.2334H117.057V38.1277Z" fill="#BE1E2D"/>
<path d="M124.742 30.9268C124.742 31.3796 124.828 31.8 125.011 32.1989C125.194 32.5977 125.442 32.9427 125.743 33.2445C126.056 33.5463 126.411 33.7835 126.809 33.9559C127.208 34.1284 127.638 34.2147 128.09 34.2147C128.542 34.2147 128.962 34.1284 129.371 33.9559C129.781 33.7835 130.136 33.5463 130.448 33.2445C130.76 32.9427 131.008 32.5977 131.191 32.1989C131.374 31.8 131.471 31.3688 131.471 30.9268V20.2441H135.551V30.9268C135.551 31.9509 135.357 32.9103 134.97 33.805C134.582 34.6998 134.044 35.4759 133.376 36.1442C132.709 36.8126 131.912 37.3408 131.019 37.7181C130.114 38.1061 129.145 38.3002 128.123 38.3002C127.444 38.3002 126.788 38.2139 126.153 38.0415C125.517 37.869 124.936 37.6211 124.387 37.2977C123.838 36.9743 123.332 36.597 122.88 36.1442C122.428 35.6915 122.029 35.1956 121.706 34.6566C121.383 34.1069 121.136 33.5248 120.953 32.8995C120.77 32.2743 120.684 31.6167 120.684 30.9376V20.2549H124.775V30.9376L124.742 30.9268Z" fill="#BE1E2D"/>
<path d="M155.662 38.1277H151.614L143.077 25.7634V38.1277H139.008V20.2441H143.023C143.422 20.2441 143.777 20.3088 144.078 20.4166C144.391 20.5352 144.627 20.7184 144.789 20.9556L151.033 30.1184C151.119 30.2477 151.205 30.3986 151.27 30.5603C151.334 30.722 151.399 30.8622 151.442 31.0023C151.496 31.1424 151.528 31.261 151.55 31.358C151.571 31.4551 151.593 31.5197 151.593 31.5413V20.2441H155.651V38.1277H155.662Z" fill="#BE1E2D"/>
<path d="M174.589 28.0914V35.8636C174.115 36.3487 173.609 36.7583 173.06 37.0709C172.511 37.3835 171.951 37.6315 171.359 37.8039C170.767 37.9872 170.164 38.1058 169.55 38.1812C168.937 38.2567 168.302 38.289 167.677 38.289C166.837 38.289 166.03 38.1812 165.244 37.9656C164.458 37.75 163.737 37.4482 163.059 37.0494C162.38 36.6505 161.767 36.1762 161.207 35.6264C160.647 35.0767 160.163 34.4622 159.775 33.7831C159.377 33.104 159.075 32.3817 158.849 31.6056C158.634 30.8295 158.516 30.021 158.516 29.1802C158.516 28.3393 158.623 27.5309 158.849 26.7547C159.075 25.9786 159.377 25.2456 159.775 24.5772C160.174 23.9089 160.647 23.2944 161.207 22.7339C161.767 22.1841 162.391 21.7098 163.059 21.311C163.737 20.9121 164.469 20.6103 165.244 20.3947C166.03 20.1791 166.837 20.0713 167.677 20.0713C168.345 20.0713 169.001 20.1575 169.658 20.3192C170.315 20.4809 170.95 20.7181 171.574 21.0199C172.199 21.3217 172.791 21.699 173.372 22.141C173.954 22.583 174.492 23.0788 174.998 23.6286L173.964 24.7066C173.448 25.2456 172.802 25.5151 172.005 25.5151C171.445 25.5151 170.939 25.3641 170.498 25.0515C170.078 24.782 169.637 24.5557 169.174 24.394C168.7 24.2323 168.205 24.146 167.688 24.146C166.999 24.146 166.342 24.2754 165.729 24.5449C165.115 24.8144 164.577 25.1701 164.114 25.6228C163.651 26.0756 163.285 26.6146 163.016 27.2182C162.747 27.8327 162.607 28.4795 162.607 29.1694C162.607 29.8593 162.747 30.56 163.037 31.1744C163.328 31.7889 163.705 32.3171 164.178 32.7698C164.652 33.2118 165.212 33.5675 165.836 33.8154C166.461 34.0742 167.128 34.1927 167.817 34.1927C168.291 34.1927 168.765 34.1496 169.238 34.0526C169.712 33.9664 170.143 33.8262 170.519 33.643V31.9182C170.121 31.9182 169.755 31.8427 169.421 31.7242C169.087 31.6056 168.808 31.4331 168.571 31.2175C168.334 31.0019 168.151 30.754 168.011 30.4629C167.882 30.1719 167.806 29.8593 167.806 29.5036V28.0698H174.599L174.589 28.0914Z" fill="#BE1E2D"/>
<path d="M189.424 38.1277H185.344V20.2441H189.424V38.1277ZM191.146 28.1565L195.442 21.6347C195.56 21.4622 195.69 21.2898 195.851 21.1281C196.002 20.9556 196.174 20.8155 196.368 20.6861C196.551 20.5568 196.745 20.449 196.949 20.3735C197.154 20.2873 197.358 20.2549 197.573 20.2549H201.234L195.873 28.4044C195.754 28.5661 195.625 28.6954 195.463 28.7925C195.313 28.8787 195.216 28.9326 195.184 28.9434C195.184 28.9434 195.227 28.9542 195.28 28.9865C195.334 29.0081 195.399 29.0512 195.463 29.0943C195.528 29.1374 195.603 29.2021 195.679 29.2668C195.754 29.3422 195.819 29.4177 195.873 29.5039L201.611 38.1493H197.95C197.455 38.1493 197.046 38.0199 196.712 37.772C196.379 37.5133 196.066 37.1791 195.786 36.7479L191.136 29.7411C191.039 29.6009 190.942 29.4824 190.834 29.3853C190.727 29.2883 190.619 29.2021 190.533 29.1482C190.436 29.0943 190.361 29.0404 190.285 29.0188C190.221 28.9865 190.178 28.9757 190.167 28.9649C190.167 28.9649 190.21 28.9542 190.285 28.9326C190.35 28.911 190.436 28.8679 190.533 28.8032C190.63 28.7493 190.727 28.6631 190.834 28.5661C190.942 28.4691 191.039 28.3397 191.136 28.1888" fill="#BE1E2D"/>
<path d="M219.568 38.1277H215.488V31.0455H207.554V38.1277H203.484V20.2334H207.554V27.2294H215.488V20.2334H219.568V38.1277Z" fill="#BE1E2D"/>
<path d="M222.379 29.1802C222.379 28.3393 222.487 27.5309 222.713 26.7547C222.928 25.9786 223.24 25.2563 223.638 24.5772C224.037 23.9089 224.511 23.2836 225.07 22.7339C225.63 22.1841 226.244 21.7098 226.933 21.311C227.611 20.9121 228.343 20.6103 229.129 20.3947C229.904 20.1791 230.722 20.0713 231.562 20.0713C232.402 20.0713 233.209 20.1791 233.995 20.3947C234.781 20.6103 235.502 20.9121 236.191 21.311C236.869 21.7098 237.494 22.1841 238.054 22.7339C238.613 23.2836 239.087 23.8981 239.485 24.5772C239.884 25.2563 240.196 25.9786 240.411 26.7547C240.637 27.5309 240.745 28.3393 240.745 29.1802C240.745 30.021 240.637 30.8295 240.411 31.6056C240.196 32.3817 239.884 33.1148 239.485 33.7831C239.087 34.4514 238.603 35.0767 238.054 35.6264C237.494 36.1762 236.88 36.6613 236.191 37.0494C235.513 37.4482 234.781 37.75 233.995 37.9656C233.209 38.1812 232.402 38.289 231.562 38.289C230.722 38.289 229.904 38.1812 229.129 37.9656C228.354 37.75 227.622 37.4482 226.944 37.0494C226.265 36.6505 225.641 36.1762 225.081 35.6264C224.521 35.0767 224.048 34.4622 223.649 33.7831C223.251 33.104 222.939 32.3817 222.723 31.6056C222.497 30.8295 222.39 30.021 222.39 29.1802M226.47 29.1802C226.47 29.8701 226.61 30.5168 226.879 31.1313C227.148 31.7457 227.525 32.2739 227.988 32.7375C228.451 33.1902 228.989 33.5567 229.613 33.8154C230.227 34.0742 230.884 34.2035 231.573 34.2035C232.262 34.2035 232.908 34.0742 233.521 33.8154C234.135 33.5567 234.684 33.1902 235.147 32.7375C235.61 32.2739 235.976 31.7457 236.256 31.1313C236.525 30.5168 236.665 29.8701 236.665 29.1802C236.665 28.4903 236.525 27.8435 236.256 27.229C235.976 26.6146 235.61 26.0864 235.147 25.6336C234.684 25.1809 234.135 24.8144 233.521 24.5557C232.897 24.2862 232.251 24.1568 231.573 24.1568C230.895 24.1568 230.227 24.2862 229.613 24.5557C229 24.8252 228.461 25.1809 227.988 25.6336C227.525 26.0864 227.148 26.6146 226.879 27.229C226.599 27.8435 226.47 28.4903 226.47 29.1802Z" fill="#BE1E2D"/>
<path d="M247.406 20.7627H250.915L258.72 38.6463H256.094C255.814 38.6463 255.555 38.6139 255.297 38.5385C255.039 38.4738 254.812 38.366 254.597 38.2259C254.382 38.0857 254.188 37.924 254.005 37.73C253.833 37.536 253.693 37.3096 253.585 37.0616L252.713 35.0782H245.608L244.757 37.0616C244.66 37.288 244.521 37.4928 244.337 37.6869C244.154 37.8809 243.961 38.0534 243.735 38.1935C243.509 38.3444 243.272 38.4522 243.013 38.5277C242.755 38.6031 242.497 38.6463 242.238 38.6463H239.59L247.395 20.7627H247.406ZM247.244 31.3699H251.055L249.494 27.6294C249.419 27.4569 249.365 27.2952 249.322 27.1443C249.279 26.9934 249.247 26.864 249.225 26.7454C249.193 26.6161 249.171 26.4867 249.16 26.3682C249.15 26.4867 249.117 26.6161 249.085 26.7562C249.064 26.8748 249.021 27.0042 248.977 27.1551C248.934 27.306 248.881 27.4677 248.805 27.6294L247.233 31.3699H247.244Z" fill="#BE1E2D"/>
<path d="M277.144 38.1277H273.096L264.559 25.7634V38.1277H260.5V20.2441H264.516C264.914 20.2441 265.269 20.3088 265.571 20.4166C265.883 20.5352 266.12 20.7184 266.281 20.9556L272.525 30.1184C272.611 30.2477 272.697 30.3986 272.762 30.5603C272.827 30.722 272.88 30.8622 272.934 31.0023C272.988 31.1424 273.02 31.261 273.042 31.358C273.063 31.4551 273.085 31.5197 273.085 31.5413V20.2441H277.144V38.1277Z" fill="#BE1E2D"/>
<path d="M136.886 18.7673C136.886 19.123 136.833 19.4357 136.725 19.6944C136.617 19.9531 136.477 20.1687 136.305 20.3412C136.133 20.5136 135.928 20.6322 135.713 20.7077C135.487 20.7831 135.272 20.8262 135.046 20.8262V20.3412C135.282 20.3412 135.508 20.2657 135.713 20.104C135.918 19.9423 136.036 19.7267 136.079 19.4572C136.058 19.4572 136.025 19.4788 135.982 19.4788C135.95 19.4788 135.918 19.5003 135.874 19.5003C135.831 19.5003 135.788 19.5111 135.735 19.5111C135.455 19.5111 135.229 19.4033 135.046 19.1985C134.863 18.9937 134.766 18.7565 134.766 18.4763C134.766 18.196 134.863 17.9588 135.046 17.754C135.229 17.5492 135.476 17.4414 135.788 17.4414C136.133 17.4414 136.402 17.5708 136.596 17.8295C136.79 18.0882 136.886 18.39 136.886 18.7458" fill="#BE1E2D"/>
<path d="M127.286 19.1449L127.027 18.6598L130.731 15.1025L131.646 16.8704L127.286 19.1449Z" fill="#BE1E2D"/>
<path d="M248.774 18.3901L248.516 17.8942L252.219 14.3477L253.134 16.1155L248.774 18.3901Z" fill="#BE1E2D"/>
</g>
<defs>
<linearGradient id="paint0_linear_1725_29180" x1="38.2544" y1="15.0167" x2="29.3536" y2="75.6588" gradientUnits="userSpaceOnUse">
<stop stop-color="#FAAF43"/>
<stop offset="1" stop-color="#F15B2A"/>
</linearGradient>
<linearGradient id="paint1_linear_1725_29180" x1="55.3688" y1="26.0423" x2="7.34767" y2="56.1731" gradientUnits="userSpaceOnUse">
<stop stop-color="#F48220"/>
<stop offset="1" stop-color="#FFC113"/>
</linearGradient>
<linearGradient id="paint2_linear_1725_29180" x1="-1750.34" y1="2265.27" x2="-1769.02" y2="2288.48" gradientUnits="userSpaceOnUse">
<stop stop-color="#F48220"/>
<stop offset="1" stop-color="#FFC113"/>
</linearGradient>
<linearGradient id="paint3_linear_1725_29180" x1="53.8814" y1="36.1458" x2="55.9345" y2="16.7431" gradientUnits="userSpaceOnUse">
<stop stop-color="#FAAF43"/>
<stop offset="1" stop-color="#F8EB30"/>
</linearGradient>
<linearGradient id="paint4_linear_1725_29180" x1="769.877" y1="-1526.26" x2="777.329" y2="-1542.48" gradientUnits="userSpaceOnUse">
<stop stop-color="#FAAF43"/>
<stop offset="1" stop-color="#F8EB30"/>
</linearGradient>
<linearGradient id="paint5_linear_1725_29180" x1="-662.397" y1="-1370.04" x2="-669.798" y2="-1384.67" gradientUnits="userSpaceOnUse">
<stop stop-color="#FAAF43"/>
<stop offset="1" stop-color="#F8EB30"/>
</linearGradient>
<linearGradient id="paint6_linear_1725_29180" x1="1161.9" y1="-2871.71" x2="1173.53" y2="-2901.89" gradientUnits="userSpaceOnUse">
<stop stop-color="#F48220"/>
<stop offset="1" stop-color="#FFC113"/>
</linearGradient>
<linearGradient id="paint7_linear_1725_29180" x1="123.554" y1="53.0984" x2="132.156" y2="53.0984" gradientUnits="userSpaceOnUse">
<stop stop-color="#FEBB19"/>
<stop offset="1" stop-color="#FEC015"/>
</linearGradient>
<linearGradient id="paint8_linear_1725_29180" x1="133.333" y1="49.6451" x2="140.116" y2="49.6451" gradientUnits="userSpaceOnUse">
<stop stop-color="#FEBB19"/>
<stop offset="1" stop-color="#FEC015"/>
</linearGradient>
<linearGradient id="paint9_linear_1725_29180" x1="141.437" y1="47.9125" x2="147.756" y2="47.9125" gradientUnits="userSpaceOnUse">
<stop stop-color="#FEBB19"/>
<stop offset="1" stop-color="#FEC015"/>
</linearGradient>
<linearGradient id="paint10_linear_1725_29180" x1="150.014" y1="49.3128" x2="162.071" y2="49.3128" gradientUnits="userSpaceOnUse">
<stop stop-color="#FEBB19"/>
<stop offset="1" stop-color="#FEC015"/>
</linearGradient>
<linearGradient id="paint11_linear_1725_29180" x1="168.049" y1="48.0391" x2="169.33" y2="48.0391" gradientUnits="userSpaceOnUse">
<stop stop-color="#FEBB19"/>
<stop offset="1" stop-color="#FEC015"/>
</linearGradient>
<linearGradient id="paint12_linear_1725_29180" x1="172.012" y1="53.786" x2="179.462" y2="53.786" gradientUnits="userSpaceOnUse">
<stop stop-color="#FEBB19"/>
<stop offset="1" stop-color="#FEC015"/>
</linearGradient>
<linearGradient id="paint13_linear_1725_29180" x1="183.824" y1="53.4925" x2="190.961" y2="53.4925" gradientUnits="userSpaceOnUse">
<stop stop-color="#FEBB19"/>
<stop offset="1" stop-color="#FEC015"/>
</linearGradient>
<linearGradient id="paint14_linear_1725_29180" x1="192.987" y1="49.9808" x2="194.58" y2="49.9808" gradientUnits="userSpaceOnUse">
<stop stop-color="#FEBB19"/>
<stop offset="1" stop-color="#FEC015"/>
</linearGradient>
<linearGradient id="paint15_linear_1725_29180" x1="196.405" y1="52.5372" x2="203.445" y2="52.5372" gradientUnits="userSpaceOnUse">
<stop stop-color="#FEBB19"/>
<stop offset="1" stop-color="#FEC015"/>
</linearGradient>
<linearGradient id="paint16_linear_1725_29180" x1="204.72" y1="53.7869" x2="212.17" y2="53.7869" gradientUnits="userSpaceOnUse">
<stop stop-color="#FEBB19"/>
<stop offset="1" stop-color="#FEC015"/>
</linearGradient>
<linearGradient id="paint17_linear_1725_29180" x1="215.936" y1="48.553" x2="220.609" y2="48.553" gradientUnits="userSpaceOnUse">
<stop stop-color="#FEBB19"/>
<stop offset="1" stop-color="#FEC015"/>
</linearGradient>
<linearGradient id="paint18_linear_1725_29180" x1="222.971" y1="53.5583" x2="226.826" y2="53.5583" gradientUnits="userSpaceOnUse">
<stop stop-color="#FEBB19"/>
<stop offset="1" stop-color="#FEC015"/>
</linearGradient>
<linearGradient id="paint19_linear_1725_29180" x1="227.544" y1="51.5106" x2="234.993" y2="51.5106" gradientUnits="userSpaceOnUse">
<stop stop-color="#FEBB19"/>
<stop offset="1" stop-color="#FEC015"/>
</linearGradient>
<linearGradient id="paint20_linear_1725_29180" x1="236.04" y1="50.0094" x2="242.811" y2="50.0094" gradientUnits="userSpaceOnUse">
<stop stop-color="#FEBB19"/>
<stop offset="1" stop-color="#FEC015"/>
</linearGradient>
<linearGradient id="paint21_linear_1725_29180" x1="244.789" y1="53.4925" x2="251.927" y2="53.4925" gradientUnits="userSpaceOnUse">
<stop stop-color="#FEBB19"/>
<stop offset="1" stop-color="#FEC015"/>
</linearGradient>
<linearGradient id="paint22_linear_1725_29180" x1="257.089" y1="50.4573" x2="265.572" y2="50.4573" gradientUnits="userSpaceOnUse">
<stop stop-color="#FEBB19"/>
<stop offset="1" stop-color="#FEC015"/>
</linearGradient>
<linearGradient id="paint23_linear_1725_29180" x1="266.782" y1="51.5106" x2="274.232" y2="51.5106" gradientUnits="userSpaceOnUse">
<stop stop-color="#FEBB19"/>
<stop offset="1" stop-color="#FEC015"/>
</linearGradient>
<linearGradient id="paint24_linear_1725_29180" x1="275.293" y1="50.0094" x2="282.064" y2="50.0094" gradientUnits="userSpaceOnUse">
<stop stop-color="#FEBB19"/>
<stop offset="1" stop-color="#FEC015"/>
</linearGradient>
<linearGradient id="paint25_linear_1725_29180" x1="284.039" y1="53.4925" x2="291.176" y2="53.4925" gradientUnits="userSpaceOnUse">
<stop stop-color="#FEBB19"/>
<stop offset="1" stop-color="#FEC015"/>
</linearGradient>
<linearGradient id="paint26_linear_1725_29180" x1="296.143" y1="53.4133" x2="303.141" y2="53.4133" gradientUnits="userSpaceOnUse">
<stop stop-color="#FEBB19"/>
<stop offset="1" stop-color="#FEC015"/>
</linearGradient>
<linearGradient id="paint27_linear_1725_29180" x1="303.462" y1="51.5116" x2="310.911" y2="51.5116" gradientUnits="userSpaceOnUse">
<stop stop-color="#FEBB19"/>
<stop offset="1" stop-color="#FEC015"/>
</linearGradient>
<linearGradient id="paint28_linear_1725_29180" x1="311.972" y1="50.0094" x2="318.744" y2="50.0094" gradientUnits="userSpaceOnUse">
<stop stop-color="#FEBB19"/>
<stop offset="1" stop-color="#FEC015"/>
</linearGradient>
<linearGradient id="paint29_linear_1725_29180" x1="324.581" y1="53.5464" x2="331.18" y2="53.5464" gradientUnits="userSpaceOnUse">
<stop stop-color="#FEBB19"/>
<stop offset="1" stop-color="#FEC015"/>
</linearGradient>
<linearGradient id="paint30_linear_1725_29180" x1="332.147" y1="48.7082" x2="338.822" y2="48.7082" gradientUnits="userSpaceOnUse">
<stop stop-color="#FEBB19"/>
<stop offset="1" stop-color="#FEC015"/>
</linearGradient>
<linearGradient id="paint31_linear_1725_29180" x1="340.484" y1="49.3674" x2="346.803" y2="49.3674" gradientUnits="userSpaceOnUse">
<stop stop-color="#FEBB19"/>
<stop offset="1" stop-color="#FEC015"/>
</linearGradient>
<linearGradient id="paint32_linear_1725_29180" x1="353.61" y1="52.3417" x2="361.06" y2="52.3417" gradientUnits="userSpaceOnUse">
<stop stop-color="#FEBB19"/>
<stop offset="1" stop-color="#FEC015"/>
</linearGradient>
<linearGradient id="paint33_linear_1725_29180" x1="361.355" y1="50.6717" x2="367.674" y2="50.6717" gradientUnits="userSpaceOnUse">
<stop stop-color="#FEBB19"/>
<stop offset="1" stop-color="#FEC015"/>
</linearGradient>
<linearGradient id="paint34_linear_1725_29180" x1="370.087" y1="50.0094" x2="376.858" y2="50.0094" gradientUnits="userSpaceOnUse">
<stop stop-color="#FEBB19"/>
<stop offset="1" stop-color="#FEC015"/>
</linearGradient>
<clipPath id="clip0_1725_29180">
<rect width="424.536" height="72.6553" fill="white"/>
</clipPath>
</defs>
</svg>
