<svg width="431" height="68" viewBox="0 0 431 68" fill="none" xmlns="http://www.w3.org/2000/svg">
<g clip-path="url(#clip0_1515_89574)">
<path d="M61.8371 37.9427C61.6047 54.6983 47.8514 68.2072 30.9213 68.2072C13.9912 68.2072 0 54.4676 0 37.5142C0 20.5609 13.9691 6.96412 30.9213 6.82129V9.59558C15.5464 9.73841 2.80046 22.2145 2.80046 37.5087C2.80046 52.803 15.4136 65.4274 30.9213 65.4274C38.3984 65.4274 45.4328 62.5487 50.7404 57.3188C55.9927 52.1438 58.9315 45.2713 59.0422 37.9427H61.8426H61.8371Z" fill="url(#paint0_linear_1515_89574)"/>
<path d="M58.4327 37.9418C58.2002 52.8735 45.8361 64.987 30.7601 64.987C23.4878 64.987 16.8629 62.1853 11.9151 57.62C11.8155 57.5267 11.7158 57.4333 11.6162 57.3344C6.47466 52.3516 3.28125 45.4022 3.28125 37.7221C3.28125 22.653 15.5955 10.3748 30.7601 10.2979V27.3226H20.2833V48.1215H41.2369V47.9842H41.2646V37.9473H58.4382L58.4327 37.9418Z" fill="url(#paint1_linear_1515_89574)"/>
<path d="M30.8544 30.432V27.9873H21.0527V47.4513H40.6615V37.9418H38.337V45.2044H23.2831V30.432H30.8544Z" fill="url(#paint2_linear_1515_89574)"/>
<path d="M54.6366 22.3852C54.6366 22.1434 54.6366 21.8962 54.6366 21.649C54.4927 13.5184 51.7752 9.32679 50.5078 7.81055V28.4172C51.0004 27.2196 51.7088 25.9341 52.7327 24.5881C53.3636 23.7531 54.0056 23.0279 54.6421 22.3907L54.6366 22.3852Z" fill="url(#paint3_linear_1515_89574)"/>
<path d="M55.0185 22.5388C54.9521 22.6047 54.8856 22.6652 54.8192 22.7311C54.7528 22.797 54.6864 22.8684 54.62 22.9343C54.0887 23.4837 53.5574 24.099 53.0316 24.7967C51.742 26.4997 50.9561 28.1094 50.4912 29.5487C50.4248 29.7629 50.3639 29.9717 50.3086 30.175C50.3805 30.4551 50.4414 30.7298 50.4912 30.9935C50.8233 32.768 50.6905 34.2018 50.4912 35.1577C50.4802 35.2016 50.4746 35.2456 50.4636 35.2895L50.4912 35.2511L52.5611 32.3889L53.1201 31.6143L53.6016 30.9441L62.6229 18.457C61.2393 18.6548 58.1731 19.4404 55.0129 22.5388H55.0185Z" fill="url(#paint4_linear_1515_89574)"/>
<path d="M50.1148 31.0873C50.0871 30.928 50.0539 30.7686 50.0152 30.6093C49.9819 30.4665 49.9487 30.3237 49.91 30.1808C49.4894 28.5822 48.6703 26.7583 47.187 24.8025C46.5339 23.94 45.8643 23.1929 45.2057 22.5447C42.0455 19.4463 38.9793 18.6607 37.5957 18.4629L46.617 30.9499L49.755 35.2899L49.9875 35.614C49.9985 35.5811 50.0041 35.5481 50.0152 35.5151C50.0484 35.3888 50.0816 35.246 50.1148 35.0866C50.3029 34.1747 50.4302 32.7903 50.1148 31.0818V31.0873Z" fill="url(#paint5_linear_1515_89574)"/>
<path d="M66.5421 14.2422L63.5368 18.3624C63.5368 18.3624 63.5258 18.3295 63.5202 18.313L67.2892 12.5117L66.8741 12.2645L63.1273 18.0383C62.1255 18.1042 58.6665 18.5877 55.0192 22.0157C55.0192 21.8948 55.0192 21.774 55.0192 21.6476C54.8587 12.5172 51.5269 8.30359 50.4532 7.17739L50.4975 -0.206055H50.0105L49.9662 6.98512C49.9551 6.98512 49.9496 6.9961 49.9385 7.00709L49.6784 1.63981L49.1914 1.66178L49.4736 7.50701C48.1786 9.01227 45.356 13.2534 45.2121 21.6421C45.2121 21.7685 45.2121 21.8894 45.2121 22.0102C41.7309 18.7305 38.4157 18.1482 37.259 18.0438L33.501 12.259L33.0859 12.5062L36.7609 18.1647C36.7609 18.1647 36.7498 18.2031 36.7387 18.2251L33.8331 14.2422L33.4346 14.5059L36.5782 18.8184C36.1908 20.483 35.8034 24.6142 39.423 29.8771C43.3303 35.5465 48.0457 36.3266 49.5954 36.4255V37.9473H50.7798V36.409C52.4567 36.2717 57.0116 35.3817 60.8083 29.8716C64.3283 24.7625 64.0626 20.7137 63.6863 18.9612L66.9406 14.5004L66.5421 14.2367V14.2422ZM50.5031 7.80916C51.7705 9.3309 54.4934 13.5171 54.6373 21.6476C54.6373 21.9003 54.6373 22.1476 54.6373 22.3893C53.9953 23.021 53.3533 23.7517 52.7279 24.5812C51.704 25.9272 50.9956 27.2127 50.5031 28.4103V7.80916ZM50.1212 35.0851C50.088 35.2444 50.0548 35.3872 50.0215 35.5136C50.0105 35.541 50.0049 35.574 49.9939 35.6125L49.7559 35.2883L46.6178 30.9484L37.5966 18.4613C38.9857 18.6646 42.0463 19.4447 45.2065 22.5431C45.8707 23.1913 46.5348 23.9385 47.1879 24.8065C48.6656 26.7622 49.4847 28.5861 49.9109 30.1793C49.9496 30.3276 49.9828 30.4704 50.016 30.6078C50.0548 30.7726 50.088 30.9319 50.1156 31.0857C50.254 31.8383 50.3038 32.525 50.3038 33.1348C50.3038 33.9149 50.2208 34.5742 50.1156 35.0851H50.1212ZM53.619 30.9429L53.1319 31.6076L52.573 32.3822L50.5031 35.2444L50.4754 35.2828C50.4864 35.2389 50.492 35.1949 50.5031 35.151C50.7023 34.2006 50.8351 32.7613 50.5031 30.9923C50.4532 30.7231 50.3924 30.4539 50.3204 30.1738C50.3758 29.9705 50.4366 29.7617 50.5031 29.5475C50.968 28.1082 51.7539 26.4985 53.0434 24.7955C53.5692 24.0978 54.1005 23.4825 54.6318 22.9331C54.6927 22.8672 54.7646 22.7958 54.8255 22.7299L55.0247 22.5321C58.1905 19.4337 61.2511 18.6536 62.6347 18.4503L53.6135 30.9374L53.619 30.9429Z" fill="url(#paint6_linear_1515_89574)"/>
<path d="M6.91802 42.9684L6.48633 41.54L13.7199 41.9081L14.1904 43.4683L8.34592 47.6984L7.90316 46.2261L9.12629 45.4076L8.40127 43.0123L6.91802 42.9629V42.9684ZM9.641 43.0453L10.1391 44.6989L12.4802 43.1277V43.1112L9.641 43.0508V43.0453Z" fill="white"/>
<path d="M14.749 50.7037L16.5256 52.9176L13.6477 55.192L13.0555 54.4559L13.6366 53.8186C13.0832 53.7966 12.2751 53.7746 11.5003 52.8078C10.4764 51.5332 10.4709 49.6434 12.3415 48.1601C13.7916 47.012 15.8061 46.7263 17.234 48.5008L17.2451 48.5172C18.5457 50.1434 17.9978 51.6211 17.3115 52.2639L16.4205 51.1542C16.6308 50.9894 16.9961 50.0829 16.3707 49.3028C15.7397 48.5117 14.5996 48.2151 13.2326 49.3028C11.777 50.4565 12.0316 51.5442 12.6349 52.2969C12.8286 52.5386 13.5757 53.2747 14.8376 52.6539L13.8469 51.4234L14.749 50.7147V50.7037Z" fill="white"/>
<path d="M20.14 51.8408L23.184 53.4505C24.7835 54.2965 24.4459 55.6259 24.1692 56.1423C23.8149 56.8016 23.1785 57.1861 22.4756 57.0708C22.8519 57.5487 23.0235 57.8728 22.4258 58.988C21.9554 59.8615 21.8391 60.0758 22.055 60.3175L21.972 60.4768L20.5828 59.7407C20.6492 59.4111 20.7654 59.0814 21.0975 58.4661C21.5347 57.6531 21.6565 57.307 20.7267 56.8181L19.4261 56.1314L18.1697 58.4716L16.9355 57.8179L20.1456 51.8463L20.14 51.8408ZM21.4351 55.9006C22.0882 56.2467 22.5254 56.1918 22.8464 55.5985C23.018 55.2798 23.1231 54.7415 22.387 54.3514L20.8208 53.5219L19.9629 55.1205L21.4351 55.9006Z" fill="white"/>
<path d="M26.6486 61.5919L25.2539 61.3062L26.632 54.6699L28.0267 54.9556L26.6486 61.5919Z" fill="white"/>
<path d="M31.1089 59.9054C31.1476 60.279 31.3911 60.9822 32.6308 60.8888C33.3061 60.8393 34.0421 60.6196 33.9868 59.9054C33.9481 59.378 33.4223 59.2791 32.6917 59.1638L31.9501 59.0484C30.8321 58.8781 29.7529 58.7133 29.6367 57.23C29.5813 56.4774 29.8857 55.1204 32.094 54.9556C34.1805 54.7963 34.8391 56.1093 34.9166 56.9388L33.5496 57.0432C33.4887 56.7466 33.3227 56.0379 32.0774 56.1313C31.535 56.1697 30.9096 56.4169 30.9539 57.0322C30.9926 57.5596 31.4409 57.6365 31.7287 57.6805L33.4167 57.9607C34.3631 58.1145 35.2431 58.4276 35.3372 59.6417C35.4922 61.6744 33.4223 62.0095 32.8246 62.0534C30.3396 62.2402 29.8082 60.8558 29.7418 60.0153L31.1033 59.9109L31.1089 59.9054Z" fill="white"/>
<path d="M41.2486 53.4729L37.9778 55.0111L38.5921 56.2966L41.5973 54.8847L42.112 55.967L39.1068 57.3788L39.865 58.9665L43.2853 57.3624L43.8001 58.4446L39.1179 60.6421L36.2012 54.5222L40.7339 52.3906L41.2486 53.4729Z" fill="white"/>
<path d="M46.5505 49.8906C46.1741 49.6983 45.4602 49.3357 44.6577 50.1927C44.1928 50.6872 43.8386 51.7309 45.2499 53.0329C46.1465 53.8625 47.2866 54.2525 48.1057 53.379C48.6425 52.8077 48.6923 52.1045 48.1942 51.4123L49.1628 50.3795C50.0538 51.5881 50.1535 52.9945 48.9857 54.236C47.7515 55.5545 45.9638 55.6699 44.2426 54.0767C42.4992 52.4616 42.5435 50.6432 43.7445 49.3632C45.1337 47.8799 46.7276 48.226 47.519 48.8523L46.5505 49.8906Z" fill="white"/>
<path d="M47.3088 43.4582C47.6132 42.6122 48.7699 40.5191 51.7918 41.5849C54.8081 42.6451 54.3819 44.9964 54.0831 45.8424C53.7842 46.6884 52.6219 48.7815 49.6001 47.7158C46.5838 46.6555 47.0099 44.2987 47.3088 43.4582ZM52.9429 45.4414C53.1975 44.7217 53.1145 43.5516 51.3158 42.9143C49.5171 42.2826 48.7035 43.1341 48.4489 43.8592C48.1943 44.5789 48.2773 45.749 50.0761 46.3863C51.8748 47.0181 52.6884 46.1666 52.9429 45.4414Z" fill="white"/>
<path d="M295.809 27.7743H299.409L307.393 45.9827H304.7C304.423 45.9827 304.152 45.949 303.888 45.8748C303.631 45.8007 303.388 45.6996 303.164 45.5581C302.941 45.4166 302.745 45.2481 302.562 45.046C302.386 44.8505 302.237 44.6214 302.129 44.3653L301.236 42.3437H293.962L293.096 44.3653C292.995 44.5945 292.853 44.8034 292.67 44.9988C292.487 45.1942 292.284 45.3627 292.054 45.5109C291.824 45.6592 291.58 45.7738 291.317 45.8546C291.053 45.9355 290.789 45.9759 290.525 45.9759H287.818L295.809 27.7676V27.7743ZM295.64 38.5767H299.544L297.948 34.7625C297.873 34.5873 297.812 34.4188 297.772 34.2638C297.731 34.1088 297.697 33.974 297.67 33.8595C297.636 33.7247 297.616 33.5967 297.609 33.4754C297.589 33.5967 297.569 33.7247 297.535 33.8662C297.508 33.9875 297.474 34.1223 297.427 34.2706C297.379 34.4188 297.325 34.5873 297.251 34.7558L295.64 38.5699V38.5767Z" fill="#BE1E2D"/>
<path d="M323.795 35.766V43.6841C323.307 44.1828 322.786 44.5939 322.232 44.9106C321.677 45.2273 321.095 45.4767 320.493 45.6586C319.89 45.8406 319.268 45.9686 318.639 46.0427C318.003 46.1169 317.367 46.1506 316.717 46.1506C315.858 46.1506 315.025 46.0427 314.227 45.8204C313.429 45.598 312.684 45.288 311.987 44.8837C311.29 44.4793 310.661 44.0009 310.086 43.4348C309.511 42.8687 309.024 42.2488 308.618 41.5614C308.212 40.874 307.9 40.1395 307.67 39.3443C307.447 38.5491 307.332 37.727 307.332 36.8712C307.332 36.0153 307.447 35.1932 307.67 34.398C307.894 33.6096 308.212 32.8683 308.618 32.1809C309.024 31.4936 309.511 30.8669 310.086 30.3075C310.661 29.7415 311.29 29.263 311.987 28.8587C312.684 28.4544 313.429 28.1444 314.227 27.922C315.025 27.6996 315.858 27.5918 316.717 27.5918C317.4 27.5918 318.077 27.6727 318.747 27.8479C319.417 28.0163 320.073 28.2589 320.702 28.5689C321.338 28.8789 321.947 29.2563 322.543 29.7078C323.131 30.1593 323.686 30.658 324.207 31.2173L323.152 32.309C322.624 32.8616 321.954 33.1379 321.149 33.1379C320.581 33.1379 320.066 32.9829 319.606 32.6661C319.18 32.3898 318.727 32.1607 318.246 31.999C317.766 31.8373 317.258 31.7497 316.724 31.7497C316.02 31.7497 315.35 31.8844 314.721 32.154C314.092 32.4235 313.544 32.7942 313.07 33.2524C312.596 33.7107 312.224 34.2565 311.94 34.8765C311.662 35.4965 311.52 36.1636 311.52 36.8644C311.52 37.5653 311.669 38.2863 311.96 38.913C312.251 39.5398 312.644 40.0789 313.138 40.5304C313.625 40.9819 314.193 41.339 314.836 41.5951C315.479 41.8512 316.155 41.9792 316.859 41.9792C317.346 41.9792 317.827 41.932 318.314 41.8377C318.801 41.7434 319.234 41.6018 319.626 41.4199V39.6678C319.221 39.6611 318.842 39.5937 318.503 39.4656C318.165 39.3376 317.874 39.1691 317.63 38.9535C317.387 38.7378 317.197 38.4818 317.062 38.192C316.927 37.9022 316.859 37.5788 316.859 37.2216V35.7593H323.815L323.795 35.766Z" fill="#BE1E2D"/>
<path d="M332.192 45.9818H328.018V27.7734H335.19C335.88 27.7734 336.516 27.861 337.098 28.043C337.68 28.2182 338.208 28.4608 338.681 28.764C339.155 29.0673 339.568 29.4177 339.933 29.8288C340.292 30.2399 340.596 30.6779 340.84 31.1496C341.083 31.6213 341.266 32.1065 341.388 32.6052C341.51 33.1039 341.571 33.6025 341.571 34.0945C341.571 34.5864 341.516 35.0581 341.408 35.5366C341.3 36.015 341.131 36.4868 340.901 36.9383C340.671 37.3965 340.373 37.8345 340.008 38.2523C339.642 38.6701 339.202 39.061 338.681 39.4249L343.553 45.9818H339.994C339.92 45.9818 339.784 45.9683 339.602 45.9413C339.419 45.9144 339.209 45.8605 338.986 45.7661C338.763 45.6718 338.512 45.5303 338.255 45.3483C337.998 45.1664 337.754 44.9036 337.531 44.5734L334.466 40.4425H332.179V45.9818H332.192ZM335.406 36.2576C335.664 36.2576 335.907 36.197 336.144 36.0689C336.381 35.9409 336.591 35.7792 336.773 35.5703C336.956 35.3681 337.105 35.139 337.213 34.8762C337.321 34.6201 337.382 34.3573 337.382 34.0945C337.382 33.8317 337.328 33.5688 337.213 33.3128C337.105 33.0567 336.956 32.8208 336.773 32.6187C336.591 32.4165 336.381 32.248 336.144 32.12C335.907 31.992 335.657 31.9313 335.406 31.9313H332.192V36.2509H335.406V36.2576Z" fill="#BE1E2D"/>
<path d="M350.434 45.9818H346.246V27.7734H350.434V45.9818Z" fill="#BE1E2D"/>
<path d="M358.6 45.9818H355.305V27.7734H363.397C364.169 27.7734 364.899 27.915 365.583 28.2047C366.266 28.4945 366.868 28.8853 367.376 29.384C367.883 29.8827 368.289 30.469 368.58 31.1429C368.871 31.8167 369.02 32.5311 369.02 33.2993C369.02 33.5284 368.979 33.8047 368.898 34.1282C368.817 34.4516 368.702 34.7616 368.56 35.0649C368.418 35.3681 368.242 35.6309 368.032 35.8668C367.822 36.1026 367.586 36.2442 367.322 36.2913C367.68 36.3318 368.012 36.4868 368.31 36.7563C368.614 37.0259 368.871 37.3561 369.095 37.7469C369.318 38.1378 369.487 38.5691 369.615 39.0273C369.744 39.4855 369.805 39.9236 369.805 40.3346C369.805 41.1231 369.656 41.8576 369.352 42.545C369.047 43.2323 368.641 43.8321 368.12 44.3375C367.599 44.8429 366.99 45.2472 366.293 45.537C365.596 45.8268 364.852 45.975 364.06 45.975L358.586 45.9885L358.6 45.9818ZM359.48 31.9246V34.6673H363.553C363.729 34.6673 363.905 34.6336 364.06 34.5594C364.223 34.4853 364.365 34.391 364.48 34.2697C364.602 34.1484 364.69 34.0001 364.757 33.8384C364.825 33.6767 364.859 33.4947 364.859 33.3128C364.859 33.1308 364.825 32.9489 364.757 32.7804C364.69 32.6119 364.595 32.4637 364.48 32.3356C364.365 32.2076 364.223 32.1065 364.06 32.0391C363.898 31.9717 363.729 31.9313 363.553 31.9313H359.48V31.9246ZM364.23 41.8239C364.426 41.8239 364.608 41.7835 364.778 41.7026C364.947 41.6217 365.096 41.5139 365.224 41.3724C365.353 41.2309 365.454 41.0692 365.529 40.8872C365.603 40.7053 365.644 40.5098 365.644 40.3077C365.644 40.1055 365.61 39.9101 365.535 39.7349C365.461 39.5597 365.366 39.4047 365.238 39.2699C365.109 39.1351 364.96 39.034 364.791 38.9532C364.622 38.8723 364.439 38.8319 364.243 38.8319H359.486V41.8172H364.236L364.23 41.8239Z" fill="#BE1E2D"/>
<path d="M378.737 27.7743H382.337L390.321 45.9827H387.628C387.351 45.9827 387.08 45.949 386.816 45.8748C386.559 45.8007 386.315 45.6996 386.092 45.5581C385.869 45.4166 385.673 45.2481 385.49 45.046C385.314 44.8505 385.165 44.6214 385.057 44.3653L384.164 42.3437H376.89L376.024 44.3653C375.922 44.5945 375.78 44.8034 375.598 44.9988C375.415 45.1942 375.212 45.3627 374.982 45.5109C374.752 45.6592 374.508 45.7738 374.244 45.8546C373.98 45.9355 373.717 45.9759 373.453 45.9759H370.746L378.737 27.7676V27.7743ZM378.568 38.5767H382.472L380.875 34.7625C380.801 34.5873 380.74 34.4188 380.699 34.2638C380.659 34.1088 380.625 33.974 380.598 33.8595C380.564 33.7247 380.544 33.5967 380.537 33.4754C380.517 33.5967 380.496 33.7247 380.463 33.8662C380.435 33.9875 380.402 34.1223 380.354 34.2706C380.307 34.4188 380.253 34.5873 380.178 34.7558L378.568 38.5699V38.5767Z" fill="#BE1E2D"/>
<path d="M409.166 45.9827H405.019L396.277 33.3878V45.9827H392.115V27.7743H396.222C396.628 27.7743 396.994 27.835 397.305 27.9495C397.616 28.0641 397.86 28.2528 398.029 28.4954L404.423 37.8219C404.518 37.9567 404.599 38.105 404.667 38.2667C404.734 38.4284 404.795 38.5767 404.843 38.7182C404.89 38.8597 404.931 38.981 404.958 39.0821C404.985 39.1832 404.998 39.2438 404.998 39.2708V27.7676H409.16V45.9759L409.166 45.9827Z" fill="#BE1E2D"/>
<path d="M418.077 45.9818H413.902V27.7734H418.077V45.9818ZM419.836 35.8263L424.241 29.1819C424.363 29.0066 424.498 28.8314 424.661 28.663C424.823 28.4945 424.999 28.3462 425.182 28.2115C425.365 28.0767 425.568 27.9756 425.777 27.8947C425.987 27.8139 426.197 27.7734 426.42 27.7734H430.169L424.681 36.0689C424.559 36.2374 424.424 36.3722 424.268 36.4598C424.113 36.5541 424.018 36.6013 423.984 36.6148C423.991 36.6148 424.025 36.6283 424.079 36.6552C424.133 36.6822 424.194 36.7159 424.262 36.763C424.329 36.8102 424.404 36.8709 424.478 36.9383C424.553 37.0124 424.62 37.0865 424.681 37.1741L430.554 45.9818H426.806C426.305 45.9818 425.886 45.8537 425.54 45.5909C425.202 45.3348 424.884 44.9844 424.593 44.5464L419.836 37.4167C419.742 37.2752 419.64 37.1472 419.532 37.0461C419.424 36.945 419.315 36.8641 419.221 36.8035C419.119 36.7428 419.038 36.7024 418.97 36.6687C418.903 36.6417 418.862 36.6215 418.855 36.6148C418.862 36.6148 418.903 36.6013 418.97 36.5744C419.038 36.5474 419.119 36.507 419.221 36.4463C419.315 36.3857 419.424 36.3048 419.532 36.2037C419.64 36.1026 419.742 35.9746 419.836 35.8196V35.8263Z" fill="#BE1E2D"/>
<path d="M84.6595 36.8909C84.6595 37.5917 84.8016 38.2521 85.079 38.8721C85.3564 39.4921 85.7353 40.0379 86.2157 40.5029C86.6894 40.9679 87.2442 41.3318 87.8735 41.6013C88.5028 41.8642 89.1659 41.9989 89.8696 41.9989C90.4109 41.9989 90.9251 41.9181 91.4055 41.7496C91.8859 41.5879 92.3325 41.3655 92.752 41.0825C93.1986 40.7792 93.7128 40.6242 94.2812 40.6242C94.721 40.6242 95.0999 40.6916 95.4112 40.8331C95.7224 40.9746 96.0134 41.1768 96.2773 41.4329L97.3599 42.5111C96.8321 43.0704 96.2773 43.5691 95.6886 44.0206C95.0999 44.4654 94.4842 44.8495 93.8549 45.1595C93.2257 45.4694 92.5693 45.712 91.8995 45.8805C91.2296 46.049 90.553 46.1366 89.8763 46.1366C89.017 46.1366 88.1915 46.0288 87.3931 45.8064C86.5947 45.584 85.8504 45.274 85.1534 44.8764C84.4565 44.4788 83.8272 43.9936 83.2589 43.4343C82.6905 42.875 82.2033 42.2483 81.7973 41.5609C81.3913 40.8736 81.0733 40.139 80.85 39.3506C80.6267 38.5621 80.5117 37.74 80.5117 36.8842C80.5117 36.0283 80.6267 35.2062 80.85 34.4177C81.0733 33.6293 81.3913 32.888 81.7973 32.2074C82.2033 31.52 82.6905 30.9001 83.2589 30.334C83.8272 29.7747 84.4565 29.2895 85.1534 28.8852C85.8504 28.4876 86.5947 28.1708 87.3931 27.9552C88.1915 27.7328 89.017 27.625 89.8763 27.625C90.553 27.625 91.2296 27.7126 91.8995 27.8811C92.5693 28.0495 93.2189 28.2921 93.8549 28.6021C94.4842 28.9189 95.0999 29.2962 95.6886 29.741C96.2773 30.1858 96.8389 30.6912 97.3599 31.2505L96.2773 32.3287C96.0202 32.5848 95.7292 32.7802 95.3977 32.9285C95.0661 33.0767 94.694 33.1508 94.2745 33.1508C93.7129 33.1508 93.2054 32.9959 92.7453 32.6791C92.319 32.3894 91.8724 32.167 91.392 32.0052C90.9116 31.8435 90.4041 31.7626 89.8696 31.7626C89.1659 31.7626 88.496 31.8974 87.8735 32.167C87.2442 32.4365 86.6962 32.8004 86.2157 33.2654C85.7421 33.7236 85.3632 34.2695 85.079 34.8895C84.8016 35.5094 84.6595 36.1698 84.6595 36.8707V36.8909Z" fill="#BE1E2D"/>
<path d="M116.523 45.9814H112.361V38.791H104.255V45.9814H100.107V27.8135H104.255V34.9162H112.361V27.8135H116.523V45.9814Z" fill="#BE1E2D"/>
<path d="M124.364 38.6697C124.364 39.128 124.459 39.5593 124.642 39.9636C124.824 40.3679 125.082 40.7251 125.393 41.0283C125.704 41.3316 126.069 41.5742 126.482 41.7494C126.895 41.9246 127.328 42.0122 127.788 42.0122C128.248 42.0122 128.681 41.9246 129.094 41.7494C129.507 41.5742 129.872 41.3316 130.19 41.0283C130.508 40.7251 130.758 40.3679 130.948 39.9636C131.137 39.5593 131.225 39.128 131.225 38.6697V27.8135H135.387V38.6697C135.387 39.7075 135.184 40.6847 134.791 41.5944C134.392 42.5041 133.851 43.2926 133.161 43.9732C132.47 44.6538 131.665 45.1862 130.745 45.5771C129.825 45.9679 128.837 46.1633 127.788 46.1633C127.091 46.1633 126.421 46.0757 125.778 45.9005C125.136 45.7253 124.533 45.4692 123.972 45.1458C123.41 44.8223 122.896 44.4315 122.429 43.9732C121.962 43.515 121.563 43.0096 121.231 42.457C120.9 41.9044 120.643 41.3046 120.46 40.6712C120.277 40.0377 120.189 39.3706 120.189 38.6765V27.8202H124.364V38.6765V38.6697Z" fill="#BE1E2D"/>
<path d="M155.949 45.9814H151.815L143.093 33.4202V45.9814H138.945V27.8135H143.046C143.452 27.8135 143.817 27.8741 144.128 27.9887C144.44 28.11 144.683 28.2919 144.852 28.5345L151.233 37.8409C151.328 37.9756 151.409 38.1239 151.477 38.2856C151.544 38.4474 151.605 38.5956 151.652 38.7371C151.7 38.8786 151.74 38.9999 151.768 39.101C151.795 39.2021 151.808 39.2628 151.808 39.2897V27.8135H155.956V45.9814H155.949Z" fill="#BE1E2D"/>
<path d="M175.275 35.7926V43.6905C174.794 44.1892 174.273 44.6002 173.718 44.9102C173.163 45.2269 172.582 45.4763 171.979 45.6582C171.377 45.8402 170.761 45.9682 170.125 46.0356C169.489 46.103 168.853 46.1434 168.21 46.1434C167.351 46.1434 166.526 46.0356 165.727 45.8132C164.929 45.5908 164.184 45.2808 163.494 44.8833C162.804 44.4857 162.168 44.0005 161.6 43.4411C161.031 42.8818 160.537 42.2551 160.138 41.5677C159.739 40.8804 159.421 40.1459 159.198 39.3574C158.974 38.569 158.859 37.7468 158.859 36.891C158.859 36.0352 158.974 35.213 159.198 34.4246C159.421 33.6361 159.739 32.8949 160.138 32.2142C160.544 31.5269 161.031 30.9069 161.6 30.3408C162.168 29.7748 162.804 29.2963 163.494 28.892C164.184 28.4944 164.929 28.1777 165.727 27.962C166.526 27.7464 167.351 27.6318 168.21 27.6318C168.887 27.6318 169.564 27.7194 170.234 27.8879C170.903 28.0564 171.553 28.2922 172.189 28.6022C172.818 28.9122 173.434 29.2896 174.023 29.7344C174.611 30.1791 175.166 30.6845 175.681 31.2438L174.625 32.3355C174.097 32.8881 173.434 33.1577 172.629 33.1577C172.061 33.1577 171.546 33.0027 171.086 32.686C170.66 32.4097 170.207 32.1873 169.733 32.0188C169.259 31.8503 168.745 31.7695 168.21 31.7695C167.507 31.7695 166.837 31.9043 166.214 32.1738C165.592 32.4434 165.037 32.8073 164.563 33.2722C164.09 33.7372 163.718 34.2763 163.433 34.8963C163.156 35.5163 163.014 36.1767 163.014 36.8775C163.014 37.5784 163.163 38.2927 163.454 38.9194C163.745 39.5461 164.137 40.0852 164.624 40.5367C165.111 40.9882 165.68 41.3454 166.316 41.6014C166.959 41.8575 167.629 41.9856 168.332 41.9856C168.813 41.9856 169.3 41.9384 169.78 41.844C170.261 41.7497 170.7 41.6149 171.093 41.4262V39.6741C170.687 39.6674 170.315 39.6 169.97 39.472C169.631 39.3439 169.34 39.1755 169.097 38.9598C168.853 38.7442 168.664 38.4881 168.528 38.1983C168.393 37.9086 168.325 37.5851 168.325 37.2279V35.7724H175.261L175.275 35.7926Z" fill="#BE1E2D"/>
<path d="M190.431 45.9814H186.27V27.8135H190.431V45.9814ZM192.19 35.8529L196.581 29.2219C196.703 29.0467 196.839 28.8715 197.001 28.703C197.163 28.5345 197.339 28.3863 197.522 28.2515C197.711 28.1235 197.908 28.0156 198.111 27.9348C198.32 27.8539 198.53 27.8135 198.753 27.8135H202.495L197.021 36.0955C196.899 36.264 196.764 36.3988 196.609 36.4864C196.453 36.574 196.358 36.6279 196.324 36.6414C196.331 36.6414 196.365 36.6548 196.419 36.6818C196.473 36.7087 196.534 36.7424 196.602 36.7896C196.669 36.8368 196.744 36.8974 196.818 36.9648C196.893 37.0389 196.96 37.1131 197.021 37.2007L202.874 45.9881H199.132C198.632 45.9881 198.212 45.8601 197.874 45.604C197.535 45.3479 197.217 44.9975 196.933 44.5595L192.183 37.45C192.089 37.3085 191.987 37.1872 191.879 37.0794C191.771 36.9716 191.662 36.8974 191.568 36.8368C191.466 36.7761 191.385 36.7357 191.317 36.702C191.25 36.675 191.209 36.6548 191.202 36.6481C191.209 36.6481 191.25 36.6346 191.317 36.6077C191.385 36.5807 191.466 36.5403 191.568 36.4796C191.662 36.419 191.771 36.3381 191.879 36.237C191.987 36.1359 192.089 36.0079 192.183 35.8597L192.19 35.8529Z" fill="#BE1E2D"/>
<path d="M221.218 45.9814H217.057V38.791H208.951V45.9814H204.803V27.8135H208.951V34.9162H217.057V27.8135H221.218V45.9814Z" fill="#BE1E2D"/>
<path d="M224.08 36.891C224.08 36.0352 224.195 35.213 224.418 34.4246C224.642 33.6361 224.96 32.8949 225.366 32.2142C225.772 31.5269 226.259 30.9069 226.827 30.3408C227.396 29.7815 228.025 29.2963 228.722 28.892C229.419 28.4944 230.163 28.1777 230.961 27.962C231.76 27.7397 232.585 27.6318 233.445 27.6318C234.304 27.6318 235.13 27.7397 235.928 27.962C236.726 28.1844 237.471 28.4944 238.168 28.892C238.865 29.2963 239.494 29.7748 240.062 30.3408C240.631 30.9002 241.118 31.5269 241.524 32.2142C241.93 32.9016 242.248 33.6361 242.471 34.4246C242.694 35.213 242.809 36.0352 242.809 36.891C242.809 37.7468 242.694 38.569 242.471 39.3574C242.248 40.1459 241.93 40.8871 241.524 41.5677C241.118 42.2551 240.631 42.8751 240.062 43.4411C239.494 44.0005 238.858 44.4857 238.168 44.8833C237.471 45.2876 236.726 45.5976 235.928 45.8132C235.13 46.0356 234.304 46.1434 233.445 46.1434C232.585 46.1434 231.746 46.0356 230.955 45.8132C230.163 45.5908 229.419 45.2808 228.722 44.8833C228.025 44.4789 227.396 44.0005 226.827 43.4411C226.259 42.8818 225.772 42.2551 225.366 41.5677C224.96 40.8804 224.642 40.1459 224.418 39.3574C224.195 38.569 224.08 37.7468 224.08 36.891ZM228.241 36.891C228.241 37.5918 228.383 38.2522 228.661 38.8722C228.938 39.4922 229.317 40.038 229.791 40.503C230.265 40.968 230.819 41.3319 231.449 41.6014C232.078 41.8643 232.741 41.999 233.445 41.999C234.148 41.999 234.805 41.8643 235.434 41.6014C236.063 41.3386 236.618 40.968 237.099 40.503C237.572 40.038 237.951 39.4922 238.228 38.8722C238.506 38.2522 238.648 37.5918 238.648 36.891C238.648 36.1902 238.506 35.5298 238.228 34.9098C237.951 34.2898 237.572 33.7507 237.099 33.2857C236.625 32.8275 236.07 32.4568 235.434 32.1873C234.798 31.9177 234.135 31.783 233.445 31.783C232.755 31.783 232.071 31.9177 231.449 32.1873C230.826 32.4568 230.271 32.8207 229.791 33.2857C229.317 33.744 228.938 34.2898 228.661 34.9098C228.383 35.5298 228.241 36.1902 228.241 36.891Z" fill="#BE1E2D"/>
<path d="M250.192 27.8135H253.785L261.755 45.9814H259.069C258.792 45.9814 258.521 45.9477 258.264 45.8736C258.007 45.7994 257.763 45.6984 257.547 45.5568C257.323 45.4153 257.127 45.2469 256.951 45.0514C256.775 44.856 256.626 44.6269 256.518 44.3708L255.625 42.3559H248.371L247.505 44.3708C247.404 44.5999 247.262 44.8088 247.079 45.0043C246.896 45.1997 246.693 45.3682 246.463 45.5164C246.233 45.6647 245.99 45.7792 245.726 45.8601C245.462 45.941 245.198 45.9814 244.934 45.9814H242.234L250.205 27.8135H250.192ZM250.029 38.5889H253.927L252.337 34.7882C252.262 34.613 252.201 34.4445 252.161 34.2962C252.12 34.1412 252.086 34.0065 252.059 33.8919C252.025 33.7571 252.005 33.6291 251.998 33.5145C251.985 33.6358 251.958 33.7639 251.924 33.9054C251.897 34.0267 251.863 34.1615 251.816 34.3097C251.768 34.4647 251.714 34.6197 251.646 34.7882L250.043 38.5889H250.029Z" fill="#BE1E2D"/>
<path d="M280.017 45.9814H275.883L267.161 33.4202V45.9814H263.014V27.8135H267.114C267.52 27.8135 267.885 27.8741 268.197 27.9887C268.508 28.11 268.752 28.2919 268.921 28.5345L275.301 37.8409C275.396 37.9756 275.477 38.1239 275.545 38.2856C275.613 38.4474 275.673 38.5956 275.721 38.7371C275.768 38.8786 275.809 38.9999 275.836 39.101C275.863 39.2021 275.876 39.2628 275.876 39.2897V27.8135H280.024V45.9814H280.017Z" fill="#BE1E2D"/>
<path d="M136.774 26.3178C136.774 26.6817 136.72 26.9917 136.605 27.2612C136.49 27.524 136.347 27.7464 136.171 27.9149C135.996 28.0901 135.793 28.2114 135.563 28.2923C135.332 28.3731 135.109 28.4136 134.886 28.4136V27.9284C135.129 27.9284 135.353 27.8475 135.563 27.6858C135.772 27.524 135.894 27.3017 135.935 27.0254C135.908 27.0321 135.874 27.0456 135.84 27.0523C135.813 27.0591 135.779 27.0725 135.738 27.0793C135.698 27.086 135.65 27.0928 135.59 27.0928C135.312 27.0928 135.075 26.9917 134.893 26.776C134.703 26.5671 134.615 26.3245 134.615 26.0415C134.615 25.7585 134.71 25.5159 134.899 25.307C135.089 25.0981 135.346 24.9902 135.664 24.9902C136.016 24.9902 136.293 25.125 136.49 25.3878C136.686 25.6506 136.78 25.9606 136.78 26.3178H136.774Z" fill="#BE1E2D"/>
<path d="M126.963 26.7017L126.699 26.2098L130.482 22.6045L131.415 24.397L126.963 26.7017Z" fill="#BE1E2D"/>
<path d="M251.044 25.9332L250.787 25.4345L254.563 21.8359L255.503 23.6285L251.044 25.9332Z" fill="#BE1E2D"/>
</g>
<defs>
<linearGradient id="paint0_linear_1515_89574" x1="34.3915" y1="14.0674" x2="26.0675" y2="71.1915" gradientUnits="userSpaceOnUse">
<stop stop-color="#FAAE42"/>
<stop offset="1" stop-color="#F15B2C"/>
</linearGradient>
<linearGradient id="paint1_linear_1515_89574" x1="52.4222" y1="24.1748" x2="7.02625" y2="52.902" gradientUnits="userSpaceOnUse">
<stop stop-color="#F28021"/>
<stop offset="1" stop-color="#FEC015"/>
</linearGradient>
<linearGradient id="paint2_linear_1515_89574" x1="41.7961" y1="24.2132" x2="24.2394" y2="46.2159" gradientUnits="userSpaceOnUse">
<stop stop-color="#F28021"/>
<stop offset="1" stop-color="#FEC015"/>
</linearGradient>
<linearGradient id="paint3_linear_1515_89574" x1="50.5742" y1="33.7954" x2="52.494" y2="15.5206" gradientUnits="userSpaceOnUse">
<stop stop-color="#FAAE42"/>
<stop offset="1" stop-color="#F6E92D"/>
</linearGradient>
<linearGradient id="paint4_linear_1515_89574" x1="51.7033" y1="34.4051" x2="58.6793" y2="19.0935" gradientUnits="userSpaceOnUse">
<stop stop-color="#FAAE42"/>
<stop offset="1" stop-color="#F6E92D"/>
</linearGradient>
<linearGradient id="paint5_linear_1515_89574" x1="49.5004" y1="35.2789" x2="42.5707" y2="21.465" gradientUnits="userSpaceOnUse">
<stop stop-color="#FAAE42"/>
<stop offset="1" stop-color="#F6E92D"/>
</linearGradient>
<linearGradient id="paint6_linear_1515_89574" x1="42.1459" y1="34.3379" x2="53.0181" y2="5.84888" gradientUnits="userSpaceOnUse">
<stop stop-color="#F28021"/>
<stop offset="1" stop-color="#FEC015"/>
</linearGradient>
<clipPath id="clip0_1515_89574">
<rect width="431" height="68" fill="white"/>
</clipPath>
</defs>
</svg>
