<svg width="321" height="48" viewBox="0 0 321 48" fill="none" xmlns="http://www.w3.org/2000/svg">
<g clip-path="url(#clip0_1093_10251)">
<path d="M43.3865 26.346C43.2234 38.1021 33.5737 47.5803 21.6952 47.5803C9.81661 47.5803 0 37.9402 0 26.0453C0 14.1504 9.80108 4.61059 21.6952 4.51038V6.45689C10.9078 6.5571 1.96488 15.3106 1.96488 26.0415C1.96488 36.7723 10.8146 45.6299 21.6952 45.6299C26.9413 45.6299 31.8768 43.6102 35.6007 39.9407C39.2859 36.3098 41.3478 31.4878 41.4255 26.346H43.3904H43.3865Z" fill="url(#paint0_linear_1093_10251)"/>
<path d="M40.9986 26.3457C40.8355 36.8221 32.1605 45.3212 21.5828 45.3212C16.4804 45.3212 11.8322 43.3555 8.3607 40.1524C8.2908 40.0869 8.2209 40.0213 8.15101 39.952C4.54356 36.4559 2.30298 31.58 2.30298 26.1915C2.30298 15.6187 10.943 7.00391 21.5828 6.94995V18.895H14.232V33.488H28.9336V33.3916H28.9531V26.3495H41.0025L40.9986 26.3457Z" fill="url(#paint1_linear_1093_10251)"/>
<path d="M21.6485 21.0768V19.3616H14.7715V33.018H28.5295V26.3459H26.8986V31.4415H16.3364V21.0768H21.6485Z" fill="url(#paint2_linear_1093_10251)"/>
<path d="M38.3346 15.4306C38.3346 15.261 38.3346 15.0875 38.3346 14.9141C38.2336 9.20945 36.327 6.26849 35.4377 5.20465V19.6628C35.7833 18.8225 36.2804 17.9206 36.9988 16.9762C37.4415 16.3903 37.8919 15.8815 38.3385 15.4344L38.3346 15.4306Z" fill="url(#paint3_linear_1093_10251)"/>
<path d="M38.6027 15.5386C38.5561 15.5849 38.5095 15.6273 38.4629 15.6735C38.4163 15.7198 38.3697 15.7699 38.3231 15.8161C37.9503 16.2016 37.5775 16.6333 37.2086 17.1228C36.3038 18.3177 35.7524 19.4471 35.4262 20.4569C35.3796 20.6073 35.3369 20.7537 35.2981 20.8963C35.3486 21.0929 35.3913 21.2856 35.4262 21.4707C35.6592 22.7156 35.566 23.7217 35.4262 24.3923C35.4185 24.4232 35.4146 24.454 35.4068 24.4849L35.4262 24.4579L36.8785 22.4497L37.2707 21.9062L37.6086 21.436L43.9381 12.6747C42.9673 12.8135 40.8161 13.3647 38.5988 15.5386H38.6027Z" fill="url(#paint4_linear_1093_10251)"/>
<path d="M35.1621 21.5362C35.1427 21.4245 35.1194 21.3127 35.0922 21.2009C35.0689 21.1007 35.0456 21.0005 35.0184 20.9002C34.7233 19.7786 34.1486 18.4989 33.1079 17.1267C32.6497 16.5216 32.1798 15.9974 31.7178 15.5425C29.5005 13.3686 27.3492 12.8174 26.3784 12.6786L32.708 21.4399L34.9097 24.4849L35.0728 24.7123C35.0806 24.6892 35.0844 24.6661 35.0922 24.6429C35.1155 24.5543 35.1388 24.4541 35.1621 24.3423C35.2941 23.7024 35.3834 22.7311 35.1621 21.5324V21.5362Z" fill="url(#paint5_linear_1093_10251)"/>
<path d="M46.6873 9.71741L44.5787 12.6083C44.5787 12.6083 44.571 12.5851 44.5671 12.5736L47.2115 8.50325L46.9203 8.32979L44.2914 12.3808C43.5885 12.4271 41.1616 12.7663 38.6026 15.1715C38.6026 15.0867 38.6026 15.0019 38.6026 14.9132C38.49 8.5071 36.1523 5.55072 35.399 4.76055L35.43 -0.419861H35.0883L35.0572 4.62565C35.0495 4.62565 35.0456 4.63335 35.0378 4.64106L34.8553 0.875242L34.5136 0.89066L34.7116 4.99182C33.803 6.04795 31.8226 9.0236 31.7216 14.9094C31.7216 14.998 31.7216 15.0828 31.7216 15.1676C29.2791 12.8665 26.9531 12.4579 26.1415 12.3847L23.5049 8.32594L23.2136 8.49939L25.792 12.4695C25.792 12.4695 25.7843 12.4965 25.7765 12.5119L23.7378 9.71741L23.4583 9.90242L25.6639 12.9282C25.3921 14.0961 25.1203 16.9947 27.6598 20.6872C30.4013 24.6651 33.7098 25.2124 34.7971 25.2818V26.3495H35.6281V25.2702C36.8047 25.1738 40.0005 24.5494 42.6643 20.6834C45.134 17.0987 44.9476 14.258 44.6836 13.0284L46.9669 9.89857L46.6873 9.71355V9.71741ZM35.4339 5.20382C36.3231 6.27151 38.2337 9.20861 38.3346 14.9132C38.3346 15.0905 38.3346 15.264 38.3346 15.4336C37.8842 15.8769 37.4337 16.3895 36.9949 16.9715C36.2766 17.9159 35.7795 18.8178 35.4339 19.6581V5.20382ZM35.166 24.3413C35.1427 24.4531 35.1194 24.5533 35.0961 24.6419C35.0883 24.6612 35.0844 24.6843 35.0767 24.7113L34.9097 24.4839L32.7079 21.4389L26.3784 12.6776C27.3531 12.8203 29.5004 13.3676 31.7177 15.5415C32.1837 15.9963 32.6497 16.5206 33.1079 17.1296C34.1447 18.5018 34.7194 19.7814 35.0184 20.8992C35.0456 21.0033 35.0689 21.1035 35.0922 21.1999C35.1194 21.3155 35.1427 21.4273 35.1621 21.5352C35.2592 22.0633 35.2941 22.5451 35.2941 22.9729C35.2941 23.5203 35.2359 23.9828 35.1621 24.3413H35.166ZM37.6201 21.435L37.2784 21.9014L36.8862 22.4449L35.4339 24.4531L35.4145 24.48C35.4223 24.4492 35.4261 24.4184 35.4339 24.3875C35.5737 23.7207 35.6669 22.7108 35.4339 21.4697C35.399 21.2808 35.3562 21.092 35.3058 20.8954C35.3446 20.7528 35.3873 20.6063 35.4339 20.456C35.7601 19.4461 36.3115 18.3167 37.2163 17.1218C37.5852 16.6323 37.958 16.2006 38.3307 15.8152C38.3735 15.7689 38.4239 15.7188 38.4666 15.6726L38.6064 15.5338C40.8276 13.3599 42.975 12.8125 43.9458 12.6699L37.6162 21.4312L37.6201 21.435Z" fill="url(#paint6_linear_1093_10251)"/>
<path d="M4.85416 29.8727L4.55127 28.8705L9.62655 29.1288L9.95662 30.2235L5.85601 33.1914L5.54536 32.1584L6.40353 31.5841L5.89484 29.9035L4.85416 29.8689V29.8727ZM6.76467 29.9267L7.11415 31.0869L8.75672 29.9845V29.9729L6.76467 29.9305V29.9267Z" fill="white"/>
<path d="M10.3489 35.2996L11.5954 36.853L9.57615 38.4487L9.16065 37.9323L9.56838 37.4851C9.18006 37.4697 8.61312 37.4543 8.06948 36.7759C7.3511 35.8817 7.34722 34.5557 8.65972 33.515C9.67711 32.7094 11.0906 32.509 12.0924 33.754L12.1002 33.7656C13.0127 34.9065 12.6283 35.9433 12.1468 36.3943L11.5216 35.6157C11.6692 35.5001 11.9255 34.8641 11.4867 34.3168C11.044 33.7617 10.244 33.5536 9.28491 34.3168C8.26364 35.1262 8.44227 35.8894 8.86553 36.4174C9.00144 36.587 9.52566 37.1035 10.411 36.668L9.71594 35.8046L10.3489 35.3074V35.2996Z" fill="white"/>
<path d="M14.1309 36.0978L16.2666 37.2272C17.3889 37.8208 17.152 38.7536 16.9578 39.1159C16.7093 39.5784 16.2628 39.8482 15.7696 39.7673C16.0337 40.1026 16.154 40.3301 15.7347 41.1125C15.4046 41.7254 15.323 41.8757 15.4745 42.0453L15.4162 42.1571L14.4416 41.6406C14.4882 41.4093 14.5697 41.178 14.8027 40.7463C15.1095 40.1759 15.1949 39.933 14.5425 39.59L13.63 39.1082L12.7485 40.7502L11.8826 40.2915L14.1348 36.1017L14.1309 36.0978ZM15.0396 38.9463C15.4978 39.1891 15.8046 39.1506 16.0298 38.7343C16.1502 38.5107 16.2239 38.133 15.7075 37.8593L14.6085 37.2773L14.0067 38.399L15.0396 38.9463Z" fill="white"/>
<path d="M18.6975 42.939L17.719 42.7386L18.6859 38.0824L19.6645 38.2828L18.6975 42.939Z" fill="white"/>
<path d="M21.8275 41.7559C21.8547 42.018 22.0256 42.5113 22.8954 42.4458C23.3691 42.4111 23.8856 42.2569 23.8468 41.7559C23.8196 41.3858 23.4507 41.3165 22.9381 41.2355L22.4178 41.1546C21.6334 41.0351 20.8762 40.9194 20.7946 39.8787C20.7558 39.3507 20.9694 38.3986 22.5187 38.283C23.9827 38.1712 24.4448 39.0924 24.4991 39.6744L23.54 39.7477C23.4973 39.5395 23.3808 39.0423 22.5071 39.1078C22.1265 39.1348 21.6877 39.3083 21.7188 39.74C21.746 40.11 22.0605 40.164 22.2624 40.1948L23.4468 40.3914C24.1108 40.4993 24.7282 40.719 24.7943 41.5708C24.903 42.997 23.4507 43.2321 23.0313 43.263C21.2878 43.394 20.915 42.4227 20.8684 41.833L21.8236 41.7597L21.8275 41.7559Z" fill="white"/>
<path d="M28.9416 37.2426L26.6466 38.3219L27.0777 39.2238L29.1862 38.2332L29.5474 38.9925L27.4388 39.9831L27.9708 41.0971L30.3706 39.9716L30.7317 40.7309L27.4466 42.2727L25.4001 37.9788L28.5804 36.4833L28.9416 37.2426Z" fill="white"/>
<path d="M32.6612 34.7293C32.3972 34.5944 31.8962 34.34 31.3332 34.9413C31.007 35.2882 30.7585 36.0206 31.7487 36.9341C32.3778 37.5161 33.1777 37.7898 33.7524 37.1769C34.1291 36.7761 34.164 36.2827 33.8145 35.797L34.4941 35.0724C35.1193 35.9204 35.1892 36.9071 34.3698 37.7782C33.5039 38.7033 32.2496 38.7842 31.0419 37.6664C29.8188 36.5332 29.8498 35.2574 30.6925 34.3593C31.6671 33.3186 32.7855 33.5614 33.3408 34.0008L32.6612 34.7293Z" fill="white"/>
<path d="M33.1934 30.2159C33.407 29.6223 34.2186 28.1538 36.3388 28.9015C38.4551 29.6455 38.1561 31.2952 37.9464 31.8888C37.7367 32.4823 36.9212 33.9509 34.801 33.2031C32.6847 32.4592 32.9837 30.8057 33.1934 30.2159ZM37.1465 31.6074C37.3251 31.1024 37.2668 30.2814 36.0048 29.8343C34.7428 29.3911 34.172 29.9885 33.9933 30.4973C33.8147 31.0022 33.873 31.8232 35.135 32.2703C36.397 32.7136 36.9678 32.1162 37.1465 31.6074Z" fill="white"/>
<path d="M207.547 19.2118H210.073L215.675 31.9872H213.786C213.591 31.9872 213.401 31.9636 213.216 31.9116C213.035 31.8596 212.865 31.7887 212.708 31.6894C212.551 31.5901 212.414 31.4719 212.285 31.33C212.162 31.1929 212.057 31.0322 211.981 30.8525L211.355 29.4341H206.251L205.644 30.8525C205.572 31.0133 205.473 31.1598 205.345 31.2969C205.216 31.4341 205.074 31.5523 204.913 31.6563C204.751 31.7603 204.58 31.8407 204.395 31.8974C204.21 31.9542 204.025 31.9825 203.84 31.9825H201.941L207.547 19.2071V19.2118ZM207.429 26.791H210.168L209.048 24.1149C208.995 23.992 208.953 23.8738 208.924 23.765C208.896 23.6563 208.872 23.5617 208.853 23.4813C208.829 23.3868 208.815 23.2969 208.81 23.2118C208.796 23.2969 208.782 23.3868 208.758 23.4861C208.739 23.5712 208.715 23.6657 208.682 23.7697C208.649 23.8738 208.611 23.992 208.559 24.1102L207.429 26.7863V26.791Z" fill="#F5F6F8"/>
<path d="M227.183 24.8192V30.3748C226.841 30.7247 226.476 31.0131 226.086 31.2353C225.697 31.4575 225.289 31.6325 224.866 31.7601C224.444 31.8878 224.007 31.9776 223.565 32.0296C223.119 32.0816 222.673 32.1053 222.217 32.1053C221.614 32.1053 221.03 32.0296 220.47 31.8736C219.91 31.7176 219.388 31.5001 218.899 31.2164C218.41 30.9327 217.968 30.597 217.565 30.1998C217.161 29.8027 216.819 29.3677 216.534 28.8854C216.25 28.4031 216.031 27.8878 215.87 27.3299C215.713 26.7719 215.632 26.1951 215.632 25.5946C215.632 24.9942 215.713 24.4173 215.87 23.8594C216.026 23.3062 216.25 22.7861 216.534 22.3038C216.819 21.8216 217.161 21.3819 217.565 20.9894C217.968 20.5923 218.41 20.2566 218.899 19.9729C219.388 19.6892 219.91 19.4717 220.47 19.3157C221.03 19.1596 221.614 19.084 222.217 19.084C222.697 19.084 223.171 19.1407 223.641 19.2637C224.111 19.3819 224.572 19.5521 225.013 19.7696C225.46 19.9871 225.887 20.2518 226.305 20.5686C226.718 20.8854 227.107 21.2353 227.472 21.6277L226.732 22.3937C226.362 22.7814 225.892 22.9752 225.327 22.9752C224.928 22.9752 224.567 22.8665 224.244 22.6443C223.945 22.4504 223.627 22.2897 223.29 22.1762C222.953 22.0627 222.597 22.0012 222.222 22.0012C221.728 22.0012 221.258 22.0958 220.817 22.2849C220.375 22.4741 219.991 22.7341 219.658 23.0556C219.326 23.3771 219.065 23.7601 218.865 24.1951C218.671 24.6301 218.571 25.0982 218.571 25.5899C218.571 26.0816 218.675 26.5875 218.88 27.0273C219.084 27.467 219.359 27.8452 219.706 28.162C220.048 28.4788 220.446 28.7294 220.897 28.9091C221.348 29.0887 221.823 29.1786 222.317 29.1786C222.659 29.1786 222.996 29.1455 223.337 29.0793C223.679 29.0131 223.983 28.9138 224.258 28.7861V27.5568C223.974 27.5521 223.708 27.5048 223.47 27.415C223.233 27.3251 223.029 27.2069 222.858 27.0556C222.687 26.9043 222.554 26.7247 222.459 26.5213C222.364 26.318 222.317 26.0911 222.317 25.8405V24.8145H227.197L227.183 24.8192Z" fill="#F5F6F8"/>
<path d="M233.074 31.987H230.145V19.2116H235.177C235.662 19.2116 236.108 19.2731 236.516 19.4007C236.924 19.5237 237.295 19.6939 237.627 19.9066C237.959 20.1194 238.249 20.3653 238.505 20.6537C238.757 20.9421 238.971 21.2494 239.142 21.5804C239.312 21.9114 239.441 22.2518 239.526 22.6017C239.612 22.9516 239.654 23.3014 239.654 23.6466C239.654 23.9918 239.616 24.3227 239.54 24.6584C239.464 24.9941 239.346 25.3251 239.184 25.6419C239.023 25.9634 238.814 26.2707 238.558 26.5639C238.301 26.857 237.993 27.1312 237.627 27.3866L241.045 31.987H238.548C238.496 31.987 238.401 31.9776 238.273 31.9587C238.145 31.9398 237.997 31.9019 237.841 31.8357C237.684 31.7695 237.508 31.6703 237.328 31.5426C237.148 31.4149 236.977 31.2305 236.82 30.9989L234.669 28.1005H233.065V31.987H233.074ZM235.329 25.1643C235.51 25.1643 235.681 25.1218 235.847 25.0319C236.013 24.9421 236.16 24.8286 236.288 24.6821C236.417 24.5402 236.521 24.3795 236.597 24.1951C236.673 24.0154 236.716 23.831 236.716 23.6466C236.716 23.4622 236.678 23.2778 236.597 23.0981C236.521 22.9185 236.417 22.753 236.288 22.6111C236.16 22.4693 236.013 22.3511 235.847 22.2613C235.681 22.1714 235.505 22.1289 235.329 22.1289H233.074V25.1596H235.329V25.1643Z" fill="#F5F6F8"/>
<path d="M245.873 31.987H242.935V19.2116H245.873V31.987Z" fill="#F5F6F8"/>
<path d="M251.604 31.987H249.292V19.2116H254.969C255.511 19.2116 256.023 19.3109 256.503 19.5142C256.982 19.7175 257.405 19.9918 257.761 20.3416C258.117 20.6915 258.402 21.1029 258.606 21.5757C258.81 22.0485 258.915 22.5497 258.915 23.0887C258.915 23.2494 258.886 23.4433 258.829 23.6702C258.772 23.8972 258.691 24.1147 258.592 24.3275C258.492 24.5402 258.369 24.7246 258.221 24.8901C258.074 25.0556 257.908 25.1549 257.723 25.188C257.975 25.2163 258.207 25.3251 258.416 25.5142C258.63 25.7033 258.81 25.935 258.967 26.2093C259.123 26.4835 259.242 26.7861 259.332 27.1076C259.423 27.4291 259.465 27.7364 259.465 28.0249C259.465 28.578 259.361 29.0934 259.147 29.5757C258.934 30.058 258.649 30.4788 258.283 30.8334C257.918 31.188 257.49 31.4717 257.001 31.675C256.512 31.8783 255.99 31.9823 255.435 31.9823L251.594 31.9918L251.604 31.987ZM252.221 22.1241V24.0485H255.079C255.202 24.0485 255.326 24.0249 255.435 23.9728C255.549 23.9208 255.648 23.8546 255.729 23.7695C255.814 23.6844 255.876 23.5804 255.924 23.4669C255.971 23.3535 255.995 23.2258 255.995 23.0981C255.995 22.9705 255.971 22.8428 255.924 22.7246C255.876 22.6064 255.81 22.5024 255.729 22.4126C255.648 22.3227 255.549 22.2518 255.435 22.2045C255.321 22.1572 255.202 22.1289 255.079 22.1289H252.221V22.1241ZM255.553 29.0698C255.691 29.0698 255.819 29.0414 255.938 28.9847C256.057 28.9279 256.161 28.8523 256.251 28.753C256.341 28.6537 256.413 28.5402 256.465 28.4126C256.517 28.2849 256.546 28.1478 256.546 28.0059C256.546 27.8641 256.522 27.727 256.47 27.6041C256.417 27.4811 256.351 27.3724 256.261 27.2778C256.171 27.1832 256.066 27.1123 255.947 27.0556C255.829 26.9989 255.701 26.9705 255.563 26.9705H252.225V29.065H255.558L255.553 29.0698Z" fill="#F5F6F8"/>
<path d="M265.732 19.2118H268.258L273.86 31.9872H271.97C271.775 31.9872 271.586 31.9636 271.4 31.9116C271.22 31.8596 271.049 31.7887 270.892 31.6894C270.736 31.5901 270.598 31.4719 270.47 31.33C270.347 31.1929 270.242 31.0322 270.166 30.8525L269.539 29.4341H264.436L263.828 30.8525C263.757 31.0133 263.657 31.1598 263.529 31.2969C263.401 31.4341 263.259 31.5523 263.097 31.6563C262.936 31.7603 262.765 31.8407 262.58 31.8974C262.395 31.9542 262.209 31.9825 262.024 31.9825H260.125L265.732 19.2071V19.2118ZM265.613 26.791H268.353L267.232 24.1149C267.18 23.992 267.137 23.8738 267.109 23.765C267.08 23.6563 267.057 23.5617 267.038 23.4813C267.014 23.3868 267 23.2969 266.995 23.2118C266.981 23.2969 266.966 23.3868 266.943 23.4861C266.924 23.5712 266.9 23.6657 266.867 23.7697C266.833 23.8738 266.795 23.992 266.743 24.1102L265.613 26.7863V26.791Z" fill="#F5F6F8"/>
<path d="M287.081 31.9872H284.171L278.037 23.1504V31.9872H275.118V19.2118H277.999C278.284 19.2118 278.541 19.2544 278.759 19.3348C278.977 19.4151 279.148 19.5475 279.267 19.7177L283.753 26.2615C283.82 26.356 283.877 26.4601 283.924 26.5735C283.972 26.687 284.014 26.791 284.048 26.8903C284.081 26.9896 284.109 27.0747 284.128 27.1456C284.147 27.2166 284.157 27.2591 284.157 27.278V19.2071H287.076V31.9825L287.081 31.9872Z" fill="#F5F6F8"/>
<path d="M293.333 31.987H290.404V19.2116H293.333V31.987ZM294.568 24.8617L297.658 20.1998C297.744 20.0769 297.839 19.9539 297.953 19.8357C298.067 19.7175 298.19 19.6135 298.318 19.5189C298.446 19.4244 298.589 19.3535 298.736 19.2967C298.883 19.24 299.03 19.2116 299.187 19.2116H301.817L297.967 25.0319C297.881 25.1501 297.787 25.2447 297.677 25.3062C297.568 25.3724 297.502 25.4055 297.478 25.4149C297.483 25.4149 297.506 25.4244 297.544 25.4433C297.582 25.4622 297.625 25.4858 297.673 25.5189C297.72 25.552 297.772 25.5946 297.825 25.6419C297.877 25.6939 297.924 25.7459 297.967 25.8074L302.088 31.987H299.458C299.106 31.987 298.812 31.8972 298.57 31.7128C298.333 31.5331 298.109 31.2873 297.905 30.9799L294.568 25.9776C294.501 25.8783 294.43 25.7884 294.354 25.7175C294.278 25.6466 294.202 25.5899 294.136 25.5473C294.065 25.5048 294.008 25.4764 293.96 25.4527C293.913 25.4338 293.884 25.4197 293.879 25.4149C293.884 25.4149 293.913 25.4055 293.96 25.3866C294.008 25.3676 294.065 25.3393 294.136 25.2967C294.202 25.2542 294.278 25.1974 294.354 25.1265C294.43 25.0556 294.501 24.9658 294.568 24.857V24.8617Z" fill="#F5F6F8"/>
<path d="M59.3989 25.6085C59.3989 26.1003 59.4986 26.5636 59.6933 26.9986C59.8879 27.4336 60.1538 27.8166 60.4909 28.1428C60.8232 28.4691 61.2125 28.7244 61.654 28.9135C62.0955 29.0979 62.5607 29.1925 63.0545 29.1925C63.4343 29.1925 63.7951 29.1357 64.1321 29.0175C64.4692 28.9041 64.7825 28.748 65.0769 28.5495C65.3902 28.3367 65.751 28.2279 66.1498 28.2279C66.4584 28.2279 66.7242 28.2752 66.9426 28.3745C67.161 28.4738 67.3651 28.6156 67.5503 28.7953L68.3099 29.5518C67.9396 29.9443 67.5503 30.2941 67.1373 30.6109C66.7242 30.923 66.2922 31.1925 65.8507 31.41C65.4092 31.6275 64.9487 31.7977 64.4787 31.9159C64.0087 32.0341 63.534 32.0956 63.0592 32.0956C62.4563 32.0956 61.8771 32.0199 61.3169 31.8639C60.7567 31.7078 60.2345 31.4904 59.7455 31.2114C59.2565 30.9324 58.815 30.592 58.4162 30.1996C58.0174 29.8071 57.6756 29.3674 57.3908 28.8851C57.1059 28.4029 56.8828 27.8875 56.7261 27.3343C56.5695 26.7811 56.4888 26.2043 56.4888 25.6038C56.4888 25.0033 56.5695 24.4265 56.7261 23.8733C56.8828 23.3201 57.1059 22.8 57.3908 22.3225C57.6756 21.8402 58.0174 21.4052 58.4162 21.0081C58.815 20.6156 59.2565 20.2752 59.7455 19.9915C60.2345 19.7126 60.7567 19.4903 61.3169 19.339C61.8771 19.183 62.4563 19.1074 63.0592 19.1074C63.534 19.1074 64.0087 19.1688 64.4787 19.287C64.9487 19.4052 65.4045 19.5754 65.8507 19.7929C66.2922 20.0152 66.7242 20.2799 67.1373 20.592C67.5503 20.9041 67.9443 21.2587 68.3099 21.6511L67.5503 22.4076C67.3699 22.5873 67.1658 22.7244 66.9331 22.8284C66.7005 22.9324 66.4394 22.9844 66.1451 22.9844C65.751 22.9844 65.395 22.8757 65.0721 22.6535C64.773 22.4502 64.4597 22.2941 64.1226 22.1806C63.7856 22.0672 63.4295 22.0104 63.0545 22.0104C62.5607 22.0104 62.0907 22.105 61.654 22.2941C61.2125 22.4833 60.8279 22.7386 60.4909 23.0648C60.1585 23.3863 59.8927 23.7693 59.6933 24.2043C59.4986 24.6393 59.3989 25.1026 59.3989 25.5944V25.6085Z" fill="#F5F6F8"/>
<path d="M81.7547 31.987H78.835V26.9421H73.1476V31.987H70.2374V19.2399H73.1476V24.2234H78.835V19.2399H81.7547V31.987Z" fill="#F5F6F8"/>
<path d="M87.2567 26.857C87.2567 27.1785 87.3232 27.4811 87.4514 27.7648C87.5796 28.0485 87.76 28.299 87.9784 28.5118C88.1967 28.7246 88.4531 28.8948 88.7427 29.0177C89.0323 29.1407 89.3361 29.2021 89.6589 29.2021C89.9818 29.2021 90.2856 29.1407 90.5752 29.0177C90.8648 28.8948 91.1212 28.7246 91.3443 28.5118C91.5674 28.299 91.7431 28.0485 91.876 27.7648C92.0089 27.4811 92.0706 27.1785 92.0706 26.857V19.2399H94.9903V26.857C94.9903 27.5851 94.8479 28.2707 94.5725 28.909C94.2924 29.5473 93.9126 30.1005 93.4284 30.578C92.9442 31.0555 92.3792 31.4291 91.7336 31.7033C91.0879 31.9775 90.3948 32.1147 89.6589 32.1147C89.17 32.1147 88.7 32.0532 88.249 31.9303C87.7979 31.8073 87.3754 31.6277 86.9814 31.4007C86.5874 31.1738 86.2265 30.8995 85.899 30.578C85.5714 30.2565 85.2913 29.9019 85.0587 29.5142C84.8261 29.1265 84.6457 28.7057 84.5175 28.2612C84.3893 27.8168 84.3276 27.3487 84.3276 26.8617V19.2447H87.2567V26.8617V26.857Z" fill="#F5F6F8"/>
<path d="M109.418 31.987H106.517L100.398 23.1737V31.987H97.4877V19.2399H100.365C100.65 19.2399 100.906 19.2825 101.124 19.3629C101.343 19.448 101.514 19.5756 101.632 19.7458L106.109 26.2754C106.176 26.37 106.233 26.474 106.28 26.5875C106.327 26.7009 106.37 26.8049 106.403 26.9042C106.437 27.0035 106.465 27.0886 106.484 27.1596C106.503 27.2305 106.513 27.273 106.513 27.2919V19.2399H109.423V31.987H109.418Z" fill="#F5F6F8"/>
<path d="M122.977 24.8381V30.3795C122.64 30.7293 122.274 31.0178 121.885 31.2352C121.495 31.4575 121.087 31.6324 120.665 31.7601C120.242 31.8877 119.81 31.9776 119.364 32.0248C118.918 32.0721 118.471 32.1005 118.02 32.1005C117.417 32.1005 116.838 32.0248 116.278 31.8688C115.718 31.7128 115.196 31.4953 114.711 31.2163C114.227 30.9374 113.781 30.5969 113.382 30.2045C112.983 29.8121 112.637 29.3724 112.357 28.8901C112.077 28.4078 111.853 27.8925 111.697 27.3393C111.54 26.7861 111.459 26.2092 111.459 25.6088C111.459 25.0083 111.54 24.4315 111.697 23.8783C111.853 23.3251 112.077 22.805 112.357 22.3274C112.641 21.8452 112.983 21.4102 113.382 21.013C113.781 20.6159 114.227 20.2802 114.711 19.9965C115.196 19.7175 115.718 19.4953 116.278 19.344C116.838 19.1927 117.417 19.1123 118.02 19.1123C118.495 19.1123 118.97 19.1738 119.44 19.292C119.91 19.4102 120.366 19.5757 120.812 19.7932C121.253 20.0106 121.685 20.2754 122.098 20.5875C122.511 20.8995 122.901 21.2541 123.261 21.6466L122.521 22.4125C122.151 22.8003 121.685 22.9894 121.12 22.9894C120.722 22.9894 120.361 22.8806 120.038 22.6584C119.739 22.4646 119.421 22.3085 119.088 22.1903C118.756 22.0721 118.395 22.0154 118.02 22.0154C117.527 22.0154 117.057 22.1099 116.62 22.2991C116.183 22.4882 115.794 22.7435 115.461 23.0698C115.129 23.396 114.868 23.7742 114.669 24.2092C114.474 24.6442 114.374 25.1076 114.374 25.5993C114.374 26.091 114.479 26.5922 114.683 27.0319C114.887 27.4717 115.162 27.8499 115.504 28.1667C115.846 28.4835 116.245 28.7341 116.691 28.9137C117.142 29.0934 117.612 29.1832 118.106 29.1832C118.443 29.1832 118.785 29.1501 119.122 29.0839C119.459 29.0177 119.767 28.9232 120.043 28.7908V27.5615C119.758 27.5568 119.497 27.5095 119.255 27.4196C119.017 27.3298 118.813 27.2116 118.642 27.0603C118.471 26.909 118.338 26.7293 118.243 26.526C118.148 26.3227 118.101 26.0958 118.101 25.8452V24.8239H122.967L122.977 24.8381Z" fill="#F5F6F8"/>
<path d="M133.611 31.987H130.691V19.2399H133.611V31.987ZM134.845 24.8806L137.926 20.2281C138.012 20.1052 138.107 19.9822 138.22 19.864C138.334 19.7458 138.458 19.6418 138.586 19.5473C138.719 19.4574 138.857 19.3818 138.999 19.325C139.146 19.2683 139.293 19.2399 139.45 19.2399H142.075L138.235 25.0508C138.149 25.169 138.054 25.2636 137.945 25.325C137.836 25.3865 137.769 25.4243 137.746 25.4338C137.75 25.4338 137.774 25.4432 137.812 25.4622C137.85 25.4811 137.893 25.5047 137.94 25.5378C137.988 25.5709 138.04 25.6135 138.092 25.6607C138.145 25.7128 138.192 25.7648 138.235 25.8262L142.341 31.9917H139.716C139.365 31.9917 139.07 31.9019 138.833 31.7222C138.596 31.5425 138.372 31.2967 138.173 30.9894L134.84 26.0012C134.774 25.9019 134.703 25.8168 134.627 25.7411C134.551 25.6655 134.475 25.6135 134.408 25.5709C134.337 25.5284 134.28 25.5 134.233 25.4763C134.185 25.4574 134.157 25.4432 134.152 25.4385C134.157 25.4385 134.185 25.4291 134.233 25.4102C134.28 25.3912 134.337 25.3629 134.408 25.3203C134.475 25.2778 134.551 25.221 134.627 25.1501C134.703 25.0792 134.774 24.9893 134.84 24.8853L134.845 24.8806Z" fill="#F5F6F8"/>
<path d="M155.212 31.987H152.292V26.9421H146.605V31.987H143.695V19.2399H146.605V24.2234H152.292V19.2399H155.212V31.987Z" fill="#F5F6F8"/>
<path d="M157.22 25.6088C157.22 25.0083 157.3 24.4315 157.457 23.8783C157.614 23.3251 157.837 22.805 158.122 22.3274C158.407 21.8452 158.748 21.4102 159.147 21.013C159.546 20.6206 159.987 20.2802 160.476 19.9965C160.965 19.7175 161.488 19.4953 162.048 19.344C162.608 19.188 163.187 19.1123 163.79 19.1123C164.393 19.1123 164.972 19.188 165.532 19.344C166.093 19.5 166.615 19.7175 167.104 19.9965C167.593 20.2802 168.034 20.6159 168.433 21.013C168.832 21.4054 169.174 21.8452 169.459 22.3274C169.743 22.8097 169.967 23.3251 170.123 23.8783C170.28 24.4315 170.361 25.0083 170.361 25.6088C170.361 26.2092 170.28 26.7861 170.123 27.3393C169.967 27.8925 169.743 28.4125 169.459 28.8901C169.174 29.3724 168.832 29.8073 168.433 30.2045C168.034 30.5969 167.588 30.9374 167.104 31.2163C166.615 31.5 166.093 31.7175 165.532 31.8688C164.972 32.0248 164.393 32.1005 163.79 32.1005C163.187 32.1005 162.599 32.0248 162.043 31.8688C161.488 31.7128 160.965 31.4953 160.476 31.2163C159.987 30.9326 159.546 30.5969 159.147 30.2045C158.748 29.8121 158.407 29.3724 158.122 28.8901C157.837 28.4078 157.614 27.8925 157.457 27.3393C157.3 26.7861 157.22 26.2092 157.22 25.6088ZM160.139 25.6088C160.139 26.1005 160.239 26.5638 160.434 26.9988C160.628 27.4338 160.894 27.8168 161.227 28.143C161.559 28.4693 161.948 28.7246 162.39 28.9137C162.831 29.0981 163.296 29.1927 163.79 29.1927C164.284 29.1927 164.744 29.0981 165.186 28.9137C165.627 28.7293 166.017 28.4693 166.354 28.143C166.686 27.8168 166.952 27.4338 167.147 26.9988C167.341 26.5638 167.441 26.1005 167.441 25.6088C167.441 25.117 167.341 24.6537 167.147 24.2187C166.952 23.7837 166.686 23.4055 166.354 23.0792C166.021 22.7577 165.632 22.4976 165.186 22.3085C164.74 22.1194 164.274 22.0248 163.79 22.0248C163.306 22.0248 162.826 22.1194 162.39 22.3085C161.953 22.4976 161.564 22.753 161.227 23.0792C160.894 23.4007 160.628 23.7837 160.434 24.2187C160.239 24.6537 160.139 25.117 160.139 25.6088Z" fill="#F5F6F8"/>
<path d="M175.54 19.2399H178.061L183.654 31.987H181.769C181.574 31.987 181.384 31.9633 181.204 31.9113C181.024 31.8593 180.853 31.7884 180.701 31.6891C180.544 31.5898 180.406 31.4716 180.283 31.3345C180.16 31.1974 180.055 31.0366 179.979 30.857L179.352 29.4433H174.263L173.656 30.857C173.584 31.0177 173.485 31.1643 173.356 31.3014C173.228 31.4385 173.086 31.5567 172.924 31.6607C172.763 31.7648 172.592 31.8451 172.407 31.9019C172.222 31.9586 172.037 31.987 171.851 31.987H169.957L175.55 19.2399H175.54ZM175.426 26.8002H178.161L177.045 24.1336C176.993 24.0106 176.95 23.8924 176.922 23.7884C176.893 23.6797 176.87 23.5851 176.851 23.5047C176.827 23.4101 176.813 23.3203 176.808 23.2399C176.798 23.325 176.779 23.4149 176.756 23.5142C176.737 23.5993 176.713 23.6938 176.68 23.7979C176.646 23.9066 176.608 24.0153 176.561 24.1336L175.436 26.8002H175.426Z" fill="#F5F6F8"/>
<path d="M196.467 31.987H193.566L187.447 23.1737V31.987H184.537V19.2399H187.414C187.698 19.2399 187.955 19.2825 188.173 19.3629C188.392 19.448 188.563 19.5756 188.681 19.7458L193.158 26.2754C193.224 26.37 193.281 26.474 193.329 26.5875C193.376 26.7009 193.419 26.8049 193.452 26.9042C193.486 27.0035 193.514 27.0886 193.533 27.1596C193.552 27.2305 193.562 27.273 193.562 27.2919V19.2399H196.472V31.987H196.467Z" fill="#F5F6F8"/>
<path d="M95.9639 18.1902C95.9639 18.4455 95.9259 18.663 95.8452 18.8521C95.7645 19.0365 95.6648 19.1925 95.5414 19.3107C95.4179 19.4337 95.2755 19.5188 95.1141 19.5755C94.9527 19.6323 94.796 19.6606 94.6394 19.6606V19.3202C94.8103 19.3202 94.9669 19.2635 95.1141 19.15C95.2613 19.0365 95.3467 18.8805 95.3752 18.6866C95.3562 18.6914 95.3325 18.7008 95.3087 18.7055C95.2898 18.7103 95.266 18.7197 95.2375 18.7245C95.2091 18.7292 95.1758 18.7339 95.1331 18.7339C94.9384 18.7339 94.7723 18.663 94.6441 18.5117C94.5112 18.3651 94.4495 18.1949 94.4495 17.9963C94.4495 17.7977 94.5159 17.6275 94.6489 17.481C94.7818 17.3344 94.9622 17.2587 95.1853 17.2587C95.4322 17.2587 95.6268 17.3533 95.7645 17.5377C95.9022 17.7221 95.9686 17.9396 95.9686 18.1902H95.9639Z" fill="#F5F6F8"/>
<path d="M89.0801 18.4596L88.895 18.1145L91.5488 15.5849L92.2039 16.8426L89.0801 18.4596Z" fill="#F5F6F8"/>
<path d="M176.138 17.9205L175.958 17.5707L178.607 15.0458L179.267 16.3035L176.138 17.9205Z" fill="#F5F6F8"/>
</g>
<defs>
<linearGradient id="paint0_linear_1093_10251" x1="24.1299" y1="9.59443" x2="18.2896" y2="49.6741" gradientUnits="userSpaceOnUse">
<stop stop-color="#FAAE42"/>
<stop offset="1" stop-color="#F15B2C"/>
</linearGradient>
<linearGradient id="paint1_linear_1093_10251" x1="36.7815" y1="16.6864" x2="4.93056" y2="36.8421" gradientUnits="userSpaceOnUse">
<stop stop-color="#F28021"/>
<stop offset="1" stop-color="#FEC015"/>
</linearGradient>
<linearGradient id="paint2_linear_1093_10251" x1="29.3255" y1="16.7135" x2="17.0073" y2="32.1512" gradientUnits="userSpaceOnUse">
<stop stop-color="#F28021"/>
<stop offset="1" stop-color="#FEC015"/>
</linearGradient>
<linearGradient id="paint3_linear_1093_10251" x1="35.4843" y1="23.4363" x2="36.8313" y2="10.6142" gradientUnits="userSpaceOnUse">
<stop stop-color="#FAAE42"/>
<stop offset="1" stop-color="#F6E92D"/>
</linearGradient>
<linearGradient id="paint4_linear_1093_10251" x1="36.2766" y1="23.8643" x2="41.1712" y2="13.1213" gradientUnits="userSpaceOnUse">
<stop stop-color="#FAAE42"/>
<stop offset="1" stop-color="#F6E92D"/>
</linearGradient>
<linearGradient id="paint5_linear_1093_10251" x1="34.7311" y1="24.4772" x2="29.869" y2="14.785" gradientUnits="userSpaceOnUse">
<stop stop-color="#FAAE42"/>
<stop offset="1" stop-color="#F6E92D"/>
</linearGradient>
<linearGradient id="paint6_linear_1093_10251" x1="29.5703" y1="23.8171" x2="37.1986" y2="3.82843" gradientUnits="userSpaceOnUse">
<stop stop-color="#F28021"/>
<stop offset="1" stop-color="#FEC015"/>
</linearGradient>
<clipPath id="clip0_1093_10251">
<rect width="320.643" height="47.1602" fill="white"/>
</clipPath>
</defs>
</svg>
