<svg width="48" height="48" viewBox="0 0 48 48" fill="none" xmlns="http://www.w3.org/2000/svg">
<g clip-path="url(#clip0_1815_109187)">
<path d="M41.7178 32.0698C43.1931 30.5407 43.9972 28.6512 43.9972 26.7209C43.9972 22.8023 40.7517 19.4767 36.2681 18.3198C37.0202 16.9419 37.4599 15.3953 37.4599 13.7558C37.4599 8.09884 32.4152 3.5 26.2134 3.5C20.0116 3.5 14.9727 8.09884 14.9727 13.7558C14.9727 16 15.7884 18.1977 17.281 19.9767L15.8636 25.3256C15.8057 25.5465 15.8809 25.7849 16.0603 25.9302C16.1644 26.0174 16.2917 26.0581 16.4248 26.0581C16.5173 26.0581 16.6041 26.0349 16.6909 25.9942L22.0075 23.2674C22.1464 23.3198 22.291 23.3547 22.4298 23.4012C21.8976 24.4302 21.6025 25.5465 21.6025 26.7209C21.6025 31.593 26.6299 35.564 32.8028 35.564C34.2491 35.564 35.6665 35.3488 37.0028 34.9186L42.3253 37.2558C42.4005 37.2907 42.4815 37.3023 42.5567 37.3023C42.6955 37.3023 42.8344 37.25 42.9443 37.157C43.1121 37.0058 43.1757 36.7674 43.1121 36.5523L41.7236 32.0698H41.7178ZM37.2632 33.7616C37.188 33.7326 37.1128 33.7151 37.0318 33.7151C36.9681 33.7151 36.9103 33.7267 36.8466 33.7442C35.5623 34.1802 34.197 34.3954 32.797 34.3954C27.2605 34.3954 22.7538 30.9535 22.7538 26.7151C22.7538 25.6454 23.0431 24.6337 23.558 23.7035C24.4257 23.8953 25.3109 24.0058 26.2134 24.0058C30.1473 24.0058 33.6127 22.1512 35.6202 19.3488C39.7855 20.2849 42.8344 23.2267 42.8344 26.7093C42.8344 28.4535 42.0823 30.1047 40.6533 31.4709C40.4971 31.6221 40.4335 31.8547 40.5029 32.064L41.6195 35.6686L37.2574 33.75L37.2632 33.7616ZM21.7009 22.1105L17.3157 24.3605L18.4785 19.9767C18.5306 19.7849 18.4785 19.5872 18.3512 19.4419C16.8991 17.814 16.1297 15.843 16.1297 13.7558C16.1297 8.74419 20.6538 4.66279 26.2134 4.66279C31.773 4.66279 36.3028 8.74419 36.3028 13.7558C36.3028 15.314 35.8632 16.7849 35.0937 18.0698C34.9838 18.2558 34.8565 18.4302 34.735 18.6047C34.6078 18.7907 34.4689 18.9651 34.3243 19.1395C32.4846 21.3837 29.5399 22.8488 26.2134 22.8488C25.5596 22.8488 24.9117 22.7849 24.2695 22.6744C24.0613 22.6395 23.853 22.5872 23.6447 22.5349C23.4422 22.4884 23.2398 22.4419 23.0431 22.3837C22.748 22.2965 22.4588 22.2035 22.1753 22.0872C22.0191 22.0233 21.8513 22.0349 21.7009 22.1105Z" fill="#241F1F"/>
<path d="M28.3913 24.4365C27.2458 24.4365 26.3086 25.3784 26.3086 26.5295C26.3086 27.6807 27.2458 28.6226 28.3913 28.6226C29.5368 28.6226 30.474 27.6807 30.474 26.5295C30.474 25.3784 29.5368 24.4365 28.3913 24.4365ZM28.3913 27.4656C27.8822 27.4656 27.4656 27.047 27.4656 26.5354C27.4656 26.0237 27.8822 25.6051 28.3913 25.6051C28.9004 25.6051 29.3169 26.0237 29.3169 26.5354C29.3169 27.047 28.9004 27.4656 28.3913 27.4656Z" fill="#241F1F"/>
<path d="M32.7975 24.4365C31.6463 24.4365 30.7148 25.3784 30.7148 26.5295C30.7148 27.6807 31.6521 28.6226 32.7975 28.6226C33.943 28.6226 34.8802 27.6807 34.8802 26.5295C34.8802 25.3784 33.943 24.4365 32.7975 24.4365ZM32.7975 27.4656C32.2884 27.4656 31.8719 27.047 31.8719 26.5354C31.8719 26.0237 32.2884 25.6051 32.7975 25.6051C33.3066 25.6051 33.7232 26.0237 33.7232 26.5354C33.7232 27.047 33.3066 27.4656 32.7975 27.4656Z" fill="#241F1F"/>
<path d="M37.2077 24.4365C36.0564 24.4365 35.125 25.3784 35.125 26.5295C35.125 27.6807 36.0622 28.6226 37.2077 28.6226C38.3532 28.6226 39.2904 27.6807 39.2904 26.5295C39.2904 25.3784 38.3532 24.4365 37.2077 24.4365ZM37.2077 27.4656C36.6986 27.4656 36.282 27.047 36.282 26.5354C36.282 26.0237 36.6986 25.6051 37.2077 25.6051C37.7168 25.6051 38.1333 26.0237 38.1333 26.5354C38.1333 27.047 37.7168 27.4656 37.2077 27.4656Z" fill="#241F1F"/>
<path d="M21.3092 31.2097C21.0546 30.7562 20.4183 30.5876 19.9728 30.8493L19.8571 30.9307C19.672 31.0237 19.186 31.2853 18.0868 31.9423C17.1323 32.5062 16.5942 33.0818 16.2876 33.5411C15.5645 32.5644 14.3322 30.5179 13.3198 28.6748C12.2437 26.8842 11.0925 24.7795 10.6181 23.669C11.1387 23.64 11.914 23.4714 12.8975 22.9132C13.7595 22.4307 14.3611 22.0818 14.7025 21.8667L14.7719 21.826C14.9975 21.6981 15.1595 21.483 15.2289 21.233C15.2983 20.9772 15.2636 20.7155 15.1363 20.483L10.9363 13.1748C10.7627 12.8725 10.4387 12.6807 10.0916 12.6807C9.91806 12.6807 9.75029 12.7272 9.64615 12.7911C9.54202 12.8376 7.0428 14.0062 5.41714 15.5004C5.20309 15.6981 5.01218 15.9016 4.83862 16.0993C3.41545 17.7562 2.77907 20.0062 3.06833 22.4423C3.42123 25.4249 7.29735 31.8435 7.44776 32.0876C7.59818 32.3667 11.1908 38.9481 13.5859 40.7446C15.1132 41.8958 16.8256 42.5004 18.5265 42.5004C19.2728 42.5004 20.0191 42.3841 20.748 42.1574C22.8481 41.4946 25.1043 39.9016 25.1564 39.8609C25.6192 39.5876 25.7812 38.9888 25.5151 38.5179L21.315 31.2155L21.3092 31.2097ZM10.028 13.9016L14.0545 20.9074C13.8462 21.0353 13.5165 21.2272 13.0942 21.4714L8.95192 14.4655C9.42631 14.1981 9.81971 14.0004 10.028 13.9016ZM20.3951 41.0469C18.3529 41.6923 16.1777 41.2446 14.2743 39.8144C12.0817 38.169 8.49489 31.5993 8.44282 31.5062C8.40233 31.4423 4.53779 25.0411 4.21381 22.3028C4.04026 20.8144 4.15596 18.6632 5.72376 16.8667C5.86839 16.6981 6.03616 16.5295 6.21551 16.3609C6.73039 15.8842 7.3552 15.4423 7.95686 15.0644L12.0817 22.0411C11.3181 22.4248 10.7685 22.5179 10.4329 22.5179C10.1958 22.5179 10.0685 22.4772 10.0685 22.4772C9.88913 22.3958 9.67508 22.4074 9.50731 22.5179C9.33954 22.6283 9.24119 22.8202 9.24697 23.0179C9.2759 24.0993 11.6247 28.0818 12.3305 29.2562C13.0016 30.4772 15.2578 34.5121 16.1777 35.0818C16.3455 35.1865 16.5537 35.1865 16.7331 35.0993C16.9124 35.0179 17.0339 34.8318 17.057 34.64C17.057 34.6342 17.1785 33.8841 18.5728 33.0237L22.7092 40.0179C22.0034 40.4074 21.1819 40.8086 20.4009 41.0528L20.3951 41.0469ZM23.7043 39.419L19.5678 32.419C20.0827 32.1225 20.3199 31.9946 20.4067 31.9539L24.4274 38.9481C24.2944 39.0353 24.0398 39.2097 23.7101 39.4132L23.7043 39.419Z" fill="#241F1F"/>
<path d="M24.7032 9.36619C25.114 9.22665 25.5132 9.15689 25.9123 9.15689C26.595 9.15689 27.0868 9.31968 27.3818 9.63944C27.6768 9.95921 27.8215 10.3778 27.8215 10.8894C27.8215 11.2674 27.7521 11.6046 27.6132 11.8953C27.4744 12.1918 27.3066 12.465 27.0983 12.7267C26.8958 12.9883 26.6702 13.2441 26.433 13.4999C26.1958 13.7557 25.976 14.029 25.7677 14.3255C25.5652 14.622 25.3917 14.9476 25.2528 15.3022C25.114 15.6569 25.0446 16.0697 25.0446 16.5348V16.7208C25.0446 16.7848 25.0446 16.8487 25.0619 16.9011H26.1553C26.1553 16.436 26.2305 16.029 26.381 15.686C26.5314 15.3429 26.7165 15.0232 26.9421 14.7267C27.1677 14.4301 27.4107 14.1511 27.6711 13.8836C27.9314 13.6162 28.1744 13.3313 28.4 13.029C28.6256 12.7208 28.8165 12.3836 28.9612 12.0115C29.1116 11.6394 29.1868 11.2034 29.1868 10.7034C29.1868 10.3255 29.1232 9.97084 29.0017 9.63944C28.8802 9.30805 28.695 9.01735 28.4463 8.77316C28.1975 8.52898 27.8909 8.33712 27.5206 8.19758C27.1504 8.05805 26.7223 7.98828 26.2363 7.98828C25.5537 7.98828 24.9751 8.06386 24.5123 8.21503C24.0495 8.36619 23.604 8.56968 23.1875 8.81968L23.633 9.85456C23.9338 9.66851 24.2867 9.49991 24.6917 9.36037L24.7032 9.36619Z" fill="#241F1F"/>
<path d="M25.6813 18.1162C25.392 18.1162 25.1664 18.2034 24.9928 18.372C24.8193 18.5464 24.7383 18.779 24.7383 19.0813C24.7383 19.3837 24.8251 19.6046 24.9928 19.779C25.1259 19.9127 25.2879 19.9999 25.4846 20.029C25.5482 20.0406 25.6119 20.0464 25.6813 20.0464C25.9821 20.0464 26.2193 19.9592 26.3929 19.779C26.5086 19.6627 26.5896 19.5116 26.6243 19.343C26.6416 19.2616 26.659 19.1744 26.659 19.0813C26.659 18.779 26.5722 18.5464 26.3929 18.372C26.2135 18.2034 25.9763 18.1162 25.6813 18.1162Z" fill="#241F1F"/>
</g>
<defs>
<clipPath id="clip0_1815_109187">
<rect width="41" height="39" fill="white" transform="translate(3 3.5)"/>
</clipPath>
</defs>
</svg>
