<svg width="48" height="48" viewBox="0 0 48 48" fill="none" xmlns="http://www.w3.org/2000/svg">
<path d="M18 12.5C18 10.2909 19.7909 8.5 22 8.5H26C28.2091 8.5 30 10.2909 30 12.5H37C38.6569 12.5 40 13.8431 40 15.5V33.5C40 35.1569 38.6569 36.5 37 36.5H36C36 37.0523 35.5523 37.5 35 37.5C34.4477 37.5 34 37.0523 34 36.5H14C14 37.0523 13.5523 37.5 13 37.5C12.4477 37.5 12 37.0523 12 36.5H11C9.34315 36.5 8 35.1569 8 33.5V15.5C8 13.8431 9.34315 12.5 11 12.5H18ZM20 12.5H28C28 11.3954 27.1046 10.5 26 10.5H22C20.8954 10.5 20 11.3954 20 12.5ZM11 14.5C10.4477 14.5 10 14.9477 10 15.5V33.5C10 34.0523 10.4477 34.5 11 34.5H14V14.5H11ZM38 33.5V15.5C38 14.9477 37.5523 14.5 37 14.5H34V34.5H37C37.5523 34.5 38 34.0523 38 33.5ZM32 34.5V14.5H16V34.5H32Z" fill="#241F1F"/>
</svg>
