<svg width="48" height="48" viewBox="0 0 48 48" fill="none" xmlns="http://www.w3.org/2000/svg">
<path d="M33 33.7896H31.86C30.66 33.7896 29.52 34.2546 28.68 35.0946L26.115 37.6296C24.945 38.7846 23.04 38.7846 21.87 37.6296L19.305 35.0946C18.465 34.2546 17.31 33.7896 16.125 33.7896H15C12.51 33.7896 10.5 31.7947 10.5 29.3347V12.9696C10.5 10.5096 12.51 8.51465 15 8.51465H33C35.49 8.51465 37.5 10.5096 37.5 12.9696V29.3347C37.5 31.7797 35.49 33.7896 33 33.7896Z" stroke="#241F1F" stroke-width="1.5" stroke-miterlimit="10" stroke-linecap="round" stroke-linejoin="round"/>
<path d="M23.9989 20.4997C25.9292 20.4997 27.494 18.9349 27.494 17.0047C27.494 15.0745 25.9292 13.5098 23.9989 13.5098C22.0687 13.5098 20.5039 15.0745 20.5039 17.0047C20.5039 18.9349 22.0687 20.4997 23.9989 20.4997Z" stroke="#241F1F" stroke-width="1.5" stroke-linecap="round" stroke-linejoin="round"/>
<path d="M30 28.9895C30 26.2895 27.315 24.0996 24 24.0996C20.685 24.0996 18 26.2895 18 28.9895" stroke="#241F1F" stroke-width="1.5" stroke-linecap="round" stroke-linejoin="round"/>
</svg>
