<svg width="32" height="33" viewBox="0 0 32 33" fill="none" xmlns="http://www.w3.org/2000/svg">
<path d="M10.0001 4.5C10.0001 2.29086 11.7909 0.5 14.0001 0.5H18.0001C20.2092 0.5 22.0001 2.29086 22.0001 4.5H29.0001C30.6569 4.5 32.0001 5.84315 32.0001 7.5V25.5C32.0001 27.1569 30.6569 28.5 29.0001 28.5H28.0001C28.0001 29.0523 27.5523 29.5 27.0001 29.5C26.4478 29.5 26.0001 29.0523 26.0001 28.5H6.00006C6.00006 29.0523 5.55235 29.5 5.00006 29.5C4.44778 29.5 4.00006 29.0523 4.00006 28.5H3.00006C1.34321 28.5 6.10352e-05 27.1569 6.10352e-05 25.5V7.5C6.10352e-05 5.84315 1.34321 4.5 3.00006 4.5H10.0001ZM12.0001 4.5H20.0001C20.0001 3.39543 19.1046 2.5 18.0001 2.5H14.0001C12.8955 2.5 12.0001 3.39543 12.0001 4.5ZM3.00006 6.5C2.44778 6.5 2.00006 6.94772 2.00006 7.5V25.5C2.00006 26.0523 2.44778 26.5 3.00006 26.5H6.00006V6.5H3.00006ZM30.0001 25.5V7.5C30.0001 6.94772 29.5523 6.5 29.0001 6.5H26.0001V26.5H29.0001C29.5523 26.5 30.0001 26.0523 30.0001 25.5ZM24.0001 26.5V6.5H8.00006V26.5H24.0001Z" fill="white"/>
</svg>
