<svg width="48" height="48" viewBox="0 0 48 48" fill="none" xmlns="http://www.w3.org/2000/svg">
<g clip-path="url(#clip0_1815_109173)">
<path d="M37.1265 38.6207H34.554V16.8182C34.554 16.601 34.4267 16.4025 34.2301 16.3126C34.1552 16.2789 34.0766 16.2621 33.9979 16.2621C33.8669 16.2621 33.7377 16.3089 33.6347 16.3969C32.5263 17.3536 31.2869 18.2317 29.9519 19.005C29.7797 19.1042 29.6748 19.2877 29.6748 19.4861V38.6189H28.2313V20.7967C28.2313 20.6076 28.1358 20.4316 27.9767 20.3287C27.885 20.2706 27.782 20.2407 27.6753 20.2407C27.5985 20.2407 27.5199 20.2575 27.4468 20.2893C26.286 20.8155 25.0391 21.2891 23.7416 21.6973C23.5095 21.7703 23.3522 21.9856 23.3522 22.229V38.6189H21.9087V22.9349C21.9087 22.7645 21.83 22.6035 21.6971 22.4986C21.596 22.42 21.4762 22.3788 21.3526 22.3788C21.3095 22.3788 21.2665 22.3844 21.2234 22.3956C20.0327 22.6802 18.7801 22.9218 17.5032 23.1109C17.2299 23.1502 17.0277 23.3861 17.0277 23.6613V38.6207H15.5841V23.9684C15.5841 23.8111 15.5186 23.6632 15.4025 23.5565C15.3014 23.4628 15.1685 23.4104 15.03 23.4104C15.0112 23.4104 14.9944 23.4104 14.9757 23.4123H14.9775C13.7138 23.5284 12.4612 23.5939 11.2555 23.6051C10.9503 23.6089 10.705 23.856 10.705 24.1612V38.617H7.11213V10.8344C7.11213 10.5273 6.86312 10.2783 6.55606 10.2783C6.24901 10.2783 6 10.5273 6 10.8344V39.1768C6 39.4839 6.24901 39.7329 6.55606 39.7329H37.1284C37.2819 39.7329 37.4223 39.6711 37.5215 39.57C37.6226 39.4707 37.6844 39.3285 37.6844 39.1768C37.6844 39.0233 37.6226 38.8829 37.5215 38.7836C37.4223 38.6825 37.28 38.6207 37.1284 38.6207H37.1265ZM30.787 19.8026C31.7231 19.2446 32.6087 18.638 33.4419 17.9883V38.6207H30.787V19.8026ZM24.4625 22.6334C25.3761 22.3357 26.2654 22.0043 27.1173 21.6449V38.6189H24.4625V22.6334ZM18.1361 24.1369C19.0385 23.9946 19.9278 23.8261 20.7909 23.6332V38.6189H18.1361V24.1369ZM11.8115 24.7098C12.6803 24.6892 13.5696 24.6442 14.4664 24.5731V38.6207H11.8115V24.7098Z" fill="#241F1F"/>
<path d="M9.01797 21.484C9.03108 21.484 9.1378 21.4877 9.32502 21.4859C10.5008 21.4859 14.8819 21.3885 20.0363 20.0517C25.0184 18.758 30.7307 16.3072 34.9395 11.6396L36.1546 12.5701C36.2539 12.645 36.3718 12.6843 36.4935 12.6843C36.5665 12.6843 36.6377 12.6712 36.707 12.6431C36.8904 12.5664 37.0196 12.3979 37.0458 12.2013L37.5813 8.12721C37.5851 8.10474 37.5851 8.08228 37.5851 8.05794C37.5851 7.88756 37.5064 7.7228 37.3679 7.61608C37.2705 7.53932 37.1507 7.5 37.0309 7.5C36.9597 7.5 36.8867 7.51311 36.8174 7.54306L33.0242 9.11577C32.8407 9.19253 32.7115 9.36104 32.6853 9.55762C32.6816 9.58196 32.6816 9.6063 32.6816 9.63064C32.6816 9.80102 32.7602 9.96578 32.8988 10.0725L32.9025 10.0762L34.0577 10.9618C30.0379 15.386 24.5541 17.7432 19.7367 18.9882C14.7321 20.282 10.4596 20.3775 9.34 20.3775C9.2389 20.3775 9.1715 20.3775 9.12656 20.3775C9.08163 20.3775 9.06478 20.3775 9.04418 20.3775H9.03857H9.01984V20.3793C8.72964 20.3906 8.49374 20.6209 8.48438 20.9129V20.9148V20.9317C8.48438 21.2312 8.72215 21.4784 9.02359 21.4877L9.01797 21.484ZM35.4806 10.6473C35.4525 10.5424 35.3945 10.4451 35.3065 10.3683C35.2035 10.2803 35.0743 10.2354 34.947 10.2354L34.3442 9.77294L36.3569 8.93978L36.0741 11.0985L35.4844 10.6454L35.4806 10.6473Z" fill="#241F1F"/>
<path d="M41.4453 38.6211H39.4233C39.1162 38.6211 38.8672 38.8701 38.8672 39.1772C38.8672 39.4842 39.1162 39.7332 39.4233 39.7332H41.4453C41.7524 39.7332 42.0014 39.4842 42.0014 39.1772C42.0014 38.8701 41.7524 38.6211 41.4453 38.6211Z" fill="#241F1F"/>
</g>
<defs>
<clipPath id="clip0_1815_109173">
<rect width="36" height="32.233" fill="white" transform="translate(6 7.5)"/>
</clipPath>
</defs>
</svg>
