<svg width="36" height="37" viewBox="0 0 36 37" fill="none" xmlns="http://www.w3.org/2000/svg">
<path d="M27.0001 28.79H25.86C24.66 28.79 23.5201 29.255 22.6801 30.095L20.115 32.63C18.945 33.785 17.0401 33.785 15.8701 32.63L13.3051 30.095C12.4651 29.255 11.3101 28.79 10.1251 28.79H9.00006C6.51006 28.79 4.50006 26.795 4.50006 24.335V7.96997C4.50006 5.50997 6.51006 3.51501 9.00006 3.51501H27.0001C29.4901 3.51501 31.5001 5.50997 31.5001 7.96997V24.335C31.5001 26.78 29.4901 28.79 27.0001 28.79Z" stroke="white" stroke-width="1.5" stroke-miterlimit="10" stroke-linecap="round" stroke-linejoin="round"/>
<path d="M18 15.5C19.9303 15.5 21.4951 13.9352 21.4951 12.005C21.4951 10.0747 19.9303 8.51004 18 8.51004C16.0698 8.51004 14.505 10.0747 14.505 12.005C14.505 13.9352 16.0698 15.5 18 15.5Z" stroke="white" stroke-width="1.5" stroke-linecap="round" stroke-linejoin="round"/>
<path d="M24.0001 23.99C24.0001 21.29 21.3151 19.1 18.0001 19.1C14.6851 19.1 12.0001 21.29 12.0001 23.99" stroke="white" stroke-width="1.5" stroke-linecap="round" stroke-linejoin="round"/>
</svg>
