<svg width="48" height="48" viewBox="0 0 48 48" fill="none" xmlns="http://www.w3.org/2000/svg">
<path d="M39.8404 26.6841C39.7056 36.428 31.7343 44.2838 21.9218 44.2838C12.1092 44.2838 4 36.2938 4 26.4349C4 16.5759 12.0964 8.669 21.9218 8.58594V10.1993C13.0106 10.2823 5.62313 17.5376 5.62313 26.4317C5.62313 35.3258 12.9336 42.6673 21.9218 42.6673C26.2555 42.6673 30.3325 40.9932 33.4088 37.9518C36.453 34.9424 38.1563 30.9458 38.2204 26.6841H39.8436H39.8404Z" fill="#241F1F"/>
<path d="M28.077 32.5242V26.8472H37.7046C37.4834 35.3666 30.4245 42.2521 21.8289 42.2521C17.6561 42.2521 13.8549 40.6394 11.0155 38.011C10.9576 37.9566 10.9017 37.904 10.846 37.8484L10.8446 37.8471C7.89408 34.9782 6.06208 30.9776 6.06208 26.5565C6.06208 17.9353 13.041 10.8995 21.6692 10.7697V20.3491H15.7566H15.5969V20.5089V32.6041V32.7638H15.7566H27.9012H28.0609V32.6839H28.077V32.5242Z" stroke="#241F1F" stroke-width="0.319473"/>
<path d="M21.8841 22.3172V20.8955H16.2031V32.2144H27.5682V26.6843H26.221V30.9078H17.4959V22.3172H21.8841Z" fill="#241F1F"/>
<path d="M42.5667 12.9021L40.8249 15.2982C40.8249 15.2982 40.8185 15.279 40.8153 15.2694L42.9998 11.8958L42.7592 11.752L40.5875 15.1097C40.0069 15.148 38.0021 15.4292 35.8882 17.4227C35.8882 17.3524 35.8882 17.2821 35.8882 17.2086C35.7951 11.899 33.8641 9.44863 33.2417 8.79371L33.2674 4.5H32.9851L32.9595 8.68189C32.953 8.68189 32.9498 8.68828 32.9434 8.69467L32.7927 5.57343L32.5104 5.58621L32.674 8.98539C31.9234 9.86075 30.2874 12.3271 30.204 17.2054C30.204 17.2789 30.204 17.3492 30.204 17.4195C28.1863 15.5122 26.2649 15.1736 25.5944 15.1129L23.4164 11.7488L23.1758 11.8926L25.3057 15.1832C25.3057 15.1832 25.2993 15.2055 25.2929 15.2183L23.6088 12.9021L23.3779 13.0555L25.1999 15.5633C24.9753 16.5313 24.7508 18.9338 26.8487 21.9943C29.1134 25.2913 31.8464 25.7449 32.7445 25.8024V26.6874H33.431V25.7928C34.403 25.713 37.0429 25.1954 39.2435 21.9911C41.2836 19.02 41.1296 16.6655 40.9115 15.6464L42.7977 13.0523L42.5667 12.8989V12.9021ZM33.2706 9.1611C34.0052 10.046 35.5834 12.4804 35.6668 17.2086C35.6668 17.3556 35.6668 17.4993 35.6668 17.6399C35.2947 18.0073 34.9226 18.4322 34.5601 18.9146C33.9667 19.6973 33.5561 20.4449 33.2706 21.1413V9.1611ZM33.0493 25.0229C33.03 25.1156 33.0108 25.1986 32.9915 25.2721C32.9851 25.2881 32.9819 25.3072 32.9755 25.3296L32.8376 25.1411L31.0188 22.6173L25.7901 15.3557C26.5953 15.4739 28.3692 15.9275 30.2008 17.7294C30.5857 18.1063 30.9707 18.5408 31.3492 19.0456C32.2056 20.1829 32.6804 21.2436 32.9274 22.17C32.9498 22.2563 32.9691 22.3393 32.9883 22.4192C33.0108 22.5151 33.03 22.6077 33.0461 22.6972C33.1263 23.1348 33.1551 23.5342 33.1551 23.8888C33.1551 24.3424 33.107 24.7258 33.0461 25.0229H33.0493ZM35.0766 22.6141L34.7943 23.0007L34.4703 23.4511L33.2706 25.1156L33.2546 25.1379C33.261 25.1124 33.2642 25.0868 33.2706 25.0612C33.3861 24.5086 33.4631 23.6715 33.2706 22.6428C33.2417 22.4863 33.2065 22.3298 33.1648 22.1668C33.1968 22.0486 33.2321 21.9272 33.2706 21.8026C33.5401 20.9656 33.9956 20.0296 34.743 19.0392C35.0477 18.6335 35.3557 18.2757 35.6636 17.9562C35.6989 17.9178 35.7406 17.8763 35.7759 17.838L35.8914 17.723C37.7262 15.9211 39.5001 15.4675 40.302 15.3493L35.0734 22.6109L35.0766 22.6141Z" fill="#241F1F"/>
<path d="M8.00802 29.608L7.75781 28.7773L11.9504 28.9914L12.223 29.8987L8.83562 32.3586L8.579 31.5024L9.28792 31.0264L8.8677 29.6335L8.00802 29.6048V29.608ZM9.58624 29.6527L9.87494 30.6143L11.2318 29.7006V29.691L9.58624 29.6559V29.6527Z" fill="#241F1F"/>
<path d="M12.5472 34.1064L13.5769 35.3939L11.9089 36.7165L11.5656 36.2884L11.9025 35.9178C11.5817 35.905 11.1133 35.8922 10.6643 35.33C10.0708 34.5888 10.0676 33.4898 11.1518 32.6272C11.9923 31.9595 13.1599 31.7934 13.9875 32.8253L13.9939 32.8349C14.7477 33.7805 14.4302 34.6399 14.0324 35.0137L13.516 34.3684C13.6379 34.2725 13.8496 33.7454 13.4871 33.2917C13.1214 32.8317 12.4606 32.6592 11.6683 33.2917C10.8246 33.9626 10.9722 34.5952 11.3219 35.0329C11.4341 35.1734 11.8672 35.6015 12.5985 35.2405L12.0244 34.5249L12.5472 34.1128V34.1064Z" fill="#241F1F"/>
<path d="M15.6698 34.7676L17.4341 35.7036C18.3611 36.1956 18.1654 36.9687 18.005 37.269C17.7998 37.6524 17.4309 37.876 17.0235 37.809C17.2416 38.0869 17.341 38.2754 16.9946 38.9239C16.7219 39.4319 16.6546 39.5565 16.7797 39.697L16.7316 39.7897L15.9264 39.3616C15.9649 39.1699 16.0323 38.9782 16.2247 38.6204C16.4782 38.1476 16.5487 37.9463 16.0098 37.662L15.256 37.2627L14.5278 38.6236L13.8125 38.2434L15.673 34.7708L15.6698 34.7676ZM16.4204 37.1285C16.7989 37.3297 17.0523 37.2978 17.2384 36.9528C17.3378 36.7675 17.3988 36.4544 16.9721 36.2276L16.0644 35.7452L15.5671 36.6748L16.4204 37.1285Z" fill="#241F1F"/>
<path d="M19.4451 40.4384L18.6367 40.2723L19.4355 36.4131L20.2438 36.5792L19.4451 40.4384Z" fill="#241F1F"/>
<path d="M22.0285 39.4574C22.051 39.6747 22.1921 40.0836 22.9106 40.0293C23.302 40.0005 23.7286 39.8728 23.6965 39.4574C23.6741 39.1508 23.3694 39.0932 22.9459 39.0262L22.5161 38.9591C21.8681 38.86 21.2426 38.7642 21.1752 37.9016C21.1432 37.4639 21.3196 36.6748 22.5995 36.579C23.8088 36.4864 24.1905 37.2499 24.2355 37.7323L23.4431 37.793C23.4078 37.6205 23.3116 37.2084 22.5899 37.2627C22.2755 37.285 21.913 37.4288 21.9387 37.7866C21.9611 38.0933 22.221 38.138 22.3878 38.1636L23.3661 38.3265C23.9147 38.416 24.4247 38.5981 24.4792 39.3041C24.5691 40.4861 23.3694 40.681 23.0229 40.7066C21.5826 40.8152 21.2747 40.0101 21.2362 39.5213L22.0253 39.4606L22.0285 39.4574Z" fill="#241F1F"/>
<path d="M27.9059 35.7163L26.0102 36.6108L26.3662 37.3584L28.108 36.5373L28.4064 37.1667L26.6645 37.9877L27.104 38.911L29.0864 37.9781L29.3847 38.6075L26.671 39.8854L24.9805 36.3265L27.6076 35.0869L27.9059 35.7163Z" fill="#241F1F"/>
<path d="M30.9773 33.6338C30.7592 33.522 30.3454 33.3111 29.8803 33.8095C29.6108 34.097 29.4055 34.704 30.2235 35.4612C30.7432 35.9436 31.404 36.1704 31.8787 35.6624C32.1899 35.3302 32.2187 34.9212 31.93 34.5187L32.4914 33.9181C33.0078 34.6209 33.0656 35.4388 32.3887 36.1608C31.6734 36.9275 30.6373 36.9946 29.6397 36.0681C28.6292 35.1289 28.6549 34.0714 29.351 33.3271C30.1561 32.4645 31.08 32.6658 31.5387 33.03L30.9773 33.6338Z" fill="#241F1F"/>
<path d="M31.4181 29.8923C31.5946 29.4003 32.265 28.1831 34.0164 28.8029C35.7646 29.4195 35.5176 30.7868 35.3444 31.2788C35.1712 31.7708 34.4976 32.988 32.7461 32.3682C30.9979 31.7516 31.2449 30.3811 31.4181 29.8923ZM34.6836 31.0456C34.8312 30.6271 34.7831 29.9466 33.7405 29.576C32.698 29.2086 32.2265 29.7038 32.0789 30.1255C31.9314 30.544 31.9795 31.2245 33.022 31.5951C34.0645 31.9625 34.5361 31.4673 34.6836 31.0456Z" fill="#241F1F"/>
</svg>
