<svg width="321" height="330" viewBox="0 0 321 330" fill="none" xmlns="http://www.w3.org/2000/svg">
<rect width="321" height="330" fill="#F7F7F7"/>
<path d="M54.0586 266.357L58.0006 264.175L56.6229 259.45C57.4452 258.781 58.2026 258.055 58.886 257.275L63.5511 258.821L65.8737 254.96L62.3176 251.556C62.6891 250.576 62.9795 249.568 63.1832 248.542L68.0034 247.547L68.0845 243.042L63.3095 241.874C63.1436 240.849 62.8893 239.832 62.5467 238.828L66.2218 235.557L64.0398 231.615L59.3152 232.993C58.6462 232.17 57.9195 231.413 57.1404 230.729L58.6858 226.064L54.825 223.742L51.4204 227.298C50.4413 226.926 49.4332 226.636 48.4072 226.432L47.4118 221.612L42.9072 221.531L41.7386 226.306C40.7144 226.472 39.6973 226.726 38.6929 227.069L35.4217 223.394L31.4798 225.576L32.8575 230.3C32.0352 230.969 31.2778 231.696 30.5944 232.475L25.9275 230.93L23.6049 234.79L27.1609 238.195C26.7895 239.174 26.4991 240.182 26.2954 241.208L21.4752 242.204L21.394 246.708L26.1691 247.877C26.335 248.901 26.5893 249.918 26.9319 250.923L23.2568 254.196L25.4388 258.137L30.1634 256.76C30.8324 257.582 31.5591 258.339 32.3381 259.023L30.7927 263.688L34.6536 266.011L38.0581 262.455C39.0373 262.826 40.0454 263.116 41.0714 263.32L42.0668 268.14L46.5714 268.221L47.7399 263.446C48.7642 263.28 49.7813 263.026 50.7857 262.684L54.0568 266.36L54.0586 266.357ZM34.594 250.488C31.4924 244.883 33.5211 237.825 39.1257 234.724C44.7303 231.622 51.7883 233.651 54.8899 239.255C57.9916 244.86 55.9629 251.918 50.3583 255.02C44.7537 258.121 37.6957 256.093 34.594 250.488Z" fill="black"/>
<path d="M115.673 318.115L122.115 314.549L119.864 306.83C121.208 305.737 122.445 304.55 123.563 303.275L131.187 305.8L134.983 299.492L129.173 293.931C129.78 292.331 130.253 290.685 130.588 289.008L138.465 287.381L138.598 280.02L130.797 278.111C130.527 276.437 130.11 274.775 129.551 273.135L135.558 267.789L131.993 261.347L124.273 263.598C123.18 262.254 121.994 261.017 120.719 259.899L123.244 252.275L116.936 248.479L111.374 254.289C109.775 253.682 108.128 253.209 106.451 252.874L104.825 244.997L97.4639 244.864L95.5542 252.665C93.8807 252.935 92.2181 253.352 90.5789 253.911L85.2322 247.904L78.7909 251.469L81.0414 259.189C79.698 260.282 78.4609 261.468 77.3429 262.743L69.7186 260.218L65.9227 266.526L71.7329 272.088C71.1252 273.687 70.6527 275.334 70.3173 277.011L62.4406 278.637L62.3071 285.998L70.1081 287.908C70.3786 289.581 70.7952 291.244 71.3542 292.883L65.3475 298.23L68.9125 304.671L76.6324 302.421C77.7252 303.764 78.9117 305.001 80.1866 306.119L77.6621 313.743L83.9699 317.539L89.5312 311.729C91.1307 312.337 92.7771 312.809 94.4542 313.145L96.0807 321.021L103.442 321.155L105.351 313.354C107.025 313.083 108.687 312.667 110.327 312.108L115.673 318.115ZM83.8707 292.187C78.8017 283.028 82.118 271.496 91.2768 266.429C100.434 261.36 111.968 264.676 117.035 273.835C122.104 282.992 118.788 294.526 109.629 299.593C100.472 304.662 88.938 301.346 83.8707 292.189V292.187Z" fill="black"/>
<path d="M5.63522 52.3365H237.69C240.801 52.3365 243.517 54.8593 243.755 57.9699L255.279 208.54C255.517 211.651 253.188 214.174 250.077 214.174H18.0219C14.9113 214.174 12.1955 211.651 11.9575 208.54L0.432758 57.9699C0.194725 54.8593 2.52276 52.3365 5.63522 52.3365Z" fill="white"/>
<path d="M250.075 214.588H18.0203C14.7022 214.588 11.7953 211.889 11.5411 208.571L0.0181254 58.0006C-0.106301 56.3758 0.413044 54.8485 1.47878 53.698C2.54091 52.5511 4.01599 51.9199 5.63534 51.9199H237.688C241.006 51.9199 243.915 54.6194 244.168 57.9375L255.691 208.508C255.815 210.132 255.296 211.66 254.23 212.81C253.168 213.957 251.691 214.588 250.073 214.588H250.075ZM5.63534 52.7531C4.25042 52.7531 2.99173 53.2904 2.08829 54.2642C1.18124 55.2434 0.74124 56.5471 0.847634 57.9375L12.3724 208.508C12.5942 211.402 15.1278 213.755 18.0203 213.755H250.075C251.46 213.755 252.719 213.218 253.622 212.244C254.529 211.265 254.969 209.961 254.863 208.571L243.34 58.0006C243.118 55.1063 240.585 52.7531 237.69 52.7531H5.63534Z" fill="black"/>
<path d="M186.697 170.493C186.482 170.493 186.298 170.327 186.282 170.109L185.491 159.76C185.473 159.531 185.644 159.33 185.875 159.312C186.098 159.291 186.304 159.466 186.322 159.696L187.114 170.045C187.132 170.275 186.96 170.475 186.729 170.493C186.719 170.493 186.708 170.493 186.697 170.493Z" fill="black"/>
<path d="M180.436 205.599H33.9429C29.4203 205.599 25.6064 202.066 25.2619 197.556L22.3695 159.754C22.3514 159.525 22.5227 159.325 22.7536 159.307C22.9808 159.289 23.1827 159.462 23.2008 159.691L26.0932 197.493C26.4052 201.572 29.8549 204.766 33.9447 204.766H180.436C182.654 204.766 184.706 203.87 186.212 202.243C187.719 200.616 188.455 198.501 188.286 196.29L187.35 184.066C187.332 183.837 187.503 183.637 187.734 183.619C187.957 183.601 188.163 183.774 188.181 184.003L189.117 196.227C189.301 198.637 188.466 201.037 186.823 202.809C185.18 204.582 182.852 205.599 180.436 205.599Z" fill="black"/>
<path d="M18.4907 104.056C18.2761 104.056 18.0922 103.89 18.076 103.672L16.4152 81.986C16.2312 79.5768 17.0679 77.1767 18.7089 75.404C20.3517 73.6314 22.6797 72.6144 25.0961 72.6144H30.4086C30.6394 72.6144 30.8252 72.8001 30.8252 73.0309C30.8252 73.2617 30.6394 73.4475 30.4086 73.4475H25.0961C22.8781 73.4475 20.8278 74.3437 19.3202 75.9703C17.8127 77.5968 17.077 79.7103 17.2447 81.9229L18.9055 103.609C18.9235 103.838 18.7522 104.038 18.5214 104.056C18.5106 104.056 18.4997 104.056 18.4889 104.056H18.4907Z" fill="black"/>
<path d="M91.2024 73.4457H44.3135C44.0827 73.4457 43.897 73.2599 43.897 73.0291C43.897 72.7983 44.0827 72.6126 44.3135 72.6126H91.2024C91.4332 72.6126 91.6189 72.7983 91.6189 73.0291C91.6189 73.2599 91.4332 73.4457 91.2024 73.4457Z" fill="black"/>
<path d="M236.664 128.97H196.002C195.783 128.97 195.603 128.803 195.587 128.586L194.514 114.577C194.505 114.461 194.545 114.348 194.624 114.263C194.703 114.178 194.813 114.129 194.929 114.129H235.591C235.809 114.129 235.989 114.297 236.006 114.514L237.079 128.523C237.088 128.639 237.048 128.752 236.969 128.837C236.889 128.922 236.779 128.97 236.664 128.97ZM196.388 128.137H236.215L235.207 114.959H195.38L196.388 128.137Z" fill="black"/>
<path d="M238.621 154.512H197.959C197.74 154.512 197.56 154.344 197.544 154.128L196.471 140.118C196.462 140.003 196.502 139.889 196.581 139.805C196.66 139.72 196.77 139.671 196.886 139.671H237.548C237.766 139.671 237.946 139.839 237.963 140.055L239.036 154.065C239.045 154.18 239.005 154.294 238.926 154.379C238.846 154.463 238.736 154.512 238.621 154.512ZM198.345 153.681H238.172L237.164 140.502H197.337L198.345 153.681Z" fill="black"/>
<path d="M240.575 180.056H199.913C199.695 180.056 199.515 179.888 199.499 179.671L198.426 165.662C198.417 165.546 198.456 165.433 198.536 165.348C198.615 165.263 198.725 165.215 198.84 165.215H239.502C239.721 165.215 239.901 165.382 239.917 165.599L240.99 179.608C240.999 179.724 240.96 179.837 240.88 179.922C240.801 180.007 240.691 180.056 240.575 180.056ZM200.299 179.222H240.126L239.118 166.044H199.291L200.301 179.222H200.299Z" fill="black"/>
<path d="M242.53 205.599H201.868C201.65 205.599 201.469 205.431 201.453 205.215L200.38 191.205C200.371 191.09 200.411 190.976 200.49 190.891C200.57 190.807 200.68 190.758 200.795 190.758H241.457C241.675 190.758 241.856 190.926 241.872 191.142L242.945 205.152C242.954 205.267 242.914 205.381 242.835 205.466C242.755 205.55 242.645 205.599 242.53 205.599ZM202.254 204.766H242.081L241.073 191.587H201.246L202.254 204.766Z" fill="black"/>
<path d="M234.758 104.053H194.096C193.878 104.053 193.697 103.885 193.681 103.669L191.339 73.0616C191.33 72.9462 191.369 72.8326 191.449 72.7478C191.528 72.6631 191.638 72.6144 191.753 72.6144H232.416C232.634 72.6144 232.814 72.7821 232.83 72.9985L235.173 103.606C235.182 103.721 235.142 103.835 235.063 103.919C234.983 104.004 234.873 104.053 234.758 104.053ZM194.482 103.221H234.309L232.03 73.4457H192.202L194.482 103.221Z" fill="black"/>
<path d="M174.384 95.0291C174.384 95.0291 193.208 102.293 215.856 83.8993C226.248 75.4599 232.57 62.9993 233.456 49.6424C233.629 47.0331 234.794 44.5878 236.714 42.8116L250.765 33.8583C251.039 33.6834 251.396 33.705 251.647 33.9124C251.921 34.1378 251.885 34.5868 251.869 34.7672C251.737 36.3901 247.346 40.3645 245.776 43.9044C245.281 45.0152 244.755 46.7878 244.995 49.3665C246.968 48.7786 248.942 48.189 250.915 47.6011C251.337 47.4749 251.795 47.5975 252.098 47.9185C252.455 48.2954 252.379 48.8796 252.349 49.1158C252.092 51.0832 247.465 54.3363 244.863 57.0611C243.787 58.1881 242.284 60.0347 240.997 62.8622C241.556 69.6299 241.83 84.8586 232.96 100.233C216.37 128.992 182.751 132.337 179.227 132.627L174.386 95.0291H174.384Z" fill="white"/>
<path d="M179.226 133.046C179.018 133.046 178.84 132.893 178.813 132.683L173.971 95.085C173.953 94.9389 174.012 94.7947 174.128 94.7045C174.243 94.6144 174.397 94.5909 174.534 94.6432C174.719 94.7154 193.414 101.593 215.594 83.5801C225.801 75.2904 232.161 62.9127 233.043 49.6172C233.223 46.8906 234.428 44.366 236.435 42.5086C236.453 42.4924 236.473 42.4762 236.494 42.4635L250.545 33.5103C250.973 33.238 251.523 33.2704 251.916 33.5932C252.358 33.9575 252.307 34.5706 252.289 34.8032C252.213 35.7265 251.135 37.0772 249.768 38.7867C248.443 40.4439 246.941 42.3229 246.162 44.0775C245.543 45.4732 245.28 47.0673 245.377 48.8255L250.801 47.208C251.379 47.0367 251.992 47.2008 252.406 47.6372C252.899 48.1583 252.803 48.8976 252.767 49.1754C252.576 50.6504 250.421 52.5619 248.14 54.587C247.094 55.5139 246.014 56.4732 245.172 57.355C243.673 58.9239 242.413 60.8029 241.426 62.9416C242.191 72.3529 241.394 86.4635 233.326 100.448C216.766 129.154 183.056 132.736 179.267 133.049C179.255 133.049 179.244 133.049 179.233 133.049L179.226 133.046ZM174.882 95.6368L179.588 132.18C184.843 131.681 216.721 127.551 232.599 100.028C240.589 86.1768 241.35 72.1906 240.582 62.8983C240.577 62.828 240.589 62.7558 240.618 62.6909C241.65 60.426 242.977 58.4352 244.564 56.7762C245.431 55.8691 246.524 54.8972 247.583 53.9595C249.554 52.2121 251.786 50.2303 251.938 49.0635C251.963 48.876 252.019 48.4396 251.797 48.2052C251.6 47.9978 251.308 47.9203 251.036 48.0014L245.116 49.7668C244.997 49.8029 244.867 49.7831 244.764 49.7127C244.661 49.6424 244.595 49.5306 244.582 49.4062C244.387 47.3036 244.659 45.3957 245.397 43.7367C246.219 41.8847 247.758 39.9606 249.115 38.2637C250.291 36.7922 251.402 35.4037 251.458 34.7347C251.485 34.3921 251.434 34.2749 251.386 34.2352C251.274 34.1432 251.115 34.1324 250.993 34.2117L236.974 43.1452C235.14 44.8547 234.04 47.1719 233.876 49.6731C232.98 63.1976 226.509 75.7917 216.123 84.2257C204.338 93.7957 193.596 96.3347 186.659 96.7801C180.632 97.1642 176.431 96.1147 174.887 95.6386L174.882 95.6368Z" fill="black"/>
<path d="M54.7454 205.251H145.115C145.499 172.878 158.392 133.329 158.392 133.329L183.597 135.203L186.579 90.6093C186.579 90.6093 160.886 88.7086 140.091 86.9162C126.049 85.7062 100.026 90.7932 84.6041 94.2267C76.6985 95.9867 69.691 100.522 64.8365 107.005L50.3887 126.296L66.0718 135.204C52.6301 157.891 52.7492 186.74 54.7454 205.253V205.251Z" fill="black"/>
<path d="M117.123 141.586L120.989 205.603C121.049 206.578 120.517 207.487 119.651 207.891L44.7897 242.869C44.0431 243.217 43.2406 243.116 42.6203 242.716C42.0234 242.33 40.2598 241.219 40.2598 241.219L37.6793 176.84C37.6198 175.865 38.1518 174.956 39.0174 174.552L114.183 138.416C114.183 138.416 115.511 139.337 116.142 139.79C116.69 140.183 117.076 140.818 117.123 141.584V141.586Z" fill="black"/>
<path d="M114.744 140.167L118.61 204.183C118.67 205.159 118.138 206.068 117.272 206.472L42.6149 241.246C41.1506 241.928 39.4699 240.887 39.3708 239.236L35.5045 175.219C35.445 174.244 35.977 173.335 36.8426 172.931L111.5 138.156C112.964 137.475 114.645 138.515 114.744 140.167Z" fill="white"/>
<path d="M41.6646 241.876C41.194 241.876 40.7269 241.747 40.3013 241.493C39.5133 241.024 39.0102 240.188 38.9543 239.259L35.0881 175.243C35.0195 174.105 35.6543 173.025 36.6659 172.552L111.323 137.778C112.133 137.399 113.042 137.448 113.812 137.906C114.6 138.375 115.103 139.211 115.159 140.14L119.025 204.156C119.094 205.294 118.459 206.374 117.447 206.847L42.7899 241.621C42.4274 241.791 42.0451 241.874 41.6646 241.874V241.876ZM112.449 138.36C112.187 138.36 111.926 138.418 111.677 138.533L37.0194 173.308C36.3143 173.636 35.8725 174.393 35.9212 175.194L39.7874 239.21C39.8271 239.865 40.1787 240.451 40.7305 240.779C41.2607 241.096 41.8846 241.127 42.4418 240.869L117.099 206.095C117.804 205.767 118.246 205.007 118.198 204.209L114.331 140.192C114.292 139.538 113.94 138.952 113.388 138.623C113.094 138.448 112.773 138.36 112.451 138.36H112.449Z" fill="black"/>
<path d="M109.655 135.116L113.522 199.132C113.581 200.108 113.049 201.017 112.184 201.421L37.526 236.195C36.0617 236.877 34.3811 235.836 34.2819 234.185L30.4157 170.168C30.3561 169.193 30.8881 168.284 31.7537 167.88L106.411 133.105C107.875 132.424 109.556 133.464 109.655 135.116Z" fill="white"/>
<path d="M36.5758 236.826C36.1051 236.826 35.6381 236.698 35.2125 236.444C34.4244 235.975 33.9213 235.138 33.8654 234.21L29.9992 170.193C29.9307 169.056 30.5636 167.975 31.5771 167.503L106.235 132.728C107.044 132.35 107.951 132.398 108.721 132.857C109.509 133.325 110.014 134.162 110.07 135.091L113.936 199.107C114.005 200.245 113.37 201.325 112.359 201.798L37.701 236.572C37.3385 236.742 36.9562 236.825 36.5758 236.825V236.826ZM107.358 133.309C107.097 133.309 106.835 133.367 106.586 133.482L31.9287 168.257C31.2236 168.585 30.7818 169.344 30.8305 170.143L34.6967 234.159C34.7364 234.814 35.0881 235.4 35.6399 235.73C36.17 236.046 36.794 236.078 37.3512 235.82L112.009 201.046C112.714 200.717 113.156 199.958 113.107 199.159L109.241 135.143C109.201 134.488 108.848 133.901 108.298 133.572C108.004 133.397 107.683 133.309 107.36 133.309H107.358Z" fill="black"/>
<path d="M105.402 140.648L108.808 197.053C108.86 197.913 108.391 198.714 107.629 199.069L41.8486 229.709C40.5575 230.309 39.077 229.391 38.9904 227.936L35.584 171.531C35.5317 170.671 36.0006 169.871 36.7634 169.515L102.543 138.876C103.835 138.275 105.315 139.193 105.402 140.648Z" fill="white"/>
<path d="M41.0101 230.313C40.5881 230.313 40.1679 230.197 39.7838 229.97C39.0751 229.548 38.6225 228.796 38.572 227.961L35.1656 171.557C35.1043 170.534 35.6742 169.562 36.5848 169.138L102.365 138.499C103.093 138.16 103.91 138.201 104.603 138.614C105.311 139.036 105.764 139.787 105.814 140.623L109.221 197.028C109.282 198.05 108.712 199.022 107.802 199.446L42.0217 230.086C41.6953 230.237 41.3527 230.313 41.0101 230.313ZM103.376 139.105C103.153 139.105 102.929 139.154 102.716 139.253L36.9365 169.892C36.3342 170.174 35.9555 170.821 35.9969 171.506L39.4033 227.911C39.4376 228.472 39.7387 228.973 40.2094 229.254C40.662 229.525 41.194 229.552 41.6701 229.332L107.45 198.692C108.052 198.411 108.429 197.762 108.39 197.078L104.983 140.674C104.949 140.113 104.648 139.612 104.175 139.33C103.925 139.181 103.651 139.105 103.375 139.105H103.376Z" fill="black"/>
<path d="M91.2027 207.117C91.0458 207.117 90.8962 207.029 90.8258 206.877C90.7285 206.67 90.8186 206.421 91.0278 206.324L107.346 198.723C107.948 198.442 108.327 197.794 108.285 197.109L107.906 190.848C107.892 190.619 108.067 190.421 108.296 190.408C108.527 190.396 108.723 190.569 108.736 190.798L109.115 197.059C109.176 198.081 108.606 199.053 107.696 199.477L91.3776 207.078C91.3199 207.105 91.2604 207.117 91.2027 207.117Z" fill="black"/>
<path d="M38.9164 169C38.7595 169 38.6099 168.911 38.5395 168.76C38.4422 168.552 38.5305 168.304 38.7397 168.206L49.5341 163.144C49.7433 163.047 49.9904 163.137 50.0877 163.345C50.1851 163.552 50.0968 163.801 49.8876 163.898L39.0932 168.96C39.0354 168.987 38.9759 169 38.9164 169Z" fill="black"/>
<path d="M55.1745 128.622L77.8579 141.961C77.8579 141.961 58.9271 172.875 87.7002 205.612L106.294 203.329C106.294 203.329 102.298 206.311 98.1791 207.058C94.0622 207.804 93.1804 212.192 93.1804 212.192L101.631 216.83C101.631 216.83 91.2364 226.499 84.7284 222.728C78.2204 218.956 24.0571 178.386 55.1709 128.626L55.1745 128.622Z" fill="white"/>
<path d="M88.1837 224.021C86.9033 224.021 85.6627 223.747 84.523 223.085C78.6624 219.688 53.5355 200.133 46.8507 173.21C43.0692 157.982 45.7507 142.906 54.8212 128.401C54.9402 128.209 55.1891 128.148 55.3856 128.262L78.0691 141.601C78.1647 141.658 78.235 141.75 78.262 141.858C78.2891 141.967 78.271 142.082 78.2133 142.176C78.1665 142.253 73.5068 149.988 72.3996 161.586C71.3825 172.246 73.2489 188.444 87.8681 205.168L106.244 202.912C106.429 202.883 106.61 202.995 106.68 203.17C106.75 203.345 106.694 203.545 106.543 203.659C106.377 203.783 102.421 206.708 98.255 207.464C95.0578 208.042 93.9433 211.027 93.6656 211.977L101.833 216.458C101.95 216.523 102.029 216.639 102.045 216.772C102.062 216.904 102.013 217.037 101.916 217.127C101.555 217.463 94.4248 224.016 88.1819 224.016L88.1837 224.021ZM55.3135 129.187C46.5406 143.388 43.9655 158.129 47.6586 173.01C54.273 199.652 79.1384 219.003 84.9396 222.366C90.3765 225.516 98.9006 218.644 100.913 216.909L92.9804 212.556C92.8217 212.468 92.7369 212.287 92.773 212.109C92.782 212.062 93.7594 207.435 98.1053 206.648C100.605 206.196 103.084 204.879 104.592 203.958L87.7509 206.026C87.6138 206.044 87.4786 205.992 87.3866 205.887C72.4248 188.866 70.5296 172.339 71.5737 161.473C72.5691 151.126 76.3524 143.797 77.2901 142.113L55.3117 129.189L55.3135 129.187Z" fill="black"/>
<path d="M118.232 73.4854C115.976 74.8901 112.429 77.1009 108.48 75.9216C104.274 74.6665 100.783 69.9185 101.564 66.7411C102.247 63.9568 105.807 64.0199 106.352 61.1203C106.864 58.3901 103.896 57.3568 103.692 54.0009C103.421 49.5324 108.254 44.1983 112.735 44.0703C115.485 43.9927 115.761 45.9403 118.942 46.1314C123.274 46.3911 124.134 42.8603 129.05 42.3842C132.591 42.0416 135.48 43.5491 137.916 44.8204C141.528 46.7049 143.9 47.9419 144.123 49.8786C144.581 53.844 135.309 54.4788 126.745 64.4924C123.631 68.1332 122.46 70.8526 118.234 73.4854H118.232Z" fill="black"/>
<path d="M132.846 76.7962C136.185 67.7293 128.898 56.2027 128.363 55.2506C128.363 55.2506 124.24 58.6841 118.742 58.3162C113.242 57.9465 113.702 65.3904 113.702 65.3904C110.712 64.7322 110.191 66.7411 110.93 70.8472C111.67 74.9532 115.747 73.7522 115.747 73.7522C116.315 74.4321 116.912 75.02 117.525 75.5393L110.543 85.8703C108.637 88.6906 105.973 90.9159 102.861 92.29L100.031 93.5396C99.2937 93.8642 99.4434 94.9552 100.242 95.0616C105.773 95.8027 118.758 96.7314 128.505 91.0583C129.089 90.7175 128.936 89.8285 128.274 89.6878L126.008 89.2045C124.395 88.8619 123.555 87.0749 124.32 85.6142L127.859 78.8429C129.093 78.7924 130.153 78.6265 130.923 78.4678C131.814 78.2839 132.535 77.6491 132.849 76.7962H132.846Z" fill="white"/>
<path d="M108.534 96.0263C105.055 96.0263 102.092 95.7288 100.185 95.4727C99.64 95.3988 99.2234 94.9858 99.1459 94.4413C99.0683 93.8949 99.355 93.3791 99.86 93.1555L102.689 91.9059C105.735 90.5624 108.332 88.3931 110.196 85.634L116.973 75.6078C116.484 75.1732 116.023 74.7062 115.595 74.2121C114.997 74.3365 113.511 74.5295 112.263 73.7577C111.345 73.1914 110.759 72.2339 110.521 70.9157C109.991 67.9745 110.148 66.2867 111.029 65.4391C111.551 64.9378 112.286 64.7539 113.276 64.8873C113.284 63.7026 113.482 60.8047 115.173 59.124C116.093 58.2098 117.301 57.7968 118.771 57.896C124.037 58.2513 128.058 54.9603 128.098 54.926C128.193 54.8467 128.318 54.8142 128.438 54.8359C128.559 54.8575 128.666 54.9332 128.725 55.0414C128.752 55.0901 128.797 55.1658 128.858 55.2686C131.7 60.0816 136.05 69.2981 133.237 76.935C132.869 77.934 132.034 78.6572 131.004 78.8699C130.063 79.0647 129.091 79.1891 128.114 79.2414L124.684 85.8018C124.381 86.3824 124.367 87.0532 124.646 87.6465C124.924 88.238 125.452 88.6563 126.09 88.7934L128.357 89.2767C128.831 89.3777 129.188 89.7545 129.266 90.236C129.342 90.7103 129.124 91.1737 128.711 91.4136C122.374 95.1013 114.658 96.0227 108.534 96.0227V96.0263ZM115.745 73.3357C115.866 73.3357 115.985 73.3898 116.064 73.4854C116.587 74.1093 117.168 74.6936 117.792 75.2201C117.954 75.3572 117.987 75.5952 117.868 75.7701L110.885 86.1011C108.934 88.9899 106.215 91.2603 103.025 92.6686L100.195 93.9183C99.9483 94.0265 99.9591 94.2573 99.97 94.324C99.979 94.3908 100.031 94.6108 100.295 94.6468C105.477 95.3429 118.58 96.3491 128.292 90.6959C128.462 90.5985 128.455 90.4344 128.444 90.3695C128.435 90.3154 128.391 90.1368 128.184 90.0936L125.917 89.6103C125.021 89.4191 124.282 88.8331 123.892 88.0036C123.503 87.174 123.523 86.2327 123.946 85.4195L127.486 78.6481C127.555 78.5165 127.688 78.4318 127.838 78.4245C128.837 78.3831 129.874 78.2568 130.835 78.0567C131.581 77.9034 132.186 77.3768 132.454 76.6501C135.208 69.1755 130.51 59.7498 128.24 55.8655C127.071 56.7149 123.407 59.0393 118.711 58.7291C117.492 58.6498 116.499 58.9798 115.758 59.7155C113.908 61.5549 114.111 65.3255 114.113 65.3634C114.12 65.4932 114.068 65.6195 113.969 65.7042C113.87 65.789 113.736 65.8214 113.61 65.7944C112.651 65.5834 111.996 65.6627 111.603 66.0414C110.963 66.6581 110.874 68.2054 111.338 70.7714C111.531 71.8462 111.987 72.6126 112.694 73.0508C113.945 73.828 115.612 73.3573 115.628 73.3519C115.666 73.3411 115.705 73.3357 115.743 73.3357H115.745Z" fill="black"/>
<path d="M126.967 79.3135C123.986 79.3135 121.232 77.669 121.106 77.5914C120.91 77.4724 120.846 77.2163 120.965 77.0198C121.084 76.8232 121.341 76.7601 121.537 76.8791C121.57 76.899 124.778 78.8158 127.803 78.4281C128.031 78.4011 128.24 78.5616 128.269 78.7888C128.298 79.016 128.137 79.2252 127.908 79.254C127.594 79.2937 127.279 79.3117 126.967 79.3117V79.3135Z" fill="black"/>
<path d="M112.732 101.375C109.378 101.375 106.424 101.021 103.963 100.544C96.2157 99.0396 91.6552 96.0895 91.4641 95.965C91.2711 95.8388 91.2189 95.5809 91.3451 95.3898C91.4713 95.1986 91.7292 95.1445 91.9203 95.269C92.1025 95.388 110.411 107.041 135.179 95.2419C135.388 95.1427 135.635 95.2311 135.733 95.4385C135.832 95.6458 135.744 95.8947 135.536 95.9921C126.913 100.1 119.101 101.373 112.732 101.373V101.375Z" fill="white"/>
<path d="M251.742 120.358C251.412 120.358 251.082 120.354 250.752 120.349C250.522 120.345 250.339 120.156 250.342 119.925C250.346 119.698 250.531 119.516 250.759 119.516H250.766C252.407 119.541 254.08 119.501 255.721 119.391C255.952 119.382 256.149 119.55 256.165 119.779C256.179 120.008 256.006 120.206 255.777 120.223C254.441 120.311 253.083 120.356 251.742 120.356V120.358ZM245.776 120.064C245.762 120.064 245.749 120.064 245.735 120.062C244.074 119.898 242.401 119.662 240.76 119.359C240.532 119.317 240.384 119.101 240.426 118.874C240.467 118.648 240.686 118.497 240.911 118.54C242.53 118.838 244.182 119.072 245.82 119.235C246.049 119.258 246.216 119.462 246.193 119.689C246.171 119.904 245.991 120.064 245.78 120.064H245.776ZM260.711 119.689C260.509 119.689 260.331 119.541 260.3 119.336C260.266 119.108 260.422 118.896 260.65 118.861C262.28 118.616 263.917 118.299 265.517 117.918C265.742 117.864 265.964 118.003 266.018 118.226C266.072 118.45 265.933 118.674 265.71 118.728C264.087 119.114 262.428 119.435 260.776 119.684C260.754 119.687 260.734 119.687 260.713 119.687L260.711 119.689ZM235.968 118.254C235.932 118.254 235.894 118.25 235.858 118.239C234.25 117.801 232.638 117.287 231.069 116.714C230.852 116.634 230.742 116.396 230.82 116.18C230.899 115.963 231.137 115.853 231.354 115.931C232.901 116.497 234.49 117.004 236.076 117.437C236.298 117.498 236.43 117.725 236.369 117.947C236.318 118.133 236.15 118.254 235.968 118.254ZM270.416 117.383C270.241 117.383 270.079 117.271 270.021 117.096C269.949 116.878 270.068 116.641 270.286 116.571C271.848 116.057 273.408 115.471 274.923 114.827C275.134 114.739 275.379 114.836 275.469 115.047C275.559 115.258 275.46 115.504 275.249 115.594C273.714 116.245 272.133 116.84 270.548 117.361C270.505 117.375 270.461 117.381 270.418 117.381L270.416 117.383ZM226.597 114.826C226.539 114.826 226.478 114.813 226.422 114.788C224.905 114.083 223.403 113.307 221.953 112.479C221.753 112.366 221.684 112.112 221.798 111.911C221.912 111.711 222.164 111.641 222.366 111.756C223.796 112.571 225.278 113.338 226.772 114.032C226.981 114.129 227.071 114.376 226.973 114.586C226.903 114.737 226.752 114.827 226.595 114.827L226.597 114.826ZM279.591 113.486C279.442 113.486 279.297 113.405 279.223 113.264C279.115 113.06 279.195 112.809 279.397 112.701C280.852 111.933 282.293 111.095 283.679 110.207C283.872 110.083 284.13 110.141 284.255 110.334C284.379 110.526 284.321 110.784 284.128 110.909C282.724 111.809 281.263 112.658 279.786 113.437C279.725 113.469 279.658 113.486 279.591 113.486ZM217.93 109.879C217.849 109.879 217.766 109.856 217.694 109.805C216.318 108.86 214.965 107.845 213.672 106.786C213.494 106.64 213.469 106.379 213.613 106.2C213.759 106.022 214.021 105.997 214.199 106.141C215.474 107.183 216.808 108.186 218.164 109.118C218.354 109.248 218.402 109.508 218.271 109.697C218.19 109.814 218.06 109.877 217.928 109.877L217.93 109.879ZM287.993 108.112C287.868 108.112 287.744 108.056 287.661 107.948C287.522 107.766 287.556 107.504 287.739 107.364C289.046 106.365 290.328 105.299 291.549 104.193C291.718 104.038 291.983 104.053 292.137 104.222C292.292 104.392 292.277 104.657 292.108 104.81C290.869 105.932 289.569 107.012 288.245 108.025C288.17 108.083 288.081 108.11 287.993 108.11V108.112ZM210.207 103.564C210.102 103.564 209.997 103.524 209.918 103.447C208.719 102.287 207.552 101.061 206.452 99.806C206.301 99.6329 206.319 99.3696 206.49 99.2181C206.663 99.0649 206.926 99.0829 207.078 99.2578C208.163 100.497 209.312 101.705 210.497 102.848C210.663 103.009 210.666 103.272 210.506 103.436C210.425 103.521 210.317 103.562 210.207 103.562V103.564ZM295.39 101.418C295.287 101.418 295.186 101.38 295.105 101.306C294.937 101.149 294.928 100.886 295.085 100.718C296.212 99.5121 297.3 98.248 298.32 96.9604C298.463 96.7801 298.724 96.7494 298.904 96.8919C299.085 97.0344 299.115 97.2958 298.973 97.4762C297.94 98.7817 296.838 100.066 295.695 101.286C295.612 101.375 295.502 101.418 295.39 101.418ZM203.634 96.0588C203.506 96.0588 203.379 96.0011 203.298 95.8893C202.306 94.5458 201.36 93.1447 200.483 91.7255C200.362 91.529 200.424 91.2729 200.619 91.1521C200.815 91.0312 201.071 91.0926 201.192 91.2873C202.056 92.6885 202.99 94.0698 203.967 95.3934C204.104 95.5791 204.065 95.8388 203.879 95.9758C203.805 96.0299 203.718 96.057 203.632 96.057L203.634 96.0588ZM301.577 93.5919C301.498 93.5919 301.418 93.5703 301.348 93.5216C301.157 93.3935 301.104 93.1357 301.231 92.9445C302.14 91.5722 303.003 90.1458 303.797 88.7014C303.909 88.4994 304.161 88.4273 304.363 88.5373C304.565 88.6491 304.639 88.9016 304.527 89.1035C303.723 90.5678 302.846 92.0158 301.925 93.4062C301.846 93.527 301.712 93.5919 301.579 93.5919H301.577ZM198.401 87.5708C198.249 87.5708 198.103 87.4878 198.029 87.3435C197.275 85.8558 196.576 84.3176 195.948 82.7704C195.861 82.5576 195.964 82.3142 196.177 82.2276C196.39 82.1411 196.633 82.2439 196.72 82.4567C197.338 83.9822 198.029 85.4988 198.772 86.9667C198.877 87.1722 198.794 87.4229 198.59 87.5257C198.529 87.5563 198.465 87.5708 198.402 87.5708H198.401ZM306.379 84.8442C306.323 84.8442 306.265 84.8334 306.21 84.8081C305.999 84.7144 305.905 84.4691 305.999 84.2581C306.668 82.7524 307.281 81.1998 307.82 79.6453C307.894 79.429 308.132 79.3135 308.35 79.3893C308.566 79.465 308.682 79.7012 308.606 79.9194C308.058 81.4973 307.438 83.0716 306.76 84.5972C306.691 84.7522 306.538 84.8442 306.379 84.8442ZM194.653 78.329C194.477 78.329 194.311 78.2153 194.257 78.035C193.762 76.4427 193.33 74.8072 192.971 73.1752C192.922 72.9516 193.063 72.7298 193.288 72.6793C193.512 72.6288 193.735 72.7712 193.784 72.9967C194.139 74.6052 194.565 76.2173 195.052 77.788C195.12 78.008 194.998 78.2406 194.778 78.3091C194.736 78.3217 194.695 78.3271 194.655 78.3271L194.653 78.329ZM309.652 75.4185C309.618 75.4185 309.583 75.4149 309.549 75.4058C309.326 75.3481 309.192 75.1227 309.248 74.8991C309.656 73.3068 309.998 71.6749 310.271 70.0483C310.308 69.8211 310.521 69.666 310.75 69.7057C310.977 69.7435 311.131 69.9581 311.093 70.1853C310.817 71.8335 310.469 73.489 310.056 75.1029C310.007 75.2904 309.84 75.4167 309.654 75.4167L309.652 75.4185ZM192.507 68.5894C192.302 68.5894 192.123 68.438 192.094 68.2288C191.874 66.5788 191.719 64.8945 191.636 63.2247C191.626 62.9957 191.802 62.7991 192.031 62.7883C192.259 62.7685 192.455 62.9542 192.468 63.1832C192.551 64.8314 192.702 66.4922 192.919 68.1188C192.949 68.346 192.789 68.557 192.561 68.5858C192.543 68.5876 192.524 68.5894 192.506 68.5894H192.507ZM311.3 65.5816C311.289 65.5816 311.277 65.5816 311.266 65.5816C311.037 65.5617 310.866 65.3616 310.885 65.1326C311.021 63.497 311.089 61.8308 311.089 60.1808C311.089 59.9499 311.275 59.7642 311.506 59.7642C311.737 59.7642 311.922 59.9499 311.922 60.1808C311.922 61.8542 311.852 63.5439 311.717 65.2011C311.699 65.4193 311.517 65.5834 311.302 65.5834L311.3 65.5816ZM311.495 59.5388C311.268 59.5388 311.082 59.3567 311.078 59.1294C311.05 57.4812 310.952 55.8168 310.788 54.1812C310.765 53.9522 310.932 53.7485 311.161 53.725C311.392 53.7034 311.594 53.8693 311.618 54.0983C311.783 55.7573 311.883 57.4452 311.911 59.115C311.915 59.3458 311.733 59.5352 311.502 59.5388H311.495ZM192.012 58.6263C192.012 58.6263 192.002 58.6263 191.997 58.6263C191.768 58.6191 191.588 58.4262 191.595 58.1972C191.649 56.5273 191.773 54.8412 191.965 53.1858C191.99 52.9586 192.197 52.7945 192.426 52.8198C192.653 52.8468 192.818 53.0524 192.792 53.2814C192.603 54.9152 192.48 56.5778 192.428 58.2242C192.421 58.4496 192.237 58.6263 192.013 58.6263H192.012ZM310.498 49.6154C310.301 49.6154 310.126 49.4747 310.088 49.2745C309.787 47.6552 309.416 46.0286 308.979 44.4435C308.918 44.2217 309.05 43.9927 309.272 43.9314C309.492 43.8701 309.722 43.9999 309.784 44.2217C310.225 45.8303 310.602 47.4785 310.907 49.1212C310.949 49.3467 310.799 49.5649 310.573 49.6063C310.548 49.6117 310.523 49.6135 310.498 49.6135V49.6154ZM193.158 48.7191C193.131 48.7191 193.104 48.7173 193.075 48.7101C192.85 48.665 192.704 48.445 192.749 48.2196C193.079 46.5804 193.483 44.9376 193.948 43.3381C194.011 43.1181 194.244 42.9883 194.464 43.055C194.684 43.1199 194.812 43.3508 194.747 43.5708C194.289 45.1486 193.891 46.768 193.564 48.3837C193.524 48.5821 193.351 48.7173 193.157 48.7173L193.158 48.7191ZM307.86 39.9967C307.69 39.9967 307.531 39.8921 307.468 39.7244C306.902 38.1826 306.264 36.6444 305.568 35.1494C305.47 34.9421 305.56 34.6932 305.77 34.5958C305.979 34.4985 306.226 34.5886 306.323 34.7978C307.03 36.3126 307.677 37.8742 308.251 39.4376C308.33 39.654 308.22 39.8921 308.004 39.9714C307.957 39.9894 307.908 39.9967 307.86 39.9967ZM195.944 39.1419C195.896 39.1419 195.843 39.1329 195.795 39.1149C195.58 39.0319 195.474 38.7921 195.555 38.5775C196.154 37.0212 196.828 35.4686 197.557 33.9629C197.656 33.7555 197.906 33.669 198.112 33.7699C198.319 33.8691 198.406 34.1198 198.305 34.3253C197.585 35.8094 196.922 37.3404 196.332 38.875C196.269 39.0409 196.11 39.1419 195.944 39.1419ZM303.651 30.9586C303.506 30.9586 303.366 30.8829 303.288 30.7494C302.471 29.3231 301.584 27.9111 300.65 26.555C300.52 26.3657 300.567 26.106 300.756 25.9762C300.948 25.8463 301.205 25.8932 301.335 26.0826C302.284 27.4585 303.184 28.8903 304.011 30.3365C304.125 30.5367 304.056 30.7909 303.856 30.9045C303.791 30.9424 303.719 30.9586 303.649 30.9586H303.651ZM200.296 30.1616C200.224 30.1616 200.152 30.1435 200.085 30.1039C199.886 29.9867 199.821 29.7306 199.939 29.534C200.79 28.0986 201.713 26.6813 202.681 25.3198C202.813 25.1322 203.075 25.089 203.262 25.2224C203.45 25.3558 203.493 25.6155 203.36 25.8031C202.404 27.1447 201.495 28.544 200.655 29.9596C200.577 30.0912 200.438 30.1634 200.296 30.1634V30.1616ZM297.994 22.7447C297.873 22.7447 297.754 22.6924 297.671 22.5914C296.629 21.3183 295.518 20.074 294.373 18.8893C294.212 18.7234 294.216 18.4601 294.382 18.3014C294.546 18.1409 294.811 18.1445 294.97 18.3104C296.133 19.5096 297.258 20.7737 298.315 22.0631C298.461 22.2416 298.434 22.5031 298.257 22.6491C298.18 22.7122 298.086 22.7429 297.994 22.7429V22.7447ZM206.082 22.0324C205.987 22.0324 205.893 21.9999 205.814 21.9332C205.639 21.7853 205.615 21.5221 205.765 21.3472C206.842 20.074 207.987 18.828 209.168 17.645C209.33 17.4827 209.593 17.4827 209.756 17.645C209.918 17.8073 209.918 18.0706 209.756 18.2329C208.591 19.3978 207.462 20.6258 206.4 21.8827C206.317 21.9801 206.2 22.0306 206.082 22.0306V22.0324ZM291.053 15.5803C290.956 15.5803 290.858 15.546 290.779 15.4775C289.538 14.3937 288.238 13.3478 286.913 12.3722C286.727 12.2352 286.687 11.9755 286.824 11.7898C286.961 11.604 287.221 11.5662 287.407 11.7014C288.75 12.6914 290.068 13.7499 291.327 14.8499C291.5 15.0014 291.518 15.2647 291.367 15.4378C291.284 15.5316 291.168 15.5803 291.053 15.5803ZM213.133 14.9744C213.016 14.9744 212.897 14.9239 212.816 14.8265C212.668 14.6516 212.69 14.3883 212.865 14.2404C214.141 13.1585 215.476 12.1198 216.832 11.1532C217.019 11.0198 217.279 11.0631 217.412 11.2506C217.546 11.4381 217.503 11.6978 217.315 11.8313C215.979 12.7852 214.662 13.8094 213.402 14.8752C213.323 14.9419 213.229 14.9744 213.133 14.9744ZM283.019 9.6601C282.945 9.6601 282.87 9.64027 282.801 9.59879C281.398 8.73502 279.941 7.92174 278.473 7.17879C278.268 7.07601 278.187 6.82535 278.289 6.61978C278.392 6.41601 278.645 6.33306 278.848 6.43584C280.338 7.18781 281.815 8.01371 283.238 8.8901C283.432 9.01092 283.494 9.26699 283.375 9.46355C283.297 9.59158 283.16 9.66191 283.019 9.66191V9.6601ZM221.253 9.18224C221.111 9.18224 220.972 9.1101 220.895 8.97847C220.777 8.7801 220.842 8.52584 221.039 8.40863C222.472 7.55568 223.962 6.75502 225.462 6.02469C225.67 5.92371 225.919 6.01027 226.02 6.21765C226.121 6.42502 226.034 6.67387 225.827 6.77486C224.346 7.49437 222.878 8.28601 221.464 9.12633C221.398 9.16601 221.324 9.18404 221.252 9.18404L221.253 9.18224ZM274.113 5.15912C274.061 5.15912 274.008 5.1501 273.958 5.12847C272.429 4.50994 270.854 3.95092 269.284 3.46584C269.064 3.39732 268.941 3.16469 269.01 2.94469C269.076 2.72469 269.311 2.60027 269.531 2.6706C271.125 3.16289 272.719 3.72912 274.27 4.35666C274.483 4.44322 274.585 4.68486 274.501 4.89765C274.434 5.05994 274.279 5.15732 274.115 5.15732L274.113 5.15912ZM230.221 4.82371C230.053 4.82371 229.897 4.72273 229.833 4.55683C229.751 4.34224 229.857 4.1006 230.071 4.01945C231.63 3.41715 233.231 2.87617 234.832 2.40732C235.054 2.3406 235.283 2.47043 235.348 2.69043C235.413 2.91043 235.287 3.14125 235.065 3.20617C233.485 3.66781 231.905 4.20158 230.371 4.79486C230.322 4.81469 230.272 4.82371 230.221 4.82371ZM264.581 2.21437C264.552 2.21437 264.521 2.21076 264.491 2.20535C262.886 1.85371 261.243 1.56519 259.609 1.34879C259.382 1.31814 259.222 1.10896 259.25 0.881744C259.281 0.654531 259.488 0.494039 259.717 0.522891C261.376 0.742891 263.041 1.03502 264.667 1.39027C264.893 1.43896 265.033 1.66076 264.985 1.88617C264.941 2.08092 264.77 2.21256 264.579 2.21256L264.581 2.21437ZM239.795 2.02683C239.6 2.02683 239.427 1.88978 239.387 1.69322C239.342 1.46781 239.486 1.24781 239.712 1.20273C241.344 0.870924 243.014 0.605842 244.674 0.411088C244.905 0.384039 245.109 0.548137 245.136 0.775351C245.163 1.00437 244.999 1.20994 244.772 1.23699C243.134 1.42814 241.486 1.69142 239.878 2.01781C239.849 2.02322 239.822 2.02683 239.795 2.02683ZM254.693 0.903383C254.693 0.903383 254.679 0.903383 254.674 0.903383C253.029 0.824039 251.338 0.813219 249.716 0.865514C249.713 0.865514 249.707 0.865514 249.702 0.865514C249.478 0.865514 249.294 0.688793 249.287 0.463383C249.28 0.234367 249.459 0.0414161 249.689 0.034203C251.334 -0.0216987 253.049 -0.00907571 254.715 0.0720718C254.944 0.0828915 255.121 0.279449 255.11 0.508465C255.099 0.732072 254.915 0.905187 254.695 0.905187L254.693 0.903383Z" fill="black"/>
<path d="M251.741 9.12634C223.545 9.12634 200.688 31.9829 200.688 60.179C200.688 88.375 223.545 111.232 251.741 111.232C279.937 111.232 302.794 88.375 302.794 60.179C302.794 31.9829 279.937 9.12634 251.741 9.12634ZM251.741 101.68C228.82 101.68 210.239 83.0986 210.239 60.1772C210.239 37.2557 228.82 18.6747 251.741 18.6747C274.663 18.6747 293.244 37.2557 293.244 60.1772C293.244 83.0986 274.663 101.68 251.741 101.68Z" fill="white"/>
<path d="M251.741 111.646C223.361 111.646 200.274 88.5572 200.274 60.1772C200.274 31.7972 223.361 8.70978 251.741 8.70978C280.121 8.70978 303.21 31.799 303.21 60.179C303.21 88.559 280.121 111.648 251.741 111.648V111.646ZM251.741 9.54289C223.821 9.54289 201.105 32.2588 201.105 60.179C201.105 88.0991 223.821 110.815 251.741 110.815C279.661 110.815 302.377 88.0991 302.377 60.179C302.377 32.2588 279.661 9.54289 251.741 9.54289ZM251.741 102.096C228.629 102.096 209.824 83.2916 209.824 60.1772C209.824 37.0627 228.629 18.2581 251.741 18.2581C274.854 18.2581 293.66 37.0627 293.66 60.1772C293.66 83.2916 274.856 102.096 251.741 102.096ZM251.741 19.0931C229.087 19.0931 210.655 37.5244 210.655 60.179C210.655 82.8335 229.087 101.265 251.741 101.265C274.396 101.265 292.827 82.8335 292.827 60.179C292.827 37.5244 274.396 19.0931 251.741 19.0931Z" fill="black"/>
<path d="M221.36 31.909L214.603 25.1521C212.293 27.6009 210.222 30.2788 208.428 33.1478L216.678 37.968C218.052 35.804 219.621 33.7772 221.36 31.9108V31.909Z" fill="white"/>
<path d="M216.678 38.3845C216.606 38.3845 216.534 38.3665 216.469 38.3268L208.219 33.5067C208.122 33.4508 208.052 33.357 208.024 33.247C207.997 33.137 208.015 33.0216 208.075 32.926C209.876 30.0462 211.97 27.334 214.3 24.8653C214.377 24.7842 214.484 24.7373 214.597 24.7355C214.711 24.7409 214.819 24.7788 214.899 24.8581L221.655 31.615C221.814 31.7737 221.818 32.028 221.666 32.1939C219.941 34.0476 218.381 36.0655 217.032 38.1916C216.953 38.316 216.817 38.3845 216.68 38.3845H216.678ZM209.011 33.0053L216.545 37.4053C217.798 35.4722 219.223 33.6293 220.784 31.9198L214.614 25.7508C212.536 27.9904 210.654 30.4267 209.011 33.0053Z" fill="black"/>
<path d="M253.236 9.14977V18.7071C263.158 19.0588 272.192 22.8908 279.155 29.0219L285.721 22.0811C277.041 14.3342 265.699 9.50863 253.236 9.14977Z" fill="white"/>
<path d="M279.155 29.4367C279.057 29.4367 278.958 29.4024 278.879 29.3339C271.779 23.0819 262.667 19.4555 253.22 19.1219C252.996 19.1147 252.818 18.9308 252.818 18.7053V9.14978C252.818 9.03797 252.863 8.92978 252.944 8.85223C253.025 8.77289 253.142 8.73322 253.245 8.73502C265.334 9.08305 276.966 13.7121 285.995 21.7709C286.078 21.8449 286.128 21.9513 286.133 22.0649C286.139 22.1767 286.097 22.2867 286.02 22.3678L279.454 29.3086C279.373 29.3952 279.263 29.4385 279.151 29.4385L279.155 29.4367ZM253.651 18.305C263.014 18.727 272.03 22.3155 279.126 28.4449L285.12 22.1063C276.39 14.4478 265.246 10.0117 253.649 9.57896V18.305H253.651Z" fill="black"/>
<path d="M281.324 31.074C288.694 38.5649 293.242 48.8399 293.242 60.1771C293.242 63.7657 292.786 67.2478 291.929 70.5694L301.068 73.3681C302.19 69.1611 302.792 64.7394 302.792 60.179C302.792 46.108 297.099 33.366 287.89 24.1314L281.322 31.074H281.324Z" fill="black"/>
<path d="M282.123 88.4472L288.88 95.204C293.938 89.8429 297.846 83.389 300.215 76.2317L291.08 73.4349C289.177 79.0809 286.094 84.1824 282.123 88.4472Z" fill="black"/>
<path d="M222.159 89.2821C214.789 81.7913 210.241 71.5162 210.241 60.179C210.241 53.0776 212.026 46.3929 215.171 40.5467L206.919 35.7265C202.95 42.9883 200.692 51.3195 200.692 60.179C200.692 74.2499 206.385 86.9919 215.593 96.2265L222.16 89.2839L222.159 89.2821Z" fill="black"/>
<path d="M280.009 90.5606C272.939 97.1426 263.569 101.285 253.234 101.651V111.208C266.205 110.835 277.961 105.625 286.766 97.3175L280.009 90.5606Z" fill="white"/>
<path d="M253.234 111.623C253.126 111.623 253.022 111.581 252.944 111.506C252.863 111.428 252.818 111.32 252.818 111.208V101.651C252.818 101.427 252.996 101.243 253.22 101.234C263.082 100.884 272.495 96.9857 279.726 90.254C279.89 90.1026 280.147 90.1062 280.305 90.2649L287.062 97.0217C287.141 97.1011 287.187 97.2093 287.185 97.3229C287.183 97.4365 287.136 97.5429 287.055 97.6204C277.867 106.289 265.861 111.26 253.249 111.625H253.236L253.234 111.623ZM253.651 102.051V110.777C265.76 110.326 277.276 105.557 286.168 97.3067L279.997 91.1358C272.759 97.7467 263.432 101.609 253.649 102.049L253.651 102.051Z" fill="black"/>
<path d="M223.473 29.7955C230.544 23.2135 239.915 19.0714 250.248 18.7053V9.14797C237.277 9.52125 225.522 14.7309 216.716 23.0386L223.473 29.7955Z" fill="black"/>
<path d="M250.248 111.208V101.651C240.327 101.299 231.292 97.4671 224.33 91.336L217.764 98.2768C226.443 106.024 237.786 110.849 250.248 111.208Z" fill="white"/>
<path d="M250.248 111.623H250.236C238.147 111.275 226.516 106.646 217.486 98.587C217.404 98.5131 217.353 98.4067 217.348 98.2931C217.342 98.1813 217.384 98.0713 217.461 97.9901L224.027 91.0493C224.18 90.887 224.436 90.8744 224.604 91.0222C231.704 97.2742 240.815 100.901 250.263 101.234C250.486 101.241 250.665 101.425 250.665 101.651V111.208C250.665 111.32 250.62 111.428 250.539 111.506C250.461 111.581 250.357 111.623 250.248 111.623ZM218.361 98.2498C227.091 105.908 238.235 110.344 249.832 110.777V102.051C240.469 101.629 231.453 98.0406 224.357 91.9113L218.361 98.2498Z" fill="black"/>
<path d="M251.741 93.298C247.5 93.298 243.369 92.5081 239.463 90.9483C239.25 90.8635 239.145 90.6201 239.23 90.4073C239.315 90.1945 239.557 90.0899 239.771 90.1747C243.578 91.6949 247.605 92.4649 251.739 92.4649C265.827 92.4649 278.183 83.4611 282.487 70.0591C282.557 69.8409 282.794 69.7219 283.01 69.7904C283.23 69.8608 283.349 70.0952 283.279 70.3134C278.864 84.0616 266.189 93.298 251.739 93.298H251.741Z" fill="black"/>
<path d="M283.544 52.9388C283.356 52.9388 283.185 52.8108 283.14 52.6196C282.476 49.8516 281.445 47.1809 280.074 44.6798C279.964 44.4778 280.038 44.2254 280.24 44.1154C280.442 44.0035 280.695 44.0793 280.805 44.2813C282.211 46.8473 283.27 49.5883 283.951 52.4267C284.006 52.6503 283.867 52.8757 283.643 52.928C283.611 52.9352 283.578 52.9388 283.546 52.9388H283.544Z" fill="black"/>
<path d="M230.715 85.6449C230.621 85.6449 230.526 85.6124 230.448 85.5475C222.932 79.2324 218.621 69.9852 218.621 60.179C218.621 41.9172 233.478 27.0599 251.741 27.0599C255.188 27.0599 258.583 27.5865 261.834 28.627C262.053 28.6973 262.173 28.9317 262.103 29.1499C262.033 29.3681 261.8 29.4926 261.58 29.4186C258.41 28.4052 255.099 27.8912 251.74 27.8912C233.936 27.8912 219.452 42.3752 219.452 60.179C219.452 69.7399 223.654 78.7545 230.982 84.9109C231.159 85.0588 231.18 85.3221 231.033 85.497C230.95 85.5944 230.832 85.6449 230.713 85.6449H230.715Z" fill="black"/>
<path d="M306.915 223.608H113.951V231.144H144.039L120.564 329.277H125.687L147.063 240.577L168.439 329.277H173.564L150.087 231.144H306.915V223.608Z" fill="white"/>
<path d="M173.564 329.693H168.441C168.248 329.693 168.082 329.562 168.037 329.374L147.065 242.353L126.093 329.374C126.047 329.562 125.88 329.693 125.689 329.693H120.565C120.437 329.693 120.317 329.636 120.239 329.535C120.162 329.434 120.131 329.304 120.162 329.179L143.514 231.559H113.955C113.724 231.559 113.538 231.373 113.538 231.142V223.607C113.538 223.376 113.724 223.19 113.955 223.19H306.918C307.149 223.19 307.335 223.376 307.335 223.607V231.142C307.335 231.373 307.149 231.559 306.918 231.559H150.619L173.971 329.179C174 329.304 173.971 329.434 173.894 329.535C173.816 329.636 173.695 329.693 173.567 329.693H173.564ZM168.767 328.862H173.035L149.683 231.242C149.654 231.117 149.683 230.987 149.761 230.886C149.84 230.787 149.961 230.728 150.087 230.728H306.498V224.025H114.368V230.728H144.039C144.167 230.728 144.286 230.785 144.365 230.886C144.444 230.986 144.473 231.117 144.443 231.242L121.09 328.862H125.359L146.659 240.48C146.704 240.292 146.872 240.161 147.063 240.161C147.254 240.161 147.422 240.292 147.467 240.48L168.767 328.862Z" fill="black"/>
<path d="M258.875 329.277L280.251 240.566L301.628 329.277H306.751L283.265 231.088L277.24 231.079L253.75 329.277H258.875Z" fill="white"/>
<path d="M306.751 329.693H301.628C301.435 329.693 301.269 329.562 301.222 329.374L280.25 242.341L259.278 329.374C259.232 329.562 259.065 329.693 258.872 329.693H253.749C253.621 329.693 253.5 329.636 253.422 329.535C253.345 329.434 253.314 329.304 253.345 329.179L276.832 230.982C276.878 230.794 277.045 230.663 277.238 230.663L283.263 230.672C283.456 230.672 283.622 230.803 283.667 230.991L307.153 329.179C307.182 329.304 307.153 329.434 307.075 329.535C306.998 329.636 306.875 329.693 306.749 329.693H306.751ZM301.956 328.862H306.224L282.937 231.505L277.568 231.498L254.279 328.862H258.547L279.848 240.469C279.893 240.281 280.06 240.15 280.253 240.15C280.446 240.15 280.612 240.281 280.657 240.469L301.956 328.862Z" fill="black"/>
<path d="M257.108 230.012C256.877 230.012 256.691 229.826 256.691 229.595V224.946C256.691 224.716 256.877 224.53 257.108 224.53C257.339 224.53 257.525 224.716 257.525 224.946V229.595C257.525 229.826 257.339 230.012 257.108 230.012Z" fill="white"/>
<path d="M244.141 310.002L242.148 319.927C242.081 320.262 241.768 320.489 241.475 320.415L235.649 318.933C235.398 318.87 235.249 318.603 235.305 318.315L236.984 309.444L244.141 310.002Z" fill="white"/>
<path d="M241.589 320.845C241.517 320.845 241.443 320.836 241.373 320.818L235.546 319.335C235.079 319.216 234.798 318.744 234.895 318.235L236.574 309.365C236.614 309.156 236.816 309.012 237.016 309.028L244.173 309.585C244.292 309.594 244.4 309.654 244.472 309.749C244.545 309.845 244.572 309.966 244.548 310.083L242.556 320.008C242.498 320.295 242.326 320.545 242.085 320.699C241.932 320.796 241.76 320.845 241.589 320.845ZM237.322 309.888L235.714 318.39C235.699 318.466 235.726 318.522 235.752 318.529L241.578 320.012C241.603 320.017 241.63 320.001 241.643 319.994C241.692 319.963 241.728 319.907 241.74 319.844L243.641 310.378L237.324 309.886L237.322 309.888Z" fill="black"/>
<path d="M262.92 301.486L267.828 309.554L262.22 312.528L257.171 305.309L262.92 301.486Z" fill="white"/>
<path d="M262.22 312.945C262.089 312.945 261.959 312.881 261.879 312.766L256.83 305.547C256.765 305.455 256.742 305.342 256.762 305.232C256.782 305.122 256.846 305.025 256.94 304.963L262.689 301.142C262.783 301.081 262.9 301.059 263.01 301.083C263.12 301.108 263.217 301.176 263.275 301.272L268.184 309.342C268.243 309.439 268.259 309.558 268.229 309.668C268.198 309.778 268.124 309.872 268.021 309.926L262.411 312.898C262.35 312.93 262.283 312.946 262.217 312.946L262.22 312.945ZM257.757 305.419L262.35 311.989L267.244 309.396L262.79 302.074L257.757 305.421V305.419Z" fill="black"/>
<path d="M244.221 315.565C244.62 316.991 245.46 321.014 245.812 323.434C246.032 324.953 245.073 326.39 243.605 326.787C239.454 327.91 229.53 327.861 221.267 328.226C220.701 328.251 219.659 327.975 219.196 326.603C217.623 321.954 226.308 320.513 234.889 315.787C235.059 315.695 235.263 315.702 235.42 315.814C235.519 315.884 235.643 315.97 235.793 316.064C237.286 317.015 239.767 317.016 241.284 316.104L242.997 315.074C243.466 314.791 244.074 315.035 244.221 315.565Z" fill="white"/>
<path d="M221.195 328.642C220.368 328.642 219.279 328.148 218.801 326.736C217.582 323.133 221.816 321.301 227.175 318.98C229.485 317.979 232.102 316.847 234.688 315.422C235.001 315.251 235.373 315.271 235.661 315.476C235.757 315.545 235.876 315.626 236.017 315.714C237.364 316.571 239.677 316.587 241.069 315.749L242.783 314.719C243.118 314.517 243.52 314.485 243.883 314.629C244.247 314.773 244.517 315.074 244.624 315.455C245.038 316.939 245.875 320.966 246.225 323.377C246.476 325.095 245.395 326.736 243.715 327.19C240.581 328.038 234.39 328.224 227.837 328.418C225.657 328.483 223.403 328.55 221.287 328.644C221.259 328.644 221.228 328.646 221.197 328.646L221.195 328.642ZM235.135 316.138C235.12 316.138 235.104 316.142 235.09 316.151C232.47 317.593 229.833 318.737 227.507 319.743C221.83 322.201 218.662 323.726 219.591 326.469C220.038 327.793 221.048 327.816 221.25 327.809C223.37 327.715 225.628 327.648 227.81 327.584C234.028 327.398 240.456 327.207 243.495 326.384C244.77 326.04 245.588 324.797 245.399 323.494C245.062 321.177 244.225 317.126 243.821 315.676C243.785 315.548 243.695 315.449 243.574 315.401C243.457 315.354 243.322 315.365 243.212 315.431L241.499 316.461C239.838 317.458 237.18 317.44 235.569 316.416C235.414 316.317 235.281 316.226 235.178 316.151C235.165 316.142 235.151 316.138 235.137 316.138H235.135Z" fill="black"/>
<path d="M246.061 324.529C246.07 324.57 246.075 324.601 246.077 324.614C246.297 326.132 244.856 327.064 243.477 327.712C239.387 329.632 222.869 328.532 222.231 328.487C222.218 328.487 222.209 328.487 222.194 328.487C221.989 328.491 219.892 328.491 219.288 327.187C219.212 327.025 219.167 326.797 219.138 326.585C219.091 326.236 219.116 325.881 219.192 325.539C219.255 325.259 219.531 325.084 219.805 325.155C222.871 325.939 230.062 326.451 237.183 325.411C239.809 325.026 244.005 323.849 245.107 323.191C245.408 323.01 245.792 323.185 245.861 323.532C245.918 323.82 245.987 324.172 246.057 324.531L246.061 324.529Z" fill="white"/>
<path d="M232.583 329.255C227.467 329.255 222.58 328.929 222.205 328.904C221.945 328.902 219.626 328.9 218.914 327.362C218.831 327.183 218.77 326.94 218.73 326.637C218.68 326.255 218.7 325.854 218.792 325.447C218.846 325.201 218.999 324.987 219.212 324.855C219.424 324.725 219.675 324.687 219.915 324.749C222.571 325.429 229.595 326.098 237.129 324.996C239.695 324.621 243.834 323.468 244.899 322.83C245.155 322.677 245.471 322.659 245.743 322.778C246.017 322.9 246.216 323.149 246.275 323.447L246.472 324.446L246.49 324.545C246.759 326.399 245.002 327.454 243.655 328.085C241.702 329.003 237.055 329.252 232.583 329.252V329.255ZM222.193 328.07C222.207 328.07 222.247 328.07 222.257 328.07C228.14 328.471 240.103 328.833 243.3 327.333C245.082 326.498 245.81 325.676 245.664 324.671L245.455 323.609C245.446 323.568 245.421 323.55 245.401 323.541C245.375 323.528 245.348 323.532 245.323 323.546C244.169 324.237 239.94 325.427 237.246 325.82C230.423 326.815 223.114 326.428 219.704 325.555C219.684 325.549 219.663 325.551 219.643 325.564C219.63 325.571 219.608 325.589 219.599 325.625C219.529 325.937 219.513 326.24 219.551 326.525C219.589 326.812 219.639 326.951 219.666 327.008C220.167 328.088 222.104 328.072 222.189 328.069H222.193V328.07Z" fill="black"/>
<path d="M234.3 319.959C234.212 319.959 234.123 319.932 234.047 319.875L231.541 317.967C231.359 317.828 231.323 317.566 231.462 317.384C231.6 317.2 231.862 317.166 232.044 317.305L234.551 319.213C234.733 319.352 234.769 319.613 234.63 319.795C234.547 319.903 234.424 319.959 234.298 319.959H234.3Z" fill="black"/>
<path d="M230.971 321.324C230.884 321.324 230.796 321.297 230.722 321.241L228.529 319.597C228.345 319.46 228.309 319.198 228.446 319.014C228.583 318.83 228.845 318.794 229.029 318.931L231.222 320.576C231.405 320.713 231.442 320.975 231.304 321.158C231.223 321.267 231.097 321.324 230.971 321.324Z" fill="black"/>
<path d="M261.852 310.806L268.305 309.872L272.113 317.952C272.674 319.164 272.228 320.735 271.094 321.452C269.617 322.386 267.41 323.606 264.875 324.421C260.094 325.957 255.321 330.366 251.209 328.198C247.098 326.031 247.37 325.87 247.165 324.386C246.959 322.902 251.035 319.979 253.79 318.057C256.04 316.486 261.852 310.804 261.852 310.804V310.806Z" fill="white"/>
<path d="M253.62 329.199C252.733 329.199 251.862 329.014 251.016 328.568C247.275 326.595 246.973 326.215 246.789 324.734C246.779 324.644 246.766 324.547 246.752 324.444C246.544 322.944 249.319 320.668 253.552 317.716C255.75 316.183 261.502 310.564 261.56 310.506C261.623 310.445 261.704 310.406 261.791 310.393L268.243 309.459C268.432 309.43 268.602 309.527 268.679 309.693L272.488 317.774C273.137 319.178 272.611 320.984 271.314 321.804C269.875 322.715 267.61 323.977 264.999 324.817C263.522 325.292 262.016 326.062 260.559 326.808C258.249 327.989 255.882 329.199 253.619 329.199H253.62ZM262.047 311.199C261.252 311.974 256.148 316.921 254.03 318.399C252.389 319.545 247.397 323.027 247.578 324.33C247.592 324.439 247.605 324.538 247.617 324.632C247.749 325.697 247.776 325.919 251.406 327.831C254.03 329.214 257.019 327.685 260.184 326.065C261.67 325.304 263.208 324.52 264.748 324.024C267.275 323.211 269.473 321.986 270.872 321.101C271.828 320.497 272.216 319.162 271.736 318.125L268.059 310.326L262.047 311.197V311.199Z" fill="black"/>
<path d="M259.734 317.824C259.656 317.824 259.577 317.803 259.506 317.757L256.598 315.866C256.405 315.741 256.351 315.484 256.475 315.291C256.599 315.098 256.857 315.042 257.05 315.168L259.959 317.06C260.152 317.184 260.206 317.442 260.082 317.635C260.002 317.757 259.869 317.824 259.732 317.824H259.734Z" fill="black"/>
<path d="M257.665 319.992C257.587 319.992 257.508 319.97 257.438 319.925L254.527 318.033C254.334 317.909 254.28 317.651 254.405 317.458C254.529 317.265 254.787 317.209 254.98 317.336L257.89 319.227C258.083 319.352 258.138 319.609 258.013 319.802C257.934 319.925 257.8 319.992 257.663 319.992H257.665Z" fill="black"/>
<path d="M247.446 325.499C247.446 325.499 250.681 327.856 254.241 326.626C257.8 325.396 272.111 317.858 272.111 317.858L272.85 319.478C273.225 320.298 272.904 321.274 272.115 321.719C268.55 323.728 259.035 328.846 254.084 329.183C247.913 329.603 247.446 325.499 247.446 325.499Z" fill="white"/>
<path d="M253.231 329.628C247.567 329.628 247.038 325.589 247.033 325.546C247.015 325.382 247.094 325.223 247.237 325.14C247.379 325.057 247.558 325.066 247.691 325.164C247.722 325.185 250.8 327.374 254.105 326.233C257.595 325.026 271.776 317.566 271.918 317.491C272.019 317.438 272.138 317.427 272.246 317.465C272.354 317.503 272.443 317.583 272.49 317.687L273.229 319.306C273.689 320.316 273.29 321.535 272.318 322.084C268.508 324.229 259.106 329.259 254.111 329.6C253.804 329.619 253.51 329.63 253.229 329.63L253.231 329.628ZM248.192 326.422C248.751 327.493 250.228 329.026 254.055 328.768C258.88 328.44 268.149 323.476 271.911 321.357C272.51 321.02 272.755 320.269 272.473 319.651L271.916 318.432C269.554 319.671 257.64 325.892 254.378 327.019C251.826 327.899 249.469 327.066 248.192 326.422Z" fill="black"/>
<path d="M257.546 246.634C257.546 246.634 235.324 255.672 227.125 265.603C219.291 275.092 254.576 309.556 254.576 309.556C254.621 309.72 266.566 302.969 266.566 302.761L257.416 282.803C253.804 275.018 246.582 270.569 249.529 267.834C252.21 265.345 267.111 266.631 274.758 266.364C288.346 265.892 288.216 246.084 288.216 246.084L257.546 246.636V246.634Z" fill="black"/>
<path d="M238.615 271.238C236.696 278.414 234.873 300.001 234.453 312.074C234.448 312.239 246.681 312.357 246.706 312.138C246.829 311.076 255.872 278.385 260.923 269.74C263.607 265.149 280.913 266.463 284.774 265.697C295.081 263.65 294.405 242.84 294.405 242.84L246.147 262.112C242.021 262.739 239.702 267.17 238.615 271.236V271.238Z" fill="black"/>
<path d="M248.739 303.921C248.616 303.921 248.495 303.867 248.412 303.764L238.736 291.66C238.591 291.482 238.622 291.219 238.801 291.076C238.979 290.932 239.242 290.963 239.385 291.141L249.061 303.245C249.206 303.423 249.175 303.687 248.996 303.829C248.921 303.89 248.829 303.919 248.737 303.919L248.739 303.921Z" fill="white"/>
<path d="M297.496 209.887C297.496 209.887 297.083 193.284 287.32 190.06C286.491 189.786 285.621 189.651 284.749 189.618L276.134 189.294C273.577 189.274 271.46 189.891 268.725 190.891C266.438 191.728 263.892 193.288 262.406 194.637C255.855 200.588 255.788 220.568 250.122 220.097C248.22 219.939 245.037 216.761 241.885 212.872C239.36 209.757 235.012 205.936 235.012 205.936L227.44 209.757C229.24 212.81 230.863 215.971 232.188 219.261C234.958 226.133 239.504 231.903 245.199 236.83C247.094 238.469 249.774 238.805 252.012 237.688C255.644 235.878 261.084 232.962 264.465 230.208C265.71 234.506 264.601 239.192 261.537 242.505C260.617 243.498 259.622 244.411 258.572 245.156C257.541 245.89 257.296 247.338 258.004 248.391C259.146 250.089 261.425 252.042 265.778 251.584C271.496 250.984 287.776 251.049 294.966 251.11C296.874 251.126 298.414 249.547 298.369 247.621L297.496 209.882V209.887Z" fill="white"/>
<path d="M264.519 252.073C260.805 252.073 258.751 250.252 257.66 248.627C256.825 247.385 257.126 245.677 258.332 244.82C259.299 244.135 260.275 243.262 261.232 242.225C264.038 239.19 265.158 234.917 264.225 230.935C260.864 233.543 255.878 236.229 252.199 238.063C249.805 239.257 246.952 238.896 244.929 237.146C238.837 231.875 234.421 225.909 231.804 219.417C230.569 216.354 229.026 213.263 227.083 209.968C227.026 209.869 227.009 209.75 227.042 209.64C227.074 209.53 227.152 209.438 227.255 209.386L234.827 205.565C234.978 205.489 235.162 205.511 235.288 205.624C235.332 205.662 239.692 209.505 242.209 212.61C245.803 217.043 248.625 219.555 250.158 219.683C252.764 219.883 254.196 214.597 255.718 208.984C257.205 203.493 258.893 197.27 262.126 194.33C263.744 192.861 266.337 191.322 268.582 190.5C271.433 189.456 273.572 188.843 276.138 188.877L284.765 189.202C285.724 189.238 286.628 189.393 287.452 189.665C297.379 192.944 297.896 209.187 297.914 209.876L298.787 247.615C298.811 248.667 298.419 249.657 297.685 250.403C296.96 251.139 295.999 251.537 294.964 251.53C288.114 251.473 271.558 251.4 265.823 252.003C265.369 252.051 264.934 252.073 264.521 252.073H264.519ZM264.465 229.795C264.507 229.795 264.548 229.801 264.59 229.815C264.723 229.857 264.826 229.963 264.866 230.096C266.148 234.525 264.99 239.389 261.843 242.792C260.846 243.87 259.827 244.781 258.816 245.5C257.974 246.099 257.766 247.293 258.352 248.165C259.438 249.779 261.602 251.61 265.737 251.177C271.513 250.569 288.105 250.641 294.971 250.701C295.777 250.697 296.528 250.394 297.092 249.821C297.667 249.236 297.974 248.461 297.954 247.637L297.081 209.898C297.078 209.718 296.556 193.549 287.19 190.457C286.442 190.21 285.616 190.069 284.732 190.035L276.118 189.71C276.078 189.71 276.039 189.71 276.001 189.71C273.626 189.71 271.65 190.266 268.869 191.285C266.75 192.06 264.207 193.566 262.687 194.949C259.633 197.724 257.979 203.823 256.522 209.204C254.836 215.42 253.388 220.792 250.09 220.516C248.277 220.364 245.408 217.883 241.562 213.138C239.402 210.473 235.844 207.242 234.947 206.439L228.023 209.934C229.882 213.12 231.372 216.126 232.574 219.111C235.142 225.48 239.481 231.339 245.471 236.522C247.239 238.051 249.733 238.366 251.826 237.324C255.655 235.414 260.911 232.576 264.202 229.895C264.278 229.833 264.37 229.801 264.465 229.801V229.795Z" fill="black"/>
<path d="M264.354 230.717C264.229 230.717 264.108 230.663 264.025 230.558C263.883 230.376 263.915 230.116 264.096 229.974C265.07 229.211 268.032 226.461 269.583 224.185C269.713 223.996 269.971 223.947 270.162 224.075C270.351 224.205 270.402 224.463 270.272 224.654C268.669 227.006 265.614 229.842 264.61 230.628C264.534 230.688 264.444 230.717 264.354 230.717Z" fill="black"/>
<path d="M234.067 206.149L232.909 199.884C232.909 199.884 231.963 195.107 230.805 194.469C229.954 194 229.388 195.773 229.566 198.013C229.595 198.384 229.09 198.517 228.937 198.178C228.333 196.846 227.703 195.282 227.649 194.469C227.545 192.877 227.229 189.586 225.756 189.903C224.283 190.222 221.653 195.318 223.651 199.67C225.65 204.023 230.279 208.057 230.279 208.057L234.065 206.145L234.067 206.149Z" fill="white"/>
<path d="M230.28 208.477C230.181 208.477 230.084 208.443 230.006 208.374C229.815 208.206 225.287 204.23 223.275 199.846C221.951 196.961 222.564 193.762 223.579 191.732C224.205 190.482 224.986 189.647 225.668 189.499C226.041 189.42 226.396 189.497 226.699 189.725C227.455 190.295 227.889 191.793 228.064 194.444C228.1 194.996 228.474 196.099 229.123 197.578C229.074 196.2 229.287 194.621 230.05 194.126C230.344 193.937 230.681 193.93 231.004 194.107C232.266 194.801 233.149 198.976 233.314 199.805L234.471 206.073C234.506 206.255 234.414 206.437 234.249 206.52L230.463 208.432C230.403 208.463 230.338 208.477 230.275 208.477H230.28ZM225.953 190.3C225.918 190.3 225.882 190.304 225.844 190.313C225.507 190.385 224.887 190.978 224.324 192.103C223.396 193.962 222.829 196.882 224.03 199.498C225.731 203.202 229.431 206.724 230.345 207.559L233.6 205.916L232.5 199.958C232.123 198.058 231.285 195.207 230.605 194.833C230.544 194.799 230.528 194.808 230.504 194.823C230.196 195.023 229.842 196.231 229.981 197.978C230.01 198.35 229.781 198.673 229.422 198.765C229.067 198.856 228.71 198.687 228.558 198.35C227.727 196.516 227.282 195.219 227.235 194.496C227.044 191.602 226.566 190.664 226.2 190.388C226.118 190.327 226.041 190.298 225.953 190.298V190.3Z" fill="black"/>
<path d="M273.094 191.851C272.854 191.807 272.795 191.481 273.007 191.358C273.725 190.944 274.74 190.19 274.677 189.281L274.832 185.768C274.821 185.339 274.54 184.968 274.133 184.843L271.606 184.075C271.217 183.956 270.953 183.59 270.962 183.181L271.042 179.455L269.816 178.465C269.72 178.387 269.704 178.247 269.778 178.149L271.549 175.812C272.122 174.932 272.649 172.866 273.155 172.983C273.155 172.983 283.623 171.333 284.465 176.536C284.593 177.331 284.4 178.144 283.96 178.817L283.075 180.175C282.186 181.54 281.755 183.182 281.991 184.798C282.065 185.307 283.25 189.979 283.25 189.979C283.25 189.979 285.351 190.931 286.635 191.286C286.912 191.364 286.927 191.753 286.656 191.853L284.309 192.413C281.961 192.965 279.526 193.027 277.155 192.592L273.098 191.849L273.094 191.851Z" fill="white"/>
<path d="M280.303 193.299C279.227 193.299 278.15 193.201 277.077 193.005L273.02 192.262C272.737 192.21 272.52 191.991 272.47 191.706C272.421 191.422 272.549 191.146 272.796 191.001C273.763 190.442 274.295 189.827 274.259 189.312C274.259 189.296 274.259 189.281 274.259 189.265L274.412 185.752C274.405 185.53 274.242 185.316 274.008 185.244L271.482 184.475C270.915 184.302 270.529 183.767 270.542 183.173L270.616 179.652L269.55 178.79C269.278 178.57 269.229 178.178 269.442 177.899L271.213 175.562C271.393 175.284 271.597 174.797 271.794 174.325C272.216 173.317 272.556 172.509 273.15 172.563C274.132 172.417 283.998 171.084 284.871 176.469C285.013 177.351 284.813 178.265 284.305 179.044L283.419 180.402C282.548 181.738 282.186 183.278 282.399 184.739C282.449 185.083 283.125 187.811 283.6 189.681C284.133 189.918 285.718 190.603 286.741 190.886C287.04 190.969 287.249 191.234 287.262 191.544C287.275 191.856 287.087 192.137 286.795 192.244C286.781 192.249 286.764 192.255 286.748 192.258L284.4 192.819C283.044 193.138 281.674 193.297 280.301 193.297L280.303 193.299ZM273.552 191.512L277.225 192.184C279.553 192.61 281.903 192.552 284.209 192.009L286.092 191.559C284.811 191.144 283.152 190.394 283.073 190.359C282.958 190.307 282.873 190.204 282.842 190.082C282.721 189.602 281.652 185.373 281.576 184.859C281.333 183.199 281.74 181.453 282.723 179.947L283.609 178.589C284.004 177.984 284.16 177.278 284.05 176.602C283.284 171.865 273.317 173.38 273.216 173.396C273.204 173.398 273.189 173.4 273.175 173.4C273.011 173.573 272.744 174.213 272.564 174.646C272.353 175.152 272.133 175.675 271.895 176.041L270.218 178.258L271.301 179.132C271.402 179.213 271.458 179.336 271.456 179.466L271.377 183.191C271.372 183.415 271.516 183.615 271.727 183.68L274.253 184.448C274.832 184.625 275.232 185.152 275.247 185.761L275.094 189.281C275.144 190.231 274.351 190.994 273.554 191.515L273.552 191.512Z" fill="black"/>
<path d="M272.455 164.894C274.873 164.668 271.914 167.277 280.781 164.336C284.312 163.166 282.651 167.409 283.569 167.106C286.955 165.994 286.838 166.028 288.522 166.408C289.639 166.661 290.429 168.68 290.273 170.217C290.068 172.244 287.929 175.538 286.034 179.004C285.053 180.798 283.192 181.037 280.822 178.526C280.57 178.259 281.731 176.573 281.059 175.897C279.315 174.137 278.689 176.934 277.308 176.137C275.981 175.372 275.425 174.864 274.008 173.683C272.293 172.253 269.617 174.703 268.517 171.369C267.943 169.629 269.146 165.204 272.455 164.894Z" fill="black"/>
<path d="M295.895 319.961H281.396V267.195H273.824V319.961H259.326C254.702 319.961 250.955 323.708 250.955 328.332V329.583H304.265V328.332C304.265 323.708 300.518 319.961 295.895 319.961Z" fill="white"/>
<path d="M304.265 330H250.955C250.724 330 250.539 329.814 250.539 329.583V328.332C250.539 323.487 254.481 319.545 259.326 319.545H273.408V267.194C273.408 266.963 273.593 266.777 273.824 266.777H281.396C281.627 266.777 281.813 266.963 281.813 267.194V319.545H295.895C300.74 319.545 304.682 323.487 304.682 328.332V329.583C304.682 329.814 304.496 330 304.265 330ZM251.372 329.167H303.849V328.332C303.849 323.946 300.28 320.378 295.895 320.378H281.396C281.165 320.378 280.98 320.192 280.98 319.961V267.61H274.239V319.961C274.239 320.192 274.053 320.378 273.823 320.378H259.324C254.939 320.378 251.37 323.946 251.37 328.332V329.167H251.372Z" fill="black"/>
<path d="M300.221 211.068H296.41C286.252 211.068 277.465 218.207 275.294 228.225L270.86 248.683C269.823 253.471 265.623 256.882 260.767 256.882H252.758C248.573 256.882 245.179 260.309 245.179 264.534C245.179 268.759 248.573 272.185 252.758 272.185H265.765L265.758 272.221H288.642C296.65 272.221 303.578 266.591 305.29 258.695L312.321 226.248C314.01 218.449 308.126 211.068 300.217 211.068H300.221Z" fill="white"/>
<path d="M288.645 272.636H265.762C265.704 272.636 265.646 272.623 265.594 272.6H252.762C248.353 272.6 244.766 268.981 244.766 264.532C244.766 260.083 248.353 256.464 252.762 256.464H260.77C265.394 256.464 269.467 253.153 270.456 248.593L274.89 228.135C277.086 218.004 286.137 210.65 296.414 210.65H300.224C304.094 210.65 307.715 212.387 310.157 215.414C312.634 218.485 313.574 222.465 312.735 226.333L305.704 258.779C303.964 266.808 296.791 272.634 288.649 272.634L288.645 272.636ZM265.935 271.805H288.644C296.398 271.805 303.228 266.254 304.886 258.606L311.917 226.16C312.701 222.539 311.821 218.813 309.504 215.941C307.221 213.11 303.836 211.485 300.221 211.485H296.41C286.523 211.485 277.813 218.563 275.701 228.313L271.267 248.771C270.196 253.712 265.782 257.299 260.768 257.299H252.76C248.811 257.299 245.596 260.545 245.596 264.534C245.596 268.523 248.809 271.768 252.76 271.768H265.767C265.825 271.768 265.883 271.781 265.935 271.805Z" fill="black"/>
<path d="M194.344 262.505C191.962 273.415 201.408 303.261 203.388 310.535C203.647 311.488 204.518 312.149 205.512 312.149H214.312C215.536 312.149 216.525 311.161 216.514 309.946C216.433 301.317 214.864 269.853 220.245 260.796C223.359 255.552 229.065 253.187 232.88 250.692C242.037 244.701 238.59 231.44 238.59 231.44L204.005 251.968C199.215 252.686 195.37 257.807 194.344 262.507V262.505Z" fill="black"/>
<path d="M207.462 234.868C207.462 234.868 177.271 235.138 167.752 246.481C159.195 256.675 171.879 301.555 174.536 310.537C174.811 311.468 175.67 312.106 176.647 312.106H187.99C188.228 312.106 188.423 311.913 188.423 311.677V264.124C188.423 261.127 189.01 262.734 191.546 261.111C195.1 258.835 201.549 260.768 210.433 260.833C238.649 261.043 234.103 234.48 234.103 234.48L207.462 234.87V234.868Z" fill="black"/>
<path d="M214.39 312.191L214.983 319.893L207.931 319.929L206.474 312.245L214.39 312.191Z" fill="white"/>
<path d="M207.931 320.345C207.73 320.345 207.559 320.203 207.521 320.006L206.064 312.322C206.041 312.202 206.073 312.075 206.151 311.98C206.228 311.884 206.345 311.828 206.47 311.828L214.388 311.774H214.392C214.61 311.774 214.79 311.942 214.806 312.158L215.398 319.86C215.407 319.976 215.367 320.089 215.29 320.174C215.21 320.259 215.102 320.307 214.985 320.307L207.932 320.343H207.931V320.345ZM206.975 312.658L208.275 319.51L214.534 319.478L214.006 312.609L206.975 312.658Z" fill="black"/>
<path d="M186.506 312.191L186.398 319.893L179.127 319.929L177.834 312.245L186.506 312.191Z" fill="white"/>
<path d="M179.127 320.345C178.923 320.345 178.75 320.199 178.716 319.999L177.423 312.315C177.403 312.194 177.435 312.072 177.515 311.978C177.592 311.884 177.709 311.83 177.83 311.83L186.502 311.776C186.618 311.769 186.722 311.819 186.8 311.899C186.879 311.978 186.922 312.086 186.921 312.198L186.812 319.9C186.809 320.127 186.625 320.309 186.398 320.311L179.127 320.347H179.125L179.127 320.345ZM178.326 312.658L179.478 319.51L185.986 319.478L186.082 312.609L178.324 312.658H178.326Z" fill="black"/>
<path d="M179.232 318.946H185.994C186.474 318.946 186.906 319.231 187.088 319.673C187.689 321.121 188.91 324.505 188.746 327.715C188.701 328.592 187.967 329.279 187.081 329.279H167.236C166.324 329.279 165.629 328.451 165.813 327.564C166.032 326.5 166.787 325.102 168.964 323.845C172.487 321.809 176.914 319.775 178.31 319.146C178.6 319.016 178.912 318.948 179.232 318.948V318.946Z" fill="white"/>
<path d="M187.081 329.693H167.236C166.67 329.693 166.138 329.443 165.781 329.003C165.431 328.574 165.294 328.016 165.404 327.477C165.624 326.411 166.383 324.852 168.753 323.481C172.319 321.42 176.837 319.348 178.137 318.762C178.481 318.605 178.849 318.526 179.23 318.526H185.992C186.643 318.526 187.223 318.912 187.471 319.508C188.035 320.872 189.33 324.401 189.158 327.731C189.103 328.83 188.188 329.69 187.079 329.69L187.081 329.693ZM179.231 319.361C178.972 319.361 178.719 319.415 178.481 319.521C177.19 320.104 172.705 322.161 169.171 324.202C167.506 325.164 166.488 326.354 166.221 327.645C166.159 327.939 166.235 328.242 166.426 328.476C166.625 328.72 166.92 328.858 167.236 328.858H187.081C187.746 328.858 188.295 328.345 188.329 327.69C188.491 324.529 187.247 321.139 186.704 319.828C186.587 319.543 186.307 319.359 185.994 319.359H179.231V319.361Z" fill="black"/>
<path d="M208.173 318.946H214.935C215.414 318.946 215.847 319.231 216.029 319.673C216.63 321.121 217.851 324.505 217.687 327.715C217.642 328.592 216.908 329.279 216.022 329.279H196.177C195.265 329.279 194.57 328.451 194.754 327.564C194.973 326.5 195.728 325.102 197.905 323.845C201.428 321.809 205.855 319.775 207.251 319.146C207.541 319.016 207.853 318.948 208.173 318.948V318.946Z" fill="white"/>
<path d="M216.022 329.693H196.177C195.611 329.693 195.079 329.443 194.722 329.003C194.372 328.574 194.235 328.016 194.345 327.477C194.565 326.41 195.324 324.852 197.693 323.481C201.26 321.42 205.778 319.348 207.078 318.762C207.422 318.605 207.79 318.526 208.169 318.526H214.931C215.582 318.526 216.163 318.912 216.41 319.508C216.974 320.87 218.269 324.399 218.098 327.731C218.042 328.83 217.127 329.69 216.018 329.69L216.022 329.693ZM208.172 319.361C207.913 319.361 207.66 319.415 207.424 319.521C206.133 320.104 201.648 322.161 198.114 324.202C196.449 325.164 195.429 326.354 195.163 327.645C195.102 327.939 195.178 328.242 195.369 328.476C195.567 328.72 195.863 328.858 196.179 328.858H216.024C216.689 328.858 217.237 328.345 217.272 327.69C217.434 324.527 216.188 321.139 215.645 319.828C215.528 319.543 215.248 319.359 214.935 319.359H208.172V319.361Z" fill="black"/>
<path d="M179.596 220.052L176.018 218.716C174.502 218.15 172.839 218.168 171.34 218.783C169.469 219.549 166.93 220.792 165.189 222.438C164.753 222.851 165.022 223.608 165.61 223.608H179.43L179.596 220.052Z" fill="white"/>
<path d="M179.428 224.025H165.608C165.173 224.025 164.8 223.769 164.636 223.356C164.466 222.928 164.569 222.449 164.901 222.135C166.697 220.436 169.306 219.165 171.18 218.397C172.77 217.746 174.541 217.721 176.162 218.327L179.74 219.663C179.909 219.726 180.019 219.892 180.01 220.072L179.845 223.628C179.834 223.85 179.652 224.025 179.428 224.025ZM173.758 218.723C172.988 218.723 172.222 218.871 171.497 219.169C169.688 219.91 167.176 221.131 165.474 222.741C165.373 222.837 165.375 222.963 165.409 223.049C165.431 223.103 165.485 223.194 165.608 223.194H179.031L179.165 220.337L175.872 219.107C175.187 218.851 174.471 218.723 173.758 218.723Z" fill="black"/>
<path d="M240.503 204.133C240.503 204.133 240.889 190.262 231.321 188.587C231.326 188.574 231.332 188.56 231.335 188.545L221.201 187.972C221.201 187.972 214.687 187.07 208.688 192.235C203.276 196.893 202.086 208.839 198.625 211.88C195.625 214.516 182.708 217.942 179.323 218.808C178.844 218.931 178.51 219.362 178.512 219.854L178.523 223.13H199.004C201.862 223.13 204.594 221.976 206.58 219.933C207.775 218.702 209.249 217.19 210.873 215.486C210.854 216.539 210.969 218.283 211.712 220.225C213.209 224.142 212.495 228.58 209.627 231.655C208.425 232.944 207.065 234.102 205.626 234.798C205.626 234.798 206.542 239.127 213.214 239.423C215.926 239.544 223.091 239.802 228.419 239.501C235.695 239.088 241.066 237.748 241.066 237.748L240.503 204.133Z" fill="white"/>
<path d="M222.568 240.058C218.519 240.058 214.655 239.905 213.196 239.84C206.282 239.533 205.26 235.074 205.22 234.884C205.181 234.697 205.274 234.507 205.448 234.423C206.694 233.82 207.997 232.794 209.325 231.371C212.038 228.463 212.805 224.248 211.324 220.375C210.767 218.916 210.549 217.567 210.482 216.5C209.251 217.784 208.124 218.943 207.159 219.937L206.879 220.224C204.829 222.335 201.958 223.547 199.006 223.547H178.525C178.296 223.547 178.11 223.361 178.108 223.132L178.097 219.856C178.095 219.17 178.557 218.575 179.221 218.406C186.958 216.428 196.047 213.591 198.35 211.568C199.801 210.293 200.9 207.168 202.061 203.861C203.588 199.513 205.318 194.586 208.416 191.919C214.489 186.692 220.985 187.521 221.257 187.561L231.359 188.131C231.442 188.134 231.519 188.163 231.584 188.212C241.086 190.055 240.929 203.675 240.92 204.133L241.482 237.741C241.486 237.934 241.354 238.105 241.167 238.152C241.113 238.164 235.674 239.506 228.443 239.915C226.618 240.018 224.569 240.056 222.568 240.056V240.058ZM206.126 235.01C206.468 235.954 207.932 238.772 213.232 239.007C215.405 239.102 222.918 239.392 228.396 239.084C234.551 238.734 239.385 237.706 240.646 237.418L240.088 204.138V204.12C240.092 203.985 240.352 190.588 231.251 188.996C231.206 188.987 231.16 188.973 231.121 188.949L221.179 188.387C221.084 188.374 214.736 187.577 208.96 192.549C206.032 195.07 204.34 199.886 202.847 204.135C201.598 207.696 200.517 210.771 198.902 212.19C195.863 214.859 183.229 218.236 179.428 219.208C179.134 219.284 178.928 219.547 178.93 219.85L178.939 222.71H199.006C201.735 222.71 204.387 221.59 206.282 219.639L206.562 219.353C207.703 218.177 209.074 216.767 210.574 215.196C210.693 215.072 210.875 215.032 211.034 215.099C211.193 215.164 211.296 215.32 211.292 215.492C211.272 216.561 211.397 218.224 212.103 220.076C213.697 224.248 212.866 228.793 209.934 231.936C208.647 233.317 207.368 234.349 206.127 235.009L206.126 235.01Z" fill="black"/>
<path d="M210.432 217.08C210.331 217.08 210.228 217.043 210.148 216.969C209.981 216.812 209.97 216.548 210.127 216.381C212.778 213.528 214.832 210.239 216.233 206.607C216.316 206.392 216.557 206.284 216.77 206.369C216.985 206.452 217.091 206.692 217.008 206.906C215.569 210.639 213.459 214.017 210.736 216.949C210.653 217.037 210.543 217.082 210.432 217.082V217.08Z" fill="black"/>
<path d="M215.16 170.417C215.16 170.417 214.779 173.805 213.081 175.688C212.951 175.832 212.922 176.04 213.021 176.207L213.721 177.378C213.782 177.479 213.831 177.587 213.869 177.699L215.032 181.116C215.138 181.428 215.42 181.651 215.75 181.678C216.476 181.738 218.319 181.457 218.471 181.942C218.638 182.485 218.509 186.874 218.444 188.783C218.426 189.292 218.783 189.734 219.282 189.826L223.215 190.551C224.988 190.877 226.811 190.661 228.446 189.939C228.977 189.705 229.215 189.083 228.968 188.558C228.068 186.636 226.099 182.048 226.36 179.24L228.109 174.348C228.066 172.004 226.108 170.143 223.747 170.202L215.158 170.417H215.16Z" fill="white"/>
<path d="M224.849 191.117C224.281 191.117 223.711 191.065 223.143 190.96L219.21 190.235C218.501 190.103 218.005 189.487 218.031 188.769C218.175 184.526 218.155 182.577 218.088 182.133C217.839 182.041 217.069 182.072 216.644 182.088C216.292 182.102 215.96 182.115 215.719 182.095C215.225 182.054 214.801 181.724 214.64 181.251L213.479 177.834C213.45 177.749 213.412 177.668 213.367 177.592L212.666 176.422C212.475 176.101 212.518 175.695 212.774 175.41C214.364 173.647 214.745 170.404 214.749 170.372C214.772 170.165 214.943 170.008 215.152 170.002L223.742 169.788C225.018 169.759 226.194 170.217 227.101 171.086C227.999 171.946 228.508 173.104 228.531 174.343C228.531 174.393 228.524 174.444 228.506 174.491L226.775 179.332C226.551 182.055 228.499 186.564 229.35 188.385C229.516 188.74 229.532 189.137 229.393 189.505C229.254 189.874 228.98 190.165 228.618 190.323C227.418 190.852 226.14 191.119 224.849 191.119V191.117ZM217.387 181.233C218.137 181.233 218.718 181.33 218.869 181.817C219.006 182.261 219.002 184.609 218.86 188.796C218.849 189.099 219.06 189.36 219.36 189.415L223.292 190.139C224.982 190.451 226.706 190.249 228.28 189.557C228.435 189.488 228.553 189.364 228.612 189.207C228.67 189.052 228.664 188.883 228.594 188.733C227.709 186.839 225.678 182.122 225.949 179.201C225.952 179.167 225.96 179.132 225.972 179.098L227.694 174.28C227.656 173.291 227.243 172.372 226.524 171.683C225.779 170.969 224.793 170.59 223.761 170.615L215.524 170.821C215.372 171.771 214.844 174.354 213.391 175.964L214.08 177.159C214.153 177.284 214.217 177.419 214.265 177.56L215.427 180.979C215.481 181.136 215.621 181.247 215.785 181.26C215.977 181.276 216.285 181.264 216.61 181.251C216.88 181.24 217.143 181.229 217.387 181.229V181.233Z" fill="black"/>
<path d="M214.364 169.218C214.014 169.752 214.225 170.471 214.808 170.738L215.16 170.898L221.907 174.224C222.079 174.308 222.284 174.298 222.439 174.186C222.719 173.984 223.222 173.735 223.723 174.054C224.425 174.501 224.567 176.891 222.764 177.526C222.526 177.608 222.396 177.861 222.492 178.092C222.596 178.342 222.75 178.676 222.96 179.038C224.551 181.772 228.482 181.936 230.377 179.399C231.773 177.531 233.053 174.458 231.479 170.257C229.01 163.667 218.925 162.25 214.364 169.218Z" fill="black"/>
<path d="M230.796 167.689C230.796 167.689 233.741 164.194 238.049 165.55C242.357 166.904 242.577 174.197 243.076 178.741C244.836 194.749 248.744 200.577 250.006 202.023C251.407 203.628 240.395 202.539 236.685 201.275C225.992 197.63 231.622 187.334 232.125 185.48C232.628 183.626 236.613 173.25 231.658 172.038L229.144 169.899L230.796 167.689Z" fill="black"/>
<path d="M232.152 172.687L232.1 172.707C231.631 172.878 231.11 172.639 230.939 172.173L229.626 168.625C229.453 168.159 229.694 167.642 230.163 167.47L230.216 167.451C230.684 167.279 231.206 167.519 231.377 167.984L232.69 171.533C232.863 171.998 232.621 172.516 232.152 172.687Z" fill="white"/>
<path d="M231.921 173.369C231.381 173.369 230.875 173.039 230.678 172.508L229.365 168.96C229.243 168.631 229.257 168.274 229.405 167.955C229.553 167.634 229.818 167.391 230.15 167.27L230.204 167.25C230.885 167.001 231.646 167.351 231.897 168.031L233.21 171.58C233.333 171.91 233.318 172.265 233.17 172.584C233.022 172.903 232.757 173.147 232.426 173.268L232.371 173.287C232.222 173.342 232.068 173.369 231.919 173.369H231.921ZM230.658 168.002C230.602 168.002 230.545 168.011 230.489 168.033L230.435 168.053C230.314 168.098 230.215 168.186 230.161 168.305C230.106 168.42 230.101 168.552 230.146 168.671L231.459 172.22C231.553 172.471 231.834 172.599 232.088 172.507L232.141 172.487C232.263 172.442 232.361 172.353 232.416 172.234C232.471 172.119 232.476 171.987 232.431 171.868L231.118 168.319C231.046 168.125 230.858 168.002 230.658 168.002Z" fill="black"/>
<path d="M234.697 319.961H220.198V267.195H212.626V319.961H198.128C193.505 319.961 189.757 323.708 189.757 328.332V329.583H243.068V328.332C243.068 323.708 239.32 319.961 234.697 319.961Z" fill="white"/>
<path d="M243.068 330H189.757C189.527 330 189.341 329.814 189.341 329.583V328.332C189.341 323.486 193.283 319.545 198.128 319.545H212.21V267.194C212.21 266.963 212.396 266.777 212.627 266.777H220.199C220.429 266.777 220.615 266.963 220.615 267.194V319.545H234.697C239.542 319.545 243.484 323.486 243.484 328.332V329.583C243.484 329.814 243.299 330 243.068 330ZM190.174 329.167H242.651V328.332C242.651 323.946 239.082 320.378 234.697 320.378H220.199C219.968 320.378 219.782 320.192 219.782 319.961V267.61H213.041V319.961C213.041 320.192 212.856 320.378 212.625 320.378H198.126C193.741 320.378 190.172 323.946 190.172 328.332V329.167H190.174Z" fill="black"/>
<path d="M239.023 211.068H235.213C225.055 211.068 216.267 218.207 214.096 228.225L209.662 248.683C208.625 253.471 204.425 256.882 199.569 256.882H191.561C187.375 256.882 183.981 260.309 183.981 264.534C183.981 268.759 187.375 272.185 191.561 272.185H204.568L204.56 272.221H227.444C235.452 272.221 242.381 266.591 244.092 258.695L251.123 226.248C252.813 218.449 246.928 211.068 239.019 211.068H239.023Z" fill="white"/>
<path d="M227.448 272.636H204.564C204.506 272.636 204.449 272.623 204.396 272.6H191.564C187.155 272.6 183.568 268.981 183.568 264.532C183.568 260.083 187.155 256.464 191.564 256.464H199.572C204.196 256.464 208.27 253.153 209.258 248.593L213.69 228.135C215.887 218.004 224.937 210.65 235.214 210.65H239.025C242.894 210.65 246.515 212.386 248.957 215.414C251.435 218.485 252.374 222.465 251.536 226.333L244.505 258.779C242.765 266.808 235.591 272.634 227.449 272.634L227.448 272.636ZM204.737 271.805H227.446C235.2 271.805 242.031 266.254 243.688 258.606L250.719 226.16C251.503 222.539 250.623 218.813 248.306 215.941C246.023 213.11 242.638 211.485 239.023 211.485H235.212C225.325 211.485 216.615 218.563 214.504 228.313L210.071 248.771C209 253.712 204.584 257.299 199.572 257.299H191.564C187.615 257.299 184.4 260.545 184.4 264.534C184.4 268.523 187.613 271.768 191.564 271.768H204.571C204.629 271.768 204.687 271.781 204.739 271.805H204.737Z" fill="black"/>
<path d="M317.046 205.938C317.015 205.938 316.984 205.934 316.952 205.927C316.728 205.877 316.587 205.653 316.638 205.429C323.328 176.175 317.925 153.502 312.215 139.635C306.024 124.605 298.149 116.385 298.07 116.304C297.909 116.138 297.913 115.875 298.079 115.716C298.245 115.556 298.508 115.559 298.666 115.725C298.746 115.808 306.715 124.116 312.968 139.282C318.735 153.268 324.192 176.128 317.449 205.615C317.406 205.808 317.235 205.938 317.044 205.938H317.046Z" fill="black"/>
<path d="M298.369 248.043C298.32 248.043 298.269 248.034 298.221 248.016C298.006 247.935 297.898 247.693 297.979 247.478C310.606 214.276 312.907 192.522 312.611 180.119C312.294 166.693 308.95 161.04 308.918 160.986C308.799 160.789 308.86 160.533 309.057 160.414C309.251 160.295 309.509 160.357 309.628 160.553C309.769 160.784 313.1 166.383 313.44 179.985C313.752 192.475 311.459 214.372 298.756 247.776C298.693 247.942 298.535 248.045 298.367 248.045L298.369 248.043Z" fill="black"/>
<path d="M42.02 38.0293C41.9118 38.0293 41.8036 37.9878 41.7224 37.9031C41.5619 37.739 41.5655 37.4757 41.7314 37.3152C42.0128 37.0411 70.2377 9.84765 100.978 4.06273C101.205 4.02306 101.422 4.16912 101.463 4.39453C101.507 4.61994 101.357 4.83814 101.131 4.87961C70.6416 10.6194 42.5916 37.6398 42.3121 37.9121C42.231 37.9914 42.1264 38.0293 42.0218 38.0293H42.02Z" fill="black"/>
<path d="M26.6001 44.8962C26.5045 44.8962 26.4071 44.8637 26.3296 44.7952C26.1546 44.6455 26.1348 44.3822 26.2845 44.2091C46.9194 20.175 68.3676 11.6473 68.5822 11.5644C68.7968 11.4796 69.0384 11.586 69.1214 11.8006C69.2043 12.0152 69.0979 12.255 68.8851 12.3398C68.6724 12.4227 47.4081 20.8855 26.9174 44.7519C26.8345 44.8475 26.7191 44.8962 26.6019 44.8962H26.6001Z" fill="black"/>
</svg>
