<svg width="262" height="121" viewBox="0 0 262 121" fill="none" xmlns="http://www.w3.org/2000/svg">
<g clip-path="url(#clip0_1636_51464)">
<path d="M149.474 113.486H110.415C109.998 113.486 109.789 113.28 109.58 112.869L109.371 112.048C109.371 111.637 109.58 111.226 109.998 111.226C114.219 110.198 117.166 106.705 117.166 102.39C117.166 97.4585 112.944 93.3489 107.887 93.3489H106.403C105.985 93.3489 105.567 93.1435 105.567 92.7325L100.928 69.5133C100.928 69.3078 100.928 69.1024 101.137 68.8969C101.346 68.6914 101.555 68.6914 101.764 68.6914H156.224C156.433 68.6914 156.642 68.6914 156.851 68.8969C157.06 69.1024 157.06 69.3078 157.06 69.5133L155.994 76.2941C155.994 76.4996 155.785 76.7051 155.576 76.9106C155.367 77.1161 154.949 76.9106 154.74 76.9106C153.257 75.8832 151.585 75.4722 149.683 75.4722C144.626 75.4722 140.404 79.5818 140.404 84.5133C140.404 89.4448 144.626 93.5544 149.683 93.5544C150.519 93.5544 151.376 93.5544 152.003 93.3489C152.212 93.3489 152.63 93.3489 152.63 93.5544C152.839 93.7599 152.839 93.9654 152.839 94.1709L150.101 112.869C150.101 113.28 149.683 113.486 149.474 113.486ZM112.756 111.842H148.847L151.585 94.7873C150.958 94.7873 150.54 94.9928 149.892 94.9928C143.978 94.9928 138.92 90.2667 138.92 84.5133C138.92 78.7599 143.769 74.0339 149.892 74.0339C151.585 74.0339 153.277 74.4448 154.74 75.0613L155.576 70.3352H103.038L107.26 91.9106H108.096C114.01 91.9106 119.067 96.6366 119.067 102.39C118.858 106.5 116.539 110.198 112.735 111.842H112.756Z" fill="#010101"/>
<path d="M158.544 70.13H100.092C99.6739 70.13 99.465 69.9245 99.256 69.719L95.0137 58.6231V58.0067C95.0137 57.8012 95.4316 57.5957 95.6406 57.5957H162.535C162.744 57.5957 162.953 57.8012 163.162 58.0067C163.371 58.2121 163.371 58.4176 163.162 58.6231L158.941 69.719C158.941 69.9245 158.732 70.13 158.523 70.13H158.544ZM100.51 68.6916H157.917L161.511 59.2395H96.9154L100.51 68.6916Z" fill="#010101"/>
<path d="M138.063 50.6095C135.534 50.6095 133.006 50.404 130.038 49.7876C129.829 49.7876 129.411 49.5821 129.411 49.1711C127.509 39.5136 128.993 31.9109 133.841 27.1848C137.227 23.8972 142.284 22.0479 148.407 22.0479C150.936 22.0479 153.465 22.2533 156.432 22.8698C156.641 22.8698 157.059 23.0752 157.059 23.4862C158.961 33.1437 157.477 40.7465 152.629 45.4725C149.243 48.7602 144.395 50.6095 138.063 50.6095ZM130.895 48.3492C133.423 48.7602 135.743 48.9657 138.063 48.9657C143.977 48.9657 148.407 47.3218 151.563 44.2396C155.993 39.9246 157.268 32.9383 155.575 24.1026C153.047 23.6917 150.727 23.4862 148.407 23.4862C142.493 23.4862 138.063 25.13 134.907 28.2122C130.686 32.5273 129.202 39.3081 130.895 48.3492Z" fill="#010101"/>
<path d="M123.08 50.6092C118.649 50.6092 115.264 49.3764 112.944 47.1161C109.559 43.8284 108.514 38.486 109.789 31.9106C109.789 31.7051 109.998 31.2942 110.416 31.2942C112.317 30.8832 114.219 30.6777 115.912 30.6777C120.342 30.6777 123.728 31.9106 126.047 34.1709C129.433 37.4586 130.478 42.801 129.203 49.3764C129.203 49.5818 128.994 49.9928 128.576 49.9928C126.674 50.6092 124.773 50.6092 123.08 50.6092ZM111.272 32.7325C110.228 38.6914 111.063 43.212 114.01 46.0887C116.121 48.1435 119.297 49.1709 123.08 49.1709C124.564 49.1709 126.026 48.9654 127.719 48.7599C128.764 42.801 127.928 38.2805 124.982 35.4038C122.871 33.349 119.715 32.3216 115.912 32.3216C114.428 32.3216 112.756 32.3216 111.272 32.7325Z" fill="#010101"/>
<path d="M130.269 49.7879C130.06 49.7879 129.851 49.7879 129.642 49.5824C129.433 49.3769 129.224 48.7605 129.642 48.555L147.154 30.8838C147.363 30.6783 147.99 30.4728 148.199 30.8838C148.408 31.0892 148.617 31.7057 148.199 31.9111L130.687 49.5824C130.687 49.5824 130.478 49.7879 130.269 49.7879Z" fill="#010101"/>
<path d="M129.203 59.0345C128.785 59.0345 128.367 58.6236 128.367 58.2126V19.1715C128.367 18.7606 128.785 18.3496 129.203 18.3496C129.621 18.3496 130.039 18.7606 130.039 19.1715V58.2126C129.83 58.8291 129.621 59.0345 129.203 59.0345Z" fill="#010101"/>
<path d="M141.031 38.6916C140.613 38.6916 140.195 38.4861 140.195 38.0752L139.359 28.4176C139.359 28.0067 139.568 27.5957 139.986 27.5957C140.404 27.5957 140.822 27.8012 140.822 28.2121L141.658 37.8697C141.867 38.2806 141.658 38.6916 141.031 38.6916Z" fill="#010101"/>
<path d="M134.49 45.4728C134.072 45.4728 133.863 45.2673 133.654 44.8564C133.654 44.4454 133.863 44.0345 134.281 44.0345L145.044 42.3906C145.462 42.3906 145.88 42.5961 145.88 43.0071C145.88 43.418 145.671 43.829 145.253 43.829L134.49 45.4728Z" fill="#010101"/>
<path d="M128.368 50.1992C128.159 50.1992 127.95 50.1992 127.741 49.9937L115.704 37.6649C115.495 37.4594 115.495 36.843 115.704 36.6375C115.913 36.432 116.54 36.432 116.749 36.6375L128.786 48.9663C128.995 49.1718 128.995 49.7882 128.786 49.9937C128.786 49.9937 128.577 50.1992 128.368 50.1992Z" fill="#010101"/>
<path d="M115.076 43.0066C114.658 43.0066 114.449 42.8011 114.24 42.5956C114.031 42.1846 114.24 41.7737 114.658 41.5682L119.089 39.9244C119.507 39.7189 119.924 39.9244 120.133 40.3353C120.342 40.7463 120.133 41.1572 119.715 41.3627L115.285 43.0066H115.076Z" fill="#010101"/>
<path d="M124.355 46.0889C123.937 46.0889 123.52 45.6779 123.52 45.2669L123.937 38.6916C123.937 38.2806 124.355 37.8697 124.773 38.0752C125.191 38.0752 125.609 38.4861 125.4 38.8971L124.982 45.4724C125.191 45.8834 124.773 46.0889 124.355 46.0889Z" fill="#010101"/>
<path d="M103.665 31.7052C101.763 31.7052 100.279 30.2669 100.279 28.4176C100.279 26.5682 101.763 25.1299 103.665 25.1299C105.567 25.1299 107.05 26.5682 107.05 28.4176C107.05 30.2669 105.567 31.7052 103.665 31.7052ZM103.665 26.9792C102.829 26.9792 101.972 27.8011 101.972 28.623C101.972 29.6504 102.808 30.2669 103.665 30.2669C104.71 30.2669 105.358 29.445 105.358 28.623C105.567 27.5956 104.731 26.9792 103.665 26.9792Z" fill="#010101"/>
<path d="M154.532 14.6505C152.63 14.6505 151.146 13.2122 151.146 11.3629C151.146 9.51355 152.63 8.0752 154.532 8.0752C156.434 8.0752 157.917 9.51355 157.917 11.3629C157.708 13.2122 156.225 14.6505 154.532 14.6505ZM154.532 9.71903C153.487 9.71903 152.839 10.5409 152.839 11.3629C152.839 12.3903 153.675 13.0067 154.532 13.0067C155.389 13.0067 156.225 12.1848 156.225 11.3629C156.225 10.3355 155.389 9.71903 154.532 9.71903Z" fill="#010101"/>
<path d="M125.42 21.0205C122.265 21.0205 119.715 20.1986 117.813 18.3493C115.285 15.8835 114.428 11.9794 115.494 7.04791C115.494 6.84243 115.703 6.43147 116.12 6.43147C117.604 6.22599 118.858 6.02051 120.133 6.02051C123.309 6.02051 125.838 6.84243 127.74 8.69174C130.268 11.1575 131.125 15.0616 130.06 19.9931C130.06 20.1986 129.851 20.6095 129.433 20.6095C127.949 20.815 126.695 21.0205 125.42 21.0205ZM117.186 7.86982C116.35 11.9794 117.186 15.2671 119.088 17.1164C120.572 18.5548 122.682 19.3767 125.42 19.3767C126.465 19.3767 127.531 19.3767 128.576 19.1712C129.412 15.0616 128.576 11.7739 126.674 9.92462C125.19 8.48626 123.08 7.66434 120.342 7.66434C119.297 7.66434 118.231 7.86982 117.186 7.86982Z" fill="#010101"/>
<path d="M129.204 20.61C128.995 20.61 128.786 20.61 128.577 20.4045L122.454 14.2401C122.245 14.0346 122.245 13.4182 122.454 13.2127C122.663 13.0072 123.29 13.0072 123.499 13.2127L129.622 19.3771C129.831 19.5826 129.831 20.199 129.622 20.4045C129.622 20.61 129.413 20.61 129.204 20.61Z" fill="#010101"/>
<path d="M131.522 7.048C129.62 7.048 128.137 5.60964 128.137 3.76033C128.137 1.91101 129.62 0.472656 131.522 0.472656C133.424 0.472656 134.908 1.91101 134.908 3.76033C134.699 5.60964 133.215 7.048 131.522 7.048ZM131.522 2.32197C130.477 2.32197 129.829 3.14389 129.829 3.96581C129.829 4.9932 130.665 5.60964 131.522 5.60964C132.567 5.60964 133.215 4.78772 133.215 3.96581C133.215 2.93841 132.379 2.32197 131.522 2.32197Z" fill="#010101"/>
<path d="M149.891 94.9931C143.977 94.9931 138.92 90.2671 138.92 84.5136C138.92 78.7602 143.768 74.0342 149.891 74.0342C156.015 74.0342 160.654 78.7602 160.654 84.5136C160.654 90.2671 155.806 94.9931 149.891 94.9931ZM149.891 75.4725C144.834 75.4725 140.613 79.5821 140.613 84.5136C140.613 89.4451 144.834 93.5547 149.891 93.5547C154.949 93.5547 159.17 89.4451 159.17 84.5136C159.17 79.5821 154.949 75.4725 149.891 75.4725Z" fill="#010101"/>
<path d="M150.31 87.5958C150.728 87.5958 150.937 87.3903 151.146 87.1848C151.355 86.9793 151.355 86.5684 151.355 86.3629C151.355 86.1574 151.355 85.7465 151.146 85.541C150.937 85.3355 150.728 85.13 150.31 85.13V87.5958ZM149.474 80.815C149.265 80.815 149.056 81.0204 148.847 81.2259C148.638 81.4314 148.638 81.6369 148.638 81.8424C148.638 82.0478 148.638 82.2533 148.847 82.4588C149.056 82.6643 149.265 82.8698 149.474 82.8698V80.815ZM149.474 87.3903V84.7191C148.638 84.5136 147.99 84.1026 147.572 83.6917C147.154 83.2807 146.945 82.6643 146.945 81.8424C146.945 81.2259 147.154 80.6095 147.572 79.993C147.99 79.5821 148.617 79.1711 149.474 79.1711V78.5547H150.519V79.1711C151.146 79.1711 151.794 79.5821 152.212 79.7876C152.63 80.1985 152.839 80.6095 153.048 81.2259L151.355 81.4314C151.355 81.0204 150.937 80.6095 150.519 80.404V82.8698C151.564 83.0752 152.212 83.4862 152.63 83.8972C153.048 84.3081 153.257 84.9246 153.257 85.541C153.257 86.3629 153.048 86.9793 152.63 87.5958C152.212 88.2122 151.585 88.4177 150.519 88.6232V90.267H149.474V89.0341C148.638 89.0341 148.199 88.6232 147.572 88.2122C147.154 87.8013 146.736 86.9793 146.736 86.1574L148.429 85.9519C148.429 86.3629 148.638 86.5684 148.847 86.7739C148.847 87.1848 149.056 87.3903 149.474 87.3903Z" fill="#010101"/>
<path d="M108.097 112.87C102.182 112.87 97.125 108.144 97.125 102.391C97.125 96.6372 101.973 91.9111 108.097 91.9111C114.22 91.9111 119.068 96.6372 119.068 102.391C118.859 108.144 114.011 112.87 108.097 112.87ZM108.097 93.3495C103.039 93.3495 98.8177 97.4591 98.8177 102.391C98.8177 107.322 103.039 111.432 108.097 111.432C113.154 111.432 117.375 107.322 117.375 102.391C117.375 97.4591 113.154 93.3495 108.097 93.3495Z" fill="#010101"/>
<path d="M108.534 105.473C108.952 105.473 109.161 105.267 109.37 105.062C109.579 104.856 109.579 104.445 109.579 104.24C109.579 104.034 109.579 103.623 109.37 103.418C109.161 103.212 108.952 103.007 108.534 103.007V105.473ZM107.468 98.6919C107.259 98.6919 107.05 98.8974 106.841 99.1029C106.632 99.3084 106.632 99.5138 106.632 99.7193C106.632 99.9248 106.632 100.13 106.841 100.336C107.05 100.541 107.259 100.747 107.468 100.747V98.6919ZM107.468 105.473V102.596C106.632 102.391 105.984 101.98 105.566 101.569C105.148 101.158 104.939 100.541 104.939 99.7193C104.939 99.1029 105.148 98.4864 105.566 97.87C105.984 97.459 106.611 97.0481 107.468 97.0481V96.4316H108.534V97.0481C109.161 97.0481 109.809 97.459 110.227 97.6645C110.645 98.0755 110.854 98.4864 111.063 99.1029L109.37 99.3083C109.37 98.8974 108.952 98.4864 108.534 98.281V100.747C109.579 100.952 110.227 101.363 110.645 101.774C111.063 102.185 111.272 102.801 111.272 103.418C111.272 104.24 111.063 104.856 110.645 105.473C110.227 106.089 109.6 106.295 108.534 106.5V107.733H107.468V106.5C106.632 106.5 106.193 106.089 105.566 105.678C105.148 105.267 104.73 104.651 104.73 103.829L106.423 103.623C106.423 104.034 106.632 104.24 106.841 104.445C107.05 105.062 107.259 105.267 107.468 105.473Z" fill="#010101"/>
<path d="M133.216 78.3489H103.666C103.248 78.3489 102.83 77.938 102.83 77.527C102.83 77.116 103.248 76.7051 103.666 76.7051H133.216C133.634 76.7051 134.052 77.116 134.052 77.527C134.052 77.938 133.634 78.3489 133.216 78.3489Z" fill="#010101"/>
<path d="M150.311 107.939H125.191C124.773 107.939 124.355 107.528 124.355 107.117C124.355 106.706 124.773 106.295 125.191 106.295H150.311C150.729 106.295 151.147 106.706 151.147 107.117C150.938 107.528 150.729 107.939 150.311 107.939Z" fill="#010101"/>
<path d="M145.671 117.596H97.125C96.707 117.596 96.2891 117.185 96.2891 116.774C96.2891 116.363 96.707 115.952 97.125 115.952H145.462C145.88 115.952 146.298 116.363 146.298 116.774C146.298 117.185 146.089 117.596 145.671 117.596Z" fill="#010101"/>
<path d="M158.963 120.473H125.609C125.191 120.473 124.773 120.062 124.773 119.651C124.773 119.24 125.191 118.829 125.609 118.829H158.963C159.381 118.829 159.799 119.24 159.799 119.651C159.799 120.062 159.381 120.473 158.963 120.473Z" fill="#010101"/>
<path d="M166.569 120.473H162.348C161.93 120.473 161.512 120.062 161.512 119.651C161.512 119.24 161.93 118.829 162.348 118.829H166.569C166.987 118.829 167.405 119.24 167.405 119.651C167.405 120.062 166.987 120.473 166.569 120.473Z" fill="#010101"/>
<path d="M111.272 120.267H95.4316C95.0137 120.267 94.5957 119.856 94.5957 119.445C94.5957 119.034 95.0137 118.623 95.4316 118.623H111.251C111.669 118.623 112.087 119.034 112.087 119.445C111.878 119.856 111.669 120.267 111.251 120.267H111.272Z" fill="#010101"/>
</g>
<defs>
<clipPath id="clip0_1636_51464">
<rect width="72.809" height="120" fill="white" transform="translate(94.5957 0.472656)"/>
</clipPath>
</defs>
</svg>
