<svg width="449" height="468" viewBox="0 0 449 468" fill="none" xmlns="http://www.w3.org/2000/svg">
<rect width="449" height="468" fill="#F7F7F7"/>
<path d="M165.504 22.708L429.348 22C435.251 22 440.097 26.1962 439.82 31.0676L437.007 279.974C436.763 284.271 432.586 287.565 427.381 287.565H415.803L413.337 286.311L81.9449 287.521C76.042 287.521 71.1144 282.891 71.391 278.017L74.2697 30.2987C74.5135 26.0017 78.4988 22.2391 83.7054 22.2391L165.501 22.708H165.504Z" fill="black"/>
<path d="M154.445 22.872H417.626C423.515 22.872 428.349 27.0659 428.075 31.9373L425.344 279.895C425.102 284.189 420.934 287.483 415.742 287.483H71.1538C65.265 287.483 60.4312 283.289 60.7055 278.418L63.4389 30.4628C63.6803 26.1681 67.8484 22.8744 73.041 22.8744H154.445V22.872Z" fill="white"/>
<path d="M415.739 288.003H71.1563C67.8087 288.003 64.6745 286.716 62.5553 284.475C60.9072 282.734 60.068 280.572 60.1922 278.392L62.921 30.4558C63.1812 25.8282 67.5321 22.354 73.0411 22.354H417.627C420.974 22.354 424.108 23.641 426.228 25.8821C427.876 27.6239 428.715 29.7853 428.591 31.9655L425.86 279.899C425.599 284.527 421.248 288.001 415.739 288.001V288.003ZM73.0411 23.3925C68.0901 23.3925 64.1845 26.4447 63.9571 30.4909L61.2261 278.425C61.1182 280.34 61.8567 282.227 63.3078 283.76C65.2324 285.798 68.0924 286.965 71.1563 286.965H415.742C420.693 286.965 424.598 283.913 424.826 279.867L427.557 31.9326C427.665 30.0174 426.926 28.1303 425.475 26.5971C423.551 24.5599 420.691 23.3925 417.627 23.3925H73.0411Z" fill="black"/>
<path d="M61.9268 184.964H61.9221C61.6361 184.961 61.4064 184.727 61.4087 184.441L62.1003 100.324C62.1003 100.038 62.3347 99.8107 62.6183 99.8107H62.623C62.909 99.8107 63.1388 100.047 63.1364 100.333L62.4449 184.45C62.4449 184.736 62.2104 184.964 61.9268 184.964Z" fill="black"/>
<path d="M405.605 50.9492H359.226C357.257 50.9492 355.607 49.2801 355.618 47.2969C355.628 45.4684 357.058 44.036 358.877 44.036H405.256C407.225 44.036 408.875 45.7051 408.863 47.6884C408.854 49.5169 407.424 50.9492 405.605 50.9492Z" fill="black"/>
<path d="M404.801 93.7132H384.753C382.784 93.7132 381.133 92.0441 381.145 90.0609C381.154 88.2324 382.584 86.8 384.404 86.8H404.452C406.421 86.8 408.071 88.4691 408.06 90.4524C408.05 92.2809 406.62 93.7132 404.801 93.7132Z" fill="black"/>
<path d="M405.347 64.9773H344.483C342.514 64.9773 340.863 63.3082 340.875 61.325C340.884 59.4964 342.314 58.0641 344.134 58.0641H404.998C406.967 58.0641 408.617 59.7332 408.605 61.7164C408.596 63.545 407.166 64.9773 405.347 64.9773Z" fill="black"/>
<path d="M405.15 79.0288H344.286C342.317 79.0288 340.667 77.3597 340.678 75.3765C340.688 73.5479 342.118 72.1156 343.937 72.1156H404.801C406.77 72.1156 408.42 73.7847 408.409 75.7679C408.399 77.5965 406.969 79.0288 405.15 79.0288Z" fill="black"/>
<path d="M101.789 235.68L102.48 173.913H80.4466L79.7598 235.68H101.789Z" fill="white"/>
<path d="M128.201 236.198H106.172C106.034 236.198 105.901 236.141 105.802 236.043C105.704 235.944 105.652 235.808 105.654 235.67L107.129 150.365C107.134 150.081 107.366 149.856 107.647 149.856H129.681C129.819 149.856 129.953 149.912 130.051 150.011C130.15 150.109 130.201 150.245 130.199 150.384L128.722 235.689C128.717 235.973 128.485 236.198 128.204 236.198H128.201ZM106.7 235.161H127.693L129.151 150.892H108.156L106.7 235.161Z" fill="black"/>
<path d="M154.617 236.198H132.588C132.449 236.198 132.316 236.141 132.217 236.043C132.119 235.944 132.067 235.811 132.067 235.67L133.291 156.875C133.296 156.591 133.526 156.364 133.809 156.364H155.843C155.981 156.364 156.115 156.42 156.213 156.518C156.312 156.617 156.363 156.751 156.363 156.891L155.135 235.687C155.13 235.97 154.9 236.198 154.617 236.198ZM133.113 235.161H154.106L155.318 157.402H134.323L133.115 235.161H133.113Z" fill="black"/>
<path d="M181.03 236.198H159.001C158.862 236.198 158.729 236.141 158.63 236.043C158.532 235.944 158.48 235.808 158.482 235.67L160.358 127.827C160.363 127.543 160.595 127.318 160.876 127.318H182.91C183.048 127.318 183.182 127.375 183.28 127.473C183.379 127.572 183.43 127.707 183.428 127.846L181.548 235.689C181.543 235.973 181.311 236.198 181.03 236.198ZM159.528 235.161H180.521L182.382 128.354H161.387L159.528 235.161Z" fill="black"/>
<path d="M207.443 236.198H185.414C185.275 236.198 185.142 236.141 185.043 236.043C184.947 235.944 184.893 235.811 184.893 235.67L187.038 99.7803C187.043 99.4967 187.272 99.2693 187.556 99.2693H209.59C209.728 99.2693 209.862 99.3255 209.96 99.424C210.059 99.5224 210.11 99.6561 210.11 99.7967L207.963 235.687C207.958 235.97 207.729 236.198 207.445 236.198H207.443ZM185.941 235.161H206.934L209.065 100.31H188.07L185.941 235.161Z" fill="black"/>
<path d="M233.858 236.198H211.829C211.69 236.198 211.557 236.141 211.458 236.043C211.36 235.944 211.308 235.809 211.311 235.67L213.934 108.295C213.939 108.013 214.171 107.786 214.452 107.786H236.486C236.624 107.786 236.758 107.842 236.856 107.941C236.955 108.039 237.006 108.175 237.004 108.313L234.378 235.689C234.373 235.97 234.141 236.198 233.86 236.198H233.858ZM212.356 235.161H233.349L235.954 108.824H214.958L212.356 235.161Z" fill="black"/>
<path d="M260.767 236.198H238.738C238.598 236.198 238.466 236.141 238.368 236.043C238.27 235.944 238.218 235.808 238.22 235.67L241.418 87.2596C241.425 86.9783 241.655 86.7533 241.936 86.7533H263.97C264.11 86.7533 264.242 86.8095 264.34 86.908C264.439 87.0088 264.49 87.1424 264.488 87.2831L261.285 235.694C261.278 235.975 261.049 236.2 260.767 236.2V236.198ZM239.268 235.161H260.261L263.44 87.7894H242.445L239.268 235.161Z" fill="black"/>
<path d="M287.672 236.137H265.643C265.502 236.137 265.369 236.08 265.273 235.98C265.174 235.879 265.123 235.745 265.125 235.605L268.974 79.8494C268.981 79.5681 269.211 79.343 269.492 79.343H291.526C291.667 79.343 291.8 79.3993 291.897 79.5001C291.995 79.6009 292.047 79.7345 292.044 79.8752L288.19 235.63C288.183 235.912 287.953 236.137 287.672 236.137ZM266.175 235.098H287.168L290.996 80.3792H270.001L266.178 235.098H266.175Z" fill="black"/>
<path d="M314.584 236.137H292.555C292.415 236.137 292.281 236.08 292.185 235.98C292.086 235.879 292.035 235.745 292.037 235.604L294.644 121.561C294.651 121.28 294.881 121.054 295.162 121.054H317.196C317.336 121.054 317.47 121.111 317.566 121.212C317.665 121.312 317.716 121.446 317.714 121.587L315.105 235.63C315.098 235.912 314.868 236.137 314.587 236.137H314.584ZM293.085 235.098H314.078L316.664 122.093H295.668L293.085 235.098Z" fill="black"/>
<path d="M341.504 236.198H319.475C319.334 236.198 319.201 236.141 319.102 236.041C319.004 235.94 318.952 235.804 318.957 235.663L321.822 146.576C321.831 146.297 322.061 146.075 322.34 146.075H344.373C344.514 146.075 344.648 146.131 344.746 146.232C344.844 146.333 344.896 146.469 344.891 146.609L342.022 235.696C342.013 235.975 341.783 236.198 341.504 236.198ZM320.009 235.161H341.002L343.836 147.111H322.841L320.009 235.161Z" fill="black"/>
<path d="M368.416 236.198H346.387C346.246 236.198 346.113 236.141 346.016 236.041C345.918 235.94 345.866 235.806 345.869 235.665L347.765 158.373C347.772 158.091 348.002 157.866 348.283 157.866H370.317C370.458 157.866 370.591 157.923 370.687 158.023C370.786 158.124 370.837 158.258 370.835 158.399L368.936 235.691C368.929 235.973 368.7 236.198 368.418 236.198H368.416ZM346.919 235.161H367.912L369.785 158.905H348.79L346.919 235.161Z" fill="black"/>
<path d="M395.328 236.198H373.299C373.158 236.198 373.025 236.141 372.929 236.041C372.83 235.94 372.778 235.806 372.781 235.665L374.83 155.367C374.837 155.086 375.066 154.861 375.348 154.861H397.382C397.522 154.861 397.656 154.917 397.752 155.018C397.85 155.119 397.902 155.253 397.9 155.393L395.848 235.691C395.841 235.973 395.612 236.198 395.33 236.198H395.328ZM373.831 235.161H394.824L396.849 155.9H375.854L373.831 235.161Z" fill="black"/>
<path d="M225.181 95.4903C225.052 95.4903 224.931 95.4434 224.834 95.3567L208.558 80.691C208.345 80.4987 208.328 80.1705 208.521 79.9596C208.713 79.7462 209.041 79.7298 209.252 79.9221L225.139 94.2361L264.202 49.8616C264.293 49.7584 264.422 49.6951 264.56 49.6858C264.696 49.6764 264.835 49.7256 264.938 49.817L285.666 68.4938L310.66 40.0977C310.85 39.882 311.176 39.861 311.392 40.0508C311.607 40.2407 311.628 40.5689 311.439 40.7822L286.097 69.5721C286.006 69.6753 285.877 69.7386 285.738 69.7479C285.598 69.755 285.464 69.7081 285.361 69.6167L264.633 50.9399L225.571 95.3145C225.479 95.4176 225.35 95.4809 225.212 95.4903C225.202 95.4903 225.191 95.4903 225.181 95.4903Z" fill="black"/>
<path d="M139.309 143.756C139.18 143.756 139.058 143.709 138.962 143.623L116.026 122.958C115.812 122.766 115.796 122.438 115.988 122.227C116.18 122.013 116.508 121.997 116.719 122.189L139.267 142.502L193.871 80.4706C194.061 80.2549 194.387 80.2338 194.603 80.4237C194.819 80.6136 194.84 80.9418 194.65 81.1551L139.698 143.58C139.606 143.684 139.478 143.747 139.339 143.756C139.33 143.756 139.318 143.756 139.309 143.756Z" fill="black"/>
<path d="M119.178 125.326C120.539 123.945 120.386 121.586 118.835 120.059C117.285 118.532 114.925 118.413 113.564 119.795C112.202 121.177 112.356 123.535 113.906 125.062C115.457 126.59 117.817 126.708 119.178 125.326Z" fill="black"/>
<path d="M228.078 97.5733C229.439 96.1916 229.285 93.8334 227.735 92.3061C226.184 90.7787 223.824 90.6606 222.463 92.0423C221.102 93.4239 221.255 95.7822 222.806 97.3095C224.356 98.8368 226.717 98.955 228.078 97.5733Z" fill="black"/>
<path d="M261.213 49.7819C260.976 47.7236 262.446 46.0522 264.494 46.0522C266.543 46.0522 268.395 47.7213 268.632 49.7819C268.869 51.8401 267.399 53.5116 265.35 53.5116C263.301 53.5116 261.449 51.8425 261.213 49.7819Z" fill="black"/>
<path d="M282.489 68.9509C282.252 66.8927 283.722 65.2212 285.771 65.2212C287.82 65.2212 289.672 66.8903 289.908 68.9509C290.145 71.0092 288.675 72.6806 286.627 72.6806C284.578 72.6806 282.726 71.0115 282.489 68.9509Z" fill="black"/>
<path d="M313.118 44.2988C314.479 42.9172 314.325 40.559 312.775 39.0316C311.224 37.5043 308.864 37.3862 307.503 38.7678C306.142 40.1495 306.295 42.5077 307.846 44.035C309.396 45.5624 311.757 45.6805 313.118 44.2988Z" fill="black"/>
<path d="M142.411 145.558C143.772 144.176 143.618 141.818 142.068 140.29C140.517 138.763 138.157 138.645 136.796 140.027C135.435 141.408 135.588 143.767 137.139 145.294C138.689 146.821 141.05 146.939 142.411 145.558Z" fill="black"/>
<path d="M203.814 76.2189C205.176 74.8372 205.022 72.479 203.472 70.9516C201.921 69.4243 199.561 69.3062 198.2 70.6878C196.839 72.0695 196.992 74.4277 198.543 75.9551C200.093 77.4824 202.453 77.6005 203.814 76.2189Z" fill="black"/>
<path d="M180.015 267.428H81.8744C79.6075 267.428 77.6501 265.773 77.6805 263.881L77.8235 254.591C77.8493 252.973 79.3332 251.749 81.2719 251.749H179.412C181.679 251.749 183.636 253.405 183.606 255.296L183.463 264.587C183.437 266.204 181.953 267.428 180.015 267.428Z" fill="black"/>
<path d="M88.6281 111.41C93.1572 111.176 97.9184 115.536 96.8306 122.18C95.9422 127.607 90.1073 128.767 87.2192 131.456C77.8796 140.156 74.7922 168.631 61.1392 176.067C50.2455 182.001 30.9686 179.762 21.1344 166.282C11.7832 153.466 10.9486 135.364 22.3394 127.649C32.5791 120.712 38.5452 130.349 49.3781 123.947C60.0562 117.634 57.8971 110.435 64.4376 107.978C73.3833 104.617 75.7956 112.078 88.6304 111.413L88.6281 111.41Z" fill="black"/>
<path d="M105.075 182.247C109.869 211.604 110.425 212.035 111.074 215.111C111.074 215.111 112.976 223.757 113.503 232.083C113.96 239.311 112.6 282.71 90.1705 292.265C82.0711 295.716 79.7222 289.372 62.4731 290.062C44.7973 290.767 41.213 297.057 33.5003 294.853C16.8092 290.085 11.3564 254.272 12.2754 232.14C13.0232 214.115 21.9947 197.098 39.933 163.059C42.6664 157.876 47.0384 149.957 54.0853 148.949C57.3157 148.487 58.6074 148.982 71.5735 152.543C85.6789 156.415 89.261 152.296 95.3162 156.111C101.573 160.054 102.675 167.553 105.075 182.244V182.247Z" fill="white"/>
<path d="M36.7121 295.84C35.6501 295.84 34.553 295.695 33.3575 295.353C23.7296 292.601 18.4855 280.124 15.7825 270.145C12.7397 258.907 11.2347 244.691 11.7574 232.121C12.5099 213.979 21.5213 196.882 39.476 162.82C41.9257 158.169 46.4877 149.514 54.0128 148.438C57.0462 148.004 58.3356 148.358 68.3596 151.122L71.7119 152.046C78.7893 153.989 83.1144 153.9 86.5933 153.83C90.0089 153.759 92.4751 153.71 95.5929 155.675C101.915 159.66 103.092 166.875 105.436 181.25L105.587 182.165C109.576 206.594 110.617 210.931 111.239 213.524C111.363 214.042 111.471 214.487 111.578 215.005C111.597 215.088 113.494 223.78 114.019 232.053C114.638 241.833 112.376 283.371 90.3699 292.746C86.1221 294.556 83.3559 293.768 79.5277 292.678C75.7159 291.593 70.9688 290.245 62.4896 290.582C53.5158 290.941 48.3068 292.715 44.1223 294.141C41.3584 295.083 39.129 295.843 36.7074 295.843L36.7121 295.84ZM55.8835 149.322C55.3138 149.322 54.7723 149.373 54.1604 149.462C47.1581 150.463 42.7579 158.814 40.3926 163.3C22.5129 197.224 13.5367 214.253 12.7936 232.161C11.8348 255.238 17.6697 289.79 33.6411 294.354C37.2489 295.386 39.8511 294.499 43.7918 293.156C47.8145 291.785 53.3259 289.907 62.4521 289.544C71.1001 289.199 76.1356 290.631 79.8137 291.679C83.5716 292.748 86.0541 293.456 89.9644 291.789C101.604 286.831 107.237 272.407 109.914 261.18C112.847 248.882 113.248 236.289 112.985 232.116C112.467 223.925 110.587 215.308 110.568 215.221C110.46 214.708 110.355 214.272 110.233 213.763C109.607 211.159 108.561 206.798 104.564 182.329L104.414 181.415C102.119 167.347 100.968 160.286 95.042 156.549C92.1867 154.751 89.9714 154.795 86.6167 154.863C83.0746 154.936 78.6627 155.025 71.44 153.042L68.0854 152.118C60.3868 149.997 57.937 149.322 55.8835 149.322Z" fill="black"/>
<path d="M79.3282 352.227V366.424L72.4971 366.009L71.1538 352.227H79.3282Z" fill="white"/>
<path d="M79.3284 366.942C79.3284 366.942 79.3073 366.942 79.2979 366.942L72.4667 366.527C72.2112 366.51 72.0072 366.314 71.9814 366.06L70.6382 352.281C70.6241 352.135 70.671 351.99 70.7695 351.882C70.8679 351.774 71.0062 351.711 71.1539 351.711H79.3284C79.6144 351.711 79.8465 351.943 79.8465 352.229V366.426C79.8465 366.569 79.7878 366.705 79.6824 366.803C79.5862 366.895 79.4597 366.944 79.326 366.944L79.3284 366.942ZM72.9707 365.516L78.8103 365.873V352.745H71.7259L72.9707 365.516Z" fill="black"/>
<path d="M71.4725 384.125C74.2528 384.423 78.8054 384.615 84.1105 383.703C85.8499 383.403 86.9517 381.671 86.4735 379.973C85.1419 375.243 82.5164 366.424 80.4229 362.202L79.1617 364.504L78.1537 362.073C77.9802 361.784 77.6825 361.597 77.3473 361.564L73.7207 361.585C72.6447 361.58 72.565 362.169 72.422 362.614L71.7023 364.504L70.7083 361.944L68.8446 380.885C68.6852 382.503 69.855 383.954 71.4702 384.128L71.4725 384.125Z" fill="white"/>
<path d="M76.2222 384.892C74.3421 384.892 72.7129 384.779 71.4188 384.641C69.5294 384.439 68.1439 382.73 68.3315 380.832L70.1951 361.89C70.2186 361.651 70.4038 361.459 70.6406 361.426C70.8797 361.393 71.1071 361.529 71.1938 361.752L71.7002 363.055L71.9604 362.352C72.0963 361.902 72.3472 361.065 73.7115 361.065H73.7233L77.3451 361.044C77.8937 361.093 78.3438 361.377 78.5993 361.803C78.6134 361.824 78.6228 361.848 78.6345 361.871L79.2276 363.304L79.9684 361.949C80.0621 361.78 80.2403 361.67 80.4349 361.679C80.6271 361.684 80.8029 361.794 80.8897 361.967C83.1027 366.435 85.8829 375.948 86.9754 379.831C87.2426 380.778 87.0926 381.8 86.5675 382.632C86.04 383.469 85.1773 384.043 84.1998 384.212C81.2601 384.718 78.5477 384.889 76.2222 384.889V384.892ZM71.529 383.61C74.3609 383.912 78.8244 384.088 84.0239 383.192C84.7108 383.075 85.318 382.669 85.6907 382.081C86.0658 381.488 86.1666 380.789 85.9767 380.114C84.964 376.509 82.4861 368.02 80.3903 363.346L79.6191 364.752C79.523 364.928 79.3354 365.031 79.1362 365.022C78.9369 365.01 78.7611 364.886 78.6861 364.703L77.6944 362.314C77.6054 362.183 77.46 362.099 77.3006 362.082L73.7256 362.106C73.1161 362.108 73.0716 362.265 72.9543 362.654L72.9168 362.774L72.1878 364.691C72.1104 364.893 71.9205 365.024 71.7048 365.027C71.4915 365.027 71.2993 364.895 71.2219 364.696L71.0133 364.161L69.3629 380.939C69.2317 382.273 70.2022 383.474 71.529 383.614V383.61Z" fill="black"/>
<path d="M77.0145 381.676C73.4301 381.676 70.9733 380.918 70.8209 380.871C70.549 380.785 70.3966 380.494 70.4833 380.222C70.5701 379.95 70.8608 379.798 71.1327 379.882C71.1866 379.899 76.6042 381.558 83.0041 379.875C83.2807 379.802 83.5643 379.969 83.637 380.246C83.7097 380.522 83.5432 380.806 83.2666 380.878C80.9927 381.476 78.8547 381.676 77.0145 381.676Z" fill="black"/>
<path d="M80.4229 374.3H74.1895C73.9035 374.3 73.6714 374.068 73.6714 373.782C73.6714 373.496 73.9035 373.264 74.1895 373.264H80.4229C80.7089 373.264 80.9409 373.496 80.9409 373.782C80.9409 374.068 80.7089 374.3 80.4229 374.3Z" fill="black"/>
<path d="M29.0836 344.716L27.0628 361.831L20.6606 361.608V344.716H29.0836Z" fill="white"/>
<path d="M27.0627 362.352C27.0627 362.352 27.051 362.352 27.044 362.352L20.6418 362.129C20.3628 362.12 20.1401 361.89 20.1401 361.611V344.718C20.1401 344.432 20.3722 344.2 20.6582 344.2H29.0788C29.2265 344.2 29.3672 344.263 29.4656 344.374C29.5641 344.484 29.611 344.631 29.5922 344.779L27.5738 361.895C27.5433 362.157 27.3206 362.352 27.0581 362.352H27.0627ZM21.1786 361.109L26.6033 361.297L28.4974 345.234H21.1786V361.109Z" fill="black"/>
<path d="M28.5869 357.748C28.5869 357.748 29.4098 365.35 29.1566 368.407C28.9737 370.594 25.9731 377.203 24.2782 380.785C23.5819 382.259 22.2551 383.204 20.7805 383.267C18.9848 383.345 16.4858 383.436 14.4721 383.438C11.7012 383.441 9.79297 380.29 10.7846 377.353C11.6989 374.643 13.1476 371.244 15.4286 367.626C17.1469 364.902 19.6553 357.499 19.6553 357.499H24.8736L25.898 361.831L28.5893 357.748H28.5869Z" fill="white"/>
<path d="M14.4696 383.956C13.1099 383.956 11.844 383.279 10.9954 382.1C9.98967 380.703 9.72712 378.867 10.2944 377.189C11.4408 373.785 13.0208 370.477 14.9923 367.35C16.6568 364.708 19.1417 357.405 19.1651 357.333C19.2354 357.122 19.4347 356.981 19.6574 356.981H24.8734C25.1149 356.981 25.3235 357.147 25.3774 357.38L26.1252 360.542L28.1554 357.462C28.2749 357.279 28.4953 357.192 28.711 357.244C28.9243 357.295 29.0813 357.473 29.1048 357.691C29.1376 358.003 29.93 365.378 29.6744 368.449C29.4963 370.592 26.8965 376.46 24.7491 381.007C23.9732 382.648 22.4611 383.715 20.8061 383.785C19.0409 383.863 16.5091 383.954 14.4742 383.956H14.4696ZM20.0255 358.017C19.498 359.541 17.4022 365.47 15.8667 367.903C13.9398 370.958 12.3949 374.193 11.2743 377.519C10.8149 378.881 11.0258 380.367 11.8346 381.495C12.4863 382.4 13.4451 382.92 14.4672 382.92H14.4696C16.4856 382.92 19.001 382.827 20.7569 382.752C22.0275 382.695 23.1972 381.858 23.8068 380.567C26.7488 374.343 28.5093 369.896 28.6359 368.367C28.8164 366.196 28.4343 361.604 28.2116 359.255L26.3245 362.117C26.2096 362.291 26.0057 362.38 25.8017 362.342C25.5978 362.307 25.436 362.152 25.3868 361.951L24.4561 358.017H20.0208H20.0255Z" fill="black"/>
<path d="M18.4476 380.698H18.4452L13.9419 380.691C13.6559 380.691 13.4238 380.459 13.4238 380.173C13.4238 379.887 13.6559 379.655 13.9419 379.655L18.4452 379.662C19.894 379.662 21.474 377.575 21.9616 376.771L24.899 371.084C25.0303 370.831 25.3444 370.73 25.5976 370.861C25.8531 370.993 25.9516 371.307 25.8203 371.56L22.8642 377.278C22.7634 377.447 20.7754 380.698 18.4429 380.698H18.4476Z" fill="black"/>
<path d="M20.9606 374.514H15.25C14.964 374.514 14.7319 374.282 14.7319 373.996C14.7319 373.71 14.964 373.478 15.25 373.478H20.9606C21.2466 373.478 21.4787 373.71 21.4787 373.996C21.4787 374.282 21.2466 374.514 20.9606 374.514Z" fill="black"/>
<path d="M90.3015 210.298C90.3015 210.298 89.6217 262.535 87.4251 296.544C85.2309 330.552 80.9011 356.552 80.9011 356.552C80.9011 356.552 73.451 359.229 68.5609 357.827C68.5609 357.827 64.5123 327.997 63.591 317.912C62.6721 307.829 65.1148 302.824 65.3187 294.572C65.525 286.32 61.7625 249.883 61.7625 249.883C61.7625 249.883 33.6782 332.256 30.4643 350.45C30.4643 350.45 23.6612 351.603 18.8695 348.982C18.8695 348.982 18.7195 316.589 19.3993 311.584C20.6606 302.311 27.902 293.182 29.203 283.331C30.5041 273.483 31.259 248.763 34.841 233.935C38.423 219.108 45.4511 202.452 45.4511 202.452L90.2992 210.296L90.3015 210.298Z" fill="black"/>
<path d="M43.8926 229.697C43.6886 229.697 43.494 229.575 43.412 229.376C43.3042 229.111 43.4308 228.809 43.6957 228.698C47.2683 227.233 50.269 224.833 52.6156 221.56C52.782 221.328 53.1055 221.274 53.34 221.441C53.572 221.607 53.6259 221.93 53.4595 222.165C51.0004 225.599 47.8473 228.122 44.0895 229.659C44.0262 229.685 43.9582 229.699 43.8926 229.699V229.697Z" fill="white"/>
<path d="M86.2581 229.493C86.1315 229.493 86.0026 229.446 85.9017 229.352C82.6479 226.286 82.1533 224.34 81.4687 221.647L81.2812 220.913C81.2085 220.636 81.375 220.353 81.6516 220.28C81.9282 220.207 82.2119 220.374 82.2846 220.65L82.4744 221.389C83.1402 224.007 83.5786 225.738 86.6144 228.595C86.823 228.792 86.8324 229.12 86.6355 229.329C86.5324 229.437 86.3964 229.493 86.2581 229.493Z" fill="white"/>
<path d="M166.957 172.835C164.997 173.221 161.298 175.156 160.82 175.652C157.053 179.574 154.823 173.463 154.823 173.463C154.823 173.463 161.605 169.358 165.443 168.767C172.844 167.626 171.055 172.024 166.955 172.835H166.957Z" fill="white"/>
<path d="M158.363 177.483C158.175 177.483 157.988 177.465 157.8 177.425C155.569 176.954 154.387 173.775 154.338 173.639C154.253 173.407 154.345 173.146 154.556 173.017C154.837 172.849 161.471 168.854 165.365 168.254C170.091 167.525 170.886 169.058 171.008 169.752C171.266 171.224 169.456 172.867 167.055 173.343C165.154 173.718 161.551 175.638 161.192 176.011C160.25 176.991 159.301 177.486 158.361 177.486L158.363 177.483ZM155.477 173.681C155.897 174.605 156.827 176.161 158.018 176.412C158.766 176.569 159.584 176.194 160.449 175.294C161.019 174.701 164.859 172.722 166.859 172.326C168.921 171.918 170.11 170.615 169.99 169.932C169.906 169.447 168.87 168.765 165.527 169.281C162.346 169.771 156.954 172.821 155.48 173.681H155.477Z" fill="black"/>
<path d="M154.268 175.99C154.104 175.99 153.944 175.913 153.843 175.77C153.679 175.535 153.736 175.212 153.97 175.048L206.73 138.046C206.964 137.882 207.288 137.938 207.452 138.172C207.616 138.407 207.56 138.73 207.325 138.895L154.565 175.896C154.474 175.96 154.371 175.99 154.268 175.99Z" fill="black"/>
<path d="M160.738 167.162C159.645 168.294 157.573 169.323 156.033 169.644C155.365 169.783 154.65 169.869 153.951 169.844C148.44 169.637 149.746 177.43 137.984 179.272C137.572 179.338 136.976 186.429 136.995 188.274C141.805 186.228 148.168 181.717 151.168 182.552C156.706 184.09 158.534 181.232 159.692 179.915C162.737 176.454 158.623 173.076 158.623 173.076C158.623 173.076 159.324 172.954 161.511 171.768C164.854 169.956 165.602 162.119 160.735 167.164L160.738 167.162Z" fill="white"/>
<path d="M136.998 188.792C136.899 188.792 136.798 188.764 136.714 188.708C136.569 188.614 136.482 188.452 136.479 188.279C136.47 187.339 136.613 185.093 136.815 183.053C137.227 178.867 137.483 178.824 137.907 178.759C144.455 177.732 146.794 174.851 148.677 172.535C150.118 170.76 151.358 169.222 153.975 169.323C154.563 169.347 155.222 169.281 155.932 169.133C157.465 168.814 159.413 167.79 160.37 166.798C161.802 165.314 162.909 164.745 163.76 165.049C164.083 165.167 164.636 165.525 164.718 166.618C164.84 168.224 163.776 171.13 161.767 172.218C160.773 172.757 160.07 173.086 159.594 173.283C160.253 174 161.202 175.287 161.329 176.843C161.427 178.06 161.01 179.204 160.091 180.25C160.002 180.35 159.91 180.461 159.812 180.576C158.642 181.966 156.462 184.549 151.037 183.044C149.183 182.528 145.585 184.446 142.106 186.298C140.453 187.179 138.742 188.089 137.204 188.743C137.138 188.771 137.07 188.785 137 188.785L136.998 188.792ZM138.317 179.743C138.031 180.751 137.612 185.161 137.53 187.47C138.833 186.87 140.244 186.12 141.616 185.388C145.444 183.349 149.056 181.424 151.312 182.05C156.094 183.379 157.852 181.293 159.015 179.912C159.118 179.79 159.214 179.675 159.308 179.57C160.035 178.745 160.365 177.856 160.29 176.933C160.133 175.003 158.316 173.491 158.297 173.475C158.14 173.346 158.075 173.137 158.124 172.943C158.176 172.746 158.337 172.598 158.537 172.563C158.537 172.563 159.242 172.408 161.268 171.309C162.885 170.432 163.776 167.992 163.68 166.697C163.652 166.336 163.546 166.079 163.403 166.027C163.34 166.004 162.726 165.847 161.113 167.52C160.016 168.657 157.878 169.79 156.141 170.151C155.348 170.315 154.605 170.387 153.935 170.362C151.832 170.282 150.852 171.503 149.481 173.189C147.617 175.484 145.071 178.618 138.32 179.743H138.317Z" fill="black"/>
<path d="M154.378 179.331C154.333 179.331 154.286 179.324 154.239 179.312C153.025 178.977 152.545 178.199 152.357 177.603C151.909 176.192 152.636 174.436 153.555 173.32C154.45 172.23 155.468 171.693 156.567 171.707C158.572 171.742 160.063 173.658 160.126 173.74C160.299 173.967 160.257 174.291 160.03 174.467C159.802 174.64 159.477 174.598 159.303 174.373C159.291 174.356 158.047 172.769 156.546 172.746C155.784 172.739 155.041 173.149 154.357 173.981C153.482 175.043 153.067 176.405 153.349 177.291C153.513 177.807 153.895 178.142 154.518 178.313C154.795 178.388 154.957 178.674 154.879 178.951C154.816 179.181 154.607 179.333 154.38 179.333L154.378 179.331Z" fill="black"/>
<path d="M95.4123 152.571C95.4123 152.571 78.6508 150.173 62.1519 149.692C62.1519 149.692 40.4581 207.633 40.4604 211.274C40.4604 214.917 50.8502 223.18 61.1533 216.604C78.3367 205.633 89.0711 209.375 97.5409 211.353C110.233 214.319 95.4123 152.569 95.4123 152.569V152.571Z" fill="white"/>
<path d="M53.0585 219.589C49.6031 219.589 46.8415 218.379 45.4233 217.603C42.2491 215.864 39.9424 213.203 39.9424 211.276C39.9424 207.581 60.7805 151.882 61.6667 149.512C61.744 149.303 61.9456 149.167 62.1683 149.174C78.5078 149.65 95.3185 152.034 95.485 152.057C95.696 152.088 95.8671 152.243 95.9163 152.449C96.418 154.535 108.09 203.605 100.771 210.969C99.8758 211.869 98.7505 212.169 97.4237 211.86C96.8353 211.721 96.2351 211.576 95.6233 211.428C87.4324 209.433 77.2372 206.951 61.4299 217.043C58.4433 218.949 55.5692 219.589 53.0585 219.589ZM62.5083 150.222C56.3921 166.568 40.9785 208.385 40.9785 211.274C40.9785 212.607 42.8282 214.999 45.9202 216.691C48.2082 217.943 54.2424 220.4 60.872 216.166C77.0521 205.837 87.484 208.376 95.8671 210.418C96.4766 210.566 97.072 210.711 97.6581 210.847C98.6239 211.072 99.4022 210.873 100.035 210.235C106.646 203.582 96.0359 157.496 94.988 153.033C92.5148 152.693 77.3662 150.677 62.5083 150.22V150.222Z" fill="black"/>
<path d="M148.259 184.929C146.173 187.463 142.349 192.632 133.485 195.511C115.756 201.266 104.81 189.582 104.81 189.582L106.336 224.554C106.336 224.554 97.7705 229.629 97.7705 229.181C97.7705 228.734 94.0244 151.171 94.0244 151.171C94.0244 151.171 100.94 151.282 104.023 155.672C107.105 160.061 118.775 178.196 132.189 178.414C138.291 178.515 141.245 175.99 143.174 175.298L148.259 184.933V184.929Z" fill="white"/>
<path d="M96.6079 205.314C96.3337 205.314 96.1039 205.099 96.0898 204.82C94.9904 181.933 93.5065 151.192 93.5065 151.192C93.4994 151.049 93.5534 150.909 93.6518 150.806C93.7526 150.702 93.8933 150.644 94.0316 150.649C94.3246 150.653 101.247 150.817 104.445 155.37C104.63 155.635 104.848 155.949 105.094 156.305C108.744 161.594 119.854 177.69 132.196 177.891C136.739 177.964 139.419 176.578 141.379 175.566C141.986 175.252 142.511 174.98 142.996 174.806C143.24 174.719 143.51 174.825 143.629 175.052L148.714 184.687C148.812 184.872 148.789 185.097 148.655 185.259L148.29 185.707C146.145 188.34 142.155 193.241 133.64 196.005C130.117 197.149 126.847 197.609 123.872 197.609C114.279 197.609 107.722 192.836 105.38 190.82L105.889 202.468C105.901 202.754 105.68 202.996 105.394 203.01C105.122 203.024 104.867 202.801 104.853 202.515L104.29 189.606C104.281 189.39 104.407 189.188 104.607 189.106C104.806 189.022 105.038 189.071 105.186 189.228C105.293 189.343 116.131 200.598 133.321 195.018C141.545 192.348 145.411 187.601 147.488 185.051L147.638 184.868L142.933 175.953C142.609 176.098 142.251 176.283 141.855 176.487C139.913 177.49 136.974 179.007 132.177 178.927C119.3 178.716 107.964 162.29 104.239 156.894C103.995 156.54 103.779 156.228 103.594 155.965C101.191 152.543 96.2258 151.854 94.5661 151.718C94.7747 156.036 96.1109 183.724 97.1237 204.771C97.1377 205.057 96.9174 205.3 96.6314 205.314C96.622 205.314 96.615 205.314 96.6056 205.314H96.6079Z" fill="black"/>
<path d="M116.349 163.955H83.9373C82.9152 163.955 81.9471 164.813 81.7759 165.87L74.4196 211.278C74.2485 212.336 74.9377 213.194 75.9598 213.194H108.372C109.394 213.194 110.362 212.336 110.533 211.278L117.889 165.87C118.06 164.813 117.371 163.955 116.349 163.955Z" fill="white"/>
<path d="M108.372 213.714H75.9599C75.327 213.714 74.7643 213.461 74.3729 213.001C73.9673 212.525 73.7985 211.867 73.9063 211.196L81.2626 165.788C81.476 164.47 82.6504 163.436 83.9374 163.436H116.349C116.982 163.436 117.545 163.69 117.936 164.149C118.342 164.625 118.511 165.284 118.403 165.954L111.046 211.363C110.833 212.68 109.659 213.714 108.372 213.714ZM83.9374 164.473C83.1732 164.473 82.4184 165.15 82.2871 165.952L74.9308 211.36C74.8698 211.738 74.9519 212.08 75.1629 212.328C75.3528 212.551 75.6364 212.675 75.9599 212.675H108.372C109.136 212.675 109.891 211.998 110.022 211.196L117.378 165.788C117.439 165.41 117.357 165.068 117.146 164.82C116.956 164.597 116.673 164.473 116.349 164.473H83.9374Z" fill="black"/>
<path d="M79.1289 182.329L78.5898 185.761C78.5499 187.322 79.9565 188.525 81.492 188.243L89.9407 186.708C91.2418 186.471 92.4467 187.505 92.3693 188.825C92.3271 189.577 91.9872 190.452 91.0542 191.359C90.6182 191.783 83.1212 197.494 77.3637 196.458C77.1129 196.413 71.7187 199.447 71.5101 199.299C70.6052 198.652 69.9746 196.582 69.773 194.838C69.7566 194.688 74.2435 192.161 74.6959 190.77C75.1648 189.336 74.785 188.29 75.3523 185.843C76.0181 182.969 79.1289 182.329 79.1289 182.329Z" fill="white"/>
<path d="M71.4938 199.838C71.3695 199.838 71.2992 199.789 71.2078 199.721C70.0849 198.919 69.4566 196.622 69.2573 194.899C69.2151 194.54 69.3441 194.456 70.3333 193.806C71.4094 193.098 73.9318 191.443 74.2037 190.611C74.4077 189.983 74.4335 189.432 74.4663 188.733C74.5014 187.976 74.5436 187.034 74.8484 185.726C75.5821 182.563 78.8852 181.851 79.0259 181.82C79.1923 181.785 79.3658 181.837 79.4877 181.954C79.6119 182.071 79.6682 182.242 79.6424 182.409L79.1103 185.805C79.1056 186.38 79.3517 186.924 79.7901 187.299C80.2355 187.681 80.8216 187.84 81.4006 187.735L89.8493 186.199C90.637 186.056 91.434 186.279 92.0342 186.809C92.6226 187.329 92.9367 188.075 92.8898 188.855C92.8312 189.87 92.3366 190.839 91.4176 191.732C91.3497 191.797 83.63 198.017 77.3919 196.988C77.0543 197.124 75.9525 197.7 75.0547 198.171C72.537 199.489 71.8266 199.836 71.4984 199.836L71.4938 199.838ZM70.3216 195.058C70.5443 196.662 71.0788 198.139 71.6414 198.729C72.183 198.502 73.5942 197.764 74.5718 197.255C77.1669 195.897 77.2044 195.905 77.4552 195.949C82.8072 196.913 90.0416 191.622 90.6933 190.989C91.42 190.283 91.8091 189.545 91.8537 188.794C91.8795 188.335 91.6943 187.894 91.345 187.585C90.984 187.266 90.5057 187.132 90.0345 187.219L81.5858 188.755C80.6997 188.916 79.7995 188.672 79.1149 188.086C78.4304 187.5 78.0507 186.649 78.0741 185.747C78.0741 185.723 78.0764 185.702 78.0811 185.679L78.489 183.079C77.6193 183.438 76.255 184.258 75.8611 185.96C75.5798 187.177 75.5399 188.028 75.5048 188.78C75.4696 189.526 75.4415 190.17 75.193 190.932C74.839 192.018 72.8816 193.375 70.9077 194.671C70.7037 194.805 70.4787 194.953 70.3287 195.056L70.3216 195.058Z" fill="black"/>
<path d="M71.5947 192.423C67.872 193.028 67.3562 194.861 62.738 192.831C52.3295 188.258 54.2987 172.281 56.0686 164.327C56.432 162.691 56.8868 161.099 57.3791 159.601C58.2863 156.842 47.1112 154.289 45.1326 156.415C42.7391 158.985 40.2167 162.241 38.0389 166.231C31.5547 178.109 29.4448 204.693 51.1316 209.497C62.5552 212.026 71.6392 202.672 74.9071 198.645C75.6549 197.724 72.6566 192.252 71.5947 192.426V192.423Z" fill="white"/>
<path d="M55.0559 210.446C53.7502 210.446 52.4022 210.308 51.0191 210.001C36.3651 206.754 33.5239 194.214 33.1371 187.027C33.1207 186.741 33.341 186.497 33.627 186.481C33.9107 186.464 34.1568 186.685 34.1733 186.971C34.546 193.863 37.2583 205.889 51.2442 208.988C62.4146 211.461 71.2337 202.349 74.5063 198.317C74.5625 198.174 74.4641 197.351 73.7186 195.844C72.8442 194.076 71.9323 193.052 71.6393 192.944C70.5585 193.124 69.7451 193.415 69.0277 193.675C67.2883 194.301 65.9146 194.796 62.5295 193.309C52.8641 189.064 53.6002 175.397 54.8989 167.628C54.9458 167.347 55.2107 167.154 55.4967 167.201C55.778 167.248 55.9702 167.516 55.9233 167.799C54.6738 175.27 53.926 188.398 62.9491 192.36C65.9544 193.68 67.0375 193.291 68.6784 192.7C69.4474 192.423 70.3194 192.109 71.515 191.915C72.2277 191.8 73.1091 192.655 74.1523 194.456C74.6235 195.269 76.1027 198.003 75.3151 198.973C72.3214 202.663 64.8385 210.451 55.0606 210.451L55.0559 210.446Z" fill="black"/>
<path d="M80.0647 129.747C80.3859 129.939 80.7962 129.803 80.9392 129.454C81.612 127.801 82.6927 124.599 84.8986 124.09C87.7258 123.439 92.3041 122.595 92.698 124.831C93.0426 126.791 92.637 130.174 94.7 132.624C94.8969 132.858 94.7281 133.235 94.482 133.418L93.1832 134.513C92.909 134.722 92.6745 135.42 92.6417 135.762C92.5386 136.827 91.4461 140.526 91.0781 140.819C90.3607 141.389 86.7857 141.168 86.7857 141.168L84.8752 149.594C84.7673 149.969 84.9877 150.358 85.3628 150.454L88.776 151.614C88.776 151.614 86.0356 155.457 77.472 154.875C71.9981 154.505 67.9941 150.649 67.9941 150.649C67.9941 150.649 78.6347 149.136 80.0718 136.56C80.1023 136.283 79.985 136.009 79.7623 135.845C78.9137 135.207 76.6281 133.327 77.0266 131.423C77.4509 129.4 78.9629 129.093 80.0647 129.749V129.747Z" fill="white"/>
<path d="M79.1995 155.457C78.6393 155.457 78.0532 155.438 77.4366 155.396C71.8386 155.016 67.8017 151.188 67.6329 151.024C67.4899 150.885 67.4384 150.679 67.4993 150.491C67.5603 150.304 67.722 150.166 67.9189 150.137C68.3386 150.076 78.1821 148.515 79.5559 136.503C79.5676 136.409 79.5254 136.318 79.4504 136.259C78.1704 135.298 76.0864 133.376 76.52 131.315C76.8107 129.927 77.5281 129.348 78.079 129.107C78.7823 128.798 79.6027 128.87 80.3295 129.302C80.3599 129.32 80.3881 129.318 80.4045 129.311C80.4279 129.302 80.4467 129.285 80.4584 129.259L80.6413 128.8C81.382 126.934 82.5003 124.111 84.7812 123.584C88.7782 122.663 91.1084 122.613 92.3391 123.429C92.8173 123.746 93.1104 124.186 93.2065 124.74C93.2979 125.258 93.3378 125.863 93.3823 126.5C93.5042 128.319 93.6589 130.582 95.096 132.288C95.2554 132.478 95.3257 132.722 95.2976 132.98C95.2624 133.299 95.0702 133.624 94.7959 133.833L93.5183 134.911C93.3893 135.024 93.1877 135.516 93.1596 135.816C93.0776 136.667 92.0062 140.749 91.4038 141.227C90.6981 141.787 88.3726 141.761 87.1982 141.71L85.3837 149.708C85.3579 149.8 85.379 149.849 85.3907 149.872C85.4071 149.901 85.4376 149.936 85.4915 149.95L88.9446 151.122C89.0994 151.176 89.2213 151.298 89.2705 151.455C89.3221 151.612 89.2939 151.781 89.2002 151.914C89.09 152.069 86.584 155.454 79.2019 155.454L79.1995 155.457ZM69.1169 150.92C70.5023 152.003 73.646 154.099 77.507 154.359C83.7216 154.779 86.7387 152.824 87.8405 151.844L85.1938 150.944C84.9148 150.876 84.6499 150.674 84.4882 150.388C84.3264 150.105 84.2842 149.762 84.3757 149.448L86.2792 141.053C86.3355 140.805 86.5605 140.636 86.816 140.65C88.5695 140.758 90.3606 140.655 90.7286 140.432C91.0427 139.956 92.0226 136.775 92.1258 135.713C92.1633 135.319 92.4212 134.44 92.8713 134.1L94.1489 133.022C94.2028 132.98 94.238 132.933 94.2544 132.898C92.6439 130.943 92.4798 128.519 92.3485 126.568C92.3063 125.959 92.2688 125.382 92.1867 124.918C92.1399 124.648 92.0062 124.451 91.7671 124.292C90.8341 123.673 88.5602 123.774 85.0133 124.592C83.2645 124.995 82.2658 127.513 81.6047 129.18L81.4172 129.649C81.293 129.953 81.0445 130.188 80.7327 130.293C80.4232 130.396 80.081 130.361 79.7973 130.192C79.3636 129.935 78.8877 129.883 78.4939 130.056C78.0227 130.263 77.6898 130.771 77.5328 131.529C77.2069 133.083 79.1995 134.775 80.0716 135.429C80.4396 135.706 80.6366 136.163 80.585 136.62C79.3918 147.066 71.9112 150.135 69.1169 150.92Z" fill="black"/>
<path d="M298.334 358.559L254.347 398.128L132.511 397.753C132.384 397.753 132.321 397.614 132.41 397.535L176.24 358.109L298.166 358.188C298.381 358.188 298.487 358.423 298.337 358.559H298.334Z" fill="white"/>
<path d="M254.344 398.646L132.508 398.271C132.229 398.271 131.988 398.104 131.892 397.851C131.798 397.602 131.864 397.328 132.063 397.148L175.893 357.722C175.99 357.635 176.111 357.588 176.24 357.588L298.165 357.668C298.487 357.668 298.766 357.856 298.878 358.149C298.986 358.428 298.909 358.739 298.684 358.943L254.696 398.512C254.6 398.599 254.478 398.646 254.349 398.646H254.344ZM133.514 397.237L254.147 397.607L297.394 358.706L176.437 358.627L133.514 397.237Z" fill="black"/>
<path d="M298.529 358.223V410.758L254.679 450.224C254.555 450.334 254.344 450.257 254.344 450.1V398.128C254.344 398.128 297.898 358.252 298.529 358.223Z" fill="white"/>
<path d="M254.541 450.796C254.44 450.796 254.337 450.775 254.241 450.733C253.983 450.618 253.824 450.377 253.824 450.1V398.128C253.824 397.982 253.885 397.844 253.993 397.745C297.685 357.743 298.259 357.717 298.503 357.705C298.644 357.698 298.782 357.75 298.885 357.848C298.988 357.947 299.045 358.081 299.045 358.224V410.758C299.045 410.906 298.981 411.044 298.873 411.143L255.024 450.609C254.888 450.73 254.715 450.794 254.539 450.794L254.541 450.796ZM254.865 398.355V449.361L298.013 410.526V359.278C293.048 363.477 265.915 388.237 254.865 398.353V398.355Z" fill="black"/>
<path d="M254.344 450.482L132.351 450.112C132.611 450.346 132.445 397.839 132.445 397.839L254.344 398.13C254.344 398.13 254.344 450.62 254.344 450.484V450.482Z" fill="white"/>
<path d="M254.344 451L132.374 450.63C132.243 450.632 132.107 450.59 132.006 450.496C131.854 450.36 131.798 450.147 131.859 449.952C132.046 448.06 131.971 411.785 131.927 397.837C131.927 397.699 131.981 397.567 132.079 397.469C132.177 397.37 132.295 397.331 132.447 397.316L254.346 397.607C254.632 397.607 254.864 397.839 254.864 398.125V450.48C254.864 450.618 254.81 450.749 254.712 450.848C254.616 450.944 254.482 450.998 254.346 450.998L254.344 451ZM132.902 449.594L253.826 449.962V398.646L132.965 398.357C132.972 400.908 133.007 412.414 133.014 423.931C133.019 431.51 133.014 437.556 132.996 441.897C132.977 446.473 132.967 448.588 132.902 449.594Z" fill="black"/>
<path d="M216.451 428.767C216.308 428.767 216.168 428.708 216.065 428.596C215.872 428.383 215.891 428.054 216.104 427.865L227.209 417.876C227.423 417.683 227.751 417.702 227.941 417.915C228.133 418.129 228.114 418.457 227.901 418.647L216.796 428.636C216.698 428.725 216.573 428.769 216.449 428.769L216.451 428.767Z" fill="black"/>
<path d="M438.61 307.8L394.21 347.74L273.989 347.365C273.811 347.365 273.722 347.17 273.848 347.057L317.581 307.718L438.608 307.8H438.61Z" fill="white"/>
<path d="M394.21 348.258L273.989 347.883C273.687 347.883 273.424 347.702 273.319 347.428C273.218 347.161 273.288 346.865 273.504 346.673L317.236 307.334C317.332 307.247 317.454 307.2 317.583 307.2L438.613 307.282C438.828 307.282 439.02 307.416 439.096 307.615C439.173 307.817 439.119 308.042 438.957 308.187L394.557 348.127C394.461 348.213 394.339 348.26 394.21 348.26V348.258ZM274.857 346.851L394.013 347.222L437.26 308.321L317.782 308.241L274.859 346.851H274.857Z" fill="black"/>
<path d="M438.61 307.838V410.062L394.882 449.417C394.714 449.57 394.425 449.462 394.425 449.246V347.74C394.425 347.74 437.979 307.864 438.61 307.836V307.838Z" fill="white"/>
<path d="M394.693 450.008C394.58 450.008 394.467 449.985 394.362 449.938C394.081 449.814 393.907 449.549 393.907 449.249V347.742C393.907 347.597 393.968 347.458 394.076 347.36C437.768 307.358 438.343 307.332 438.587 307.32C438.727 307.313 438.865 307.365 438.969 307.463C439.072 307.561 439.128 307.697 439.128 307.838V410.062C439.128 410.21 439.065 410.348 438.957 410.446L395.229 449.804C395.079 449.938 394.889 450.008 394.695 450.008H394.693ZM394.943 347.97V448.665L438.092 409.83V308.893C433.127 313.092 405.994 337.852 394.943 347.967V347.97Z" fill="black"/>
<path d="M394.425 449.493L273.696 449.122C273.956 449.357 273.79 347.452 273.79 347.452L394.428 347.742C394.428 347.742 394.428 449.629 394.428 449.493H394.425Z" fill="white"/>
<path d="M394.425 450.011L273.712 449.64C273.574 449.645 273.452 449.598 273.351 449.507C273.208 449.378 273.15 449.178 273.194 448.993C273.384 446.696 273.328 381.694 273.272 347.449C273.272 347.311 273.326 347.18 273.424 347.081C273.52 346.985 273.654 346.929 273.79 346.929L394.428 347.219C394.714 347.219 394.946 347.451 394.946 347.737V449.488C394.946 449.626 394.892 449.757 394.794 449.856C394.697 449.952 394.564 450.008 394.428 450.008L394.425 450.011ZM274.235 448.604L393.905 448.97V348.256L274.305 347.967C274.313 351.704 274.348 374.966 274.357 398.24C274.362 412.99 274.357 424.746 274.338 433.186C274.329 437.956 274.313 441.932 274.294 444.722C274.28 446.776 274.27 447.936 274.238 448.602L274.235 448.604Z" fill="black"/>
<path d="M325.061 409.86C324.918 409.86 324.778 409.802 324.674 409.689C324.482 409.476 324.501 409.148 324.714 408.958L359.674 377.512C359.888 377.32 360.216 377.338 360.406 377.552C360.598 377.765 360.579 378.093 360.366 378.283L325.406 409.729C325.307 409.818 325.183 409.863 325.059 409.863L325.061 409.86Z" fill="black"/>
<path d="M323.828 386.183C323.685 386.183 323.544 386.125 323.441 386.012C323.249 385.799 323.268 385.471 323.481 385.281L334.586 375.292C334.799 375.1 335.127 375.118 335.317 375.332C335.509 375.545 335.491 375.873 335.277 376.063L324.172 386.052C324.074 386.141 323.95 386.186 323.825 386.186L323.828 386.183Z" fill="black"/>
<path d="M418.487 205.193H287.368C285.438 205.193 283.933 206.859 284.128 208.779L296.644 332.17C296.691 332.641 297.094 332.995 297.565 332.985L304.338 332.842C304.617 332.835 304.835 332.596 304.816 332.317L296.573 217.582C296.438 215.695 297.933 214.089 299.827 214.091L406.243 214.227C408.139 214.23 409.63 215.845 409.487 217.734L400.731 331.877C400.687 332.47 401.146 332.978 401.739 332.995L407.649 333.157C408.074 333.168 408.435 332.852 408.479 332.432L421.727 208.8C421.933 206.876 420.423 205.195 418.487 205.195V205.193Z" fill="white"/>
<path d="M407.67 333.672C407.659 333.672 407.647 333.672 407.635 333.672L401.725 333.51C401.294 333.499 400.9 333.316 400.612 332.997C400.323 332.678 400.183 332.266 400.216 331.834L408.971 217.692C409.03 216.923 408.774 216.189 408.252 215.622C407.729 215.055 407.016 214.745 406.245 214.743L299.83 214.607H299.825C299.056 214.607 298.346 214.917 297.821 215.479C297.295 216.042 297.038 216.776 297.092 217.542L305.334 332.277C305.353 332.552 305.259 332.826 305.074 333.027C304.889 333.229 304.624 333.351 304.349 333.356L297.577 333.499C296.843 333.517 296.203 332.952 296.128 332.216L283.612 208.826C283.504 207.767 283.853 206.705 284.568 205.912C285.283 205.122 286.303 204.667 287.37 204.667H418.489C419.558 204.667 420.583 205.125 421.298 205.919C422.013 206.714 422.357 207.781 422.245 208.845L408.997 332.477C408.925 333.149 408.348 333.665 407.673 333.665L407.67 333.672ZM299.825 213.571H299.83L406.245 213.707C407.293 213.707 408.301 214.15 409.011 214.919C409.722 215.688 410.085 216.729 410.005 217.772L401.249 331.914C401.238 332.057 401.285 332.195 401.381 332.303C401.477 332.411 401.608 332.472 401.753 332.474L407.663 332.636C407.83 332.636 407.947 332.526 407.963 332.373L421.211 208.742C421.293 207.97 421.042 207.197 420.524 206.62C420.006 206.043 419.263 205.713 418.487 205.713H287.368C286.594 205.713 285.853 206.041 285.335 206.616C284.817 207.19 284.564 207.959 284.641 208.728L297.157 332.118C297.178 332.317 297.366 332.465 297.551 332.467L304.324 332.324L296.053 217.622C295.978 216.579 296.344 215.542 297.056 214.776C297.769 214.012 298.775 213.573 299.818 213.573L299.825 213.571Z" fill="black"/>
<path d="M394.735 212.399C394.449 212.399 394.217 212.167 394.217 211.881V206.301C394.217 206.015 394.449 205.783 394.735 205.783C395.021 205.783 395.253 206.015 395.253 206.301V211.881C395.253 212.167 395.021 212.399 394.735 212.399Z" fill="white"/>
<path d="M329.189 310.724L326.636 323.433C326.55 323.862 326.151 324.152 325.776 324.058L318.317 322.162C317.995 322.08 317.806 321.74 317.876 321.37L320.026 310.014L329.189 310.727V310.724Z" fill="white"/>
<path d="M325.921 324.595C325.83 324.595 325.738 324.584 325.647 324.56L318.188 322.664C317.597 322.514 317.243 321.916 317.365 321.271L319.514 309.916C319.564 309.655 319.803 309.477 320.063 309.496L329.227 310.209C329.374 310.22 329.51 310.295 329.599 310.413C329.689 310.53 329.724 310.682 329.696 310.827L327.145 323.536C327.072 323.899 326.854 324.218 326.55 324.41C326.355 324.532 326.139 324.595 325.924 324.595H325.921ZM320.447 310.565L318.385 321.466C318.366 321.567 318.401 321.649 318.445 321.66L325.905 323.557C325.938 323.566 325.982 323.543 325.999 323.533C326.064 323.491 326.114 323.416 326.13 323.332L328.566 311.198L320.447 310.567V310.565Z" fill="black"/>
<path d="M353.234 299.823L359.519 310.152L352.336 313.959L345.873 304.716L353.234 299.823Z" fill="white"/>
<path d="M352.336 314.477C352.172 314.477 352.01 314.4 351.912 314.257L345.449 305.014C345.369 304.899 345.339 304.758 345.364 304.62C345.39 304.482 345.47 304.362 345.587 304.285L352.948 299.392C353.065 299.315 353.208 299.287 353.349 299.317C353.487 299.348 353.607 299.434 353.68 299.554L359.964 309.885C360.04 310.007 360.058 310.155 360.021 310.293C359.983 310.431 359.889 310.546 359.763 310.614L352.58 314.421C352.503 314.461 352.421 314.482 352.339 314.482L352.336 314.477ZM346.602 304.854L352.498 313.287L358.788 309.953L353.07 300.553L346.6 304.854H346.602Z" fill="black"/>
<path d="M329.292 317.846C329.803 319.675 330.877 324.823 331.327 327.922C331.609 329.865 330.38 331.705 328.502 332.214C323.188 333.651 310.482 333.59 299.902 334.057C299.178 334.09 297.842 333.736 297.249 331.98C295.235 326.028 306.354 324.183 317.344 318.13C317.559 318.01 317.822 318.022 318.024 318.165C318.15 318.254 318.312 318.364 318.499 318.486C320.41 319.703 323.589 319.705 325.53 318.538L327.722 317.22C328.322 316.859 329.1 317.169 329.29 317.849L329.292 317.846Z" fill="white"/>
<path d="M299.813 334.577C298.758 334.577 297.37 333.949 296.761 332.146C295.207 327.547 300.622 325.2 307.476 322.232C310.433 320.952 313.785 319.501 317.097 317.677C317.494 317.459 317.965 317.485 318.328 317.745C318.45 317.832 318.602 317.938 318.783 318.05C320.511 319.15 323.481 319.168 325.267 318.095L327.459 316.777C327.886 316.522 328.394 316.479 328.854 316.662C329.316 316.848 329.658 317.227 329.794 317.71C330.324 319.609 331.395 324.762 331.843 327.849C332.162 330.043 330.783 332.137 328.638 332.716C324.625 333.801 316.699 334.038 308.306 334.286C305.517 334.369 302.633 334.455 299.926 334.575C299.888 334.575 299.851 334.577 299.811 334.577H299.813ZM317.66 318.566C317.639 318.566 317.618 318.571 317.597 318.582C314.242 320.43 310.866 321.892 307.889 323.182C300.612 326.332 296.552 328.288 297.743 331.811C298.32 333.518 299.628 333.546 299.883 333.536C302.596 333.417 305.484 333.33 308.278 333.248C316.242 333.011 324.475 332.765 328.369 331.712C330.007 331.269 331.06 329.671 330.816 327.997C330.385 325.027 329.311 319.839 328.795 317.987C328.748 317.82 328.631 317.687 328.472 317.623C328.315 317.56 328.141 317.574 327.993 317.663L325.802 318.981C323.68 320.256 320.281 320.23 318.225 318.922C318.026 318.796 317.857 318.681 317.726 318.585C317.707 318.571 317.683 318.564 317.66 318.564V318.566Z" fill="black"/>
<path d="M331.648 329.324C331.66 329.378 331.665 329.415 331.669 329.432C331.951 331.375 330.106 332.571 328.341 333.398C323.104 335.857 301.956 334.448 301.14 334.392C301.124 334.392 301.112 334.392 301.096 334.392C300.833 334.397 298.149 334.397 297.375 332.728C297.279 332.519 297.221 332.228 297.183 331.956C297.124 331.511 297.155 331.056 297.253 330.618C297.333 330.259 297.687 330.036 298.039 330.126C301.965 331.129 311.171 331.785 320.288 330.454C323.65 329.964 329.023 328.456 330.434 327.613C330.819 327.383 331.311 327.605 331.398 328.049C331.47 328.419 331.559 328.869 331.651 329.328L331.648 329.324Z" fill="white"/>
<path d="M314.385 335.358C307.84 335.358 301.583 334.943 301.105 334.91C300.765 334.91 297.811 334.903 296.904 332.943C296.798 332.714 296.721 332.413 296.67 332.022C296.604 331.532 296.632 331.021 296.747 330.501C296.817 330.186 297.007 329.922 297.279 329.755C297.546 329.591 297.863 329.542 298.168 329.621C301.571 330.491 310.566 331.347 320.213 329.938C323.5 329.457 328.802 327.98 330.167 327.165C330.49 326.97 330.889 326.947 331.233 327.099C331.58 327.254 331.831 327.57 331.906 327.945L332.157 329.225C332.171 329.291 332.178 329.335 332.18 329.357C332.523 331.717 330.277 333.063 328.559 333.869C326.062 335.041 320.112 335.36 314.383 335.36L314.385 335.358ZM301.088 333.874C301.107 333.874 301.159 333.874 301.173 333.874C308.705 334.385 324.032 334.847 328.118 332.929C330.406 331.856 331.341 330.801 331.154 329.507L331.137 329.425L330.886 328.147C330.875 328.086 330.832 328.058 330.809 328.048C330.783 328.037 330.741 328.03 330.697 328.056C329.22 328.939 323.809 330.463 320.361 330.967C311.624 332.242 302.272 331.745 297.907 330.627C297.874 330.62 297.846 330.622 297.818 330.641C297.799 330.653 297.769 330.679 297.757 330.73C297.668 331.131 297.647 331.52 297.696 331.888C297.746 332.259 297.811 332.437 297.844 332.51C298.489 333.897 300.976 333.874 301.086 333.874C301.086 333.874 301.086 333.874 301.088 333.874Z" fill="black"/>
<path d="M316.591 323.458C316.481 323.458 316.371 323.423 316.277 323.353L313.07 320.91C312.843 320.737 312.798 320.411 312.972 320.183C313.145 319.956 313.469 319.912 313.698 320.085L316.905 322.528C317.133 322.701 317.177 323.027 317.004 323.254C316.901 323.388 316.748 323.458 316.591 323.458Z" fill="black"/>
<path d="M312.329 325.207C312.221 325.207 312.111 325.174 312.017 325.104L309.211 322.999C308.982 322.828 308.935 322.502 309.108 322.272C309.279 322.042 309.605 321.996 309.835 322.169L312.641 324.274C312.871 324.445 312.918 324.771 312.744 325.001C312.643 325.137 312.486 325.207 312.329 325.207Z" fill="black"/>
<path d="M351.865 311.753L360.126 310.558L365.005 320.905C365.722 322.457 365.152 324.469 363.699 325.388C361.807 326.586 358.982 328.145 355.735 329.188C349.615 331.155 343.503 336.8 338.24 334.024C332.977 331.251 333.324 331.044 333.062 329.143C332.799 327.242 338.015 323.501 341.543 321.039C344.424 319.028 351.865 311.753 351.865 311.753Z" fill="white"/>
<path d="M341.325 335.29C340.193 335.29 339.08 335.053 337.999 334.483C333.038 331.87 332.82 331.396 332.595 329.586C332.581 329.469 332.565 329.347 332.549 329.216C332.284 327.301 335.835 324.391 341.248 320.615C344.064 318.65 351.429 311.456 351.504 311.383C351.582 311.306 351.685 311.256 351.793 311.24L360.054 310.044C360.279 310.012 360.499 310.131 360.598 310.337L365.474 320.685C366.301 322.476 365.631 324.78 363.978 325.826C362.135 326.991 359.238 328.609 355.897 329.682C354.006 330.29 352.076 331.276 350.21 332.231C347.254 333.743 344.225 335.29 341.33 335.29H341.325ZM352.107 312.243C351.099 313.226 344.556 319.569 341.841 321.466C339.738 322.933 333.343 327.394 333.575 329.073C333.594 329.209 333.61 329.338 333.625 329.46C333.793 330.829 333.828 331.115 338.482 333.567C341.846 335.339 345.676 333.382 349.734 331.307C351.638 330.334 353.605 329.328 355.576 328.693C358.814 327.652 361.629 326.082 363.42 324.949C364.649 324.171 365.148 322.455 364.531 321.123L359.819 311.127L352.107 312.243Z" fill="black"/>
<path d="M349.155 320.725C349.059 320.725 348.961 320.697 348.874 320.641L345.149 318.219C344.908 318.062 344.84 317.741 344.997 317.502C345.154 317.262 345.475 317.194 345.714 317.349L349.439 319.771C349.68 319.928 349.748 320.249 349.591 320.488C349.493 320.641 349.327 320.725 349.155 320.725Z" fill="black"/>
<path d="M346.504 323.501C346.408 323.501 346.309 323.472 346.223 323.416L342.498 320.995C342.258 320.838 342.19 320.516 342.345 320.277C342.502 320.036 342.823 319.97 343.062 320.125L346.788 322.546C347.027 322.704 347.095 323.025 346.94 323.264C346.841 323.416 346.675 323.501 346.504 323.501Z" fill="black"/>
<path d="M333.42 330.566C333.42 330.566 337.563 333.583 342.12 332.008C346.68 330.432 365 320.783 365 320.783L365.947 322.858C366.425 323.908 366.015 325.158 365.005 325.728C360.44 328.299 348.257 334.851 341.918 335.283C334.018 335.82 333.42 330.566 333.42 330.566Z" fill="white"/>
<path d="M340.826 335.841C333.587 335.841 332.912 330.681 332.905 330.627C332.881 330.423 332.982 330.224 333.158 330.121C333.336 330.018 333.559 330.029 333.725 330.149C333.765 330.177 337.71 332.985 341.951 331.52C346.422 329.975 364.578 320.423 364.761 320.326C364.887 320.261 365.035 320.249 365.171 320.294C365.307 320.34 365.415 320.439 365.476 320.57L366.423 322.645C367.009 323.932 366.5 325.484 365.263 326.182C360.384 328.93 348.349 335.37 341.956 335.803C341.564 335.829 341.187 335.843 340.826 335.843V335.841ZM334.344 331.715C335.047 333.091 336.925 335.105 341.886 334.765C348.065 334.345 359.936 327.987 364.754 325.275C365.525 324.841 365.844 323.873 365.478 323.072L364.759 321.496C361.765 323.067 346.473 331.051 342.291 332.498C339.004 333.635 335.969 332.542 334.344 331.715Z" fill="black"/>
<path d="M346.351 229.592C346.351 229.592 317.901 241.163 307.404 253.878C297.373 266.029 342.551 310.152 342.551 310.152C342.607 310.361 357.904 301.718 357.904 301.453L346.187 275.898C341.564 265.93 332.316 260.234 336.088 256.731C339.52 253.543 358.598 255.191 368.392 254.851C385.789 254.246 385.622 228.886 385.622 228.886L346.356 229.592H346.351Z" fill="white"/>
<path d="M342.565 310.675C342.425 310.675 342.289 310.619 342.19 310.523C340.331 308.708 296.787 265.923 307.005 253.548C317.465 240.877 345.873 229.228 346.159 229.111C346.218 229.088 346.281 229.074 346.344 229.074L385.611 228.368C385.749 228.363 385.883 228.42 385.981 228.516C386.08 228.612 386.136 228.745 386.138 228.884C386.138 229.142 386.103 254.755 368.409 255.372C365.598 255.47 362.053 255.404 358.3 255.336C349.586 255.177 338.74 254.98 336.44 257.116C334.675 258.754 336.337 261.014 339.682 265.196C341.921 267.993 344.706 271.477 346.656 275.685L358.373 301.242C358.403 301.31 358.42 301.382 358.42 301.457C358.42 301.837 358.42 301.952 350.688 306.331C347.245 308.282 343.053 310.619 342.633 310.673C342.61 310.675 342.589 310.677 342.565 310.677V310.675ZM346.459 230.11C344.701 230.837 317.808 242.091 307.802 254.209C298.552 265.414 339.18 306.087 342.676 309.55C344.605 308.631 355.321 302.559 357.257 301.293L345.714 276.116C343.815 272.023 341.074 268.596 338.871 265.841C335.69 261.865 333.179 258.724 335.732 256.354C338.336 253.935 348.494 254.12 358.316 254.298C362.056 254.366 365.586 254.432 368.371 254.333C383.702 253.799 384.985 233.01 385.09 229.414L346.457 230.108L346.459 230.11Z" fill="black"/>
<path d="M322.114 261.094C319.657 270.281 317.322 297.92 316.786 313.376C316.779 313.589 332.441 313.739 332.473 313.46C332.63 312.1 344.209 270.244 350.677 259.176C354.111 253.297 376.271 254.983 381.213 254C394.411 251.379 393.544 224.737 393.544 224.737L331.758 249.413C326.477 250.217 323.507 255.887 322.114 261.094Z" fill="white"/>
<path d="M328.228 314.135C327.504 314.135 326.669 314.133 325.703 314.128C322.417 314.114 318.415 314.048 317.126 313.952C316.776 313.927 316.249 313.887 316.268 313.359C316.797 298.166 319.144 270.201 321.615 260.96C322.707 256.874 325.459 249.888 331.622 248.908L393.354 224.256C393.511 224.193 393.689 224.212 393.83 224.303C393.97 224.395 394.06 224.552 394.064 224.72C394.099 225.827 394.789 251.834 381.316 254.509C379.898 254.79 377.244 254.856 373.885 254.938C365.753 255.14 353.459 255.442 351.127 259.437C344.689 270.455 333.181 312.025 332.992 313.519C332.933 314.02 332.919 314.133 328.23 314.133L328.228 314.135ZM317.32 312.93C319.603 313.097 330.106 313.158 332.037 313.012C333.081 308.455 344.094 269.414 350.229 258.914C352.854 254.42 364.993 254.12 373.857 253.902C377.036 253.824 379.781 253.756 381.112 253.491C392.519 251.227 393.047 229.793 393.035 225.499L331.951 249.893C331.913 249.907 331.876 249.919 331.836 249.924C326.214 250.779 323.645 257.374 322.616 261.228C320.187 270.307 317.878 297.688 317.32 312.93Z" fill="black"/>
<path d="M397.503 182.545C397.503 182.545 396.973 161.287 384.474 157.161C383.412 156.809 382.298 156.636 381.18 156.594L370.153 156.179C366.88 156.153 364.168 156.943 360.666 158.225C357.738 159.297 354.479 161.294 352.575 163.022C344.188 170.64 344.103 196.223 336.848 195.619C334.412 195.417 330.335 191.347 326.301 186.368C323.068 182.381 317.503 177.488 317.503 177.488L307.807 182.381C310.112 186.288 312.189 190.337 313.886 194.55C317.433 203.35 323.253 210.737 330.544 217.045C332.97 219.143 336.4 219.575 339.265 218.145C343.913 215.826 350.881 212.094 355.208 208.568C356.802 214.07 355.382 220.072 351.46 224.312C350.283 225.585 349.008 226.753 347.664 227.707C346.342 228.645 346.03 230.501 346.938 231.849C348.4 234.022 351.319 236.524 356.891 235.938C364.212 235.169 385.055 235.251 394.261 235.33C396.704 235.351 398.675 233.328 398.619 230.865L397.501 182.547L397.503 182.545Z" fill="black"/>
<path d="M355.07 209.199C354.915 209.199 354.763 209.131 354.662 209C354.486 208.775 354.526 208.449 354.751 208.271C355.998 207.295 359.791 203.774 361.781 200.856C361.943 200.619 362.267 200.558 362.501 200.72C362.738 200.881 362.799 201.203 362.637 201.439C360.581 204.452 356.673 208.081 355.391 209.086C355.295 209.161 355.182 209.197 355.072 209.197L355.07 209.199Z" fill="white"/>
<path d="M316.291 177.758L314.809 169.738C314.809 169.738 313.597 163.622 312.116 162.806C311.026 162.206 310.301 164.475 310.529 167.342C310.566 167.818 309.919 167.989 309.725 167.555C308.951 165.849 308.144 163.849 308.076 162.806C307.943 160.766 307.537 156.554 305.653 156.962C303.768 157.37 300.401 163.894 302.959 169.466C305.517 175.038 311.443 180.205 311.443 180.205L316.291 177.758Z" fill="white"/>
<path d="M311.443 180.723C311.321 180.723 311.199 180.679 311.103 180.597C310.857 180.383 305.064 175.294 302.488 169.684C300.793 165.994 301.578 161.903 302.879 159.306C303.679 157.71 304.673 156.645 305.545 156.455C306.016 156.352 306.468 156.453 306.853 156.741C307.816 157.468 308.372 159.386 308.595 162.773C308.642 163.49 309.132 164.93 309.983 166.859C309.91 165.082 310.175 163.017 311.162 162.379C311.532 162.14 311.961 162.131 312.369 162.356C313.979 163.242 315.109 168.58 315.32 169.642L316.802 177.669C316.844 177.896 316.732 178.121 316.525 178.227L311.677 180.674C311.602 180.711 311.523 180.73 311.443 180.73V180.723ZM305.901 157.452C305.857 157.452 305.812 157.456 305.763 157.468C305.327 157.562 304.53 158.321 303.808 159.768C302.617 162.152 301.892 165.893 303.433 169.25C305.613 174 310.369 178.522 311.527 179.582L315.712 177.469L314.301 169.832C313.818 167.396 312.742 163.741 311.867 163.258C311.781 163.209 311.755 163.226 311.724 163.244C311.34 163.493 310.862 164.951 311.049 167.298C311.087 167.764 310.798 168.172 310.346 168.289C309.896 168.404 309.448 168.191 309.256 167.766C308.194 165.42 307.622 163.76 307.561 162.839C307.315 159.128 306.701 157.923 306.229 157.569C306.124 157.489 306.021 157.452 305.901 157.452Z" fill="black"/>
<path d="M366.259 159.454C365.952 159.397 365.874 158.982 366.146 158.825C367.065 158.293 368.364 157.33 368.284 156.165L368.481 151.666C368.467 151.117 368.106 150.639 367.586 150.482L364.351 149.5C363.851 149.348 363.514 148.879 363.525 148.354L363.626 143.583L362.058 142.317C361.936 142.219 361.912 142.038 362.009 141.914L364.276 138.92C365.012 137.795 365.684 135.146 366.331 135.298C366.331 135.298 379.734 133.186 380.812 139.846C380.976 140.864 380.728 141.907 380.167 142.767L379.033 144.507C377.893 146.253 377.342 148.358 377.645 150.426C377.741 151.078 379.255 157.058 379.255 157.058C379.255 157.058 381.944 158.277 383.59 158.732C383.944 158.83 383.963 159.329 383.618 159.456L380.61 160.176C377.605 160.884 374.487 160.961 371.451 160.405L366.256 159.454H366.259Z" fill="white"/>
<path d="M375.491 161.292C374.112 161.292 372.734 161.165 371.36 160.914L366.165 159.962C365.809 159.897 365.537 159.623 365.474 159.262C365.41 158.903 365.574 158.554 365.886 158.373C367.126 157.656 367.813 156.863 367.766 156.198C367.766 156.179 367.766 156.158 367.766 156.139L367.963 151.64C367.954 151.35 367.743 151.068 367.436 150.975L364.201 149.992C363.483 149.774 362.991 149.094 363.007 148.34L363.104 143.825L361.732 142.718C361.39 142.441 361.329 141.949 361.596 141.598L363.863 138.604C364.095 138.248 364.355 137.622 364.609 137.017C365.148 135.73 365.588 134.701 366.332 134.771C367.576 134.586 380.21 132.875 381.326 139.76C381.508 140.885 381.251 142.052 380.601 143.046L379.467 144.786C378.351 146.499 377.884 148.473 378.158 150.349C378.224 150.792 379.091 154.289 379.696 156.685C380.374 156.985 382.413 157.867 383.728 158.23C384.106 158.336 384.368 158.668 384.385 159.06C384.401 159.454 384.164 159.808 383.796 159.941C383.778 159.948 383.759 159.953 383.74 159.958L380.732 160.677C378.998 161.085 377.244 161.289 375.491 161.289V161.292ZM366.81 159.027L371.548 159.894C374.532 160.441 377.542 160.366 380.493 159.669L382.955 159.081C381.311 158.554 379.145 157.576 379.045 157.529C378.902 157.463 378.794 157.337 378.756 157.185C378.599 156.57 377.232 151.157 377.134 150.499C376.825 148.375 377.345 146.145 378.599 144.221L379.734 142.481C380.24 141.703 380.442 140.796 380.301 139.926C379.316 133.845 366.543 135.788 366.414 135.807C366.395 135.81 366.376 135.812 366.357 135.812C366.146 136.03 365.799 136.857 365.567 137.415C365.295 138.062 365.016 138.733 364.712 139.199L362.555 142.048L363.955 143.178C364.079 143.278 364.151 143.431 364.147 143.592L364.046 148.363C364.039 148.656 364.229 148.919 364.503 149.003L367.738 149.985C368.474 150.208 368.981 150.878 369.002 151.652L368.805 156.158C368.87 157.379 367.837 158.359 366.81 159.025V159.027Z" fill="black"/>
<path d="M365.443 124.937C368.537 124.648 364.749 127.989 376.102 124.224C380.624 122.724 378.498 128.158 379.67 127.771C384.005 126.346 383.857 126.39 386.014 126.878C387.442 127.201 388.454 129.787 388.255 131.754C387.992 134.349 385.252 138.566 382.826 143.006C381.569 145.304 379.187 145.608 376.154 142.394C375.83 142.052 377.317 139.895 376.456 139.028C374.222 136.773 373.423 140.355 371.655 139.335C369.956 138.355 369.245 137.706 367.429 136.192C365.232 134.361 361.805 137.5 360.398 133.228C359.664 131.001 361.202 125.333 365.441 124.939L365.443 124.937Z" fill="black"/>
<path d="M395.74 324.009H376.89V255.918H367.194V324.009H348.344C342.584 324.009 337.915 328.679 337.915 334.439V336.328H406.17V334.439C406.17 328.679 401.5 324.009 395.74 324.009Z" fill="black"/>
<path d="M400.991 184.057H396.113C383.107 184.057 371.857 193.197 369.077 206.022L363.401 232.215C362.072 238.345 356.697 242.713 350.48 242.713H340.226C334.867 242.713 330.521 247.099 330.521 252.509C330.521 257.92 334.864 262.306 340.226 262.306H356.879L356.87 262.35H386.171C396.425 262.35 405.295 255.144 407.487 245.031L416.489 203.488C418.653 193.502 411.119 184.054 400.991 184.054V184.057Z" fill="white"/>
<path d="M386.169 262.871H356.868C356.793 262.871 356.722 262.854 356.657 262.826H340.226C334.588 262.826 330.002 258.199 330.002 252.512C330.002 246.824 334.588 242.197 340.226 242.197H350.48C356.406 242.197 361.627 237.954 362.895 232.107L368.57 205.915C371.381 192.951 382.964 183.541 396.113 183.541H400.991C405.942 183.541 410.572 185.763 413.697 189.636C416.867 193.565 418.067 198.657 416.996 203.603L407.994 245.146C405.767 255.418 396.589 262.873 386.171 262.873L386.169 262.871ZM357.09 261.832H386.169C396.104 261.832 404.855 254.72 406.979 244.923L415.981 203.38C416.986 198.741 415.859 193.968 412.889 190.283C409.963 186.654 405.626 184.572 400.991 184.572H396.113C383.447 184.572 372.291 193.638 369.583 206.13L363.908 232.323C362.538 238.643 356.891 243.231 350.48 243.231H340.226C335.16 243.231 331.039 247.392 331.039 252.509C331.039 257.627 335.16 261.788 340.226 261.788H356.879C356.954 261.788 357.025 261.804 357.09 261.832Z" fill="black"/>
<path d="M273.278 258.611H142.159C140.23 258.611 138.725 260.278 138.919 262.198L151.435 385.588C151.482 386.059 151.885 386.413 152.357 386.404L159.129 386.261C159.408 386.254 159.626 386.017 159.607 385.736L151.365 271C151.229 269.113 152.725 267.508 154.619 267.51L261.034 267.646C262.931 267.648 264.422 269.263 264.279 271.153L255.523 385.295C255.478 385.888 255.938 386.397 256.531 386.413L262.441 386.575C262.865 386.587 263.226 386.27 263.271 385.851L276.518 262.219C276.724 260.294 275.215 258.613 273.278 258.613V258.611Z" fill="white"/>
<path d="M262.464 387.091C262.453 387.091 262.441 387.091 262.429 387.091L256.519 386.929C256.088 386.917 255.694 386.734 255.406 386.416C255.117 386.097 254.977 385.684 255.01 385.253L263.765 271.111C263.824 270.342 263.568 269.608 263.046 269.041C262.523 268.476 261.81 268.162 261.039 268.162L154.624 268.026H154.619C153.85 268.026 153.14 268.335 152.615 268.898C152.089 269.46 151.832 270.194 151.885 270.961L160.128 385.696C160.147 385.97 160.053 386.245 159.868 386.446C159.682 386.65 159.42 386.77 159.143 386.774L152.371 386.92C151.625 386.934 150.997 386.373 150.922 385.637L138.406 262.247C138.298 261.187 138.647 260.126 139.36 259.333C140.075 258.543 141.095 258.088 142.161 258.088H273.281C274.35 258.088 275.374 258.546 276.089 259.34C276.804 260.135 277.149 261.202 277.034 262.266L263.786 385.898C263.714 386.57 263.137 387.086 262.464 387.086V387.091ZM154.617 266.99H154.621L261.037 267.126C262.085 267.126 263.093 267.569 263.803 268.338C264.513 269.106 264.877 270.147 264.797 271.19L256.041 385.333C256.029 385.476 256.076 385.614 256.172 385.722C256.268 385.83 256.4 385.891 256.545 385.893L262.455 386.055C262.61 386.052 262.739 385.944 262.755 385.792L276.002 262.16C276.084 261.389 275.836 260.615 275.316 260.039C274.797 259.462 274.054 259.132 273.278 259.132H142.159C141.386 259.132 140.645 259.46 140.127 260.034C139.609 260.608 139.355 261.377 139.435 262.146L151.951 385.537C151.972 385.736 152.15 385.886 152.347 385.886L159.12 385.74L150.849 271.038C150.774 269.995 151.14 268.959 151.853 268.192C152.565 267.428 153.571 266.99 154.614 266.99H154.617Z" fill="black"/>
<path d="M249.526 265.815C249.24 265.815 249.008 265.583 249.008 265.297V259.718C249.008 259.432 249.24 259.199 249.526 259.199C249.812 259.199 250.044 259.432 250.044 259.718V265.297C250.044 265.583 249.812 265.815 249.526 265.815Z" fill="white"/>
<path d="M191.027 306.601C188.076 320.122 199.781 357.112 202.235 366.128C202.557 367.31 203.637 368.128 204.868 368.128H215.774C217.29 368.128 218.516 366.902 218.502 365.397C218.401 354.702 216.458 315.708 223.125 304.481C226.986 297.981 234.056 295.05 238.785 291.958C250.133 284.534 245.86 268.096 245.86 268.096L202.995 293.538C197.057 294.427 192.296 300.775 191.023 306.601H191.027Z" fill="black"/>
<path d="M207.285 272.349C207.285 272.349 169.868 272.684 158.07 286.74C147.467 299.376 163.187 354.998 166.479 366.131C166.821 367.284 167.885 368.074 169.097 368.074H183.156C183.451 368.074 183.693 367.835 183.693 367.542V308.605C183.693 304.892 184.422 306.882 187.563 304.87C191.968 302.05 199.959 304.444 210.97 304.526C245.94 304.786 240.306 271.863 240.306 271.863L207.288 272.346L207.285 272.349Z" fill="black"/>
<path d="M215.875 368.182L216.608 377.726L207.867 377.77L206.062 368.248L215.875 368.182Z" fill="white"/>
<path d="M207.866 378.288C207.618 378.288 207.402 378.11 207.358 377.866L205.55 368.344C205.522 368.194 205.562 368.037 205.658 367.917C205.757 367.798 205.902 367.73 206.054 367.727L215.867 367.662H215.872C216.144 367.662 216.369 367.87 216.39 368.14L217.124 377.683C217.136 377.826 217.086 377.969 216.988 378.075C216.89 378.18 216.754 378.241 216.608 378.241L207.866 378.286H207.864L207.866 378.288ZM206.687 368.763L208.298 377.25L216.05 377.21L215.396 368.702L206.69 368.761L206.687 368.763Z" fill="black"/>
<path d="M181.313 368.182L181.179 377.726L172.168 377.77L170.567 368.248L181.313 368.182Z" fill="white"/>
<path d="M172.168 378.288C171.915 378.288 171.699 378.105 171.657 377.854L170.056 368.332C170.03 368.182 170.072 368.03 170.171 367.912C170.269 367.795 170.412 367.73 170.564 367.727L181.313 367.662H181.315C181.454 367.662 181.585 367.718 181.683 367.814C181.782 367.912 181.836 368.046 181.833 368.187L181.7 377.73C181.695 378.014 181.465 378.241 181.184 378.241L172.173 378.286H172.17L172.168 378.288ZM171.179 368.763L172.606 377.25L180.668 377.21L180.788 368.702L171.179 368.761V368.763Z" fill="black"/>
<path d="M172.297 376.553H180.678C181.273 376.553 181.808 376.907 182.033 377.454C182.776 379.247 184.29 383.443 184.086 387.421C184.03 388.509 183.121 389.36 182.023 389.36H157.427C156.298 389.36 155.437 388.333 155.665 387.234C155.937 385.916 156.872 384.184 159.568 382.625C163.935 380.103 169.421 377.58 171.153 376.8C171.512 376.638 171.901 376.553 172.295 376.553H172.297Z" fill="white"/>
<path d="M182.026 389.876H157.43C156.727 389.876 156.068 389.564 155.625 389.02C155.191 388.486 155.02 387.796 155.158 387.126C155.43 385.804 156.373 383.87 159.31 382.173C163.722 379.624 169.327 377.05 170.94 376.324C171.369 376.131 171.824 376.033 172.295 376.033H180.676C181.484 376.033 182.204 376.511 182.511 377.252C183.21 378.94 184.815 383.314 184.605 387.445C184.534 388.807 183.402 389.876 182.026 389.876ZM172.297 377.071C171.976 377.071 171.662 377.139 171.369 377.271C169.768 377.993 164.202 380.548 159.83 383.073C157.767 384.264 156.504 385.738 156.176 387.337C156.101 387.7 156.194 388.075 156.431 388.366C156.677 388.666 157.041 388.84 157.432 388.84H182.028C182.853 388.84 183.531 388.204 183.573 387.393C183.775 383.474 182.23 379.273 181.559 377.65C181.414 377.299 181.069 377.071 180.683 377.071H172.302H172.297Z" fill="black"/>
<path d="M208.167 376.553H216.548C217.143 376.553 217.678 376.907 217.905 377.454C218.648 379.247 220.162 383.443 219.958 387.421C219.902 388.509 218.993 389.36 217.896 389.36H193.3C192.17 389.36 191.309 388.333 191.537 387.234C191.809 385.916 192.744 384.184 195.44 382.625C199.805 380.103 205.293 377.58 207.025 376.8C207.384 376.638 207.773 376.553 208.167 376.553Z" fill="white"/>
<path d="M217.895 389.876H193.299C192.596 389.876 191.937 389.564 191.494 389.02C191.061 388.486 190.89 387.796 191.028 387.126C191.3 385.804 192.242 383.87 195.18 382.173C199.594 379.622 205.199 377.05 206.809 376.324C207.238 376.131 207.693 376.033 208.164 376.033H216.545C217.354 376.033 218.074 376.511 218.381 377.252C219.079 378.94 220.685 383.314 220.474 387.445C220.404 388.807 219.272 389.876 217.895 389.876ZM208.167 377.071C207.846 377.071 207.531 377.139 207.238 377.271C205.637 377.993 200.074 380.546 195.7 383.073C193.639 384.264 192.373 385.738 192.045 387.337C191.97 387.7 192.064 388.075 192.301 388.366C192.547 388.666 192.91 388.84 193.302 388.84H217.898C218.723 388.84 219.4 388.204 219.443 387.393C219.642 383.474 218.099 379.275 217.429 377.65C217.284 377.299 216.939 377.071 216.552 377.071H208.171H208.167Z" fill="black"/>
<path d="M175.635 253.52L171.055 251.808C169.114 251.084 166.985 251.107 165.065 251.893C162.669 252.875 159.418 254.464 157.191 256.572C156.633 257.102 156.975 258.07 157.728 258.07H175.424L175.638 253.517L175.635 253.52Z" fill="white"/>
<path d="M175.422 258.593H157.725C157.174 258.593 156.703 258.269 156.494 257.746C156.279 257.205 156.41 256.598 156.832 256.199C159.129 254.024 162.47 252.397 164.868 251.417C166.901 250.585 169.163 250.552 171.235 251.325L175.816 253.037C176.027 253.116 176.163 253.323 176.153 253.548L175.94 258.1C175.926 258.377 175.699 258.595 175.422 258.595V258.593ZM168.162 251.804C167.175 251.804 166.19 251.994 165.262 252.376C162.946 253.325 159.727 254.889 157.547 256.952C157.413 257.078 157.416 257.247 157.46 257.362C157.488 257.435 157.561 257.554 157.727 257.554H174.927L175.098 253.874L170.872 252.296C169.993 251.968 169.074 251.804 168.159 251.804H168.162Z" fill="black"/>
<path d="M253.62 233.136C253.62 233.136 254.114 215.376 241.863 213.234C241.868 213.217 241.877 213.198 241.882 213.182L228.906 212.448C228.906 212.448 220.568 211.295 212.886 217.906C205.956 223.869 204.435 239.166 200.002 243.057C196.159 246.433 179.621 250.819 175.289 251.928C174.674 252.085 174.248 252.636 174.25 253.267L174.264 257.46H200.487C204.146 257.46 207.644 255.981 210.185 253.367C211.716 251.792 213.601 249.856 215.682 247.673C215.657 249.021 215.807 251.255 216.756 253.74C218.671 258.757 217.757 264.437 214.086 268.373C212.546 270.026 210.804 271.507 208.964 272.396C208.964 272.396 210.136 277.94 218.678 278.32C222.153 278.474 231.326 278.805 238.148 278.418C247.464 277.888 254.339 276.175 254.339 276.175L253.617 233.136H253.62Z" fill="white"/>
<path d="M230.601 279.121C225.706 279.121 221.002 278.945 218.655 278.84C209.812 278.446 208.507 272.75 208.455 272.506C208.406 272.271 208.523 272.035 208.736 271.931C210.333 271.16 212.004 269.845 213.706 268.021C217.185 264.291 218.167 258.893 216.271 253.928C215.553 252.047 215.275 250.308 215.19 248.937C213.61 250.585 212.161 252.076 210.921 253.351L210.556 253.728C207.932 256.429 204.261 257.978 200.485 257.978H174.262C173.976 257.978 173.744 257.746 173.744 257.463L173.729 253.269C173.727 252.399 174.313 251.642 175.157 251.426C185.064 248.892 196.703 245.263 199.657 242.668C201.518 241.032 202.925 237.03 204.411 232.794C206.366 227.229 208.579 220.923 212.543 217.512C220.312 210.826 228.623 211.886 228.974 211.932L241.908 212.661C242.011 212.666 242.109 212.704 242.191 212.765C254.351 215.121 254.145 232.56 254.135 233.134L254.857 276.163C254.862 276.404 254.698 276.615 254.464 276.674C254.393 276.69 247.433 278.406 238.176 278.934C235.808 279.067 233.178 279.117 230.601 279.117V279.121ZM209.585 272.665C210.016 273.865 211.885 277.501 218.702 277.804C221.484 277.928 231.11 278.301 238.117 277.902C246.017 277.455 252.218 276.132 253.814 275.767L253.099 233.146C253.099 233.146 253.099 233.129 253.099 233.122C253.104 232.949 253.434 215.784 241.772 213.745C241.713 213.735 241.657 213.714 241.605 213.686L228.876 212.966C228.754 212.95 220.624 211.93 213.223 218.299C209.47 221.53 207.304 227.698 205.393 233.139C203.792 237.696 202.412 241.632 200.344 243.446C196.455 246.862 180.282 251.185 175.417 252.43C175.035 252.528 174.768 252.87 174.77 253.264L174.784 256.942H200.492C203.989 256.942 207.388 255.508 209.817 253.006L210.183 252.629C211.643 251.126 213.394 249.323 215.31 247.317C215.457 247.162 215.685 247.115 215.882 247.195C216.079 247.277 216.208 247.471 216.203 247.685C216.177 249.056 216.336 251.187 217.241 253.557C219.281 258.893 218.217 264.706 214.466 268.729C212.813 270.499 211.174 271.821 209.585 272.665Z" fill="black"/>
<path d="M215.117 249.701C214.991 249.701 214.864 249.654 214.763 249.563C214.552 249.368 214.541 249.04 214.738 248.829C218.132 245.174 220.762 240.961 222.558 236.31C222.661 236.043 222.961 235.91 223.228 236.013C223.496 236.116 223.629 236.416 223.526 236.683C221.684 241.461 218.983 245.784 215.499 249.534C215.396 249.645 215.258 249.701 215.12 249.701H215.117Z" fill="black"/>
<path d="M221.17 189.969C221.17 189.969 220.685 194.308 218.51 196.718C218.343 196.903 218.306 197.168 218.432 197.382L219.33 198.88C219.408 199.009 219.471 199.147 219.52 199.29L221.009 203.667C221.145 204.067 221.506 204.351 221.928 204.386C222.858 204.464 225.219 204.103 225.411 204.724C225.627 205.418 225.46 211.037 225.376 213.482C225.355 214.131 225.81 214.699 226.45 214.816L231.485 215.744C233.757 216.164 236.089 215.885 238.183 214.961C238.863 214.661 239.165 213.866 238.851 213.194C237.7 210.732 235.177 204.857 235.51 201.264L237.749 195C237.693 191.999 235.187 189.615 232.165 189.69L221.168 189.964L221.17 189.969Z" fill="white"/>
<path d="M233.576 216.459C232.849 216.459 232.12 216.394 231.394 216.26L226.358 215.332C225.458 215.165 224.83 214.382 224.86 213.468C225.048 208.008 225.02 205.514 224.933 204.961C224.621 204.839 223.622 204.876 223.069 204.9C222.619 204.918 222.195 204.935 221.885 204.909C221.257 204.857 220.72 204.438 220.516 203.84L219.028 199.463C218.99 199.355 218.943 199.25 218.885 199.151L217.987 197.653C217.745 197.248 217.799 196.735 218.123 196.376C220.162 194.116 220.65 189.957 220.655 189.915C220.683 189.657 220.898 189.46 221.156 189.453L232.153 189.179C233.761 189.139 235.285 189.728 236.443 190.836C237.592 191.936 238.239 193.413 238.269 194.997C238.269 195.061 238.26 195.122 238.239 195.183L236.024 201.383C235.738 204.874 238.232 210.65 239.322 212.98C239.533 213.43 239.554 213.937 239.378 214.403C239.202 214.872 238.853 215.24 238.394 215.444C236.86 216.119 235.226 216.462 233.576 216.462V216.459ZM224.023 203.833C224.977 203.833 225.716 203.957 225.908 204.571C226.084 205.139 226.079 208.142 225.896 213.501C225.882 213.897 226.157 214.237 226.546 214.307L231.581 215.235C233.747 215.634 235.958 215.376 237.976 214.488C238.178 214.399 238.33 214.237 238.408 214.033C238.485 213.831 238.476 213.611 238.384 213.414C237.252 210.99 234.652 204.951 234.999 201.217C235.004 201.175 235.013 201.13 235.027 201.09L237.233 194.918C237.186 193.647 236.654 192.466 235.73 191.58C234.772 190.663 233.518 190.173 232.184 190.21L221.625 190.473C221.435 191.678 220.76 194.997 218.896 197.063C218.88 197.082 218.873 197.103 218.88 197.112L219.775 198.61C219.872 198.772 219.951 198.943 220.012 199.121L221.501 203.498C221.571 203.704 221.756 203.849 221.972 203.868C222.218 203.889 222.614 203.873 223.029 203.856C223.376 203.842 223.711 203.831 224.023 203.831V203.833Z" fill="black"/>
<path d="M220.153 188.434C219.705 189.116 219.974 190.037 220.72 190.379L221.17 190.586L229.809 194.843C230.027 194.951 230.292 194.936 230.489 194.793C230.847 194.536 231.49 194.214 232.134 194.627C233.032 195.199 233.215 198.261 230.906 199.072C230.601 199.18 230.435 199.501 230.556 199.796C230.69 200.117 230.887 200.544 231.157 201.008C233.194 204.508 238.227 204.717 240.653 201.47C242.442 199.076 244.078 195.143 242.062 189.765C238.9 181.328 225.99 179.514 220.15 188.436L220.153 188.434Z" fill="black"/>
<path d="M241.193 186.478C241.193 186.478 244.962 182.006 250.478 183.74C255.994 185.475 256.276 194.81 256.916 200.631C259.168 221.127 264.173 228.588 265.789 230.438C267.582 232.492 253.484 231.099 248.732 229.479C235.039 224.812 242.25 211.63 242.892 209.258C243.537 206.883 248.638 193.6 242.294 192.048L239.076 189.31L241.19 186.481L241.193 186.478Z" fill="black"/>
<path d="M242.925 192.876L242.857 192.902C242.257 193.122 241.589 192.815 241.369 192.219L239.688 187.676C239.468 187.078 239.775 186.417 240.377 186.199L240.445 186.174C241.045 185.953 241.713 186.26 241.934 186.858L243.615 191.401C243.835 191.999 243.528 192.66 242.925 192.878V192.876Z" fill="white"/>
<path d="M242.461 193.49C241.777 193.49 241.134 193.07 240.883 192.398L239.203 187.854C239.048 187.437 239.067 186.985 239.254 186.579C239.442 186.174 239.779 185.864 240.201 185.709L240.269 185.684C241.137 185.367 242.102 185.813 242.421 186.675L244.102 191.218C244.257 191.636 244.238 192.088 244.053 192.494C243.865 192.899 243.528 193.209 243.106 193.363L243.038 193.389C242.848 193.457 242.653 193.492 242.461 193.492V193.49ZM240.844 186.619C240.771 186.619 240.696 186.631 240.621 186.659L240.553 186.685C240.393 186.743 240.265 186.86 240.192 187.015C240.122 187.168 240.114 187.339 240.173 187.496L241.854 192.039C241.976 192.367 242.346 192.536 242.677 192.414L242.745 192.391C242.906 192.332 243.033 192.215 243.106 192.06C243.176 191.908 243.183 191.737 243.125 191.58L241.444 187.036C241.35 186.781 241.104 186.621 240.841 186.621L240.844 186.619Z" fill="black"/>
<path d="M246.472 381.969H227.622V313.877H217.926V381.969H199.076C193.316 381.969 188.646 386.638 188.646 392.398V394.288H256.899V392.398C256.899 386.638 252.229 381.969 246.47 381.969H246.472Z" fill="white"/>
<path d="M256.902 394.808H188.648C188.362 394.808 188.13 394.576 188.13 394.29V392.401C188.13 386.364 193.042 381.453 199.078 381.453H217.41V313.88C217.41 313.594 217.642 313.362 217.928 313.362H227.624C227.91 313.362 228.142 313.594 228.142 313.88V381.453H246.474C252.511 381.453 257.422 386.364 257.422 392.401V394.29C257.422 394.576 257.19 394.808 256.904 394.808H256.902ZM189.167 393.77H256.384V392.398C256.384 386.934 251.937 382.487 246.472 382.487H227.622C227.336 382.487 227.104 382.255 227.104 381.969V314.395H218.444V381.969C218.444 382.255 218.212 382.487 217.926 382.487H199.076C193.611 382.487 189.164 386.934 189.164 392.398V393.77H189.167Z" fill="black"/>
<path d="M251.723 242.016H246.844C233.838 242.016 222.588 251.156 219.808 263.982L214.133 290.174C212.803 296.305 207.428 300.672 201.211 300.672H190.957C185.598 300.672 181.252 305.058 181.252 310.469C181.252 315.879 185.596 320.265 190.957 320.265H207.611L207.601 320.31H236.902C247.156 320.31 256.027 313.104 258.219 302.99L267.221 261.448C269.384 251.461 261.85 242.014 251.723 242.014V242.016Z" fill="white"/>
<path d="M236.902 320.83H207.602C207.527 320.83 207.456 320.814 207.391 320.786H190.96C185.322 320.786 180.736 316.158 180.736 310.471C180.736 304.784 185.322 300.156 190.96 300.156H201.213C207.14 300.156 212.36 295.913 213.629 290.067L219.304 263.874C222.115 250.91 233.698 241.5 246.847 241.5H251.725C256.676 241.5 261.306 243.723 264.431 247.596C267.601 251.525 268.801 256.616 267.73 261.563L258.728 303.105C256.501 313.378 247.323 320.833 236.905 320.833L236.902 320.83ZM207.824 319.794H236.902C246.837 319.794 255.589 312.682 257.713 302.885L266.714 261.342C267.72 256.703 266.593 251.93 263.622 248.245C260.697 244.616 256.36 242.534 251.725 242.534H246.847C234.181 242.534 223.024 251.6 220.317 264.092L214.641 290.285C213.272 296.605 207.625 301.192 201.213 301.192H190.96C185.894 301.192 181.772 305.353 181.772 310.471C181.772 315.589 185.894 319.75 190.96 319.75H207.613C207.688 319.75 207.759 319.766 207.824 319.794Z" fill="black"/>
<path d="M94.1628 59.5177C96.4367 59.5177 98.2793 61.3603 98.2793 63.6342V91.9576C98.2793 94.2315 96.4367 96.0741 94.1628 96.0741H49.1858L44.3449 102.146L36.7377 96.0741H16.0848C13.8109 96.0741 11.9683 94.2315 11.9683 91.9576V63.6342C11.9683 61.3603 13.8109 59.5177 16.0848 59.5177H94.1651H94.1628Z" fill="white"/>
<path d="M44.3448 103.353C44.2182 103.353 44.0963 103.306 44.0002 103.222L36.5407 96.5897H16.0824C13.5271 96.5897 11.4478 94.5104 11.4478 91.9551V63.6318C11.4478 61.0765 13.5271 58.9972 16.0824 58.9972H31.4842C31.7702 58.9972 32.0022 59.2292 32.0022 59.5152C32.0022 59.8012 31.7702 60.0333 31.4842 60.0333H16.0824C14.0991 60.0333 12.4863 61.6462 12.4863 63.6318V91.9551C12.4863 93.9384 14.0991 95.5536 16.0824 95.5536H36.7377C36.8642 95.5536 36.9885 95.6005 37.0823 95.6849L44.2838 102.089L49.474 95.7435C49.5725 95.6239 49.7202 95.5536 49.8749 95.5536H94.1627C96.1459 95.5536 97.7588 93.9407 97.7588 91.9551V63.6318C97.7588 61.6485 96.1459 60.0333 94.1627 60.0333H41.8669C41.5809 60.0333 41.3488 59.8012 41.3488 59.5152C41.3488 59.2292 41.5809 58.9972 41.8669 58.9972H94.1627C96.7179 58.9972 98.7973 61.0765 98.7973 63.6318V91.9551C98.7973 94.5104 96.7179 96.5897 94.1627 96.5897H50.121L44.7457 103.163C44.6566 103.273 44.5253 103.341 44.3846 103.351C44.3706 103.351 44.3565 103.351 44.3448 103.351V103.353Z" fill="black"/>
<path d="M86.8836 73.5176H24.8286C24.5426 73.5176 24.3105 73.2855 24.3105 72.9995C24.3105 72.7135 24.5426 72.4815 24.8286 72.4815H86.8836C87.1696 72.4815 87.4017 72.7135 87.4017 72.9995C87.4017 73.2855 87.1696 73.5176 86.8836 73.5176Z" fill="black"/>
<path d="M86.8837 81.8092H73.9082C73.6222 81.8092 73.3901 81.5772 73.3901 81.2912C73.3901 81.0052 73.6222 80.7731 73.9082 80.7731H86.8837C87.1697 80.7731 87.4018 81.0052 87.4018 81.2912C87.4018 81.5772 87.1697 81.8092 86.8837 81.8092Z" fill="black"/>
<path d="M65.6164 81.8092H24.8286C24.5426 81.8092 24.3105 81.5772 24.3105 81.2912C24.3105 81.0052 24.5426 80.7731 24.8286 80.7731H65.6141C65.9001 80.7731 66.1322 81.0052 66.1322 81.2912C66.1322 81.5772 65.9001 81.8092 65.6141 81.8092H65.6164Z" fill="black"/>
</svg>
