<svg width="430" height="429" viewBox="0 0 430 429" fill="none" xmlns="http://www.w3.org/2000/svg">
<path d="M174.887 31.2162H160.31C160.31 31.2162 155.195 68.0352 141.31 83.5308C128.154 98.2105 103.527 94.1831 103.527 94.1831C103.527 94.1831 103.518 94.2136 103.506 94.2605C93.9816 91.6654 83.1183 92.235 75.7128 94.1878C64.1016 97.2517 55.7139 102.585 55.7139 102.585C55.7139 102.585 37.7967 113.908 38.2233 135.515C38.5539 152.281 51.1355 172.24 51.0371 173.67C49.9306 189.672 48.6928 189.126 50.3643 194.827C54.4175 208.667 111.826 202.959 112.848 196.616C113.774 190.86 111.106 181.237 112.445 168.297C114.557 147.895 118.751 140.632 123.524 128.051C149.885 125.91 166.921 111.017 172.221 87.0964C177.691 62.4183 174.889 31.2139 174.889 31.2139L174.887 31.2162Z" fill="white"/>
<path d="M78.5 203.883C64.7767 203.883 51.7965 201.574 49.8625 194.973C48.763 191.215 48.9013 190.005 49.4171 185.495C49.7148 182.907 50.1203 179.362 50.5165 173.633C50.479 173.328 49.6538 171.682 48.7794 169.941C45.2654 162.938 37.9536 148.366 37.7028 135.524C37.2761 113.873 55.2543 102.257 55.4371 102.142C55.5192 102.088 64.0242 96.7316 75.5814 93.6817C82.3493 91.8954 93.1751 90.9694 103.377 93.6817C103.452 93.6583 103.532 93.6513 103.614 93.6653C103.858 93.7052 128.116 97.4724 140.925 83.1794C154.548 67.9792 159.747 31.5072 159.797 31.1415C159.832 30.8836 160.052 30.6914 160.312 30.6914H174.889C175.159 30.6914 175.384 30.8977 175.407 31.1649C175.435 31.4767 178.155 62.7328 172.73 87.2069C167.312 111.646 149.977 126.314 123.894 128.541C123.1 130.625 122.321 132.564 121.569 134.444C117.884 143.64 114.698 151.58 112.963 168.349C112.208 175.644 112.74 181.929 113.167 186.979C113.505 190.983 113.772 194.143 113.362 196.696C112.736 200.587 97.165 202.964 86.8503 203.614C84.0957 203.787 81.2826 203.881 78.5023 203.881L78.5 203.883ZM89.6845 93.0441C84.2833 93.0441 79.3603 93.7614 75.8439 94.6898C64.4508 97.6951 56.0748 102.97 55.9927 103.024C55.8146 103.136 38.3287 114.454 38.7436 135.503C38.9921 148.108 46.2312 162.54 49.7101 169.474C51.1378 172.318 51.5879 173.239 51.555 173.705C51.1565 179.458 50.7486 183.017 50.4532 185.614C49.9422 190.068 49.8226 191.126 50.8635 194.68C53.0179 202.036 71.561 203.531 86.7846 202.575C101.636 201.642 111.983 198.698 112.332 196.532C112.722 194.105 112.447 190.844 112.128 187.068C111.697 181.974 111.163 175.637 111.927 168.241C113.678 151.329 116.885 143.324 120.601 134.057C121.388 132.09 122.204 130.058 123.036 127.866C123.107 127.678 123.28 127.547 123.482 127.531C149.252 125.439 166.382 111.039 171.713 86.9818C176.736 64.3152 174.725 35.748 174.408 31.7323H160.76C160.113 35.9988 154.698 69.367 141.699 83.8733C129.251 97.7631 106.462 95.1094 103.715 94.732C103.609 94.7788 103.49 94.7906 103.368 94.7577C98.8294 93.52 94.0987 93.0418 89.6845 93.0418V93.0441Z" fill="black"/>
<path d="M356.611 403.525H102.15C94.2479 403.525 88.2278 396.293 89.4913 388.323L144.218 43.2635C145.224 36.9176 150.588 32.2549 156.877 32.2549H411.337C419.24 32.2549 425.26 39.4869 423.996 47.4574L369.27 392.514C368.264 398.86 362.9 403.523 356.611 403.523V403.525Z" fill="white"/>
<path d="M356.611 404.046H102.151C98.2944 404.046 94.6279 402.344 92.0938 399.376C89.4776 396.312 88.3406 392.252 88.9783 388.241L143.703 43.1818C144.755 36.5475 150.295 31.7324 156.875 31.7324H411.335C415.192 31.7324 418.858 33.4344 421.392 36.4022C424.009 39.4661 425.146 43.5264 424.508 47.5374L369.781 392.594C368.728 399.228 363.189 404.043 356.609 404.043L356.611 404.046ZM156.877 32.7756C150.813 32.7756 145.705 37.2203 144.734 43.3459L90.0074 388.403C89.419 392.114 90.4692 395.867 92.8862 398.699C95.2234 401.434 98.5991 403.003 102.151 403.003H356.611C362.676 403.003 367.784 398.558 368.754 392.432L423.481 47.3757C424.069 43.6647 423.019 39.9116 420.602 37.0797C418.265 34.3439 414.889 32.7756 411.338 32.7756H156.877Z" fill="black"/>
<path d="M348.526 402.627H94.0654C86.1629 402.627 80.1428 395.407 81.4064 387.451L136.131 42.9919C137.137 36.6577 142.5 32.002 148.79 32.002H403.25C411.153 32.002 417.173 39.2223 415.909 47.1787L361.182 391.638C360.177 397.972 354.813 402.627 348.523 402.627H348.526Z" fill="white"/>
<path d="M348.526 403.15H94.0655C90.2021 403.15 86.5357 401.448 83.9992 398.478C81.3877 395.421 80.2554 391.373 80.8907 387.371L135.618 42.9097C136.67 36.2872 142.21 31.4814 148.79 31.4814H403.25C407.114 31.4814 410.782 33.1834 413.316 36.1536C415.928 39.2105 417.06 43.259 416.425 47.2607L361.698 391.72C360.646 398.342 355.106 403.148 348.526 403.148V403.15ZM148.79 32.5223C142.725 32.5223 137.617 36.96 136.647 43.0738L81.9199 387.533C81.3315 391.232 82.3793 394.973 84.7916 397.801C87.1288 400.539 90.5092 402.107 94.0655 402.107H348.526C354.59 402.107 359.699 397.669 360.669 391.555L415.396 47.0966C415.984 43.3973 414.936 39.6559 412.524 36.8287C410.187 34.0906 406.806 32.5223 403.25 32.5223H148.79Z" fill="black"/>
<path d="M306.92 63.9918H233.158C221.369 63.9918 212.411 53.1918 214.376 41.3462L216.099 30.9635C216.275 29.9109 217.17 29.1396 218.218 29.1396H331.833C333.162 29.1396 334.175 30.3587 333.952 31.6949L332.205 42.2159C330.119 54.7906 319.431 63.9941 306.918 63.9941L306.92 63.9918Z" fill="white"/>
<path d="M306.92 64.5121H233.158C227.466 64.5121 222.067 61.9967 218.347 57.6083C214.521 53.0956 212.887 47.1365 213.862 41.2617L215.585 30.879C215.803 29.5686 216.91 28.6191 218.218 28.6191H331.832C332.611 28.6191 333.349 28.9614 333.856 29.5615C334.376 30.1734 334.596 30.9822 334.465 31.7816L332.719 42.3026C330.583 55.1726 319.731 64.5145 306.918 64.5145L306.92 64.5121ZM218.218 29.66C217.421 29.66 216.746 30.2437 216.612 31.0501L214.889 41.4329C213.963 47.0075 215.512 52.6572 219.141 56.9355C222.662 61.0895 227.771 63.4713 233.158 63.4713H306.92C319.223 63.4713 329.643 54.4951 331.694 42.1291L333.441 31.6081C333.523 31.1134 333.384 30.6118 333.063 30.2343C332.754 29.8686 332.306 29.66 331.835 29.66H218.22H218.218Z" fill="black"/>
<path d="M257.266 51.8647H288.764C289.959 51.8647 290.977 51.0747 291.169 49.8674L295.485 21.8043C297.215 10.6339 288.778 0.513672 277.722 0.513672C268.879 0.513672 261.35 7.06354 259.962 15.9975L254.858 49.0774C254.617 50.5941 255.761 51.8647 257.264 51.8647H257.266ZM270.152 17.8073L270.188 17.5963C270.783 13.9768 273.845 11.3254 277.434 11.3254C281.979 11.3254 285.432 15.5029 284.68 20.0883L284.645 20.2992C284.049 23.9188 280.988 26.5701 277.399 26.5701C272.855 26.5701 269.4 22.3927 270.152 17.8073Z" fill="white"/>
<path d="M288.766 52.3851H257.269C256.385 52.3851 255.557 52.01 254.999 51.356C254.451 50.7136 254.214 49.8533 254.35 48.9953L259.451 15.9177C260.886 6.69072 268.57 -0.00683594 277.727 -0.00683594C283.056 -0.00683594 288.126 2.34446 291.638 6.44223C295.274 10.6853 296.866 16.3139 296.003 21.8815L291.687 49.9447C291.46 51.3817 290.26 52.3827 288.766 52.3827V52.3851ZM277.725 1.03402C269.086 1.03402 261.833 7.36118 260.478 16.0771L255.375 49.1547C255.285 49.722 255.431 50.2612 255.787 50.6785C256.148 51.1004 256.685 51.3419 257.264 51.3419H288.762C289.73 51.3419 290.508 50.7019 290.651 49.7853L294.967 21.7245C295.783 16.4569 294.28 11.1331 290.841 7.12207C287.526 3.25403 282.744 1.03636 277.72 1.03636L277.725 1.03402ZM277.399 27.0905C275.116 27.0905 272.949 26.0801 271.456 24.3196C269.911 22.5004 269.25 20.0976 269.639 17.7228L269.675 17.5118C270.312 13.6251 273.575 10.8049 277.434 10.8049C279.715 10.8049 281.883 11.8153 283.377 13.5758C284.922 15.395 285.583 17.7978 285.194 20.1726L285.161 20.3812C284.523 24.268 281.258 27.0905 277.401 27.0905H277.399ZM270.666 17.8916C270.326 19.9639 270.903 22.0597 272.249 23.6444C273.545 25.1705 275.423 26.0473 277.397 26.0473C280.742 26.0473 283.574 23.5929 284.129 20.2124L284.162 20.0038C284.502 17.9315 283.925 15.8333 282.58 14.2486C281.283 12.7225 279.406 11.8458 277.432 11.8458C274.086 11.8458 271.255 14.3002 270.699 17.6806L270.664 17.8916H270.666Z" fill="black"/>
<path d="M281.306 271.503H270.637C269.275 271.503 267.984 270.903 267.09 269.86C266.174 268.789 265.775 267.371 265.998 265.969L288.05 126.316C288.418 123.986 290.369 122.296 292.69 122.296H303.363C304.725 122.296 306.017 122.896 306.91 123.939C307.827 125.011 308.223 126.429 308.002 127.831L285.945 267.483C285.577 269.813 283.627 271.503 281.306 271.503ZM289.08 126.478L267.027 266.13C266.854 267.23 267.165 268.343 267.883 269.183C268.577 269.996 269.58 270.46 270.637 270.46H281.306C283.111 270.46 284.628 269.14 284.916 267.319L306.973 127.667C307.147 126.567 306.835 125.454 306.118 124.614C305.424 123.801 304.42 123.337 303.363 123.337H292.69C290.885 123.337 289.368 124.657 289.08 126.478Z" fill="black"/>
<path d="M250.233 271.504H239.559C238.202 271.504 236.91 270.906 236.019 269.867C235.103 268.801 234.702 267.385 234.917 265.988L250.924 162.181C251.285 159.842 253.238 158.145 255.566 158.145H266.244C267.601 158.145 268.893 158.742 269.784 159.781C270.7 160.847 271.101 162.263 270.883 163.661L254.872 267.465C254.511 269.804 252.558 271.501 250.23 271.501L250.233 271.504ZM255.566 159.185C253.756 159.185 252.237 160.512 251.953 162.341L235.947 266.147C235.778 267.244 236.092 268.355 236.809 269.19C237.503 269.999 238.507 270.463 239.559 270.463H250.233C252.045 270.463 253.561 269.136 253.845 267.31L269.856 163.504C270.025 162.406 269.711 161.295 268.994 160.461C268.3 159.652 267.296 159.188 266.244 159.188H255.566V159.185Z" fill="black"/>
<path d="M219.176 271.503H208.503C207.143 271.503 205.854 270.906 204.961 269.865C204.044 268.796 203.645 267.38 203.861 265.98L215.807 189.06C216.171 186.723 218.121 185.028 220.449 185.028H231.127C232.487 185.028 233.776 185.626 234.669 186.667C235.586 187.736 235.984 189.152 235.769 190.551L223.818 267.471C223.454 269.809 221.502 271.503 219.176 271.503ZM216.839 189.22L204.893 266.14C204.721 267.239 205.036 268.348 205.753 269.185C206.447 269.996 207.45 270.46 208.503 270.46H219.176C220.986 270.46 222.503 269.136 222.786 267.31L234.737 190.39C234.908 189.29 234.594 188.181 233.877 187.344C233.183 186.533 232.18 186.069 231.127 186.069H220.449C218.639 186.069 217.12 187.394 216.839 189.22Z" fill="black"/>
<path d="M188.124 271.503H177.455C176.093 271.503 174.802 270.905 173.911 269.86C172.994 268.789 172.596 267.37 172.818 265.971L180.695 215.935C181.061 213.605 183.013 211.912 185.334 211.912H196.008C197.37 211.912 198.661 212.51 199.552 213.555C200.469 214.627 200.867 216.045 200.645 217.445L192.763 267.481C192.395 269.811 190.445 271.503 188.124 271.503ZM185.33 212.953C183.525 212.953 182.005 214.275 181.719 216.094L173.843 266.13C173.669 267.23 173.981 268.341 174.698 269.18C175.392 269.991 176.396 270.458 177.453 270.458H188.122C189.927 270.458 191.446 269.136 191.732 267.316L199.613 217.28C199.787 216.181 199.475 215.07 198.758 214.228C198.064 213.417 197.06 212.951 196.003 212.951H185.33V212.953Z" fill="black"/>
<path d="M157.006 271.503H146.316C144.968 271.503 143.686 270.915 142.795 269.888C141.881 268.836 141.471 267.434 141.667 266.044L145.627 238.114C145.957 235.779 147.957 234.019 150.278 234.019H160.972C162.32 234.019 163.603 234.607 164.494 235.634C165.408 236.686 165.818 238.088 165.621 239.478L161.659 267.408C161.329 269.743 159.329 271.503 157.008 271.503H157.006ZM146.656 238.259L142.697 266.189C142.542 267.279 142.863 268.378 143.58 269.204C144.274 270.003 145.271 270.46 146.316 270.46H157.006C158.811 270.46 160.365 269.084 160.626 267.26L164.587 239.331C164.742 238.241 164.421 237.141 163.704 236.316C163.01 235.517 162.013 235.059 160.968 235.059H150.273C148.468 235.059 146.914 236.435 146.654 238.259H146.656Z" fill="black"/>
<path d="M141.717 308.614C137.805 308.614 134.621 305.374 134.621 301.393C134.621 297.413 137.805 294.173 141.717 294.173C145.63 294.173 148.813 297.413 148.813 301.393C148.813 305.374 145.63 308.614 141.717 308.614ZM141.717 295.214C138.379 295.214 135.662 297.985 135.662 301.393C135.662 304.802 138.379 307.573 141.717 307.573C145.055 307.573 147.772 304.802 147.772 301.393C147.772 297.985 145.055 295.214 141.717 295.214Z" fill="black"/>
<path d="M136.098 336.227C132.185 336.227 129.002 332.987 129.002 329.006C129.002 325.026 132.185 321.786 136.098 321.786C140.011 321.786 143.194 325.026 143.194 329.006C143.194 332.987 140.011 336.227 136.098 336.227ZM136.098 322.827C132.76 322.827 130.043 325.598 130.043 329.006C130.043 332.415 132.76 335.186 136.098 335.186C139.436 335.186 142.153 332.415 142.153 329.006C142.153 325.598 139.436 322.827 136.098 322.827Z" fill="black"/>
<path d="M131.142 365.185C127.229 365.185 124.046 361.945 124.046 357.964C124.046 353.984 127.229 350.744 131.142 350.744C135.055 350.744 138.238 353.984 138.238 357.964C138.238 361.945 135.055 365.185 131.142 365.185ZM131.142 351.785C127.804 351.785 125.087 354.556 125.087 357.964C125.087 361.373 127.804 364.144 131.142 364.144C134.48 364.144 137.197 361.373 137.197 357.964C137.197 354.556 134.48 351.785 131.142 351.785Z" fill="black"/>
<path d="M231.273 301.914H160.884C160.595 301.914 160.363 301.682 160.363 301.393C160.363 301.105 160.595 300.873 160.884 300.873H231.273C231.561 300.873 231.793 301.107 231.793 301.393C231.793 301.679 231.559 301.914 231.273 301.914Z" fill="black"/>
<path d="M226.865 329.302H219.539C219.251 329.302 219.019 329.07 219.019 328.781C219.019 328.493 219.251 328.261 219.539 328.261H226.865C227.153 328.261 227.385 328.495 227.385 328.781C227.385 329.067 227.153 329.302 226.865 329.302Z" fill="white"/>
<path d="M206.156 329.302H156.476C156.188 329.302 155.956 329.07 155.956 328.781C155.956 328.493 156.188 328.261 156.476 328.261H206.156C206.444 328.261 206.677 328.495 206.677 328.781C206.677 329.067 206.442 329.302 206.156 329.302Z" fill="black"/>
<path d="M221.138 357.588H150.749C150.461 357.588 150.229 357.353 150.229 357.067C150.229 356.781 150.461 356.547 150.749 356.547H221.138C221.426 356.547 221.658 356.779 221.658 357.067C221.658 357.356 221.424 357.588 221.138 357.588Z" fill="black"/>
<path d="M146.559 174.929C146.559 174.929 157.084 174.775 162.584 172.386C168.084 169.999 167.999 174.139 166.443 175.595C165.181 176.777 157.581 181.013 150.767 181.507L146.559 174.927V174.929Z" fill="white"/>
<path d="M150.768 182.028C150.593 182.028 150.426 181.939 150.33 181.789L146.122 175.208C146.019 175.049 146.012 174.847 146.101 174.681C146.19 174.514 146.364 174.409 146.551 174.406C146.654 174.406 157.037 174.224 162.377 171.907C165.76 170.44 167.047 171.41 167.513 172.121C168.278 173.284 167.75 175.086 166.801 175.977C165.345 177.339 157.583 181.538 150.808 182.028C150.797 182.028 150.782 182.028 150.771 182.028H150.768ZM147.493 175.424L151.038 180.963C157.714 180.37 165.036 176.2 166.088 175.215C166.721 174.622 167.101 173.391 166.641 172.693C166.154 171.95 164.752 172.013 162.792 172.864C158.16 174.875 150.21 175.328 147.493 175.424Z" fill="black"/>
<path d="M131.206 170.984L136.427 160.672L141.27 163.487C141.537 163.642 141.765 163.86 141.933 164.118L142.238 164.589C142.62 165.18 143.293 165.522 143.989 165.48C144.367 165.457 144.744 165.546 145.075 165.738L181.087 186.63C181.385 186.801 181.657 187.012 181.901 187.256L189.339 194.734L179.413 193.004C178.872 192.91 178.344 192.746 177.845 192.514L140.173 175.122C139.852 174.974 139.575 174.74 139.376 174.447L139.327 174.374C138.942 173.811 138.29 173.488 137.62 173.523L137.28 173.542C136.968 173.558 136.656 173.497 136.37 173.366L131.208 170.984H131.206Z" fill="white"/>
<path d="M189.336 195.256C189.306 195.256 189.275 195.254 189.247 195.249L179.322 193.519C178.738 193.416 178.166 193.238 177.624 192.989L139.952 175.597C139.544 175.41 139.197 175.114 138.942 174.744L138.892 174.669C138.611 174.259 138.138 174.02 137.643 174.046L137.303 174.064C136.909 174.085 136.511 174.008 136.147 173.842L130.985 171.46C130.856 171.401 130.758 171.291 130.711 171.157C130.664 171.024 130.673 170.876 130.739 170.752L135.96 160.439C136.025 160.31 136.14 160.217 136.276 160.174C136.412 160.135 136.562 160.151 136.686 160.224L141.53 163.039C141.867 163.234 142.156 163.51 142.367 163.839L142.671 164.31C142.953 164.746 143.447 164.994 143.951 164.964C144.434 164.933 144.91 165.048 145.332 165.292L181.345 186.184C181.68 186.379 181.992 186.618 182.266 186.894L189.704 194.373C189.864 194.534 189.901 194.78 189.796 194.98C189.704 195.153 189.526 195.261 189.334 195.261L189.336 195.256ZM137.716 173.002C138.52 173.002 139.291 173.408 139.753 174.083L139.802 174.156C139.95 174.371 140.151 174.542 140.388 174.65L178.06 192.042C178.52 192.253 179.005 192.406 179.5 192.493L187.81 193.941L181.528 187.626C181.317 187.415 181.08 187.232 180.822 187.082L144.809 166.19C144.566 166.049 144.291 165.984 144.017 166C143.129 166.056 142.282 165.623 141.797 164.872L141.492 164.401C141.37 164.211 141.202 164.052 141.005 163.937L136.64 161.401L131.911 170.738L136.581 172.894C136.79 172.991 137.017 173.035 137.244 173.023L137.584 173.005C137.627 173.005 137.671 173.002 137.713 173.002H137.716Z" fill="black"/>
<path d="M180.063 190.609C179.992 190.609 179.922 190.595 179.854 190.565C179.591 190.45 179.472 190.141 179.587 189.878L180.96 186.76C181.075 186.498 181.385 186.378 181.647 186.493C181.91 186.608 182.029 186.917 181.914 187.18L180.541 190.298C180.454 190.492 180.264 190.609 180.065 190.609H180.063Z" fill="black"/>
<path d="M128.052 156.116L135.892 160.343C136.293 160.559 136.447 161.06 136.236 161.466L131.637 170.29C131.421 170.702 130.912 170.859 130.505 170.639L122.682 166.422C121.113 165.575 120.492 163.639 121.299 162.094L123.755 157.382C124.559 155.837 126.484 155.272 128.055 156.119L128.052 156.116Z" fill="black"/>
<path d="M130.894 171.26C130.674 171.26 130.453 171.206 130.254 171.098L122.431 166.881C120.614 165.901 119.899 163.646 120.832 161.855L123.289 157.143C123.737 156.285 124.496 155.654 125.425 155.368C126.381 155.075 127.401 155.179 128.296 155.662L136.136 159.888C136.785 160.238 137.036 161.056 136.694 161.71L132.094 170.534C131.925 170.857 131.639 171.096 131.29 171.202C131.159 171.241 131.025 171.263 130.892 171.263L130.894 171.26ZM126.513 156.243C126.25 156.243 125.99 156.283 125.734 156.36C125.073 156.564 124.534 157.009 124.215 157.621L121.758 162.333C121.086 163.625 121.611 165.252 122.928 165.962L130.751 170.18C130.826 170.219 130.908 170.229 130.99 170.203C131.07 170.177 131.135 170.123 131.175 170.048L135.775 161.224C135.854 161.072 135.796 160.882 135.646 160.802L127.807 156.576C127.399 156.355 126.956 156.245 126.513 156.245V156.243Z" fill="black"/>
<path d="M139.502 172.519C139.42 172.519 139.335 172.5 139.256 172.458C139.002 172.322 138.906 172.006 139.042 171.752L141.64 166.902C141.776 166.649 142.09 166.553 142.345 166.689C142.598 166.825 142.695 167.141 142.559 167.394L139.961 172.245C139.867 172.42 139.687 172.519 139.502 172.519Z" fill="black"/>
<path d="M156.397 176.223C156.31 176.223 156.223 176.202 156.141 176.158L145.405 170.131C145.154 169.99 145.065 169.671 145.205 169.42C145.346 169.169 145.662 169.08 145.916 169.221L156.652 175.248C156.903 175.389 156.992 175.708 156.852 175.958C156.756 176.13 156.58 176.223 156.397 176.223Z" fill="black"/>
<path d="M177.65 188.624C177.564 188.624 177.477 188.603 177.397 188.558L173.203 186.226C172.952 186.085 172.861 185.769 173.002 185.518C173.142 185.267 173.459 185.175 173.71 185.316L177.904 187.649C178.154 187.789 178.246 188.106 178.105 188.357C178.009 188.528 177.833 188.624 177.65 188.624Z" fill="black"/>
<path d="M130.118 167.584C130.033 167.584 129.946 167.563 129.867 167.521L123.877 164.237C123.624 164.098 123.533 163.782 123.671 163.529C123.809 163.275 124.126 163.184 124.379 163.322L130.368 166.607C130.622 166.745 130.713 167.061 130.575 167.315C130.481 167.488 130.3 167.584 130.118 167.584Z" fill="white"/>
<path d="M127.576 179.05C127.576 179.05 136.89 180.372 143.173 175.52C148.515 171.392 159.336 183.207 160.267 184.707C161.585 186.831 158.685 190.167 155.337 188.277C155.337 188.277 154.451 193.543 147.226 194.426C140.001 195.31 136.918 190.577 134.98 189.871C133.041 189.166 127.487 189.126 127.487 189.126L127.576 179.05Z" fill="white"/>
<path d="M145.454 195.057C141.012 195.057 138.316 192.94 136.459 191.482C135.798 190.964 135.228 190.514 134.799 190.359C132.966 189.691 127.537 189.647 127.483 189.647C127.345 189.647 127.213 189.59 127.115 189.492C127.019 189.393 126.965 189.26 126.965 189.121L127.054 179.046C127.054 178.896 127.122 178.753 127.234 178.657C127.347 178.558 127.497 178.514 127.647 178.535C127.738 178.546 136.822 179.765 142.852 175.107C143.982 174.233 145.395 173.942 147.055 174.242C152.827 175.286 159.967 183.242 160.706 184.433C161.411 185.57 161.177 187.07 160.122 188.167C159.231 189.096 157.574 189.808 155.663 189.018C155.138 190.533 153.258 194.213 147.285 194.945C146.643 195.022 146.033 195.059 145.452 195.059L145.454 195.057ZM128.013 188.61C129.461 188.638 133.496 188.772 135.158 189.379C135.742 189.593 136.342 190.064 137.104 190.662C139.068 192.204 142.034 194.534 147.161 193.906C153.886 193.083 154.787 188.385 154.822 188.186C154.85 188.02 154.96 187.877 155.112 187.804C155.267 187.731 155.445 187.738 155.591 187.82C157.225 188.744 158.615 188.231 159.372 187.443C159.97 186.819 160.34 185.818 159.822 184.979C159.201 183.978 152.273 176.242 146.872 175.264C145.499 175.016 144.39 175.234 143.49 175.928C137.95 180.206 130.277 179.838 128.092 179.629L128.013 188.608V188.61Z" fill="black"/>
<path d="M64.2931 104.153C64.2931 104.153 51.5356 109.522 44.8006 131.373C41.0826 143.431 41.7647 160.629 60.0992 183.49C63.7656 188.061 68.916 192.609 74.7321 193.268L130.453 193.81L130.204 175.972C130.204 175.972 86.9926 170.358 80.4966 167.915C74.7438 165.751 66.4123 137.585 65.5449 123.765L64.2931 104.156V104.153Z" fill="white"/>
<path d="M130.451 194.328H130.446L74.7251 193.786C74.7064 193.786 74.69 193.786 74.6712 193.784C68.323 193.066 63.0202 187.968 59.6914 183.816C57.7152 181.352 55.8116 178.858 54.03 176.399C53.8612 176.167 53.9128 175.841 54.1449 175.672C54.3769 175.503 54.7028 175.555 54.8716 175.789C56.6438 178.234 58.538 180.717 60.5025 183.166C63.7048 187.159 68.7754 192.061 74.7603 192.75L129.921 193.287L129.686 176.434C124.829 175.798 86.5074 170.737 80.3115 168.407C75.1377 166.461 69.0216 146.912 66.5155 134.314C66.4593 134.033 66.6421 133.759 66.9258 133.703C67.2071 133.646 67.4814 133.829 67.5376 134.113C70.4211 148.621 76.5279 165.873 80.6772 167.434C87.0419 169.828 129.836 175.407 130.268 175.461C130.526 175.494 130.718 175.712 130.723 175.97L130.971 193.807C130.971 193.948 130.917 194.084 130.819 194.182C130.72 194.281 130.589 194.335 130.451 194.335V194.328Z" fill="black"/>
<path d="M177.819 33.2482C178.468 34.9385 179.739 39.4863 177.643 42.5339C175.765 45.2673 171.841 45.3775 169.614 42.923C168.447 41.636 167.879 39.5332 167.005 36.5654C166.576 35.1072 165.936 34.1016 165.23 33.1967C164.769 32.6059 164.063 32.2613 163.313 32.259L156.686 32.2261C156.686 32.2261 156.737 29.6451 158.666 28.6113C160.354 27.7064 164.722 28.4519 165.064 27.9385C168.883 22.1974 175.21 26.4499 177.819 33.2506V33.2482Z" fill="white"/>
<path d="M173.536 45.1972C171.904 45.1972 170.353 44.508 169.23 43.2726C168.051 41.9739 167.469 39.9906 166.663 37.2408L166.506 36.711C166.074 35.2459 165.411 34.2753 164.82 33.5158C164.457 33.0493 163.906 32.7797 163.31 32.7773L156.683 32.7445C156.545 32.7445 156.411 32.6883 156.313 32.5875C156.214 32.4867 156.163 32.353 156.165 32.2124C156.167 32.0952 156.247 29.3125 158.42 28.1474C159.503 27.5661 161.414 27.5895 162.947 27.6082C163.606 27.6153 164.417 27.627 164.689 27.5567C166.456 24.9592 168.533 24.5982 169.973 24.7576C173.189 25.114 176.537 28.4498 178.304 33.0587C178.691 34.069 180.503 39.2897 178.072 42.8249C177.12 44.208 175.611 45.0683 173.928 45.1808C173.796 45.1902 173.665 45.1949 173.534 45.1949L173.536 45.1972ZM157.267 31.706L163.315 31.7365C164.232 31.7412 165.08 32.1561 165.641 32.8758C166.292 33.7104 167.024 34.7864 167.504 36.418L167.661 36.9501C168.428 39.564 168.984 41.4535 170.001 42.574C170.997 43.6735 172.404 44.2455 173.86 44.147C175.224 44.0556 176.445 43.3593 177.217 42.2388C179.35 39.1326 177.69 34.3597 177.334 33.4361C175.728 29.2469 172.655 26.1056 169.86 25.7961C168.165 25.6086 166.696 26.4244 165.5 28.2248C165.209 28.6632 164.546 28.6725 162.938 28.6514C161.597 28.635 159.764 28.6116 158.915 29.0664C157.773 29.6782 157.394 30.9746 157.269 31.7037L157.267 31.706Z" fill="black"/>
<path d="M69.3585 363.45L65.2959 382.947L75.9295 385.957L81.8089 366.976L69.3585 363.45Z" fill="white"/>
<path d="M75.9298 386.477C75.8829 386.477 75.836 386.47 75.7868 386.459L65.1556 383.449C64.893 383.374 64.7313 383.109 64.7875 382.842L68.8478 363.347C68.8783 363.206 68.965 363.082 69.0869 363.007C69.2112 362.932 69.3588 362.911 69.4995 362.95L81.9499 366.476C82.0858 366.514 82.1984 366.605 82.2663 366.729C82.3343 366.854 82.3484 366.999 82.3062 367.133L76.4268 386.114C76.3588 386.337 76.1525 386.482 75.9298 386.482V386.477ZM65.9057 382.577L75.5829 385.317L81.1552 367.332L69.755 364.104L65.9057 382.577Z" fill="black"/>
<path d="M61.7803 399.378C61.8999 401.254 64.1949 402.759 66.0492 403.04C72.4983 404.015 87.654 403.603 91.7705 403.889C97.1131 404.259 107.146 403.86 107.536 400.452C108.009 396.293 103.529 390.229 92.809 386.907C87.2648 385.188 81.4018 376.676 78.8067 376.524C76.2116 376.372 71.6192 383.095 71.6192 383.095L64.2301 380.582C64.2301 380.582 61.1708 389.865 61.778 399.381L61.7803 399.378Z" fill="white"/>
<path d="M95.1343 404.5C93.1768 404.5 91.782 404.409 91.7351 404.406C90.3286 404.31 87.5647 404.294 84.3624 404.277C78.0657 404.242 70.2289 404.2 65.9717 403.555C63.8032 403.227 61.3933 401.485 61.2621 399.413C60.6525 389.909 63.7071 380.513 63.7376 380.42C63.7821 380.288 63.8759 380.178 64.0001 380.117C64.1244 380.054 64.2674 380.045 64.401 380.089L71.4174 382.476C72.4606 380.999 76.2864 375.855 78.8393 376.003C80.1896 376.083 81.9924 377.811 84.278 380C86.8333 382.448 90.0144 385.495 92.9659 386.409C104.047 389.844 108.555 396.126 108.056 400.51C107.66 403.982 99.8017 404.502 95.1366 404.502L95.1343 404.5ZM64.5721 381.245C63.9626 383.294 61.7848 391.285 62.3006 399.343C62.399 400.89 64.3963 402.261 66.1264 402.521C70.3109 403.154 78.1056 403.197 84.3671 403.232C87.5858 403.25 90.3684 403.265 91.8054 403.365C97.7575 403.776 106.708 403.115 107.017 400.388C107.484 396.29 102.702 390.514 92.6541 387.401C89.4659 386.414 86.1886 383.273 83.5536 380.748C81.5938 378.87 79.7419 377.096 78.7737 377.039C77.0928 376.941 73.7593 380.879 72.0457 383.385C71.9144 383.577 71.6706 383.659 71.4479 383.584L64.5675 381.243L64.5721 381.245Z" fill="black"/>
<path d="M97.9197 399.429C96.5084 399.429 94.9589 399.349 93.3179 399.263C90.8869 399.136 88.3715 399.005 85.8959 399.117C80.2791 399.373 75.4733 399.152 72.4328 398.92C66.7949 398.491 66.5722 398.135 66.4878 398.001C66.387 397.842 66.38 397.638 66.4714 397.472C66.6097 397.218 66.9262 397.125 67.177 397.261C67.177 397.261 67.1817 397.261 67.184 397.263C68.0842 397.5 75.9141 398.526 85.8491 398.074C88.3738 397.959 90.915 398.09 93.3718 398.219C97.0945 398.414 100.609 398.597 102.641 397.732C102.906 397.619 103.211 397.741 103.326 398.006C103.438 398.271 103.316 398.576 103.051 398.691C101.72 399.258 99.9639 399.427 97.9197 399.427V399.429Z" fill="black"/>
<path d="M84.1588 392.743C84.0276 392.743 83.8963 392.694 83.7955 392.596C83.5892 392.394 83.5868 392.063 83.7861 391.859L87.6776 387.877C87.8792 387.67 88.2097 387.668 88.4137 387.867C88.62 388.069 88.6223 388.399 88.423 388.603L84.5316 392.586C84.4284 392.692 84.2948 392.743 84.1588 392.743Z" fill="black"/>
<path d="M11.69 362.523L11.1484 376.12L20.6404 378.413L22.3306 362.62L11.69 362.523Z" fill="white"/>
<path d="M20.6407 378.936C20.6008 378.936 20.5586 378.931 20.5187 378.921L11.0268 376.629C10.7854 376.57 10.6189 376.35 10.6283 376.101L11.1698 362.502C11.1816 362.223 11.4113 362.003 11.6903 362.003H11.6949L22.3356 362.099C22.4832 362.099 22.6216 362.165 22.72 362.273C22.8185 362.383 22.8654 362.528 22.8489 362.673L21.1587 378.469C21.1423 378.619 21.0626 378.753 20.9407 378.839C20.8516 378.903 20.7461 378.936 20.6407 378.936ZM11.6856 375.715L20.1835 377.768L21.7495 363.135L12.1872 363.048L11.6832 375.715H11.6856Z" fill="black"/>
<path d="M22.0898 403.138C18.2851 403.674 12.0775 403.902 4.72588 403.131C1.42984 402.784 0.145188 398.201 0.724221 395.842C2.33707 389.271 5.13847 378.675 9.9067 372.899L11.6579 376.427L13.3106 372.988C13.5356 372.585 13.9365 372.311 14.3936 372.252L17.9592 372.287C18.7071 372.191 19.4033 372.688 19.558 373.429L20.1277 376.146L23.1705 372.636L25.5453 398.557C25.836 400.777 24.2981 402.826 22.0875 403.138H22.0898Z" fill="white"/>
<path d="M13.9715 404.153C11.36 404.153 8.23978 404.024 4.66947 403.649C3.40123 403.515 2.29004 402.819 1.45549 401.63C0.145045 399.769 -0.15971 397.246 0.215372 395.718C2.14939 387.834 4.95313 378.08 9.50334 372.568C9.61586 372.432 9.79168 372.362 9.96516 372.383C10.141 372.404 10.2934 372.512 10.3731 372.669L11.6507 375.241L12.8416 372.763C13.158 372.189 13.7089 371.816 14.3302 371.736C14.3536 371.734 14.3724 371.731 14.4005 371.731L17.9333 371.764C18.9343 371.656 19.8626 372.334 20.0713 373.321L20.4253 375.011L22.7812 372.296C22.9172 372.139 23.1352 372.078 23.3345 372.142C23.5337 372.205 23.6744 372.383 23.6932 372.589L26.0679 398.51C26.3937 400.988 24.6449 403.304 22.1647 403.653C20.8074 403.846 17.9989 404.153 13.9738 404.153H13.9715ZM9.8034 373.869C5.13129 380.058 2.41195 391.142 1.22809 395.969C0.916307 397.237 1.19059 399.443 2.3088 401.032C2.97457 401.979 3.80678 402.512 4.77965 402.615C10.9919 403.266 17.434 403.271 22.017 402.624C23.9323 402.355 25.2849 400.561 25.0317 398.627L22.7672 373.905L20.5261 376.49C20.3971 376.64 20.1932 376.704 20.0009 376.654C19.8087 376.605 19.6634 376.45 19.6212 376.258L19.0515 373.541C18.9531 373.07 18.5053 372.749 18.0271 372.81C18.0036 372.812 17.9802 372.814 17.9567 372.814L14.431 372.782C14.152 372.826 13.9059 373 13.7676 373.248L12.1289 376.661C12.0422 376.842 11.8617 376.954 11.6624 376.957C11.4866 376.947 11.2803 376.847 11.1936 376.668L9.80809 373.879L9.8034 373.869Z" fill="black"/>
<path d="M11.5169 399.897C9.08359 399.897 6.45098 399.682 3.82541 399.082C3.5441 399.018 3.37062 398.739 3.43391 398.458C3.49721 398.177 3.77852 398.003 4.05749 398.067C13.0079 400.111 22.3638 397.483 22.4576 397.457C22.7319 397.377 23.0226 397.537 23.1023 397.813C23.182 398.09 23.0226 398.378 22.7459 398.458C22.4646 398.538 17.6214 399.897 11.5193 399.897H11.5169Z" fill="black"/>
<path d="M9.33712 389.834C9.05815 389.834 8.82607 389.612 8.81669 389.33C8.80731 389.042 9.03236 388.803 9.32071 388.793L17.8749 388.51C18.1586 388.507 18.4024 388.725 18.4118 389.014C18.4211 389.302 18.1961 389.541 17.9077 389.551L9.35353 389.834C9.35353 389.834 9.3418 389.834 9.33712 389.834Z" fill="black"/>
<path d="M111.915 199.654C115.515 220.726 122.061 272.514 107.929 311.25C95.7673 344.588 87.0865 361.19 83.7506 367.219C82.8387 368.867 81.0196 369.786 79.1535 369.547L70.4845 368.431C67.9152 368.101 66.1265 365.707 66.5367 363.143C69.6991 343.308 82.262 246.759 78.9144 237.835L25.0785 364.39C24.4971 365.733 23.1702 366.596 21.7097 366.579L12.6164 366.479C10.5909 366.455 8.97571 364.77 9.02963 362.739C11.7162 260.307 41.704 243.824 50.4903 194.85C50.5114 194.736 53.3667 198.177 53.4745 198.24C62.2725 203.337 66.675 202.941 80.171 203.679C94.771 204.476 108.33 198.967 111.528 199.117C111.772 199.129 111.872 199.412 111.915 199.656V199.654Z" fill="black"/>
<path d="M95.8317 101.534L98.3189 88.7738C98.4971 87.9158 99.2051 87.2687 100.072 87.1679L105.075 86.5983C106.142 86.4764 106.997 85.6582 107.166 84.5939L108.298 77.4768C108.298 77.4768 108.308 77.4557 108.317 77.451L110.694 76.164C111.168 75.9085 111.348 75.32 111.105 74.8395L108.601 69.94C108.113 68.9858 107.443 63.6011 106.376 63.655C106.376 63.655 88.3722 57.3841 83.0765 64.8599C81.6747 66.8408 81.5176 69.4524 82.467 71.6864L83.679 74.5371C84.9379 77.5002 85.2192 80.8314 84.2557 83.9024C83.9134 84.9972 83.4305 86.0568 82.8163 87.0484L76.0508 97.5999C80.9667 100.068 86.3726 101.393 91.8699 101.473L95.8317 101.531V101.534Z" fill="white"/>
<path d="M95.8338 102.054H95.8268L91.865 101.995C86.3232 101.913 80.7743 100.553 75.8209 98.066C75.6896 98.0004 75.5911 97.8808 75.5513 97.7378C75.5114 97.5948 75.5349 97.4424 75.6146 97.3182L82.3801 86.7667C82.9615 85.8266 83.428 84.8092 83.7609 83.7449C84.654 80.8896 84.4571 77.692 83.2006 74.7383L81.9886 71.8876C80.9407 69.4215 81.1939 66.6131 82.652 64.5548C87.9876 57.025 105.002 62.6302 106.472 63.1342C107.459 63.2162 107.923 64.951 108.551 67.75C108.739 68.5822 108.931 69.4426 109.065 69.7028L111.569 74.6023C111.939 75.329 111.658 76.2339 110.943 76.6207L108.777 77.7952L107.682 84.6756C107.478 85.9649 106.43 86.9683 105.136 87.116L100.133 87.6856C99.4862 87.7583 98.9634 88.2389 98.8298 88.8789L96.3425 101.634C96.2957 101.878 96.08 102.056 95.8315 102.056L95.8338 102.054ZM76.8055 97.3909C81.4869 99.6461 86.6865 100.877 91.8791 100.954L95.4048 101.006L97.81 88.6726C98.0351 87.5848 98.9212 86.7761 100.016 86.6495L105.019 86.0798C105.849 85.986 106.521 85.3414 106.653 84.5115L107.785 77.3943C107.811 77.2349 107.928 77.0685 108.071 76.9911L110.448 75.7041C110.671 75.5845 110.757 75.3009 110.643 75.0758L108.139 70.1763C107.956 69.8177 107.79 69.1074 107.536 67.9798C107.281 66.8498 106.758 64.5196 106.336 64.1727C106.292 64.168 106.249 64.161 106.207 64.1445C106.031 64.0836 88.5127 58.0893 83.503 65.1573C82.2535 66.9202 82.0402 69.3441 82.9498 71.4797L84.1617 74.3304C85.5144 77.5115 85.7254 80.9646 84.7572 84.0567C84.3985 85.2031 83.8945 86.3002 83.2639 87.3223L76.8078 97.3885L76.8055 97.3909Z" fill="black"/>
<path d="M92.336 71.592C91.4123 69.2946 89.9683 68.4343 90.2379 67.1285C90.402 66.3409 91.0818 65.8462 91.4709 65.5649C93.3979 64.1677 95.9297 65.0211 101.017 65.9799C107.332 67.1707 108.052 67.3583 109.243 66.8871C112.272 65.6892 113.995 61.9618 114.126 58.8955C114.163 58.0351 114.238 53.4685 110.363 51.1125C107.564 49.4106 103.818 49.5395 100.792 51.4243C100.527 50.5382 99.9759 49.2887 98.7733 48.6745C95.9203 47.2164 91.6655 50.4866 90.1769 51.6306C88.8008 52.6879 86.3464 54.8962 84.5882 58.7806C84.0256 58.4665 81.9181 57.3741 79.6207 58.1078C76.2051 59.2002 75.3635 63.3754 75.2908 63.7716C74.4352 68.3851 78.2282 72.4102 81.0905 75.4507C82.6682 77.1268 83.4981 77.7645 84.4241 78.3834C84.9726 78.7491 85.6806 78.7748 86.2573 78.4584C86.2667 78.4537 86.2784 78.4466 86.2878 78.442C87.045 78.0247 87.2982 77.0541 86.8434 76.3181L86.698 76.0836C86.1518 75.2022 85.7791 74.2153 85.6642 73.1814C85.5728 72.3586 85.6384 71.4936 86.1682 71.0505C87.0215 70.3331 88.475 70.8067 88.6836 70.8747C89.7479 71.2216 90.416 72.0116 90.8263 72.7618C91.267 73.5659 92.7415 72.6094 92.3336 71.5897L92.336 71.592Z" fill="black"/>
<path d="M43.2256 53.7472C43.0474 53.7472 42.8669 53.7355 42.6864 53.712C40.4242 53.4237 38.7903 51.3654 39.0434 49.1266C39.1653 48.0459 39.7022 47.0824 40.5555 46.412C41.4229 45.7298 42.513 45.4321 43.6194 45.5751C45.8817 45.8634 47.5156 47.9217 47.2624 50.1605C47.1405 51.2412 46.6037 52.2047 45.7504 52.8751C45.0237 53.4448 44.1422 53.7472 43.2256 53.7472ZM40.0773 49.2439C39.8874 50.92 41.1181 52.4625 42.8177 52.6805C43.6452 52.786 44.4587 52.5657 45.1057 52.057C45.7387 51.56 46.1372 50.845 46.2263 50.0456C46.4162 48.3694 45.1854 46.8269 43.4858 46.6089C42.6583 46.5034 41.8448 46.7238 41.1978 47.2325C40.5649 47.7295 40.1663 48.4445 40.0773 49.2439Z" fill="black"/>
<path d="M27.5022 61.4159C27.4108 61.4159 27.3217 61.3925 27.2373 61.3433L23.7632 59.2873C23.5147 59.142 23.4326 58.8208 23.5803 58.5747C23.7256 58.3262 24.0468 58.2441 24.293 58.3918L27.7672 60.4477C28.0156 60.5931 28.0977 60.9143 27.95 61.1604C27.8539 61.3245 27.6804 61.4159 27.5022 61.4159Z" fill="black"/>
<path d="M35.595 66.205C35.5036 66.205 35.4145 66.1815 35.3301 66.1323L31.8559 64.0764C31.6074 63.9287 31.5254 63.6099 31.6731 63.3637C31.8184 63.1152 32.1396 63.0332 32.3857 63.1809L35.8599 65.2368C36.1084 65.3821 36.1905 65.7033 36.0428 65.9495C35.9467 66.1136 35.7732 66.205 35.595 66.205Z" fill="black"/>
<path d="M26.3884 68.5676C26.2993 68.5676 26.2079 68.5442 26.1235 68.4949C25.875 68.3496 25.793 68.0284 25.9406 67.7823L27.9966 64.3081C28.1443 64.0596 28.4607 63.9775 28.7092 64.1252C28.9577 64.2706 29.0398 64.5917 28.8921 64.8379L26.8362 68.3121C26.7377 68.4762 26.5642 68.5676 26.3861 68.5676H26.3884Z" fill="black"/>
<path d="M31.1784 60.4709C31.0894 60.4709 30.9979 60.4475 30.9135 60.3982C30.665 60.2529 30.583 59.9317 30.7307 59.6856L32.7866 56.2114C32.9343 55.9629 33.2531 55.8809 33.4993 56.0285C33.7478 56.1739 33.8298 56.4951 33.6821 56.7412L31.6262 60.2154C31.5301 60.3795 31.3543 60.4709 31.1761 60.4709H31.1784Z" fill="black"/>
<path d="M392.026 428.473H209.867C198.931 428.473 190.752 418.432 192.954 407.716L220.59 273.315C222.913 262.014 232.86 253.902 244.394 253.902H400.641L392.026 428.475V428.473Z" fill="white"/>
<path d="M392.026 428.993H209.868C204.499 428.993 199.476 426.607 196.084 422.446C192.689 418.282 191.362 412.874 192.445 407.611L220.082 273.21C222.445 261.721 232.67 253.38 244.396 253.38H400.644C400.787 253.38 400.923 253.438 401.021 253.542C401.12 253.645 401.171 253.783 401.164 253.926L392.549 428.499C392.535 428.775 392.308 428.993 392.029 428.993H392.026ZM244.394 254.421C233.16 254.421 223.364 262.41 221.101 273.419L193.465 407.82C192.445 412.776 193.695 417.865 196.89 421.785C200.083 425.702 204.814 427.948 209.865 427.948H391.527L400.091 254.418H244.392L244.394 254.421Z" fill="black"/>
<path d="M415.349 428.473H380C369.064 428.473 360.885 418.432 363.086 407.717L393.524 259.681C394.216 256.315 397.179 253.9 400.613 253.9H409.704C413.474 253.9 416.611 256.793 416.918 260.551L429.368 413.254C430.036 421.45 423.568 428.471 415.349 428.471V428.473Z" fill="white"/>
<path d="M415.35 428.994H380.001C374.632 428.994 369.608 426.607 366.216 422.446C362.822 418.283 361.495 412.875 362.578 407.612L393.016 259.576C393.754 255.985 396.95 253.378 400.614 253.378H409.705C413.713 253.378 417.11 256.51 417.436 260.507L429.886 413.21C430.217 417.263 428.827 421.3 426.072 424.289C423.318 427.275 419.41 428.989 415.35 428.989V428.994ZM400.614 254.421C397.442 254.421 394.676 256.676 394.036 259.787L363.598 407.823C362.578 412.778 363.828 417.868 367.023 421.787C370.216 425.705 374.946 427.95 379.998 427.95H415.347C419.173 427.95 422.711 426.401 425.306 423.585C427.863 420.81 429.155 417.059 428.848 413.296L416.398 260.594C416.116 257.131 413.174 254.421 409.705 254.421H400.614Z" fill="black"/>
<path d="M404.083 423.74H379.998C376.214 423.74 372.672 422.057 370.281 419.124C367.89 416.189 366.957 412.379 367.719 408.671L377.71 360.077C377.768 359.795 378.043 359.612 378.324 359.671C378.605 359.73 378.788 360.004 378.73 360.285L368.738 408.879C368.04 412.279 368.895 415.774 371.087 418.463C373.279 421.154 376.526 422.697 379.995 422.697H404.08C404.369 422.697 404.601 422.929 404.601 423.217C404.601 423.505 404.366 423.737 404.08 423.737L404.083 423.74Z" fill="black"/>
<path d="M415.35 423.74C415.061 423.74 414.829 423.508 414.829 423.22C414.829 422.932 415.061 422.699 415.35 422.699C417.694 422.699 419.86 421.75 421.447 420.025C423.036 418.299 423.805 416.063 423.615 413.726L420.779 378.925C420.755 378.639 420.969 378.386 421.255 378.362C421.536 378.337 421.794 378.552 421.815 378.838L424.652 413.639C424.867 416.269 424 418.787 422.211 420.728C420.423 422.669 417.984 423.738 415.347 423.738L415.35 423.74Z" fill="black"/>
<path d="M413.399 282.56C413.129 282.56 412.902 282.353 412.881 282.082L412.29 274.828C412.266 274.542 412.48 274.289 412.766 274.266C413.054 274.24 413.305 274.456 413.326 274.742L413.917 281.995C413.94 282.281 413.727 282.534 413.441 282.557C413.427 282.557 413.413 282.557 413.399 282.557V282.56Z" fill="black"/>
<path d="M390.322 301.857C390.287 301.857 390.251 301.853 390.216 301.846C389.935 301.787 389.752 301.513 389.811 301.231L398.159 260.636C398.398 259.475 399.429 258.634 400.613 258.634H409.704C411.001 258.634 412.095 259.646 412.201 260.936L412.588 265.685C412.611 265.971 412.398 266.225 412.112 266.248C411.828 266.274 411.575 266.058 411.551 265.772L411.165 261.023C411.104 260.268 410.461 259.677 409.706 259.677H400.615C399.924 259.677 399.321 260.169 399.181 260.847L390.833 301.442C390.781 301.689 390.566 301.86 390.324 301.86L390.322 301.857Z" fill="black"/>
<path d="M367.208 324.974H224.583C224.295 324.974 224.062 324.742 224.062 324.453C224.062 324.165 224.295 323.933 224.583 323.933H367.208C371.212 323.933 374.653 321.211 375.577 317.313L388.149 264.215C388.215 263.936 388.496 263.763 388.775 263.828C389.054 263.894 389.228 264.175 389.162 264.454L376.59 317.552C375.556 321.922 371.697 324.974 367.208 324.974Z" fill="black"/>
<path d="M312.16 324.453L308.165 340.577C307.52 343.306 305.085 345.23 302.283 345.23H274.035C270.959 345.23 268.732 342.298 269.555 339.332L273.693 324.453H312.16Z" fill="white"/>
<path d="M302.283 345.751H274.035C272.406 345.751 270.905 345.008 269.918 343.709C268.931 342.41 268.615 340.765 269.053 339.192L273.191 324.313C273.254 324.088 273.458 323.931 273.693 323.931H312.16C312.319 323.931 312.471 324.003 312.57 324.13C312.668 324.257 312.704 324.421 312.666 324.575L308.671 340.699C307.968 343.669 305.34 345.749 302.283 345.749V345.751ZM274.089 324.974L270.059 339.471C269.71 340.725 269.963 342.04 270.751 343.079C271.538 344.115 272.736 344.71 274.037 344.71H302.286C304.857 344.71 307.068 342.961 307.661 340.458L311.496 324.976H274.091L274.089 324.974Z" fill="black"/>
<path d="M354.192 415.491H202.676C202.387 415.491 202.155 415.259 202.155 414.971C202.155 414.682 202.387 414.45 202.676 414.45H354.192C354.481 414.45 354.713 414.685 354.713 414.971C354.713 415.257 354.478 415.491 354.192 415.491Z" fill="black"/>
<path d="M280.386 247.801H268.559C265.364 247.801 262.773 250.394 262.773 253.589H286.172C286.172 250.391 283.581 247.801 280.386 247.801Z" fill="white"/>
<path d="M286.171 254.109H262.773C262.485 254.109 262.253 253.875 262.253 253.589C262.253 250.11 265.082 247.28 268.559 247.28H280.386C283.862 247.28 286.692 250.11 286.692 253.589C286.692 253.877 286.46 254.109 286.171 254.109ZM263.32 253.068H285.625C285.363 250.408 283.115 248.321 280.386 248.321H268.559C265.833 248.321 263.582 250.408 263.32 253.068Z" fill="black"/>
<path d="M375.174 247.801H363.347C360.152 247.801 357.562 250.394 357.562 253.589H380.96C380.96 250.391 378.369 247.801 375.174 247.801Z" fill="black"/>
<path d="M380.961 254.109H357.563C357.275 254.109 357.043 253.875 357.043 253.589C357.043 250.11 359.872 247.28 363.349 247.28H375.176C378.652 247.28 381.482 250.11 381.482 253.589C381.482 253.877 381.247 254.109 380.961 254.109ZM358.107 253.068H380.413C380.15 250.408 377.902 248.321 375.173 248.321H363.347C360.62 248.321 358.37 250.408 358.107 253.068Z" fill="black"/>
<path d="M372.086 247.489L373.992 236.164C375.345 228.132 369.932 221.62 361.903 221.62H290.982C282.953 221.62 275.35 228.132 273.998 236.164L272.092 247.489H277.519L279.003 238.675C280.055 232.422 285.972 227.357 292.222 227.357H358.733C364.981 227.357 369.196 232.425 368.143 238.675L366.659 247.489H372.086Z" fill="white"/>
<path d="M372.088 248.009H366.661C366.509 248.009 366.363 247.941 366.263 247.824C366.164 247.707 366.122 247.552 366.148 247.402L367.632 238.588C368.119 235.688 367.447 232.973 365.733 230.95C364.057 228.969 361.572 227.877 358.738 227.877H292.226C286.23 227.877 280.531 232.76 279.52 238.761L278.036 247.576C277.994 247.827 277.776 248.009 277.523 248.009H272.096C271.944 248.009 271.798 247.941 271.697 247.824C271.599 247.707 271.557 247.552 271.583 247.402L273.488 236.077C274.879 227.818 282.727 221.1 290.986 221.1H361.907C365.906 221.1 369.42 222.652 371.805 225.469C374.236 228.343 375.197 232.172 374.51 236.251L372.604 247.576C372.562 247.827 372.344 248.009 372.091 248.009H372.088ZM367.275 246.969H371.647L373.481 236.077C374.116 232.308 373.237 228.777 371.007 226.142C368.825 223.561 365.592 222.14 361.905 222.14H290.984C283.21 222.14 275.823 228.47 274.513 236.251L272.71 246.969H277.082L278.491 238.588C279.581 232.106 285.742 226.834 292.224 226.834H358.735C361.884 226.834 364.65 228.055 366.528 230.275C368.44 232.54 369.198 235.552 368.659 238.759L367.278 246.966L367.275 246.969Z" fill="black"/>
<path d="M358.382 216.932H296.083C293.573 216.932 291.195 218.969 290.771 221.48L289.855 226.923C289.433 229.434 291.125 231.471 293.636 231.471H355.935C358.445 231.471 360.822 229.434 361.247 226.923L362.163 221.48C362.585 218.969 360.893 216.932 358.382 216.932Z" fill="white"/>
<path d="M355.935 231.991H293.636C292.279 231.991 291.083 231.461 290.267 230.498C289.437 229.518 289.109 228.217 289.341 226.836L290.258 221.393C290.72 218.645 293.333 216.411 296.083 216.411H358.382C359.739 216.411 360.935 216.941 361.751 217.904C362.581 218.884 362.909 220.185 362.677 221.566L361.76 227.01C361.298 229.757 358.684 231.991 355.935 231.991ZM296.083 217.452C293.819 217.452 291.667 219.297 291.287 221.566L290.37 227.01C290.19 228.083 290.436 229.084 291.064 229.825C291.678 230.549 292.59 230.95 293.638 230.95H355.937C358.202 230.95 360.354 229.105 360.733 226.836L361.65 221.393C361.83 220.319 361.584 219.318 360.956 218.577C360.342 217.853 359.43 217.452 358.382 217.452H296.083Z" fill="black"/>
<path d="M320.215 231.991H293.636C292.279 231.991 291.083 231.461 290.267 230.498C289.437 229.518 289.109 228.217 289.341 226.836L290.258 221.393C290.72 218.645 293.333 216.411 296.083 216.411H316.863C317.151 216.411 317.383 216.646 317.383 216.932C317.383 217.218 317.151 217.452 316.863 217.452H296.083C293.819 217.452 291.667 219.297 291.287 221.566L290.37 227.01C290.19 228.083 290.436 229.084 291.064 229.825C291.678 230.549 292.59 230.95 293.638 230.95H320.217C320.506 230.95 320.738 231.185 320.738 231.471C320.738 231.757 320.503 231.991 320.217 231.991H320.215Z" fill="black"/>
<path d="M379.665 415.491C379.484 415.491 379.309 415.397 379.212 415.228C379.069 414.978 379.156 414.661 379.407 414.518L403.562 400.748V264.333C403.562 264.045 403.797 263.812 404.083 263.812C404.369 263.812 404.603 264.045 404.603 264.333V401.05C404.603 401.238 404.502 401.411 404.341 401.503L379.923 415.423C379.841 415.47 379.754 415.491 379.665 415.491Z" fill="black"/>
<path d="M378.713 250.489C378.713 250.489 389.581 254.54 393.843 251.129C398.105 247.719 387.237 241.961 384.679 242.388C382.121 242.814 378.713 250.489 378.713 250.489Z" fill="black"/>
<path d="M324.094 337.417L334.322 355.328L339.864 347.652L330.913 330.169L324.094 337.417Z" fill="white"/>
<path d="M334.321 355.848C334.321 355.848 334.303 355.848 334.293 355.848C334.117 355.838 333.956 355.74 333.869 355.585L323.639 337.675C323.526 337.476 323.554 337.227 323.711 337.058L330.531 329.81C330.646 329.686 330.814 329.627 330.983 329.651C331.152 329.674 331.297 329.777 331.375 329.93L340.325 347.413C340.414 347.587 340.398 347.798 340.283 347.955L334.741 355.63C334.643 355.766 334.485 355.845 334.319 355.845L334.321 355.848ZM324.736 337.494L334.373 354.366L339.254 347.605L330.784 331.064L324.736 337.494Z" fill="black"/>
<path d="M330.779 352.597C333.478 358.16 340.304 371.653 346.884 378.121C348.488 379.699 351.2 378.965 351.777 376.789C353.835 368.999 355.207 352.77 347.536 339.977C347.536 339.977 343.888 339.551 337.069 340.831L338.586 347.226L337.749 346.628C336.488 345.728 334.776 345.803 333.599 346.811L331.635 348.496C330.451 349.512 330.102 351.195 330.782 352.597H330.779Z" fill="black"/>
<path d="M347.961 376.316C347.9 376.316 347.837 376.304 347.776 376.283C347.506 376.182 347.37 375.88 347.473 375.612C353.299 360.213 345.434 342.075 345.352 341.895C345.234 341.632 345.354 341.325 345.619 341.208C345.881 341.091 346.189 341.21 346.306 341.475C346.388 341.661 354.422 360.19 348.448 375.983C348.369 376.192 348.172 376.32 347.961 376.32V376.316Z" fill="white"/>
<path d="M334.749 360.874C334.577 360.874 334.411 360.79 334.31 360.637C334.153 360.396 334.221 360.072 334.462 359.918L339.578 356.598C339.819 356.441 340.143 356.509 340.297 356.751C340.454 356.992 340.386 357.316 340.145 357.47L335.03 360.79C334.943 360.846 334.845 360.874 334.746 360.874H334.749Z" fill="white"/>
<path d="M337.305 365.417C337.148 365.417 336.994 365.347 336.893 365.213C336.717 364.986 336.762 364.658 336.989 364.482L341.678 360.881C341.905 360.705 342.233 360.747 342.409 360.977C342.585 361.204 342.54 361.533 342.313 361.708L337.624 365.309C337.531 365.382 337.418 365.417 337.308 365.417H337.305Z" fill="white"/>
<path d="M291.7 337.844C291.7 338.27 282.323 358.738 282.323 358.738L292.978 359.591L300.224 342.108L291.7 337.844Z" fill="white"/>
<path d="M292.978 360.112C292.964 360.112 292.95 360.112 292.935 360.112L282.281 359.258C282.112 359.244 281.96 359.148 281.873 359.003C281.786 358.855 281.777 358.677 281.849 358.522C285.469 350.62 290.919 338.622 291.187 337.754C291.212 337.609 291.299 337.48 291.426 337.4C291.581 337.304 291.77 337.297 291.932 337.377L300.456 341.641C300.7 341.763 300.808 342.054 300.704 342.307L293.458 359.79C293.376 359.985 293.186 360.112 292.978 360.112ZM283.106 358.278L292.642 359.043L299.558 342.359L291.974 338.566C291.398 339.986 289.482 344.358 283.108 358.281L283.106 358.278Z" fill="black"/>
<path d="M292.127 354.474C292.127 354.474 289.996 349.356 284.454 351.916C284.454 351.916 274.283 366.615 270.504 378.751C269.435 382.183 272.958 385.277 276.233 383.798C283.899 380.336 295.911 373.069 302.784 359.594C302.784 359.594 300.653 354.05 297.242 351.492L292.127 354.476V354.474Z" fill="black"/>
<path d="M273.628 380.617C273.19 380.617 272.932 380.584 272.869 380.575C272.585 380.533 272.388 380.268 272.43 379.984C272.473 379.7 272.735 379.504 273.021 379.546C273.141 379.562 284.461 380.87 299.804 359.713C299.973 359.481 300.299 359.427 300.531 359.598C300.763 359.767 300.817 360.093 300.646 360.325C286.965 379.189 276.486 380.619 273.628 380.619V380.617Z" fill="white"/>
<path d="M282.321 369.067C282.232 369.067 282.141 369.044 282.058 368.997L276.943 366.012C276.695 365.867 276.61 365.548 276.756 365.3C276.901 365.051 277.22 364.967 277.468 365.112L282.584 368.096C282.832 368.242 282.916 368.561 282.771 368.809C282.675 368.976 282.499 369.067 282.321 369.067Z" fill="white"/>
<path d="M284.879 365.23C284.794 365.23 284.71 365.208 284.633 365.166L279.091 362.182C278.838 362.046 278.744 361.73 278.88 361.476C279.016 361.223 279.332 361.129 279.585 361.265L285.127 364.25C285.38 364.386 285.474 364.702 285.338 364.955C285.244 365.129 285.064 365.23 284.879 365.23Z" fill="white"/>
<path d="M346.256 234.651C346.256 234.651 318.476 239.614 298.456 260.616C293.404 265.917 291.618 273.547 293.786 280.545C298.233 294.899 307.915 321.115 324.093 340.83L336.454 330.171C336.454 330.171 333.47 305.439 325.373 290.088C317.274 274.738 364.585 241.478 364.585 241.478L346.258 234.656L346.256 234.651Z" fill="white"/>
<path d="M324.093 341.351C324.079 341.351 324.063 341.351 324.049 341.351C323.908 341.339 323.779 341.271 323.69 341.163C307.376 321.281 297.641 294.747 293.287 280.702C291.065 273.526 292.901 265.694 298.079 260.26C317.987 239.377 345.886 234.192 346.165 234.143C346.256 234.126 346.35 234.136 346.439 234.166L364.766 240.988C364.947 241.056 365.076 241.218 365.102 241.41C365.127 241.602 365.043 241.792 364.884 241.902C364.415 242.233 318.038 275.071 325.833 289.845C333.883 305.104 336.94 329.859 336.97 330.107C336.992 330.281 336.926 330.452 336.795 330.565L324.433 341.224C324.337 341.306 324.218 341.351 324.093 341.351ZM346.212 235.191C344.074 235.608 317.783 241.098 298.834 260.975C293.916 266.135 292.172 273.573 294.284 280.39C298.583 294.266 308.159 320.388 324.159 340.087L335.901 329.96C335.543 327.212 332.416 304.557 324.912 290.332C317.187 275.69 357.049 246.244 363.482 241.623L346.212 235.195V235.191Z" fill="black"/>
<path d="M288.29 341.681L302.782 345.945C302.782 345.945 329.209 290.084 336.88 281.982C344.552 273.881 359.469 260.661 375.239 255.97C391.009 251.279 391.009 239.34 391.009 239.34L364.157 231.665C364.157 231.665 326.649 247.869 314.29 266.205C301.929 284.542 288.29 341.681 288.29 341.681Z" fill="white"/>
<path d="M302.782 346.466C302.733 346.466 302.683 346.459 302.634 346.445L288.142 342.181C287.877 342.103 287.718 341.829 287.783 341.56C287.919 340.988 301.586 284.118 313.859 265.915C326.161 247.662 363.576 231.351 363.953 231.189C364.063 231.142 364.188 231.133 364.302 231.166L391.154 238.841C391.376 238.904 391.531 239.108 391.531 239.343C391.531 239.467 391.346 251.725 375.388 256.472C357.778 261.709 341.751 277.599 337.259 282.344C329.732 290.293 303.518 345.613 303.253 346.171C303.166 346.356 302.979 346.468 302.782 346.468V346.466ZM288.913 341.323L302.503 345.322C305.089 339.872 329.12 289.426 336.502 281.626C341.04 276.834 357.234 260.786 375.091 255.474C388.725 251.418 390.289 241.778 390.467 239.73L364.195 232.221C361.44 233.435 326.433 249.125 314.721 266.499C303.152 283.659 290.268 335.75 288.913 341.323Z" fill="black"/>
<path d="M412.746 195.42C405.5 180.921 393.565 178.79 393.565 178.79L373.107 177.083C366.709 176.65 359.909 180.604 357.382 186.5L338.583 230.385C338.583 230.385 342.418 240.62 359.468 242.324C376.518 244.031 388.239 242.964 393.779 249.786C397.431 254.284 397.316 224.285 395.216 200.559L412.746 195.418V195.42Z" fill="white"/>
<path d="M394.468 250.764C394.159 250.764 393.779 250.614 393.376 250.117C389.222 245.002 381.204 244.455 370.107 243.696C366.895 243.476 363.254 243.227 359.417 242.845C342.243 241.127 338.257 230.999 338.096 230.57C338.049 230.444 338.051 230.306 338.105 230.181L356.904 186.297C359.473 180.298 366.452 176.113 373.142 176.566L393.61 178.272C393.781 178.3 405.934 180.626 413.213 195.188C413.281 195.327 413.286 195.489 413.225 195.629C413.164 195.77 413.042 195.878 412.894 195.92L395.774 200.941C397.241 217.818 398.453 249.226 394.85 250.689C394.74 250.733 394.614 250.764 394.471 250.764H394.468ZM339.151 230.388C339.774 231.75 344.28 240.285 359.52 241.809C363.341 242.191 366.972 242.439 370.177 242.657C381.537 243.433 389.745 243.994 394.185 249.461C394.374 249.695 394.478 249.721 394.478 249.721C394.522 249.697 396.097 248.898 396.161 233.105C396.198 223.545 395.652 211.397 394.696 200.608C394.675 200.36 394.829 200.133 395.068 200.062L411.996 195.099C404.924 181.496 393.589 179.325 393.474 179.306L373.063 177.607C366.804 177.182 360.263 181.097 357.86 186.709L339.148 230.39L339.151 230.388Z" fill="black"/>
<path d="M358.031 233.213L367.408 228.949L374.654 231.933C374.654 231.933 413.926 227.995 396.545 200.173C396.47 200.053 409.804 196.286 409.804 196.286C409.804 196.286 425.647 234.066 375.508 234.92C375.508 234.92 372.95 235.773 369.542 234.066C366.131 232.36 360.165 235.773 358.034 233.213H358.031Z" fill="white"/>
<path d="M373.801 235.656C372.669 235.656 371.098 235.428 369.307 234.533C367.861 233.808 365.803 234.115 363.815 234.411C361.316 234.784 358.955 235.135 357.633 233.546C357.53 233.421 357.49 233.255 357.525 233.096C357.56 232.936 357.671 232.805 357.818 232.737L367.195 228.473C367.327 228.414 367.477 228.412 367.61 228.466L374.732 231.401C376.418 231.204 394.204 228.897 399.169 218.775C401.616 213.784 400.587 207.618 396.107 200.447C396.02 200.309 396.004 200.135 396.063 199.981C396.187 199.657 396.217 199.582 409.664 195.782C409.919 195.712 410.184 195.838 410.285 196.082C410.346 196.23 416.404 211.008 408.998 222.352C403.522 230.74 392.281 235.142 375.59 235.438C375.367 235.501 374.732 235.653 373.801 235.653V235.656ZM367.012 233.042C368.002 233.042 368.942 233.182 369.774 233.6C372.927 235.177 375.321 234.432 375.346 234.422C375.396 234.406 375.449 234.397 375.501 234.397C391.866 234.118 402.842 229.875 408.126 221.782C414.54 211.96 410.405 199.38 409.49 196.914C405.154 198.14 399.159 199.861 397.326 200.442C401.724 207.71 402.657 214.03 400.102 219.236C394.656 230.332 375.52 232.371 374.709 232.453C374.622 232.46 374.538 232.449 374.458 232.416L367.42 229.516L359.009 233.342C360.09 233.911 361.834 233.654 363.66 233.382C364.783 233.215 365.927 233.044 367.012 233.044V233.042Z" fill="black"/>
<path d="M322.291 236.598H359.26L331.853 194.429C330.997 193.112 329.504 192.312 327.901 192.312H297.899C295.993 192.312 294.835 194.352 295.852 195.918L322.291 236.598Z" fill="black"/>
<path d="M322.479 209.667C323.245 208.489 322.09 206.379 319.899 204.954C317.707 203.529 315.31 203.328 314.544 204.505C313.778 205.683 314.934 207.793 317.125 209.218C319.316 210.643 321.713 210.844 322.479 209.667Z" fill="white"/>
<path d="M320.692 210.966C318.516 210.966 315.79 209.393 314.484 207.381C313.762 206.27 313.598 205.168 314.036 204.362C314.433 203.633 315.251 203.229 316.341 203.229C318.514 203.229 321.243 204.802 322.548 206.814C323.27 207.925 323.434 209.027 322.996 209.833C322.6 210.562 321.782 210.966 320.692 210.966ZM316.341 204.273C315.652 204.273 315.157 204.481 314.951 204.859C314.7 205.321 314.847 206.033 315.356 206.814C316.451 208.499 318.894 209.922 320.689 209.922C321.379 209.922 321.873 209.714 322.077 209.336C322.328 208.874 322.18 208.162 321.672 207.381C320.577 205.696 318.134 204.273 316.338 204.273H316.341Z" fill="black"/>
<path d="M381.764 239.768H324.893C323.385 239.768 322.162 238.544 322.162 237.037V236.324H384.493V237.037C384.493 238.544 383.269 239.768 381.762 239.768H381.764Z" fill="black"/>
<path d="M397.403 79.0093C413.053 74.0653 433.294 96.5303 429.217 115.008C428.092 120.104 429.337 127.812 423.752 130.628C413.848 135.621 407.619 129.575 405.073 133.591C402.867 137.072 410.704 142.089 409.762 149.368C408.36 160.184 388.95 165.405 386.746 165.998C385.1 166.441 361.934 172.36 350.942 160.027C348.295 157.057 344.824 151.311 346.68 147.661C348.45 144.18 353.886 144.928 355.204 141.266C356.346 138.092 352.705 136.317 353.073 132.737C353.783 125.836 368.036 125.48 369.696 118.238C371.023 112.45 362.741 109.046 364.154 103.315C365.296 98.6917 371.255 98.5675 380.777 92.6553C392.178 85.5756 391.472 80.8824 397.401 79.0093H397.403Z" fill="black"/>
<path d="M379.929 175.807C379.549 175.617 374.42 169.564 371.419 165.998C371.647 165.009 371.614 164.693 371.532 163.192C371.532 163.192 373.086 161.633 372.462 159.61C371.738 157.259 369.506 159.146 369.506 159.146C369.506 159.146 368.473 157.339 364.586 160.454C360.699 163.572 356.592 159.779 356.592 159.779C356.592 159.779 356.592 162.114 358.648 164.951C359.78 166.516 359.972 168.584 360.026 170.516L362.204 170.202C363.404 171.622 364.295 172.319 365.941 173.001C365.941 173.001 367.242 172.762 368.594 171.643L370.981 177.082L368.548 178.362C368.548 178.362 367.997 181.773 374.392 182.626C380.785 183.48 385.9 178.362 385.9 178.362C385.9 178.362 382.489 177.082 379.934 175.804L379.929 175.807Z" fill="white"/>
<path d="M375.854 183.247C375.35 183.247 374.839 183.214 374.316 183.146C371.595 182.783 369.71 181.923 368.718 180.589C367.853 179.426 368.02 178.329 368.027 178.284C368.053 178.122 368.153 177.982 368.299 177.907L370.303 176.854L368.376 172.463C367.148 173.307 366.081 173.511 366.03 173.521C365.931 173.539 365.828 173.528 365.736 173.49C364.133 172.827 363.188 172.147 361.99 170.766L360.096 171.038C359.949 171.059 359.801 171.017 359.686 170.921C359.573 170.825 359.505 170.686 359.501 170.536C359.447 168.642 359.257 166.692 358.221 165.262C356.095 162.322 356.066 159.886 356.066 159.786C356.066 159.579 356.188 159.392 356.378 159.31C356.568 159.225 356.788 159.263 356.941 159.404C357.096 159.547 360.771 162.85 364.255 160.055C366.105 158.574 367.628 157.931 368.784 158.152C369.117 158.215 369.368 158.342 369.551 158.473C370.026 158.163 370.861 157.751 371.66 157.983C372.272 158.161 372.708 158.66 372.957 159.462C373.543 161.361 372.486 162.873 372.061 163.384V163.408C372.129 164.601 372.153 165.037 371.982 165.864C378.82 173.985 379.994 175.195 380.194 175.363C382.693 176.61 386.042 177.869 386.075 177.883C386.242 177.947 386.364 178.087 386.401 178.261C386.439 178.434 386.385 178.615 386.261 178.739C386.061 178.938 381.675 183.254 375.852 183.254L375.854 183.247ZM369.056 178.685C369.075 178.966 369.173 179.461 369.579 179.996C370.392 181.065 372.08 181.796 374.455 182.112C379.272 182.755 383.398 179.803 384.91 178.542C383.738 178.08 381.497 177.173 379.694 176.271C379.521 176.184 379.16 176.003 371.02 166.331C370.915 166.207 370.875 166.038 370.91 165.878C371.11 165.016 371.093 164.746 371.023 163.454L371.009 163.218C371.002 163.07 371.056 162.927 371.161 162.821C371.215 162.768 372.483 161.45 371.963 159.762C371.825 159.314 371.625 159.05 371.37 158.975C370.887 158.834 370.132 159.296 369.841 159.542C369.724 159.643 369.567 159.683 369.415 159.657C369.262 159.631 369.129 159.537 369.054 159.401C369.054 159.401 368.915 159.214 368.547 159.157C368.071 159.085 366.963 159.211 364.911 160.857C361.953 163.229 358.868 161.921 357.297 160.934C357.518 161.832 358.003 163.168 359.069 164.641C360.157 166.143 360.438 168.037 360.525 169.915L362.129 169.685C362.307 169.66 362.485 169.728 362.6 169.866C363.744 171.219 364.553 171.845 365.983 172.454C366.332 172.36 367.284 172.049 368.259 171.242C368.386 171.137 368.554 171.099 368.711 171.137C368.871 171.174 369.002 171.284 369.068 171.434L371.454 176.873C371.564 177.124 371.461 177.417 371.22 177.543L369.056 178.68V178.685Z" fill="black"/>
<path d="M368.589 172.168C368.446 172.168 368.306 172.11 368.202 171.997C368.01 171.784 368.027 171.453 368.24 171.261L368.943 170.628C369.156 170.436 369.487 170.452 369.679 170.666C369.871 170.879 369.855 171.21 369.642 171.402L368.938 172.035C368.84 172.124 368.713 172.168 368.589 172.168Z" fill="black"/>
<path d="M162.868 101.897L139.992 154.871L160.218 148.194L171.38 166.379L185.103 109.791L162.868 101.897Z" fill="white"/>
<path d="M171.377 166.9C171.199 166.9 171.03 166.808 170.934 166.651L159.989 148.821L140.154 155.366C139.96 155.429 139.746 155.375 139.606 155.223C139.467 155.07 139.43 154.852 139.512 154.665L162.389 101.692C162.497 101.441 162.783 101.316 163.041 101.408L185.276 109.299C185.527 109.388 185.673 109.653 185.609 109.913L171.884 166.501C171.834 166.705 171.666 166.86 171.459 166.893C171.431 166.897 171.405 166.9 171.377 166.9ZM160.219 147.674C160.397 147.674 160.566 147.766 160.662 147.923L171.166 165.038L184.486 110.124L163.154 102.552L140.93 154.011L160.055 147.698C160.108 147.679 160.162 147.672 160.219 147.672V147.674Z" fill="black"/>
<path d="M183.017 111.755L198.669 167.296L210.154 149.35L230.277 156.413L205.245 103.846L183.017 111.755Z" fill="white"/>
<path d="M198.669 167.816C198.644 167.816 198.618 167.816 198.592 167.811C198.39 167.781 198.224 167.635 198.168 167.436L182.515 111.896C182.44 111.631 182.583 111.357 182.841 111.263L205.069 103.353C205.32 103.264 205.599 103.379 205.714 103.621L230.746 156.191C230.837 156.38 230.804 156.606 230.664 156.763C230.523 156.92 230.303 156.976 230.104 156.906L210.367 149.978L199.105 167.577C199.009 167.727 198.843 167.816 198.667 167.816H198.669ZM183.65 112.083L198.855 166.037L209.713 149.069C209.844 148.865 210.098 148.778 210.325 148.858L229.269 155.508L204.975 104.493L183.65 112.081V112.083Z" fill="black"/>
<path d="M228.502 88.3527L222.257 95.9317L225.138 105.325L216.46 109.925L215.522 119.702L205.747 120.643L201.15 129.323L191.763 126.44L184.186 132.69L176.61 126.44L167.221 129.323L162.624 120.64L152.848 119.702L151.911 109.922L143.232 105.325L146.113 95.9317L139.868 88.3527L146.113 80.7713L143.232 71.3802L151.911 66.7808L152.848 57.0005L162.624 56.0628L167.221 47.3796L176.61 50.2631L184.186 44.0156L191.763 50.2631L201.15 47.3796L205.749 56.0628L215.522 57.0005L216.46 66.7808L225.138 71.3802L222.257 80.7713L228.502 88.3527Z" fill="black"/>
<path d="M183.917 120.014C201.248 120.014 215.298 105.959 215.298 88.6199C215.298 71.2813 201.248 57.2256 183.917 57.2256C166.587 57.2256 152.537 71.2813 152.537 88.6199C152.537 105.959 166.587 120.014 183.917 120.014Z" fill="white"/>
<path d="M183.917 120.537C166.326 120.537 152.017 106.22 152.017 88.6218C152.017 71.0234 166.328 56.707 183.917 56.707C201.506 56.707 215.818 71.0234 215.818 88.6218C215.818 106.22 201.506 120.537 183.917 120.537ZM183.917 57.7479C166.9 57.7479 153.057 71.5978 153.057 88.6218C153.057 105.646 166.9 119.496 183.917 119.496C200.934 119.496 214.777 105.646 214.777 88.6218C214.777 71.5978 200.934 57.7479 183.917 57.7479Z" fill="black"/>
<path d="M182.374 104.502C181.952 104.502 181.544 104.331 181.249 104.024L169.197 91.5011C168.599 90.8799 168.618 89.8906 169.239 89.2905C169.86 88.6927 170.85 88.7114 171.45 89.3326L182.173 100.475L197.591 78.0474C198.081 77.3371 199.054 77.1565 199.764 77.6442C200.474 78.1341 200.655 79.107 200.167 79.8173L183.663 103.823C183.396 104.209 182.972 104.455 182.503 104.495C182.461 104.498 182.419 104.5 182.374 104.5V104.502Z" fill="black"/>
<path d="M308.031 84.6047L302.306 85.4885L298.6 81.4657C297.803 80.6007 296.267 81.0578 296.002 82.2393L294.765 87.7343L289.436 90.1442C288.29 90.6622 288.175 92.1907 289.242 92.7322L294.202 95.2453L294.615 100.757C294.704 101.94 296.169 102.428 297.092 101.582L301.397 97.6388L306.981 98.6351C308.181 98.8484 309.201 97.6224 308.706 96.5581L306.404 91.6093L309.442 86.7122C310.096 85.6596 309.262 84.4124 308.028 84.6047H308.031Z" fill="black"/>
<path d="M330.5 72.3413L324.872 73.4572L321.083 69.5329C320.27 68.689 318.767 69.2117 318.54 70.4167L317.49 76.0195L312.299 78.6615C311.184 79.2288 311.118 80.7807 312.189 81.2847L317.171 83.6336L317.752 89.1895C317.876 90.3851 319.339 90.8212 320.228 89.928L324.356 85.7763L329.905 86.5687C331.098 86.7398 332.066 85.4575 331.544 84.4026L329.115 79.4866L331.963 74.4184C332.575 73.3283 331.712 72.1022 330.5 72.3413Z" fill="black"/>
<path d="M354.9 62.1039L349.328 62.9642L345.783 58.7891C345.021 57.8913 343.523 58.3484 343.249 59.5627L341.971 65.2124L336.765 67.6481C335.644 68.1709 335.513 69.7462 336.542 70.3112L341.324 72.9438L341.65 78.6239C341.72 79.8453 343.136 80.361 344.046 79.496L348.277 75.4732L353.686 76.5492C354.848 76.7813 355.856 75.5248 355.39 74.4253L353.224 69.3078L356.241 64.2934C356.89 63.2151 356.096 61.9234 354.898 62.1086L354.9 62.1039Z" fill="black"/>
<path d="M378.436 52.1129L372.906 53.2053L369.19 49.1826C368.391 48.3175 366.914 48.838 366.691 50.0617L365.652 55.7582L360.551 58.4096C359.454 58.9792 359.389 60.5569 360.439 61.0797L365.327 63.5084L365.892 69.1698C366.014 70.3864 367.448 70.8412 368.32 69.9387L372.381 65.7424L377.829 66.5911C379.001 66.7739 379.953 65.4775 379.441 64.3968L377.062 59.3754L379.866 54.2368C380.468 53.1327 379.622 51.8761 378.433 52.1106L378.436 52.1129Z" fill="black"/>
</svg>
