<svg width="457" height="437" viewBox="0 0 457 437" fill="none" xmlns="http://www.w3.org/2000/svg">
<g filter="url(#filter0_d_32_2)">
<rect x="4" width="449" height="429" fill="#F7F7F7"/>
<path d="M249.821 6.92919C249.774 6.92919 249.727 6.9245 249.681 6.91044C229.745 1.59142 208.903 -0.0964063 187.735 1.89617C187.437 1.93133 187.172 1.70395 187.144 1.40623C187.116 1.10852 187.336 0.843622 187.634 0.815491C208.933 -1.19115 229.902 0.510744 249.962 5.86257C250.252 5.93993 250.424 6.23765 250.346 6.52599C250.281 6.76978 250.063 6.92919 249.821 6.92919Z" fill="black"/>
<path d="M169.607 4.48655C169.351 4.48655 169.124 4.30605 169.075 4.04584C169.018 3.75047 169.211 3.46682 169.506 3.41056C172.314 2.87139 175.17 2.38614 177.994 1.97356C178.29 1.92902 178.566 2.13531 178.611 2.43303C178.655 2.7284 178.449 3.00501 178.151 3.04955C175.343 3.45979 172.504 3.94035 169.712 4.47952C169.677 4.48655 169.642 4.4889 169.609 4.4889L169.607 4.48655Z" fill="black"/>
<path d="M138.513 22.5251C138.293 22.5251 138.084 22.3892 138.005 22.1688C137.902 21.8875 138.045 21.5757 138.326 21.4726C163.186 12.3442 188.553 9.05063 213.713 11.6972C214.011 11.7277 214.227 11.995 214.196 12.2927C214.166 12.5904 213.896 12.8061 213.598 12.7756C188.602 10.1501 163.404 13.4202 138.699 22.4923C138.638 22.5158 138.574 22.5251 138.511 22.5251H138.513Z" fill="black"/>
<path d="M131.469 32.2005H131.453L127.735 32.0879C127.435 32.0786 127.2 31.8277 127.21 31.5277C127.219 31.2276 127.472 30.9862 127.767 31.0002L131.485 31.1128C131.785 31.1221 132.02 31.373 132.01 31.673C132.001 31.9684 131.76 32.2005 131.469 32.2005Z" fill="black"/>
<path d="M118.454 31.8018H118.438L114.72 31.6893C114.42 31.6799 114.185 31.4291 114.195 31.129C114.204 30.829 114.445 30.5875 114.753 30.6016L118.47 30.7141C118.771 30.7235 119.005 30.9743 118.996 31.2744C118.986 31.5697 118.745 31.8018 118.454 31.8018Z" fill="black"/>
<path d="M122.798 40.3094C122.798 40.3094 122.784 40.3094 122.779 40.3094C122.479 40.2976 122.245 40.0468 122.256 39.7467L122.39 36.0288C122.402 35.7288 122.659 35.4873 122.953 35.5061C123.253 35.5178 123.487 35.7686 123.475 36.0687L123.342 39.7866C123.33 40.0796 123.091 40.3094 122.8 40.3094H122.798Z" fill="black"/>
<path d="M123.269 27.2988C123.269 27.2988 123.255 27.2988 123.25 27.2988C122.95 27.287 122.716 27.0362 122.727 26.7362L122.861 23.0182C122.873 22.7182 123.124 22.4744 123.424 22.4955C123.724 22.5072 123.958 22.758 123.946 23.0581L123.813 26.776C123.801 27.069 123.562 27.2988 123.271 27.2988H123.269Z" fill="black"/>
<path d="M179.652 295.342H400.936V125.174L179.652 125.174L179.652 295.342Z" fill="white"/>
<path d="M126.631 51.0133H287.901L154.923 110.93L5.02731 107.182C4.50455 107.182 4.34983 106.469 4.82571 106.254L126.631 51.0156V51.0133Z" fill="white"/>
<path d="M154.923 111.474H154.909L5.0154 107.723C4.53953 107.723 4.12695 107.391 4.0238 106.912C3.92066 106.434 4.15977 105.961 4.60517 105.757L126.41 50.5186C126.481 50.4857 126.558 50.4693 126.635 50.4693H287.905C288.161 50.4693 288.381 50.6475 288.435 50.8983C288.489 51.1492 288.36 51.4024 288.128 51.5078L155.148 111.425C155.078 111.455 155.003 111.472 154.925 111.472L154.923 111.474ZM5.27561 106.645L154.813 110.386L285.376 51.5571H126.75L5.27561 106.645Z" fill="black"/>
<path d="M163.723 107.227H413.21L288.081 51.0157L163.723 107.227Z" fill="white"/>
<path d="M15.4705 295.04H179.582L179.582 124.996L15.4705 124.996L15.4705 295.04Z" fill="white"/>
<path d="M359.244 125.174H343.341V295.342H359.244V125.174Z" fill="white"/>
<path d="M318.193 125.174H302.29V295.342H318.193V125.174Z" fill="white"/>
<path d="M277.143 125.174H261.24V295.342H277.143V125.174Z" fill="white"/>
<path d="M236.094 125.174H220.191V295.342H236.094V125.174Z" fill="white"/>
<path d="M195.555 125.174H179.652V295.342H195.555V125.174Z" fill="white"/>
<path d="M400.294 125.174H384.391V295.342H400.294V125.174Z" fill="white"/>
<path d="M179.652 333.899H236.094V295.343H179.652V333.899Z" fill="white"/>
<path d="M236.094 334.442H179.652C179.352 334.442 179.108 334.198 179.108 333.898V295.342C179.108 295.042 179.352 294.799 179.652 294.799H236.094C236.394 294.799 236.637 295.042 236.637 295.342V333.898C236.637 334.198 236.394 334.442 236.094 334.442ZM180.196 333.356H235.552V295.886H180.196V333.356Z" fill="black"/>
<path d="M179.584 125.202L400.293 125.202V107.299L179.584 107.299V125.202Z" fill="white"/>
<path d="M400.294 125.743H179.584C179.284 125.743 179.04 125.499 179.04 125.199V107.297C179.04 106.997 179.284 106.753 179.584 106.753H400.294C400.594 106.753 400.837 106.997 400.837 107.297V125.199C400.837 125.499 400.594 125.743 400.294 125.743ZM180.125 124.658H399.75V107.841H180.125V124.658Z" fill="black"/>
<path d="M343.365 333.899H399.834V295.343H343.365V333.899Z" fill="white"/>
<path d="M236.094 333.899H343.046V295.343H236.094V333.899Z" fill="white"/>
<path d="M343.046 334.442H236.094C235.794 334.442 235.55 334.198 235.55 333.898V295.342C235.55 295.042 235.794 294.799 236.094 294.799H343.046C343.346 294.799 343.59 295.042 343.59 295.342V333.898C343.59 334.198 343.346 334.442 343.046 334.442ZM236.638 333.356H342.504V295.886H236.638V333.356Z" fill="black"/>
<path d="M179.581 125.202V107.299H15.4727V125.174H15.454V295.342H15.3391V333.899H179.415V295.342H154.505V125.202H179.581ZM31.3571 295.342V125.202H56.5034V295.342H31.3571ZM72.4065 295.342V125.202H97.5529V295.342H72.4065ZM113.456 295.342V125.202H138.602V295.342H113.456Z" fill="white"/>
<path d="M179.415 334.442H15.3393C15.0392 334.442 14.7954 334.199 14.7954 333.898V295.342C14.7954 295.216 14.8376 295.101 14.9103 295.009V125.174C14.9103 125.125 14.9173 125.078 14.929 125.031V107.299C14.929 106.999 15.1728 106.755 15.4729 106.755H179.584C179.884 106.755 180.128 106.999 180.128 107.299V125.202C180.128 125.502 179.884 125.746 179.584 125.746H155.049V294.801H179.415C179.715 294.801 179.959 295.045 179.959 295.345V333.901C179.959 334.201 179.715 334.445 179.415 334.445V334.442ZM15.8831 333.357H178.874V295.886H154.508C154.208 295.886 153.964 295.642 153.964 295.342V125.202C153.964 124.902 154.208 124.658 154.508 124.658H179.042V107.841H16.0144V125.172C16.0144 125.221 16.0074 125.268 15.9956 125.315V295.342C15.9956 295.469 15.9534 295.584 15.8808 295.675V333.355L15.8831 333.357ZM138.603 295.886H113.456C113.156 295.886 112.912 295.642 112.912 295.342V125.202C112.912 124.902 113.156 124.658 113.456 124.658H138.603C138.903 124.658 139.146 124.902 139.146 125.202V295.342C139.146 295.642 138.903 295.886 138.603 295.886ZM113.998 294.801H138.059V125.746H113.998V294.801ZM97.553 295.886H72.4067C72.1067 295.886 71.8629 295.642 71.8629 295.342V125.202C71.8629 124.902 72.1067 124.658 72.4067 124.658H97.553C97.8531 124.658 98.0969 124.902 98.0969 125.202V295.342C98.0969 295.642 97.8531 295.886 97.553 295.886ZM72.9482 294.801H97.0092V125.746H72.9482V294.801ZM56.5036 295.886H31.3573C31.0572 295.886 30.8134 295.642 30.8134 295.342V125.202C30.8134 124.902 31.0572 124.658 31.3573 124.658H56.5036C56.8036 124.658 57.0474 124.902 57.0474 125.202V295.342C57.0474 295.642 56.8036 295.886 56.5036 295.886ZM31.8988 294.801H55.9597V125.746H31.8988V294.801Z" fill="black"/>
<path d="M273.824 303.812H247.442C247.142 303.812 246.898 303.569 246.898 303.268C246.898 302.968 247.142 302.725 247.442 302.725H273.824C274.124 302.725 274.368 302.968 274.368 303.268C274.368 303.569 274.124 303.812 273.824 303.812Z" fill="white"/>
<path d="M286.6 311.518H247.442C247.142 311.518 246.898 311.274 246.898 310.974C246.898 310.674 247.142 310.43 247.442 310.43H286.6C286.9 310.43 287.144 310.674 287.144 310.974C287.144 311.274 286.9 311.518 286.6 311.518Z" fill="white"/>
<path d="M299.587 319.221H247.442C247.142 319.221 246.898 318.977 246.898 318.677C246.898 318.377 247.142 318.133 247.442 318.133H299.587C299.887 318.133 300.131 318.377 300.131 318.677C300.131 318.977 299.887 319.221 299.587 319.221Z" fill="white"/>
<path d="M332.943 326.927H247.442C247.142 326.927 246.898 326.683 246.898 326.383C246.898 326.083 247.142 325.839 247.442 325.839H332.943C333.243 325.839 333.487 326.083 333.487 326.383C333.487 326.683 333.243 326.927 332.943 326.927Z" fill="white"/>
<path d="M179.652 289.109C179.352 289.109 179.108 288.865 179.108 288.565V132.819C179.108 132.519 179.352 132.275 179.652 132.275C179.952 132.275 180.196 132.519 180.196 132.819V288.565C180.196 288.865 179.952 289.109 179.652 289.109Z" fill="black"/>
<path d="M400.294 295.884C399.994 295.884 399.75 295.64 399.75 295.34V131.699C399.75 131.399 399.994 131.155 400.294 131.155C400.594 131.155 400.837 131.399 400.837 131.699V295.34C400.837 295.64 400.594 295.884 400.294 295.884Z" fill="black"/>
<path d="M343.365 333.899H399.834V295.343H343.365V333.899Z" fill="white"/>
<path d="M399.834 334.442H343.364C343.064 334.442 342.821 334.198 342.821 333.898V295.342C342.821 295.042 343.064 294.799 343.364 294.799H399.834C400.134 294.799 400.378 295.042 400.378 295.342V333.898C400.378 334.198 400.134 334.442 399.834 334.442ZM343.908 333.356H399.293V295.886H343.908V333.356Z" fill="black"/>
<path d="M183.503 406.536H410.111C416.344 406.536 421.398 401.493 421.396 395.274L421.382 80.1175C421.218 71.6781 417.146 66.8372 410.109 66.8372H183.501C177.898 66.8372 173.123 70.9115 172.228 76.4534L172.216 395.274C172.216 401.493 177.268 406.536 183.501 406.536H183.503Z" fill="black"/>
<path d="M174.134 406.829H400.772C407.005 406.829 412.059 401.774 412.059 395.541L412.045 79.747C411.881 71.2889 407.807 66.4808 400.769 66.4808H174.129C168.526 66.4808 163.751 70.5692 162.853 76.1251L162.846 395.541C162.846 401.774 167.9 406.829 174.134 406.829Z" fill="white"/>
<path d="M400.769 407.373H174.131C167.607 407.373 162.3 402.065 162.3 395.543L162.307 76.1274C162.307 76.0993 162.309 76.0688 162.314 76.0407C163.259 70.1871 168.226 65.9392 174.124 65.9392H400.765C408.107 65.9392 412.413 70.97 412.582 79.7376L412.596 395.541C412.596 398.701 411.365 401.671 409.131 403.905C406.897 406.139 403.927 407.37 400.765 407.37L400.769 407.373ZM163.395 76.1696L163.388 395.541C163.388 401.465 168.207 406.285 174.134 406.285H400.772C403.641 406.285 406.339 405.167 408.369 403.139C410.399 401.109 411.518 398.41 411.515 395.541L411.501 79.747C411.342 71.5444 407.53 67.0223 400.769 67.0223H174.129C168.779 67.0223 164.274 70.8645 163.397 76.1673L163.395 76.1696Z" fill="black"/>
<path d="M342.628 56.5668H238.644C235.525 56.5668 232.997 59.0951 232.997 62.214V85.2036C232.997 88.3225 235.525 90.8508 238.644 90.8508H342.628C345.747 90.8508 348.276 88.3225 348.276 85.2036V62.214C348.276 59.0951 345.747 56.5668 342.628 56.5668Z" fill="white"/>
<path d="M342.626 91.3948H238.644C235.231 91.3948 232.453 88.617 232.453 85.2038V62.2141C232.453 58.801 235.231 56.0231 238.644 56.0231H342.626C346.039 56.0231 348.817 58.801 348.817 62.2141V85.2038C348.817 88.617 346.039 91.3948 342.626 91.3948ZM238.644 57.1108C235.829 57.1108 233.538 59.4011 233.538 62.2165V85.2061C233.538 88.0215 235.829 90.3118 238.644 90.3118H342.626C345.441 90.3118 347.732 88.0215 347.732 85.2061V62.2165C347.732 59.4011 345.441 57.1108 342.626 57.1108H238.644Z" fill="black"/>
<path d="M290.575 28.797C279.675 28.797 270.882 37.6326 270.882 48.5311V78.1087C270.882 80.7671 273.038 82.9238 275.697 82.9238H305.454C308.112 82.9238 310.269 80.7694 310.269 78.1087V48.5311C310.269 37.6326 301.476 28.797 290.575 28.797ZM291.677 55.8288C286.433 56.4899 282.021 52.0779 282.682 46.8338C283.132 43.2612 286.018 40.3754 289.593 39.9253C294.837 39.2642 299.249 43.6737 298.588 48.9179C298.138 52.4905 295.252 55.3763 291.677 55.8264V55.8288Z" fill="white"/>
<path d="M305.456 83.4674H275.699C272.745 83.4674 270.342 81.0646 270.342 78.1108V48.5331C270.342 37.351 279.421 28.2552 290.58 28.2552C301.738 28.2552 310.817 37.351 310.817 48.5331V78.1108C310.817 81.0646 308.415 83.4674 305.461 83.4674H305.456ZM290.577 29.3406C280.017 29.3406 271.428 37.9511 271.428 48.5331V78.1108C271.428 80.4668 273.343 82.382 275.699 82.382H305.456C307.812 82.382 309.727 80.4668 309.727 78.1108V48.5331C309.727 37.9511 301.136 29.3406 290.577 29.3406ZM290.638 56.4357C288.367 56.4357 286.206 55.5519 284.581 53.9273C282.696 52.0425 281.808 49.431 282.145 46.7656C282.624 42.9678 285.727 39.864 289.525 39.3858C292.193 39.0482 294.804 39.9391 296.689 41.8238C298.574 43.7086 299.462 46.3202 299.124 48.9856C298.646 52.7833 295.543 55.8871 291.745 56.3653C291.375 56.4122 291.004 56.4357 290.636 56.4357H290.638ZM290.629 40.4032C290.308 40.4032 289.984 40.4243 289.661 40.4642C286.349 40.8814 283.639 43.5891 283.221 46.9015C282.928 49.2341 283.702 51.5151 285.348 53.1607C286.993 54.8064 289.276 55.58 291.609 55.2893C294.921 54.872 297.631 52.1644 298.048 48.852C298.342 46.5194 297.568 44.2384 295.922 42.5928C294.506 41.1745 292.617 40.4032 290.631 40.4032H290.629Z" fill="black"/>
<path d="M291.513 304.764H193.321C189.383 304.764 186.178 301.559 186.178 297.621V158.934C186.178 158.634 186.422 158.39 186.722 158.39C187.022 158.39 187.266 158.634 187.266 158.934V297.621C187.266 300.961 189.983 303.678 193.323 303.678H291.515C291.815 303.678 292.059 303.922 292.059 304.222C292.059 304.522 291.815 304.766 291.515 304.766L291.513 304.764Z" fill="black"/>
<path d="M365.726 304.763H349.717C349.417 304.763 349.173 304.52 349.173 304.22C349.173 303.919 349.417 303.676 349.717 303.676H365.726C366.026 303.676 366.27 303.919 366.27 304.22C366.27 304.52 366.026 304.763 365.726 304.763Z" fill="white"/>
<path d="M396.564 200.188C396.264 200.188 396.022 199.944 396.02 199.646L395.931 124.142C395.931 120.802 393.214 118.085 389.873 118.085H341.458C341.158 118.085 340.915 117.841 340.915 117.541C340.915 117.241 341.158 116.997 341.458 116.997H389.873C393.812 116.997 397.016 120.202 397.016 124.14L397.105 199.644C397.105 199.944 396.864 200.188 396.564 200.188Z" fill="black"/>
<path d="M396.142 180.96H280.56C280.26 180.96 280.017 180.717 280.017 180.416C280.017 180.116 280.26 179.873 280.56 179.873H396.142C396.442 179.873 396.686 180.116 396.686 180.416C396.686 180.717 396.442 180.96 396.142 180.96Z" fill="black"/>
<path d="M291.881 211.938H267.525C267.225 211.938 266.981 211.694 266.981 211.394C266.981 211.094 267.225 210.85 267.525 210.85H291.881C292.181 210.85 292.425 211.094 292.425 211.394C292.425 211.694 292.181 211.938 291.881 211.938Z" fill="black"/>
<path d="M396.409 150.738H339.183C338.882 150.738 338.639 150.494 338.639 150.194C338.639 149.894 338.882 149.65 339.183 149.65H396.409C396.709 149.65 396.953 149.894 396.953 150.194C396.953 150.494 396.709 150.738 396.409 150.738Z" fill="black"/>
<path d="M276.803 150.738H223.925C223.625 150.738 223.381 150.494 223.381 150.194C223.381 149.894 223.625 149.65 223.925 149.65H276.803C277.103 149.65 277.347 149.894 277.347 150.194C277.347 150.494 277.103 150.738 276.803 150.738Z" fill="black"/>
<path d="M274.4 118.331H232.995C232.694 118.331 232.451 118.087 232.451 117.787C232.451 117.487 232.694 117.243 232.995 117.243H274.4C274.7 117.243 274.944 117.487 274.944 117.787C274.944 118.087 274.7 118.331 274.4 118.331Z" fill="black"/>
<path d="M198.846 211.938H186.72C186.42 211.938 186.176 211.694 186.176 211.394C186.176 211.094 186.42 210.85 186.72 210.85H198.846C199.146 210.85 199.39 211.094 199.39 211.394C199.39 211.694 199.146 211.938 198.846 211.938Z" fill="black"/>
<path d="M286.123 242.912H273.268C272.968 242.912 272.724 242.668 272.724 242.368C272.724 242.068 272.968 241.824 273.268 241.824H286.123C286.423 241.824 286.667 242.068 286.667 242.368C286.667 242.668 286.423 242.912 286.123 242.912Z" fill="black"/>
<path d="M263.155 242.912H186.72C186.42 242.912 186.176 242.668 186.176 242.368C186.176 242.068 186.42 241.824 186.72 241.824H263.155C263.455 241.824 263.699 242.068 263.699 242.368C263.699 242.668 263.455 242.912 263.155 242.912Z" fill="black"/>
<path d="M400.207 273.889H385.033C384.733 273.889 384.489 273.645 384.489 273.345C384.489 273.045 384.733 272.802 385.033 272.802H400.207C400.507 272.802 400.751 273.045 400.751 273.345C400.751 273.645 400.507 273.889 400.207 273.889Z" fill="white"/>
<path d="M288.297 273.889H186.72C186.42 273.889 186.176 273.645 186.176 273.345C186.176 273.045 186.42 272.802 186.72 272.802H288.297C288.597 272.802 288.84 273.045 288.84 273.345C288.84 273.645 288.597 273.889 288.297 273.889Z" fill="black"/>
<path d="M287.26 333.628H221.489C218.463 333.628 216.001 331.167 216.001 328.14C216.001 325.114 218.463 322.653 221.489 322.653H287.26C290.287 322.653 292.748 325.114 292.748 328.14C292.748 331.167 290.287 333.628 287.26 333.628ZM221.489 323.736C219.06 323.736 217.087 325.712 217.087 328.138C217.087 330.564 219.063 332.541 221.489 332.541H287.26C289.689 332.541 291.663 330.564 291.663 328.138C291.663 325.712 289.687 323.736 287.26 323.736H221.489Z" fill="black"/>
<path d="M290.371 354.126H214.867C211.84 354.126 209.379 351.665 209.379 348.639C209.379 345.612 211.84 343.151 214.867 343.151H290.371C293.398 343.151 295.859 345.612 295.859 348.639C295.859 351.665 293.398 354.126 290.371 354.126ZM214.869 344.236C212.44 344.236 210.467 346.212 210.467 348.639C210.467 351.065 212.44 353.041 214.869 353.041H290.374C292.802 353.041 294.776 351.065 294.776 348.639C294.776 346.212 292.8 344.236 290.374 344.236H214.869Z" fill="black"/>
<path d="M444.564 203.744H318.057C313.49 203.744 309.786 207.446 309.786 212.015V258.947C309.786 259.1 309.782 259.252 309.774 259.404L301.31 412.218C301.047 416.958 304.819 420.945 309.568 420.945H436.052C440.443 420.945 444.067 417.516 444.311 413.134L452.828 259.66C452.837 259.507 452.839 259.355 452.839 259.203V212.015C452.839 207.448 449.135 203.744 444.569 203.744H444.564Z" fill="black"/>
<path d="M436.352 204.452H307.308C303.44 204.452 300.306 207.587 300.306 211.455V259.05L291.834 412.825C291.614 416.836 294.806 420.212 298.824 420.212H427.85C431.568 420.212 434.636 417.307 434.84 413.596L443.354 259.463V211.455C443.354 207.589 440.22 204.452 436.352 204.452Z" fill="white"/>
<path d="M427.847 420.756H298.822C296.729 420.756 294.781 419.919 293.341 418.397C291.902 416.876 291.173 414.888 291.288 412.797L291.75 404.407C291.766 404.107 292.022 403.861 292.322 403.896C292.622 403.912 292.849 404.168 292.833 404.468L292.371 412.858C292.272 414.646 292.896 416.351 294.129 417.652C295.362 418.953 297.027 419.67 298.82 419.67H427.845C431.272 419.67 434.107 416.991 434.294 413.568L442.808 259.435V211.455C442.808 207.894 439.911 204.996 436.348 204.996H307.304C303.743 204.996 300.845 207.894 300.845 211.455V259.05L294.506 374.13C294.49 374.431 294.235 374.658 293.934 374.642C293.634 374.625 293.407 374.37 293.423 374.07L299.762 259.02V211.452C299.762 207.291 303.147 203.908 307.306 203.908H436.35C440.511 203.908 443.896 207.294 443.896 211.452V259.461L435.382 413.624C435.161 417.621 431.851 420.753 427.847 420.753V420.756Z" fill="black"/>
<path d="M435.593 259.81H307.831C307.531 259.81 307.287 259.566 307.287 259.266C307.287 258.966 307.531 258.722 307.831 258.722H435.593C435.893 258.722 436.137 258.966 436.137 259.266C436.137 259.566 435.893 259.81 435.593 259.81Z" fill="black"/>
<path d="M320.525 217.801H423.133C426.185 217.801 428.663 220.278 428.663 223.331V240.586C428.663 243.638 426.185 246.116 423.133 246.116H320.525C317.473 246.116 314.995 243.638 314.995 240.586V223.331C314.995 220.278 317.473 217.801 320.525 217.801Z" fill="white"/>
<path d="M423.133 246.658H320.527C317.18 246.658 314.453 243.934 314.453 240.586V223.331C314.453 219.983 317.177 217.259 320.527 217.259H423.133C426.481 217.259 429.205 219.983 429.205 223.331V240.586C429.205 243.934 426.481 246.658 423.133 246.658ZM320.525 218.342C317.775 218.342 315.539 220.579 315.539 223.328V240.584C315.539 243.334 317.775 245.57 320.525 245.57H423.131C425.881 245.57 428.117 243.334 428.117 240.584V223.328C428.117 220.579 425.881 218.342 423.131 218.342H320.525Z" fill="black"/>
<path d="M416.619 238.531H379.168C377.166 238.531 375.536 236.902 375.536 234.9V229.013C375.536 227.012 377.166 225.382 379.168 225.382H416.619C418.621 225.382 420.25 227.012 420.25 229.013V234.9C420.25 236.902 418.621 238.531 416.619 238.531ZM379.168 226.47C377.763 226.47 376.622 227.612 376.622 229.016V234.902C376.622 236.306 377.763 237.448 379.168 237.448H416.619C418.023 237.448 419.164 236.306 419.164 234.902V229.016C419.164 227.612 418.023 226.47 416.619 226.47H379.168Z" fill="black"/>
<path d="M365.327 238.531H347.511C345.509 238.531 343.88 236.902 343.88 234.9V229.013C343.88 227.012 345.509 225.382 347.511 225.382H365.327C367.329 225.382 368.958 227.012 368.958 229.013V234.9C368.958 236.902 367.329 238.531 365.327 238.531ZM347.511 226.47C346.107 226.47 344.965 227.612 344.965 229.016V234.902C344.965 236.306 346.107 237.448 347.511 237.448H365.327C366.731 237.448 367.873 236.306 367.873 234.902V229.016C367.873 227.612 366.731 226.47 365.327 226.47H347.511Z" fill="black"/>
<path d="M357.348 380.818H339.269C338.116 380.818 337.044 380.356 336.252 379.515C335.46 378.676 335.064 377.579 335.132 376.428L336.154 359.177C336.283 356.989 338.102 355.278 340.291 355.278H358.37C359.523 355.278 360.594 355.74 361.387 356.582C362.179 357.421 362.575 358.518 362.507 359.669L361.485 376.92C361.356 379.107 359.537 380.821 357.348 380.821V380.818ZM340.291 356.364C338.674 356.364 337.333 357.627 337.237 359.242L336.215 376.493C336.165 377.342 336.458 378.153 337.042 378.772C337.626 379.391 338.418 379.733 339.269 379.733H357.348C358.965 379.733 360.306 378.469 360.402 376.854L361.424 359.603C361.473 358.755 361.18 357.943 360.597 357.325C360.013 356.706 359.221 356.364 358.37 356.364H340.291Z" fill="black"/>
<path d="M390.926 380.818H372.848C371.694 380.818 370.623 380.356 369.831 379.515C369.038 378.676 368.642 377.579 368.71 376.428L369.732 359.177C369.861 356.989 371.68 355.278 373.87 355.278H391.948C393.102 355.278 394.173 355.74 394.965 356.582C395.758 357.421 396.154 358.518 396.086 359.669L395.064 376.92C394.935 379.107 393.116 380.821 390.926 380.821V380.818ZM373.867 356.364C372.25 356.364 370.909 357.627 370.813 359.242L369.791 376.493C369.742 377.342 370.035 378.153 370.618 378.772C371.202 379.391 371.994 379.733 372.845 379.733H390.924C392.541 379.733 393.882 378.469 393.978 376.854L395 359.603C395.05 358.755 394.757 357.943 394.173 357.325C393.589 356.706 392.797 356.364 391.946 356.364H373.867Z" fill="black"/>
<path d="M355.589 412.799H337.511C336.358 412.799 335.286 412.337 334.496 411.498C333.704 410.659 333.305 409.564 333.373 408.413L334.403 390.691C334.529 388.501 336.348 386.785 338.54 386.785H356.619C357.772 386.785 358.843 387.247 359.633 388.086C360.426 388.925 360.824 390.02 360.756 391.171L359.727 408.891C359.6 411.081 357.781 412.796 355.589 412.796V412.799ZM338.54 387.873C336.92 387.873 335.579 389.139 335.486 390.754L334.456 408.476C334.407 409.325 334.7 410.133 335.286 410.752C335.87 411.371 336.66 411.713 337.511 411.713H355.589C357.209 411.713 358.55 410.448 358.644 408.832L359.673 391.113C359.722 390.264 359.429 389.453 358.843 388.836C358.26 388.217 357.47 387.875 356.619 387.875H338.54V387.873Z" fill="black"/>
<path d="M389.166 412.799H371.087C369.934 412.799 368.862 412.337 368.072 411.498C367.28 410.659 366.882 409.564 366.95 408.413L367.979 390.691C368.105 388.501 369.924 386.785 372.116 386.785H390.195C391.348 386.785 392.419 387.247 393.209 388.086C394.002 388.925 394.4 390.02 394.332 391.171L393.303 408.891C393.177 411.081 391.358 412.796 389.166 412.796V412.799ZM372.116 387.873C370.496 387.873 369.156 389.139 369.062 390.754L368.033 408.476C367.983 409.325 368.276 410.133 368.86 410.752C369.444 411.371 370.234 411.713 371.087 411.713H389.166C390.786 411.713 392.126 410.448 392.22 408.832L393.249 391.113C393.298 390.264 393.005 389.453 392.419 388.836C391.836 388.217 391.046 387.875 390.195 387.875H372.116V387.873Z" fill="black"/>
<path d="M325.525 348.838H307.446C306.293 348.838 305.222 348.376 304.429 347.534C303.637 346.695 303.241 345.598 303.309 344.447L304.331 327.196C304.46 325.009 306.279 323.298 308.468 323.298H326.547C327.7 323.298 328.772 323.76 329.564 324.601C330.356 325.44 330.752 326.537 330.684 327.688L329.662 344.939C329.533 347.127 327.714 348.838 325.525 348.838ZM308.468 324.383C306.851 324.383 305.51 325.647 305.414 327.262L304.392 344.513C304.343 345.361 304.636 346.172 305.219 346.791C305.803 347.41 306.595 347.753 307.446 347.753H325.525C327.142 347.753 328.483 346.489 328.579 344.874L329.601 327.623C329.651 326.774 329.358 325.963 328.774 325.344C328.19 324.725 327.398 324.383 326.547 324.383H308.468Z" fill="black"/>
<path d="M359.103 348.838H341.025C339.871 348.838 338.8 348.376 338.008 347.534C337.215 346.695 336.819 345.598 336.887 344.447L337.909 327.196C338.038 325.009 339.857 323.298 342.047 323.298H360.125C361.279 323.298 362.35 323.76 363.142 324.601C363.935 325.44 364.331 326.537 364.263 327.688L363.241 344.939C363.112 347.127 361.293 348.838 359.103 348.838ZM342.044 324.383C340.427 324.383 339.086 325.647 338.99 327.262L337.968 344.513C337.919 345.361 338.212 346.172 338.795 346.791C339.379 347.41 340.171 347.753 341.022 347.753H359.101C360.718 347.753 362.059 346.489 362.155 344.874L363.177 327.623C363.227 326.774 362.934 325.963 362.35 325.344C361.766 324.725 360.974 324.383 360.123 324.383H342.044Z" fill="black"/>
<path d="M392.679 348.838H374.601C373.447 348.838 372.376 348.376 371.584 347.534C370.792 346.695 370.395 345.598 370.463 344.447L371.485 327.196C371.614 325.009 373.433 323.298 375.623 323.298H393.701C394.855 323.298 395.926 323.76 396.718 324.601C397.511 325.44 397.907 326.537 397.839 327.688L396.817 344.939C396.688 347.127 394.869 348.838 392.679 348.838ZM375.623 324.383C374.005 324.383 372.665 325.647 372.568 327.262L371.546 344.513C371.497 345.361 371.79 346.172 372.374 346.791C372.958 347.41 373.75 347.753 374.601 347.753H392.679C394.297 347.753 395.638 346.489 395.734 344.874L396.756 327.623C396.805 326.774 396.512 325.963 395.928 325.344C395.345 324.725 394.552 324.383 393.701 324.383H375.623Z" fill="black"/>
<path d="M426.258 348.838H408.179C407.026 348.838 405.955 348.376 405.162 347.534C404.37 346.695 403.974 345.598 404.042 344.447L405.064 327.196C405.193 325.009 407.012 323.298 409.202 323.298H427.28C428.433 323.298 429.505 323.76 430.297 324.601C431.089 325.44 431.486 326.537 431.418 327.688L430.396 344.939C430.267 347.127 428.447 348.838 426.258 348.838ZM409.202 324.383C407.584 324.383 406.243 325.647 406.147 327.262L405.125 344.513C405.076 345.361 405.369 346.172 405.952 346.791C406.536 347.41 407.329 347.753 408.179 347.753H426.258C427.876 347.753 429.216 346.489 429.312 344.874L430.335 327.623C430.384 326.774 430.091 325.963 429.507 325.344C428.923 324.725 428.131 324.383 427.28 324.383H409.202Z" fill="black"/>
<path d="M327.288 316.857H309.209C308.056 316.857 306.985 316.396 306.192 315.556C305.4 314.717 305.001 313.62 305.072 312.469L306.094 295.218C306.223 293.031 308.042 291.317 310.231 291.317H328.31C329.463 291.317 330.534 291.779 331.327 292.618C332.119 293.457 332.518 294.555 332.447 295.706L331.425 312.957C331.296 315.144 329.477 316.855 327.288 316.855V316.857ZM310.229 292.403C308.611 292.403 307.271 293.666 307.174 295.281L306.152 312.532C306.103 313.381 306.396 314.192 306.98 314.811C307.564 315.43 308.354 315.772 309.207 315.772H327.285C328.903 315.772 330.244 314.508 330.34 312.893L331.362 295.642C331.411 294.794 331.118 293.983 330.534 293.364C329.951 292.745 329.161 292.403 328.307 292.403H310.229Z" fill="black"/>
<path d="M360.864 316.857H342.785C341.632 316.857 340.56 316.396 339.768 315.556C338.976 314.717 338.577 313.62 338.648 312.469L339.67 295.218C339.799 293.031 341.618 291.317 343.807 291.317H361.886C363.039 291.317 364.11 291.779 364.903 292.618C365.695 293.457 366.094 294.555 366.023 295.706L365.001 312.957C364.872 315.144 363.053 316.855 360.864 316.855V316.857ZM343.807 292.403C342.19 292.403 340.849 293.666 340.753 295.281L339.731 312.532C339.681 313.381 339.974 314.192 340.558 314.811C341.142 315.43 341.932 315.772 342.785 315.772H360.864C362.481 315.772 363.822 314.508 363.918 312.893L364.94 295.642C364.989 294.794 364.696 293.983 364.113 293.364C363.529 292.745 362.739 292.403 361.886 292.403H343.807Z" fill="black"/>
<path d="M394.442 316.857H376.364C375.21 316.857 374.139 316.396 373.347 315.556C372.554 314.717 372.156 313.62 372.226 312.469L373.248 295.218C373.377 293.031 375.196 291.317 377.386 291.317H395.464C396.618 291.317 397.689 291.779 398.481 292.618C399.274 293.457 399.672 294.555 399.602 295.706L398.58 312.957C398.451 315.144 396.632 316.855 394.442 316.855V316.857ZM377.386 292.403C375.768 292.403 374.427 293.666 374.331 295.281L373.309 312.532C373.26 313.381 373.553 314.192 374.137 314.811C374.72 315.43 375.51 315.772 376.364 315.772H394.442C396.06 315.772 397.401 314.508 397.497 312.893L398.519 295.642C398.568 294.794 398.275 293.983 397.691 293.364C397.108 292.745 396.318 292.403 395.464 292.403H377.386Z" fill="black"/>
<path d="M428.021 316.857H409.942C408.789 316.857 407.717 316.396 406.925 315.556C406.133 314.717 405.734 313.62 405.805 312.469L406.827 295.218C406.956 293.031 408.775 291.317 410.964 291.317H429.043C430.196 291.317 431.267 291.779 432.06 292.618C432.852 293.457 433.248 294.555 433.18 295.706L432.158 312.957C432.029 315.144 430.21 316.855 428.021 316.855V316.857ZM410.964 292.403C409.347 292.403 408.006 293.666 407.91 295.281L406.888 312.532C406.838 313.381 407.131 314.192 407.715 314.811C408.299 315.43 409.089 315.772 409.942 315.772H428.021C429.638 315.772 430.979 314.508 431.075 312.893L432.097 295.642C432.146 294.794 431.853 293.983 431.27 293.364C430.686 292.745 429.894 292.403 429.043 292.403H410.964Z" fill="black"/>
<path d="M323.769 380.818H305.69C304.537 380.818 303.466 380.356 302.673 379.515C301.881 378.676 301.485 377.579 301.553 376.428L302.575 359.177C302.704 356.989 304.523 355.278 306.713 355.278H324.791C325.944 355.278 327.016 355.74 327.808 356.582C328.6 357.421 328.997 358.518 328.929 359.669L327.907 376.92C327.778 379.107 325.958 380.821 323.769 380.821V380.818ZM306.713 356.364C305.095 356.364 303.754 357.627 303.658 359.242L302.636 376.493C302.587 377.342 302.88 378.153 303.463 378.772C304.047 379.391 304.839 379.733 305.69 379.733H323.769C325.386 379.733 326.727 378.469 326.823 376.854L327.846 359.603C327.895 358.755 327.602 357.943 327.018 357.325C326.434 356.706 325.642 356.364 324.791 356.364H306.713Z" fill="black"/>
<path d="M322.011 412.799H303.932C302.779 412.799 301.708 412.337 300.918 411.498C300.125 410.659 299.727 409.564 299.795 408.413L300.824 390.691C300.951 388.501 302.77 386.785 304.961 386.785H323.042C324.196 386.785 325.267 387.247 326.057 388.086C326.847 388.925 327.248 390.02 327.18 391.171L326.151 408.891C326.024 411.081 324.205 412.796 322.013 412.796L322.011 412.799ZM304.961 387.873C303.342 387.873 302.001 389.139 301.907 390.754L300.878 408.476C300.829 409.325 301.122 410.133 301.708 410.752C302.291 411.371 303.081 411.713 303.932 411.713H322.011C323.631 411.713 324.972 410.448 325.065 408.832L326.095 391.113C326.144 390.264 325.851 389.453 325.265 388.836C324.681 388.217 323.891 387.875 323.04 387.875H304.959L304.961 387.873Z" fill="black"/>
<path d="M422.739 412.743H404.658C403.507 412.743 402.436 412.281 401.646 411.444C400.856 410.607 400.455 409.513 400.521 408.364L403.318 358.97C403.442 356.776 405.261 355.06 407.457 355.06H425.538C426.689 355.06 427.761 355.522 428.551 356.359C429.341 357.196 429.741 358.29 429.676 359.439L426.879 408.833C426.755 411.027 424.938 412.743 422.739 412.743ZM407.455 356.145C405.833 356.145 404.492 357.414 404.401 359.031L401.604 408.425C401.557 409.274 401.85 410.08 402.434 410.699C403.017 411.315 403.807 411.658 404.658 411.658H422.739C424.361 411.658 425.702 410.389 425.794 408.772L428.59 359.378C428.637 358.53 428.344 357.723 427.761 357.104C427.177 356.488 426.387 356.145 425.536 356.145H407.455Z" fill="black"/>
<path d="M330.544 279.232H310.278C309.427 279.232 308.637 278.89 308.054 278.271C307.47 277.65 307.177 276.841 307.228 275.992L307.611 269.726C307.709 268.118 309.048 266.857 310.658 266.857H330.924C331.775 266.857 332.565 267.199 333.148 267.818C333.732 268.437 334.025 269.246 333.974 270.097L333.591 276.363C333.493 277.971 332.154 279.232 330.544 279.232ZM308.696 269.794L308.314 276.06C308.281 276.606 308.469 277.129 308.846 277.528C309.221 277.926 309.732 278.147 310.278 278.147H330.544C331.582 278.147 332.445 277.336 332.508 276.297L332.891 270.031C332.923 269.485 332.736 268.962 332.358 268.563C331.983 268.165 331.475 267.945 330.926 267.945H310.66C309.622 267.945 308.759 268.756 308.696 269.794Z" fill="black"/>
<path d="M364.122 279.232H343.856C343.005 279.232 342.215 278.89 341.632 278.271C341.048 277.652 340.755 276.843 340.807 275.992L341.189 269.726C341.287 268.118 342.626 266.857 344.236 266.857H364.502C365.353 266.857 366.143 267.199 366.727 267.818C367.31 268.437 367.603 269.246 367.552 270.097L367.17 276.363C367.071 277.971 365.733 279.232 364.122 279.232ZM344.239 267.945C343.2 267.945 342.337 268.756 342.274 269.794L341.892 276.06C341.859 276.609 342.047 277.129 342.424 277.528C342.799 277.926 343.308 278.147 343.856 278.147H364.122C365.161 278.147 366.023 277.336 366.087 276.297L366.469 270.031C366.501 269.485 366.314 268.962 365.937 268.563C365.561 268.163 365.05 267.945 364.504 267.945H344.239Z" fill="black"/>
<path d="M397.701 279.232H377.435C376.584 279.232 375.794 278.89 375.21 278.271C374.627 277.652 374.334 276.843 374.385 275.992L374.767 269.726C374.866 268.118 376.204 266.857 377.815 266.857H398.08C398.931 266.857 399.721 267.199 400.305 267.818C400.889 268.437 401.182 269.246 401.13 270.097L400.748 276.363C400.65 277.971 399.311 279.232 397.701 279.232ZM377.817 267.945C376.779 267.945 375.916 268.756 375.853 269.794L375.471 276.06C375.438 276.606 375.625 277.129 376.003 277.528C376.378 277.926 376.889 278.147 377.435 278.147H397.701C398.739 278.147 399.602 277.336 399.665 276.297L400.047 270.031C400.08 269.485 399.893 268.962 399.515 268.563C399.14 268.165 398.631 267.945 398.083 267.945H377.817Z" fill="black"/>
<path d="M408.887 269.724L408.508 275.979C408.418 277.423 409.567 278.642 411.014 278.642H431.279C432.606 278.642 433.705 277.608 433.785 276.283L434.167 270.029C434.256 268.585 433.108 267.366 431.661 267.366H411.396C410.069 267.366 408.969 268.4 408.89 269.724H408.887Z" fill="black"/>
<path d="M304.677 153.585C318.892 148.06 325.779 131.65 320.058 116.932C314.338 102.215 298.177 94.7628 283.962 100.288C269.747 105.813 262.86 122.223 268.581 136.941C274.301 151.659 290.462 159.11 304.677 153.585Z" fill="white"/>
<path d="M294.968 155.931C279.454 155.931 266.493 143.031 266.043 127.097C265.821 119.203 268.648 111.805 274.004 106.263C279.166 100.923 286.096 97.9573 293.513 97.9151C293.567 97.9151 293.621 97.9151 293.672 97.9151C300.663 97.9151 307.426 100.548 312.733 105.342C312.956 105.543 312.972 105.886 312.773 106.108C312.571 106.331 312.229 106.347 312.006 106.148C306.9 101.537 300.395 99.0028 293.674 99.0028C293.623 99.0028 293.571 99.0028 293.52 99.0028C286.396 99.0427 279.743 101.891 274.787 107.02C269.635 112.351 266.915 119.471 267.131 127.068C267.565 142.419 280.038 154.848 294.971 154.848C295.022 154.848 295.074 154.848 295.126 154.848C302.247 154.808 308.9 151.96 313.858 146.831C319.011 141.5 321.73 134.38 321.514 126.782C321.42 123.458 320.766 120.211 319.569 117.126C319.461 116.847 319.599 116.533 319.878 116.423C320.157 116.315 320.471 116.454 320.581 116.733C321.824 119.932 322.504 123.301 322.6 126.75C322.822 134.643 319.995 142.041 314.639 147.583C309.477 152.923 302.547 155.889 295.13 155.931C295.076 155.931 295.022 155.931 294.971 155.931H294.968Z" fill="black"/>
<path d="M291.658 143.804L291.771 139.854C289.061 139.713 286.449 138.951 284.935 138.027L286.288 133.17C287.961 134.136 290.327 135.022 292.959 135.039C295.268 135.053 296.874 134.145 296.921 132.483C296.966 130.903 295.697 129.898 292.73 128.843C288.437 127.321 285.54 125.226 285.655 121.194C285.758 117.537 288.351 114.681 292.708 113.833L292.821 109.883L296.79 109.906L296.687 113.563C299.396 113.704 301.204 114.295 302.521 114.967L301.213 119.658C300.172 119.194 298.337 118.228 295.421 118.212C292.788 118.198 291.904 119.356 291.872 120.521C291.832 121.892 293.227 122.774 296.63 124.124C301.401 125.896 303.281 128.196 303.175 131.935C303.07 135.634 300.43 138.78 295.749 139.584L295.629 143.825L291.661 143.801L291.658 143.804Z" fill="black"/>
<path d="M235.752 216.019C247.656 206.444 249.298 188.724 239.418 176.441C229.538 164.157 211.879 161.961 199.974 171.536C188.07 181.111 186.429 198.831 196.309 211.114C206.188 223.398 223.848 225.594 235.752 216.019Z" fill="white"/>
<path d="M218.758 222.427C208.083 222.427 197.641 216.435 192.418 206.181C188.844 199.164 188.225 191.274 190.674 183.962C193.042 176.891 198.031 171.204 204.716 167.948C211.06 164.861 218.35 164.284 225.242 166.326C225.53 166.41 225.695 166.713 225.608 167.001C225.523 167.289 225.219 167.453 224.933 167.367C218.301 165.402 211.287 165.953 205.19 168.926C198.767 172.053 193.977 177.515 191.701 184.306C189.345 191.342 189.943 198.935 193.382 205.688C200.368 219.4 217.035 225.207 230.535 218.634C236.958 215.506 241.748 210.044 244.024 203.253C246.38 196.218 245.782 188.625 242.343 181.871C240.836 178.912 238.855 176.266 236.454 174.001C236.236 173.795 236.227 173.452 236.431 173.234C236.637 173.016 236.98 173.007 237.198 173.211C239.689 175.562 241.745 178.31 243.309 181.378C246.884 188.395 247.503 196.286 245.053 203.597C242.685 210.668 237.697 216.355 231.011 219.611C227.085 221.522 222.9 222.427 218.753 222.427H218.758Z" fill="black"/>
<path d="M210.169 209.012L211.568 205.32C209.055 204.288 206.84 202.704 205.713 201.33L208.58 197.192C209.843 198.66 211.786 200.28 214.267 201.166C216.442 201.944 218.254 201.621 218.843 200.066C219.403 198.59 218.533 197.221 216.079 195.24C212.525 192.382 210.474 189.443 211.904 185.673C213.2 182.253 216.58 180.417 220.973 181.062L222.373 177.37L226.112 178.706L224.816 182.126C227.329 183.158 228.841 184.313 229.865 185.387L227.094 189.382C226.264 188.599 224.846 187.08 222.099 186.097C219.619 185.211 218.404 186.013 217.992 187.101C217.506 188.383 218.533 189.677 221.306 192.08C225.231 195.336 226.253 198.128 224.926 201.623C223.615 205.081 220.092 207.176 215.408 206.384L213.906 210.348L210.164 209.012H210.169Z" fill="black"/>
<path d="M207.755 115.846C209.481 100.138 198.6 86.054 183.451 84.3896C168.303 82.7252 154.624 94.1102 152.898 109.819C151.172 125.527 162.053 139.611 177.201 141.276C192.35 142.94 206.029 131.555 207.755 115.846Z" fill="white"/>
<path d="M180.055 141.983C174.971 141.983 169.977 140.548 165.547 137.756C152.34 129.434 148.214 111.484 156.346 97.7394C160.352 90.9692 166.665 86.2455 174.122 84.4451C181.34 82.701 188.785 83.927 195.086 87.8982C201.057 91.6607 205.417 97.566 207.361 104.521C207.44 104.81 207.271 105.11 206.983 105.19C206.695 105.272 206.395 105.1 206.315 104.812C204.444 98.1145 200.251 92.4343 194.507 88.8148C188.457 85.003 181.307 83.8262 174.378 85.5C167.209 87.2324 161.137 91.7756 157.281 98.2927C149.445 111.535 153.413 128.827 166.128 136.837C172.179 140.649 179.328 141.826 186.258 140.152C193.427 138.42 199.498 133.876 203.354 127.359C205.044 124.502 206.221 121.407 206.854 118.158C206.91 117.863 207.196 117.673 207.489 117.729C207.785 117.785 207.975 118.071 207.918 118.364C207.264 121.735 206.043 124.947 204.29 127.91C200.283 134.68 193.97 139.404 186.513 141.205C184.371 141.723 182.205 141.978 180.058 141.978L180.055 141.983Z" fill="black"/>
<path d="M186.799 128.231L184.79 124.836C182.428 126.177 179.816 126.942 178.046 126.977L176.602 122.148C178.529 122.061 181 121.536 183.232 120.129C185.189 118.896 186.061 117.267 185.215 115.837C184.411 114.48 182.805 114.313 179.736 115.021C175.303 116.048 171.74 115.842 169.689 112.375C167.828 109.231 168.498 105.424 171.726 102.358L169.717 98.9634L173.081 96.8442L174.942 99.9878C177.305 98.6469 179.146 98.1734 180.618 98.0304L182.013 102.695C180.887 102.864 178.822 103.038 176.351 104.594C174.12 106.001 173.991 107.454 174.584 108.455C175.282 109.634 176.928 109.627 180.522 108.933C185.494 107.86 188.304 108.788 190.208 112.004C192.09 115.185 191.535 119.262 188.011 122.464L190.168 126.109L186.804 128.228L186.799 128.231Z" fill="black"/>
<path d="M22.2268 418.301L37.7713 417.026L37.1688 415.349C35.7506 411.404 35.1246 407.217 35.3216 403.028L35.4435 400.447L24.3249 402.51L22.2268 418.301Z" fill="white"/>
<path d="M22.2268 418.842C22.0791 418.842 21.9361 418.781 21.8329 418.673C21.7204 418.554 21.6665 418.39 21.6876 418.228L23.7857 402.437C23.8161 402.205 23.9943 402.018 24.224 401.976L35.3426 399.913C35.5044 399.882 35.6732 399.929 35.7974 400.037C35.9216 400.147 35.9896 400.307 35.9826 400.473L35.8607 403.054C35.6638 407.194 36.2756 411.268 37.6751 415.166L38.2776 416.843C38.3338 417.002 38.3151 417.178 38.2237 417.321C38.1322 417.464 37.9799 417.555 37.8111 417.569L22.2666 418.845C22.2526 418.845 22.2361 418.845 22.2221 418.845L22.2268 418.842ZM24.8101 402.97L22.8527 417.703L37.0187 416.54L36.6554 415.53C35.2067 411.498 34.5737 407.281 34.7777 403L34.8667 401.104L24.8077 402.97H24.8101Z" fill="black"/>
<path d="M39.3416 409.187C40.3003 409.981 41.3154 410.898 42.1241 411.777C44.8434 414.74 51.9721 417.75 53.3716 418.102C54.4242 418.366 55.6737 418.791 56.691 419.452C57.8397 420.197 58.4844 421.522 58.4469 422.895L58.4281 423.566C58.407 424.396 57.9827 425.162 57.2841 425.605C55.8331 426.527 52.8583 427.91 47.7619 428.222C39.9581 428.7 32.6746 428.111 27.7166 428.252C22.7586 428.393 19.6947 427.882 18.2062 426.091C16.8606 424.471 18.4804 415.211 20.2784 412.415C20.5621 411.974 21.0942 411.767 21.6053 411.875C22.5617 412.075 24.2566 412.602 25.6185 413.952C26.9079 415.23 29.7444 416.109 32.2573 416.212C34.2124 416.292 35.8487 414.726 35.8909 412.761C35.9049 412.112 35.926 411.404 35.9589 410.699C36.0362 408.983 38.0218 408.094 39.3416 409.187Z" fill="white"/>
<path d="M40.9405 428.956C38.6291 428.956 36.4185 428.904 34.3486 428.855C31.8145 428.794 29.625 428.74 27.7356 428.796C22.1938 428.951 19.3128 428.269 17.7938 426.438C16.1856 424.504 18.0633 414.862 19.8262 412.122C20.2247 411.503 20.9842 411.189 21.7203 411.343C22.6861 411.545 24.5287 412.103 26.0055 413.568C27.1307 414.684 29.7703 415.568 32.2833 415.673C33.071 415.708 33.8235 415.422 34.4048 414.879C34.9979 414.323 35.3331 413.568 35.3519 412.752C35.366 412.098 35.3871 411.386 35.4199 410.675C35.4668 409.67 36.0622 408.795 36.9764 408.392C37.8836 407.991 38.9245 408.137 39.691 408.772C40.4763 409.424 41.6062 410.41 42.5275 411.414C45.1085 414.227 52.0262 417.206 53.5078 417.579C54.9096 417.931 56.0841 418.411 56.9913 419.002C58.2689 419.832 59.0354 421.332 58.9932 422.914L58.9745 423.585C58.9464 424.602 58.4259 425.528 57.5797 426.067C55.9106 427.127 52.8584 428.456 47.7996 428.766C45.4437 428.909 43.1464 428.958 40.9405 428.958V428.956ZM29.4585 427.687C30.9682 427.687 32.6373 427.727 34.3744 427.769C38.3947 427.865 42.9495 427.973 47.734 427.68C52.8162 427.368 55.7184 425.96 56.9983 425.148C57.5398 424.804 57.8727 424.208 57.8891 423.554L57.9079 422.884C57.9407 421.674 57.3617 420.535 56.3982 419.909C55.6012 419.391 54.5088 418.948 53.2405 418.629C51.8575 418.282 44.5787 415.254 41.7258 412.143C41.0296 411.383 40.0872 410.507 38.9971 409.604C38.5424 409.227 37.9516 409.145 37.4148 409.381C36.8709 409.62 36.531 410.122 36.5029 410.722C36.4701 411.423 36.449 412.126 36.4349 412.773C36.4115 413.88 35.952 414.909 35.1456 415.666C34.3509 416.412 33.3195 416.81 32.2364 416.754C29.4351 416.637 26.5564 415.643 25.239 414.337C23.959 413.069 22.3439 412.584 21.4953 412.405C21.1999 412.344 20.8928 412.464 20.7381 412.708C18.9963 415.415 17.5382 424.431 18.6283 425.744C19.8918 427.265 22.6064 427.856 27.7051 427.711C28.2583 427.694 28.8444 427.69 29.4585 427.69V427.687Z" fill="black"/>
<path d="M33.4625 425.629C26.4111 425.629 20.5576 425.136 20.0794 425.094C19.7817 425.068 19.559 424.806 19.5848 424.506C19.6106 424.206 19.8638 423.983 20.1732 424.011C20.4053 424.032 43.5426 425.978 53.7821 422.136C54.0634 422.033 54.3752 422.173 54.4807 422.452C54.5862 422.734 54.4432 423.045 54.1619 423.151C48.9038 425.122 40.5725 425.624 33.4602 425.624L33.4625 425.629Z" fill="black"/>
<path d="M65.9536 419.07L80.7714 416.573L80.0587 415.014C78.3803 411.343 77.4379 407.377 77.2902 403.338L77.1988 398.141L66.6944 398.863L65.956 419.07H65.9536Z" fill="white"/>
<path d="M65.9535 419.611C65.8222 419.611 65.6956 419.565 65.5948 419.478C65.4729 419.37 65.405 419.213 65.4097 419.051L66.1481 398.846C66.1575 398.57 66.3755 398.342 66.6544 398.324L77.1588 397.602C77.3065 397.595 77.4542 397.644 77.562 397.742C77.6722 397.843 77.7355 397.984 77.7378 398.134L77.8293 403.331C77.9746 407.307 78.8912 411.165 80.5486 414.789L81.2612 416.348C81.3315 416.503 81.3268 416.679 81.2471 416.829C81.1674 416.979 81.0244 417.082 80.858 417.11L66.0426 419.604C66.0121 419.609 65.9816 419.611 65.9535 419.611ZM67.217 399.372L66.5208 418.423L79.9836 416.156L79.564 415.24C77.8457 411.486 76.8986 407.49 76.7462 403.359L76.6642 398.722L67.217 399.372Z" fill="black"/>
<path d="M82.4144 408.568C83.4154 409.353 84.4797 410.258 85.3306 411.135C88.1929 414.084 95.5608 416.956 97.0001 417.274C98.0831 417.516 99.3724 417.912 100.43 418.559C101.623 419.288 102.319 420.622 102.321 422.026V422.711C102.321 423.557 101.911 424.354 101.213 424.825C99.7569 425.807 96.7563 427.305 91.5592 427.769C83.6006 428.48 76.1413 428.091 71.0802 428.374C66.019 428.658 62.8755 428.227 61.3025 426.438C59.8819 424.82 61.2744 415.315 63.0302 412.408C63.3068 411.951 63.8436 411.723 64.3687 411.817C65.3509 411.993 67.0974 412.483 68.5273 413.826C69.8799 415.094 72.8032 415.912 75.3724 415.945C77.372 415.971 78.9989 414.325 78.9872 412.316C78.9825 411.653 78.9872 410.929 78.9989 410.207C79.0294 408.451 81.0337 407.487 82.4097 408.566L82.4144 408.568Z" fill="white"/>
<path d="M68.5085 429C64.514 429 62.2354 428.32 60.8992 426.801C59.2043 424.874 60.85 414.979 62.5706 412.131C62.9574 411.493 63.7216 411.156 64.4694 411.287C65.461 411.465 67.3551 411.981 68.9047 413.434C70.0885 414.543 72.8125 415.373 75.3864 415.406C76.1952 415.417 76.9594 415.106 77.5407 414.529C78.1338 413.941 78.4573 413.158 78.4503 412.321C78.4456 411.653 78.4503 410.924 78.462 410.199C78.4808 409.177 79.0621 408.27 79.9811 407.831C80.893 407.398 81.9549 407.515 82.7519 408.141C83.5724 408.781 84.7515 409.756 85.722 410.757C88.4413 413.558 95.5958 416.407 97.1219 416.744C98.5636 417.065 99.7732 417.52 100.718 418.097C102.042 418.908 102.868 420.413 102.87 422.028V422.713C102.87 423.746 102.368 424.707 101.522 425.277C99.8459 426.407 96.7679 427.853 91.613 428.313C86.6878 428.754 82.0041 428.772 77.8736 428.789C75.2833 428.8 73.0469 428.81 71.1176 428.918C70.1776 428.972 69.3102 428.997 68.5132 428.997L68.5085 429ZM64.1365 412.342C63.8763 412.342 63.6302 412.473 63.4989 412.691C61.7947 415.511 60.5616 424.771 61.7126 426.084C63.0512 427.605 65.8431 428.13 71.052 427.837C73.0094 427.727 75.3677 427.717 77.8642 427.706C81.9736 427.689 86.6316 427.668 91.5122 427.235C96.6976 426.77 99.6255 425.247 100.91 424.382C101.456 424.014 101.782 423.39 101.782 422.717V422.033C101.782 420.793 101.154 419.642 100.151 419.027C99.3208 418.521 98.1909 418.099 96.8851 417.808C95.4646 417.492 87.9443 414.609 84.9414 411.517C84.0131 410.56 82.8738 409.62 82.0815 408.999C81.6032 408.626 80.9914 408.556 80.4452 408.816C79.892 409.079 79.5567 409.604 79.545 410.223C79.531 410.94 79.531 411.66 79.5333 412.321C79.5403 413.451 79.102 414.51 78.3026 415.305C77.5149 416.088 76.4671 416.505 75.37 416.496C72.5077 416.458 69.5423 415.525 68.1615 414.229C66.816 412.968 65.1516 412.515 64.2772 412.358C64.2303 412.349 64.1834 412.346 64.1365 412.346V412.342Z" fill="black"/>
<path d="M78.0915 425.229C69.9712 425.229 63.3347 424.542 63.2128 424.53C62.9151 424.5 62.6994 424.23 62.7299 423.932C62.7604 423.635 63.0276 423.419 63.3277 423.449C63.5504 423.473 85.6774 425.761 98.4486 421.914C98.737 421.827 99.0394 421.989 99.1261 422.277C99.2129 422.563 99.0511 422.866 98.7628 422.952C92.8272 424.741 84.9319 425.229 78.0915 425.229Z" fill="black"/>
<path d="M60.231 336.224C60.6694 351.661 63.2972 394.115 63.7567 402.217C63.7966 402.916 64.3709 403.46 65.0695 403.46H78.2533C78.9284 403.46 79.4934 402.946 79.5614 402.271C80.4006 393.869 88.746 337.989 87.9653 315.236C87.1121 290.386 85.1875 260.823 83.0566 252.683C80.9257 244.544 78.2838 225.277 78.2838 225.277L25.3703 233.275C25.3703 233.275 18.6869 289.102 17.836 300.242C16.9827 311.382 15.316 347.415 17.4492 366.695C18.8299 379.185 19.8684 397.161 20.3701 401.495C20.6021 403.507 22.297 405.021 24.3107 405.021H38.3924C39.112 405.021 39.6981 404.442 39.7075 403.718C39.7707 398.518 40.5396 372.037 43.8403 355.081C47.6778 335.373 55.7278 286.734 56.2318 282.259C56.2318 282.259 59.5817 313.17 60.2357 336.224H60.231Z" fill="black"/>
<path d="M56.2292 282.802C56.2081 282.802 56.1894 282.802 56.1683 282.799C55.8705 282.767 55.6549 282.497 55.69 282.199C56.0464 279.028 56.323 276.149 56.5246 273.997C56.9114 269.85 59.0469 266.045 62.3828 263.561C62.6219 263.382 62.9641 263.432 63.1423 263.671C63.3204 263.912 63.2712 264.252 63.0321 264.43C59.9424 266.73 57.9663 270.253 57.6076 274.095C57.406 276.252 57.1294 279.138 56.7707 282.319C56.7402 282.596 56.5035 282.802 56.2316 282.802H56.2292Z" fill="white"/>
<path d="M25.246 257.812C24.953 257.812 24.7115 257.578 24.7045 257.282C24.6975 256.982 24.9342 256.734 25.2343 256.727C31.859 256.572 34.937 249.971 35.952 247.139C36.0528 246.858 36.3646 246.71 36.6459 246.811C36.9272 246.912 37.0749 247.223 36.9741 247.505C35.8817 250.547 32.5553 257.639 25.2601 257.81H25.246V257.812Z" fill="white"/>
<path d="M81.3593 256.741C81.3382 256.741 81.3171 256.741 81.296 256.736C73.0819 255.799 73.3163 246.312 73.3187 246.216C73.3304 245.916 73.5859 245.702 73.879 245.693C74.179 245.702 74.4134 245.953 74.4041 246.253C74.3923 246.602 74.2048 254.833 81.4179 255.658C81.7156 255.691 81.929 255.96 81.8961 256.258C81.8657 256.535 81.6289 256.739 81.357 256.739L81.3593 256.741Z" fill="white"/>
<path d="M45.753 129.36L46.9391 105.203L64.2933 114.301L63.9347 129.574C63.7706 132.977 60.8708 134.846 60.8708 134.846C57.2748 137.441 52.2839 136.906 48.6762 134.328L47.8417 133.73C46.4445 132.731 45.6569 131.081 45.7553 129.36H45.753Z" fill="white"/>
<path d="M55.3973 137.103C53.0132 137.103 50.5307 136.32 48.3599 134.768L47.5254 134.171C45.9665 133.057 45.1038 131.247 45.2117 129.33L46.3978 105.175C46.4072 104.99 46.5104 104.823 46.6698 104.73C46.8315 104.638 47.0284 104.636 47.1925 104.72L64.5467 113.818C64.7296 113.914 64.8421 114.106 64.8374 114.313L64.4787 129.585C64.3006 133.24 61.2953 135.218 61.1664 135.3C59.4973 136.505 57.486 137.103 55.3996 137.103H55.3973ZM47.441 106.078L46.297 129.386C46.297 129.386 46.297 129.388 46.297 129.391C46.208 130.936 46.9042 132.391 48.1583 133.289L48.9929 133.887C52.6241 136.482 57.3781 136.695 60.5522 134.405C60.6014 134.372 63.2433 132.619 63.391 129.548L63.7426 114.625L47.441 106.078Z" fill="black"/>
<path d="M72.6132 77.8037C67.9576 77.4825 73.7618 82.3397 56.5905 77.1192C49.7524 75.0399 53.1351 83.0828 51.3582 82.5484C44.8015 80.5745 45.0265 80.6355 41.8079 81.4419C39.6747 81.9764 38.2494 85.8771 38.6175 88.8074C39.1027 92.6754 42.2815 93.7092 45.0148 101.905C46.9347 107.66 46.4096 111.136 48.6999 111.999C51.016 112.871 52.7648 109.772 55.3645 110.534C58.7284 111.518 57.997 117.351 61.2578 119.812C63.3114 121.361 68.124 122.126 75.8927 118.455C77.1516 117.859 77.8103 116.446 77.4563 115.095C77.0015 113.363 76.4131 111.178 75.6794 109.139C72.1748 99.415 68.7499 97.188 70.0275 94.6937C71.9849 90.8727 79.2356 93.1583 80.4733 90.0147C81.7603 86.7492 78.9871 78.2467 72.6132 77.806V77.8037Z" fill="white"/>
<path d="M66.0632 121.643C63.1494 121.643 61.5459 120.707 60.9294 120.243C59.258 118.982 58.5594 116.924 57.9429 115.109C57.2842 113.168 56.7169 111.495 55.2119 111.054C54.1195 110.733 53.1701 111.248 52.1668 111.792C51.1001 112.371 49.8905 113.025 48.5074 112.505C46.7868 111.856 46.4258 110.107 45.8772 107.456C45.5748 105.995 45.1998 104.178 44.4988 102.076C43.0595 97.7646 41.517 95.4977 40.2746 93.6763C39.1822 92.0705 38.3172 90.8046 38.0757 88.8753C37.6866 85.7763 39.2056 81.5333 41.6741 80.9144L41.9671 80.8417C45.0099 80.0775 45.1388 80.108 51.3791 81.988C51.4283 81.7349 51.4354 81.2473 51.4424 80.8698C51.4612 79.5313 51.4893 77.6958 52.7575 76.7698C53.6577 76.1134 54.9611 76.0572 56.7473 76.601C68.0886 80.0494 69.1177 78.9898 69.8679 78.2139C70.4563 77.6067 71.033 77.1543 72.6505 77.2644C75.3064 77.4473 77.6811 78.9968 79.3408 81.6247C81.1037 84.4166 81.8069 88.1088 80.9771 90.2139C80.2691 92.0119 78.0398 92.3096 75.8855 92.5979C73.6819 92.8933 71.401 93.198 70.5079 94.9398C69.964 96.0017 70.4961 97.0543 71.8605 99.5391C73.0091 101.632 74.5821 104.497 76.1879 108.953C76.9169 110.977 77.4959 113.112 77.9789 114.957C78.4008 116.56 77.6202 118.239 76.1222 118.947C71.7597 121.007 68.4637 121.645 66.0609 121.645L66.0632 121.643ZM54.5274 109.865C54.8438 109.865 55.1744 109.91 55.519 110.011C57.5655 110.611 58.2828 112.721 58.9743 114.76C59.5674 116.509 60.1816 118.314 61.5858 119.376C63.6487 120.932 68.4309 121.38 75.6628 117.962C76.6872 117.479 77.2217 116.331 76.931 115.231C76.4528 113.41 75.8808 111.302 75.1681 109.322C73.5905 104.945 72.0433 102.122 70.9111 100.062C69.4952 97.4833 68.7169 96.0627 69.5444 94.4452C70.6954 92.1971 73.3772 91.8384 75.7425 91.5219C77.6718 91.2641 79.4932 91.0203 79.9691 89.8153C80.5856 88.2541 80.1754 84.9792 78.4242 82.206C77.3834 80.5581 75.5268 78.5514 72.5778 78.3498C71.3354 78.2631 71.047 78.5608 70.6485 78.971C69.5467 80.108 68.4098 81.2824 56.4332 77.6419C55.0173 77.2105 53.9952 77.2129 53.3998 77.6489C52.5676 78.256 52.5465 79.7141 52.5301 80.8886C52.516 81.8849 52.5043 82.6046 52.0238 82.9562C51.8644 83.0734 51.5924 83.1883 51.2033 83.071L51.1212 83.0453C47.0376 81.8153 44.0753 81.4325 42.2343 81.8966L41.9413 81.9693C40.2277 82.3983 38.7977 85.8794 39.1564 88.7417C39.365 90.4108 40.1246 91.5243 41.1748 93.0668C42.4524 94.9445 44.0441 97.2793 45.5303 101.733C46.2523 103.897 46.6344 105.749 46.9415 107.238C47.4737 109.814 47.7784 111.073 48.8896 111.49C49.8108 111.837 50.6618 111.373 51.6487 110.838C52.4996 110.376 53.4397 109.868 54.525 109.868L54.5274 109.865Z" fill="black"/>
<path d="M57.1645 96.1938C57.1645 96.1938 61.506 106.759 62.3804 109.014C65.1817 116.234 74.1131 108.438 74.1131 108.438L74.7508 106.466L75.944 105.995C76.176 105.904 76.3894 105.765 76.5441 105.571C76.9309 105.083 76.9403 104.434 76.6214 103.948C75.0344 101.548 71.8838 96.4329 70.3647 91.5406C70.0084 90.3943 68.7496 89.8246 67.5587 89.7449C60.1018 89.2503 50.2702 86.9389 55.1954 93.2354C55.9268 94.1708 56.6136 95.1413 57.1622 96.1938H57.1645Z" fill="white"/>
<path d="M57.6568 95.9641L62.95 108.921C63.3486 109.922 63.9956 110.791 64.8934 111.201C65.7865 111.626 66.886 111.579 67.9315 111.302C68.9864 111.021 70.0108 110.538 70.9836 109.971C71.9518 109.401 72.9012 108.735 73.7522 108.023L73.5904 108.269L74.2304 106.297C74.2819 106.136 74.4062 106.016 74.5492 105.957L75.7705 105.477C75.9112 105.418 76.0284 105.336 76.1034 105.247C76.1878 105.146 76.2534 105.022 76.2816 104.893C76.3144 104.764 76.3097 104.626 76.2792 104.497C76.2464 104.352 76.2042 104.286 76.0706 104.061C75.8455 103.679 75.6392 103.283 75.4283 102.891C75.0227 102.099 74.5351 101.358 74.0944 100.587C73.649 99.818 73.213 99.0468 72.8028 98.2591C71.9752 96.6885 71.197 95.085 70.5453 93.4207C70.3882 93.001 70.2241 92.5861 70.0858 92.1595L69.978 91.8406L69.9241 91.6812L69.8772 91.5617C69.8092 91.407 69.7271 91.2569 69.6099 91.1257C69.1552 90.5935 68.3628 90.3052 67.5892 90.2536C65.8287 90.1458 64.0542 89.9793 62.3054 89.7965C60.5566 89.6254 58.8031 89.4449 57.0965 89.4824C56.2643 89.5082 55.3712 89.5949 54.7992 89.9231C54.5273 90.0989 54.4312 90.2536 54.4241 90.5349C54.4241 90.8209 54.5531 91.1913 54.7336 91.5406C55.0922 92.2603 55.6502 92.9002 56.1917 93.6387C56.7285 94.3747 57.2138 95.1061 57.6592 95.9665L57.6568 95.9641ZM56.6722 96.4236C56.3019 95.718 55.8143 94.9702 55.3079 94.2857C54.8086 93.6035 54.1897 92.9049 53.7514 92.0423C53.5357 91.6109 53.3294 91.135 53.3177 90.5349C53.3153 90.2372 53.3927 89.8996 53.5662 89.6183C53.7373 89.3347 53.9811 89.1237 54.2225 88.9784C54.7125 88.6877 55.2001 88.5845 55.6713 88.5002C56.1424 88.4275 56.6043 88.3947 57.0614 88.3829C58.8852 88.3478 60.6504 88.5424 62.4109 88.7158C64.1737 88.8916 65.9061 89.1214 67.6642 89.2526C68.6277 89.3488 69.6357 89.691 70.3343 90.5232C70.5078 90.7272 70.639 90.9686 70.7398 91.2194L70.8078 91.4093L70.8571 91.564L70.9555 91.8735C71.0798 92.2884 71.2321 92.6963 71.3775 93.1065C71.9823 94.7381 72.6926 96.3415 73.4966 97.8981C73.8952 98.6787 74.3218 99.4453 74.7531 100.207C75.1915 100.967 75.6205 101.733 76.1526 102.434L76.9403 103.489C77.0528 103.627 77.2567 103.939 77.3247 104.227C77.4021 104.525 77.4068 104.842 77.3365 105.142C77.2685 105.444 77.1255 105.721 76.9262 105.957C76.7152 106.204 76.4527 106.372 76.1878 106.483L74.9477 106.975L75.2665 106.635L74.6312 108.609V108.616C74.5984 108.712 74.5398 108.794 74.4695 108.853C73.5365 109.638 72.5754 110.315 71.5392 110.93C70.5054 111.534 69.4083 112.064 68.2104 112.388C67.029 112.702 65.6553 112.805 64.4105 112.228C63.7963 111.949 63.2665 111.506 62.8539 111C62.4413 110.491 62.1366 109.926 61.9022 109.347L56.6652 96.4236H56.6722Z" fill="black"/>
<path d="M57.9594 102.995C57.9594 102.995 54.8276 96.9751 52.4037 98.9864C49.9797 100.998 53.5922 107.538 57.9594 102.995Z" fill="white"/>
<path d="M69.8233 104.305C69.7061 104.305 69.5865 104.298 69.4646 104.286C68.9723 104.237 68.4894 103.857 68.1026 103.218C67.3525 101.98 66.9399 99.6801 68.0393 96.935C68.2222 96.4756 68.6301 96.0911 69.1575 95.8755C69.8022 95.6129 70.5383 95.6363 71.2322 95.9434C72.1698 96.3607 72.6668 97.3992 72.7465 99.1198C72.8497 101.33 72.4793 102.803 71.6119 103.623C71.136 104.076 70.5359 104.303 69.8256 104.303L69.8233 104.305ZM70.0905 96.7827C69.8584 96.7827 69.6779 96.8366 69.5631 96.8835C69.2677 97.0054 69.1013 97.1976 69.045 97.3406C68.0956 99.7129 68.4144 101.642 69.0286 102.657C69.2958 103.096 69.5256 103.203 69.5725 103.208C70.121 103.262 70.543 103.143 70.8618 102.84C71.4689 102.266 71.7432 100.998 71.6588 99.1761C71.5697 97.2914 70.9837 97.0288 70.7891 96.9421C70.5266 96.8249 70.2898 96.7874 70.0905 96.7874V96.7827Z" fill="black"/>
<path d="M55.1277 98.4658C54.8557 98.4658 54.6213 98.2618 54.5885 97.9852C54.5533 97.6875 54.7667 97.4179 55.0644 97.3827L69.6477 95.6973C69.9454 95.6621 70.215 95.8754 70.2502 96.1731C70.2853 96.4708 70.072 96.7404 69.7743 96.7756L55.191 98.4611C55.1699 98.4634 55.1488 98.4658 55.1277 98.4658Z" fill="black"/>
<path d="M76.174 102.861C75.9677 102.861 75.7684 102.741 75.6793 102.542C75.5621 102.282 75.6676 101.977 75.9138 101.843C76.3193 101.456 77.2312 98.7325 76.1318 96.7868C75.97 96.5008 75.7661 96.3414 75.4918 96.2852C74.6995 96.1234 73.5508 96.8407 73.1757 97.1291C72.939 97.3119 72.5967 97.2674 72.4138 97.0306C72.231 96.7939 72.2732 96.454 72.51 96.2711C72.6881 96.1328 74.2845 94.9349 75.7028 95.2209C76.2865 95.3381 76.76 95.6944 77.0765 96.2523C77.9837 97.8558 77.8219 99.907 77.3695 101.292C77.1796 101.871 76.8585 102.605 76.3967 102.814C76.324 102.847 76.249 102.863 76.174 102.863V102.861Z" fill="black"/>
<path d="M160.512 89.7952L156.297 93.7592C155.699 94.3195 155.003 94.7626 154.241 95.0603L151.625 96.087C149.152 97.6647 147.89 100.398 148.233 103.438L148.798 109.135C148.891 110.077 148.415 110.825 148.031 111.622C147.002 113.751 145.818 116.039 145.818 116.039C145.818 116.039 150.952 121.489 152.237 118.913C153.027 117.328 155.446 112.222 157.202 111.681C162.195 110.138 166.925 102.388 168.21 99.955C168.503 99.3994 168.311 98.7125 167.769 98.3937C167.769 98.3937 165.875 96.9544 162.872 101.05C162.106 102.095 161.613 103.272 161.529 103.22C159.825 102.182 159.124 99.9737 160.047 98.1265C160.462 97.2943 161.03 96.3894 161.806 95.4611C162.525 94.5985 163.81 92.6786 164.124 92.0503C164.956 90.3883 162.296 87.8682 160.516 89.7999L160.512 89.7952Z" fill="white"/>
<path d="M151.156 120.143C149.004 120.143 145.795 116.805 145.422 116.409C145.265 116.242 145.23 115.992 145.335 115.788C145.347 115.764 146.528 113.483 147.541 111.385C147.6 111.263 147.661 111.144 147.719 111.024C148.04 110.386 148.319 109.833 148.256 109.186L147.691 103.49C147.328 100.257 148.687 97.3152 151.332 95.6274C151.362 95.6086 151.393 95.5922 151.426 95.5805L154.042 94.5537C154.743 94.2794 155.376 93.8786 155.924 93.3628L160.125 89.4105C161.053 88.4166 162.378 88.2759 163.505 89.0542C164.483 89.7293 165.202 91.0913 164.605 92.2869C164.274 92.9479 162.959 94.9147 162.216 95.8032C161.538 96.6143 160.971 97.4746 160.528 98.363C159.832 99.7555 160.212 101.45 161.377 102.44C161.616 102.004 161.974 101.345 162.432 100.724C163.798 98.86 165.149 97.8192 166.445 97.6316C167.343 97.5004 167.912 97.8333 168.06 97.9341C168.836 98.4052 169.11 99.3968 168.684 100.203C168.466 100.618 163.268 110.37 157.356 112.196C155.936 112.635 153.643 117.276 152.891 118.802L152.717 119.151C152.443 119.702 151.998 120.04 151.428 120.122C151.339 120.136 151.247 120.141 151.154 120.141L151.156 120.143ZM146.477 115.94C147.851 117.332 150.157 119.215 151.271 119.048C151.414 119.027 151.599 118.964 151.747 118.666L151.918 118.319C153.526 115.063 155.392 111.664 157.038 111.155C161.428 109.8 165.948 103.066 167.725 99.6945C167.884 99.3945 167.781 99.0241 167.49 98.8553C167.472 98.8436 167.455 98.8319 167.436 98.8202C166.921 98.4709 165.378 98.5389 163.306 101.364C162.891 101.929 162.551 102.552 162.328 102.962C162.042 103.487 161.944 103.666 161.674 103.738C161.531 103.776 161.367 103.752 161.241 103.675C159.269 102.475 158.531 99.9266 159.558 97.8754C160.038 96.9143 160.652 95.9813 161.384 95.1046C162.073 94.2794 163.332 92.3994 163.634 91.7969C163.941 91.1827 163.486 90.3552 162.889 89.9426C162.561 89.7153 161.712 89.2839 160.91 90.156C160.901 90.1653 160.891 90.1747 160.882 90.1841L156.667 94.1481C156.018 94.76 155.268 95.2335 154.438 95.5594L151.871 96.565C149.613 98.0278 148.453 100.569 148.77 103.37L149.334 109.074C149.431 110.035 149.034 110.815 148.687 111.507C148.629 111.622 148.573 111.734 148.516 111.852C147.731 113.479 146.847 115.211 146.475 115.935L146.477 115.94ZM161.806 102.751C161.806 102.751 161.806 102.751 161.808 102.751C161.808 102.751 161.808 102.751 161.806 102.751Z" fill="black"/>
<path d="M67.1838 136.211C74.9408 137.236 88.4153 141.676 111.513 134.636C128.764 129.378 144.937 112.105 144.937 112.105L156.66 117.739L151.411 126.912C142.407 143.2 133.037 155.936 110.071 161.372L77.0412 167.024L67.1838 136.211Z" fill="white"/>
<path d="M77.0389 167.566C76.8068 167.566 76.5959 167.416 76.5232 167.189L66.6658 136.378C66.6095 136.2 66.647 136.007 66.7666 135.864C66.8861 135.721 67.069 135.649 67.2542 135.675C68.4568 135.834 69.7601 136.066 71.2675 136.336C79.4933 137.81 91.9246 140.04 111.356 134.116C128.267 128.961 144.381 111.906 144.54 111.733C144.702 111.559 144.958 111.512 145.171 111.615L156.894 117.249C157.03 117.314 157.134 117.431 157.178 117.577C157.223 117.72 157.206 117.877 157.131 118.008L151.882 127.181C143.556 142.246 134.099 156.241 110.195 161.9L77.1303 167.559C77.0999 167.564 77.0694 167.566 77.0389 167.566ZM67.9645 136.87L77.414 166.408L109.98 160.836C133.448 155.277 142.414 142.065 150.938 126.649L155.9 117.975L145.056 112.766C142.834 115.059 127.634 130.292 111.672 135.156C91.9926 141.155 79.4066 138.898 71.0776 137.405C69.9336 137.201 68.9115 137.015 67.9668 136.872L67.9645 136.87Z" fill="black"/>
<path d="M46.0249 123.313C45.174 122.408 43.6831 122.64 43.1556 123.765C41.9648 126.309 39.7354 130.318 36.5051 133.077C31.4393 137.404 23.7385 137.646 19.2587 148.373C11.4596 167.048 15.4353 210.569 22.7 230.868C24.1605 234.952 23.333 244.434 23.333 244.434L81.4788 243.647C81.4788 243.647 74.9408 205.918 79.5682 182.717C81.4834 173.112 85.7382 157.199 74.9806 142.949C72.5309 139.702 70.1468 136.406 67.9714 132.967L66.4828 130.611C65.9577 129.781 64.9872 129.359 64.0238 129.532C63.9769 129.542 63.9277 129.549 63.8808 129.558C57.4154 130.686 50.8212 128.407 46.3109 123.613L46.0273 123.313H46.0249Z" fill="white"/>
<path d="M23.333 244.978C23.1829 244.978 23.0376 244.915 22.9344 244.805C22.829 244.692 22.7774 244.54 22.7914 244.388C22.7985 244.294 23.5932 234.973 22.189 231.051C15.2829 211.751 10.6977 167.463 18.7571 148.162C21.9241 140.576 26.725 138.077 30.9634 135.874C32.8505 134.892 34.632 133.963 36.1534 132.664C39.2337 130.034 41.3927 126.248 42.6633 123.536C42.9868 122.847 43.6268 122.361 44.3793 122.242C45.1318 122.125 45.896 122.383 46.4211 122.94L46.7047 123.241C51.1376 127.955 57.5233 130.119 63.787 129.024L63.9276 129C65.1161 128.785 66.2976 129.305 66.9423 130.323L68.4309 132.679C70.3015 135.637 72.4535 138.703 75.4143 142.623C85.6116 156.128 82.5383 171.003 80.5059 180.846C80.3652 181.531 80.2269 182.192 80.1027 182.822C75.5479 205.658 81.9499 243.178 82.0156 243.553C82.0437 243.71 81.9991 243.87 81.8983 243.991C81.7975 244.113 81.6475 244.186 81.4881 244.188L23.3423 244.976H23.3353L23.333 244.978ZM44.7497 123.299C44.684 123.299 44.6184 123.304 44.5527 123.316C44.1519 123.379 43.8237 123.627 43.6502 123.998C42.3351 126.806 40.0894 130.735 36.8614 133.492C35.2462 134.873 33.4107 135.827 31.4674 136.84C27.1962 139.064 22.7797 141.362 19.7627 148.584C11.7948 167.662 16.3636 211.544 23.2134 230.688C24.498 234.279 24.0784 241.71 23.9214 243.886L80.8388 243.115C80.0183 238.079 74.7673 204.01 79.0361 182.614C79.1627 181.978 79.2986 181.317 79.4416 180.628C81.4342 170.977 84.4489 156.391 74.5469 143.279C71.5674 139.336 69.399 136.244 67.5119 133.26L66.0234 130.904C65.6178 130.262 64.87 129.936 64.1175 130.069L63.9675 130.095C57.3474 131.251 50.5961 128.965 45.9124 123.986L45.6287 123.686C45.3943 123.435 45.0802 123.299 44.7473 123.299H44.7497Z" fill="black"/>
<path d="M52.5819 152.865C52.5819 152.865 55.3246 184.006 63.4379 192.237C68.5787 197.453 80.056 203.635 91.2918 204.556C91.2918 204.556 98.2119 204.704 94.2103 215.804C93.5633 217.602 91.3363 218.886 89.3695 219.079C80.7569 219.927 41.5594 218.457 34.951 201.164C22.794 169.352 21.364 155.012 21.364 155.012L52.5819 152.862V152.865Z" fill="white"/>
<path d="M84.9741 219.794C71.5816 219.794 41.7141 216.289 34.4611 201.403L34.0368 200.531C23.959 179.85 22.1446 176.125 21.1671 157.399C21.1507 157.099 21.3804 156.843 21.6805 156.829C21.9852 156.806 22.236 157.043 22.2501 157.343C23.2159 175.846 25.0163 179.543 35.0096 200.055L35.4339 200.927C43.3058 217.086 80.5154 219.4 89.3109 218.54C91.0081 218.373 93.1132 217.234 93.6946 215.621C95.1574 211.559 95.2957 208.476 94.0908 206.706C93.0452 205.17 91.3433 205.1 91.273 205.1C80.0091 204.179 68.3326 197.983 63.0464 192.619C56.5178 185.994 53.4351 165.105 52.4107 156.428C52.3755 156.131 52.5889 155.861 52.8866 155.826C53.189 155.791 53.4539 156.004 53.489 156.302C54.4994 164.865 57.5258 185.474 63.82 191.857C68.9679 197.08 80.3584 203.117 91.3316 204.015C91.3926 204.015 93.6102 204.085 94.9769 206.078C96.4185 208.176 96.3295 211.509 94.7166 215.989C93.9618 218.083 91.423 219.424 89.4187 219.62C88.3052 219.731 86.7885 219.794 84.9718 219.794H84.9741Z" fill="black"/>
<path d="M122.259 428.237L114.643 428.251L114.593 229.295C114.584 224.696 110.871 220.976 106.299 220.983C102.509 221.03 99.4544 224.124 99.4356 227.938L99.3888 237.285L91.5169 237.418L91.5122 228.466C91.5075 220.195 98.1065 213.455 106.328 213.331L107.148 213.319C115.451 213.303 122.196 220.061 122.212 228.414L122.261 428.235L122.259 428.237Z" fill="white"/>
<path d="M114.642 428.795C114.499 428.795 114.361 428.739 114.258 428.636C114.157 428.535 114.099 428.397 114.099 428.251L114.049 229.296C114.042 225.01 110.573 221.527 106.313 221.527H106.299C102.832 221.569 99.9935 224.448 99.9771 227.941L99.9302 237.287C99.9302 237.583 99.6911 237.822 99.3957 237.826L91.5238 237.96C91.3715 237.953 91.2378 237.906 91.1347 237.805C91.0316 237.705 90.9729 237.564 90.9729 237.419L90.9683 228.466C90.9636 219.949 97.8485 212.914 106.318 212.787L107.141 212.776H107.171C111.328 212.776 115.231 214.398 118.173 217.345C121.119 220.298 122.746 224.227 122.756 228.412L122.805 428.235C122.805 428.535 122.564 428.777 122.263 428.779L114.647 428.793L114.642 428.795ZM106.309 220.441C111.171 220.441 115.128 224.41 115.137 229.296L115.186 427.708L121.717 427.696L121.668 228.417C121.661 224.523 120.147 220.863 117.404 218.116C114.668 215.375 111.037 213.866 107.178 213.866H107.15L106.335 213.877C98.4557 213.995 92.0489 220.54 92.0536 228.468L92.0583 236.868L98.8471 236.753L98.8917 227.938C98.9128 223.855 102.232 220.493 106.292 220.444H106.309V220.441Z" fill="black"/>
<path d="M92.555 208.647C89.1441 209.387 88.0377 215.417 91.4485 216.066C92.5643 216.279 96.4276 215.447 103.191 216.298C108.58 216.975 112.23 223.87 115.664 220.468C119.098 217.067 109.494 205.88 102.614 206.293C98.9171 206.513 96.7933 207.725 92.555 208.647Z" fill="white"/>
<path d="M113.634 221.943C112.068 221.943 110.47 220.804 108.906 219.693C107.202 218.481 105.272 217.105 103.125 216.835C98.5774 216.263 95.3401 216.46 93.4038 216.58C92.4216 216.641 91.7722 216.68 91.3479 216.598C89.8218 216.308 88.8583 215.023 88.8349 213.246C88.8068 211.115 90.1477 208.614 92.4403 208.115C94.0625 207.763 95.3471 207.374 96.5896 206.996C98.5563 206.401 100.254 205.888 102.581 205.747C107.612 205.442 114.054 210.895 116.239 215.785C117.212 217.965 117.144 219.763 116.046 220.851C115.256 221.634 114.45 221.941 113.634 221.941V221.943ZM97.0725 215.363C98.7673 215.363 100.828 215.454 103.259 215.759C105.678 216.064 107.727 217.522 109.534 218.809C112.148 220.67 113.702 221.645 115.282 220.082C116.3 219.074 115.697 217.236 115.247 216.23C113.245 211.753 107.174 206.556 102.645 206.832C100.446 206.964 98.8048 207.461 96.9037 208.037C95.6988 208.401 94.3344 208.816 92.67 209.177C90.9447 209.552 89.8992 211.575 89.9203 213.232C89.9273 213.832 90.1031 215.255 91.5495 215.532C91.8402 215.588 92.4989 215.546 93.3358 215.497C94.2782 215.44 95.5229 215.363 97.0725 215.363Z" fill="black"/>
<path d="M202.824 406.184L202.832 415.282C202.836 418.039 199.646 420.803 193.239 422.943C180.426 427.219 159.513 427.399 146.118 423.4C145.898 423.334 145.682 423.269 145.464 423.201C138.678 421.065 135.267 418.224 135.264 415.378L135.257 406.28C135.262 409.128 138.67 411.967 145.457 414.103C145.673 414.171 145.891 414.236 146.111 414.302C159.506 418.301 180.419 418.121 193.232 413.845C199.639 411.707 202.829 408.943 202.824 406.184Z" fill="white"/>
<path d="M168.918 426.843C160.718 426.843 152.509 425.875 145.964 423.92C145.741 423.854 145.521 423.786 145.303 423.716C138.486 421.571 134.728 418.608 134.723 415.375L134.716 406.277C134.716 405.977 134.958 405.733 135.258 405.733C135.558 405.733 135.799 405.975 135.801 406.275C135.806 408.957 139.386 411.62 145.621 413.582C145.835 413.65 146.05 413.715 146.266 413.781C159.49 417.729 180.482 417.525 193.061 413.329C198.924 411.371 202.286 408.767 202.283 406.184C202.283 405.883 202.525 405.64 202.825 405.64C203.125 405.64 203.366 405.883 203.369 406.181V406.186L203.376 415.279C203.38 418.406 199.843 421.308 193.413 423.453C186.668 425.704 177.798 426.841 168.92 426.841L168.918 426.843ZM135.804 409.219L135.808 415.375C135.813 418.055 139.393 420.718 145.628 422.682C145.842 422.75 146.057 422.816 146.273 422.881C159.497 426.829 180.489 426.625 193.068 422.429C198.931 420.471 202.293 417.867 202.288 415.284L202.283 409.125C200.783 411.106 197.754 412.907 193.403 414.358C180.43 418.688 159.588 418.891 145.954 414.822C145.732 414.756 145.511 414.688 145.293 414.618C140.612 413.146 137.372 411.287 135.801 409.219H135.804Z" fill="black"/>
<path d="M191.969 398.159C192.189 398.225 192.407 398.293 192.623 398.361C205.985 402.566 206.257 409.498 193.232 413.844C180.419 418.12 159.506 418.301 146.111 414.301C145.891 414.236 145.675 414.17 145.457 414.102C132.098 409.897 131.826 402.965 144.85 398.619C157.663 394.343 178.571 394.162 191.969 398.159Z" fill="white"/>
<path d="M168.911 417.745C160.711 417.745 152.502 416.777 145.956 414.822C145.734 414.756 145.513 414.688 145.295 414.618C138.502 412.48 134.744 409.529 134.716 406.308C134.688 403.171 138.228 400.255 144.679 398.103C157.652 393.773 178.492 393.569 192.123 397.639C192.346 397.704 192.566 397.772 192.787 397.843C199.583 399.981 203.34 402.932 203.368 406.153C203.397 409.29 199.857 412.206 193.406 414.358C186.661 416.608 177.791 417.745 168.913 417.745H168.911ZM169.199 395.846C160.38 395.846 151.564 396.947 145.021 399.132C139.14 401.097 135.778 403.708 135.799 406.298C135.822 408.971 139.402 411.627 145.619 413.582C145.832 413.65 146.048 413.715 146.264 413.781C159.487 417.729 180.48 417.525 193.059 413.329C198.94 411.364 202.302 408.753 202.281 406.162C202.257 403.49 198.678 400.834 192.459 398.879C192.245 398.811 192.03 398.745 191.812 398.68C185.468 396.786 177.331 395.848 169.199 395.848V395.846Z" fill="black"/>
<path d="M195.56 395.436L195.567 404.533C195.572 407.29 192.381 410.054 185.975 412.194C173.161 416.47 152.248 416.651 138.854 412.651C138.633 412.586 138.418 412.52 138.2 412.452C131.413 410.317 128.002 407.475 128 404.63L127.993 395.532C127.998 398.38 131.406 401.219 138.193 403.354C138.408 403.422 138.626 403.488 138.847 403.554C152.241 407.553 173.154 407.372 185.968 403.096C192.374 400.959 195.565 398.195 195.56 395.436Z" fill="white"/>
<path d="M161.653 416.095C153.453 416.095 145.244 415.127 138.699 413.171C138.476 413.106 138.256 413.038 138.038 412.967C131.221 410.823 127.463 407.859 127.458 404.627L127.451 395.529C127.451 395.229 127.693 394.985 127.993 394.985C128.293 394.985 128.534 395.227 128.537 395.527C128.541 398.206 132.121 400.869 138.356 402.833C138.57 402.901 138.785 402.967 139.001 403.033C152.225 406.98 173.217 406.776 185.796 402.58C191.659 400.623 195.021 398.018 195.018 395.435C195.018 395.135 195.26 394.891 195.56 394.891C195.86 394.891 196.101 395.133 196.104 395.433V395.437L196.111 404.531C196.115 407.656 192.576 410.56 186.148 412.705C179.404 414.955 170.533 416.092 161.653 416.092V416.095ZM128.539 398.473L128.544 404.629C128.548 407.309 132.128 409.972 138.363 411.936C138.577 412.004 138.792 412.07 139.008 412.135C152.232 416.083 173.224 415.879 185.803 411.683C191.666 409.725 195.028 407.121 195.025 404.538L195.021 398.379C193.52 400.36 190.492 402.161 186.141 403.612C173.166 407.941 152.326 408.145 138.692 404.076C138.469 404.01 138.249 403.942 138.031 403.872C133.349 402.4 130.11 400.541 128.539 398.473Z" fill="black"/>
<path d="M184.704 387.411C184.924 387.477 185.142 387.545 185.358 387.613C198.72 391.818 198.992 398.75 185.967 403.096C173.154 407.372 152.241 407.552 138.846 403.553C138.626 403.488 138.41 403.422 138.192 403.354C124.833 399.148 124.561 392.217 137.585 387.87C150.399 383.595 171.307 383.414 184.704 387.411Z" fill="white"/>
<path d="M161.646 406.996C153.446 406.996 145.237 406.028 138.692 404.073C138.469 404.007 138.249 403.939 138.031 403.869C131.237 401.731 127.479 398.78 127.451 395.559C127.423 392.422 130.963 389.506 137.414 387.354C150.387 383.024 171.227 382.821 184.858 386.89C185.081 386.956 185.301 387.024 185.52 387.092C192.315 389.23 196.075 392.183 196.101 395.404C196.129 398.541 192.59 401.457 186.138 403.609C179.394 405.859 170.524 406.996 161.646 406.996ZM161.934 385.099C153.115 385.099 144.299 386.201 137.756 388.386C131.875 390.35 128.513 392.962 128.534 395.552C128.558 398.224 132.137 400.88 138.354 402.835C138.567 402.903 138.783 402.969 138.999 403.035C152.222 406.982 173.215 406.778 185.794 402.582C191.675 400.618 195.037 398.006 195.016 395.416C194.992 392.744 191.413 390.088 185.194 388.13C184.98 388.065 184.765 387.997 184.547 387.933C178.203 386.039 170.066 385.101 161.934 385.101V385.099Z" fill="black"/>
<path d="M201.641 382.322L201.648 391.42C201.652 394.176 198.462 396.94 192.055 399.08C179.242 403.356 158.329 403.537 144.934 399.538C144.714 399.472 144.498 399.406 144.28 399.338C137.494 397.203 134.083 394.362 134.081 391.516L134.073 382.418C134.078 385.266 137.487 388.105 144.273 390.24C144.489 390.308 144.707 390.374 144.927 390.44C158.322 394.439 179.235 394.258 192.048 389.983C198.455 387.845 201.645 385.081 201.641 382.322Z" fill="black"/>
<path d="M167.734 402.981C159.532 402.981 151.325 402.013 144.779 400.057C144.557 399.992 144.336 399.924 144.118 399.856C137.299 397.709 133.544 394.748 133.539 391.515L133.532 382.417C133.532 382.117 133.773 381.873 134.073 381.873C134.374 381.873 134.615 382.115 134.617 382.415C134.622 385.097 138.202 387.76 144.437 389.722C144.651 389.79 144.864 389.855 145.082 389.919C158.306 393.866 179.298 393.662 191.877 389.466C197.74 387.509 201.101 384.905 201.099 382.321C201.099 382.021 201.341 381.777 201.641 381.777C201.941 381.777 202.182 382.021 202.184 382.319V382.324L202.192 391.417C202.196 394.544 198.659 397.446 192.229 399.591C185.484 401.841 176.614 402.978 167.736 402.978L167.734 402.981ZM134.62 385.357L134.624 391.513C134.629 394.192 138.209 396.855 144.444 398.82C144.658 398.888 144.873 398.953 145.089 399.017C158.313 402.964 179.305 402.763 191.884 398.564C197.747 396.607 201.109 394.002 201.104 391.419L201.099 385.261C199.599 387.242 196.57 389.042 192.219 390.493C179.246 394.823 158.404 395.027 144.77 390.957C144.547 390.892 144.329 390.824 144.109 390.756C139.425 389.281 136.188 387.422 134.617 385.357H134.62Z" fill="black"/>
<path d="M190.785 374.295C191.005 374.36 191.223 374.428 191.439 374.496C204.801 378.702 205.073 385.634 192.048 389.98C179.235 394.256 158.322 394.436 144.927 390.437C144.707 390.371 144.491 390.306 144.273 390.238C130.913 386.032 130.642 379.1 143.666 374.754C156.479 370.478 177.387 370.298 190.785 374.295Z" fill="white"/>
<path d="M167.727 393.881C159.525 393.881 151.32 392.912 144.773 390.957C144.55 390.892 144.332 390.824 144.112 390.756C137.316 388.618 133.558 385.664 133.532 382.443C133.504 379.307 137.044 376.39 143.495 374.238C156.468 369.909 177.308 369.705 190.939 373.774C191.162 373.842 191.383 373.908 191.601 373.978C198.396 376.116 202.154 379.068 202.182 382.291C202.21 385.427 198.671 388.344 192.219 390.496C185.475 392.746 176.605 393.883 167.727 393.883V393.881ZM168.015 371.983C159.197 371.983 150.38 373.085 143.837 375.27C137.956 377.234 134.594 379.846 134.615 382.436C134.639 385.109 138.218 387.765 144.435 389.72C144.648 389.788 144.862 389.853 145.08 389.917C158.303 393.864 179.296 393.66 191.875 389.464C197.756 387.5 201.118 384.888 201.097 382.298C201.073 379.625 197.494 376.969 191.275 375.012C191.059 374.944 190.846 374.878 190.628 374.813C184.284 372.919 176.148 371.981 168.015 371.981V371.983Z" fill="black"/>
<path d="M186.671 379.51L187.838 380.917L183.773 381.486C184.432 382.468 184.319 383.205 183.975 383.781L178.41 384.095C178.606 383.65 179.125 382.841 178.267 381.807C177.913 381.378 177.395 381.123 176.813 380.987C176.129 380.828 175.357 380.837 174.657 380.935C173.133 381.149 172.58 381.786 172.111 383.214C171.588 385.195 169.619 386.238 165.463 386.822C162.739 387.204 159.949 387.15 157.71 386.629C156.571 386.365 155.572 385.978 154.799 385.464L150.087 386.123L148.919 384.717L153.308 384.102C152.649 383.123 152.708 382.072 153.27 381.383L159.032 381.057C158.47 381.81 158.202 382.792 158.976 383.725C159.33 384.152 159.902 384.47 160.629 384.639C161.297 384.794 162.096 384.827 162.98 384.703C164.736 384.456 165.463 383.842 165.737 382.619C166.126 380.851 167.568 379.48 172.047 378.851C174.736 378.474 177.364 378.542 179.483 379.034C180.569 379.287 181.52 379.651 182.28 380.124L186.668 379.51H186.671Z" fill="black"/>
<path d="M278.936 405.241L278.943 414.789C278.948 417.682 275.601 420.584 268.877 422.828C255.431 427.314 233.484 427.504 219.426 423.308C219.194 423.24 218.967 423.17 218.742 423.097C211.62 420.856 208.043 417.874 208.038 414.888L208.031 405.34C208.036 408.329 211.613 411.308 218.735 413.549C218.962 413.62 219.189 413.69 219.419 413.76C233.477 417.956 255.422 417.766 268.87 413.28C275.593 411.036 278.941 408.134 278.936 405.241Z" fill="black"/>
<path d="M243.353 426.895C234.75 426.895 226.14 425.88 219.271 423.829C219.037 423.758 218.807 423.688 218.578 423.615C211.435 421.367 207.499 418.268 207.494 414.888L207.487 405.34C207.487 405.04 207.729 404.796 208.029 404.796C208.329 404.796 208.57 405.038 208.572 405.338C208.577 408.162 212.34 410.968 218.896 413.031C219.121 413.102 219.346 413.17 219.574 413.24C233.459 417.384 255.494 417.171 268.697 412.764C274.862 410.706 278.395 407.965 278.392 405.241C278.392 404.941 278.634 404.698 278.934 404.698C279.248 404.714 279.478 404.939 279.478 405.239V405.244L279.485 414.787C279.489 418.055 275.783 421.093 269.048 423.341C261.974 425.702 252.667 426.895 243.353 426.895ZM208.575 408.35L208.579 414.89C208.584 417.715 212.347 420.521 218.903 422.584C219.128 422.654 219.353 422.725 219.581 422.793C233.463 426.937 255.499 426.724 268.704 422.317C274.869 420.258 278.402 417.516 278.399 414.794L278.395 408.251C276.841 410.349 273.65 412.26 269.041 413.798C255.433 418.341 233.566 418.554 219.264 414.283C219.03 414.213 218.8 414.142 218.57 414.072C213.612 412.511 210.199 410.542 208.575 408.352V408.35Z" fill="black"/>
<path d="M267.543 396.821C267.775 396.891 268.003 396.959 268.23 397.032C282.251 401.444 282.537 408.72 268.87 413.282C255.424 417.769 233.477 417.959 219.419 413.763C219.187 413.695 218.96 413.624 218.735 413.552C204.716 409.14 204.43 401.864 218.097 397.302C231.543 392.815 253.485 392.625 267.543 396.821Z" fill="white"/>
<path d="M243.346 417.347C234.743 417.347 226.13 416.329 219.264 414.281C219.03 414.21 218.8 414.14 218.57 414.07C211.453 411.829 207.515 408.741 207.487 405.373C207.459 402.093 211.165 399.043 217.923 396.788C231.532 392.245 253.394 392.032 267.698 396.301C267.932 396.371 268.164 396.441 268.394 396.514C275.514 398.753 279.45 401.842 279.48 405.211C279.508 408.49 275.802 411.54 269.044 413.795C261.969 416.156 252.662 417.349 243.349 417.349L243.346 417.347ZM243.649 394.367C234.391 394.367 225.137 395.525 218.268 397.815C212.084 399.88 208.549 402.63 208.572 405.361C208.596 408.179 212.361 410.973 218.896 413.031C219.121 413.101 219.346 413.169 219.574 413.24C233.458 417.384 255.494 417.171 268.697 412.764C274.881 410.699 278.416 407.949 278.392 405.218C278.369 402.4 274.604 399.606 268.066 397.548C267.841 397.475 267.616 397.407 267.386 397.339C260.726 395.351 252.186 394.367 243.646 394.367H243.649Z" fill="black"/>
<path d="M280.896 391.999L280.903 401.547C280.908 404.44 277.56 407.342 270.837 409.585C257.391 414.072 235.444 414.262 221.386 410.066C221.154 409.998 220.927 409.927 220.702 409.855C213.58 407.614 210.003 404.632 209.998 401.645L209.991 392.097C209.996 395.086 213.573 398.066 220.695 400.307C220.922 400.377 221.149 400.447 221.379 400.518C235.437 404.714 257.382 404.524 270.83 400.037C277.553 397.794 280.901 394.892 280.896 391.999Z" fill="white"/>
<path d="M245.313 413.652C236.71 413.652 228.1 412.637 221.231 410.586C220.997 410.515 220.767 410.445 220.537 410.372C213.395 408.124 209.459 405.025 209.454 401.645L209.447 392.097C209.447 391.797 209.688 391.553 209.989 391.553C210.289 391.553 210.53 391.794 210.532 392.095C210.537 394.919 214.3 397.723 220.856 399.788C221.079 399.859 221.304 399.927 221.534 399.997C235.416 404.141 257.452 403.928 270.657 399.521C276.822 397.463 280.355 394.722 280.352 391.998C280.352 391.698 280.594 391.455 280.894 391.455C281.194 391.455 281.435 391.696 281.438 391.996V392.001L281.445 401.544C281.449 404.812 277.743 407.85 271.008 410.098C263.933 412.459 254.627 413.652 245.313 413.652ZM210.537 395.105L210.542 401.645C210.546 404.47 214.309 407.276 220.866 409.339C221.091 409.409 221.316 409.479 221.543 409.547C235.423 413.692 257.461 413.478 270.666 409.071C276.831 407.013 280.364 404.27 280.362 401.549L280.357 395.008C278.803 397.106 275.612 399.017 271.004 400.555C257.393 405.098 235.529 405.311 221.227 401.04C220.995 400.97 220.763 400.899 220.535 400.829C215.577 399.268 212.164 397.299 210.539 395.109L210.537 395.105Z" fill="black"/>
<path d="M269.503 383.578C269.735 383.648 269.963 383.716 270.19 383.789C284.211 388.201 284.497 395.477 270.83 400.039C257.384 404.526 235.437 404.716 221.379 400.52C221.147 400.452 220.92 400.381 220.695 400.309C206.676 395.897 206.39 388.621 220.057 384.059C233.503 379.572 255.445 379.382 269.503 383.578Z" fill="white"/>
<path d="M245.306 404.104C236.703 404.104 228.093 403.089 221.224 401.038C220.992 400.967 220.76 400.897 220.533 400.827C213.413 398.586 209.477 395.498 209.447 392.13C209.419 388.848 213.125 385.8 219.883 383.545C233.491 379.005 255.356 378.789 269.658 383.058C269.892 383.128 270.122 383.198 270.352 383.271C277.471 385.512 281.409 388.599 281.438 391.968C281.466 395.248 277.76 398.297 271.001 400.553C263.926 402.913 254.62 404.106 245.306 404.106V404.104ZM245.611 381.124C236.354 381.124 227.099 382.282 220.23 384.572C214.046 386.637 210.511 389.387 210.535 392.118C210.558 394.936 214.323 397.73 220.859 399.788C221.081 399.859 221.306 399.927 221.536 399.997C235.418 404.142 257.454 403.928 270.659 399.521C276.843 397.456 280.378 394.706 280.355 391.975C280.331 389.157 276.566 386.361 270.028 384.305C269.803 384.234 269.578 384.166 269.349 384.096C262.689 382.108 254.149 381.124 245.611 381.124Z" fill="black"/>
<path d="M275.279 378.653L275.286 388.201C275.291 391.094 271.943 393.996 265.22 396.239C251.774 400.726 229.827 400.916 215.769 396.72C215.537 396.652 215.31 396.582 215.084 396.509C207.963 394.268 204.385 391.286 204.381 388.299L204.374 378.752C204.378 381.74 207.956 384.72 215.077 386.961C215.305 387.031 215.532 387.102 215.762 387.172C229.82 391.368 251.764 391.178 265.213 386.691C271.936 384.448 275.284 381.546 275.279 378.653Z" fill="white"/>
<path d="M239.696 400.309C231.093 400.309 222.481 399.291 215.614 397.242C215.38 397.172 215.15 397.102 214.921 397.031C207.778 394.783 203.842 391.684 203.837 388.304L203.83 378.756C203.83 378.456 204.072 378.212 204.372 378.212C204.672 378.212 204.913 378.454 204.915 378.754C204.92 381.578 208.683 384.382 215.239 386.447C215.462 386.518 215.687 386.586 215.917 386.656C229.799 390.8 251.835 390.587 265.04 386.18C271.198 384.124 274.731 381.386 274.735 378.667V378.655C274.735 378.355 274.977 378.111 275.277 378.111C275.577 378.111 275.818 378.353 275.821 378.653V378.657L275.828 388.201C275.832 391.469 272.126 394.507 265.391 396.755C258.317 399.115 249.01 400.309 239.696 400.309ZM204.918 381.759L204.922 388.299C204.927 391.124 208.69 393.928 215.246 395.993C215.471 396.063 215.696 396.131 215.924 396.202C229.806 400.346 251.844 400.133 265.047 395.726C271.212 393.667 274.745 390.927 274.742 388.203L274.738 381.663C273.184 383.761 269.993 385.671 265.384 387.209C251.774 391.752 229.909 391.966 215.607 387.694C215.375 387.624 215.143 387.554 214.916 387.483C209.958 385.922 206.545 383.953 204.92 381.764L204.918 381.759Z" fill="black"/>
<path d="M263.884 370.232C264.116 370.302 264.343 370.37 264.571 370.443C278.592 374.855 278.878 382.131 265.211 386.693C251.764 391.18 229.818 391.37 215.76 387.174C215.528 387.106 215.3 387.035 215.075 386.963C201.057 382.551 200.771 375.274 214.438 370.713C227.884 366.226 249.826 366.036 263.884 370.232Z" fill="white"/>
<path d="M239.687 390.758C231.084 390.758 222.474 389.743 215.605 387.692C215.373 387.622 215.141 387.551 214.914 387.481C207.794 385.24 203.858 382.153 203.828 378.784C203.8 375.504 207.506 372.455 214.264 370.199C227.872 365.656 249.737 365.443 264.039 369.712C264.273 369.782 264.503 369.852 264.733 369.925C271.852 372.166 275.79 375.254 275.818 378.622C275.847 381.902 272.14 384.952 265.382 387.207C258.307 389.567 249.001 390.76 239.687 390.76V390.758ZM239.992 367.778C230.735 367.778 221.48 368.936 214.611 371.226C208.427 373.291 204.892 376.041 204.916 378.772C204.939 381.59 208.704 384.384 215.239 386.442C215.462 386.513 215.687 386.581 215.917 386.651C229.799 390.796 251.835 390.582 265.04 386.175C271.224 384.11 274.759 381.36 274.735 378.629C274.712 375.811 270.947 373.017 264.409 370.959C264.184 370.889 263.959 370.818 263.729 370.75C257.069 368.762 248.53 367.778 239.992 367.778Z" fill="black"/>
<path d="M282.244 367.658L282.251 377.206C282.256 380.099 278.908 383.001 272.185 385.244C258.739 389.731 236.792 389.921 222.734 385.725C222.502 385.657 222.274 385.586 222.049 385.514C214.928 383.273 211.35 380.291 211.346 377.304L211.339 367.756C211.343 370.745 214.921 373.725 222.042 375.966C222.27 376.036 222.497 376.106 222.727 376.177C236.785 380.373 258.729 380.183 272.178 375.696C278.901 373.453 282.249 370.551 282.244 367.658Z" fill="white"/>
<path d="M246.661 389.313C238.058 389.313 229.448 388.296 222.579 386.247C222.347 386.177 222.115 386.107 221.888 386.036C214.745 383.788 210.807 380.689 210.802 377.309L210.795 367.761C210.795 367.461 211.036 367.217 211.336 367.217C211.636 367.217 211.878 367.458 211.88 367.758C211.885 370.583 215.647 373.389 222.204 375.452C222.429 375.523 222.654 375.593 222.882 375.661C236.764 379.805 258.8 379.592 272.005 375.185C278.17 373.127 281.703 370.384 281.7 367.662C281.7 367.362 281.942 367.119 282.242 367.119C282.542 367.119 282.783 367.362 282.786 367.66V367.665L282.793 377.208C282.797 380.476 279.091 383.514 272.356 385.762C265.281 388.123 255.975 389.316 246.661 389.316V389.313ZM211.883 370.766L211.887 377.306C211.892 380.131 215.654 382.937 222.211 385C222.434 385.07 222.659 385.138 222.889 385.209C236.771 389.353 258.807 389.14 272.012 384.733C278.177 382.675 281.71 379.932 281.707 377.21L281.703 370.668C280.148 372.766 276.958 374.676 272.349 376.214C258.739 380.757 236.874 380.97 222.572 376.699C222.338 376.629 222.108 376.559 221.878 376.486C216.92 374.925 213.507 372.956 211.883 370.766Z" fill="black"/>
<path d="M270.851 359.237C271.083 359.308 271.311 359.376 271.538 359.448C285.559 363.86 285.845 371.137 272.178 375.698C258.731 380.185 236.785 380.375 222.727 376.179C222.495 376.111 222.267 376.041 222.042 375.968C208.024 371.556 207.738 364.28 221.405 359.718C234.851 355.231 256.793 355.041 270.851 359.237Z" fill="white"/>
<path d="M246.654 379.766C238.051 379.766 229.441 378.751 222.572 376.7C222.338 376.629 222.108 376.559 221.878 376.486C214.761 374.245 210.823 371.158 210.795 367.789C210.767 364.51 214.473 361.46 221.231 359.205C234.839 354.662 256.701 354.449 271.004 358.717C271.238 358.788 271.468 358.858 271.697 358.931C278.817 361.172 282.755 364.259 282.783 367.628C282.811 370.91 279.105 373.957 272.347 376.212C265.272 378.573 255.965 379.766 246.652 379.766H246.654ZM246.957 356.783C237.699 356.783 228.444 357.941 221.576 360.232C215.39 362.297 211.857 365.047 211.88 367.778C211.904 370.595 215.668 373.39 222.204 375.448C222.429 375.518 222.654 375.589 222.882 375.657C236.762 379.801 258.8 379.588 272.005 375.181C278.189 373.116 281.724 370.366 281.7 367.635C281.677 364.817 277.912 362.023 271.374 359.965C271.149 359.894 270.924 359.824 270.694 359.756C264.034 357.768 255.494 356.783 246.957 356.783Z" fill="black"/>
<path d="M274.004 356.769L274.011 366.317C274.016 369.21 270.668 372.112 263.945 374.355C250.499 378.842 228.552 379.032 214.494 374.836C214.262 374.768 214.035 374.698 213.81 374.625C206.688 372.384 203.111 369.402 203.106 366.416L203.099 356.868C203.104 359.857 206.681 362.836 213.803 365.077C214.03 365.147 214.257 365.218 214.487 365.288C228.545 369.484 250.489 369.294 263.938 364.808C270.661 362.564 274.009 359.662 274.004 356.769Z" fill="white"/>
<path d="M238.421 378.423C229.818 378.423 221.208 377.408 214.339 375.357C214.107 375.286 213.875 375.216 213.648 375.146C206.505 372.897 202.567 369.798 202.562 366.418L202.555 356.87C202.555 356.57 202.796 356.326 203.096 356.326C203.397 356.326 203.638 356.568 203.64 356.868C203.645 359.693 207.407 362.499 213.964 364.561C214.189 364.632 214.414 364.702 214.642 364.77C228.524 368.915 250.56 368.701 263.765 364.294C269.93 362.236 273.463 359.493 273.46 356.772C273.46 356.472 273.702 356.228 274.002 356.228C274.302 356.228 274.543 356.472 274.546 356.769V356.774L274.553 366.317C274.557 369.585 270.851 372.623 264.116 374.871C257.041 377.232 247.735 378.425 238.421 378.425V378.423ZM203.643 359.878L203.647 366.418C203.652 369.243 207.414 372.047 213.971 374.112C214.194 374.182 214.421 374.25 214.649 374.32C228.531 378.465 250.567 378.252 263.772 373.845C269.937 371.786 273.47 369.044 273.467 366.322L273.463 359.779C271.908 361.877 268.718 363.788 264.109 365.326C250.499 369.869 228.634 370.082 214.332 365.811C214.098 365.741 213.868 365.67 213.638 365.598C208.68 364.036 205.267 362.067 203.643 359.878Z" fill="black"/>
<path d="M262.611 348.348C262.843 348.419 263.071 348.487 263.298 348.559C277.319 352.971 277.605 360.248 263.938 364.809C250.492 369.296 228.545 369.486 214.487 365.29C214.255 365.222 214.028 365.152 213.802 365.079C199.784 360.667 199.498 353.391 213.165 348.829C226.611 344.342 248.553 344.152 262.611 348.348Z" fill="white"/>
<path d="M238.414 368.874C229.811 368.874 221.201 367.859 214.332 365.808C214.098 365.738 213.868 365.667 213.638 365.595C206.521 363.354 202.583 360.266 202.555 356.898C202.527 353.618 206.233 350.568 212.991 348.313C226.599 343.77 248.461 343.557 262.764 347.825C262.998 347.896 263.228 347.966 263.457 348.039C270.577 350.28 274.515 353.367 274.543 356.736C274.571 360.018 270.865 363.065 264.107 365.32C257.032 367.681 247.725 368.874 238.412 368.874H238.414ZM238.717 345.894C229.459 345.894 220.204 347.052 213.336 349.342C207.152 351.407 203.617 354.157 203.64 356.888C203.664 359.706 207.428 362.5 213.964 364.558C214.189 364.629 214.414 364.699 214.642 364.767C228.524 368.912 250.56 368.698 263.764 364.291C269.949 362.226 273.484 359.476 273.46 356.745C273.437 353.927 269.672 351.133 263.134 349.075C262.909 349.005 262.684 348.934 262.454 348.866C255.794 346.878 247.254 345.894 238.717 345.894Z" fill="black"/>
<path d="M280.005 344.495L280.012 354.043C280.017 356.935 276.67 359.837 269.946 362.081C256.5 366.568 234.554 366.758 220.495 362.561C220.263 362.493 220.036 362.423 219.811 362.35C212.689 360.109 209.112 357.128 209.107 354.141L209.1 344.593C209.105 347.582 212.682 350.561 219.804 352.802C220.031 352.873 220.259 352.943 220.488 353.013C234.546 357.21 256.491 357.02 269.939 352.533C276.663 350.289 280.01 347.387 280.005 344.495Z" fill="black"/>
<path d="M244.423 366.15C235.819 366.15 227.209 365.133 220.34 363.084C220.106 363.013 219.876 362.943 219.647 362.87C212.504 360.622 208.568 357.523 208.563 354.143L208.556 344.595C208.556 344.295 208.798 344.051 209.098 344.051C209.398 344.051 209.639 344.292 209.642 344.593C209.646 347.417 213.409 350.221 219.965 352.286C220.188 352.357 220.413 352.425 220.643 352.495C234.525 356.639 256.561 356.426 269.766 352.019C275.931 349.961 279.464 347.22 279.461 344.496C279.461 344.196 279.703 343.953 280.003 343.953C280.303 343.953 280.544 344.194 280.547 344.494V344.499L280.554 354.042C280.559 357.31 276.852 360.348 270.117 362.596C263.043 364.957 253.736 366.15 244.423 366.15ZM209.644 347.603L209.649 354.143C209.653 356.968 213.416 359.771 219.972 361.837C220.198 361.907 220.423 361.975 220.65 362.045C234.532 366.19 256.57 365.976 269.773 361.569C275.938 359.511 279.471 356.771 279.468 354.047L279.464 347.506C277.91 349.604 274.719 351.515 270.11 353.053C256.5 357.596 234.635 357.809 220.333 353.538C220.101 353.468 219.869 353.397 219.642 353.327C214.684 351.766 211.271 349.797 209.646 347.607L209.644 347.603Z" fill="black"/>
<path d="M268.61 336.074C268.842 336.144 269.069 336.212 269.297 336.285C283.317 340.697 283.603 347.973 269.937 352.535C256.49 357.022 234.544 357.212 220.486 353.016C220.253 352.948 220.026 352.877 219.801 352.805C205.783 348.393 205.497 341.117 219.163 336.555C232.61 332.068 254.552 331.878 268.61 336.074Z" fill="white"/>
<path d="M244.415 356.6C235.812 356.6 227.202 355.585 220.333 353.534C220.101 353.463 219.869 353.393 219.642 353.323C212.522 351.082 208.587 347.994 208.556 344.626C208.528 341.346 212.234 338.296 218.992 336.041C232.601 331.498 254.465 331.285 268.767 335.554C269.001 335.624 269.231 335.694 269.461 335.767C276.58 338.008 280.519 341.095 280.547 344.464C280.575 347.744 276.869 350.793 270.11 353.048C263.035 355.409 253.729 356.602 244.415 356.602V356.6ZM244.718 333.62C235.461 333.62 226.206 334.778 219.337 337.068C213.153 339.133 209.618 341.883 209.641 344.614C209.665 347.432 213.43 350.226 219.965 352.284C220.188 352.355 220.413 352.423 220.643 352.493C234.525 356.637 256.561 356.424 269.766 352.017C275.95 349.952 279.485 347.202 279.461 344.471C279.438 341.653 275.673 338.859 269.135 336.801C268.91 336.73 268.685 336.66 268.458 336.592C261.798 334.604 253.258 333.62 244.72 333.62H244.718Z" fill="black"/>
<path d="M253.251 337.783L251.549 339.271C253.087 339.47 254.247 339.703 255.145 339.944C255.768 340.11 256.265 340.282 256.676 340.45L253.337 342.237C252.908 342.082 252.327 341.848 251.462 341.615C250.67 341.402 249.638 341.191 248.267 341.043C245.684 340.765 244.308 341.149 243.766 341.622C243.128 342.18 244.115 342.684 246.874 343.592C250.792 344.811 251.638 345.948 249.896 347.469C248.176 348.974 244.204 349.989 239.244 349.834L237.273 351.56L233.377 351.14L235.212 349.534C233.745 349.344 232.394 349.075 231.3 348.782C230.451 348.554 229.759 348.313 229.286 348.078L232.741 346.229C233.355 346.513 234.148 346.808 235.109 347.066C236.07 347.324 237.2 347.544 238.492 347.685C240.758 347.928 242.732 347.724 243.506 347.047C244.24 346.405 243.431 345.863 240.974 345.122C237.416 344.056 235.482 342.895 237.355 341.257C239.057 339.768 242.854 338.868 247.514 338.971L249.35 337.365L253.246 337.785L253.251 337.783Z" fill="black"/>
</g>
<defs>
<filter id="filter0_d_32_2" x="0" y="0" width="457" height="437" filterUnits="userSpaceOnUse" color-interpolation-filters="sRGB">
<feFlood flood-opacity="0" result="BackgroundImageFix"/>
<feColorMatrix in="SourceAlpha" type="matrix" values="0 0 0 0 0 0 0 0 0 0 0 0 0 0 0 0 0 0 127 0" result="hardAlpha"/>
<feOffset dy="4"/>
<feGaussianBlur stdDeviation="2"/>
<feComposite in2="hardAlpha" operator="out"/>
<feColorMatrix type="matrix" values="0 0 0 0 0 0 0 0 0 0 0 0 0 0 0 0 0 0 0.25 0"/>
<feBlend mode="normal" in2="BackgroundImageFix" result="effect1_dropShadow_32_2"/>
<feBlend mode="normal" in="SourceGraphic" in2="effect1_dropShadow_32_2" result="shape"/>
</filter>
</defs>
</svg>
