<svg width="482" height="480" viewBox="0 0 482 480" fill="none" xmlns="http://www.w3.org/2000/svg">
<rect width="482" height="479" fill="#F7F7F7"/>
<path d="M3.34521 85.1883L10.4743 86.429C11.6258 86.6283 12.5674 87.4624 12.8691 88.5824C13.1891 89.7654 13.5563 90.9273 13.9681 92.0657C14.3615 93.1516 14.073 94.3712 13.252 95.1948L8.15304 100.317C7.14846 101.327 6.97797 102.888 7.74386 104.076L10.8599 108.915C11.6258 110.104 13.1209 110.605 14.4612 110.119L21.2861 107.649C22.3903 107.25 23.6257 107.509 24.4572 108.328C25.3175 109.172 26.2119 109.983 27.1378 110.754C28.0349 111.502 28.4099 112.698 28.1109 113.826L26.2565 120.797C25.8919 122.166 26.5319 123.599 27.7962 124.246L32.9398 126.88C34.204 127.528 35.7542 127.216 36.6748 126.132L41.3489 120.624C42.1069 119.732 43.3082 119.344 44.4413 119.635C45.6111 119.934 46.7993 120.189 48.0032 120.393C49.16 120.59 50.0937 121.44 50.4006 122.563L52.2996 129.495C52.6721 130.859 53.9494 131.777 55.3737 131.709L61.1677 131.431C62.592 131.362 63.7828 130.324 64.0346 128.931L65.3198 121.846C65.5271 120.703 66.3716 119.764 67.5021 119.46C68.6956 119.137 69.868 118.767 71.0169 118.35C72.1132 117.954 73.3408 118.235 74.167 119.045L79.3001 124.081C80.3099 125.073 81.8837 125.233 83.085 124.467L87.9767 121.351C89.178 120.585 89.6895 119.098 89.2069 117.768L86.7544 111.006C86.361 109.917 86.6181 108.69 87.4417 107.866C88.3072 107.001 89.1334 106.098 89.9256 105.165C90.6784 104.275 91.8849 103.908 93.0128 104.197L100.024 106.001C101.401 106.355 102.849 105.713 103.507 104.456L106.188 99.3364C106.846 98.0774 106.542 96.5404 105.453 95.6329L99.9268 91.0217C99.0324 90.2742 98.6468 89.0834 98.9458 87.9555C99.2553 86.7936 99.515 85.6133 99.7275 84.4172C99.9321 83.2684 100.792 82.3372 101.925 82.0251L108.918 80.1051C110.293 79.7274 111.226 78.4553 111.163 77.0441L110.912 71.2947C110.849 69.8809 109.81 68.7058 108.407 68.4619L101.278 67.2213C100.126 67.0219 99.1845 66.1878 98.8829 65.0678C98.5629 63.8849 98.1957 62.7229 97.7839 61.5846C97.3904 60.4987 97.679 59.279 98.4999 58.4554L103.599 53.3328C104.604 52.323 104.774 50.7624 104.008 49.5742L100.892 44.7349C100.126 43.5467 98.6311 43.0457 97.2908 43.5309L90.4659 46.0017C89.3669 46.3978 88.1341 46.1486 87.3053 45.3355C86.4371 44.4831 85.5322 43.6647 84.5958 42.8831C83.704 42.1408 83.3394 40.9447 83.6384 39.8221L85.4928 32.853C85.8574 31.4838 85.2174 30.0517 83.9532 29.4038L78.8096 26.7704C77.5453 26.1225 75.9952 26.4347 75.0745 27.5179L70.4005 33.0261C69.6424 33.9179 68.4411 34.3061 67.308 34.0149C66.1382 33.7133 64.95 33.4615 63.7461 33.2569C62.5894 33.0602 61.6556 32.2104 61.3487 31.0877L59.4497 24.1553C59.0773 22.7914 57.7999 21.8734 56.3756 21.9416L50.5816 22.2196C49.1573 22.2878 47.9665 23.3265 47.7147 24.7193L46.4269 31.8038C46.2197 32.9474 45.3751 33.8864 44.2446 34.1907C43.0512 34.5133 41.8787 34.8831 40.7299 35.3002C39.6335 35.6962 38.4059 35.4156 37.5797 34.6051L32.4466 29.5691C31.4368 28.5776 29.8631 28.4176 28.6617 29.1835L23.77 32.2995C22.5687 33.0654 22.0572 34.5526 22.5398 35.8825L24.9923 42.6444C25.3883 43.7382 25.1182 44.9657 24.2919 45.7945C23.4369 46.6522 22.6159 47.544 21.8343 48.4699C21.0762 49.3643 19.8697 49.742 18.7366 49.4509L11.7229 47.6463C10.3458 47.2922 8.89795 47.9348 8.2396 49.1912L5.55896 54.3112C4.90061 55.5702 5.20487 57.1072 6.29338 58.0148L11.8199 62.6259C12.7143 63.3734 13.0999 64.5642 12.8009 65.6921C12.4914 66.8541 12.2317 68.0344 12.0166 69.2304C11.812 70.3793 10.9517 71.3104 9.8186 71.6225L2.82587 73.5425C1.45145 73.9202 0.517686 75.1924 0.580636 76.6035L0.832438 82.353C0.895388 83.7667 1.93407 84.9418 3.33734 85.1857L3.34521 85.1883ZM49.855 57.5558C60.5933 54.1958 71.9978 60.1 75.3263 70.7412C78.6548 81.3825 72.6483 92.7319 61.91 96.0919C51.1718 99.4519 39.7672 93.5476 36.4387 82.9064C33.1102 72.2652 39.1168 60.9157 49.855 57.5558Z" fill="white"/>
<path d="M55.2241 132.296C53.59 132.296 52.1736 131.229 51.7382 129.65L49.8392 122.717C49.5926 121.815 48.8346 121.128 47.9087 120.97C46.689 120.763 45.4746 120.503 44.2996 120.202C43.392 119.968 42.4084 120.283 41.7999 121.002L37.1258 126.51C36.0216 127.811 34.1934 128.178 32.6773 127.399L27.5338 124.766C26.0125 123.987 25.2571 122.295 25.6951 120.645L27.5495 113.676C27.7908 112.771 27.4839 111.801 26.7679 111.205C25.8341 110.426 24.9213 109.6 24.0505 108.747C23.3843 108.094 22.3797 107.879 21.4879 108.202L14.663 110.673C13.0526 111.255 11.2873 110.665 10.3693 109.235L7.25325 104.396C6.3326 102.967 6.53195 101.12 7.7385 99.9082L12.8375 94.7856C13.5011 94.1168 13.7293 93.1305 13.4171 92.2676C13.0001 91.1214 12.625 89.9332 12.3024 88.7371C12.0637 87.8479 11.3057 87.1712 10.3719 87.0086L3.24279 85.768C1.55625 85.4742 0.328713 84.084 0.255271 82.3844L0.00346964 76.6323C-0.0699725 74.9353 1.02904 73.4323 2.67886 72.9786L9.6716 71.0586C10.587 70.8068 11.2847 70.0487 11.4499 69.1281C11.665 67.9163 11.9326 66.7097 12.2447 65.5425C12.4834 64.6455 12.1739 63.6776 11.4552 63.077L5.92867 58.4659C4.61983 57.3747 4.25787 55.5544 5.04999 54.041L7.73063 48.921C8.52013 47.4128 10.225 46.6548 11.8775 47.0797L18.8912 48.8843C19.8066 49.123 20.7902 48.8082 21.3961 48.0922C22.183 47.1636 23.0223 46.2509 23.8879 45.3827C24.5489 44.7191 24.7718 43.7224 24.4518 42.8463L21.9994 36.0844C21.4197 34.487 22.023 32.7296 23.4656 31.809L28.3574 28.693C29.8 27.7776 31.6544 27.9664 32.8662 29.1546L37.9993 34.1906C38.6707 34.849 39.6675 35.0693 40.5409 34.7519C41.695 34.3349 42.8937 33.9572 44.1028 33.6293C45.0025 33.3854 45.6923 32.63 45.8602 31.7015L47.1481 24.6169C47.4523 22.9435 48.8582 21.7186 50.5631 21.6373L56.3572 21.3592C58.0726 21.2779 59.5755 22.3638 60.024 24.0032L61.923 30.9356C62.1696 31.8405 62.9276 32.5251 63.8535 32.6824C65.0758 32.8923 66.2902 33.1493 67.4627 33.451C68.3728 33.6844 69.3538 33.3696 69.9623 32.651L74.6364 27.1428C75.7406 25.8418 77.5688 25.4746 79.0849 26.2536L84.2284 28.8871C85.7497 29.6661 86.5052 31.3605 86.0671 33.0077L84.2127 39.9768C83.9714 40.8817 84.273 41.847 84.9786 42.4371C85.9229 43.224 86.8461 44.0607 87.7222 44.921C88.3805 45.5663 89.3799 45.7761 90.2717 45.4535L97.0966 42.9827C98.7044 42.4004 100.472 42.9906 101.39 44.4201L104.506 49.2594C105.427 50.6889 105.228 52.5354 104.021 53.7472L98.9221 58.8698C98.2585 59.5386 98.0303 60.5249 98.3424 61.3878C98.7595 62.534 99.1346 63.7222 99.4572 64.9183C99.6959 65.8075 100.454 66.4842 101.388 66.6468L108.517 67.8874C110.203 68.1812 111.431 69.5714 111.504 71.271L111.756 77.0205C111.83 78.7175 110.731 80.2205 109.081 80.6716L102.088 82.5916C101.173 82.8434 100.475 83.6014 100.31 84.5221C100.095 85.7312 99.827 86.9378 99.5149 88.1076C99.2762 89.0047 99.5857 89.9751 100.304 90.5732L105.831 95.1843C107.14 96.2781 107.502 98.0957 106.71 99.6092L104.029 104.729C103.239 106.237 101.537 106.995 99.8821 106.57L92.871 104.766C91.953 104.527 90.9746 104.837 90.3766 105.545C89.5819 106.484 88.7373 107.405 87.8612 108.281C87.2081 108.936 86.9904 109.928 87.3104 110.806L89.7628 117.568C90.3425 119.166 89.7392 120.923 88.2966 121.844L83.4048 124.96C81.9649 125.878 80.1078 125.689 78.896 124.498L73.7629 119.462C73.0941 118.806 72.0948 118.583 71.2213 118.901C70.0646 119.321 68.8659 119.698 67.6594 120.023C66.7597 120.267 66.0699 121.023 65.902 121.951L64.6168 129.033C64.3125 130.707 62.9093 131.932 61.2017 132.013L55.4077 132.291C55.3473 132.294 55.287 132.296 55.2267 132.296H55.2241ZM43.6989 118.953C43.9953 118.953 44.2969 118.99 44.5907 119.066C45.7343 119.36 46.9172 119.612 48.1054 119.816C49.4772 120.05 50.6025 121.067 50.9697 122.408L52.8687 129.34C53.1729 130.444 54.188 131.192 55.35 131.124L61.144 130.846C62.3034 130.791 63.2581 129.959 63.4627 128.826L64.7479 121.744C64.9971 120.375 66.0201 119.255 67.3525 118.896C68.5276 118.578 69.6948 118.208 70.8226 117.802C72.1157 117.332 73.5925 117.658 74.5813 118.628L79.7144 123.664C80.5354 124.472 81.7944 124.598 82.7727 123.974L87.6645 120.858C88.6428 120.236 89.052 119.048 88.6612 117.97L86.2088 111.208C85.7366 109.904 86.0593 108.43 87.0324 107.454C87.8848 106.599 88.7084 105.702 89.4822 104.789C90.3714 103.74 91.8166 103.289 93.1648 103.633L100.176 105.437C101.301 105.728 102.458 105.212 102.993 104.189L105.674 99.0689C106.209 98.0485 105.965 96.8236 105.083 96.0866L99.5569 91.4755C98.492 90.5863 98.0303 89.1463 98.387 87.8112C98.6887 86.6729 98.9483 85.4978 99.1582 84.3201C99.4021 82.9562 100.43 81.8362 101.778 81.4664L108.771 79.5464C109.891 79.2395 110.639 78.2218 110.589 77.0756L110.337 71.3261C110.287 70.1799 109.456 69.2435 108.317 69.0442L101.188 67.8035C99.8087 67.5622 98.6861 66.5524 98.3293 65.2252C98.0146 64.0606 97.65 62.9039 97.2461 61.7891C96.7792 60.5013 97.1149 59.0324 98.0985 58.0462L103.197 52.9236C104.013 52.1053 104.15 50.8594 103.528 49.8941L100.412 45.0548C99.7903 44.0896 98.5916 43.6909 97.5005 44.0843L90.6756 46.5551C89.3642 47.0299 87.8822 46.7177 86.9065 45.7551C86.054 44.9158 85.1543 44.1027 84.2337 43.3368C83.1767 42.4581 82.7255 41.0207 83.0849 39.6752L84.9393 32.706C85.2356 31.5965 84.7242 30.4556 83.6986 29.9284L78.555 27.2949C77.5269 26.7677 76.2836 27.0169 75.5334 27.9008L70.8594 33.409C69.9597 34.4687 68.5145 34.9303 67.1741 34.5841C66.0332 34.2903 64.8502 34.0385 63.6594 33.8339C62.2876 33.6005 61.1624 32.5828 60.7952 31.2424L58.8962 24.31C58.5919 23.2032 57.5663 22.4609 56.4149 22.5264L50.6208 22.8045C49.4615 22.8596 48.5067 23.691 48.3021 24.8241L47.0143 31.9087C46.7651 33.2778 45.7422 34.3952 44.4097 34.7572C43.232 35.0772 42.0648 35.4444 40.9422 35.8509C39.6465 36.3178 38.1724 35.9952 37.1835 35.0247L32.0505 29.9887C31.2269 29.1808 29.9705 29.0549 28.9895 29.6792L24.0977 32.7952C23.1194 33.4169 22.7102 34.605 23.101 35.6831L25.5535 42.445C26.0256 43.7486 25.6977 45.2253 24.7167 46.2089C23.8722 47.0561 23.0564 47.9427 22.2905 48.8476C21.3961 49.9046 19.9456 50.3636 18.6001 50.0174L11.5863 48.2128C10.4637 47.9243 9.30439 48.4384 8.76931 49.4613L6.08867 54.5813C5.55359 55.6016 5.79753 56.8265 6.67883 57.5636L12.2053 62.1747C13.2703 63.0639 13.7319 64.5039 13.3752 65.8389C13.0735 66.9747 12.8139 68.1497 12.604 69.3301C12.3601 70.694 11.3319 71.814 9.98373 72.1838L2.99099 74.1038C1.871 74.4107 1.12346 75.4284 1.17592 76.5746L1.42772 82.3241C1.47756 83.4703 2.30903 84.4067 3.44738 84.606L10.5765 85.8467C11.9562 86.088 13.0788 87.0978 13.4355 88.425C13.7503 89.5896 14.1148 90.7463 14.5188 91.861C14.9857 93.1463 14.6499 94.6151 13.6663 95.604L8.56734 100.727C7.75161 101.545 7.61522 102.791 8.23685 103.756L11.3529 108.595C11.9745 109.561 13.1732 109.959 14.2617 109.566L21.0866 107.095C22.3981 106.62 23.8826 106.938 24.8689 107.908C25.7161 108.74 26.6052 109.545 27.5154 110.303C28.5803 111.189 29.0367 112.632 28.68 113.975L26.8256 120.944C26.5318 122.054 27.0407 123.197 28.0662 123.722L33.2098 126.355C34.2406 126.882 35.4813 126.633 36.2314 125.749L40.9055 120.241C41.6058 119.415 42.6419 118.953 43.6989 118.953ZM55.7513 97.6262C52.4333 97.6262 49.1441 96.8341 46.1251 95.2708C41.1756 92.7082 37.535 88.3804 35.8773 83.0821C34.2196 77.7838 34.7442 72.1549 37.3514 67.2265C39.9586 62.3006 44.3363 58.6678 49.6792 56.997C60.7086 53.5452 72.4646 59.6357 75.8849 70.5681C77.5426 75.8664 77.018 81.4952 74.4108 86.4237C71.8036 91.3496 67.4259 94.9823 62.083 96.6531C60.0004 97.3036 57.8706 97.6262 55.7513 97.6262ZM55.9742 57.2016C54.007 57.2016 52.0057 57.4954 50.0307 58.1144C44.9868 59.6934 40.8504 63.1242 38.3901 67.7747C35.9298 72.4225 35.434 77.7365 36.9973 82.7306C38.5606 87.7273 41.994 91.8112 46.6654 94.2295C51.3369 96.6479 56.6903 97.1095 61.7368 95.5331C66.7807 93.9541 70.9171 90.526 73.3774 85.8755C75.8377 81.2277 76.3334 75.9136 74.7702 70.9195C72.1551 62.5603 64.3755 57.2042 55.9768 57.2042L55.9742 57.2016Z" fill="black"/>
<path d="M441.902 392.3L38.1358 364.838L36.8951 89.3774C36.8663 82.7308 42.4085 77.4273 49.0183 77.7814L442.589 98.8855C446.636 99.1032 449.808 102.455 449.818 106.526L450.421 384.284C450.432 388.932 446.518 392.615 441.902 392.3Z" fill="black"/>
<path d="M436.926 385.454C436.95 391.051 432.215 395.492 426.628 395.109L40.6902 368.662C35.6358 368.316 31.7119 364.114 31.7119 359.046V95.5044C31.7119 89.9726 36.3571 85.5766 41.881 85.8808L430.112 107.271C433.306 107.447 435.809 110.08 435.822 113.28L436.929 385.454H436.926Z" fill="white"/>
<path d="M427.31 395.717C427.072 395.717 426.83 395.709 426.589 395.694L40.6508 369.247C35.3105 368.88 31.127 364.402 31.127 359.046V95.5044C31.127 92.6664 32.2627 90.0303 34.3217 88.0789C36.3833 86.1274 39.0744 85.1359 41.9125 85.2959L430.143 106.686C433.642 106.877 436.394 109.773 436.407 113.277L437.514 385.451C437.524 388.323 436.378 390.986 434.282 392.95C432.365 394.75 429.912 395.717 427.313 395.717H427.31ZM41.3328 86.4527C39.0141 86.4527 36.8266 87.3235 35.1269 88.9313C33.3014 90.6572 32.2968 92.9942 32.2968 95.5044V359.046C32.2968 363.786 36.0004 367.752 40.7295 368.077L426.668 394.524C429.204 394.705 431.623 393.837 433.477 392.098C435.331 390.359 436.349 388.001 436.339 385.456L435.232 113.283C435.219 110.397 432.955 108.016 430.075 107.856L41.8469 86.4658C41.6764 86.4579 41.5033 86.4527 41.3328 86.4527Z" fill="black"/>
<path d="M392.599 366.225C392.554 366.225 392.512 366.225 392.468 366.223L373.404 365.417C371.379 365.333 369.787 363.319 369.784 360.83L369.59 166.966C369.59 165.552 370.102 164.236 371.004 163.36C371.686 162.696 372.533 162.345 373.422 162.363L392.68 162.861C394.739 162.916 396.349 164.933 396.349 167.457V361.625C396.349 363.051 395.825 364.373 394.912 365.249C394.254 365.879 393.438 366.223 392.599 366.223V366.225ZM373.339 163.535C372.79 163.535 372.268 163.764 371.822 164.199C371.159 164.847 370.763 165.883 370.763 166.966L370.957 360.83C370.96 362.655 372.08 364.19 373.454 364.247L392.517 365.053C393.257 365.082 393.776 364.72 394.099 364.408C394.773 363.762 395.174 362.724 395.174 361.63V167.462C395.174 165.61 394.039 164.073 392.646 164.036L373.388 163.538C373.37 163.538 373.354 163.538 373.336 163.538L373.339 163.535Z" fill="black"/>
<path d="M356.277 363.88C356.238 363.88 356.196 363.88 356.154 363.88L337.09 363.282C335.06 363.219 333.468 361.653 333.463 359.72L333.269 203.43C333.269 202.496 333.641 201.613 334.323 200.944C335.044 200.233 336.049 199.824 337.095 199.858L356.353 200.23C358.378 200.27 360.028 201.87 360.028 203.797V360.316C360.028 361.257 359.647 362.144 358.955 362.815C358.249 363.497 357.282 363.883 356.277 363.883V363.88ZM356.19 362.708C356.927 362.734 357.63 362.461 358.139 361.971C358.601 361.522 358.858 360.935 358.858 360.313V203.795C358.858 202.502 357.725 201.426 356.332 201.4L337.074 201.028C336.351 200.991 335.648 201.287 335.147 201.778C334.69 202.226 334.441 202.811 334.444 203.428L334.638 359.718C334.64 361.013 335.734 362.065 337.13 362.11L356.193 362.708H356.19Z" fill="black"/>
<path d="M320.641 361.016C320.602 361.016 320.563 361.016 320.523 361.016L301.46 360.56C299.427 360.51 297.832 359.256 297.83 357.703L297.636 227.199C297.636 226.554 297.903 225.943 298.415 225.439C299.133 224.728 300.274 224.296 301.46 224.332L320.718 224.616C322.779 224.647 324.395 225.904 324.395 227.477V358.154C324.395 358.805 324.122 359.419 323.603 359.922C322.897 360.612 321.798 361.016 320.644 361.016H320.641ZM301.384 225.5C300.524 225.5 299.724 225.786 299.236 226.268C299.039 226.462 298.806 226.78 298.806 227.191L299 357.695C299 358.592 300.117 359.35 301.486 359.382L320.55 359.838C321.418 359.87 322.27 359.576 322.779 359.078C322.979 358.884 323.217 358.561 323.217 358.147V227.469C323.217 226.557 322.087 225.799 320.694 225.778L301.436 225.494C301.418 225.494 301.4 225.494 301.381 225.494L301.384 225.5Z" fill="black"/>
<path d="M284.712 359.256C284.67 359.256 284.631 359.256 284.589 359.256L265.525 358.737C263.493 358.682 261.901 357.289 261.895 355.568L261.701 213.644C261.701 212.881 262.021 212.144 262.603 211.569C263.335 210.848 264.4 210.447 265.525 210.465L284.783 210.788C286.845 210.822 288.458 212.217 288.458 213.961V356.082C288.458 356.851 288.132 357.591 287.54 358.168C286.824 358.863 285.798 359.259 284.712 359.259V359.256ZM265.449 211.635C264.657 211.635 263.923 211.913 263.427 212.403C263.173 212.653 262.871 213.07 262.874 213.641L263.068 355.566C263.068 356.631 264.188 357.528 265.557 357.564L284.62 358.084C285.452 358.11 286.207 357.829 286.724 357.328C286.981 357.079 287.288 356.659 287.288 356.082V213.961C287.288 212.881 286.155 211.981 284.765 211.957L265.507 211.635C265.489 211.635 265.47 211.635 265.449 211.635Z" fill="black"/>
<path d="M249.171 357.499C249.132 357.499 249.09 357.499 249.05 357.499L229.987 357.116C227.92 357.074 226.357 356.006 226.354 354.632L226.16 237.756C226.16 237.248 226.378 236.76 226.792 236.351C227.495 235.656 228.686 235.252 229.982 235.265L249.239 235.501C251.301 235.527 252.917 236.621 252.917 237.99V355.009C252.917 355.524 252.694 356.011 252.274 356.423C251.582 357.1 250.428 357.499 249.169 357.499H249.171ZM229.911 236.435C228.959 236.435 228.085 236.718 227.619 237.182C227.43 237.368 227.333 237.562 227.335 237.754L227.529 354.629C227.529 355.227 228.552 355.914 230.013 355.943L249.077 356.326C250.042 356.35 250.981 356.056 251.458 355.586C251.65 355.398 251.747 355.204 251.747 355.009V237.99C251.747 237.381 250.711 236.692 249.226 236.673L229.969 236.437C229.95 236.437 229.929 236.437 229.911 236.437V236.435Z" fill="black"/>
<path d="M214.604 354.569C214.567 354.569 214.53 354.569 214.496 354.569L195.433 354.372C194.827 354.367 191.803 354.262 191.795 352.809L191.601 292.489C191.601 292.311 191.653 292.041 191.915 291.781C192.563 291.133 194.153 290.934 195.42 290.918L214.677 291.041C216.374 291.052 218.36 291.469 218.36 292.61V353.003C218.36 353.184 218.305 353.454 218.042 353.714C217.402 354.346 215.868 354.571 214.606 354.571L214.604 354.569ZM214.507 353.396C215.996 353.412 216.951 353.097 217.185 352.906V292.702C216.964 292.523 216.067 292.219 214.667 292.211L195.409 292.088H195.346C193.914 292.088 192.996 292.392 192.77 292.578L192.965 352.709C193.182 352.888 194.064 353.187 195.443 353.2L214.507 353.396Z" fill="black"/>
<path d="M180.619 351.639H180.522L161.458 351.524C157.828 351.503 157.82 350.676 157.818 350.367L157.624 314.934C157.624 314.742 157.7 314.559 157.844 314.412C158.45 313.801 160.75 313.769 161.44 313.767L180.697 313.837C184.38 313.851 184.38 314.685 184.38 314.999V350.477C184.38 350.669 184.301 350.855 184.155 350.996C183.564 351.584 181.411 351.639 180.619 351.639ZM158.985 350.086C159.321 350.194 160.144 350.343 161.464 350.351L180.527 350.467C181.901 350.459 182.835 350.322 183.208 350.204V315.272C182.869 315.165 182.03 315.012 180.692 315.007L161.435 314.936C160.113 314.929 159.166 315.083 158.796 315.201L158.987 350.089L158.985 350.086Z" fill="black"/>
<path d="M147.132 348.127L128.068 348.012C126.366 348.001 125.013 347.747 125.01 347.434L124.816 312.001C124.813 311.679 126.269 311.416 128.045 311.424L147.302 311.495C149.026 311.5 150.403 311.757 150.403 312.072V347.55C150.403 347.875 148.921 348.137 147.132 348.127Z" fill="white"/>
<path d="M244.919 365.344C244.919 365.344 244.893 365.344 244.882 365.344L53.0777 353.194C51.5301 353.092 50.3052 351.799 50.2921 350.249L49.1406 234.357C49.138 234.035 49.3977 233.77 49.7203 233.764H49.7256C50.0456 233.764 50.3078 234.024 50.3105 234.344L51.4619 350.236C51.4698 351.177 52.2121 351.962 53.1511 352.025L244.953 364.174C245.276 364.195 245.522 364.473 245.501 364.796C245.483 365.105 245.223 365.344 244.916 365.344H244.919Z" fill="black"/>
<path d="M414.414 251.975C414.091 251.975 413.829 251.713 413.829 251.39V136.852C413.829 133.894 411.515 131.454 408.559 131.3L190.113 119.641C189.791 119.622 189.542 119.347 189.56 119.024C189.578 118.702 189.862 118.452 190.176 118.471L408.622 130.13C412.197 130.319 415.001 133.272 415.001 136.852V251.39C415.001 251.713 414.739 251.975 414.416 251.975H414.414Z" fill="black"/>
<path d="M159.246 117.988C159.246 117.988 159.225 117.988 159.215 117.988L146.483 117.309C146.16 117.29 145.911 117.015 145.93 116.692C145.948 116.37 146.231 116.115 146.546 116.139L159.278 116.818C159.6 116.837 159.85 117.112 159.831 117.435C159.815 117.747 159.556 117.988 159.246 117.988Z" fill="black"/>
<path d="M49.7255 219.359C49.4029 219.359 49.1406 219.094 49.1406 218.772L49.5026 117.39C49.5026 117.369 49.5026 117.351 49.5052 117.33C49.8882 113.768 52.9885 111.14 56.5635 111.326L66.3339 111.858L96.0675 113.445C96.3901 113.464 96.6393 113.739 96.6209 114.062C96.6026 114.384 96.3272 114.631 96.0046 114.615L56.4979 112.496C53.555 112.338 51.0003 114.5 50.6698 117.427L50.3078 218.777C50.3078 219.1 50.0455 219.359 49.7229 219.359H49.7255Z" fill="black"/>
<path d="M423.232 263.957H378.598V406.844H423.232V263.957Z" fill="white"/>
<path d="M423.232 407.431H378.597C378.274 407.431 378.012 407.169 378.012 406.847V263.96C378.012 263.637 378.274 263.375 378.597 263.375H423.232C423.554 263.375 423.816 263.637 423.816 263.96V406.847C423.816 407.169 423.554 407.431 423.232 407.431ZM379.182 406.259H422.644V264.545H379.182V406.259Z" fill="black"/>
<path d="M378.632 406.844H358.726V276.804L378.632 263.957V406.844Z" fill="white"/>
<path d="M378.631 407.431H358.726C358.403 407.431 358.141 407.169 358.141 406.846V276.807C358.141 276.607 358.243 276.421 358.409 276.314L378.314 263.466C378.492 263.351 378.723 263.341 378.912 263.443C379.101 263.545 379.216 263.742 379.216 263.957V406.844C379.216 407.166 378.954 407.429 378.631 407.429V407.431ZM359.314 406.259H378.047V265.032L359.314 277.124V406.259Z" fill="black"/>
<path d="M391.66 396.051H383.917C383.594 396.051 383.332 395.788 383.332 395.466V273.903C383.332 273.581 383.594 273.318 383.917 273.318H391.66C391.982 273.318 392.245 273.581 392.245 273.903V395.466C392.245 395.788 391.982 396.051 391.66 396.051ZM384.505 394.881H391.075V274.491H384.505V394.881Z" fill="black"/>
<path d="M404.785 396.05H397.042C396.719 396.05 396.457 395.788 396.457 395.466V273.903C396.457 273.581 396.719 273.318 397.042 273.318H404.785C405.107 273.318 405.37 273.581 405.37 273.903V395.466C405.37 395.788 405.107 396.05 404.785 396.05ZM397.629 394.881H404.2V274.491H397.629V394.881Z" fill="black"/>
<path d="M417.91 396.05H410.167C409.844 396.05 409.582 395.788 409.582 395.466V273.903C409.582 273.581 409.844 273.318 410.167 273.318H417.91C418.232 273.318 418.495 273.581 418.495 273.903V395.466C418.495 395.788 418.232 396.05 417.91 396.05ZM410.754 394.881H417.325V274.491H410.754V394.881Z" fill="black"/>
<path d="M359.523 221.856H331.623V326.592H359.523V221.856Z" fill="white"/>
<path d="M359.523 327.177H331.623C331.3 327.177 331.038 326.915 331.038 326.592V221.856C331.038 221.533 331.3 221.271 331.623 221.271H359.523C359.846 221.271 360.108 221.533 360.108 221.856V326.592C360.108 326.915 359.846 327.177 359.523 327.177ZM332.208 326.007H358.936V222.444H332.208V326.007Z" fill="black"/>
<path d="M354.175 234.937H337.485C337.163 234.937 336.9 234.674 336.9 234.352V227.175C336.9 226.853 337.163 226.59 337.485 226.59H354.175C354.498 226.59 354.76 226.853 354.76 227.175V234.352C354.76 234.674 354.498 234.937 354.175 234.937ZM338.073 233.764H353.59V227.76H338.073V233.764Z" fill="black"/>
<path d="M331.644 326.592H319.201V229.887L331.644 221.856V326.592Z" fill="white"/>
<path d="M331.644 327.177H319.201C318.878 327.177 318.616 326.915 318.616 326.592V229.887C318.616 229.688 318.718 229.502 318.883 229.394L331.326 221.363C331.505 221.248 331.736 221.237 331.924 221.339C332.113 221.442 332.229 221.638 332.229 221.853V326.59C332.229 326.912 331.966 327.175 331.644 327.175V327.177ZM319.788 326.007H331.059V222.931L319.788 230.205V326.005V326.007Z" fill="black"/>
<path d="M371.614 239.293H326.98V406.846H371.614V239.293Z" fill="white"/>
<path d="M371.615 407.431H326.98C326.658 407.431 326.396 407.169 326.396 406.846V239.293C326.396 238.971 326.658 238.709 326.98 238.709H371.615C371.937 238.709 372.2 238.971 372.2 239.293V406.846C372.2 407.169 371.937 407.431 371.615 407.431ZM327.568 406.259H371.03V239.878H327.568V406.259Z" fill="black"/>
<path d="M327.014 406.844H307.111V252.141L327.014 239.293V406.844Z" fill="white"/>
<path d="M327.015 407.431H307.109C306.787 407.431 306.524 407.169 306.524 406.846V252.141C306.524 251.941 306.624 251.755 306.792 251.647L326.697 238.8C326.876 238.685 327.107 238.674 327.295 238.777C327.484 238.879 327.6 239.076 327.6 239.291V406.844C327.6 407.166 327.337 407.429 327.015 407.429V407.431ZM307.697 406.259H326.43V240.369L307.697 252.461V406.261V406.259Z" fill="black"/>
<path d="M364.69 255.621H332.851C332.528 255.621 332.266 255.359 332.266 255.036V247.742C332.266 247.419 332.528 247.157 332.851 247.157H364.69C365.013 247.157 365.275 247.419 365.275 247.742V255.036C365.275 255.359 365.013 255.621 364.69 255.621ZM333.435 254.449H364.105V248.327H333.435V254.449Z" fill="black"/>
<path d="M364.69 270.769H332.851C332.528 270.769 332.266 270.506 332.266 270.184V262.889C332.266 262.567 332.528 262.304 332.851 262.304H364.69C365.013 262.304 365.275 262.567 365.275 262.889V270.184C365.275 270.506 365.013 270.769 364.69 270.769ZM333.435 269.596H364.105V263.474H333.435V269.596Z" fill="black"/>
<path d="M364.69 285.916H332.851C332.528 285.916 332.266 285.654 332.266 285.331V278.037C332.266 277.714 332.528 277.452 332.851 277.452H364.69C365.013 277.452 365.275 277.714 365.275 278.037V285.331C365.275 285.654 365.013 285.916 364.69 285.916ZM333.435 284.744H364.105V278.622H333.435V284.744Z" fill="black"/>
<path d="M364.69 301.064H332.851C332.528 301.064 332.266 300.801 332.266 300.479V293.184C332.266 292.862 332.528 292.599 332.851 292.599H364.69C365.013 292.599 365.275 292.862 365.275 293.184V300.479C365.275 300.801 365.013 301.064 364.69 301.064ZM333.435 299.891H364.105V293.769H333.435V299.891Z" fill="black"/>
<path d="M364.69 316.211H332.851C332.528 316.211 332.266 315.949 332.266 315.626V308.332C332.266 308.009 332.528 307.747 332.851 307.747H364.69C365.013 307.747 365.275 308.009 365.275 308.332V315.626C365.275 315.949 365.013 316.211 364.69 316.211ZM333.435 315.039H364.105V308.917H333.435V315.039Z" fill="black"/>
<path d="M364.69 331.358H332.851C332.528 331.358 332.266 331.096 332.266 330.773V323.479C332.266 323.156 332.528 322.894 332.851 322.894H364.69C365.013 322.894 365.275 323.156 365.275 323.479V330.773C365.275 331.096 365.013 331.358 364.69 331.358ZM333.435 330.186H364.105V324.064H333.435V330.186Z" fill="black"/>
<path d="M364.69 346.506H332.851C332.528 346.506 332.266 346.244 332.266 345.921V338.627C332.266 338.304 332.528 338.042 332.851 338.042H364.69C365.013 338.042 365.275 338.304 365.275 338.627V345.921C365.275 346.244 365.013 346.506 364.69 346.506ZM333.435 345.333H364.105V339.211H333.435V345.333Z" fill="black"/>
<path d="M364.69 361.653H332.851C332.528 361.653 332.266 361.391 332.266 361.068V353.774C332.266 353.451 332.528 353.189 332.851 353.189H364.69C365.013 353.189 365.275 353.451 365.275 353.774V361.068C365.275 361.391 365.013 361.653 364.69 361.653ZM333.435 360.481H364.105V354.359H333.435V360.481Z" fill="black"/>
<path d="M364.69 376.801H332.851C332.528 376.801 332.266 376.538 332.266 376.216V368.922C332.266 368.599 332.528 368.337 332.851 368.337H364.69C365.013 368.337 365.275 368.599 365.275 368.922V376.216C365.275 376.538 365.013 376.801 364.69 376.801ZM333.435 375.628H364.105V369.506H333.435V375.628Z" fill="black"/>
<path d="M364.69 391.948H332.851C332.528 391.948 332.266 391.686 332.266 391.363V384.069C332.266 383.746 332.528 383.484 332.851 383.484H364.69C365.013 383.484 365.275 383.746 365.275 384.069V391.363C365.275 391.686 365.013 391.948 364.69 391.948ZM333.435 390.776H364.105V384.654H333.435V390.776Z" fill="black"/>
<path d="M317.388 287.369H272.754V406.846H317.388V287.369Z" fill="white"/>
<path d="M317.389 407.431H272.754C272.432 407.431 272.169 407.169 272.169 406.846V287.369C272.169 287.047 272.432 286.784 272.754 286.784H317.389C317.711 286.784 317.974 287.047 317.974 287.369V406.846C317.974 407.169 317.711 407.431 317.389 407.431ZM273.339 406.259H316.801V287.954H273.339V406.259Z" fill="black"/>
<path d="M272.788 406.844H252.883V300.216L272.788 287.369V406.844Z" fill="white"/>
<path d="M272.788 407.431H252.883C252.56 407.431 252.298 407.169 252.298 406.846V300.216C252.298 300.017 252.4 299.831 252.565 299.723L272.471 286.876C272.649 286.761 272.88 286.75 273.069 286.853C273.258 286.955 273.373 287.152 273.373 287.367V406.844C273.373 407.166 273.111 407.429 272.788 407.429V407.431ZM253.468 406.259H272.201V288.445L253.468 300.536V406.262V406.259Z" fill="black"/>
<path d="M285.816 313.384H278.073C277.751 313.384 277.488 313.121 277.488 312.799V297.315C277.488 296.993 277.751 296.731 278.073 296.731H285.816C286.139 296.731 286.401 296.993 286.401 297.315V312.799C286.401 313.121 286.139 313.384 285.816 313.384ZM278.661 312.211H285.231V297.9H278.661V312.211Z" fill="black"/>
<path d="M298.942 313.384H291.199C290.877 313.384 290.614 313.121 290.614 312.799V297.315C290.614 296.993 290.877 296.731 291.199 296.731H298.942C299.265 296.731 299.527 296.993 299.527 297.315V312.799C299.527 313.121 299.265 313.384 298.942 313.384ZM291.787 312.211H298.357V297.9H291.787V312.211Z" fill="black"/>
<path d="M312.067 313.384H304.324C304.002 313.384 303.739 313.121 303.739 312.799V297.315C303.739 296.993 304.002 296.731 304.324 296.731H312.067C312.39 296.731 312.652 296.993 312.652 297.315V312.799C312.652 313.121 312.39 313.384 312.067 313.384ZM304.912 312.211H311.482V297.9H304.912V312.211Z" fill="black"/>
<path d="M285.816 338.899H278.073C277.751 338.899 277.488 338.637 277.488 338.314V322.831C277.488 322.509 277.751 322.246 278.073 322.246H285.816C286.139 322.246 286.401 322.509 286.401 322.831V338.314C286.401 338.637 286.139 338.899 285.816 338.899ZM278.661 337.727H285.231V323.416H278.661V337.727Z" fill="black"/>
<path d="M298.942 338.899H291.199C290.877 338.899 290.614 338.637 290.614 338.314V322.831C290.614 322.509 290.877 322.246 291.199 322.246H298.942C299.265 322.246 299.527 322.509 299.527 322.831V338.314C299.527 338.637 299.265 338.899 298.942 338.899ZM291.787 337.727H298.357V323.416H291.787V337.727Z" fill="black"/>
<path d="M312.067 338.899H304.324C304.002 338.899 303.739 338.637 303.739 338.314V322.831C303.739 322.509 304.002 322.246 304.324 322.246H312.067C312.39 322.246 312.652 322.509 312.652 322.831V338.314C312.652 338.637 312.39 338.899 312.067 338.899ZM304.912 337.727H311.482V323.416H304.912V337.727Z" fill="black"/>
<path d="M285.816 364.415H278.073C277.751 364.415 277.488 364.153 277.488 363.83V348.347C277.488 348.025 277.751 347.762 278.073 347.762H285.816C286.139 347.762 286.401 348.025 286.401 348.347V363.83C286.401 364.153 286.139 364.415 285.816 364.415ZM278.661 363.243H285.231V348.932H278.661V363.243Z" fill="black"/>
<path d="M298.942 364.415H291.199C290.877 364.415 290.614 364.153 290.614 363.83V348.347C290.614 348.025 290.877 347.762 291.199 347.762H298.942C299.265 347.762 299.527 348.025 299.527 348.347V363.83C299.527 364.153 299.265 364.415 298.942 364.415ZM291.787 363.243H298.357V348.932H291.787V363.243Z" fill="black"/>
<path d="M312.067 364.415H304.324C304.002 364.415 303.739 364.153 303.739 363.83V348.347C303.739 348.025 304.002 347.762 304.324 347.762H312.067C312.39 347.762 312.652 348.025 312.652 348.347V363.83C312.652 364.153 312.39 364.415 312.067 364.415ZM304.912 363.243H311.482V348.932H304.912V363.243Z" fill="black"/>
<path d="M285.816 389.931H278.073C277.751 389.931 277.488 389.669 277.488 389.346V373.863C277.488 373.541 277.751 373.278 278.073 373.278H285.816C286.139 373.278 286.401 373.541 286.401 373.863V389.346C286.401 389.669 286.139 389.931 285.816 389.931ZM278.661 388.759H285.231V374.448H278.661V388.759Z" fill="black"/>
<path d="M298.942 389.931H291.199C290.877 389.931 290.614 389.669 290.614 389.346V373.863C290.614 373.541 290.877 373.278 291.199 373.278H298.942C299.265 373.278 299.527 373.541 299.527 373.863V389.346C299.527 389.669 299.265 389.931 298.942 389.931ZM291.787 388.759H298.357V374.448H291.787V388.759Z" fill="black"/>
<path d="M312.067 389.931H304.324C304.002 389.931 303.739 389.669 303.739 389.346V373.863C303.739 373.541 304.002 373.278 304.324 373.278H312.067C312.39 373.278 312.652 373.541 312.652 373.863V389.346C312.652 389.669 312.39 389.931 312.067 389.931ZM304.912 388.759H311.482V374.448H304.912V388.759Z" fill="black"/>
<path d="M453.727 445.015L453.737 457.149C453.742 460.826 449.485 464.512 440.929 467.365C423.82 473.068 395.901 473.309 378.016 467.977C377.722 467.89 377.433 467.801 377.145 467.709C368.083 464.861 363.532 461.073 363.527 457.275L363.516 445.141C363.521 448.939 368.072 452.727 377.134 455.575C377.423 455.667 377.711 455.754 378.005 455.843C395.891 461.175 423.809 460.934 440.919 455.232C449.472 452.381 453.732 448.693 453.727 445.015Z" fill="black"/>
<path d="M439.232 434.314C439.529 434.403 439.817 434.49 440.106 434.581C457.944 440.189 458.309 449.432 440.919 455.229C423.809 460.931 395.891 461.173 378.005 455.84C377.711 455.754 377.423 455.665 377.134 455.573C359.298 449.965 358.934 440.722 376.324 434.922C393.431 429.22 421.349 428.979 439.232 434.311V434.314Z" fill="white"/>
<path d="M408.449 460.297C397.512 460.297 386.569 459.006 377.84 456.401C377.543 456.312 377.252 456.223 376.961 456.131C367.951 453.299 362.968 449.409 362.931 445.178C362.894 441.057 367.587 437.22 376.137 434.369C393.436 428.604 421.223 428.331 439.4 433.752C439.699 433.842 439.99 433.931 440.281 434.023C449.294 436.855 454.274 440.745 454.311 444.976C454.348 449.097 449.655 452.934 441.105 455.785C432.113 458.783 420.284 460.297 408.447 460.297H408.449ZM408.835 431.093C397.045 431.093 385.257 432.564 376.51 435.481C368.594 438.12 364.072 441.65 364.103 445.17C364.135 448.798 368.948 452.386 377.312 455.017C377.598 455.106 377.884 455.195 378.175 455.281C395.857 460.554 423.919 460.281 440.738 454.676C448.654 452.037 453.173 448.506 453.144 444.986C453.113 441.359 448.297 437.771 439.932 435.14C439.646 435.051 439.358 434.962 439.067 434.875C430.584 432.347 419.709 431.093 408.835 431.093Z" fill="black"/>
<path d="M456.224 428.187L456.234 440.32C456.239 443.998 451.982 447.683 443.426 450.537C426.317 456.239 398.399 456.48 380.513 451.148C380.219 451.061 379.93 450.972 379.642 450.88C370.58 448.032 366.029 444.244 366.024 440.446L366.013 428.313C366.018 432.111 370.569 435.898 379.631 438.747C379.92 438.838 380.208 438.925 380.502 439.014C398.388 444.347 426.307 444.105 443.416 438.403C451.969 435.552 456.229 431.864 456.224 428.187Z" fill="black"/>
<path d="M441.727 417.485C442.023 417.574 442.312 417.661 442.6 417.753C460.439 423.36 460.803 432.604 443.413 438.4C426.304 444.103 398.386 444.344 380.5 439.011C380.206 438.925 379.917 438.836 379.629 438.744C361.793 433.136 361.428 423.893 378.818 418.094C395.925 412.391 423.844 412.15 441.727 417.482V417.485Z" fill="white"/>
<path d="M410.944 443.468C400.007 443.468 389.067 442.177 380.335 439.573C380.038 439.484 379.745 439.394 379.453 439.303C370.444 436.47 365.463 432.58 365.426 428.349C365.389 424.229 370.082 420.391 378.632 417.537C395.928 411.772 423.715 411.5 441.895 416.921C442.194 417.01 442.485 417.099 442.776 417.191C451.789 420.024 456.772 423.914 456.809 428.145C456.846 432.265 452.153 436.103 443.603 438.956C434.611 441.954 422.782 443.468 410.944 443.468ZM411.33 414.267C399.54 414.267 387.752 415.738 379.005 418.655C371.089 421.294 366.567 424.827 366.598 428.344C366.63 431.971 371.443 435.56 379.808 438.188C380.093 438.277 380.382 438.366 380.671 438.453C398.349 443.725 426.417 443.452 443.233 437.847C451.149 435.208 455.671 431.675 455.639 428.158C455.608 424.53 450.792 420.942 442.427 418.311C442.142 418.222 441.853 418.133 441.562 418.046C433.079 415.518 422.205 414.264 411.33 414.264V414.267Z" fill="black"/>
<path d="M449.073 411.229L449.084 423.363C449.089 427.04 444.832 430.726 436.276 433.579C419.167 439.282 391.248 439.523 373.362 434.191C373.069 434.104 372.78 434.015 372.492 433.923C363.429 431.074 358.879 427.287 358.873 423.489L358.863 411.355C358.868 415.153 363.419 418.941 372.481 421.789C372.77 421.881 373.058 421.968 373.352 422.057C391.238 427.389 419.156 427.148 436.266 421.446C444.819 418.595 449.079 414.907 449.073 411.229Z" fill="black"/>
<path d="M434.579 400.528C434.875 400.617 435.164 400.704 435.452 400.795C453.291 406.403 453.655 415.646 436.265 421.443C419.156 427.145 391.238 427.387 373.352 422.054C373.058 421.968 372.769 421.878 372.481 421.787C354.645 416.179 354.28 406.936 371.67 401.139C388.777 395.437 416.696 395.195 434.579 400.528Z" fill="white"/>
<path d="M403.793 426.511C392.856 426.511 381.916 425.22 373.184 422.616C372.887 422.526 372.594 422.437 372.303 422.345C363.293 419.513 358.312 415.623 358.275 411.392C358.238 407.271 362.931 403.434 371.482 400.58C388.777 394.815 416.565 394.542 434.744 399.964C435.043 400.053 435.334 400.142 435.625 400.234C444.638 403.067 449.619 406.957 449.655 411.187C449.692 415.308 445 419.145 436.449 421.997C427.458 424.995 415.628 426.508 403.791 426.508L403.793 426.511ZM404.179 397.307C392.389 397.307 380.601 398.778 371.854 401.695C363.938 404.334 359.416 407.867 359.448 411.384C359.479 415.012 364.292 418.6 372.657 421.228C372.943 421.317 373.228 421.406 373.52 421.493C391.201 426.765 419.264 426.495 436.082 420.887C443.998 418.248 448.517 414.718 448.488 411.198C448.457 407.57 443.641 403.982 435.277 401.351C434.991 401.262 434.702 401.173 434.411 401.087C425.928 398.558 415.054 397.304 404.179 397.304V397.307Z" fill="black"/>
<path d="M457.936 397.257L457.947 409.391C457.952 413.068 453.695 416.753 445.139 419.607C428.029 425.309 400.111 425.551 382.225 420.218C381.931 420.132 381.643 420.042 381.354 419.951C372.292 417.102 367.741 413.315 367.736 409.517L367.726 397.383C367.731 401.181 372.282 404.968 381.344 407.817C381.632 407.909 381.921 407.995 382.215 408.084C400.1 413.417 428.019 413.176 445.128 407.473C453.682 404.622 457.941 400.934 457.936 397.257Z" fill="black"/>
<path d="M443.439 386.558C443.736 386.647 444.024 386.734 444.313 386.826C462.151 392.433 462.516 401.677 445.126 407.473C428.016 413.176 400.098 413.417 382.212 408.084C381.918 407.998 381.63 407.909 381.341 407.817C363.505 402.209 363.141 392.966 380.531 387.169C397.638 381.467 425.556 381.226 443.439 386.558Z" fill="white"/>
<path d="M412.657 412.538C401.719 412.538 390.776 411.248 382.047 408.643C381.751 408.554 381.457 408.465 381.166 408.373C372.156 405.54 367.175 401.65 367.138 397.42C367.102 393.299 371.794 389.462 380.345 386.608C397.64 380.843 425.43 380.57 443.607 385.992C443.906 386.081 444.198 386.17 444.489 386.262C453.501 389.095 458.482 392.984 458.519 397.215C458.555 401.336 453.863 405.173 445.312 408.024C436.321 411.022 424.491 412.536 412.654 412.536L412.657 412.538ZM413.042 383.337C401.252 383.337 389.465 384.809 380.717 387.725C372.801 390.364 368.279 393.897 368.311 397.414C368.342 401.042 373.155 404.63 381.52 407.258C381.806 407.348 382.092 407.437 382.383 407.523C400.064 412.795 428.127 412.523 444.945 406.917C452.858 404.279 457.38 400.748 457.352 397.228C457.32 393.601 452.504 390.01 444.14 387.382C443.854 387.293 443.565 387.203 443.274 387.117C434.792 384.588 423.917 383.335 413.042 383.335V383.337Z" fill="black"/>
<path d="M447.452 383.421L447.463 395.555C447.468 399.232 443.211 402.917 434.655 405.771C417.546 411.473 389.627 411.715 371.741 406.382C371.448 406.296 371.159 406.206 370.87 406.115C361.808 403.266 357.257 399.479 357.252 395.681L357.242 383.547C357.247 387.345 361.798 391.133 370.86 393.981C371.148 394.073 371.437 394.159 371.731 394.249C389.617 399.581 417.535 399.34 434.644 393.637C443.198 390.786 447.457 387.098 447.452 383.421Z" fill="black"/>
<path d="M432.958 372.72C433.254 372.809 433.543 372.895 433.831 372.987C451.67 378.595 452.034 387.838 434.644 393.635C417.535 399.337 389.616 399.578 371.731 394.246C371.437 394.159 371.148 394.07 370.86 393.978C353.024 388.371 352.659 379.127 370.049 373.331C387.156 367.628 415.075 367.387 432.958 372.72Z" fill="white"/>
<path d="M402.172 398.7C391.235 398.7 380.295 397.409 371.563 394.805C371.266 394.715 370.975 394.626 370.684 394.534C361.674 391.702 356.691 387.812 356.654 383.581C356.617 379.46 361.31 375.62 369.86 372.769C387.156 367.004 414.946 366.731 433.123 372.153C433.422 372.242 433.713 372.331 434.007 372.423C443.017 375.256 448 379.146 448.037 383.377C448.074 387.497 443.381 391.334 434.831 394.186C425.839 397.184 414.01 398.697 402.172 398.697V398.7ZM402.561 369.499C390.771 369.499 378.983 370.97 370.236 373.887C362.32 376.525 357.798 380.056 357.829 383.576C357.861 387.203 362.674 390.792 371.038 393.422C371.324 393.512 371.61 393.601 371.901 393.687C389.582 398.959 417.645 398.687 434.463 393.081C442.379 390.443 446.899 386.912 446.87 383.392C446.838 379.765 442.023 376.177 433.658 373.546C433.372 373.454 433.084 373.367 432.793 373.281C424.31 370.752 413.435 369.499 402.561 369.499Z" fill="black"/>
<path d="M455.088 367.823L455.099 379.956C455.104 383.634 450.847 387.319 442.291 390.173C425.182 395.875 397.263 396.116 379.378 390.784C379.084 390.697 378.795 390.608 378.507 390.516C369.444 387.668 364.894 383.88 364.888 380.082L364.878 367.948C364.883 371.746 369.434 375.534 378.496 378.382C378.785 378.474 379.073 378.561 379.367 378.65C397.253 383.982 425.171 383.741 442.281 378.039C450.834 375.188 455.094 371.5 455.088 367.823Z" fill="black"/>
<path d="M440.591 357.121C440.887 357.21 441.176 357.297 441.465 357.389C459.303 362.996 459.668 372.24 442.278 378.036C425.168 383.739 397.25 383.98 379.364 378.647C379.07 378.561 378.782 378.472 378.493 378.38C360.657 372.772 360.293 363.529 377.683 357.73C394.789 352.027 422.708 351.786 440.591 357.118V357.121Z" fill="white"/>
<path d="M409.809 383.104C398.871 383.104 387.931 381.813 379.199 379.211C378.903 379.122 378.609 379.033 378.318 378.941C369.308 376.108 364.324 372.219 364.29 367.988C364.254 363.867 368.946 360.027 377.497 357.176C394.795 351.411 422.582 351.138 440.759 356.56C441.058 356.649 441.349 356.738 441.641 356.83C450.653 359.663 455.634 363.552 455.671 367.783C455.707 371.904 451.015 375.741 442.464 378.592C433.473 381.59 421.643 383.101 409.806 383.101L409.809 383.104ZM410.194 353.9C398.404 353.9 386.617 355.371 377.869 358.288C369.953 360.927 365.431 364.46 365.463 367.977C365.494 371.605 370.307 375.193 378.672 377.824C378.958 377.913 379.246 378.002 379.537 378.089C397.216 383.361 425.281 383.088 442.097 377.483C450.013 374.844 454.532 371.314 454.503 367.794C454.472 364.166 449.656 360.578 441.292 357.947C441.006 357.858 440.717 357.769 440.426 357.682C431.944 355.154 421.069 353.9 410.194 353.9Z" fill="black"/>
<path d="M421.05 359.293L418.886 361.184C420.843 361.438 422.319 361.732 423.463 362.036C424.255 362.249 424.887 362.466 425.412 362.682L421.165 364.953C420.62 364.756 419.88 364.46 418.781 364.164C417.771 363.893 416.46 363.626 414.718 363.437C411.431 363.083 409.682 363.571 408.992 364.171C408.182 364.88 409.435 365.522 412.948 366.674C417.934 368.224 419.009 369.666 416.793 371.602C414.605 373.514 409.551 374.805 403.24 374.605L400.73 376.798L395.775 376.263L398.112 374.222C396.245 373.981 394.527 373.64 393.134 373.268C392.056 372.979 391.175 372.67 390.571 372.373L394.967 370.023C395.749 370.385 396.756 370.76 397.981 371.088C399.203 371.416 400.641 371.697 402.283 371.872C405.165 372.182 407.678 371.922 408.664 371.062C409.598 370.246 408.567 369.556 405.443 368.617C400.916 367.261 398.456 365.787 400.84 363.705C403.007 361.813 407.838 360.67 413.766 360.801L416.103 358.76L421.058 359.295L421.05 359.293Z" fill="black"/>
<path d="M139.911 59.4416C139.801 59.4416 139.691 59.4101 139.591 59.3472C139.321 59.1688 139.245 58.8068 139.423 58.5367L141.131 55.9295C141.309 55.6593 141.671 55.5833 141.941 55.759C142.211 55.9374 142.287 56.2993 142.109 56.5695L140.402 59.1767C140.289 59.3472 140.103 59.4416 139.911 59.4416Z" fill="black"/>
<path d="M133.933 68.5642C133.823 68.5642 133.713 68.5327 133.613 68.4698C133.343 68.2914 133.267 67.9294 133.445 67.6593L135.153 65.0521C135.331 64.7819 135.693 64.7059 135.963 64.8816C136.233 65.0599 136.309 65.4219 136.131 65.6921L134.424 68.2993C134.311 68.4698 134.125 68.5642 133.933 68.5642Z" fill="black"/>
<path d="M134.594 60.5538C134.481 60.5538 134.368 60.5223 134.266 60.4541L131.722 58.7361C131.454 58.5551 131.383 58.1905 131.564 57.923C131.745 57.6554 132.11 57.5846 132.377 57.7656L134.922 59.4836C135.189 59.6646 135.26 60.0292 135.079 60.2967C134.966 60.4646 134.78 60.5538 134.594 60.5538Z" fill="black"/>
<path d="M143.504 66.5629C143.391 66.5629 143.279 66.5314 143.176 66.4632L140.632 64.7452C140.365 64.5642 140.294 64.1996 140.475 63.9321C140.656 63.6645 141.02 63.5937 141.288 63.7747L143.832 65.4927C144.1 65.6737 144.171 66.0383 143.99 66.3058C143.877 66.4737 143.691 66.5629 143.504 66.5629Z" fill="black"/>
<path d="M462.13 237.581C462.038 237.581 461.944 237.56 461.857 237.513C461.571 237.36 461.461 237.006 461.613 236.72L463.072 233.966C463.224 233.68 463.578 233.57 463.864 233.722C464.15 233.875 464.26 234.229 464.108 234.515L462.649 237.269C462.545 237.468 462.34 237.581 462.13 237.581Z" fill="black"/>
<path d="M457.026 247.217C456.934 247.217 456.839 247.196 456.753 247.149C456.467 246.997 456.357 246.643 456.509 246.357L457.967 243.603C458.119 243.317 458.473 243.207 458.759 243.359C459.045 243.511 459.155 243.865 459.003 244.151L457.545 246.905C457.44 247.105 457.235 247.217 457.026 247.217Z" fill="black"/>
<path d="M456.939 239.181C456.845 239.181 456.748 239.157 456.658 239.11L453.965 237.636C453.681 237.481 453.576 237.124 453.731 236.841C453.886 236.558 454.243 236.453 454.526 236.608L457.22 238.082C457.503 238.236 457.608 238.593 457.453 238.876C457.346 239.071 457.146 239.181 456.939 239.181Z" fill="black"/>
<path d="M466.366 244.337C466.272 244.337 466.175 244.314 466.086 244.267L463.392 242.793C463.109 242.638 463.004 242.281 463.158 241.998C463.313 241.714 463.67 241.61 463.953 241.764L466.647 243.238C466.93 243.393 467.035 243.75 466.88 244.033C466.773 244.227 466.573 244.337 466.366 244.337Z" fill="black"/>
<path d="M165.027 49.9965C164.146 49.9965 163.265 49.8208 162.428 49.4667C160.734 48.7532 159.422 47.405 158.735 45.6765C157.329 42.1434 159.008 38.0989 162.475 36.6589C164.143 35.9664 165.979 35.9717 167.642 36.672C169.337 37.3854 170.648 38.7336 171.335 40.4621C172.741 43.9952 171.063 48.0398 167.595 49.4798C166.766 49.8234 165.898 49.9965 165.027 49.9965ZM165.04 37.3146C164.322 37.3146 163.606 37.4563 162.921 37.7395C160.041 38.9356 158.651 42.3008 159.821 45.2411C160.393 46.6759 161.479 47.7932 162.882 48.386C164.254 48.9657 165.767 48.9683 167.144 48.3965C170.024 47.2005 171.414 43.8352 170.244 40.8949C169.673 39.4576 168.587 38.3428 167.186 37.75C166.496 37.4589 165.77 37.312 165.04 37.312V37.3146Z" fill="black"/>
<path d="M474.956 222.284C474.854 222.284 474.749 222.281 474.644 222.276C472.871 222.195 471.245 221.421 470.059 220.102C468.853 218.759 468.252 217.014 468.365 215.189C468.593 211.464 471.78 208.582 475.457 208.744C477.23 208.826 478.857 209.599 480.042 210.919C481.249 212.262 481.849 214.006 481.737 215.831C481.514 219.451 478.503 222.284 474.954 222.284H474.956ZM475.148 209.911C472.213 209.911 469.721 212.262 469.535 215.265C469.443 216.773 469.939 218.216 470.933 219.323C471.906 220.406 473.244 221.041 474.699 221.109C477.745 221.258 480.378 218.853 480.57 215.763C480.661 214.255 480.166 212.812 479.171 211.706C478.198 210.622 476.861 209.987 475.405 209.919C475.318 209.914 475.234 209.914 475.148 209.914V209.911Z" fill="black"/>
<path d="M275.081 76.8317C274.525 76.8317 273.969 76.7268 273.434 76.5196C272.277 76.0684 271.367 75.1819 270.871 74.0278C269.859 71.6698 270.918 68.9104 273.232 67.8744C274.347 67.376 275.59 67.3446 276.726 67.7878C277.882 68.239 278.792 69.1255 279.291 70.2796C280.303 72.6376 279.244 75.397 276.93 76.433C276.337 76.6979 275.711 76.8317 275.084 76.8317H275.081ZM275.081 68.6482C274.614 68.6482 274.15 68.7478 273.712 68.9419C271.978 69.7183 271.186 71.7904 271.949 73.5635C272.322 74.4291 273.001 75.0901 273.861 75.4258C274.703 75.7563 275.624 75.7327 276.45 75.3629C278.184 74.5891 278.976 72.5144 278.213 70.7413C277.84 69.8757 277.161 69.2147 276.298 68.879C275.902 68.7242 275.49 68.6482 275.078 68.6482H275.081Z" fill="black"/>
<path d="M317.242 4.77699C317.053 4.77699 316.869 4.68781 316.757 4.51732C316.576 4.24978 316.646 3.8852 316.914 3.70421L319.497 1.96259C319.765 1.7816 320.13 1.85242 320.311 2.11996C320.492 2.3875 320.421 2.75209 320.153 2.93307L317.57 4.6747C317.47 4.74289 317.355 4.77437 317.242 4.77437V4.77699Z" fill="black"/>
<path d="M308.198 10.8702C308.009 10.8702 307.825 10.781 307.713 10.6105C307.532 10.343 307.602 9.97842 307.87 9.79744L310.454 8.05581C310.721 7.87483 311.086 7.94565 311.267 8.21319C311.448 8.48072 311.377 8.84531 311.109 9.02629L308.526 10.7679C308.426 10.8361 308.311 10.8676 308.198 10.8676V10.8702Z" fill="black"/>
<path d="M311.912 3.74114C311.72 3.74114 311.534 3.64672 311.421 3.47623L309.74 0.905751C309.562 0.635589 309.638 0.273625 309.91 0.0952651C310.181 -0.0804714 310.545 -0.00702928 310.721 0.265756L312.402 2.83623C312.581 3.10639 312.505 3.46836 312.232 3.64672C312.132 3.71229 312.022 3.74114 311.912 3.74114Z" fill="black"/>
<path d="M317.792 12.7352C317.601 12.7352 317.414 12.6408 317.302 12.4703L315.62 9.89985C315.442 9.62968 315.518 9.26772 315.791 9.08936C316.061 8.91362 316.426 8.98707 316.601 9.25985L318.283 11.8303C318.461 12.1005 318.385 12.4625 318.112 12.6408C318.012 12.7064 317.902 12.7352 317.792 12.7352Z" fill="black"/>
<path d="M184.472 77.5767C184.307 77.5767 184.142 77.5085 184.026 77.3721C183.816 77.1255 183.845 76.7557 184.089 76.5458L238.764 29.7317C239.011 29.5219 239.381 29.5508 239.59 29.7947C239.8 30.0413 239.771 30.4111 239.527 30.6209L184.852 77.435C184.742 77.5294 184.606 77.5767 184.472 77.5767Z" fill="black"/>
<path d="M254.585 46.0412C254.42 46.0412 254.257 45.973 254.139 45.8366C253.93 45.59 253.958 45.2202 254.202 45.0104L288.238 15.867C288.484 15.6571 288.851 15.6834 289.064 15.9299C289.274 16.1765 289.245 16.5463 289.001 16.7561L254.966 45.8995C254.856 45.994 254.719 46.0412 254.585 46.0412Z" fill="black"/>
<path d="M244.991 451.515C231.391 451.515 217.503 450.28 204.69 446.97C204.375 446.888 204.189 446.568 204.27 446.256C204.351 445.941 204.671 445.752 204.983 445.836C254.869 458.728 321.331 439.927 321.998 439.735C322.305 439.646 322.632 439.825 322.722 440.137C322.811 440.446 322.632 440.772 322.32 440.861C321.822 441.005 284.66 451.518 244.991 451.518V451.515Z" fill="black"/>
<path d="M244.771 460.239C228.637 460.239 211.368 458.705 197.183 453.829C196.876 453.724 196.714 453.39 196.818 453.084C196.923 452.777 197.257 452.614 197.563 452.722C235.383 465.724 295.514 454.76 296.117 454.647C296.435 454.589 296.742 454.799 296.799 455.116C296.857 455.434 296.647 455.741 296.33 455.798C295.95 455.869 271.984 460.239 244.768 460.239H244.771Z" fill="black"/>
<path d="M188.498 449.813C187.992 449.813 187.486 449.718 186.998 449.532C185.957 449.134 185.13 448.349 184.677 447.329C184.223 446.309 184.191 445.173 184.593 444.132C184.994 443.09 185.776 442.264 186.796 441.81C187.816 441.357 188.952 441.325 189.993 441.726C191.035 442.125 191.861 442.909 192.315 443.927C192.768 444.947 192.8 446.083 192.398 447.127C192 448.168 191.216 448.995 190.195 449.448C189.652 449.69 189.073 449.813 188.496 449.813H188.498ZM188.498 442.621C188.081 442.621 187.667 442.707 187.276 442.883C185.76 443.557 185.075 445.341 185.752 446.857C186.08 447.591 186.673 448.153 187.423 448.441C188.173 448.73 188.991 448.709 189.726 448.381C190.46 448.053 191.021 447.46 191.31 446.71C191.598 445.96 191.578 445.141 191.25 444.407C190.922 443.673 190.329 443.111 189.579 442.823C189.23 442.689 188.865 442.621 188.501 442.621H188.498Z" fill="black"/>
<path d="M332.903 442.4C332.819 442.4 332.736 442.382 332.657 442.345C332.465 442.256 332.337 442.072 332.321 441.863L331.393 430.385C331.377 430.191 331.458 430.004 331.608 429.881C331.757 429.76 331.957 429.718 332.143 429.774L344.213 433.349C344.429 433.412 344.589 433.593 344.625 433.815C344.662 434.036 344.57 434.259 344.387 434.39L333.244 442.29C333.145 442.361 333.024 442.398 332.906 442.398L332.903 442.4ZM332.625 431.143L333.402 440.743L342.721 434.135L332.623 431.145L332.625 431.143Z" fill="black"/>
<path d="M381.055 72.5719L351.523 17.6293C350.734 15.9218 348.468 15.552 347.174 16.9211L302.356 68.7031C301.643 69.4585 301.433 70.568 301.827 71.5306C302.217 72.4932 303.141 73.1437 304.179 73.1883C310.75 73.3876 317.323 73.5843 323.893 73.7837C324.848 73.8125 325.729 74.3083 326.251 75.1083C326.773 75.9083 326.87 76.9155 326.511 77.802C317.032 101.151 298.606 136.734 263.338 168.377C191.257 233.051 103.53 232.19 81.7651 231.354C83.5828 243.731 85.4005 256.109 87.2182 268.484C110.35 268.361 206.483 265.224 282.808 190.53C324.489 149.739 343.122 104.38 351.549 77.6027C352.145 75.7089 353.968 74.4735 355.948 74.623C363.476 75.1974 371.004 75.7719 378.532 76.3489C379.625 76.2755 380.583 75.646 381.008 74.7043C381.453 73.7181 381.136 72.787 381.057 72.5745L381.055 72.5719Z" fill="black"/>
<path d="M87.2161 269.066C86.925 269.066 86.6784 268.854 86.6364 268.565L81.1834 231.435C81.1571 231.262 81.2096 231.089 81.3276 230.958C81.443 230.827 81.6057 230.748 81.7866 230.764C113.826 231.994 195.625 228.34 262.945 167.937C290.438 143.268 311.642 112.868 325.966 77.5792C326.254 76.871 326.176 76.0658 325.759 75.4258C325.342 74.7858 324.636 74.3897 323.873 74.3661L304.159 73.7707C302.884 73.7156 301.759 72.9235 301.281 71.7484C300.804 70.5734 301.059 69.2199 301.929 68.2993L346.732 16.5357C347.49 15.7331 348.565 15.3711 349.63 15.5416C350.695 15.7147 351.6 16.4019 352.054 17.3829L381.569 72.2914C381.583 72.315 381.593 72.3412 381.604 72.3674C381.753 72.7688 382.042 73.8258 381.538 74.9432C381.024 76.0789 379.886 76.8422 378.566 76.9313C378.54 76.9313 378.511 76.9313 378.482 76.9313L355.899 75.2055C354.17 75.0717 352.623 76.1314 352.103 77.7759C338.49 121.028 314.666 160.162 283.212 190.945C211.74 260.891 122.337 268.88 87.2187 269.066H87.2161ZM82.445 231.962L87.7223 267.891C123.048 267.629 211.572 259.419 282.396 190.108C313.714 159.459 337.433 120.493 350.989 77.4245C351.671 75.2579 353.735 73.8625 355.991 74.0383L378.529 75.7589C379.4 75.6881 380.143 75.1924 380.473 74.4606C380.785 73.7707 380.62 73.0992 380.52 72.8107L351.01 17.9075C350.7 17.2413 350.136 16.8137 349.446 16.701C348.757 16.5856 348.085 16.8164 347.605 17.3226L302.803 69.0862C302.231 69.6947 302.068 70.5602 302.373 71.3104C302.677 72.0606 303.398 72.5694 304.206 72.6035L323.912 73.1963C325.058 73.2304 326.118 73.8258 326.742 74.7858C327.369 75.7458 327.485 76.955 327.052 78.0199C312.66 113.477 291.354 144.023 263.726 168.81C196.574 229.061 115.108 233.116 82.445 231.962Z" fill="white"/>
<path d="M153.868 413.123C153.868 413.123 153.616 423.264 153.364 438.062C153.165 449.826 152.96 464.525 152.884 479.41H103.573C102.584 460.931 101.921 448.577 101.921 448.577C101.921 448.577 97.1756 463.03 92.8294 479.41H38.0469C39.1826 460.465 40.2082 442.613 40.8587 431.101C41.315 423.004 41.5905 418.041 41.5905 418.041L153.865 413.121L153.868 413.123Z" fill="white"/>
<path d="M92.8293 479.998C92.7794 479.998 92.7296 479.992 92.6798 479.979C92.3676 479.895 92.1814 479.575 92.2627 479.263C96.5643 463.053 101.317 448.543 101.364 448.399C101.453 448.132 101.716 447.964 101.999 448C102.28 448.037 102.492 448.268 102.508 448.549L104.16 479.381C104.179 479.704 103.93 479.979 103.607 479.998C103.282 480.024 103.009 479.767 102.991 479.444L101.509 451.791C99.8928 456.884 96.525 467.775 93.3984 479.565C93.3302 479.827 93.0916 480 92.8319 480L92.8293 479.998Z" fill="black"/>
<path d="M38.0461 479.998C38.0461 479.998 38.0225 479.998 38.0094 479.998C37.6868 479.979 37.4402 479.701 37.4612 479.379C38.7019 458.689 39.7563 440.231 40.273 431.072C40.7294 422.975 41.0048 418.015 41.0048 418.015C41.0205 417.713 41.2645 417.475 41.5635 417.462L153.838 412.541C154.001 412.533 154.158 412.596 154.274 412.709C154.389 412.822 154.452 412.979 154.449 413.142C154.449 413.244 154.195 423.45 153.946 438.075C153.691 453.149 153.529 467.059 153.466 479.418C153.466 479.74 153.201 480 152.881 480H152.878C152.555 480 152.293 479.735 152.296 479.413C152.359 467.048 152.521 453.133 152.776 438.057C152.991 425.482 153.206 416.174 153.264 413.74L42.1431 418.61C42.0618 420.09 41.81 424.588 41.4402 431.14C40.9235 440.299 39.8691 458.757 38.6284 479.449C38.6101 479.761 38.353 480 38.0435 480L38.0461 479.998Z" fill="black"/>
<path d="M162.621 257.402C164.635 257.245 174.516 277.481 205.435 276.631C236.357 275.784 261.164 241.182 261.164 241.182C261.164 241.182 271.842 223.176 279.947 216.666C288.052 210.155 289.322 209.298 289.322 209.298C289.322 209.298 291.863 212.684 289.322 216.666C286.78 220.65 279.766 228.102 279.766 228.102C279.766 228.102 287.493 232.345 284.01 241.182C280.002 251.346 268.705 250.53 268.705 250.53C268.705 250.53 245.778 352.032 151.033 303.799L162.623 257.402H162.621Z" fill="white"/>
<path d="M198.017 317.389C183.667 317.389 167.869 313.029 150.767 304.324C150.523 304.201 150.397 303.925 150.466 303.66L162.056 257.263C162.117 257.019 162.327 256.841 162.578 256.82C163.281 256.768 163.958 257.518 165.437 259.165C170.146 264.416 181.17 276.723 205.424 276.046C235.703 275.217 260.445 241.185 260.692 240.841C261.101 240.146 271.49 222.711 279.585 216.209C287.616 209.759 288.946 208.847 288.998 208.812C289.258 208.637 289.607 208.697 289.796 208.946C289.825 208.983 292.547 212.705 289.822 216.983C287.637 220.406 282.313 226.231 280.676 227.994C282.512 229.295 287.585 233.733 284.56 241.4C280.957 250.533 271.59 251.128 269.219 251.131C269.201 251.131 269.185 251.131 269.169 251.131C268.605 253.389 265.898 263.508 259.926 275.047C253.686 287.104 242.499 303.235 224.653 311.616C216.446 315.469 207.554 317.391 198.022 317.391L198.017 317.389ZM151.714 303.487C179.662 317.617 204.031 319.993 224.149 310.548C257.765 294.769 268.036 250.842 268.136 250.399C268.199 250.116 268.464 249.922 268.749 249.945C269.193 249.977 279.669 250.601 283.467 240.967C286.724 232.705 279.784 228.778 279.488 228.616C279.328 228.529 279.22 228.372 279.191 228.193C279.162 228.015 279.218 227.831 279.343 227.7C279.414 227.627 286.352 220.243 288.833 216.351C290.585 213.602 289.691 211.16 289.158 210.148C288.275 210.811 285.961 212.592 280.319 217.125C272.393 223.493 261.78 241.305 261.673 241.484C261.395 241.875 236.312 276.374 205.455 277.219C204.808 277.237 204.165 277.245 203.535 277.245C180.071 277.245 169.254 265.179 164.564 259.947C163.992 259.309 163.407 258.659 163.006 258.286L151.714 303.49V303.487Z" fill="black"/>
<path d="M9.37012 303.799C9.37012 303.799 18.65 243.907 51.4315 229.172C84.2129 214.436 128.564 216.484 140.795 223.844C153.025 231.204 184.902 264.476 184.902 264.476L156.734 303.802C156.734 303.802 163.171 409.661 158.082 437.606C158.082 437.606 126.746 441.259 113.456 436.027C100.166 430.791 56.4649 423.46 35.5758 433.055L39.3712 299.031L9.37012 303.799Z" fill="black"/>
<path d="M135.955 439.447C127.664 439.447 118.901 438.796 113.241 436.57C100.129 431.405 56.7611 423.966 35.8196 433.587C35.636 433.671 35.4209 433.656 35.253 433.543C35.0852 433.43 34.9855 433.241 34.9907 433.037L38.7678 299.721L9.46174 304.379C9.27814 304.411 9.08929 304.348 8.95552 304.216C8.82175 304.085 8.76142 303.896 8.79027 303.71C8.81388 303.561 11.1929 288.484 17.5587 271.802C23.4525 256.356 34.0727 236.33 51.19 228.637C65.9256 222.014 84.6114 218.106 103.806 217.636C120.037 217.237 134.675 219.477 141.096 223.341C153.254 230.656 184.021 262.706 185.324 264.067C185.518 264.269 185.542 264.584 185.377 264.812L157.33 303.967C157.647 309.266 163.593 410.597 158.657 437.703C158.61 437.957 158.405 438.151 158.148 438.18C157.411 438.267 147.111 439.442 135.955 439.442V439.447ZM63.9768 427.78C83.7458 427.78 105.104 432.105 113.671 435.478C125.833 440.268 153.768 437.48 157.581 437.071C162.46 408.869 156.212 304.888 156.149 303.836C156.141 303.702 156.178 303.569 156.257 303.458L184.141 264.529C180.689 260.949 151.845 231.176 140.493 224.346C134.248 220.589 119.861 218.418 103.835 218.809C84.7924 219.275 66.2666 223.147 51.6726 229.707C21.5928 243.228 11.3424 295.959 10.0834 303.094L39.2792 298.451C39.4523 298.422 39.6281 298.475 39.7566 298.59C39.8878 298.706 39.9612 298.874 39.956 299.047L36.1868 432.142C43.6123 428.976 53.5716 427.78 63.9741 427.78H63.9768Z" fill="white"/>
<path d="M64.3704 406.018C64.0924 406.018 63.8432 405.818 63.7934 405.532C63.7383 405.215 63.9507 404.911 64.2681 404.853C90.4161 400.231 106.626 388.549 115.62 379.56C125.346 369.839 128.934 361.134 128.971 361.047C129.091 360.746 129.435 360.604 129.734 360.725C130.033 360.845 130.18 361.186 130.056 361.488C130.02 361.577 126.34 370.503 116.449 380.389C107.337 389.496 90.9223 401.333 64.4727 406.007C64.4386 406.012 64.4045 406.015 64.3704 406.015V406.018Z" fill="black"/>
<path d="M154.361 345.661H90.5684L110.55 274.404H174.342L154.361 345.661Z" fill="white"/>
<path d="M154.361 346.246H90.5687C90.3851 346.246 90.212 346.16 90.1018 346.015C89.9916 345.868 89.9549 345.68 90.0048 345.504L109.986 274.247C110.057 273.995 110.288 273.819 110.55 273.819H174.343C174.526 273.819 174.699 273.906 174.809 274.05C174.92 274.197 174.956 274.386 174.906 274.561L154.925 345.819C154.854 346.07 154.623 346.246 154.361 346.246ZM91.3398 345.076H153.915L173.569 274.992H110.993L91.3398 345.076Z" fill="black"/>
<path d="M13.4675 303.149L46.6764 297.334C46.6764 297.334 42.7342 344.303 108.053 319.041C108.053 319.041 105.645 312.012 105.984 303.799C106.325 295.587 111.237 303.534 111.924 310.207C112.612 316.88 127.948 314.173 137.165 311.542C146.382 308.911 158.479 310.635 137.165 322.391C115.851 334.147 111.182 328.903 111.182 328.903C111.182 328.903 83.964 366.988 50.0993 358.899C8.44456 348.948 13.4675 303.152 13.4675 303.152V303.149Z" fill="white"/>
<path d="M59.5625 360.596C56.4439 360.596 53.236 360.247 49.9652 359.466C28.1791 354.262 19.2559 339.191 15.6048 327.463C11.6625 314.8 12.8743 303.199 12.8848 303.083C12.9137 302.824 13.1104 302.616 13.3674 302.569L46.5764 296.754C46.7521 296.723 46.9384 296.775 47.0721 296.898C47.2059 297.022 47.2767 297.2 47.261 297.378C47.2479 297.531 46.1279 312.628 56.9684 320.738C67.0825 328.305 84.0266 327.616 107.329 318.69C106.773 316.877 105.11 310.795 105.401 303.773C105.443 302.782 105.566 299.765 107.276 299.713C107.289 299.713 107.303 299.713 107.313 299.713C109.498 299.713 112.032 305.517 112.509 310.144C112.611 311.128 113.078 311.891 113.941 312.473C117.841 315.115 128.803 313.318 137.005 310.976C141.506 309.69 148.349 309.103 149.469 311.815C150.476 314.257 146.544 317.882 137.448 322.9C119.559 332.767 113.083 330.787 111.305 329.719C109.76 331.768 103.276 340.012 93.7 347.395C85.4063 353.79 73.3408 360.594 59.5651 360.594L59.5625 360.596ZM14.0101 303.647C13.837 305.853 13.2809 316.09 16.7327 327.154C21.9156 343.768 33.1889 354.254 50.2354 358.327C53.4039 359.086 56.5225 359.426 59.5651 359.426C88.2836 359.429 110.461 328.903 110.704 328.562C110.807 328.418 110.972 328.326 111.15 328.319C111.337 328.311 111.502 328.381 111.62 328.515C111.659 328.555 116.467 333.142 136.881 321.879C148.572 315.429 148.643 312.893 148.385 312.269C147.746 310.716 142.473 310.64 137.327 312.109C133.033 313.334 118.607 317.053 113.285 313.449C112.134 312.67 111.481 311.6 111.344 310.268C110.841 305.389 108.284 300.888 107.324 300.888H107.313C107.153 300.893 106.67 301.444 106.573 303.826C106.24 311.833 108.588 318.782 108.611 318.852C108.714 319.149 108.562 319.477 108.268 319.589C84.2915 328.861 66.794 329.564 56.2603 321.675C46.3298 314.236 45.9836 301.281 46.0623 298.037L14.0153 303.65L14.0101 303.647Z" fill="black"/>
<path d="M101.17 201.875C98.3815 204.427 92.9284 207.546 88.6609 205.397C85.4845 203.797 83.7088 199.653 83.819 194.903C82.3475 195.024 80.4197 194.919 79.0426 193.704C76.9233 191.832 77.3193 188.388 77.4033 186.121C77.7862 175.672 71.7141 174.066 73.2013 166.977C74.3685 161.403 78.7462 158.082 79.5646 157.461C83.6983 154.326 86.497 155.336 93.4478 153.516C105.141 150.452 105.513 145.414 113.217 145.39C113.663 145.39 124.147 145.505 127.706 152.747C130.599 158.638 127.221 165.799 123.724 169.56C119.2 174.431 115.95 172.023 111.407 176.11C103.433 183.281 109.453 194.287 101.167 201.872L101.17 201.875Z" fill="black"/>
<path d="M124.509 183.229L124.048 182.83C121.734 180.836 119.324 178.52 118.71 175.528C116.097 162.806 104.446 158.19 103.909 169.87C103.772 172.818 93.0077 172.666 94.2851 175.758C97.6162 183.824 97.6897 181.655 92.9894 184.627C92.4569 184.648 91.9297 184.766 91.4287 184.996C89.0183 186.119 88.1658 189.392 89.5219 192.304C90.3455 194.072 91.7986 195.289 93.3487 195.732V208.477C93.3487 213.253 90.4609 217.557 86.0386 219.365L81.7344 221.125C81.7344 221.125 101.8 234.221 122.167 219.842L119.45 218.622C114.663 216.474 111.52 211.784 111.355 206.541L111.334 204.049C112.703 204.17 114.031 204.078 115.255 203.721C120.952 202.064 122.844 195.501 121.876 187.341L124.194 186.095C125.278 185.513 125.44 184.029 124.509 183.226V183.229Z" fill="white"/>
<path d="M101.572 227.128C90.0647 227.128 81.5481 221.704 81.4169 221.618C81.2333 221.497 81.1336 221.287 81.1546 221.072C81.1756 220.854 81.3146 220.668 81.5166 220.584L85.8208 218.824C90.0411 217.098 92.769 213.038 92.769 208.479V196.159C91.1742 195.567 89.7867 194.247 88.9972 192.556C88.2837 191.024 88.1054 189.345 88.5015 187.834C88.9054 186.281 89.8601 185.088 91.1873 184.469C91.6883 184.236 92.2339 184.094 92.8109 184.052C93.6057 183.556 94.2562 183.207 94.7834 182.927C95.746 182.413 96.0581 182.224 96.0844 181.961C96.1289 181.516 95.7014 180.532 94.9932 178.903C94.6496 178.114 94.2352 177.156 93.7499 175.984C93.5454 175.491 93.5532 174.998 93.7657 174.56C94.3637 173.332 96.4909 172.737 98.7414 172.105C100.764 171.538 103.284 170.832 103.329 169.844C103.615 163.611 106.823 162.688 108.189 162.581C112.21 162.269 117.579 167.082 119.287 175.409C119.872 178.258 122.251 180.503 124.433 182.386L124.895 182.782C125.477 183.286 125.776 184.044 125.692 184.807C125.608 185.573 125.152 186.247 124.475 186.612L122.505 187.672C123.476 196.645 120.905 202.691 115.423 204.285C114.353 204.597 113.183 204.729 111.929 204.676L111.945 206.538C112.103 211.509 115.143 216.049 119.693 218.09L122.411 219.309C122.602 219.396 122.733 219.577 122.754 219.787C122.775 219.997 122.681 220.201 122.51 220.322C115.224 225.465 107.94 227.126 101.574 227.126L101.572 227.128ZM83.0589 221.219C87.2634 223.517 104.013 231.28 120.976 219.952L119.208 219.16C114.251 216.938 110.938 211.991 110.768 206.562L110.744 204.057C110.744 203.892 110.812 203.734 110.933 203.622C111.053 203.509 111.213 203.451 111.381 203.47C112.727 203.59 113.975 203.485 115.087 203.163C120.045 201.72 122.306 195.981 121.288 187.415C121.259 187.176 121.38 186.942 121.592 186.83L123.911 185.584C124.255 185.4 124.475 185.072 124.52 184.684C124.562 184.296 124.417 183.929 124.123 183.674L123.662 183.278C121.333 181.269 118.791 178.859 118.133 175.651C116.601 168.191 111.804 163.486 108.273 163.753C106.041 163.929 104.661 166.169 104.491 169.901C104.407 171.735 101.805 172.464 99.0483 173.238C97.3224 173.72 95.1768 174.324 94.8096 175.076C94.765 175.168 94.7257 175.304 94.8227 175.541C95.3027 176.705 95.7171 177.657 96.0581 178.442C97.6607 182.135 97.8679 182.607 95.3263 183.965C94.7886 184.254 94.1172 184.611 93.2988 185.127C93.2122 185.182 93.1126 185.214 93.0103 185.217C92.5303 185.238 92.0818 185.342 91.6726 185.534C90.668 186.001 89.9414 186.924 89.6267 188.133C89.3014 189.382 89.451 190.777 90.0516 192.062C90.7677 193.597 92.0608 194.761 93.5086 195.173C93.7604 195.244 93.9335 195.475 93.9335 195.737V208.482C93.9335 213.521 90.9198 218.006 86.2588 219.913L83.0562 221.222L83.0589 221.219Z" fill="black"/>
<path d="M111.334 204.637C111.305 204.637 111.273 204.637 111.244 204.629C103.15 203.388 99.5199 197.222 99.3704 196.962C99.2078 196.681 99.3048 196.325 99.5855 196.165C99.8661 196.002 100.223 196.099 100.385 196.38C100.42 196.44 103.903 202.321 111.42 203.475C111.74 203.525 111.96 203.824 111.911 204.144C111.866 204.435 111.617 204.642 111.334 204.642V204.637Z" fill="black"/>
<path d="M135.868 131.298C144.258 123.615 145.026 110.798 137.583 102.67C130.14 94.5421 117.305 94.1808 108.915 101.863C100.525 109.546 99.7577 122.363 107.201 130.491C114.643 138.619 127.478 138.98 135.868 131.298Z" fill="white"/>
<path d="M122.589 137.755C114.759 137.755 107.145 133.66 103.179 126.494C99.7299 120.262 99.6853 112.821 103.066 106.589C103.221 106.306 103.575 106.198 103.861 106.353C104.147 106.508 104.252 106.862 104.097 107.148C100.91 113.026 100.952 120.047 104.207 125.928C109.61 135.69 122.169 139.428 132.202 134.261C137.094 131.74 140.648 127.515 142.214 122.361C143.753 117.288 143.174 111.913 140.579 107.229C135.176 97.4664 122.618 93.7287 112.585 98.8959C112.296 99.0454 111.945 98.9326 111.795 98.6441C111.646 98.3555 111.761 98.0041 112.047 97.8546C122.636 92.3989 135.895 96.349 141.602 106.66C144.351 111.625 144.965 117.322 143.331 122.699C141.673 128.16 137.909 132.635 132.734 135.302C129.505 136.968 126.025 137.755 122.589 137.755Z" fill="black"/>
<path d="M118.048 128.078L118.704 125.327C116.792 124.839 115.042 123.932 114.098 123.066L115.772 119.856C116.823 120.774 118.381 121.734 120.257 122.122C121.901 122.463 123.179 122.059 123.454 120.9C123.716 119.798 122.958 118.914 120.996 117.747C118.158 116.065 116.398 114.182 117.067 111.37C117.676 108.821 119.939 107.192 123.171 107.224L123.827 104.472L126.654 105.057L126.046 107.607C127.958 108.094 129.159 108.768 130.001 109.427L128.385 112.527C127.711 112.052 126.544 111.113 124.467 110.683C122.591 110.295 121.794 110.98 121.6 111.793C121.372 112.747 122.237 113.566 124.467 115.001C127.609 116.928 128.613 118.806 127.992 121.414C127.378 123.992 125.036 125.818 121.581 125.71L120.878 128.663L118.051 128.078H118.048Z" fill="black"/>
<path d="M180.741 140.909C187.871 136.994 190.576 128.221 186.783 121.313C182.99 114.405 174.136 111.979 167.006 115.894C159.876 119.809 157.171 128.582 160.964 135.49C164.756 142.397 173.611 144.823 180.741 140.909Z" fill="white"/>
<path d="M173.439 143.829C171.184 143.829 168.904 143.347 166.764 142.332C163.058 140.572 160.299 137.482 158.992 133.634C157.668 129.726 157.993 125.511 159.91 121.765C163.834 114.106 173.285 110.846 180.975 114.5C185.313 116.561 188.311 121.057 188.999 126.526C189.038 126.846 188.812 127.14 188.49 127.182C188.175 127.218 187.876 126.995 187.837 126.673C187.189 121.527 184.506 117.474 180.471 115.559C173.345 112.173 164.59 115.197 160.952 122.3C159.179 125.763 158.877 129.652 160.099 133.256C161.303 136.802 163.847 139.648 167.265 141.272C174.392 144.658 183.147 141.634 186.785 134.531C186.932 134.242 187.286 134.127 187.574 134.277C187.863 134.423 187.976 134.778 187.829 135.066C184.999 140.593 179.289 143.829 173.439 143.829Z" fill="black"/>
<path d="M173.833 137.17L173.586 135.163C172.183 135.313 170.785 135.139 169.935 134.796L170.255 132.228C171.189 132.579 172.472 132.836 173.825 132.629C175.011 132.448 175.766 131.858 175.664 131.014C175.564 130.211 174.837 129.804 173.232 129.513C170.911 129.094 169.261 128.27 169.009 126.221C168.781 124.362 169.893 122.707 172.065 121.92L171.818 119.913L173.859 119.601L174.087 121.461C175.491 121.311 176.464 121.461 177.19 121.697L176.881 124.178C176.312 124.029 175.294 123.69 173.796 123.919C172.443 124.126 172.078 124.784 172.152 125.377C172.238 126.075 173.02 126.405 174.872 126.812C177.458 127.32 178.599 128.328 178.832 130.229C179.063 132.11 177.948 133.917 175.609 134.707L175.874 136.863L173.833 137.175V137.17Z" fill="black"/>
<path d="M195.581 175.934C196.949 167.105 191.125 158.874 182.571 157.548C174.018 156.223 165.975 162.305 164.607 171.133C163.239 179.961 169.063 188.192 177.617 189.518C186.17 190.844 194.213 184.762 195.581 175.934Z" fill="white"/>
<path d="M179.95 190.798C178.182 190.798 176.406 190.507 174.685 189.919C170.41 188.461 166.971 185.366 165.004 181.201C160.975 172.682 164.456 162.308 172.763 158.072C177.786 155.509 183.672 155.677 188.511 158.518C188.789 158.68 188.883 159.04 188.721 159.32C188.558 159.598 188.199 159.693 187.918 159.53C183.428 156.891 177.961 156.739 173.295 159.118C165.547 163.068 162.303 172.752 166.064 180.702C167.897 184.579 171.095 187.459 175.066 188.813C178.974 190.145 183.173 189.836 186.89 187.942C194.638 183.992 197.883 174.308 194.121 166.358C193.982 166.064 194.108 165.715 194.399 165.576C194.691 165.437 195.042 165.563 195.178 165.854C199.207 174.373 195.727 184.75 187.42 188.983C185.056 190.19 182.507 190.798 179.95 190.798Z" fill="black"/>
<path d="M183.076 182.709L182.127 180.7C180.716 181.34 179.197 181.644 178.193 181.576L177.642 178.788C178.738 178.832 180.162 178.657 181.503 177.975C182.678 177.377 183.26 176.501 182.861 175.656C182.481 174.853 181.581 174.68 179.808 174.929C177.243 175.294 175.239 175.003 174.269 172.952C173.39 171.092 173.977 168.981 175.971 167.412L175.021 165.403L177.041 164.372L177.92 166.232C179.331 165.592 180.398 165.413 181.238 165.406L181.77 168.099C181.125 168.141 179.947 168.136 178.463 168.894C177.122 169.576 176.97 170.389 177.251 170.982C177.581 171.68 178.513 171.756 180.585 171.538C183.457 171.176 184.996 171.834 185.896 173.736C186.785 175.617 186.248 177.885 184.078 179.517L185.099 181.673L183.079 182.704L183.076 182.709Z" fill="black"/>
</svg>
