<svg width="262" height="121" viewBox="0 0 262 121" fill="none" xmlns="http://www.w3.org/2000/svg">
<g clip-path="url(#clip0_1636_51534)">
<path d="M81.1065 81.9684C80.6508 81.9684 80.3471 81.9684 79.8763 81.8139C77.5829 81.3506 76.2009 81.0417 74.6669 80.7328C73.1329 80.4239 71.599 80.1149 68.8348 79.4971C67.7565 79.3427 67.149 78.5704 66.6934 77.9526C66.3896 77.6437 66.0859 77.3348 65.7669 77.0259C64.3848 75.9447 63.1546 74.7091 62.0915 73.1645V72.8556C62.0915 72.7012 62.2434 72.5467 62.3953 72.3923C65.0075 70.5388 66.5415 67.4498 66.5415 64.2062C66.5415 59.5726 63.4736 55.5569 59.0236 54.4757C58.8717 54.4757 58.7198 54.3212 58.7198 54.1668C58.7198 54.0123 58.568 53.8579 58.7198 53.7034C59.6463 50.3054 61.484 48.452 63.3217 46.5986C66.5415 43.355 70.2169 39.8026 70.2169 25.1295C70.2169 24.8206 70.5207 24.5117 70.8244 24.5117H70.9763C72.3584 24.6662 73.2696 24.9751 74.4998 25.4384C74.9555 25.5929 75.2592 25.7473 75.8819 25.9018C76.6413 26.2107 77.4159 26.2107 78.1753 26.2107C79.2536 26.2107 80.1648 25.9018 81.0913 25.4384C82.3215 24.9751 83.5517 24.5117 85.5413 24.5117H87.8498C88.1536 24.5117 88.4573 24.8206 88.4573 25.1295C88.4573 39.6482 92.1327 43.2006 95.3525 46.4441C98.1167 49.2243 100.714 51.85 100.714 60.1905C100.562 65.5963 99.0279 69.921 95.6563 74.2457C95.2006 74.8635 94.8969 75.3269 94.4261 75.7903C91.6619 79.3427 91.0544 79.806 85.5261 81.0417C84.9186 81.1961 84.4478 81.3506 83.8403 81.505C82.9138 81.6595 82.0026 81.9684 81.0761 81.9684H81.1065ZM63.4584 73.0101C64.3848 74.2457 65.448 75.3269 66.6782 76.2536C67.1338 76.5625 67.4376 77.0259 67.7565 77.3348C68.2121 77.9526 68.5311 78.416 69.2905 78.416C72.0546 78.8793 73.5886 79.1882 75.1225 79.6516C76.5046 79.9605 77.8867 80.2694 80.18 80.7328C80.4838 80.7328 80.7875 80.8872 81.1065 80.8872C82.0329 80.8872 82.7923 80.7328 83.5669 80.4239C84.1744 80.2694 84.6452 80.1149 85.4046 79.9605C90.614 78.8793 90.9329 78.5704 93.53 75.1724C93.8338 74.7091 94.2894 74.2457 94.7602 73.6279C97.98 69.4577 99.5139 65.4419 99.6658 60.3449C99.6658 52.4678 97.3573 50.151 94.6083 47.5253C91.2367 44.1273 87.3942 40.4204 87.3942 25.9018H85.7083C83.8706 25.9018 82.7923 26.3652 81.5621 26.8285C80.4838 27.2919 79.5725 27.6008 78.1904 27.6008C77.4311 27.6008 76.5046 27.4463 75.5782 27.1374C75.1225 26.983 74.6517 26.8285 74.1961 26.6741C73.1178 26.3652 72.3584 26.0563 71.2801 25.9018C71.1282 40.4204 67.4528 44.1273 64.0659 47.5253C62.3801 49.2243 60.8461 50.7688 59.9197 53.549C64.5215 55.0935 67.5894 59.4182 67.5894 64.3607C67.5894 67.6042 66.0555 70.8477 63.4432 73.0101H63.4584Z" fill="#010101"/>
<path d="M78.1907 27.601C77.4313 27.601 76.5049 27.4466 75.5785 27.1377C75.1228 26.9832 74.652 26.8288 74.1964 26.6743C72.5105 26.0565 71.5841 25.7476 69.4426 25.7476H68.0606C67.3012 25.7476 67.1341 25.2842 66.9822 24.8209C66.9822 24.6664 66.8303 24.512 66.8303 24.3575C65.6001 21.4229 66.3747 19.7239 67.1341 18.0249C67.4379 17.2527 67.8935 16.4804 68.0606 15.5537C68.0606 15.2448 68.3643 15.0903 68.6681 15.0903H70.6576C72.1916 15.0903 73.118 14.9359 74.0293 14.7814C74.7887 14.627 75.4114 14.627 76.1708 14.627C77.7047 14.627 79.3906 15.0903 82.1547 16.1715H82.3066C82.7622 16.3259 83.066 16.3259 83.3849 16.3259C83.9924 16.3259 84.6151 16.017 85.2226 15.7081C85.982 15.2448 87.0603 14.7814 88.4424 14.7814H89.5207C90.1282 14.7814 90.5991 15.0903 90.7509 15.5537C91.0547 16.3259 91.3584 16.9438 91.5103 17.4071C92.8924 20.1873 93.348 21.5774 91.2066 25.7476C91.0547 25.9021 90.9028 26.0565 90.7509 26.0565H85.6934C83.8557 26.0565 82.7774 26.5199 81.5472 26.9832C80.4689 27.1377 79.4057 27.601 78.1755 27.601H78.1907ZM69.4426 24.6819C71.736 24.6819 72.8143 24.9908 74.652 25.6086C75.1076 25.763 75.4114 25.9175 76.0341 26.0719C76.8087 26.3809 77.568 26.3809 78.3426 26.3809C79.4209 26.3809 80.3322 26.0719 81.2586 25.6086C82.4888 25.1452 83.719 24.6819 85.7086 24.6819H90.4624C92.3001 21.2839 91.8445 20.5116 90.6143 17.7315C90.3105 17.1137 90.0067 16.4958 89.6878 15.878H88.6095C87.3793 15.878 86.6199 16.3414 85.8453 16.8047C85.0859 17.2681 84.4632 17.577 83.5368 17.577C83.0812 17.577 82.6103 17.4226 82.0028 17.2681H81.851C79.2387 16.3414 77.5529 15.878 76.1708 15.878C75.5633 15.878 74.9406 16.0325 74.1812 16.0325C73.2547 16.1869 72.1916 16.3414 70.6576 16.3414H69.1237C68.8199 17.2681 68.5162 17.8859 68.1972 18.6582C67.4379 20.3572 66.8152 21.5928 67.8935 24.0641C67.8935 24.2185 68.0454 24.373 68.0454 24.5274C68.0454 24.6819 68.0454 24.6819 68.1972 24.8363H68.9566C69.1085 24.6819 69.2604 24.6819 69.4123 24.6819H69.4426Z" fill="#010101"/>
<path d="M47.9669 38.8755C47.6631 38.8755 47.3594 38.5666 47.3594 38.2577V8.1393C47.3594 7.83039 47.6631 7.52148 47.9669 7.52148H55.7885C56.0923 7.52148 56.396 7.83039 56.396 8.1393V33.1607C56.396 33.4697 56.0923 33.7786 55.7885 33.7786C55.4848 33.7786 55.181 33.4697 55.181 33.1607V8.60266H48.5896V38.2577C48.5896 38.5666 48.2858 38.8755 47.9821 38.8755H47.9669Z" fill="#010101"/>
<path d="M60.2387 8.60297H43.6841C43.3803 8.60297 43.2285 8.44851 43.0766 8.29406C42.9247 8.13961 43.0766 7.8307 43.2285 7.67625L51.6576 0.108028C51.8095 -0.0464259 52.2651 -0.0464259 52.417 0.108028L60.5424 7.67625C60.6943 7.8307 60.8462 8.13961 60.6943 8.29406C60.6943 8.60297 60.3905 8.60297 60.2387 8.60297ZM45.051 7.52179H58.7047L51.9614 1.34365L45.051 7.52179Z" fill="#010101"/>
<path d="M56.4121 75.4818C50.2762 75.4818 45.2188 70.3849 45.2188 64.2067C45.2188 58.0286 50.2762 52.9316 56.4121 52.9316C62.5479 52.9316 67.6054 58.0286 67.6054 64.2067C67.6054 70.3849 62.5479 75.4818 56.4121 75.4818ZM56.4121 54.0283C50.8838 54.0283 46.2819 58.5074 46.2819 64.2222C46.2819 69.937 50.7319 74.4161 56.4121 74.4161C62.0923 74.4161 66.5422 69.937 66.5422 64.2222C66.5422 58.5074 61.9404 54.0283 56.4121 54.0283Z" fill="#010101"/>
<path d="M85.2539 72.562C85.102 72.562 84.9501 72.4075 84.7983 72.2531C84.6464 71.9442 84.6464 71.6352 84.9501 71.4808C89.0964 68.3917 91.2378 65.766 91.5416 63.2948C91.8453 60.6691 90.0076 58.3523 88.018 55.881C85.4058 52.6375 82.3379 48.9306 83.8718 43.6792C84.0237 43.3703 84.3274 43.2158 84.6312 43.2158C84.9349 43.3703 85.0868 43.6792 85.0868 43.9881C83.7047 48.7761 86.4689 52.0197 89.0812 55.1087C91.2226 57.7344 93.2274 60.2057 92.9085 63.2948C92.6047 66.0749 90.2962 69.0095 85.8462 72.2531C85.5425 72.562 85.3906 72.562 85.2387 72.562H85.2539Z" fill="#010101"/>
<path d="M57.0199 69.7663C57.6274 69.6119 58.2501 69.4574 58.7057 68.8396C59.1614 68.3763 59.3132 67.7585 59.3132 66.9862C59.3132 66.3684 59.1614 65.905 58.8576 65.4417C58.5538 64.9783 57.9311 64.6694 57.0199 64.5149V69.7663ZM55.9568 57.719C55.3492 57.8734 54.7266 58.0279 54.4228 58.4913C53.9672 58.9546 53.8153 59.418 53.8153 60.0358C53.8153 60.6536 53.9672 61.117 54.2709 61.5803C54.5747 62.0437 55.1974 62.3526 55.9568 62.507V57.719ZM55.9568 73.0099V71.3109C55.0303 71.1564 54.4228 71.002 53.8153 70.6931C53.2078 70.3842 52.737 69.9208 52.4332 69.303C51.9776 68.6852 51.8257 67.9129 51.6738 66.9862L53.3597 66.6773C53.5115 67.604 53.6634 68.3763 54.119 68.8396C54.5747 69.4574 55.1974 69.7664 55.9568 69.9208V64.3605C55.1974 64.206 54.5747 63.8971 53.8153 63.4338C53.2078 63.1249 52.8888 62.6615 52.5851 62.1981C52.2813 61.5803 52.1295 60.9625 52.1295 60.3447C52.1295 59.1091 52.5851 58.0279 53.5115 57.2556C54.119 56.7923 55.0455 56.4834 56.1238 56.3289V55.5566H57.2021V56.3289C58.2805 56.4834 59.0399 56.7923 59.6625 57.2556C60.4219 57.8734 60.8927 58.8002 61.0446 59.8813L59.055 60.0358C58.9032 59.2635 58.7513 58.8002 58.4475 58.4913C58.1438 58.1823 57.673 57.8734 57.0655 57.719V62.8159C57.9919 62.9704 58.4475 63.2793 58.7513 63.2793C59.3588 63.5882 59.6777 63.7427 60.1334 64.206C60.4371 64.5149 60.7409 64.9783 60.8927 65.4417C61.0446 65.905 61.1965 66.3684 61.1965 66.9862C61.1965 68.2218 60.7409 69.1485 59.9663 70.0753C59.2069 70.8475 58.2805 71.3109 57.0503 71.3109V73.1643L55.9719 73.0099H55.9568Z" fill="#010101"/>
<path d="M68.3791 90.0003H50.8829C50.5791 90.0003 50.2754 89.6914 50.2754 89.3825C50.2754 89.0736 50.5791 88.7646 50.8829 88.7646H68.3639C68.6677 88.7646 68.9714 89.0736 68.9714 89.3825C68.8195 89.6914 68.6677 90.0003 68.3639 90.0003H68.3791Z" fill="#010101"/>
<path d="M61.9243 85.0569H50.8829C50.5791 85.0569 50.2754 84.748 50.2754 84.4391C50.2754 84.1302 50.5791 83.8213 50.8829 83.8213H61.9243C62.2281 83.8213 62.5318 84.1302 62.5318 84.4391C62.5318 84.748 62.2281 85.0569 61.9243 85.0569Z" fill="#010101"/>
<path d="M91.8445 85.0569H67.9239C67.6202 85.0569 67.3164 84.748 67.3164 84.4391C67.3164 84.1302 67.6202 83.8213 67.9239 83.8213H91.8445C92.1483 83.8213 92.452 84.1302 92.452 84.4391C92.452 84.748 92.1483 85.0569 91.8445 85.0569Z" fill="#010101"/>
<path d="M114.23 58.6614H106.408C106.105 58.6614 105.801 58.3525 105.801 58.0436V33.0221C105.801 32.7132 106.105 32.4043 106.408 32.4043H114.23C114.534 32.4043 114.837 32.7132 114.837 33.0221V58.0436C114.837 58.3525 114.534 58.6614 114.23 58.6614ZM107.031 57.4103H113.622V33.6245H107.031V57.4103Z" fill="#010101"/>
<path d="M196.756 16.364L204.578 16.364C204.882 16.364 205.186 16.6729 205.186 16.9818L205.186 42.0033C205.186 42.3122 204.882 42.6211 204.578 42.6211L196.756 42.6211C196.453 42.6211 196.149 42.3122 196.149 42.0033L196.149 16.9818C196.149 16.6729 196.453 16.364 196.756 16.364ZM203.955 17.6151L197.364 17.6151L197.364 41.4009L203.955 41.4009L203.955 17.6151Z" fill="#010101"/>
<path d="M118.984 33.6248H101.655C101.351 33.6248 101.199 33.4703 101.047 33.3159C100.895 33.1614 101.047 32.8525 101.199 32.698L109.947 24.8209C110.099 24.6665 110.555 24.6665 110.707 24.8209L119.136 32.698C119.288 32.8525 119.44 33.1614 119.288 33.3159C119.136 33.4703 119.288 33.6248 118.984 33.6248ZM103.189 32.4046H117.45L110.388 25.9175L103.174 32.4046H103.189Z" fill="#010101"/>
<path d="M192.002 41.4006L209.332 41.4006C209.635 41.4006 209.787 41.5551 209.939 41.7095C210.091 41.864 209.939 42.1729 209.787 42.3273L201.039 50.2045C200.887 50.3589 200.432 50.3589 200.28 50.2045L191.851 42.3273C191.699 42.1729 191.547 41.864 191.699 41.7095C191.851 41.5551 191.699 41.4006 192.002 41.4006ZM207.798 42.6208L193.536 42.6208L200.599 49.1079L207.813 42.6208L207.798 42.6208Z" fill="#010101"/>
</g>
<path d="M208.921 56.7052L208.923 56.7044C210.497 56.2593 212.141 57.1686 212.633 58.7328V58.7467L212.659 58.8378C213.112 60.438 212.162 62.1123 210.545 62.5706C210.544 62.5708 210.544 62.5709 210.543 62.571L70.7154 101.477L70.7126 101.478C69.1103 101.931 67.4347 100.98 66.9769 99.3628C66.5237 97.7623 67.4743 96.0878 69.0921 95.6298C69.0924 95.6297 69.0926 95.6296 69.0928 95.6296L208.921 56.7052Z" stroke="#333333" stroke-width="1.36364"/>
<path d="M151.387 99.8573L151.19 99.5152L143.387 85.9414L143.387 85.9406C141.801 83.1737 137.818 83.168 136.211 85.9421C136.211 85.9425 136.211 85.9428 136.21 85.9431L128.408 99.5152L120.605 113.088C120.605 113.089 120.605 113.089 120.605 113.089C119.015 115.866 121.005 119.318 124.193 119.318H155.443C158.63 119.318 160.621 115.866 159.031 113.089L151.387 99.8573ZM151.387 99.8573H151.424L159.03 113.088L151.387 99.8573Z" stroke="#333333" stroke-width="1.36364"/>
<defs>
<clipPath id="clip0_1636_51534">
<rect width="175.909" height="90" fill="white" transform="translate(43)"/>
</clipPath>
</defs>
</svg>
