<svg width="262" height="121" viewBox="0 0 262 121" fill="none" xmlns="http://www.w3.org/2000/svg">
<g clip-path="url(#clip0_1636_51500)">
<path d="M113.518 95.9184H79.7791C79.5335 95.9184 79.288 95.6728 79.0424 95.4273C78.7969 95.1817 78.7969 94.9362 78.7969 94.6906L83.757 79.221C84.0025 78.7299 84.2481 78.4844 84.7392 78.4844H108.287C108.778 78.4844 109.024 78.7299 109.27 79.221L114.23 94.6906V95.1817C114.23 95.4273 113.984 95.9184 113.493 95.9184H113.518ZM81.0314 94.1995H112.02L107.551 80.4488H85.4758L81.0068 94.1995H81.0314Z" fill="#010101"/>
<path d="M146.986 95.9184H113.517C113.272 95.9184 113.026 95.6728 112.781 95.4273C112.535 95.1817 112.535 94.9362 112.535 94.6906L117.495 79.221C117.495 78.7299 117.986 78.4844 118.477 78.4844H142.026C142.517 78.4844 142.762 78.7299 143.008 79.221L147.968 94.6906V95.1817C147.968 95.4273 147.477 95.9184 146.986 95.9184ZM114.77 94.1995H145.758L141.289 80.4488H119.214L114.745 94.1995H114.77Z" fill="#010101"/>
<path d="M180.725 95.9184H146.986C146.741 95.9184 146.495 95.6728 146.249 95.4273C146.004 95.1817 146.004 94.9362 146.004 94.6906L150.964 79.221C150.964 78.7299 151.455 78.4844 151.946 78.4844H175.494C175.985 78.4844 176.231 78.7299 176.477 79.221L181.437 94.6906V95.1817C181.437 95.4273 181.191 95.9184 180.7 95.9184H180.725ZM148.238 94.1995H179.227L174.758 80.4488H152.683L148.214 94.1995H148.238Z" fill="#010101"/>
<path d="M165.354 80.4731H131.615C131.369 80.4731 131.124 80.2275 130.878 79.982C130.633 79.7364 130.633 79.4909 130.633 79.2453L135.593 63.7757C135.593 63.2846 136.084 63.0391 136.575 63.0391H160.123C160.614 63.0391 160.86 63.2846 161.105 63.7757L166.066 79.2453V79.7364C166.066 79.982 165.82 80.4731 165.329 80.4731H165.354ZM132.867 78.4841H163.856L159.387 64.9789H137.312L132.843 78.4841H132.867Z" fill="#010101"/>
<path d="M131.369 80.4731H97.9002C97.6546 80.4731 97.4091 80.2275 97.1635 79.982C96.918 79.7364 96.918 79.4909 96.918 79.2453L101.878 63.7757C101.878 63.2846 102.369 63.0391 102.86 63.0391H126.408C126.9 63.0391 127.145 63.2846 127.391 63.7757L132.351 79.2453V79.7364C132.351 79.982 132.105 80.4731 131.369 80.4731ZM99.1279 78.4841H130.116L125.647 64.7334H103.572L99.1034 78.4841H99.1279Z" fill="#010101"/>
<path d="M148.484 64.9789H115.015C114.77 64.9789 114.524 64.7334 114.279 64.4878C114.033 64.2423 114.033 63.9967 114.033 63.7512L118.993 48.2816C118.993 47.7905 119.484 47.5449 119.975 47.5449H143.524C144.015 47.5449 144.26 47.7905 144.506 48.2816L149.466 63.7512V64.2423C149.466 64.4878 148.975 64.9789 148.484 64.9789ZM116.243 63.0145H147.231L142.762 49.2638H120.688L116.219 63.0145H116.243Z" fill="#010101"/>
<path d="M99.1283 111.388H65.6599C65.4144 111.388 65.1688 111.143 64.9233 110.897C64.6777 110.651 64.6777 110.406 64.6777 110.16L69.6378 94.6907C69.6378 94.1996 70.1289 93.9541 70.62 93.9541H94.1682C94.6593 93.9541 94.9049 94.1996 95.1504 94.6907L100.111 110.16V110.651C100.111 110.897 99.6194 111.388 99.1283 111.388ZM66.8877 109.669H97.876L93.407 95.9185H71.3567L66.8877 109.669Z" fill="#010101"/>
<path d="M132.867 111.388H99.1287C98.8831 111.388 98.6376 111.143 98.392 110.897C98.1465 110.651 98.1465 110.406 98.1465 110.16L103.107 94.6907C103.107 94.1996 103.598 93.9541 104.089 93.9541H127.637C128.128 93.9541 128.374 94.1996 128.619 94.6907L133.579 110.16V110.651C133.579 110.897 133.334 111.388 132.843 111.388H132.867ZM100.381 109.669H131.369L126.9 95.9185H104.825L100.356 109.669H100.381Z" fill="#010101"/>
<path d="M166.335 111.388H132.867C132.621 111.388 132.376 111.143 132.13 110.897C131.885 110.651 131.885 110.406 131.885 110.16L136.845 94.6907C136.845 94.1996 137.336 93.9541 137.827 93.9541H161.375C161.866 93.9541 162.112 94.1996 162.357 94.6907L167.318 110.16V110.651C167.318 110.897 166.826 111.388 166.335 111.388ZM134.095 109.669H165.083L160.614 95.9185H138.539L134.07 109.669H134.095Z" fill="#010101"/>
<path d="M199.828 111.388H166.359C166.114 111.388 165.868 111.143 165.623 110.897C165.377 110.651 165.377 110.406 165.377 110.16L170.337 94.6907C170.337 94.1996 170.828 93.9541 171.319 93.9541H194.867C195.359 93.9541 195.604 94.1996 195.85 94.6907L200.81 110.16C200.81 110.406 200.81 110.651 200.564 110.897C200.564 111.388 200.319 111.388 199.828 111.388ZM167.587 109.669H198.575L194.106 95.9185H172.031L167.562 109.669H167.587Z" fill="#010101"/>
<path d="M92.6953 73.1063H83.7573C83.2662 73.1063 82.7751 72.6152 82.7751 72.1241V44.8681H75.5805C75.0894 44.8681 74.8439 44.6225 74.8439 44.377C74.5983 44.1314 74.8439 43.6403 75.0894 43.3948L87.9808 31.3629C88.2263 31.1173 88.963 31.1173 89.2085 31.3629L101.609 43.3948C101.854 43.6403 101.854 43.8859 101.854 44.1314C101.854 44.6225 101.363 45.1136 100.872 45.1136H93.6775V72.3696C93.432 72.8607 93.1864 73.1063 92.6953 73.1063ZM84.494 71.3629H91.6886V44.1069C91.6886 43.6158 92.1797 43.1247 92.6708 43.1247H98.6131L88.4473 33.3027L78.036 43.1247H83.7328C84.2239 43.1247 84.715 43.6158 84.715 44.1069C84.4694 44.1069 84.4694 71.3629 84.4694 71.3629H84.494Z" fill="#010101"/>
<path d="M177.998 67.6801C172.547 67.6801 168.078 63.2602 168.078 57.8581C168.078 52.456 172.547 48.0361 177.998 48.0361C183.45 48.0361 187.919 52.456 187.919 57.8581C187.919 63.2602 183.45 67.6801 177.998 67.6801ZM177.998 49.7795C173.529 49.7795 169.822 53.4628 169.822 57.8827C169.822 62.3025 173.529 65.9858 177.998 65.9858C182.467 65.9858 186.175 62.3025 186.175 57.8827C186.175 53.2172 182.467 49.7795 177.998 49.7795Z" fill="#010101"/>
<path d="M178.49 60.5592C178.736 60.5592 178.981 60.3136 179.227 60.0681C179.472 59.8225 179.472 59.577 179.472 59.3314C179.472 59.0859 179.472 58.8403 179.227 58.5948C178.981 58.3492 178.736 58.3492 178.49 58.1037V60.5592ZM177.508 54.4204C177.262 54.4204 177.017 54.666 177.017 54.9115C176.771 54.9115 176.771 55.1571 176.771 55.4026C176.771 55.6482 176.771 55.8937 177.017 55.8937C177.017 56.1393 177.262 56.1393 177.508 56.3848V54.4204ZM177.508 60.5592V58.1037C176.771 57.8581 176.28 57.6126 175.765 57.1215C175.519 56.6304 175.273 56.1393 175.273 55.4026C175.273 54.666 175.519 54.1749 175.765 53.6838C176.256 53.1927 176.747 52.9472 177.262 52.9472V52.4561H177.999V52.9472C178.736 52.9472 179.227 53.1927 179.497 53.6838C179.742 53.9294 179.988 54.4205 180.234 55.1571L179.251 55.4026C179.251 54.9116 179.006 54.666 178.515 54.4204V56.6304C179.497 56.8759 180.013 57.1215 180.504 57.6126C180.749 58.1037 180.995 58.5948 180.995 59.0859C180.995 59.8225 180.749 60.3136 180.258 60.8047C179.767 61.2958 179.276 61.5414 178.515 61.7869V62.7691H177.778V61.7869C177.041 61.7869 176.55 61.5414 176.035 61.0503C175.544 60.5592 175.298 60.0681 175.298 59.3314L176.796 59.0859C176.796 59.3314 177.041 59.577 177.041 59.8225C177.205 60.1499 177.369 60.3955 177.532 60.5592H177.508Z" fill="#010101"/>
<path d="M116.981 38.2143C111.53 38.2143 107.061 33.7944 107.061 28.3923C107.061 22.9902 111.53 18.5703 116.981 18.5703C122.432 18.5703 126.901 22.9902 126.901 28.3923C126.901 33.7944 122.432 38.2143 116.981 38.2143ZM116.981 20.3137C112.512 20.3137 108.804 23.997 108.804 28.4168C108.804 32.8367 112.512 36.52 116.981 36.52C121.45 36.52 125.158 32.8367 125.158 28.4168C125.158 23.997 121.45 20.3137 116.981 20.3137Z" fill="#010101"/>
<path d="M117.495 31.3635C117.741 31.3635 117.986 31.1179 118.232 30.8724C118.477 30.6268 118.477 30.3813 118.477 30.1357C118.477 29.8902 118.477 29.6446 118.232 29.3991C117.986 29.1535 117.741 29.1535 117.495 28.908V31.3635ZM116.734 24.9546C116.488 24.9546 116.243 25.2002 116.243 25.4457C115.997 25.6913 115.997 25.9368 115.997 26.1824C115.997 26.4279 115.997 26.6735 116.243 26.6735C116.243 26.919 116.488 26.919 116.734 27.1646V24.9546ZM116.734 31.0934V28.6379C115.997 28.3923 115.506 28.1468 114.991 27.6557C114.745 27.1646 114.499 26.6735 114.499 25.9368C114.499 25.2002 114.745 24.7091 114.991 24.218C115.482 23.7269 115.973 23.4813 116.734 23.4813V22.9902H117.471V23.4813C118.207 23.4813 118.698 23.7269 118.968 24.218C119.214 24.4635 119.46 24.9546 119.705 25.6913L118.207 25.9368C118.207 25.4457 117.962 25.2002 117.471 24.9546V27.1646C118.453 27.4101 118.968 27.6557 119.46 28.1468C119.705 28.6379 119.951 29.129 119.951 29.6201C119.951 30.3567 119.705 30.8478 119.214 31.3389C118.723 31.83 118.232 32.0756 117.471 32.3211V33.3033H116.734V32.3211C115.997 32.3211 115.506 32.0756 114.991 31.5845C114.499 31.0934 114.254 30.6023 114.254 29.8656L115.752 29.6201C115.752 29.8656 115.997 30.1112 115.997 30.3567C116.243 30.8478 116.488 31.0934 116.734 31.0934Z" fill="#010101"/>
<path d="M165.598 51.0072C165.107 51.0072 164.615 50.5161 164.615 50.025V13.168C164.615 12.6769 165.107 12.1858 165.598 12.1858H171.54L161.374 2.3638L150.963 12.1858H156.66C157.151 12.1858 157.642 12.6769 157.642 13.168V41.4062C157.642 41.8973 157.151 42.3884 156.66 42.3884C156.169 42.3884 155.677 41.8973 155.677 41.4062V14.1747H148.483C147.992 14.1747 147.746 13.9292 147.746 13.6836C147.501 13.4381 147.746 12.947 147.992 12.7014L160.883 0.669514C161.129 0.423964 161.865 0.423964 162.111 0.669514L174.511 12.7014C174.757 12.947 174.757 13.4381 174.757 13.6836C174.511 13.9292 174.266 14.1747 174.02 14.1747H166.825V50.2705C166.58 50.7616 166.089 51.0072 165.598 51.0072Z" fill="#010101"/>
<path d="M160.147 116.298H63.4256C62.9345 116.298 62.4434 115.807 62.4434 115.316C62.4434 114.825 62.9345 114.334 63.4256 114.334H160.147C160.639 114.334 161.13 114.825 161.13 115.316C161.13 115.807 160.639 116.298 160.147 116.298Z" fill="#010101"/>
<path d="M186.912 120.473H119.951C119.46 120.473 118.969 119.982 118.969 119.491C118.969 119 119.46 118.509 119.951 118.509H186.912C187.403 118.509 187.894 119 187.894 119.491C187.894 119.982 187.403 120.473 186.912 120.473Z" fill="#010101"/>
<path d="M202.309 120.473H193.886C193.395 120.473 192.904 119.982 192.904 119.491C192.904 119 193.395 118.509 193.886 118.509H202.309C202.8 118.509 203.291 119 203.291 119.491C203.291 119.982 202.8 120.473 202.309 120.473Z" fill="#010101"/>
<path d="M91.4427 120.473H59.6931C59.202 120.473 58.7109 119.982 58.7109 119.491C58.7109 119 59.202 118.509 59.6931 118.509H91.4427C91.9338 118.509 92.4249 119 92.4249 119.491C92.1793 119.982 91.9338 120.473 91.4427 120.473Z" fill="#010101"/>
<path d="M110.546 86.8326H94.6834C94.1923 86.8326 93.7012 86.3415 93.7012 85.8504C93.7012 85.3593 94.1923 84.8682 94.6834 84.8682H110.546C111.037 84.8682 111.528 85.3593 111.528 85.8504C111.528 86.3415 111.037 86.8326 110.546 86.8326Z" fill="#010101"/>
<path d="M197.593 104.021H181.73C181.239 104.021 180.748 103.53 180.748 103.039C180.748 102.548 181.239 102.057 181.73 102.057H197.593C198.084 102.057 198.575 102.548 198.575 103.039C198.575 103.53 198.084 104.021 197.593 104.021Z" fill="#010101"/>
<path d="M129.626 101.811H113.763C113.272 101.811 112.781 101.32 112.781 100.829C112.781 100.338 113.272 99.8467 113.763 99.8467H129.626C130.117 99.8467 130.608 100.338 130.608 100.829C130.608 101.566 130.117 101.811 129.626 101.811Z" fill="#010101"/>
<path d="M145.513 55.648H129.65C129.159 55.648 128.668 55.1569 128.668 54.6658C128.668 54.1747 129.159 53.6836 129.65 53.6836H145.513C146.004 53.6836 146.495 54.1747 146.495 54.6658C146.495 55.4024 146.004 55.648 145.513 55.648Z" fill="#010101"/>
</g>
<defs>
<clipPath id="clip0_1636_51500">
<rect width="144.579" height="120" fill="white" transform="translate(58.7109 0.472656)"/>
</clipPath>
</defs>
</svg>
