<svg width="196" height="92" viewBox="0 0 196 92" fill="none" xmlns="http://www.w3.org/2000/svg">
<g clip-path="url(#clip0_1636_51631)">
<path d="M151.33 27.6085C150.924 26.1703 149.437 25.3156 148.004 25.7226L46.3985 54.1191C44.9653 54.5262 44.1135 56.0186 44.5191 57.4567C44.9247 58.8949 46.412 59.7496 47.8451 59.3426L149.451 30.9596C150.884 30.5526 151.735 29.0602 151.33 27.622V27.6085Z" fill="#333333"/>
<path d="M107.809 57.1452L102.103 47.2139C100.751 44.8532 97.3579 44.8532 95.9923 47.2139L90.2867 57.1452L84.5811 67.0766C83.2291 69.4373 84.9191 72.3814 87.6367 72.3814H110.486C113.204 72.3814 114.894 69.4373 113.542 67.0766L107.836 57.1452H107.809Z" fill="#333333"/>
</g>
<defs>
<clipPath id="clip0_1636_51631">
<rect width="107" height="91" fill="white" transform="translate(44.9004 0.972656)"/>
</clipPath>
</defs>
</svg>
