<svg width="196" height="91" viewBox="0 0 196 91" fill="none" xmlns="http://www.w3.org/2000/svg">
<g clip-path="url(#clip0_1636_51589)">
<path d="M35.8281 90.237L36.1418 62.2148H26.1467L25.834 90.237H35.8281Z" fill="black"/>
<path d="M47.8112 90.472H37.8171C37.7544 90.472 37.6937 90.4465 37.6491 90.4019C37.6044 90.3572 37.581 90.2955 37.5821 90.2327L38.251 51.5316C38.2532 51.4029 38.3585 51.3008 38.4861 51.3008H48.4823C48.545 51.3008 48.6057 51.3263 48.6503 51.371C48.695 51.4156 48.7184 51.4773 48.7173 51.5401L48.0473 90.2413C48.0452 90.3699 47.9399 90.472 47.8123 90.472H47.8112Z" fill="black"/>
<path d="M59.7947 90.4728H49.8006C49.7378 90.4728 49.6772 90.4473 49.6325 90.4026C49.5879 90.3579 49.5645 90.2973 49.5645 90.2335L50.1196 54.4858C50.1217 54.3571 50.226 54.2539 50.3547 54.2539H60.3509C60.4136 54.2539 60.4743 54.2794 60.5189 54.3241C60.5636 54.3688 60.587 54.4294 60.587 54.4932L60.0297 90.2409C60.0276 90.3696 59.9233 90.4728 59.7947 90.4728Z" fill="black"/>
<path d="M71.778 90.4723H61.7839C61.7212 90.4723 61.6605 90.4468 61.6159 90.4021C61.5712 90.3575 61.5478 90.2958 61.5489 90.233L62.3997 41.307C62.4018 41.1783 62.5071 41.0762 62.6347 41.0762H72.631C72.6937 41.0762 72.7543 41.1017 72.799 41.1464C72.8437 41.191 72.8671 41.2527 72.866 41.3155L72.013 90.2415C72.0109 90.3702 71.9056 90.4723 71.778 90.4723Z" fill="black"/>
<path d="M83.7614 90.473H73.7674C73.7046 90.473 73.644 90.4474 73.5993 90.4028C73.5557 90.3581 73.5312 90.2975 73.5312 90.2337L74.5044 28.5834C74.5065 28.4547 74.6107 28.3516 74.7394 28.3516H84.7357C84.7984 28.3516 84.859 28.3771 84.9037 28.4218C84.9484 28.4664 84.9718 28.527 84.9718 28.5909L83.9976 90.2411C83.9954 90.3698 83.8912 90.473 83.7625 90.473H83.7614Z" fill="black"/>
<path d="M95.7448 90.4724H85.7507C85.688 90.4724 85.6273 90.4469 85.5827 90.4022C85.538 90.3576 85.5146 90.2959 85.5157 90.2331L86.7058 32.4456C86.7079 32.318 86.8132 32.2148 86.9408 32.2148H96.937C96.9998 32.2148 97.0604 32.2404 97.1051 32.285C97.1497 32.3297 97.1731 32.3914 97.1721 32.4541L95.9809 90.2416C95.9788 90.3692 95.8735 90.4724 95.7459 90.4724H95.7448Z" fill="black"/>
<path d="M107.954 90.4715H97.9597C97.8959 90.4715 97.8363 90.446 97.7916 90.4013C97.747 90.3567 97.7236 90.295 97.7246 90.2322L99.1753 22.9016C99.1785 22.774 99.2827 22.6719 99.4104 22.6719H109.407C109.47 22.6719 109.53 22.6974 109.575 22.7421C109.619 22.7878 109.643 22.8484 109.642 22.9122L108.189 90.2429C108.186 90.3705 108.081 90.4726 107.954 90.4726V90.4715Z" fill="black"/>
<path d="M120.161 90.4444H110.167C110.103 90.4444 110.042 90.4189 109.999 90.3731C109.954 90.3274 109.931 90.2668 109.932 90.203L111.678 19.5403C111.681 19.4126 111.785 19.3105 111.913 19.3105H121.909C121.973 19.3105 122.034 19.3361 122.077 19.3818C122.122 19.4275 122.145 19.4882 122.144 19.552L120.396 90.2147C120.393 90.3423 120.288 90.4444 120.161 90.4444Z" fill="black"/>
<path d="M132.37 90.4446H122.376C122.312 90.4446 122.251 90.4191 122.208 90.3734C122.163 90.3277 122.14 90.267 122.141 90.2032L123.323 38.4641C123.327 38.3365 123.431 38.2344 123.558 38.2344H133.555C133.618 38.2344 133.679 38.2599 133.723 38.3056C133.767 38.3514 133.791 38.412 133.79 38.4758L132.606 90.2149C132.603 90.3425 132.498 90.4446 132.371 90.4446H132.37Z" fill="black"/>
<path d="M144.583 90.4727H134.589C134.525 90.4727 134.464 90.4472 134.42 90.4014C134.375 90.3557 134.352 90.294 134.354 90.2302L135.653 49.8135C135.658 49.687 135.762 49.5859 135.888 49.5859H145.885C145.948 49.5859 146.009 49.6115 146.054 49.6572C146.098 49.7029 146.122 49.7646 146.12 49.8284L144.818 90.2451C144.814 90.3717 144.709 90.4727 144.583 90.4727Z" fill="black"/>
<path d="M156.792 90.4727H146.798C146.734 90.4727 146.673 90.4472 146.63 90.4014C146.585 90.3557 146.561 90.2951 146.563 90.2313L147.423 55.1653C147.426 55.0376 147.53 54.9355 147.658 54.9355H157.654C157.718 54.9355 157.779 54.9611 157.822 55.0068C157.867 55.0525 157.89 55.1132 157.889 55.177L157.028 90.243C157.025 90.3706 156.92 90.4727 156.793 90.4727H156.792Z" fill="black"/>
<path d="M169.001 90.4729H159.007C158.943 90.4729 158.882 90.4473 158.839 90.4016C158.794 90.3559 158.77 90.2953 158.772 90.2315L159.701 53.802C159.704 53.6744 159.808 53.5723 159.936 53.5723H169.932C169.996 53.5723 170.057 53.5978 170.1 53.6435C170.145 53.6893 170.168 53.7499 170.167 53.8137L169.237 90.2432C169.234 90.3708 169.129 90.4729 169.002 90.4729H169.001Z" fill="black"/>
<path d="M91.8088 26.6363C91.7503 26.6363 91.695 26.615 91.6514 26.5757L84.2673 19.9222C84.1705 19.835 84.163 19.6861 84.2502 19.5903C84.3375 19.4936 84.4864 19.4861 84.5821 19.5733L91.7897 26.0673L109.511 5.93554C109.553 5.88875 109.611 5.86003 109.674 5.85578C109.736 5.85152 109.799 5.87386 109.845 5.91534L119.249 14.3886L130.589 1.5059C130.675 1.40805 130.823 1.39848 130.921 1.48463C131.018 1.57077 131.028 1.71967 130.942 1.81645L119.445 14.8778C119.403 14.9246 119.345 14.9533 119.282 14.9576C119.218 14.9608 119.158 14.9395 119.111 14.898L109.707 6.42477L91.9854 26.5565C91.9439 26.6033 91.8854 26.632 91.8227 26.6363C91.8184 26.6363 91.8131 26.6363 91.8088 26.6363Z" fill="black"/>
<path d="M52.8499 48.5336C52.7914 48.5336 52.7361 48.5124 52.6925 48.473L42.2868 39.0979C42.19 39.0107 42.1826 38.8618 42.2698 38.7661C42.357 38.6693 42.5059 38.6619 42.6016 38.7491L52.8307 47.9647L77.6038 19.8223C77.6899 19.7245 77.8378 19.7149 77.9356 19.801C78.0335 19.8872 78.043 20.0361 77.9569 20.1329L53.0264 48.4539C52.9849 48.5007 52.9265 48.5294 52.8637 48.5336C52.8595 48.5336 52.8541 48.5336 52.8499 48.5336Z" fill="black"/>
<path d="M43.72 40.1732C44.3375 39.5463 44.2678 38.4765 43.5644 37.7835C42.861 37.0906 41.7902 37.037 41.1728 37.6639C40.5553 38.2907 40.6249 39.3606 41.3283 40.0535C42.0317 40.7464 43.1025 40.8 43.72 40.1732Z" fill="black"/>
<path d="M93.1263 27.5833C93.7437 26.9565 93.6741 25.8866 92.9707 25.1937C92.2673 24.5008 91.1965 24.4472 90.579 25.074C89.9615 25.7008 90.0312 26.7707 90.7346 27.4636C91.438 28.1566 92.5088 28.2101 93.1263 27.5833Z" fill="black"/>
<path d="M108.156 5.89912C108.048 4.96534 108.715 4.20703 109.645 4.20703C110.574 4.20703 111.415 4.96427 111.522 5.89912C111.629 6.83291 110.963 7.59122 110.033 7.59122C109.104 7.59122 108.263 6.83398 108.156 5.89912Z" fill="black"/>
<path d="M117.808 14.5964C117.701 13.6626 118.368 12.9043 119.297 12.9043C120.227 12.9043 121.067 13.6615 121.174 14.5964C121.282 15.5302 120.615 16.2885 119.685 16.2885C118.756 16.2885 117.916 15.5312 117.808 14.5964Z" fill="black"/>
<path d="M131.704 3.41339C132.322 2.78656 132.252 1.71669 131.549 1.02376C130.845 0.330839 129.775 0.277257 129.157 0.904085C128.54 1.53091 128.609 2.60079 129.313 3.29371C130.016 3.98664 131.087 4.04022 131.704 3.41339Z" fill="black"/>
<path d="M54.2591 49.3528C54.8766 48.726 54.8069 47.6561 54.1035 46.9632C53.4001 46.2703 52.3293 46.2167 51.7118 46.8435C51.0943 47.4704 51.164 48.5402 51.8674 49.2332C52.5708 49.9261 53.6416 49.9797 54.2591 49.3528Z" fill="black"/>
<path d="M82.1165 17.8939C82.734 17.267 82.6643 16.1972 81.9609 15.5042C81.2575 14.8113 80.1867 14.7577 79.5692 15.3846C78.9517 16.0114 79.0214 17.0813 79.7248 17.7742C80.4282 18.4671 81.499 18.5207 82.1165 17.8939Z" fill="black"/>
</g>
<defs>
<clipPath id="clip0_1636_51589">
<rect width="144.333" height="90" fill="white" transform="translate(25.834 0.472656)"/>
</clipPath>
</defs>
</svg>
