<svg width="332" height="331" viewBox="0 0 332 331" fill="none" xmlns="http://www.w3.org/2000/svg">
<path d="M120.299 1.37467L323.257 0.830078C327.797 0.830078 331.525 4.05795 331.312 7.80516L329.148 199.272C328.96 202.577 325.747 205.111 321.744 205.111H312.837L310.94 204.146L56.0234 205.077C51.4827 205.077 47.6922 201.515 47.905 197.766L50.1195 7.21368C50.307 3.90828 53.3726 1.01401 57.3777 1.01401L120.298 1.37467H120.299Z" fill="black"/>
<path d="M111.792 1.50098H314.239C318.769 1.50098 322.487 4.72704 322.276 8.47426L320.175 199.211C319.99 202.514 316.783 205.048 312.789 205.048H47.7216C43.1917 205.048 39.4734 201.822 39.6843 198.075L41.787 7.33999C41.9727 4.03639 45.1789 1.50278 49.1732 1.50278H111.792V1.50098Z" fill="white"/>
<path d="M312.788 205.448H47.7245C45.1494 205.448 42.7384 204.458 41.1082 202.734C39.8405 201.395 39.195 199.732 39.2905 198.055L41.3895 7.33467C41.5897 3.775 44.9366 1.10254 49.1743 1.10254H314.24C316.815 1.10254 319.226 2.09254 320.856 3.81647C322.124 5.15631 322.77 6.81893 322.674 8.49598L320.573 199.214C320.373 202.774 317.026 205.446 312.788 205.446V205.448ZM49.1743 1.90139C45.3658 1.90139 42.3615 4.24926 42.1866 7.36172L40.0858 198.08C40.0028 199.553 40.5709 201.005 41.6871 202.184C43.1676 203.751 45.3676 204.649 47.7245 204.649H312.79C316.599 204.649 319.603 202.302 319.778 199.189L321.879 8.47074C321.962 6.99746 321.394 5.54582 320.277 4.36647C318.797 2.79942 316.597 1.90139 314.24 1.90139H49.1743Z" fill="black"/>
<path d="M40.6251 126.187H40.6215C40.4015 126.185 40.2248 126.005 40.2266 125.785L40.7585 61.0795C40.7585 60.8595 40.9389 60.6846 41.1571 60.6846H41.1607C41.3807 60.6846 41.5574 60.8667 41.5556 61.0867L41.0236 125.792C41.0236 126.012 40.8433 126.187 40.6251 126.187Z" fill="black"/>
<path d="M304.992 23.0991H269.316C267.802 23.0991 266.532 21.8152 266.541 20.2896C266.548 18.8831 267.648 17.7812 269.048 17.7812H304.724C306.238 17.7812 307.508 19.0652 307.499 20.5908C307.492 21.9973 306.392 23.0991 304.992 23.0991Z" fill="black"/>
<path d="M304.375 55.9946H288.953C287.438 55.9946 286.169 54.7107 286.178 53.1851C286.185 51.7786 287.285 50.6768 288.684 50.6768H304.106C305.621 50.6768 306.89 51.9607 306.881 53.4863C306.874 54.8928 305.774 55.9946 304.375 55.9946Z" fill="black"/>
<path d="M304.795 33.8901H257.976C256.462 33.8901 255.192 32.6062 255.201 31.0806C255.208 29.6741 256.308 28.5723 257.708 28.5723H304.526C306.041 28.5723 307.311 29.8562 307.302 31.3818C307.294 32.7883 306.194 33.8901 304.795 33.8901Z" fill="black"/>
<path d="M304.643 44.6987H257.824C256.309 44.6987 255.04 43.4148 255.049 41.8892C255.056 40.4827 256.156 39.3809 257.555 39.3809H304.374C305.889 39.3809 307.158 40.6648 307.149 42.1904C307.142 43.5969 306.042 44.6987 304.643 44.6987Z" fill="black"/>
<path d="M71.2872 165.198L71.8192 117.686H54.8702L54.3418 165.198H71.2872Z" fill="white"/>
<path d="M91.6057 165.597H74.6603C74.5539 165.597 74.4511 165.554 74.3754 165.478C74.2996 165.402 74.26 165.298 74.2618 165.191L75.396 99.572C75.3996 99.3538 75.5782 99.1807 75.7946 99.1807H92.7436C92.85 99.1807 92.9528 99.2239 93.0285 99.2997C93.1042 99.3754 93.1439 99.48 93.1421 99.5864L92.006 165.206C92.0024 165.424 91.8239 165.597 91.6075 165.597H91.6057ZM75.066 164.8H91.2144L92.336 99.9777H76.1859L75.066 164.8Z" fill="black"/>
<path d="M111.924 165.597H94.9784C94.8721 165.597 94.7693 165.554 94.6935 165.478C94.6178 165.402 94.5781 165.3 94.5781 165.191L95.5194 104.58C95.523 104.361 95.6998 104.187 95.918 104.187H112.867C112.973 104.187 113.076 104.23 113.152 104.306C113.228 104.381 113.267 104.484 113.267 104.592L112.322 165.204C112.319 165.422 112.142 165.597 111.924 165.597ZM95.3824 164.8H111.531L112.463 104.985H96.3129L95.3842 164.8H95.3824Z" fill="black"/>
<path d="M132.242 165.597H115.297C115.191 165.597 115.088 165.554 115.012 165.478C114.936 165.402 114.897 165.298 114.898 165.191L116.341 82.2351C116.345 82.0169 116.523 81.8438 116.74 81.8438H133.689C133.795 81.8438 133.898 81.887 133.974 81.9628C134.049 82.0385 134.089 82.1431 134.087 82.2495L132.641 165.206C132.637 165.424 132.459 165.597 132.242 165.597ZM115.703 164.8H131.851L133.283 82.6408H117.133L115.703 164.8Z" fill="black"/>
<path d="M152.561 165.597H135.615C135.509 165.597 135.406 165.554 135.33 165.478C135.256 165.402 135.215 165.3 135.215 165.191L136.865 60.6607C136.868 60.4425 137.045 60.2676 137.263 60.2676H154.212C154.319 60.2676 154.422 60.3109 154.497 60.3866C154.573 60.4623 154.613 60.5651 154.613 60.6733L152.961 165.204C152.957 165.422 152.781 165.597 152.562 165.597H152.561ZM136.021 164.8H152.169L153.808 61.0682H137.658L136.021 164.8Z" fill="black"/>
<path d="M172.879 165.597H155.934C155.827 165.597 155.725 165.553 155.649 165.478C155.573 165.402 155.533 165.297 155.535 165.191L157.553 67.2097C157.557 66.9933 157.735 66.8184 157.952 66.8184H174.901C175.007 66.8184 175.11 66.8616 175.186 66.9374C175.261 67.0131 175.301 67.1177 175.299 67.2241L173.279 165.205C173.276 165.422 173.097 165.597 172.881 165.597H172.879ZM156.339 164.8H172.488L174.491 67.6172H158.341L156.339 164.8Z" fill="black"/>
<path d="M193.578 165.597H176.633C176.525 165.597 176.424 165.554 176.348 165.478C176.272 165.402 176.233 165.298 176.234 165.191L178.694 51.0292C178.7 50.8128 178.876 50.6396 179.093 50.6396H196.042C196.15 50.6396 196.251 50.6829 196.327 50.7587C196.402 50.8362 196.442 50.939 196.44 51.0472L193.977 165.209C193.971 165.426 193.795 165.599 193.578 165.599V165.597ZM177.04 164.8H193.189L195.634 51.4367H179.484L177.04 164.8Z" fill="black"/>
<path d="M214.276 165.55H197.33C197.222 165.55 197.119 165.507 197.045 165.429C196.97 165.352 196.93 165.249 196.932 165.141L199.893 45.329C199.898 45.1126 200.075 44.9395 200.291 44.9395H217.24C217.348 44.9395 217.451 44.9827 217.525 45.0603C217.601 45.1378 217.641 45.2406 217.639 45.3488L214.674 165.16C214.669 165.377 214.492 165.55 214.276 165.55ZM197.74 164.751H213.888L216.833 45.7365H200.683L197.741 164.751H197.74Z" fill="black"/>
<path d="M234.977 165.55H218.031C217.923 165.55 217.82 165.507 217.746 165.429C217.671 165.352 217.631 165.249 217.633 165.141L219.638 77.4149C219.644 77.1985 219.82 77.0254 220.037 77.0254H236.986C237.094 77.0254 237.197 77.0687 237.271 77.1462C237.346 77.2237 237.386 77.3265 237.384 77.4347L235.377 165.161C235.372 165.377 235.195 165.55 234.979 165.55H234.977ZM218.439 164.751H234.587L236.576 77.8242H220.426L218.439 164.751Z" fill="black"/>
<path d="M255.684 165.597H238.739C238.63 165.597 238.528 165.553 238.452 165.476C238.376 165.398 238.336 165.294 238.34 165.186L240.544 96.6574C240.551 96.4428 240.728 96.2715 240.942 96.2715H257.891C257.999 96.2715 258.102 96.3148 258.178 96.3923C258.254 96.4698 258.293 96.5744 258.29 96.6826L256.083 165.211C256.075 165.425 255.899 165.597 255.684 165.597ZM239.15 164.8H255.298L257.478 97.0685H241.328L239.15 164.8Z" fill="black"/>
<path d="M276.385 165.597H259.44C259.331 165.597 259.229 165.553 259.155 165.476C259.079 165.398 259.039 165.295 259.041 165.187L260.5 105.731C260.505 105.515 260.682 105.342 260.898 105.342H277.847C277.956 105.342 278.058 105.385 278.132 105.463C278.208 105.54 278.248 105.643 278.246 105.751L276.785 165.207C276.78 165.423 276.603 165.597 276.387 165.597H276.385ZM259.849 164.799H275.997L277.438 106.141H261.288L259.849 164.799Z" fill="black"/>
<path d="M297.086 165.597H280.141C280.033 165.597 279.93 165.554 279.856 165.476C279.78 165.398 279.74 165.296 279.742 165.187L281.318 103.42C281.324 103.203 281.5 103.03 281.717 103.03H298.666C298.774 103.03 298.877 103.074 298.951 103.151C299.027 103.229 299.066 103.331 299.064 103.44L297.487 165.207C297.481 165.424 297.304 165.597 297.088 165.597H297.086ZM280.55 164.8H296.698L298.256 103.829H282.106L280.55 164.8Z" fill="black"/>
<path d="M166.204 57.3607C166.105 57.3607 166.011 57.3247 165.937 57.258L153.417 45.9766C153.253 45.8288 153.24 45.5763 153.388 45.414C153.536 45.2499 153.789 45.2373 153.951 45.3852L166.172 56.396L196.22 22.2617C196.29 22.1824 196.389 22.1337 196.496 22.1265C196.6 22.1193 196.707 22.1571 196.786 22.2275L212.731 36.5942L231.957 14.7511C232.103 14.5852 232.354 14.5689 232.52 14.715C232.686 14.8611 232.702 15.1135 232.556 15.2776L213.062 37.4237C212.992 37.503 212.893 37.5517 212.786 37.5589C212.678 37.5644 212.575 37.5283 212.496 37.458L196.552 23.0912L166.503 57.2255C166.433 57.3048 166.334 57.3535 166.228 57.3607C166.22 57.3607 166.211 57.3607 166.204 57.3607Z" fill="black"/>
<path d="M100.15 94.4881C100.05 94.4881 99.9566 94.452 99.8826 94.3853L82.2394 78.4894C82.0753 78.3415 82.0626 78.089 82.2105 77.9267C82.3584 77.7626 82.6108 77.75 82.7731 77.8979L100.117 93.5233L142.121 45.8067C142.267 45.6408 142.518 45.6246 142.683 45.7707C142.849 45.9167 142.866 46.1692 142.72 46.3333L100.449 94.3528C100.379 94.4322 100.279 94.4808 100.173 94.4881C100.166 94.4881 100.157 94.4881 100.15 94.4881Z" fill="black"/>
<path d="M84.6639 80.3117C85.7109 79.2489 85.5928 77.4348 84.4002 76.26C83.2075 75.0851 81.3919 74.9942 80.3449 76.057C79.298 77.1199 79.4161 78.9339 80.6087 80.1088C81.8014 81.2836 83.6169 81.3745 84.6639 80.3117Z" fill="black"/>
<path d="M168.433 58.963C169.48 57.9002 169.362 56.0862 168.17 54.9113C166.977 53.7365 165.161 53.6456 164.114 54.7084C163.067 55.7712 163.186 57.5852 164.378 58.7601C165.571 59.935 167.386 60.0259 168.433 58.963Z" fill="black"/>
<path d="M193.922 22.2001C193.739 20.6168 194.87 19.3311 196.446 19.3311C198.022 19.3311 199.447 20.615 199.629 22.2001C199.811 23.7834 198.68 25.0691 197.104 25.0691C195.528 25.0691 194.104 23.7852 193.922 22.2001Z" fill="black"/>
<path d="M210.287 36.9462C210.105 35.3629 211.235 34.0771 212.811 34.0771C214.387 34.0771 215.812 35.3611 215.994 36.9462C216.176 38.5294 215.046 39.8152 213.47 39.8152C211.894 39.8152 210.469 38.5312 210.287 36.9462Z" fill="black"/>
<path d="M233.848 17.9826C234.894 16.9198 234.776 15.1058 233.584 13.9309C232.391 12.756 230.576 12.6651 229.529 13.7279C228.482 14.7908 228.6 16.6048 229.792 17.7797C230.985 18.9545 232.801 19.0454 233.848 17.9826Z" fill="black"/>
<path d="M102.535 95.8742C103.582 94.8114 103.464 92.9973 102.271 91.8225C101.079 90.6476 99.263 90.5567 98.216 91.6196C97.1691 92.6824 97.2871 94.4964 98.4798 95.6713C99.6725 96.8461 101.488 96.937 102.535 95.8742Z" fill="black"/>
<path d="M149.769 42.5363C150.816 41.4735 150.698 39.6595 149.506 38.4846C148.313 37.3097 146.497 37.2188 145.45 38.2817C144.403 39.3445 144.522 41.1585 145.714 42.3334C146.907 43.5083 148.722 43.5991 149.769 42.5363Z" fill="black"/>
<path d="M131.461 189.621H55.9685C54.2248 189.621 52.719 188.348 52.7425 186.893L52.8525 179.746C52.8723 178.502 54.0138 177.561 55.5051 177.561H130.998C132.741 177.561 134.247 178.834 134.224 180.289L134.114 187.435C134.094 188.68 132.952 189.621 131.461 189.621Z" fill="black"/>
<path d="M61.1651 69.6076C64.649 69.4272 68.3115 72.7813 67.4748 77.8918C66.7913 82.0664 62.3029 82.959 60.0813 85.0274C52.897 91.7194 50.5221 113.624 40.0198 119.344C31.64 123.908 16.8116 122.186 9.24688 111.817C2.0536 101.958 1.41163 88.0335 10.1738 82.0989C18.0505 76.763 22.6398 84.1762 30.9728 79.2515C39.1867 74.3953 37.5259 68.8574 42.557 66.9676C49.4384 64.3817 51.2939 70.1215 61.1669 69.6094L61.1651 69.6076Z" fill="black"/>
<path d="M73.8171 124.098C77.5048 146.68 77.9322 147.012 78.4317 149.378C78.4317 149.378 79.8942 156.028 80.2999 162.434C80.6516 167.993 79.6056 201.377 62.3519 208.727C56.1215 211.382 54.3147 206.502 41.0461 207.032C27.4494 207.575 24.6922 212.413 18.7594 210.718C5.92008 207.05 1.72565 179.502 2.43254 162.477C3.00778 148.611 9.90893 135.521 23.7076 109.338C25.8102 105.351 29.1734 99.2594 34.594 98.484C37.0789 98.1287 38.0725 98.5092 48.0465 101.248C58.8968 104.227 61.6522 101.059 66.3101 103.993C71.123 107.026 71.9706 112.795 73.8171 124.096V124.098Z" fill="white"/>
<path d="M21.2296 211.477C20.4127 211.477 19.5687 211.365 18.6491 211.102C11.243 208.985 7.20907 199.388 5.12989 191.711C2.78923 183.067 1.63153 172.131 2.03366 162.462C2.61251 148.507 9.54431 135.355 23.3556 109.154C25.24 105.576 28.7492 98.9183 34.5378 98.0906C36.8712 97.757 37.863 98.0293 45.5738 100.155L48.1525 100.866C53.5966 102.361 56.9237 102.292 59.5997 102.238C62.2271 102.184 64.1241 102.146 66.5225 103.657C71.3859 106.723 72.2912 112.273 74.0945 123.331L74.2099 124.034C77.2791 142.826 78.0797 146.162 78.5576 148.157C78.6532 148.555 78.7361 148.898 78.8191 149.297C78.8335 149.36 80.2923 156.046 80.6963 162.41C81.1723 169.933 79.4322 201.886 62.5048 209.097C59.2373 210.489 57.1094 209.883 54.1646 209.045C51.2325 208.21 47.5809 207.173 41.0584 207.432C34.1555 207.708 30.1486 209.073 26.9297 210.17C24.8037 210.895 23.0887 211.479 21.226 211.479L21.2296 211.477ZM35.9768 98.7705C35.5386 98.7705 35.122 98.8101 34.6514 98.8787C29.265 99.6487 25.8802 106.072 24.0607 109.523C10.3071 135.619 3.40235 148.718 2.83071 162.493C2.09317 180.244 6.58153 206.823 18.8673 210.334C21.6425 211.127 23.6441 210.446 26.6755 209.412C29.7699 208.358 34.0094 206.913 41.0296 206.634C47.6819 206.369 51.5553 207.47 54.3846 208.276C57.2753 209.099 59.185 209.643 62.1928 208.361C71.1461 204.547 75.4794 193.452 77.5387 184.816C79.7946 175.356 80.103 165.669 79.901 162.459C79.5025 156.158 78.0563 149.529 78.0419 149.462C77.9589 149.068 77.8778 148.732 77.784 148.341C77.3025 146.337 76.4982 142.983 73.4237 124.161L73.3082 123.457C71.5428 112.636 70.6574 107.204 66.0987 104.33C63.9023 102.947 62.1982 102.981 59.6178 103.033C56.893 103.089 53.4992 103.158 47.9433 101.632L45.3628 100.922C39.4409 99.2898 37.5564 98.7705 35.9768 98.7705Z" fill="black"/>
<path d="M54.0107 254.851V265.771L48.7559 265.452L47.7227 254.851H54.0107Z" fill="white"/>
<path d="M54.0109 266.17C54.0109 266.17 53.9946 266.17 53.9874 266.17L48.7327 265.851C48.5361 265.838 48.3792 265.687 48.3594 265.492L47.3261 254.892C47.3153 254.781 47.3513 254.669 47.4271 254.586C47.5028 254.503 47.6092 254.454 47.7228 254.454H54.0109C54.2309 254.454 54.4094 254.633 54.4094 254.853V265.773C54.4094 265.883 54.3643 265.988 54.2832 266.064C54.2092 266.134 54.1118 266.172 54.0091 266.172L54.0109 266.17ZM49.1204 265.074L53.6123 265.348V255.249H48.1628L49.1204 265.074Z" fill="black"/>
<path d="M47.9682 279.388C50.1069 279.617 53.6089 279.765 57.6897 279.063C59.0277 278.833 59.8753 277.5 59.5074 276.194C58.4831 272.555 56.4635 265.771 54.8531 262.524L53.883 264.295L53.1075 262.425C52.9741 262.203 52.7451 262.058 52.4872 262.033L49.6975 262.049C48.8698 262.046 48.8085 262.498 48.6985 262.841L48.1449 264.295L47.3803 262.325L45.9467 276.896C45.8241 278.14 46.7239 279.256 47.9664 279.39L47.9682 279.388Z" fill="white"/>
<path d="M51.622 279.978C50.1757 279.978 48.9225 279.891 47.9271 279.785C46.4736 279.63 45.4079 278.315 45.5521 276.854L46.9857 262.284C47.0038 262.1 47.1462 261.952 47.3284 261.927C47.5123 261.902 47.6872 262.006 47.7539 262.177L48.1435 263.18L48.3436 262.639C48.4482 262.293 48.6412 261.649 49.6907 261.649H49.6997L52.4857 261.633C52.9077 261.671 53.2539 261.889 53.4505 262.217C53.4613 262.233 53.4685 262.251 53.4776 262.269L53.9338 263.371L54.5036 262.329C54.5757 262.199 54.7128 262.114 54.8625 262.121C55.0103 262.125 55.1456 262.21 55.2123 262.343C56.9146 265.78 59.0533 273.098 59.8936 276.084C60.0992 276.813 59.9838 277.599 59.5798 278.239C59.1741 278.883 58.5105 279.325 57.7585 279.455C55.4972 279.844 53.4108 279.976 51.622 279.976V279.978ZM48.0118 278.991C50.1902 279.224 53.6236 279.359 57.6233 278.67C58.1516 278.58 58.6187 278.268 58.9054 277.815C59.1939 277.359 59.2715 276.822 59.1254 276.302C58.3464 273.529 56.4403 266.999 54.8282 263.404L54.2349 264.486C54.161 264.621 54.0167 264.7 53.8635 264.693C53.7102 264.684 53.5749 264.588 53.5172 264.448L52.7544 262.61C52.6859 262.509 52.5741 262.444 52.4515 262.432L49.7015 262.45C49.2326 262.452 49.1984 262.572 49.1082 262.872L49.0794 262.964L48.5185 264.439C48.459 264.594 48.313 264.695 48.1471 264.697C47.983 264.697 47.8351 264.596 47.7756 264.442L47.6151 264.031L46.3456 276.937C46.2446 277.963 46.9912 278.887 48.0118 278.995V278.991Z" fill="black"/>
<path d="M52.2321 277.504C49.4749 277.504 47.5851 276.921 47.4679 276.885C47.2587 276.818 47.1415 276.595 47.2082 276.385C47.2749 276.176 47.4985 276.059 47.7077 276.124C47.7492 276.137 51.9166 277.413 56.8395 276.119C57.0523 276.063 57.2705 276.191 57.3264 276.404C57.3823 276.616 57.2543 276.834 57.0415 276.89C55.2923 277.35 53.6477 277.504 52.2321 277.504Z" fill="black"/>
<path d="M54.8536 271.831H50.0587C49.8387 271.831 49.6602 271.653 49.6602 271.433C49.6602 271.213 49.8387 271.034 50.0587 271.034H54.8536C55.0736 271.034 55.2521 271.213 55.2521 271.433C55.2521 271.653 55.0736 271.831 54.8536 271.831Z" fill="black"/>
<path d="M15.362 249.073L13.8076 262.239L8.88281 262.068V249.073H15.362Z" fill="white"/>
<path d="M13.8075 262.64C13.8075 262.64 13.7985 262.64 13.7931 262.64L8.86832 262.468C8.65373 262.461 8.48242 262.284 8.48242 262.07V249.075C8.48242 248.855 8.66095 248.677 8.88095 248.677H15.3583C15.4719 248.677 15.5801 248.725 15.6559 248.81C15.7316 248.895 15.7677 249.009 15.7532 249.122L14.2006 262.288C14.1772 262.49 14.0059 262.64 13.8039 262.64H13.8075ZM9.28127 261.684L13.4541 261.828L14.9111 249.472H9.28127V261.684Z" fill="black"/>
<path d="M14.9784 259.097C14.9784 259.097 15.6114 264.945 15.4166 267.297C15.276 268.979 12.9678 274.063 11.664 276.818C11.1284 277.952 10.1078 278.679 8.97353 278.728C7.59221 278.787 5.66992 278.858 4.1209 278.86C1.98943 278.861 0.521558 276.438 1.28434 274.178C1.98762 272.094 3.10205 269.479 4.85664 266.696C6.17844 264.601 8.10795 258.906 8.10795 258.906H12.1221L12.9101 262.239L14.9802 259.097H14.9784Z" fill="white"/>
<path d="M4.11976 279.258C3.07386 279.258 2.10009 278.737 1.4473 277.83C0.673697 276.755 0.47173 275.343 0.908123 274.052C1.78993 271.434 3.00534 268.889 4.52189 266.484C5.80222 264.451 7.7137 258.834 7.73173 258.778C7.78583 258.616 7.93911 258.508 8.11042 258.508H12.1227C12.3085 258.508 12.4689 258.636 12.5104 258.814L13.0857 261.247L14.6473 258.877C14.7393 258.737 14.9088 258.67 15.0747 258.71C15.2388 258.749 15.3596 258.887 15.3776 259.054C15.4029 259.294 16.0124 264.967 15.8158 267.329C15.6788 268.978 13.6789 273.491 12.0271 276.99C11.4303 278.252 10.2671 279.072 8.99403 279.127C7.63616 279.186 5.68862 279.256 4.12337 279.258H4.11976ZM8.39353 259.305C7.9878 260.477 6.37566 265.038 5.19452 266.909C3.71222 269.259 2.52386 271.748 1.66189 274.306C1.30845 275.354 1.47075 276.497 2.09288 277.365C2.59419 278.061 3.33173 278.461 4.11796 278.461H4.11976C5.67058 278.461 7.6055 278.389 8.95616 278.331C9.93353 278.288 10.8334 277.644 11.3022 276.651C13.5653 271.863 14.9196 268.442 15.017 267.266C15.1558 265.597 14.8619 262.064 14.6906 260.257L13.2389 262.459C13.1506 262.592 12.9937 262.661 12.8368 262.632C12.6799 262.605 12.5555 262.486 12.5176 262.331L11.8017 259.305H8.38993H8.39353Z" fill="black"/>
<path d="M7.17888 276.752H7.17708L3.71298 276.746C3.49298 276.746 3.31445 276.568 3.31445 276.348C3.31445 276.128 3.49298 275.949 3.71298 275.949L7.17708 275.954C8.2915 275.954 9.50691 274.35 9.88199 273.731L12.1415 269.356C12.2425 269.162 12.4841 269.084 12.6789 269.185C12.8754 269.286 12.9512 269.528 12.8502 269.722L10.5763 274.121C10.4987 274.25 8.96954 276.752 7.17527 276.752H7.17888Z" fill="black"/>
<path d="M9.11358 271.995H4.72079C4.50079 271.995 4.32227 271.817 4.32227 271.597C4.32227 271.377 4.50079 271.198 4.72079 271.198H9.11358C9.33358 271.198 9.5121 271.377 9.5121 271.597C9.5121 271.817 9.33358 271.995 9.11358 271.995Z" fill="black"/>
<path d="M62.4527 145.675C62.4527 145.675 61.9297 185.858 60.24 212.018C58.5522 238.178 55.2215 258.178 55.2215 258.178C55.2215 258.178 49.4907 260.238 45.7291 259.159C45.7291 259.159 42.6148 236.212 41.9061 228.455C41.1992 220.699 43.0782 216.849 43.2351 210.501C43.3938 204.154 40.4996 176.125 40.4996 176.125C40.4996 176.125 18.8963 239.489 16.424 253.484C16.424 253.484 11.1909 254.371 7.50496 252.355C7.50496 252.355 7.38955 227.438 7.9125 223.588C8.88267 216.454 14.453 209.432 15.4538 201.855C16.4546 194.279 17.0353 175.263 19.7907 163.858C22.5461 152.452 27.9523 139.64 27.9523 139.64L62.4509 145.673L62.4527 145.675Z" fill="black"/>
<path d="M26.7528 160.597C26.5959 160.597 26.4462 160.504 26.3831 160.35C26.3002 160.147 26.3975 159.914 26.6013 159.829C29.3495 158.702 31.6577 156.856 33.4628 154.338C33.5908 154.16 33.8397 154.118 34.02 154.246C34.1985 154.374 34.24 154.623 34.112 154.803C32.2203 157.445 29.7949 159.386 26.9043 160.569C26.8556 160.588 26.8033 160.599 26.7528 160.599V160.597Z" fill="white"/>
<path d="M59.3415 160.441C59.2441 160.441 59.1449 160.405 59.0674 160.333C56.5644 157.974 56.1839 156.477 55.6574 154.405L55.5131 153.841C55.4572 153.628 55.5852 153.41 55.798 153.354C56.0108 153.298 56.229 153.426 56.2849 153.639L56.431 154.207C56.9431 156.221 57.2803 157.552 59.6156 159.75C59.7761 159.902 59.7833 160.154 59.6318 160.315C59.5525 160.398 59.4479 160.441 59.3415 160.441Z" fill="white"/>
<path d="M121.418 116.857C119.91 117.155 117.065 118.643 116.697 119.025C113.799 122.042 112.084 117.341 112.084 117.341C112.084 117.341 117.301 114.183 120.253 113.729C125.946 112.85 124.57 116.233 121.416 116.857H121.418Z" fill="white"/>
<path d="M114.806 120.433C114.662 120.433 114.517 120.418 114.373 120.388C112.656 120.025 111.747 117.58 111.71 117.475C111.645 117.297 111.715 117.097 111.877 116.998C112.094 116.868 117.197 113.795 120.192 113.333C123.828 112.772 124.439 113.952 124.533 114.486C124.731 115.618 123.339 116.882 121.492 117.248C120.03 117.537 117.258 119.014 116.982 119.3C116.257 120.054 115.527 120.435 114.804 120.435L114.806 120.433ZM112.586 117.508C112.909 118.218 113.625 119.416 114.541 119.609C115.116 119.729 115.745 119.441 116.411 118.748C116.849 118.292 119.803 116.77 121.341 116.466C122.928 116.152 123.842 115.149 123.75 114.624C123.685 114.251 122.888 113.726 120.317 114.123C117.87 114.5 113.722 116.846 112.588 117.508H112.586Z" fill="black"/>
<path d="M111.656 119.285C111.53 119.285 111.408 119.225 111.33 119.115C111.204 118.935 111.247 118.686 111.427 118.56L152.012 90.0967C152.192 89.9705 152.441 90.0137 152.567 90.1941C152.694 90.3744 152.65 90.6232 152.47 90.7495L111.885 119.212C111.815 119.261 111.736 119.285 111.656 119.285Z" fill="black"/>
<path d="M116.633 112.493C115.793 113.364 114.199 114.156 113.014 114.403C112.5 114.509 111.95 114.576 111.413 114.556C107.173 114.397 108.178 120.391 99.1305 121.809C98.8131 121.859 98.355 127.314 98.3695 128.733C102.07 127.159 106.964 123.69 109.272 124.332C113.531 125.515 114.938 123.316 115.829 122.303C118.171 119.641 115.007 117.043 115.007 117.043C115.007 117.043 115.546 116.949 117.228 116.037C119.8 114.643 120.375 108.614 116.631 112.495L116.633 112.493Z" fill="white"/>
<path d="M98.3715 129.132C98.2958 129.132 98.2182 129.111 98.1533 129.067C98.0415 128.995 97.9748 128.871 97.973 128.737C97.9658 128.014 98.0758 126.287 98.2309 124.718C98.5482 121.497 98.7448 121.465 99.0712 121.414C104.108 120.624 105.907 118.408 107.355 116.627C108.464 115.262 109.418 114.079 111.431 114.156C111.883 114.174 112.39 114.124 112.937 114.01C114.116 113.765 115.614 112.977 116.35 112.214C117.452 111.072 118.303 110.634 118.958 110.869C119.207 110.959 119.632 111.235 119.695 112.075C119.789 113.31 118.97 115.546 117.425 116.383C116.66 116.798 116.119 117.05 115.753 117.202C116.26 117.754 116.99 118.744 117.088 119.941C117.163 120.877 116.842 121.757 116.136 122.561C116.067 122.639 115.997 122.723 115.921 122.812C115.021 123.881 113.344 125.868 109.171 124.711C107.745 124.314 104.977 125.789 102.301 127.214C101.03 127.892 99.7131 128.591 98.5302 129.094C98.4797 129.116 98.4274 129.127 98.3733 129.127L98.3715 129.132ZM99.3868 122.172C99.1668 122.947 98.844 126.339 98.7809 128.115C99.7835 127.654 100.869 127.077 101.924 126.514C104.869 124.945 107.648 123.465 109.382 123.946C113.061 124.969 114.413 123.364 115.308 122.302C115.387 122.208 115.461 122.119 115.533 122.038C116.092 121.403 116.347 120.72 116.289 120.01C116.168 118.525 114.771 117.362 114.756 117.35C114.635 117.251 114.585 117.09 114.623 116.94C114.662 116.789 114.787 116.675 114.94 116.648C114.94 116.648 115.483 116.529 117.041 115.683C118.285 115.009 118.97 113.132 118.896 112.136C118.875 111.859 118.794 111.66 118.684 111.621C118.635 111.603 118.162 111.482 116.922 112.769C116.078 113.644 114.433 114.515 113.097 114.793C112.488 114.919 111.916 114.975 111.4 114.955C109.783 114.894 109.029 115.833 107.974 117.13C106.54 118.895 104.582 121.306 99.3886 122.172H99.3868Z" fill="black"/>
<path d="M111.741 121.855C111.707 121.855 111.671 121.849 111.635 121.84C110.7 121.582 110.331 120.984 110.186 120.526C109.842 119.44 110.401 118.089 111.108 117.231C111.797 116.393 112.579 115.98 113.425 115.99C114.967 116.017 116.114 117.491 116.163 117.554C116.296 117.729 116.264 117.978 116.089 118.113C115.914 118.246 115.663 118.214 115.53 118.041C115.521 118.028 114.563 116.807 113.409 116.789C112.823 116.784 112.251 117.099 111.725 117.74C111.052 118.557 110.733 119.604 110.949 120.286C111.076 120.683 111.369 120.94 111.849 121.072C112.062 121.13 112.186 121.35 112.127 121.563C112.078 121.739 111.918 121.857 111.743 121.857L111.741 121.855Z" fill="black"/>
<path d="M66.382 101.269C66.382 101.269 53.4885 99.4244 40.7971 99.0547C40.7971 99.0547 24.1095 143.625 24.1113 146.425C24.1113 149.227 32.1035 155.584 40.0289 150.526C53.2469 142.086 61.5041 144.964 68.0194 146.486C77.7823 148.767 66.382 101.267 66.382 101.267V101.269Z" fill="white"/>
<path d="M33.8022 152.822C31.1442 152.822 29.0199 151.891 27.929 151.294C25.4873 149.956 23.7129 147.909 23.7129 146.427C23.7129 143.585 39.7422 100.739 40.4239 98.9161C40.4834 98.7556 40.6385 98.651 40.8098 98.6565C53.3786 99.0225 66.3099 100.856 66.438 100.874C66.6003 100.898 66.7319 101.017 66.7698 101.176C67.1557 102.781 76.1342 140.527 70.5044 146.191C69.8155 146.883 68.9499 147.114 67.9293 146.876C67.4767 146.77 67.015 146.658 66.5444 146.544C60.2437 145.01 52.4012 143.1 40.2417 150.863C37.9444 152.329 35.7335 152.822 33.8022 152.822ZM41.0713 99.4625C36.3665 112.037 24.5099 144.204 24.5099 146.425C24.5099 147.451 25.9327 149.291 28.3112 150.593C30.0712 151.556 34.7129 153.445 39.8126 150.189C52.2588 142.243 60.2834 144.196 66.7319 145.767C67.2008 145.881 67.6588 145.993 68.1096 146.097C68.8526 146.27 69.4512 146.117 69.9381 145.626C75.0234 140.509 66.8617 105.058 66.0557 101.625C64.1532 101.363 52.5004 99.8124 41.0713 99.4607V99.4625Z" fill="black"/>
<path d="M107.035 126.161C105.43 128.11 102.489 132.086 95.671 134.301C82.0328 138.728 73.6133 129.74 73.6133 129.74L74.7872 156.641C74.7872 156.641 68.198 160.545 68.198 160.201C68.198 159.857 65.3164 100.193 65.3164 100.193C65.3164 100.193 70.6361 100.278 73.0074 103.656C75.3787 107.031 84.3554 120.982 94.6738 121.149C99.3677 121.227 101.64 119.285 103.124 118.753L107.035 126.164V126.161Z" fill="white"/>
<path d="M67.3022 141.842C67.0912 141.842 66.9145 141.676 66.9037 141.461C66.058 123.856 64.9165 100.21 64.9165 100.21C64.9111 100.1 64.9526 99.9914 65.0283 99.912C65.1058 99.8327 65.214 99.7876 65.3204 99.7912C65.5458 99.7948 70.8709 99.921 73.3306 103.423C73.473 103.627 73.6407 103.868 73.8301 104.143C76.6378 108.211 85.1835 120.592 94.6778 120.747C98.1726 120.803 100.234 119.737 101.741 118.958C102.208 118.717 102.612 118.507 102.986 118.374C103.173 118.307 103.38 118.388 103.472 118.563L107.384 125.975C107.459 126.117 107.441 126.29 107.339 126.415L107.057 126.759C105.407 128.784 102.338 132.555 95.7886 134.681C93.0783 135.561 90.5627 135.914 88.2744 135.914C80.8953 135.914 75.8516 132.243 74.0501 130.692L74.4414 139.653C74.4504 139.873 74.2809 140.058 74.0609 140.069C73.8517 140.08 73.6552 139.909 73.6444 139.689L73.2116 129.758C73.2044 129.592 73.3017 129.437 73.455 129.374C73.6083 129.309 73.7868 129.347 73.9004 129.468C73.9834 129.556 82.3199 138.214 95.5434 133.922C101.869 131.868 104.843 128.216 106.441 126.254L106.556 126.114L102.937 119.256C102.688 119.368 102.412 119.51 102.107 119.667C100.614 120.439 98.3529 121.605 94.6634 121.544C84.758 121.382 76.0373 108.746 73.1719 104.595C72.9844 104.323 72.8185 104.083 72.676 103.881C70.8276 101.248 67.0083 100.718 65.7316 100.614C65.8921 103.935 66.9199 125.234 67.6989 141.424C67.7098 141.644 67.5403 141.831 67.3203 141.842C67.313 141.842 67.3076 141.842 67.3004 141.842H67.3022Z" fill="black"/>
<path d="M82.4903 110.026H57.5582C56.7719 110.026 56.0272 110.686 55.8955 111.5L50.2369 146.429C50.1052 147.242 50.6354 147.902 51.4216 147.902H76.3537C77.14 147.902 77.8847 147.242 78.0164 146.429L83.6751 111.5C83.8067 110.686 83.2765 110.026 82.4903 110.026Z" fill="white"/>
<path d="M76.3527 148.303H51.4206C50.9337 148.303 50.5009 148.108 50.1997 147.755C49.8878 147.389 49.7579 146.882 49.8409 146.366L55.4996 111.437C55.6637 110.423 56.5671 109.628 57.5571 109.628H82.4893C82.9761 109.628 83.4089 109.823 83.7101 110.176C84.022 110.542 84.1519 111.049 84.0689 111.565L78.4102 146.494C78.2461 147.508 77.3427 148.303 76.3527 148.303ZM57.5571 110.425C56.9693 110.425 56.3886 110.946 56.2876 111.563L50.6289 146.492C50.582 146.783 50.6452 147.046 50.8075 147.237C50.9535 147.408 51.1717 147.504 51.4206 147.504H76.3527C76.9406 147.504 77.5212 146.983 77.6222 146.366L83.2809 111.437C83.3278 111.146 83.2647 110.883 83.1024 110.692C82.9563 110.521 82.7381 110.425 82.4893 110.425H57.5571Z" fill="black"/>
<path d="M53.859 124.16L53.4443 126.8C53.4136 128.001 54.4956 128.926 55.6767 128.71L62.1758 127.529C63.1766 127.347 64.1035 128.142 64.0439 129.157C64.0115 129.736 63.75 130.409 63.0323 131.106C62.6969 131.433 56.93 135.826 52.5012 135.029C52.3082 134.994 48.1589 137.328 47.9984 137.214C47.3023 136.716 46.8172 135.124 46.6621 133.782C46.6495 133.667 50.101 131.723 50.449 130.654C50.8097 129.55 50.5176 128.746 50.9539 126.863C51.4661 124.652 53.859 124.16 53.859 124.16Z" fill="white"/>
<path d="M47.9854 137.629C47.8898 137.629 47.8357 137.591 47.7654 137.539C46.9016 136.922 46.4183 135.155 46.265 133.83C46.2326 133.554 46.3317 133.489 47.0927 132.989C47.9204 132.445 49.8608 131.172 50.0699 130.531C50.2268 130.048 50.2467 129.624 50.2719 129.087C50.299 128.505 50.3314 127.78 50.5658 126.773C51.1303 124.341 53.6711 123.793 53.7793 123.769C53.9073 123.742 54.0408 123.782 54.1345 123.872C54.2301 123.962 54.2734 124.094 54.2536 124.222L53.8442 126.835C53.8406 127.276 54.0299 127.695 54.3672 127.983C54.7098 128.277 55.1606 128.4 55.606 128.319L62.105 127.138C62.7109 127.028 63.324 127.199 63.7857 127.606C64.2383 128.007 64.4799 128.58 64.4439 129.181C64.3988 129.962 64.0183 130.706 63.3114 131.393C63.2591 131.444 57.3209 136.228 52.5224 135.436C52.2627 135.541 51.4152 135.985 50.7245 136.347C48.7878 137.36 48.2414 137.627 47.989 137.627L47.9854 137.629ZM47.0837 133.952C47.255 135.186 47.6662 136.322 48.099 136.776C48.5155 136.601 49.6011 136.033 50.3531 135.642C52.3493 134.598 52.3781 134.603 52.5711 134.637C56.688 135.379 62.2529 131.309 62.7542 130.822C63.3132 130.279 63.6126 129.711 63.6468 129.134C63.6667 128.78 63.5242 128.441 63.2555 128.203C62.9778 127.958 62.6099 127.855 62.2475 127.922L55.7485 129.103C55.0668 129.228 54.3744 129.04 53.8478 128.589C53.3213 128.138 53.0291 127.484 53.0472 126.79C53.0472 126.772 53.049 126.755 53.0526 126.737L53.3663 124.737C52.6973 125.013 51.6478 125.645 51.3449 126.954C51.1285 127.89 51.0978 128.544 51.0708 129.123C51.0437 129.696 51.0221 130.192 50.8309 130.778C50.5586 131.613 49.0529 132.657 47.5345 133.655C47.3777 133.757 47.2045 133.871 47.0891 133.95L47.0837 133.952Z" fill="black"/>
<path d="M48.0609 131.926C45.1973 132.391 44.8006 133.801 41.2482 132.239C33.2416 128.721 34.7564 116.432 36.1178 110.313C36.3973 109.055 36.7472 107.83 37.1259 106.678C37.8237 104.556 29.2275 102.592 27.7055 104.227C25.8644 106.204 23.9241 108.709 22.2488 111.778C17.2609 120.915 15.638 141.364 32.3201 145.059C41.1075 147.005 48.0952 139.81 50.609 136.712C51.1842 136.003 48.8778 131.794 48.0609 131.928V131.926Z" fill="white"/>
<path d="M35.3398 145.789C34.3354 145.789 33.2985 145.683 32.2346 145.446C20.9623 142.949 18.7767 133.303 18.4792 127.774C18.4666 127.554 18.6361 127.367 18.8561 127.354C19.0743 127.342 19.2636 127.511 19.2762 127.731C19.5629 133.033 21.6493 142.283 32.4077 144.667C41.0003 146.57 47.7843 139.561 50.3016 136.459C50.3449 136.349 50.2692 135.716 49.6957 134.556C49.0231 133.197 48.3216 132.409 48.0962 132.326C47.2649 132.465 46.6392 132.688 46.0874 132.888C44.7493 133.37 43.6926 133.75 41.0887 132.607C33.6538 129.341 34.22 118.828 35.219 112.852C35.2551 112.636 35.4589 112.488 35.6789 112.524C35.8952 112.56 36.0431 112.766 36.007 112.984C35.0459 118.731 34.4707 128.829 41.4115 131.877C43.7233 132.892 44.5564 132.593 45.8187 132.138C46.4102 131.925 47.081 131.684 48.0007 131.534C48.5489 131.446 49.2269 132.104 50.0293 133.489C50.3918 134.115 51.5297 136.217 50.9238 136.964C48.621 139.802 42.8649 145.793 35.3434 145.793L35.3398 145.789Z" fill="black"/>
<path d="M54.5781 83.7123C54.8251 83.8601 55.1407 83.7556 55.2507 83.4869C55.7682 82.2156 56.5995 79.7523 58.2964 79.361C60.4712 78.8596 63.993 78.2105 64.2959 79.9308C64.561 81.4383 64.249 84.0405 65.8359 85.9249C65.9874 86.1052 65.8576 86.3956 65.6682 86.5362L64.6692 87.3783C64.4582 87.5388 64.2779 88.0762 64.2526 88.3395C64.1733 89.1582 63.333 92.0037 63.0499 92.2292C62.4981 92.6674 59.7481 92.4978 59.7481 92.4978L58.2784 98.9788C58.1954 99.2674 58.3649 99.5667 58.6535 99.6406L61.279 100.533C61.279 100.533 59.171 103.489 52.5836 103.042C48.373 102.757 45.293 99.7903 45.293 99.7903C45.293 99.7903 53.4781 98.6272 54.5835 88.9526C54.6069 88.7398 54.5167 88.5288 54.3454 88.4026C53.6926 87.9121 51.9344 86.4659 52.241 85.0016C52.5674 83.4454 53.7305 83.2092 54.5781 83.7141V83.7123Z" fill="white"/>
<path d="M53.9121 103.489C53.4811 103.489 53.0303 103.474 52.5561 103.442C48.2498 103.15 45.1446 100.205 45.0147 100.079C44.9047 99.9725 44.8651 99.8138 44.912 99.6695C44.9588 99.5253 45.0833 99.4189 45.2347 99.3972C45.5575 99.3503 53.1295 98.1494 54.1862 88.9094C54.1952 88.8372 54.1628 88.7669 54.1051 88.7218C53.1205 87.9825 51.5174 86.5038 51.851 84.9187C52.0746 83.8512 52.6264 83.4058 53.0502 83.22C53.5911 82.982 54.2223 83.0379 54.7813 83.3697C54.8047 83.3841 54.8264 83.3823 54.839 83.3769C54.857 83.3697 54.8715 83.3571 54.8805 83.3372L55.0211 82.9838C55.591 81.5484 56.4511 79.3772 58.2057 78.9715C61.2803 78.2628 63.0728 78.2249 64.0195 78.8525C64.3874 79.0959 64.6128 79.4349 64.6867 79.8605C64.757 80.259 64.7877 80.7243 64.822 81.2148C64.9157 82.6141 65.0347 84.3543 66.1402 85.6671C66.2628 85.8131 66.3169 86.0007 66.2952 86.199C66.2682 86.4443 66.1203 86.6949 65.9093 86.8554L64.9265 87.6849C64.8274 87.7715 64.6723 88.1502 64.6506 88.381C64.5875 89.0356 63.7634 92.1751 63.3 92.543C62.7572 92.974 60.9684 92.9541 60.0649 92.9144L58.6692 99.0672C58.6493 99.1376 58.6656 99.1754 58.6746 99.1935C58.6872 99.2151 58.7106 99.2422 58.7521 99.253L61.4084 100.155C61.5274 100.196 61.6211 100.29 61.659 100.411C61.6987 100.531 61.677 100.661 61.6049 100.764C61.5202 100.883 59.5925 103.487 53.9139 103.487L53.9121 103.489ZM46.1562 99.9995C47.222 100.833 49.6402 102.445 52.6102 102.645C57.3906 102.968 59.7115 101.464 60.559 100.71L58.5231 100.018C58.3085 99.9653 58.1047 99.8102 57.9803 99.5902C57.8559 99.372 57.8234 99.1087 57.8938 98.8671L59.358 92.4095C59.4013 92.2184 59.5744 92.0885 59.771 92.0994C61.1198 92.1823 62.4975 92.103 62.7806 91.9317C63.0223 91.5656 63.7761 89.1186 63.8554 88.3017C63.8843 87.9987 64.0826 87.3225 64.4288 87.061L65.4116 86.2315C65.4531 86.199 65.4802 86.163 65.4928 86.1359C64.2539 84.632 64.1277 82.7674 64.0267 81.2671C63.9943 80.7982 63.9654 80.3546 63.9023 79.9976C63.8662 79.7902 63.7634 79.6387 63.5795 79.5161C62.8618 79.04 61.1126 79.1176 58.3843 79.7469C57.039 80.0571 56.2708 81.9938 55.7623 83.2759L55.618 83.6366C55.5225 83.871 55.3313 84.0513 55.0915 84.1325C54.8534 84.2118 54.5902 84.1848 54.372 84.0549C54.0384 83.8566 53.6723 83.8169 53.3693 83.9504C53.0069 84.109 52.7508 84.5004 52.63 85.0828C52.3793 86.2784 53.9121 87.5803 54.5829 88.0835C54.8661 88.2963 55.0175 88.6479 54.9779 88.9995C54.06 97.0349 48.3057 99.3954 46.1562 99.9995Z" fill="black"/>
<path d="M222.477 259.721L188.64 290.159L94.9201 289.87C94.8227 289.87 94.774 289.764 94.8426 289.703L128.558 259.375L222.347 259.436C222.513 259.436 222.594 259.617 222.479 259.721H222.477Z" fill="white"/>
<path d="M188.639 290.557L94.9187 290.269C94.7041 290.269 94.5184 290.141 94.4445 289.946C94.3723 289.755 94.4228 289.544 94.5761 289.405L128.292 259.077C128.366 259.011 128.46 258.975 128.559 258.975L222.347 259.036C222.594 259.036 222.809 259.18 222.896 259.406C222.979 259.62 222.919 259.86 222.746 260.017L188.909 290.454C188.835 290.521 188.742 290.557 188.642 290.557H188.639ZM95.6923 289.473L188.487 289.758L221.754 259.835L128.71 259.773L95.6923 289.473Z" fill="black"/>
<path d="M222.627 259.464V299.875L188.897 330.234C188.801 330.318 188.639 330.259 188.639 330.138V290.159C188.639 290.159 222.142 259.486 222.627 259.464Z" fill="white"/>
<path d="M188.79 330.673C188.713 330.673 188.633 330.657 188.559 330.624C188.361 330.536 188.238 330.35 188.238 330.138V290.159C188.238 290.047 188.285 289.941 188.368 289.865C221.978 259.094 222.419 259.074 222.607 259.065C222.715 259.06 222.822 259.099 222.901 259.175C222.98 259.251 223.024 259.353 223.024 259.463V299.875C223.024 299.989 222.975 300.095 222.892 300.171L189.162 330.529C189.057 330.623 188.924 330.671 188.788 330.671L188.79 330.673ZM189.039 290.334V329.57L222.23 299.696V260.275C218.411 263.505 197.54 282.551 189.039 290.332V290.334Z" fill="black"/>
<path d="M188.638 330.432L94.7969 330.147C94.997 330.327 94.869 289.938 94.869 289.938L188.638 290.161C188.638 290.161 188.638 330.538 188.638 330.434V330.432Z" fill="white"/>
<path d="M188.638 330.83L94.8157 330.545C94.7147 330.547 94.6101 330.515 94.5326 330.443C94.4154 330.338 94.3721 330.174 94.419 330.024C94.5632 328.569 94.5055 300.665 94.4713 289.935C94.4713 289.829 94.5127 289.728 94.5885 289.652C94.6642 289.577 94.7544 289.546 94.8716 289.535L188.64 289.759C188.86 289.759 189.039 289.937 189.039 290.157V330.43C189.039 330.536 188.997 330.637 188.922 330.713C188.848 330.787 188.745 330.828 188.64 330.828L188.638 330.83ZM95.2214 329.748L188.24 330.031V290.558L95.2701 290.336C95.2755 292.298 95.3026 301.148 95.308 310.008C95.3116 315.838 95.308 320.488 95.2936 323.828C95.2791 327.348 95.2719 328.975 95.2214 329.748Z" fill="black"/>
<path d="M159.49 313.727C159.38 313.727 159.271 313.682 159.192 313.596C159.044 313.432 159.059 313.179 159.223 313.033L167.765 305.349C167.929 305.201 168.181 305.216 168.328 305.38C168.475 305.544 168.461 305.797 168.297 305.943L159.755 313.626C159.679 313.695 159.583 313.729 159.488 313.729L159.49 313.727Z" fill="black"/>
<path d="M330.381 220.676L296.227 251.399L203.75 251.11C203.613 251.11 203.544 250.961 203.641 250.874L237.282 220.613L330.379 220.676H330.381Z" fill="white"/>
<path d="M296.227 251.797L203.75 251.509C203.517 251.509 203.315 251.37 203.234 251.159C203.156 250.954 203.211 250.726 203.376 250.578L237.017 220.318C237.091 220.251 237.184 220.215 237.284 220.215L330.383 220.278C330.549 220.278 330.697 220.381 330.755 220.534C330.814 220.689 330.773 220.862 330.648 220.974L296.494 251.696C296.42 251.763 296.326 251.799 296.227 251.799V251.797ZM204.417 250.716L296.076 251L329.343 221.077L237.437 221.016L204.419 250.716H204.417Z" fill="black"/>
<path d="M330.381 220.706V299.34L296.744 329.613C296.614 329.73 296.393 329.647 296.393 329.481V251.4C296.393 251.4 329.896 220.726 330.381 220.704V220.706Z" fill="white"/>
<path d="M296.598 330.067C296.512 330.067 296.425 330.049 296.344 330.013C296.128 329.918 295.994 329.714 295.994 329.483V251.401C295.994 251.289 296.041 251.183 296.124 251.107C329.733 220.336 330.175 220.316 330.363 220.307C330.471 220.302 330.577 220.341 330.657 220.417C330.736 220.493 330.779 220.597 330.779 220.706V299.339C330.779 299.453 330.731 299.559 330.648 299.635L297.011 329.91C296.896 330.013 296.75 330.067 296.6 330.067H296.598ZM296.791 251.576V329.034L329.982 299.161V221.517C326.163 224.747 305.292 243.793 296.791 251.574V251.576Z" fill="black"/>
<path d="M296.392 329.671L203.523 329.386C203.724 329.566 203.596 251.178 203.596 251.178L296.394 251.401C296.394 251.401 296.394 329.775 296.394 329.671H296.392Z" fill="white"/>
<path d="M296.393 330.069L203.537 329.784C203.43 329.788 203.337 329.752 203.259 329.681C203.149 329.582 203.104 329.429 203.138 329.287C203.284 327.519 203.241 277.518 203.198 251.176C203.198 251.069 203.239 250.968 203.315 250.893C203.389 250.819 203.492 250.775 203.596 250.775L296.395 250.999C296.615 250.999 296.793 251.178 296.793 251.398V329.667C296.793 329.773 296.752 329.874 296.676 329.95C296.602 330.024 296.499 330.067 296.395 330.067L296.393 330.069ZM203.939 328.987L295.993 329.268V251.796L203.993 251.574C203.998 254.449 204.025 272.343 204.033 290.246C204.036 301.592 204.033 310.635 204.018 317.127C204.011 320.797 203.998 323.855 203.984 326.001C203.973 327.581 203.966 328.473 203.941 328.985L203.939 328.987Z" fill="black"/>
<path d="M243.037 299.184C242.927 299.184 242.818 299.139 242.739 299.052C242.591 298.888 242.606 298.636 242.77 298.49L269.662 274.301C269.826 274.153 270.079 274.167 270.225 274.331C270.372 274.495 270.358 274.748 270.194 274.894L243.302 299.083C243.226 299.151 243.13 299.186 243.035 299.186L243.037 299.184Z" fill="black"/>
<path d="M242.087 280.971C241.977 280.971 241.869 280.925 241.79 280.839C241.642 280.675 241.656 280.422 241.82 280.276L250.363 272.593C250.527 272.445 250.779 272.459 250.925 272.623C251.073 272.787 251.059 273.04 250.895 273.186L242.352 280.87C242.277 280.938 242.181 280.972 242.085 280.972L242.087 280.971Z" fill="black"/>
<path d="M314.903 141.748H214.042C212.558 141.748 211.4 143.03 211.55 144.507L221.178 239.423C221.214 239.785 221.524 240.057 221.887 240.05L227.096 239.94C227.311 239.935 227.479 239.751 227.464 239.536L221.124 151.278C221.019 149.827 222.17 148.591 223.627 148.593L305.485 148.698C306.944 148.7 308.09 149.942 307.98 151.396L301.245 239.197C301.211 239.653 301.564 240.045 302.021 240.057L306.567 240.182C306.893 240.191 307.171 239.947 307.205 239.625L317.395 144.523C317.554 143.043 316.393 141.75 314.903 141.75V141.748Z" fill="white"/>
<path d="M306.583 240.578C306.574 240.578 306.565 240.578 306.556 240.578L302.01 240.454C301.678 240.445 301.375 240.304 301.153 240.059C300.931 239.814 300.823 239.496 300.849 239.164L307.584 151.363C307.629 150.771 307.432 150.207 307.03 149.77C306.628 149.334 306.08 149.096 305.487 149.094L223.629 148.99H223.625C223.033 148.99 222.487 149.228 222.083 149.66C221.679 150.093 221.481 150.658 221.522 151.247L227.863 239.505C227.877 239.716 227.805 239.927 227.662 240.082C227.52 240.237 227.316 240.331 227.105 240.335L221.896 240.445C221.331 240.459 220.839 240.025 220.781 239.458L211.153 144.543C211.071 143.728 211.339 142.911 211.889 142.301C212.439 141.694 213.224 141.344 214.044 141.344H314.905C315.727 141.344 316.515 141.695 317.065 142.307C317.615 142.918 317.881 143.739 317.794 144.557L307.604 239.659C307.548 240.176 307.104 240.573 306.585 240.573L306.583 240.578ZM223.625 148.193H223.629L305.487 148.297C306.293 148.297 307.068 148.638 307.614 149.229C308.161 149.821 308.44 150.622 308.379 151.424L301.644 239.226C301.635 239.336 301.671 239.442 301.745 239.525C301.819 239.608 301.92 239.655 302.031 239.657L306.578 239.781C306.706 239.781 306.796 239.696 306.808 239.579L316.999 144.478C317.062 143.885 316.869 143.289 316.47 142.846C316.072 142.402 315.5 142.148 314.903 142.148H214.042C213.447 142.148 212.877 142.4 212.479 142.842C212.08 143.284 211.886 143.876 211.945 144.467L221.573 239.383C221.589 239.536 221.733 239.649 221.876 239.651L227.085 239.541L220.723 151.309C220.666 150.506 220.947 149.709 221.495 149.119C222.043 148.532 222.817 148.194 223.62 148.194L223.625 148.193Z" fill="black"/>
<path d="M296.633 147.291C296.413 147.291 296.234 147.112 296.234 146.892V142.601C296.234 142.381 296.413 142.202 296.633 142.202C296.853 142.202 297.031 142.381 297.031 142.601V146.892C297.031 147.112 296.853 147.291 296.633 147.291Z" fill="white"/>
<path d="M246.212 222.925L244.248 232.701C244.181 233.031 243.875 233.254 243.586 233.182L237.848 231.724C237.601 231.66 237.455 231.399 237.509 231.114L239.163 222.379L246.212 222.927V222.925Z" fill="white"/>
<path d="M243.698 233.595C243.628 233.595 243.557 233.586 243.487 233.568L237.749 232.11C237.295 231.994 237.022 231.534 237.116 231.038L238.77 222.303C238.808 222.103 238.991 221.966 239.192 221.981L246.241 222.529C246.354 222.538 246.459 222.595 246.527 222.686C246.596 222.776 246.623 222.893 246.601 223.005L244.639 232.78C244.583 233.06 244.416 233.305 244.181 233.453C244.032 233.547 243.866 233.595 243.7 233.595H243.698ZM239.487 222.803L237.9 231.188C237.886 231.266 237.913 231.329 237.947 231.338L243.685 232.797C243.711 232.804 243.745 232.786 243.758 232.779C243.808 232.746 243.846 232.688 243.859 232.623L245.732 223.29L239.487 222.805V222.803Z" fill="black"/>
<path d="M264.707 214.54L269.542 222.485L264.017 225.414L259.045 218.303L264.707 214.54Z" fill="white"/>
<path d="M264.016 225.813C263.89 225.813 263.766 225.753 263.69 225.643L258.718 218.533C258.657 218.444 258.634 218.336 258.653 218.23C258.673 218.123 258.735 218.032 258.825 217.972L264.487 214.209C264.577 214.149 264.687 214.127 264.795 214.151C264.902 214.174 264.994 214.241 265.05 214.333L269.884 222.28C269.942 222.374 269.956 222.487 269.927 222.594C269.899 222.7 269.826 222.789 269.729 222.841L264.204 225.769C264.144 225.8 264.081 225.816 264.018 225.816L264.016 225.813ZM259.606 218.41L264.141 224.897L268.979 222.332L264.581 215.101L259.604 218.41H259.606Z" fill="black"/>
<path d="M246.291 228.403C246.684 229.81 247.51 233.77 247.856 236.154C248.073 237.649 247.128 239.064 245.683 239.456C241.595 240.561 231.822 240.514 223.683 240.873C223.126 240.898 222.098 240.626 221.642 239.275C220.093 234.697 228.646 233.278 237.1 228.621C237.266 228.53 237.468 228.539 237.623 228.649C237.72 228.717 237.844 228.802 237.989 228.896C239.458 229.831 241.904 229.833 243.397 228.935L245.083 227.922C245.544 227.644 246.143 227.882 246.289 228.405L246.291 228.403Z" fill="white"/>
<path d="M223.615 241.273C222.803 241.273 221.736 240.79 221.267 239.403C220.071 235.865 224.237 234.06 229.51 231.777C231.784 230.793 234.362 229.676 236.91 228.273C237.215 228.106 237.577 228.126 237.857 228.326C237.951 228.392 238.068 228.474 238.207 228.56C239.536 229.406 241.821 229.42 243.195 228.594L244.881 227.581C245.209 227.384 245.6 227.352 245.954 227.493C246.309 227.635 246.572 227.927 246.677 228.299C247.084 229.759 247.908 233.723 248.253 236.098C248.498 237.786 247.438 239.396 245.788 239.841C242.701 240.676 236.604 240.858 230.148 241.05C228.002 241.113 225.784 241.179 223.701 241.271C223.672 241.271 223.644 241.273 223.613 241.273H223.615ZM237.343 228.957C237.327 228.957 237.311 228.96 237.294 228.969C234.714 230.39 232.117 231.516 229.827 232.508C224.23 234.931 221.106 236.435 222.022 239.145C222.466 240.458 223.472 240.48 223.669 240.473C225.755 240.381 227.977 240.314 230.126 240.251C236.252 240.069 242.585 239.879 245.58 239.07C246.841 238.729 247.651 237.499 247.463 236.211C247.131 233.927 246.305 229.936 245.909 228.511C245.873 228.383 245.782 228.281 245.66 228.232C245.539 228.183 245.406 228.194 245.292 228.263L243.606 229.276C241.974 230.257 239.359 230.237 237.778 229.231C237.624 229.134 237.495 229.045 237.394 228.971C237.379 228.96 237.361 228.955 237.343 228.955V228.957Z" fill="black"/>
<path d="M248.103 237.233C248.112 237.274 248.116 237.303 248.119 237.316C248.336 238.811 246.916 239.73 245.559 240.367C241.53 242.258 225.263 241.175 224.635 241.131C224.623 241.131 224.614 241.131 224.601 241.131C224.399 241.135 222.334 241.135 221.739 239.851C221.665 239.691 221.62 239.467 221.591 239.258C221.546 238.915 221.57 238.565 221.645 238.228C221.707 237.952 221.979 237.781 222.249 237.849C225.27 238.621 232.351 239.126 239.364 238.102C241.95 237.725 246.083 236.565 247.169 235.916C247.465 235.74 247.843 235.911 247.91 236.252C247.966 236.537 248.034 236.883 248.105 237.236L248.103 237.233Z" fill="white"/>
<path d="M234.824 241.874C229.789 241.874 224.976 241.555 224.608 241.529C224.347 241.529 222.075 241.524 221.377 240.016C221.296 239.84 221.236 239.609 221.197 239.308C221.146 238.931 221.168 238.538 221.256 238.137C221.31 237.896 221.456 237.692 221.666 237.564C221.871 237.438 222.115 237.4 222.349 237.461C224.967 238.13 231.887 238.788 239.307 237.705C241.835 237.335 245.914 236.199 246.964 235.571C247.213 235.422 247.519 235.404 247.784 235.521C248.051 235.64 248.244 235.883 248.302 236.172L248.495 237.156C248.506 237.207 248.511 237.241 248.513 237.257C248.776 239.073 247.048 240.108 245.727 240.729C243.806 241.63 239.229 241.876 234.822 241.876L234.824 241.874ZM224.596 240.732C224.61 240.732 224.65 240.732 224.661 240.732C230.455 241.125 242.245 241.481 245.388 240.006C247.148 239.18 247.867 238.368 247.723 237.373L247.71 237.31L247.517 236.327C247.508 236.28 247.476 236.258 247.458 236.251C247.438 236.242 247.406 236.237 247.371 236.257C246.235 236.936 242.073 238.109 239.421 238.496C232.7 239.477 225.507 239.095 222.149 238.235C222.124 238.229 222.102 238.231 222.08 238.246C222.066 238.255 222.042 238.274 222.033 238.314C221.965 238.622 221.949 238.922 221.987 239.205C222.024 239.49 222.075 239.627 222.1 239.683C222.596 240.75 224.509 240.732 224.594 240.732C224.594 240.732 224.594 240.732 224.596 240.732Z" fill="black"/>
<path d="M236.522 232.72C236.437 232.72 236.352 232.693 236.28 232.639L233.813 230.76C233.638 230.627 233.604 230.376 233.738 230.201C233.871 230.026 234.12 229.992 234.297 230.125L236.764 232.004C236.939 232.138 236.973 232.388 236.839 232.563C236.76 232.666 236.643 232.72 236.522 232.72Z" fill="black"/>
<path d="M233.242 234.065C233.159 234.065 233.074 234.04 233.002 233.986L230.844 232.366C230.667 232.235 230.631 231.984 230.764 231.807C230.896 231.631 231.147 231.595 231.323 231.728L233.482 233.347C233.658 233.479 233.695 233.73 233.561 233.906C233.484 234.011 233.363 234.065 233.242 234.065Z" fill="black"/>
<path d="M263.655 223.718L270.01 222.798L273.762 230.758C274.314 231.951 273.876 233.499 272.758 234.205C271.303 235.127 269.13 236.326 266.632 237.129C261.924 238.641 257.223 242.984 253.174 240.849C249.126 238.715 249.393 238.557 249.191 237.094C248.989 235.632 253.001 232.754 255.715 230.86C257.931 229.313 263.655 223.718 263.655 223.718Z" fill="white"/>
<path d="M255.547 241.822C254.676 241.822 253.82 241.64 252.988 241.202C249.173 239.191 249.005 238.827 248.832 237.435C248.821 237.345 248.808 237.251 248.796 237.15C248.592 235.677 251.324 233.439 255.488 230.534C257.654 229.022 263.319 223.488 263.377 223.432C263.437 223.373 263.516 223.335 263.599 223.322L269.954 222.403C270.127 222.377 270.296 222.469 270.372 222.628L274.123 230.588C274.759 231.965 274.244 233.738 272.972 234.542C271.555 235.438 269.326 236.683 266.756 237.509C265.301 237.976 263.817 238.735 262.382 239.469C260.108 240.632 257.778 241.822 255.551 241.822H255.547ZM263.841 224.094C263.065 224.85 258.032 229.729 255.944 231.188C254.326 232.317 249.407 235.749 249.586 237.04C249.6 237.144 249.613 237.244 249.624 237.337C249.753 238.39 249.78 238.61 253.36 240.497C255.948 241.86 258.894 240.354 262.016 238.758C263.48 238.01 264.993 237.236 266.509 236.748C269 235.947 271.165 234.739 272.543 233.868C273.488 233.269 273.872 231.949 273.398 230.925L269.773 223.236L263.841 224.094Z" fill="black"/>
<path d="M261.571 230.619C261.497 230.619 261.421 230.597 261.354 230.554L258.489 228.691C258.303 228.57 258.251 228.323 258.372 228.139C258.492 227.955 258.74 227.903 258.923 228.022L261.789 229.885C261.975 230.005 262.027 230.252 261.906 230.436C261.83 230.554 261.702 230.619 261.571 230.619Z" fill="black"/>
<path d="M259.53 232.754C259.456 232.754 259.381 232.732 259.314 232.689L256.449 230.826C256.265 230.705 256.212 230.458 256.331 230.274C256.452 230.088 256.699 230.038 256.883 230.157L259.749 232.02C259.933 232.141 259.985 232.388 259.866 232.572C259.79 232.689 259.662 232.754 259.53 232.754Z" fill="black"/>
<path d="M249.465 238.188C249.465 238.188 252.651 240.509 256.157 239.297C259.664 238.085 273.757 230.663 273.757 230.663L274.485 232.259C274.853 233.067 274.538 234.028 273.76 234.466C270.249 236.444 260.878 241.485 256.002 241.816C249.925 242.229 249.465 238.188 249.465 238.188Z" fill="white"/>
<path d="M255.162 242.245C249.594 242.245 249.074 238.276 249.069 238.235C249.051 238.078 249.128 237.925 249.264 237.845C249.401 237.766 249.572 237.775 249.7 237.867C249.731 237.889 252.766 240.049 256.028 238.922C259.467 237.734 273.433 230.385 273.574 230.311C273.671 230.261 273.785 230.252 273.889 230.286C273.994 230.322 274.077 230.398 274.124 230.499L274.852 232.095C275.303 233.085 274.912 234.279 273.96 234.816C270.207 236.929 260.949 241.883 256.031 242.217C255.73 242.236 255.44 242.247 255.162 242.247V242.245ZM250.176 239.072C250.717 240.13 252.162 241.679 255.977 241.418C260.731 241.095 269.863 236.204 273.568 234.118C274.162 233.784 274.407 233.04 274.126 232.423L273.572 231.211C271.269 232.419 259.506 238.561 256.289 239.674C253.761 240.549 251.426 239.708 250.176 239.072Z" fill="black"/>
<path d="M259.412 160.515C259.412 160.515 237.527 169.416 229.452 179.197C221.736 188.544 256.489 222.485 256.489 222.485C256.532 222.646 268.298 215.997 268.298 215.793L259.285 196.136C255.729 188.468 248.615 184.086 251.517 181.392C254.157 178.94 268.832 180.207 276.366 179.946C289.748 179.481 289.62 159.973 289.62 159.973L259.415 160.515H259.412Z" fill="white"/>
<path d="M256.5 222.888C256.392 222.888 256.287 222.844 256.212 222.77C254.782 221.375 221.286 188.463 229.146 178.943C237.193 169.197 259.045 160.236 259.265 160.146C259.31 160.128 259.358 160.117 259.407 160.117L289.612 159.574C289.718 159.571 289.821 159.614 289.897 159.688C289.973 159.762 290.016 159.865 290.018 159.971C290.018 160.17 289.991 179.872 276.38 180.346C274.217 180.422 271.491 180.372 268.604 180.319C261.901 180.197 253.557 180.045 251.788 181.688C250.43 182.949 251.709 184.687 254.282 187.904C256.004 190.055 258.147 192.735 259.647 195.972L268.66 215.631C268.683 215.683 268.696 215.739 268.696 215.797C268.696 216.089 268.696 216.178 262.749 219.546C260.1 221.046 256.875 222.844 256.553 222.886C256.535 222.888 256.518 222.889 256.5 222.889V222.888ZM259.496 160.914C258.143 161.473 237.456 170.131 229.759 179.452C222.644 188.072 253.896 219.359 256.585 222.022C258.069 221.315 266.312 216.645 267.801 215.671L258.922 196.304C257.461 193.155 255.353 190.519 253.658 188.4C251.211 185.341 249.28 182.925 251.244 181.102C253.247 179.241 261.061 179.383 268.616 179.52C271.493 179.573 274.208 179.623 276.351 179.548C288.144 179.136 289.131 163.145 289.212 160.379L259.494 160.912L259.496 160.914Z" fill="black"/>
<path d="M240.769 184.748C238.879 191.815 237.083 213.076 236.67 224.965C236.665 225.129 248.712 225.245 248.737 225.03C248.858 223.984 257.765 191.786 262.74 183.273C265.382 178.751 282.428 180.047 286.229 179.292C296.382 177.276 295.715 156.781 295.715 156.781L248.187 175.763C244.125 176.381 241.84 180.743 240.769 184.748Z" fill="white"/>
<path d="M245.472 225.549C244.915 225.549 244.273 225.547 243.53 225.544C241.002 225.533 237.924 225.482 236.932 225.408C236.663 225.389 236.257 225.358 236.272 224.952C236.679 213.265 238.484 191.754 240.385 184.645C241.225 181.502 243.343 176.128 248.083 175.375L295.569 156.411C295.69 156.363 295.827 156.377 295.935 156.447C296.043 156.518 296.112 156.639 296.115 156.768C296.143 157.62 296.673 177.625 286.309 179.683C285.218 179.899 283.177 179.95 280.593 180.013C274.337 180.168 264.881 180.4 263.087 183.473C258.135 191.949 249.283 223.926 249.136 225.075C249.091 225.461 249.081 225.547 245.474 225.547L245.472 225.549ZM237.082 224.622C238.838 224.75 246.917 224.797 248.403 224.685C249.205 221.18 257.677 191.148 262.396 183.071C264.416 179.614 273.753 179.383 280.571 179.216C283.016 179.156 285.128 179.104 286.152 178.9C294.927 177.158 295.333 160.671 295.324 157.367L248.336 176.132C248.307 176.143 248.278 176.152 248.247 176.156C243.923 176.814 241.947 181.886 241.155 184.851C239.287 191.835 237.511 212.897 237.082 224.622Z" fill="black"/>
<path d="M298.761 124.326C298.761 124.326 298.353 107.974 288.738 104.8C287.921 104.529 287.065 104.396 286.204 104.364L277.722 104.044C275.204 104.025 273.118 104.632 270.424 105.619C268.172 106.443 265.665 107.979 264.201 109.308C257.749 115.169 257.684 134.848 252.103 134.383C250.229 134.228 247.093 131.097 243.99 127.267C241.503 124.2 237.222 120.436 237.222 120.436L229.764 124.2C231.536 127.206 233.134 130.32 234.44 133.56C237.168 140.33 241.645 146.012 247.254 150.865C249.12 152.479 251.758 152.81 253.962 151.71C257.538 149.927 262.897 147.056 266.226 144.344C267.452 148.576 266.359 153.193 263.343 156.455C262.437 157.434 261.456 158.332 260.423 159.066C259.406 159.787 259.166 161.216 259.864 162.252C260.989 163.924 263.234 165.848 267.521 165.397C273.152 164.806 289.185 164.869 296.267 164.93C298.146 164.947 299.662 163.39 299.619 161.495L298.759 124.328L298.761 124.326Z" fill="black"/>
<path d="M266.119 144.829C266 144.829 265.883 144.777 265.805 144.676C265.67 144.503 265.7 144.252 265.874 144.115C266.833 143.365 269.751 140.657 271.282 138.412C271.406 138.229 271.655 138.182 271.835 138.307C272.017 138.431 272.064 138.678 271.94 138.861C270.358 141.178 267.352 143.969 266.366 144.743C266.292 144.801 266.205 144.828 266.121 144.828L266.119 144.829Z" fill="white"/>
<path d="M236.288 120.643L235.148 114.474C235.148 114.474 234.216 109.769 233.076 109.142C232.238 108.68 231.681 110.426 231.856 112.631C231.885 112.997 231.387 113.129 231.237 112.795C230.642 111.482 230.022 109.944 229.969 109.142C229.867 107.573 229.555 104.332 228.105 104.646C226.655 104.96 224.065 109.979 226.033 114.265C228 118.551 232.559 122.526 232.559 122.526L236.288 120.643Z" fill="white"/>
<path d="M232.56 122.924C232.466 122.924 232.372 122.89 232.299 122.827C232.109 122.663 227.653 118.748 225.671 114.433C224.368 111.594 224.972 108.448 225.973 106.45C226.588 105.222 227.352 104.403 228.023 104.257C228.385 104.178 228.733 104.255 229.029 104.477C229.77 105.036 230.198 106.511 230.369 109.117C230.405 109.669 230.782 110.776 231.437 112.26C231.381 110.893 231.584 109.304 232.344 108.814C232.629 108.63 232.958 108.623 233.272 108.796C234.511 109.477 235.38 113.583 235.543 114.4L236.682 120.575C236.715 120.75 236.628 120.923 236.469 121.004L232.74 122.887C232.683 122.915 232.621 122.93 232.56 122.93V122.924ZM228.297 105.023C228.263 105.023 228.229 105.027 228.191 105.036C227.855 105.108 227.242 105.692 226.687 106.805C225.771 108.639 225.213 111.517 226.398 114.099C228.075 117.753 231.734 121.231 232.625 122.046L235.844 120.421L234.758 114.546C234.387 112.673 233.559 109.861 232.886 109.49C232.82 109.452 232.8 109.465 232.776 109.479C232.481 109.67 232.113 110.792 232.257 112.597C232.286 112.956 232.064 113.27 231.716 113.36C231.37 113.448 231.025 113.284 230.878 112.958C230.061 111.153 229.621 109.876 229.574 109.167C229.384 106.313 228.912 105.386 228.549 105.113C228.468 105.052 228.389 105.023 228.297 105.023Z" fill="black"/>
<path d="M274.729 106.563C274.493 106.52 274.433 106.201 274.643 106.08C275.349 105.67 276.348 104.929 276.287 104.033L276.439 100.573C276.428 100.151 276.15 99.7827 275.75 99.6619L273.261 98.9063C272.877 98.7891 272.617 98.4284 272.626 98.0245L272.704 94.3548L271.498 93.3811C271.404 93.3053 271.386 93.1665 271.46 93.0709L273.204 90.7681C273.77 89.9025 274.287 87.8648 274.785 87.982C274.785 87.982 285.094 86.3573 285.924 91.4804C286.05 92.263 285.859 93.0655 285.428 93.7273L284.555 95.0653C283.679 96.4088 283.255 98.0281 283.488 99.6186C283.562 100.12 284.726 104.72 284.726 104.72C284.726 104.72 286.795 105.658 288.061 106.008C288.333 106.083 288.347 106.467 288.082 106.565L285.769 107.118C283.457 107.663 281.059 107.723 278.723 107.295L274.727 106.563H274.729Z" fill="white"/>
<path d="M281.83 107.977C280.769 107.977 279.709 107.879 278.652 107.686L274.656 106.954C274.382 106.904 274.173 106.693 274.124 106.415C274.076 106.139 274.202 105.871 274.442 105.732C275.396 105.18 275.924 104.57 275.888 104.058C275.888 104.044 275.888 104.028 275.888 104.013L276.039 100.553C276.032 100.329 275.87 100.113 275.634 100.041L273.145 99.285C272.593 99.1173 272.215 98.5943 272.227 98.0137L272.301 94.5406L271.246 93.6894C270.983 93.4766 270.936 93.098 271.142 92.8275L272.886 90.5247C273.064 90.2506 273.264 89.7691 273.459 89.3039C273.874 88.3139 274.213 87.5222 274.784 87.5763C275.742 87.4338 285.46 86.1175 286.318 91.4137C286.459 92.2793 286.26 93.1773 285.761 93.9419L284.888 95.2799C284.03 96.5981 283.671 98.1165 283.882 99.5591C283.932 99.8999 284.6 102.59 285.065 104.433C285.586 104.664 287.155 105.342 288.167 105.622C288.457 105.703 288.659 105.959 288.671 106.26C288.684 106.563 288.502 106.835 288.219 106.938C288.204 106.944 288.19 106.947 288.176 106.951L285.862 107.504C284.527 107.818 283.179 107.975 281.83 107.975V107.977ZM275.152 106.235L278.797 106.902C281.092 107.322 283.408 107.265 285.678 106.729L287.571 106.276C286.307 105.871 284.641 105.119 284.564 105.083C284.454 105.032 284.371 104.935 284.342 104.817C284.221 104.345 283.17 100.181 283.094 99.6745C282.856 98.0407 283.256 96.3258 284.221 94.8453L285.094 93.5073C285.483 92.9086 285.638 92.2107 285.53 91.5417C284.773 86.864 274.947 88.3589 274.848 88.3734C274.833 88.3752 274.819 88.377 274.804 88.377C274.642 88.5447 274.375 89.1812 274.197 89.6104C273.987 90.1081 273.773 90.6239 273.538 90.9827L271.879 93.1737L272.956 94.0429C273.051 94.1204 273.107 94.2376 273.104 94.362L273.026 98.0317C273.021 98.2571 273.167 98.4591 273.378 98.524L275.866 99.2796C276.433 99.4509 276.822 99.9666 276.838 100.562L276.687 104.028C276.737 104.967 275.942 105.721 275.152 106.233V106.235Z" fill="black"/>
<path d="M274.1 80.012C276.48 79.7902 273.566 82.3598 282.3 79.4638C285.778 78.3097 284.142 82.4897 285.044 82.1921C288.378 81.0957 288.265 81.13 289.924 81.5051C291.022 81.7539 291.801 83.7429 291.648 85.2559C291.446 87.2521 289.338 90.4962 287.471 93.9116C286.505 95.6788 284.673 95.9133 282.339 93.441C282.09 93.1777 283.234 91.5187 282.572 90.8515C280.853 89.1167 280.238 91.8721 278.879 91.0877C277.571 90.3339 277.025 89.8344 275.627 88.6695C273.938 87.2611 271.301 89.6757 270.219 86.3902C269.655 84.677 270.838 80.3167 274.098 80.0138L274.1 80.012Z" fill="black"/>
<path d="M297.405 233.145H282.905V180.767H275.447V233.145H260.947C256.516 233.145 252.924 236.737 252.924 241.167V242.621H305.428V241.167C305.428 236.737 301.836 233.145 297.405 233.145Z" fill="black"/>
<path d="M301.445 125.488H297.692C287.687 125.488 279.034 132.519 276.895 142.385L272.529 162.533C271.507 167.248 267.372 170.608 262.589 170.608H254.702C250.58 170.608 247.236 173.982 247.236 178.144C247.236 182.306 250.578 185.68 254.702 185.68H267.512L267.505 185.714H290.044C297.932 185.714 304.755 180.171 306.442 172.391L313.366 140.436C315.031 132.754 309.235 125.486 301.445 125.486V125.488Z" fill="white"/>
<path d="M290.043 186.115H267.503C267.446 186.115 267.392 186.102 267.341 186.08H254.702C250.365 186.08 246.838 182.521 246.838 178.146C246.838 173.771 250.365 170.212 254.702 170.212H262.59C267.148 170.212 271.164 166.948 272.14 162.45L276.505 142.302C278.668 132.33 287.578 125.092 297.692 125.092H301.445C305.253 125.092 308.815 126.801 311.219 129.78C313.657 132.803 314.58 136.719 313.756 140.524L306.831 172.48C305.118 180.382 298.058 186.117 290.044 186.117L290.043 186.115ZM267.675 185.316H290.043C297.685 185.316 304.417 179.845 306.05 172.309L312.975 140.353C313.749 136.784 312.881 133.113 310.596 130.278C308.346 127.487 305.01 125.885 301.445 125.885H297.692C287.949 125.885 279.367 132.859 277.284 142.468L272.919 162.616C271.866 167.478 267.521 171.007 262.59 171.007H254.702C250.805 171.007 247.635 174.208 247.635 178.144C247.635 182.081 250.805 185.282 254.702 185.282H267.512C267.57 185.282 267.624 185.294 267.675 185.316Z" fill="black"/>
<path d="M203.204 182.839H102.343C100.859 182.839 99.7013 184.121 99.8509 185.598L109.479 280.513C109.515 280.876 109.825 281.148 110.187 281.141L115.397 281.031C115.612 281.026 115.779 280.843 115.765 280.627L109.425 192.369C109.32 190.918 110.47 189.682 111.927 189.684L193.786 189.789C195.244 189.791 196.391 191.033 196.281 192.486L189.546 280.288C189.512 280.744 189.865 281.136 190.321 281.148L194.867 281.273C195.194 281.282 195.472 281.038 195.506 280.715L205.696 185.614C205.855 184.134 204.694 182.841 203.204 182.841V182.839Z" fill="white"/>
<path d="M194.886 281.669C194.877 281.669 194.868 281.669 194.859 281.669L190.313 281.545C189.981 281.536 189.678 281.395 189.456 281.15C189.234 280.905 189.126 280.587 189.151 280.255L195.887 192.454C195.932 191.862 195.735 191.298 195.333 190.861C194.931 190.427 194.383 190.185 193.789 190.185L111.931 190.081H111.928C111.336 190.081 110.79 190.319 110.386 190.751C109.982 191.184 109.784 191.749 109.825 192.338L116.165 280.596C116.18 280.807 116.108 281.018 115.965 281.173C115.823 281.33 115.621 281.422 115.408 281.426L110.198 281.538C109.625 281.548 109.142 281.117 109.084 280.551L99.4562 185.636C99.3733 184.82 99.6419 184.004 100.19 183.394C100.74 182.786 101.525 182.437 102.345 182.437H203.206C204.028 182.437 204.816 182.788 205.366 183.399C205.916 184.011 206.181 184.831 206.093 185.65L195.903 280.751C195.847 281.269 195.403 281.666 194.886 281.666V281.669ZM111.926 189.284H111.929L193.788 189.388C194.594 189.388 195.369 189.729 195.915 190.32C196.462 190.912 196.741 191.713 196.68 192.515L189.945 280.317C189.936 280.427 189.972 280.533 190.046 280.616C190.12 280.699 190.221 280.746 190.332 280.748L194.879 280.872C194.998 280.87 195.097 280.787 195.109 280.67L205.3 185.569C205.363 184.976 205.172 184.38 204.771 183.937C204.373 183.493 203.801 183.239 203.204 183.239H102.343C101.748 183.239 101.178 183.491 100.78 183.933C100.381 184.375 100.187 184.967 100.248 185.558L109.876 280.474C109.892 280.627 110.029 280.742 110.18 280.742L115.39 280.63L109.028 192.398C108.97 191.595 109.252 190.798 109.8 190.209C110.348 189.621 111.122 189.284 111.924 189.284H111.926Z" fill="black"/>
<path d="M184.934 188.38C184.714 188.38 184.535 188.201 184.535 187.981V183.69C184.535 183.47 184.714 183.291 184.934 183.291C185.154 183.291 185.332 183.47 185.332 183.69V187.981C185.332 188.201 185.154 188.38 184.934 188.38Z" fill="white"/>
<path d="M139.933 219.754C137.662 230.155 146.666 258.609 148.554 265.544C148.801 266.453 149.633 267.082 150.579 267.082H158.968C160.135 267.082 161.078 266.139 161.067 264.982C160.99 256.755 159.495 226.759 164.623 218.123C167.593 213.123 173.032 210.869 176.669 208.49C185.399 202.779 182.112 190.135 182.112 190.135L149.139 209.706C144.571 210.389 140.908 215.272 139.929 219.754H139.933Z" fill="black"/>
<path d="M152.44 193.406C152.44 193.406 123.658 193.663 114.582 204.476C106.426 214.196 118.518 256.982 121.05 265.546C121.313 266.433 122.132 267.041 123.064 267.041H133.879C134.106 267.041 134.292 266.857 134.292 266.631V221.295C134.292 218.439 134.852 219.97 137.269 218.422C140.657 216.253 146.805 218.094 155.275 218.157C182.174 218.357 177.841 193.032 177.841 193.032L152.442 193.404L152.44 193.406Z" fill="black"/>
<path d="M159.047 267.124L159.611 274.465L152.887 274.499L151.498 267.175L159.047 267.124Z" fill="white"/>
<path d="M152.886 274.898C152.695 274.898 152.529 274.761 152.495 274.573L151.104 267.248C151.083 267.133 151.113 267.012 151.187 266.92C151.263 266.828 151.375 266.776 151.492 266.774L159.041 266.724H159.044C159.253 266.724 159.427 266.884 159.443 267.092L160.007 274.433C160.016 274.543 159.978 274.653 159.903 274.734C159.827 274.815 159.722 274.862 159.611 274.862L152.886 274.896H152.884L152.886 274.898ZM151.979 267.571L153.218 274.099L159.181 274.068L158.678 267.524L151.981 267.569L151.979 267.571Z" fill="black"/>
<path d="M132.46 267.124L132.357 274.465L125.425 274.499L124.193 267.175L132.46 267.124Z" fill="white"/>
<path d="M125.425 274.898C125.231 274.898 125.065 274.757 125.032 274.564L123.801 267.239C123.781 267.124 123.813 267.007 123.889 266.917C123.965 266.826 124.075 266.776 124.192 266.774L132.46 266.724H132.462C132.568 266.724 132.669 266.767 132.745 266.841C132.821 266.917 132.862 267.019 132.86 267.128L132.758 274.469C132.754 274.687 132.577 274.862 132.361 274.862L125.429 274.896H125.427L125.425 274.898ZM124.664 267.571L125.763 274.099L131.964 274.068L132.056 267.524L124.664 267.569V267.571Z" fill="black"/>
<path d="M125.528 273.563H131.974C132.432 273.563 132.843 273.836 133.017 274.256C133.588 275.635 134.753 278.863 134.596 281.923C134.553 282.76 133.853 283.415 133.009 283.415H114.089C113.22 283.415 112.558 282.625 112.733 281.779C112.942 280.766 113.662 279.433 115.736 278.234C119.095 276.294 123.315 274.353 124.648 273.753C124.923 273.628 125.223 273.563 125.526 273.563H125.528Z" fill="white"/>
<path d="M133.01 283.811H114.09C113.549 283.811 113.042 283.572 112.702 283.153C112.368 282.742 112.236 282.212 112.343 281.696C112.552 280.679 113.277 279.191 115.536 277.886C118.93 275.926 123.242 273.946 124.482 273.387C124.812 273.239 125.162 273.163 125.525 273.163H131.971C132.594 273.163 133.147 273.531 133.383 274.101C133.921 275.399 135.156 278.764 134.994 281.941C134.94 282.989 134.069 283.811 133.01 283.811ZM125.526 273.962C125.279 273.962 125.038 274.014 124.812 274.115C123.581 274.671 119.3 276.636 115.937 278.578C114.35 279.494 113.378 280.629 113.125 281.859C113.068 282.138 113.14 282.427 113.322 282.65C113.511 282.881 113.791 283.014 114.092 283.014H133.012C133.647 283.014 134.168 282.526 134.2 281.902C134.355 278.887 133.167 275.655 132.651 274.407C132.539 274.137 132.274 273.962 131.977 273.962H125.53H125.526Z" fill="black"/>
<path d="M153.118 273.563H159.564C160.022 273.563 160.433 273.836 160.608 274.256C161.18 275.635 162.345 278.863 162.188 281.923C162.145 282.76 161.445 283.415 160.601 283.415H141.681C140.812 283.415 140.15 282.625 140.325 281.779C140.534 280.766 141.254 279.433 143.328 278.234C146.685 276.294 150.907 274.353 152.239 273.753C152.515 273.628 152.815 273.563 153.118 273.563Z" fill="white"/>
<path d="M160.602 283.811H141.682C141.141 283.811 140.634 283.572 140.293 283.153C139.96 282.742 139.828 282.212 139.935 281.696C140.144 280.679 140.869 279.191 143.128 277.886C146.524 275.924 150.835 273.946 152.074 273.387C152.404 273.239 152.754 273.163 153.116 273.163H159.563C160.185 273.163 160.739 273.531 160.975 274.101C161.513 275.399 162.748 278.764 162.586 281.941C162.531 282.989 161.66 283.811 160.602 283.811ZM153.118 273.962C152.871 273.962 152.63 274.014 152.404 274.115C151.173 274.671 146.893 276.634 143.528 278.578C141.943 279.494 140.97 280.629 140.717 281.859C140.659 282.138 140.732 282.427 140.914 282.65C141.103 282.881 141.383 283.014 141.684 283.014H160.604C161.238 283.014 161.76 282.526 161.792 281.902C161.945 278.887 160.759 275.657 160.243 274.407C160.131 274.137 159.866 273.962 159.569 273.962H153.122H153.118Z" fill="black"/>
<path d="M128.094 178.922L124.57 177.606C123.077 177.049 121.44 177.067 119.963 177.671C118.12 178.426 115.619 179.649 113.906 181.27C113.477 181.678 113.74 182.422 114.319 182.422H127.932L128.096 178.92L128.094 178.922Z" fill="white"/>
<path d="M127.929 182.825H114.316C113.893 182.825 113.53 182.576 113.37 182.174C113.204 181.757 113.305 181.29 113.629 180.983C115.397 179.31 117.966 178.059 119.811 177.305C121.374 176.665 123.115 176.639 124.709 177.234L128.232 178.551C128.395 178.612 128.499 178.771 128.492 178.944L128.328 182.446C128.317 182.659 128.142 182.826 127.929 182.826V182.825ZM122.345 177.602C121.585 177.602 120.828 177.748 120.114 178.042C118.332 178.773 115.856 179.975 114.179 181.562C114.077 181.66 114.078 181.789 114.113 181.878C114.134 181.934 114.19 182.026 114.318 182.026H127.549L127.681 179.195L124.429 177.981C123.753 177.729 123.046 177.602 122.343 177.602H122.345Z" fill="black"/>
<path d="M188.081 163.243C188.081 163.243 188.461 149.581 179.038 147.933C179.041 147.92 179.048 147.906 179.052 147.893L169.071 147.329C169.071 147.329 162.657 146.442 156.747 151.527C151.417 156.114 150.246 167.881 146.836 170.874C143.881 173.471 131.159 176.845 127.826 177.698C127.354 177.819 127.026 178.243 127.027 178.728L127.038 181.954H147.21C150.025 181.954 152.715 180.816 154.67 178.805C155.847 177.593 157.297 176.104 158.898 174.425C158.879 175.462 158.994 177.18 159.724 179.092C161.198 182.951 160.494 187.32 157.67 190.348C156.486 191.619 155.146 192.759 153.73 193.442C153.73 193.442 154.632 197.707 161.203 197.999C163.876 198.118 170.932 198.373 176.179 198.075C183.346 197.667 188.635 196.349 188.635 196.349L188.079 163.243H188.081Z" fill="white"/>
<path d="M170.375 198.616C166.609 198.616 162.99 198.481 161.185 198.399C154.383 198.097 153.379 193.715 153.339 193.527C153.301 193.347 153.391 193.165 153.555 193.085C154.783 192.492 156.069 191.48 157.378 190.077C160.054 187.208 160.81 183.055 159.351 179.236C158.799 177.79 158.585 176.452 158.52 175.397C157.304 176.665 156.19 177.811 155.236 178.792L154.955 179.083C152.937 181.16 150.113 182.352 147.208 182.352H127.036C126.816 182.352 126.638 182.174 126.638 181.955L126.627 178.729C126.625 178.06 127.076 177.478 127.725 177.312C135.346 175.363 144.299 172.571 146.571 170.575C148.003 169.316 149.085 166.238 150.228 162.979C151.732 158.699 153.435 153.848 156.484 151.224C162.46 146.081 168.853 146.896 169.123 146.932L179.072 147.493C179.151 147.497 179.227 147.525 179.29 147.572C188.644 149.385 188.485 162.799 188.478 163.241L189.033 196.34C189.037 196.526 188.91 196.688 188.73 196.733C188.676 196.746 183.322 198.066 176.201 198.472C174.38 198.574 172.356 198.612 170.375 198.612V198.616ZM154.208 193.65C154.54 194.573 155.977 197.37 161.221 197.602C163.362 197.698 170.766 197.985 176.156 197.678C182.233 197.334 187.003 196.317 188.231 196.035L187.681 163.25C187.681 163.25 187.681 163.237 187.681 163.232C187.684 163.099 187.938 149.895 178.967 148.326C178.922 148.319 178.879 148.303 178.839 148.281L169.047 147.727C168.954 147.715 162.7 146.93 157.007 151.83C154.12 154.315 152.454 159.059 150.984 163.245C149.752 166.75 148.69 169.778 147.1 171.174C144.108 173.801 131.667 177.126 127.925 178.084C127.631 178.16 127.426 178.423 127.428 178.726L127.438 181.555H147.213C149.904 181.555 152.518 180.451 154.387 178.527L154.668 178.237C155.791 177.081 157.138 175.694 158.612 174.151C158.725 174.032 158.9 173.996 159.052 174.057C159.203 174.12 159.302 174.27 159.299 174.434C159.279 175.489 159.402 177.128 160.098 178.951C161.666 183.055 160.848 187.528 157.963 190.622C156.691 191.983 155.431 193 154.208 193.65Z" fill="black"/>
<path d="M158.465 175.985C158.367 175.985 158.27 175.949 158.192 175.878C158.03 175.729 158.021 175.476 158.172 175.314C160.784 172.503 162.807 169.262 164.188 165.685C164.268 165.479 164.498 165.376 164.704 165.456C164.91 165.535 165.012 165.766 164.933 165.971C163.516 169.646 161.438 172.972 158.759 175.857C158.679 175.942 158.573 175.985 158.466 175.985H158.465Z" fill="black"/>
<path d="M163.121 130.037C163.121 130.037 162.748 133.375 161.075 135.229C160.947 135.371 160.918 135.575 161.015 135.739L161.706 136.891C161.765 136.991 161.814 137.097 161.852 137.207L162.997 140.574C163.101 140.882 163.379 141.1 163.704 141.127C164.42 141.187 166.236 140.909 166.383 141.387C166.549 141.921 166.421 146.243 166.356 148.124C166.34 148.624 166.69 149.06 167.182 149.15L171.056 149.864C172.803 150.187 174.597 149.972 176.208 149.262C176.731 149.031 176.963 148.42 176.722 147.902C175.836 146.009 173.896 141.49 174.152 138.725L175.874 133.907C175.831 131.599 173.903 129.765 171.579 129.823L163.119 130.034L163.121 130.037Z" fill="white"/>
<path d="M172.664 150.414C172.105 150.414 171.544 150.363 170.985 150.261L167.111 149.547C166.419 149.419 165.936 148.816 165.959 148.113C166.103 143.913 166.082 141.994 166.015 141.569C165.775 141.475 165.007 141.504 164.581 141.522C164.235 141.536 163.909 141.549 163.671 141.529C163.187 141.49 162.775 141.167 162.618 140.707L161.473 137.34C161.444 137.257 161.408 137.176 161.363 137.1L160.672 135.948C160.486 135.636 160.528 135.241 160.776 134.965C162.345 133.227 162.72 130.028 162.724 129.995C162.746 129.797 162.912 129.646 163.11 129.64L171.569 129.429C172.806 129.399 173.978 129.851 174.869 130.704C175.753 131.55 176.25 132.686 176.274 133.905C176.274 133.954 176.267 134.001 176.25 134.047L174.546 138.817C174.326 141.502 176.245 145.945 177.084 147.738C177.246 148.084 177.262 148.474 177.127 148.832C176.992 149.193 176.723 149.476 176.369 149.633C175.19 150.152 173.933 150.416 172.664 150.416V150.414ZM165.315 140.701C166.049 140.701 166.617 140.797 166.765 141.27C166.9 141.706 166.897 144.016 166.756 148.138C166.745 148.443 166.956 148.704 167.256 148.759L171.129 149.473C172.795 149.779 174.496 149.581 176.048 148.897C176.204 148.829 176.321 148.704 176.38 148.548C176.44 148.392 176.433 148.223 176.362 148.071C175.491 146.207 173.491 141.562 173.758 138.689C173.762 138.657 173.769 138.622 173.78 138.592L175.477 133.844C175.441 132.866 175.031 131.957 174.321 131.276C173.583 130.571 172.619 130.194 171.593 130.223L163.471 130.425C163.325 131.351 162.805 133.905 161.372 135.494C161.359 135.508 161.354 135.524 161.359 135.531L162.048 136.684C162.122 136.808 162.183 136.94 162.23 137.077L163.375 140.444C163.429 140.602 163.572 140.714 163.737 140.729C163.927 140.745 164.232 140.732 164.551 140.72C164.818 140.709 165.076 140.7 165.315 140.7V140.701Z" fill="black"/>
<path d="M162.337 128.856C161.993 129.38 162.2 130.089 162.774 130.352L163.12 130.511L169.765 133.786C169.933 133.869 170.136 133.858 170.288 133.748C170.564 133.549 171.058 133.302 171.554 133.62C172.245 134.06 172.385 136.415 170.609 137.039C170.375 137.122 170.246 137.369 170.34 137.596C170.443 137.843 170.595 138.171 170.802 138.528C172.369 141.221 176.241 141.381 178.107 138.884C179.483 137.042 180.742 134.017 179.191 129.88C176.758 123.39 166.827 121.994 162.336 128.857L162.337 128.856Z" fill="black"/>
<path d="M178.523 127.351C178.523 127.351 181.423 123.911 185.666 125.245C189.909 126.579 190.125 133.76 190.617 138.238C192.35 154.004 196.2 159.744 197.443 161.166C198.822 162.746 187.977 161.675 184.322 160.429C173.789 156.838 179.336 146.699 179.83 144.874C180.326 143.047 184.25 132.83 179.37 131.636L176.895 129.53L178.521 127.353L178.523 127.351Z" fill="black"/>
<path d="M179.856 132.273L179.803 132.293C179.342 132.462 178.828 132.226 178.658 131.768L177.365 128.273C177.196 127.813 177.432 127.305 177.896 127.137L177.948 127.117C178.41 126.948 178.923 127.184 179.093 127.644L180.386 131.139C180.555 131.599 180.319 132.107 179.856 132.275V132.273Z" fill="white"/>
<path d="M179.499 132.745C178.972 132.745 178.478 132.423 178.285 131.905L176.992 128.41C176.873 128.089 176.887 127.741 177.032 127.429C177.176 127.117 177.436 126.879 177.76 126.76L177.813 126.741C178.48 126.497 179.223 126.84 179.468 127.503L180.761 130.998C180.88 131.319 180.865 131.667 180.723 131.979C180.579 132.291 180.319 132.529 179.995 132.648L179.942 132.668C179.796 132.72 179.646 132.747 179.499 132.747V132.745ZM178.254 127.46C178.198 127.46 178.141 127.469 178.083 127.491L178.031 127.511C177.908 127.556 177.809 127.646 177.753 127.765C177.699 127.882 177.694 128.014 177.739 128.134L179.032 131.629C179.125 131.882 179.41 132.011 179.665 131.918L179.717 131.9C179.841 131.855 179.939 131.764 179.995 131.645C180.049 131.528 180.054 131.397 180.009 131.276L178.716 127.781C178.644 127.584 178.455 127.462 178.253 127.462L178.254 127.46Z" fill="black"/>
<path d="M182.583 277.729H168.083V225.351H160.625V277.729H146.124C141.694 277.729 138.102 281.321 138.102 285.751V287.205H190.604V285.751C190.604 281.321 187.012 277.729 182.581 277.729H182.583Z" fill="white"/>
<path d="M190.606 287.605H138.104C137.884 287.605 137.705 287.427 137.705 287.207V285.753C137.705 281.11 141.483 277.332 146.126 277.332H160.228V225.353C160.228 225.133 160.407 224.954 160.627 224.954H168.085C168.305 224.954 168.483 225.133 168.483 225.353V277.332H182.585C187.229 277.332 191.006 281.11 191.006 285.753V287.207C191.006 287.427 190.828 287.605 190.608 287.605H190.606ZM138.502 286.807H190.208V285.752C190.208 281.548 186.787 278.127 182.583 278.127H168.083C167.863 278.127 167.685 277.949 167.685 277.729V225.749H161.023V277.729C161.023 277.949 160.845 278.127 160.625 278.127H146.125C141.921 278.127 138.5 281.548 138.5 285.752V286.807H138.502Z" fill="black"/>
<path d="M186.622 170.073H182.87C172.865 170.073 164.211 177.104 162.073 186.97L157.707 207.118C156.684 211.833 152.549 215.193 147.767 215.193H139.88C135.757 215.193 132.414 218.567 132.414 222.729C132.414 226.891 135.756 230.265 139.88 230.265H152.69L152.683 230.299H175.222C183.11 230.299 189.933 224.756 191.619 216.976L198.544 185.02C200.208 177.338 194.413 170.071 186.622 170.071V170.073Z" fill="white"/>
<path d="M175.222 230.7H152.683C152.625 230.7 152.571 230.687 152.521 230.665H139.882C135.545 230.665 132.018 227.106 132.018 222.731C132.018 218.356 135.545 214.797 139.882 214.797H147.769C152.328 214.797 156.344 211.533 157.319 207.035L161.685 186.887C163.847 176.915 172.757 169.677 182.872 169.677H186.624C190.433 169.677 193.994 171.386 196.398 174.365C198.836 177.388 199.76 181.304 198.935 185.109L192.011 217.065C190.298 224.967 183.238 230.702 175.224 230.702L175.222 230.7ZM152.854 229.903H175.222C182.865 229.903 189.596 224.432 191.23 216.896L198.155 184.94C198.928 181.371 198.061 177.7 195.776 174.865C193.526 172.073 190.19 170.472 186.624 170.472H182.872C173.129 170.472 164.547 177.445 162.464 187.055L158.098 207.203C157.045 212.065 152.701 215.594 147.769 215.594H139.882C135.985 215.594 132.815 218.794 132.815 222.731C132.815 226.668 135.985 229.868 139.882 229.868H152.692C152.75 229.868 152.804 229.881 152.854 229.903Z" fill="black"/>
<path d="M65.4219 29.6895C67.1711 29.6895 68.5884 31.1068 68.5884 32.856V54.6432C68.5884 56.3924 67.1711 57.8098 65.4219 57.8098H30.8242L27.1004 62.4803L21.2488 57.8098H5.36187C3.61269 57.8098 2.19531 56.3924 2.19531 54.6432V32.856C2.19531 31.1068 3.61269 29.6895 5.36187 29.6895H65.4237H65.4219Z" fill="white"/>
<path d="M27.1003 63.4089C27.003 63.4089 26.9092 63.3728 26.8353 63.3079L21.0972 58.2064H5.36C3.39443 58.2064 1.79492 56.6069 1.79492 54.6414V32.8541C1.79492 30.8886 3.39443 29.2891 5.36 29.2891H17.2075C17.4275 29.2891 17.6061 29.4676 17.6061 29.6876C17.6061 29.9076 17.4275 30.0861 17.2075 30.0861H5.36C3.83443 30.0861 2.59377 31.3268 2.59377 32.8541V54.6414C2.59377 56.1669 3.83443 57.4094 5.36 57.4094H21.2487C21.3461 57.4094 21.4416 57.4455 21.5138 57.5104L27.0534 62.4369L31.0459 57.5555C31.1216 57.4635 31.2353 57.4094 31.3543 57.4094H65.4218C66.9474 57.4094 68.188 56.1687 68.188 54.6414V32.8541C68.188 31.3286 66.9474 30.0861 65.4218 30.0861H25.1943C24.9743 30.0861 24.7957 29.9076 24.7957 29.6876C24.7957 29.4676 24.9743 29.2891 25.1943 29.2891H65.4218C67.3874 29.2891 68.9869 30.8886 68.9869 32.8541V54.6414C68.9869 56.6069 67.3874 58.2064 65.4218 58.2064H31.5436L27.4087 63.2628C27.3402 63.3476 27.2392 63.3999 27.131 63.4071C27.1202 63.4071 27.1094 63.4071 27.1003 63.4071V63.4089Z" fill="black"/>
<path d="M59.8226 40.4582H12.088C11.868 40.4582 11.6895 40.2797 11.6895 40.0597C11.6895 39.8397 11.868 39.6611 12.088 39.6611H59.8226C60.0426 39.6611 60.2211 39.8397 60.2211 40.0597C60.2211 40.2797 60.0426 40.4582 59.8226 40.4582Z" fill="black"/>
<path d="M59.823 46.8371H49.8419C49.6219 46.8371 49.4434 46.6586 49.4434 46.4386C49.4434 46.2186 49.6219 46.04 49.8419 46.04H59.823C60.043 46.04 60.2216 46.2186 60.2216 46.4386C60.2216 46.6586 60.043 46.8371 59.823 46.8371Z" fill="black"/>
<path d="M43.4632 46.8371H12.088C11.868 46.8371 11.6895 46.6586 11.6895 46.4386C11.6895 46.2186 11.868 46.04 12.088 46.04H43.4614C43.6814 46.04 43.8599 46.2186 43.8599 46.4386C43.8599 46.6586 43.6814 46.8371 43.4614 46.8371H43.4632Z" fill="black"/>
</svg>
