<svg width="196" height="91" viewBox="0 0 196 91" fill="none" xmlns="http://www.w3.org/2000/svg">
<path d="M143.199 45.4746C143.199 49.702 142.615 53.792 141.524 57.6722L124.882 65.3754L119.655 54.082C120.723 51.4227 121.31 48.5154 121.31 45.4746C121.31 33.3571 111.99 23.4219 100.128 22.4414L108.525 13.9065L94.9922 0.587116C96.0529 0.51081 97.1211 0.472656 98.2009 0.472656C123.054 0.472656 143.199 20.6176 143.199 45.4746Z" fill="#231F20" fill-opacity="0.3"/>
<path d="M138.003 66.4859C130.453 80.7553 115.462 90.473 98.1977 90.473C86.4846 90.473 75.8169 86.0014 67.8124 78.6683L67.0684 60.6218L80.2847 60.0762C84.5197 65.2688 90.9753 68.5844 98.1977 68.5844C105.42 68.5844 111.315 65.5512 115.55 60.74L121.7 74.0327L138.003 66.4859Z" fill="#231F20" fill-opacity="0.6"/>
<path d="M99.3038 13.9792L89.319 24.1318C80.9634 27.6076 75.0878 35.8564 75.0878 45.4748C75.0878 48.3745 75.622 51.152 76.5987 53.7083L60.2881 54.3798L60.9634 70.7514C56.0607 63.5443 53.1992 54.8415 53.1992 45.4748C53.1992 24.4866 67.564 6.85215 87.0031 1.87695L99.3038 13.9792Z" fill="#231F20" fill-opacity="0.9"/>
</svg>
