<svg width="449" height="468" viewBox="0 0 449 468" fill="none" xmlns="http://www.w3.org/2000/svg">
<rect width="449" height="468" fill="#F7F7F7"/>
<path d="M385.865 67.3123H159.326C152.181 67.3123 145.416 73.2696 144.218 80.6179L92.8001 395.961C91.6021 403.309 96.4241 409.267 103.569 409.267H330.109C337.254 409.267 344.018 403.309 345.219 395.961L396.637 80.6179C397.835 73.2696 393.013 67.3123 385.868 67.3123H385.865Z" fill="black"/>
<path d="M330.109 409.823H103.57C100.048 409.823 96.9305 408.437 94.7927 405.923C92.5321 403.264 91.6298 399.695 92.2539 395.873L143.669 80.5302C144.908 72.9363 151.93 66.7584 159.326 66.7584H385.865C389.387 66.7584 392.504 68.1443 394.642 70.6581C396.903 73.3172 397.805 76.8861 397.181 80.7081L345.765 396.054C344.527 403.648 337.505 409.826 330.109 409.826V409.823ZM159.326 67.8661C152.451 67.8661 145.918 73.6255 144.765 80.7056L93.3491 396.051C92.7802 399.545 93.5922 402.796 95.6398 405.204C97.5646 407.467 100.382 408.713 103.572 408.713H330.111C336.986 408.713 343.52 402.954 344.673 395.873L396.091 80.5302C396.66 77.0365 395.848 73.7859 393.8 71.3774C391.875 69.1142 389.058 67.8686 385.868 67.8686H159.328L159.326 67.8661Z" fill="black"/>
<path d="M378.587 67.3122H152.048C144.902 67.3122 138.138 73.3072 136.938 80.7031L85.5195 398.094C84.3215 405.49 89.1436 411.485 96.2889 411.485H322.828C329.974 411.485 336.738 405.49 337.938 398.094L389.357 80.7031C390.555 73.3072 385.733 67.3122 378.587 67.3122Z" fill="white"/>
<path d="M322.833 412.041H195.721C195.416 412.041 195.168 411.793 195.168 411.487C195.168 411.182 195.416 410.933 195.721 410.933H322.833C329.708 410.933 336.239 405.134 337.394 398.006L388.813 80.6154C389.384 77.0816 388.564 73.7984 386.497 71.3724C384.574 69.1117 381.765 67.8686 378.59 67.8686H152.05C145.176 67.8686 138.642 73.6681 137.489 80.7933L115.514 216.441C115.464 216.742 115.183 216.95 114.878 216.9C114.574 216.85 114.369 216.567 114.419 216.263L136.394 80.6154C137.632 72.9739 144.654 66.7584 152.05 66.7584H378.59C382.096 66.7584 385.204 68.1418 387.341 70.6531C389.62 73.3323 390.532 76.9337 389.905 80.7933L338.487 398.184C337.249 405.826 330.227 412.041 322.831 412.041H322.833Z" fill="black"/>
<path d="M162.967 88.6478L115.873 375.302L314.036 377.199L360.785 88.6478H162.967Z" fill="white"/>
<path d="M314.036 377.69H189.065C188.759 377.69 188.511 377.442 188.511 377.137C188.511 376.831 188.759 376.583 189.065 376.583H313.565L360.134 89.1189H163.439L150.028 171.905C149.978 172.206 149.699 172.414 149.391 172.364C149.088 172.314 148.882 172.03 148.933 171.727L162.419 88.4748C162.464 88.2067 162.694 88.0087 162.968 88.0087H360.785C360.948 88.0087 361.101 88.0788 361.209 88.2042C361.314 88.327 361.359 88.4924 361.334 88.6528L314.585 377.227C314.54 377.495 314.31 377.693 314.036 377.693V377.69Z" fill="black"/>
<path d="M328.287 142.246H178.25C178.088 142.246 177.935 142.176 177.827 142.051C177.722 141.928 177.677 141.763 177.702 141.602L179.15 132.655C179.195 132.387 179.426 132.189 179.699 132.189H329.735C329.898 132.189 330.051 132.259 330.159 132.384C330.264 132.507 330.309 132.673 330.284 132.833L328.836 141.78C328.791 142.048 328.56 142.246 328.287 142.246ZM178.902 141.139H327.816L329.086 133.299H180.173L178.902 141.139Z" fill="black"/>
<path d="M286.247 159.863H175.398C175.236 159.863 175.083 159.793 174.975 159.667C174.87 159.545 174.824 159.379 174.85 159.219L176.298 150.271C176.343 150.003 176.574 149.805 176.847 149.805H287.696C287.859 149.805 288.011 149.875 288.119 150.001C288.224 150.124 288.27 150.289 288.245 150.449L286.796 159.397C286.751 159.665 286.52 159.863 286.247 159.863ZM176.048 158.753H285.773L287.044 150.913H177.318L176.048 158.753Z" fill="black"/>
<path d="M320.565 189.908H176.366C176.06 189.908 175.812 189.659 175.812 189.354C175.812 189.048 176.06 188.8 176.366 188.8H320.094L321.365 180.96H175.396C175.09 180.96 174.842 180.712 174.842 180.406C174.842 180.101 175.09 179.853 175.396 179.853H322.016C322.179 179.853 322.332 179.923 322.44 180.048C322.545 180.171 322.59 180.336 322.565 180.497L321.114 189.444C321.069 189.712 320.838 189.91 320.565 189.91V189.908Z" fill="black"/>
<path d="M278.525 207.524H179.524C179.218 207.524 178.97 207.276 178.97 206.97C178.97 206.664 179.218 206.416 179.524 206.416H278.054L279.325 198.577H174.103C173.797 198.577 173.549 198.329 173.549 198.023C173.549 197.717 173.797 197.469 174.103 197.469H279.976C280.139 197.469 280.292 197.539 280.4 197.664C280.505 197.787 280.55 197.953 280.525 198.113L279.077 207.06C279.032 207.329 278.801 207.526 278.528 207.526L278.525 207.524Z" fill="black"/>
<path d="M312.846 237.569H162.81C162.647 237.569 162.494 237.499 162.386 237.374C162.281 237.251 162.236 237.085 162.261 236.925L163.709 227.978C163.754 227.709 163.985 227.511 164.258 227.511H314.294C314.457 227.511 314.61 227.582 314.718 227.707C314.823 227.83 314.868 227.995 314.843 228.156L313.395 237.103C313.352 237.371 313.119 237.569 312.846 237.569ZM163.461 236.459H312.375L313.645 228.619H164.732L163.461 236.459Z" fill="black"/>
<path d="M270.804 255.183H159.955C159.792 255.183 159.639 255.113 159.531 254.987C159.426 254.865 159.381 254.699 159.406 254.539L160.855 245.591C160.9 245.323 161.13 245.125 161.404 245.125H272.252C272.415 245.125 272.568 245.196 272.676 245.321C272.781 245.444 272.826 245.609 272.801 245.769L271.353 254.717C271.307 254.985 271.077 255.183 270.804 255.183ZM160.607 254.075H270.333L271.603 246.236H161.877L160.607 254.075Z" fill="black"/>
<path d="M305.124 285.23H155.088C154.925 285.23 154.772 285.16 154.664 285.035C154.559 284.912 154.514 284.746 154.539 284.586L155.988 275.639C156.033 275.37 156.263 275.172 156.536 275.172H306.573C306.736 275.172 306.889 275.243 306.996 275.368C307.102 275.491 307.147 275.656 307.122 275.817L305.673 284.764C305.628 285.032 305.397 285.23 305.124 285.23ZM155.739 284.12H304.653L305.924 276.28H157.01L155.739 284.12Z" fill="black"/>
<path d="M263.082 302.844H152.233C152.07 302.844 151.917 302.774 151.81 302.648C151.704 302.526 151.659 302.36 151.684 302.2L153.133 293.253C153.178 292.984 153.409 292.786 153.682 292.786H264.53C264.693 292.786 264.846 292.856 264.954 292.982C265.059 293.105 265.104 293.27 265.079 293.43L263.631 302.378C263.586 302.646 263.355 302.844 263.082 302.844ZM152.885 301.734H262.611L263.881 293.894H154.155L152.885 301.734Z" fill="black"/>
<path d="M326.623 105.342H198.082C192.842 105.342 189.306 100.946 190.185 95.52L192.491 81.2896C194.493 68.9363 205.792 58.9213 217.726 58.9213H322.021C333.958 58.9213 342.011 68.9363 340.011 81.2896L337.705 95.52C336.826 100.944 331.866 105.342 326.625 105.342H326.623Z" fill="black"/>
<path d="M326.623 105.896H198.083C195.466 105.896 193.148 104.863 191.551 102.989C189.852 100.991 189.17 98.307 189.637 95.4323L191.942 81.2019C193.982 68.6105 205.549 58.3675 217.726 58.3675H322.021C327.768 58.3675 332.858 60.6306 336.357 64.7409C340.091 69.1293 341.585 75.039 340.558 81.3773L338.252 95.6078C337.332 101.279 332.117 105.893 326.623 105.893V105.896ZM217.726 59.4778C206.07 59.4778 194.995 69.3022 193.037 81.3798L190.732 95.6103C190.318 98.1591 190.91 100.523 192.396 102.269C193.777 103.893 195.797 104.788 198.083 104.788H326.623C331.595 104.788 336.319 100.593 337.157 95.4323L339.462 81.2019C340.437 75.1894 339.034 69.6005 335.512 65.4627C332.229 61.6031 327.437 59.4778 322.021 59.4778H217.726Z" fill="black"/>
<path d="M323.43 105.342H194.89C189.649 105.342 186.113 100.946 186.992 95.52L189.298 81.2896C191.298 68.9363 202.599 58.9213 214.534 58.9213H318.828C330.766 58.9213 338.818 68.9363 336.818 81.2896L334.512 95.52C333.633 100.944 328.673 105.342 323.432 105.342H323.43Z" fill="white"/>
<path d="M323.427 105.896H194.887C192.27 105.896 189.952 104.863 188.356 102.989C186.656 100.991 185.975 98.307 186.441 95.4323L188.747 81.2019C190.787 68.6105 202.353 58.3675 214.531 58.3675H318.826C324.573 58.3675 329.663 60.6306 333.161 64.7409C336.896 69.1293 338.39 75.039 337.362 81.3773L335.056 95.6078C334.136 101.279 328.921 105.893 323.427 105.893V105.896ZM214.531 59.4778C202.874 59.4778 191.799 69.3022 189.842 81.3798L187.536 95.6103C187.123 98.1591 187.714 100.523 189.2 102.269C190.581 103.893 192.601 104.788 194.887 104.788H323.427C328.4 104.788 333.124 100.593 333.961 95.4323L336.267 81.2019C337.242 75.1894 335.838 69.6005 332.317 65.4627C329.034 61.6031 324.242 59.4778 318.826 59.4778H214.531Z" fill="black"/>
<path d="M276.718 9.70878C263.29 9.70878 250.576 20.9769 248.325 34.874L241.967 74.1168C241.25 78.5428 244.135 82.1292 248.41 82.1292H281.558C285.834 82.1292 289.881 78.5403 290.598 74.1168L296.956 34.874C299.207 20.9743 290.147 9.70878 276.716 9.70878H276.718ZM272.277 37.1121C268.099 37.1121 265.28 33.6058 265.982 29.2825C266.683 24.9593 270.638 21.453 274.816 21.453C278.994 21.453 281.813 24.9593 281.112 29.2825C280.412 33.6058 276.455 37.1121 272.277 37.1121Z" fill="black"/>
<path d="M281.558 82.6881H248.41C246.245 82.6881 244.325 81.8334 243.004 80.2796C241.596 78.6255 241.034 76.4074 241.418 74.0315L247.776 34.7887C250.064 20.656 263.049 9.15736 276.716 9.15736C283.159 9.15736 288.871 11.6962 292.793 16.3052C296.984 21.2274 298.655 27.8565 297.505 34.9667L291.147 74.2094C290.39 78.8861 286.087 82.6881 281.558 82.6881ZM276.718 10.2651C263.571 10.2651 251.079 21.3452 248.874 34.9642L242.516 74.2069C242.185 76.257 242.658 78.1568 243.851 79.5578C244.959 80.8585 246.578 81.5753 248.413 81.5753H281.56C285.57 81.5753 289.38 78.1894 290.054 74.0265L296.412 34.7837C297.513 27.9993 295.929 21.6886 291.954 17.0195C288.245 12.6611 282.836 10.2626 276.721 10.2626L276.718 10.2651ZM272.28 37.6684C270.159 37.6684 268.28 36.8313 266.987 35.31C265.611 33.691 265.059 31.5206 265.435 29.1948C266.177 24.6209 270.385 20.8991 274.816 20.8991C276.934 20.8991 278.814 21.7362 280.109 23.2575C281.488 24.8765 282.037 27.0469 281.661 29.3727C280.919 33.9466 276.711 37.6684 272.28 37.6684ZM274.816 22.0094C270.906 22.0094 267.187 25.3126 266.53 29.3727C266.207 31.3702 266.668 33.2248 267.831 34.5907C268.911 35.8589 270.49 36.5581 272.28 36.5581C276.189 36.5581 279.909 33.2549 280.565 29.1948C280.889 27.1948 280.428 25.3427 279.265 23.9768C278.184 22.7086 276.606 22.0094 274.819 22.0094H274.816Z" fill="black"/>
<path d="M274.651 9.70878C261.22 9.70878 248.508 20.9769 246.257 34.874L239.899 74.1168C239.182 78.5428 242.067 82.1292 246.343 82.1292H279.49C283.766 82.1292 287.813 78.5403 288.53 74.1168L294.889 34.874C297.139 20.9743 288.079 9.70878 274.648 9.70878H274.651ZM270.212 37.1121C266.034 37.1121 263.215 33.6058 263.916 29.2825C264.618 24.9593 268.573 21.453 272.751 21.453C276.929 21.453 279.748 24.9593 279.047 29.2825C278.345 33.6058 274.39 37.1121 270.212 37.1121Z" fill="white"/>
<path d="M279.49 82.6881H246.343C244.177 82.6881 242.257 81.8334 240.937 80.2796C239.531 78.6255 238.967 76.4074 239.353 74.0315L245.711 34.7887C247.999 20.656 260.984 9.15736 274.651 9.15736C281.094 9.15736 286.806 11.6962 290.728 16.3052C294.919 21.2274 296.59 27.8565 295.44 34.9667L289.082 74.2094C288.325 78.8861 284.021 82.6881 279.493 82.6881H279.49ZM274.651 10.2651C261.503 10.2651 249.012 21.3452 246.806 34.9642L240.448 74.2069C240.117 76.257 240.591 78.1568 241.784 79.5578C242.891 80.8585 244.511 81.5753 246.345 81.5753H279.493C283.503 81.5753 287.312 78.1894 287.986 74.0265L294.345 34.7837C295.445 27.9993 293.861 21.6886 289.886 17.0195C286.177 12.6611 280.768 10.2626 274.653 10.2626L274.651 10.2651ZM270.212 37.6684C268.092 37.6684 266.215 36.8313 264.919 35.31C263.543 33.691 262.992 31.5206 263.367 29.1948C264.109 24.6209 268.317 20.8991 272.748 20.8991C274.869 20.8991 276.748 21.7362 278.042 23.2575C279.417 24.8765 279.969 27.0469 279.593 29.3727C278.851 33.9466 274.643 37.6684 270.212 37.6684ZM272.748 22.0094C268.839 22.0094 265.119 25.3126 264.463 29.3727C264.139 31.3702 264.601 33.2248 265.763 34.5907C266.844 35.8589 268.423 36.5581 270.212 36.5581C274.122 36.5581 277.841 33.2549 278.498 29.1948C278.821 27.1973 278.36 25.3427 277.197 23.9768C276.117 22.7086 274.538 22.0094 272.748 22.0094Z" fill="black"/>
<path d="M432.301 267.283L435.196 402.149L398.261 421.873C398.118 421.948 397.87 421.896 397.87 421.788L395.89 286.313C395.89 286.313 431.78 267.298 432.303 267.283H432.301Z" fill="white"/>
<path d="M398.098 422.462C397.938 422.462 397.777 422.422 397.645 422.344C397.442 422.224 397.316 422.018 397.314 421.795L395.334 286.318C395.331 286.11 395.444 285.917 395.63 285.819C431.632 266.744 432.125 266.732 432.286 266.727C432.409 266.719 432.577 266.777 432.682 266.879C432.79 266.982 432.85 267.123 432.855 267.268L435.749 402.134C435.754 402.342 435.642 402.537 435.456 402.635L398.522 422.359C398.396 422.427 398.249 422.46 398.098 422.46V422.462ZM396.449 286.641L398.416 421.161L434.637 401.818L431.767 268.133C427.905 270.032 409.289 279.842 396.452 286.641H396.449Z" fill="black"/>
<path d="M400.775 419.48L399.544 282.704L318.109 246.83L238.3 283.982L239.917 421.678C239.939 423.6 241.546 425.129 243.526 425.111L396.409 423.816C398.863 423.796 400.81 421.858 400.775 419.48Z" fill="white"/>
<path d="M264.373 360.398H251.709C250.987 360.398 250.31 360.114 249.801 359.601C249.29 359.082 249.014 358.395 249.022 357.661L249.25 339.343C249.27 337.851 250.493 336.638 251.979 336.638H264.591C265.312 336.638 265.989 336.919 266.495 337.43C267.004 337.944 267.28 338.628 267.275 339.355L267.104 357.673C267.092 359.174 265.866 360.398 264.373 360.398ZM251.979 337.749C251.097 337.749 250.37 338.47 250.358 339.358L250.13 357.676C250.125 358.109 250.288 358.518 250.588 358.821C250.884 359.122 251.283 359.287 251.706 359.287H264.37C265.257 359.287 265.984 358.558 265.992 357.663L266.162 339.345C266.167 338.917 266.004 338.513 265.703 338.212C265.408 337.914 265.012 337.749 264.588 337.749H251.977H251.979Z" fill="black"/>
<path d="M284.072 360.398H271.844C271.064 360.398 270.332 360.092 269.783 359.538C269.23 358.979 268.929 358.237 268.936 357.445L269.092 339.563C269.107 337.952 270.425 336.638 272.032 336.638H284.209C284.989 336.638 285.718 336.942 286.267 337.493C286.818 338.047 287.119 338.784 287.114 339.571L287.014 357.453C287.004 359.077 285.683 360.398 284.072 360.398ZM272.032 337.749C271.032 337.749 270.21 338.568 270.2 339.573L270.044 357.455C270.039 357.949 270.227 358.41 270.57 358.758C270.909 359.099 271.362 359.287 271.844 359.287H284.072C285.077 359.287 285.899 358.46 285.906 357.445L286.006 339.563C286.009 339.077 285.823 338.618 285.483 338.275C285.144 337.934 284.691 337.746 284.212 337.746H272.034L272.032 337.749Z" fill="black"/>
<path d="M264.746 385.786H250.784C250.225 385.786 249.701 385.568 249.308 385.169C248.909 384.766 248.694 384.23 248.701 383.658L248.947 363.921C248.962 362.761 249.912 361.819 251.062 361.819H264.967C265.526 361.819 266.049 362.037 266.443 362.435C266.839 362.836 267.054 363.368 267.049 363.934L266.866 383.671C266.856 384.839 265.906 385.788 264.749 385.788L264.746 385.786ZM251.062 362.926C250.513 362.926 250.062 363.378 250.054 363.934L249.809 383.671C249.806 383.944 249.907 384.199 250.095 384.39C250.278 384.575 250.521 384.678 250.781 384.678H264.744C265.295 384.678 265.746 384.222 265.751 383.661L265.934 363.924C265.937 363.656 265.836 363.403 265.648 363.215C265.465 363.029 265.222 362.929 264.962 362.929H251.057L251.062 362.926Z" fill="black"/>
<path d="M283.859 385.786H271.693C270.896 385.786 270.147 385.473 269.586 384.906C269.017 384.332 268.706 383.565 268.714 382.748L268.871 364.824C268.886 363.164 270.237 361.816 271.884 361.816H283.997C284.794 361.816 285.54 362.127 286.102 362.693C286.668 363.265 286.979 364.024 286.974 364.834L286.874 382.758C286.864 384.427 285.51 385.786 283.859 385.786ZM271.884 362.926C270.844 362.926 269.989 363.783 269.982 364.834L269.824 382.758C269.819 383.277 270.014 383.761 270.375 384.124C270.726 384.48 271.195 384.676 271.696 384.676H283.861C284.906 384.676 285.761 383.811 285.768 382.751L285.869 364.826C285.871 364.315 285.676 363.834 285.32 363.475C284.969 363.122 284.5 362.926 284.002 362.926H271.889H271.884Z" fill="black"/>
<path d="M368.184 360.398H355.52C354.026 360.398 352.803 359.175 352.793 357.673L352.673 339.355C352.668 338.628 352.946 337.947 353.455 337.433C353.963 336.922 354.64 336.641 355.359 336.641H367.971C369.459 336.641 370.68 337.854 370.695 339.348L370.873 357.666C370.881 358.398 370.602 359.087 370.089 359.603C369.58 360.117 368.903 360.398 368.181 360.398H368.184ZM355.359 337.749C354.936 337.749 354.54 337.914 354.242 338.212C353.941 338.516 353.778 338.917 353.78 339.345L353.901 357.663C353.906 358.558 354.633 359.285 355.517 359.285H368.181C368.605 359.285 369.003 359.119 369.302 358.819C369.605 358.513 369.768 358.107 369.763 357.671L369.585 339.353C369.577 338.465 368.853 337.746 367.971 337.746H355.359V337.749Z" fill="black"/>
<path d="M387.886 360.398H375.655C374.044 360.398 372.718 359.077 372.7 357.455L372.517 339.573C372.51 338.789 372.808 338.049 373.357 337.495C373.903 336.944 374.635 336.638 375.412 336.638H387.59C389.196 336.638 390.52 337.949 390.542 339.561L390.783 357.443C390.793 358.235 390.495 358.979 389.943 359.538C389.397 360.092 388.665 360.398 387.886 360.398ZM375.412 337.749C374.931 337.749 374.48 337.937 374.144 338.277C373.803 338.621 373.62 339.077 373.625 339.563L373.808 357.445C373.818 358.463 374.645 359.29 375.653 359.29H387.883C388.364 359.29 388.815 359.102 389.151 358.761C389.492 358.415 389.677 357.954 389.67 357.46L389.429 339.578C389.417 338.571 388.59 337.751 387.587 337.751H375.409L375.412 337.749Z" fill="black"/>
<path d="M369.041 385.786H355.079C353.921 385.786 352.973 384.836 352.966 383.668L352.836 363.931C352.831 363.365 353.049 362.831 353.447 362.433C353.841 362.037 354.364 361.819 354.923 361.819H368.828C369.981 361.819 370.928 362.764 370.941 363.924L371.134 383.661C371.139 384.232 370.923 384.768 370.522 385.172C370.129 385.57 369.602 385.788 369.043 385.788L369.041 385.786ZM354.921 362.926C354.66 362.926 354.417 363.029 354.232 363.212C354.044 363.4 353.941 363.653 353.943 363.921L354.074 383.658C354.079 384.219 354.527 384.676 355.079 384.676H369.041C369.302 384.676 369.547 384.573 369.73 384.387C369.918 384.197 370.021 383.941 370.018 383.668L369.825 363.931C369.82 363.378 369.369 362.926 368.823 362.926H354.918H354.921Z" fill="black"/>
<path d="M388.154 385.786H375.988C374.337 385.786 372.978 384.427 372.961 382.761L372.778 364.836C372.77 364.027 373.076 363.265 373.642 362.693C374.201 362.127 374.948 361.816 375.745 361.816H387.858C389.504 361.816 390.86 363.164 390.883 364.821L391.123 382.746C391.133 383.563 390.828 384.33 390.259 384.904C389.7 385.47 388.951 385.783 388.154 385.783V385.786ZM375.743 362.926C375.246 362.926 374.78 363.122 374.429 363.475C374.073 363.834 373.88 364.315 373.885 364.826L374.068 382.751C374.078 383.813 374.941 384.678 375.986 384.678H388.151C388.65 384.678 389.116 384.483 389.467 384.129C389.825 383.766 390.018 383.282 390.011 382.763L389.77 364.839C389.755 363.786 388.898 362.926 387.855 362.926H375.743Z" fill="black"/>
<path d="M317.538 287.609H306.275C305.555 287.609 304.881 287.328 304.375 286.822C303.871 286.318 303.595 285.649 303.598 284.937L303.63 271.115C303.633 269.649 304.836 268.459 306.312 268.459H317.538C319.014 268.459 320.214 269.652 320.214 271.115L320.219 284.937C320.219 285.651 319.941 286.323 319.432 286.827C318.926 287.331 318.252 287.609 317.538 287.609ZM306.31 269.566C305.445 269.566 304.741 270.261 304.738 271.115L304.706 284.937C304.706 285.351 304.866 285.742 305.159 286.035C305.455 286.333 305.851 286.496 306.275 286.496H317.538C317.959 286.496 318.355 286.333 318.65 286.037C318.946 285.742 319.109 285.351 319.109 284.935L319.104 271.113C319.104 270.258 318.4 269.564 317.535 269.564H306.31V269.566Z" fill="black"/>
<path d="M335.527 287.609H324.695C323.096 287.609 321.796 286.316 321.796 284.727L321.783 271.331C321.783 270.564 322.084 269.842 322.63 269.298C323.174 268.757 323.901 268.459 324.673 268.459H335.47C337.061 268.459 338.362 269.744 338.37 271.326L338.42 284.722C338.422 285.488 338.126 286.213 337.583 286.757C337.036 287.306 336.307 287.606 335.53 287.606L335.527 287.609ZM324.67 269.566C324.194 269.566 323.746 269.749 323.41 270.083C323.074 270.413 322.891 270.857 322.891 271.326L322.903 284.722C322.903 285.702 323.708 286.496 324.695 286.496H335.527C336.009 286.496 336.457 286.311 336.793 285.972C337.126 285.639 337.309 285.195 337.307 284.724L337.257 271.328C337.252 270.356 336.45 269.564 335.467 269.564H324.67V269.566Z" fill="black"/>
<path d="M318.149 307.797H305.625C305.069 307.797 304.545 307.581 304.154 307.185C303.763 306.792 303.548 306.27 303.55 305.716L303.588 290.576C303.59 289.436 304.523 288.508 305.668 288.508H318.152C319.297 288.508 320.227 289.436 320.229 290.576L320.237 305.716C320.237 306.273 320.021 306.794 319.628 307.185C319.234 307.576 318.713 307.794 318.157 307.794L318.149 307.797ZM305.663 289.621C305.129 289.621 304.696 290.052 304.693 290.581L304.656 305.721C304.656 305.98 304.756 306.223 304.936 306.403C305.119 306.586 305.362 306.686 305.623 306.686H318.147C318.407 306.686 318.65 306.586 318.833 306.403C319.016 306.22 319.117 305.977 319.117 305.719L319.109 290.579C319.109 290.05 318.675 289.619 318.142 289.619H305.658L305.663 289.621Z" fill="black"/>
<path d="M335.537 307.797H324.786C323.149 307.797 321.818 306.468 321.816 304.834L321.803 291.456C321.803 290.669 322.109 289.927 322.668 289.371C323.227 288.814 323.969 288.508 324.758 288.508H335.475C337.104 288.508 338.437 289.829 338.442 291.453L338.495 304.832C338.497 305.621 338.192 306.365 337.635 306.924C337.076 307.486 336.332 307.794 335.537 307.794V307.797ZM324.758 289.621C324.264 289.621 323.798 289.812 323.45 290.16C323.101 290.506 322.911 290.967 322.911 291.458L322.924 304.837C322.924 305.859 323.758 306.689 324.783 306.689H335.535C336.031 306.689 336.497 306.496 336.846 306.145C337.194 305.797 337.385 305.33 337.382 304.839L337.329 291.461C337.324 290.446 336.492 289.621 335.47 289.621H324.753H324.758Z" fill="black"/>
<path d="M243.493 425.668C241.235 425.668 239.385 423.888 239.36 421.685L237.744 283.99C237.741 283.772 237.867 283.571 238.064 283.481L317.873 246.328C318.014 246.263 318.174 246.258 318.317 246.318L399.715 279.639C399.923 279.724 400.061 279.927 400.058 280.153L399.993 331.32C399.993 331.626 399.745 331.874 399.439 331.874C399.133 331.874 398.883 331.626 398.885 331.317L398.95 280.523L318.121 247.436L238.856 284.335L240.47 421.673C240.488 423.269 241.841 424.56 243.493 424.56C243.501 424.56 243.511 424.56 243.521 424.56L396.404 423.264C397.467 423.254 398.452 422.843 399.173 422.101C399.863 421.397 400.234 420.47 400.219 419.492L399.274 357.192C399.269 356.886 399.514 356.633 399.82 356.628C400.151 356.638 400.379 356.869 400.384 357.174L401.329 419.475C401.349 420.75 400.865 421.958 399.968 422.876C399.036 423.83 397.772 424.362 396.414 424.372L243.531 425.668H243.493Z" fill="black"/>
<path d="M339.374 425.675H301.811C299.54 425.675 297.708 423.798 297.716 421.485L298.021 335.082C298.029 332.844 299.843 331.029 302.076 331.029H338.993C341.224 331.029 343.041 332.844 343.054 335.082L343.465 421.485C343.475 423.798 341.645 425.675 339.374 425.675Z" fill="black"/>
<path d="M338.399 422.274H302.966C301.455 422.274 300.232 421.024 300.237 419.485L300.492 336.325C300.497 334.831 301.708 333.621 303.194 333.621H338.059C339.547 333.621 340.758 334.831 340.765 336.325L341.126 419.485C341.134 421.026 339.913 422.274 338.399 422.274Z" fill="white"/>
<path d="M338.4 422.831H302.966C302.097 422.831 301.277 422.49 300.658 421.868C300.027 421.234 299.678 420.387 299.683 419.485L299.939 336.325C299.944 334.528 301.405 333.067 303.197 333.067H338.061C339.851 333.067 341.314 334.528 341.322 336.323L341.683 419.482C341.688 420.387 341.342 421.234 340.708 421.868C340.091 422.487 339.272 422.831 338.4 422.831ZM303.194 334.177C302.014 334.177 301.049 335.142 301.047 336.328L300.791 419.487C300.791 420.094 301.021 420.66 301.443 421.086C301.851 421.497 302.392 421.723 302.966 421.723H338.4C338.974 421.723 339.512 421.497 339.921 421.086C340.342 420.663 340.575 420.094 340.573 419.49L340.212 336.33C340.207 335.145 339.242 334.18 338.061 334.18H303.197L303.194 334.177Z" fill="black"/>
<path d="M340.061 422.831H301.305C300.869 422.831 300.457 422.66 300.149 422.352C299.843 422.044 299.676 421.635 299.676 421.202L299.944 334.661C299.946 333.784 300.673 333.069 301.56 333.069H339.693C340.582 333.069 341.309 333.784 341.312 334.661L341.5 378.117C341.5 378.422 341.254 378.673 340.948 378.673C340.643 378.673 340.395 378.427 340.395 378.122L340.207 334.666C340.207 334.398 339.976 334.18 339.698 334.18H301.565C301.287 334.18 301.059 334.398 301.056 334.666L300.788 421.207C300.788 421.344 300.841 421.472 300.939 421.57C301.036 421.668 301.167 421.723 301.307 421.723H340.064C340.204 421.723 340.334 421.668 340.432 421.57C340.53 421.472 340.582 421.344 340.58 421.207L340.452 391.613C340.452 391.307 340.698 391.056 341.004 391.056C341.309 391.056 341.557 391.302 341.557 391.608L341.685 421.202C341.685 421.635 341.52 422.044 341.214 422.352C340.906 422.66 340.497 422.831 340.059 422.831H340.061Z" fill="black"/>
<path d="M348.387 424.59H292.994C291.924 424.59 291.059 423.705 291.064 422.613L291.084 418.182C291.089 417.091 291.961 416.209 293.029 416.209H348.337C349.407 416.209 350.279 417.091 350.284 418.182L350.312 422.613C350.319 423.705 349.454 424.59 348.384 424.59H348.387Z" fill="white"/>
<path d="M348.387 425.146H292.994C292.335 425.146 291.713 424.888 291.244 424.417C290.766 423.936 290.505 423.294 290.508 422.613L290.528 418.182C290.535 416.791 291.655 415.658 293.029 415.658H348.337C349.708 415.658 350.833 416.791 350.84 418.182L350.868 422.613C350.873 423.297 350.612 423.938 350.134 424.42C349.665 424.891 349.046 425.149 348.387 425.149V425.146ZM293.031 416.765C292.267 416.765 291.643 417.402 291.64 418.187L291.62 422.618C291.62 423.004 291.766 423.364 292.034 423.635C292.292 423.896 292.633 424.039 292.996 424.039H348.389C348.753 424.039 349.094 423.896 349.352 423.638C349.62 423.367 349.765 423.006 349.763 422.62L349.735 418.189C349.73 417.405 349.106 416.768 348.342 416.768H293.034L293.031 416.765Z" fill="black"/>
<path d="M249.032 320.897C248.729 320.897 248.481 320.651 248.478 320.348C248.476 320.042 248.721 319.791 249.029 319.789L387.833 318.646H387.838C388.141 318.646 388.389 318.892 388.392 319.195C388.394 319.501 388.149 319.751 387.84 319.754L249.037 320.897H249.032Z" fill="black"/>
<path d="M442.567 267.426L372.241 227.835C371.382 227.351 370.384 227.166 369.412 227.308L320.954 236.674L227.087 281.456C226.461 281.754 226.378 282.609 226.937 283.002L231.854 286.463C232.671 287.04 233.739 287.147 234.671 286.751L321.149 250.005L403.492 287.807C404.472 288.258 405.597 288.25 406.557 287.792L417.236 282.686L417.173 282.656L442.396 270.827C443.87 270.24 443.968 268.213 442.564 267.423L442.567 267.426Z" fill="white"/>
<path d="M405.015 288.699C404.419 288.699 403.822 288.571 403.261 288.313L321.141 250.614L234.887 287.263C233.769 287.739 232.513 287.609 231.533 286.917L226.616 283.456C226.195 283.16 225.969 282.674 226.012 282.16C226.057 281.636 226.368 281.185 226.847 280.957L320.713 236.173C320.756 236.153 320.801 236.138 320.846 236.128L369.304 226.762C370.417 226.599 371.55 226.807 372.512 227.348L442.837 266.94C443.687 267.418 444.176 268.313 444.113 269.273C444.05 270.203 443.471 270.997 442.604 271.343L417.667 283.04C417.617 283.1 417.552 283.152 417.479 283.188L406.8 288.293C406.236 288.561 405.627 288.696 405.018 288.696L405.015 288.699ZM321.151 249.451C321.232 249.451 321.309 249.468 321.382 249.501L403.725 287.303C404.557 287.686 405.504 287.681 406.319 287.293L416.745 282.308C416.797 282.243 416.862 282.19 416.94 282.155L442.163 270.325C442.669 270.122 442.972 269.706 443.008 269.2C443.043 268.661 442.777 268.178 442.296 267.907L371.971 228.316C371.221 227.895 370.344 227.732 369.494 227.857L321.131 237.205L227.33 281.957C227.16 282.04 227.127 282.19 227.122 282.253C227.117 282.323 227.127 282.456 227.258 282.548L232.175 286.01C232.841 286.478 233.694 286.566 234.458 286.24L320.936 249.494C321.006 249.463 321.079 249.448 321.151 249.448V249.451Z" fill="black"/>
<path d="M413.632 282.493C413.549 282.493 413.467 282.476 413.389 282.436L323.898 238.464C323.623 238.328 323.51 237.995 323.645 237.722C323.781 237.446 324.112 237.333 324.387 237.469L413.878 281.441C414.153 281.576 414.266 281.909 414.131 282.183C414.036 282.378 413.838 282.493 413.632 282.493Z" fill="black"/>
<path d="M22.4548 457.988L36.0637 456.877L35.5374 455.419C34.2968 451.985 33.748 448.341 33.9209 444.694L34.0287 442.449L24.2944 444.243L22.4573 457.988H22.4548Z" fill="white"/>
<path d="M22.455 458.542C22.3021 458.542 22.1592 458.479 22.054 458.369C21.9387 458.246 21.8835 458.081 21.9061 457.913L23.7432 444.166C23.7757 443.928 23.9562 443.737 24.1918 443.695L33.926 441.9C34.094 441.87 34.2644 441.915 34.3922 442.028C34.52 442.138 34.5902 442.304 34.5802 442.472L34.4724 444.717C34.302 448.309 34.8333 451.845 36.0563 455.228L36.5827 456.687C36.6403 456.85 36.6203 457.03 36.5275 457.176C36.4348 457.321 36.2794 457.414 36.1065 457.429L22.4976 458.539C22.4825 458.539 22.4675 458.539 22.4525 458.539L22.455 458.542ZM24.7883 444.715L23.094 457.379L35.2944 456.384L35.0137 455.607C33.7406 452.086 33.1867 448.406 33.3646 444.667L33.4373 443.118L24.7858 444.715H24.7883Z" fill="black"/>
<path d="M37.1089 450.163C37.8933 450.915 38.7204 451.777 39.367 452.594C41.5474 455.346 47.5724 458.426 48.7729 458.825C49.6752 459.123 50.7378 459.574 51.5824 460.216C52.5348 460.94 53.011 462.131 52.8907 463.321L52.8305 463.9C52.7578 464.617 52.3368 465.256 51.7002 465.594C50.3744 466.298 47.6852 467.303 43.2166 467.238C36.372 467.138 30.0513 466.151 25.713 465.945C21.3747 465.74 18.7356 465.095 17.5526 463.441C16.485 461.948 18.505 454.015 20.2569 451.707C20.5326 451.344 21.0112 451.198 21.4498 451.326C22.2719 451.562 23.7155 452.131 24.8182 453.394C25.8608 454.589 28.2794 455.537 30.4648 455.792C32.1665 455.99 33.6979 454.74 33.8633 453.035C33.9184 452.472 33.9836 451.86 34.0588 451.248C34.2392 449.765 36.0312 449.123 37.1089 450.158V450.163Z" fill="white"/>
<path d="M43.6352 467.797C43.4948 467.797 43.3545 467.797 43.2091 467.795C38.9685 467.732 34.9761 467.336 31.4498 466.988C29.2443 466.77 27.3396 466.579 25.6879 466.501C20.8133 466.271 18.3246 465.479 17.1016 463.767C15.7758 461.915 18.0414 453.715 19.8133 451.374C20.2218 450.837 20.9411 450.604 21.6003 450.795C22.4399 451.035 24.0263 451.647 25.2343 453.03C26.1316 454.058 28.3571 454.99 30.5275 455.243C31.1942 455.321 31.8533 455.131 32.3796 454.705C32.9135 454.274 33.2418 453.665 33.3094 452.983C33.3646 452.416 33.4297 451.797 33.5049 451.183C33.6152 450.286 34.2092 449.542 35.0588 449.238C35.9084 448.935 36.8407 449.136 37.4899 449.76C38.1365 450.379 39.0613 451.314 39.8006 452.248C41.8607 454.847 47.6827 457.878 48.9459 458.296C50.1564 458.7 51.1564 459.196 51.9158 459.772C52.9985 460.594 53.5824 461.975 53.4396 463.376L53.3794 463.955C53.2867 464.862 52.7554 465.659 51.9559 466.083C50.4722 466.872 47.8356 467.795 43.6301 467.795L43.6352 467.797ZM21.1316 451.837C20.9612 451.837 20.7983 451.913 20.698 452.045C18.876 454.446 17.2219 462.028 18.0038 463.121C18.9913 464.504 21.307 465.183 25.7406 465.391C27.4198 465.471 29.4323 465.669 31.5601 465.882C35.0638 466.231 39.0312 466.624 43.2241 466.684C47.6752 466.747 50.2792 465.722 51.4396 465.106C51.9108 464.855 52.2241 464.384 52.2792 463.845L52.3393 463.263C52.4446 462.246 52.0261 461.246 51.2491 460.657C50.585 460.153 49.6953 459.715 48.6 459.351C47.4121 458.958 41.2317 455.837 38.9334 452.938C38.3796 452.236 37.6152 451.416 36.7254 450.562C36.3746 450.223 35.8909 450.121 35.4347 450.284C34.9761 450.447 34.6678 450.832 34.6102 451.319C34.5375 451.925 34.4723 452.534 34.4172 453.093C34.322 454.073 33.8458 454.953 33.0789 455.569C32.3195 456.181 31.3696 456.456 30.4022 456.346C27.9461 456.061 25.4799 454.995 24.4022 453.76C23.3822 452.589 22.0188 452.068 21.2995 451.86C21.2444 451.845 21.1892 451.837 21.1366 451.837H21.1316Z" fill="black"/>
<path d="M41.2794 464.619C31.8734 464.619 21.1517 462.707 20.5427 462.597C20.2419 462.542 20.0414 462.253 20.0941 461.953C20.1492 461.652 20.4374 461.449 20.7382 461.507C20.9387 461.542 40.936 465.108 50.154 462.619C50.4472 462.542 50.753 462.715 50.8332 463.01C50.9134 463.306 50.7379 463.609 50.4422 463.69C47.9234 464.369 44.6879 464.622 41.2769 464.622L41.2794 464.619Z" fill="black"/>
<path d="M68.0183 454.782L81.1235 453.652L80.6097 452.249C79.3992 448.948 78.8528 445.439 79.0032 441.925L79.0959 439.76L69.7276 441.532L68.0183 454.78V454.782Z" fill="white"/>
<path d="M68.0159 455.336C67.8655 455.336 67.7201 455.276 67.6149 455.166C67.4996 455.046 67.4444 454.878 67.4645 454.712L69.1738 441.464C69.2038 441.226 69.3843 441.036 69.6224 440.991L78.9907 439.219C79.1561 439.186 79.3291 439.234 79.4569 439.344C79.5847 439.454 79.6549 439.617 79.6474 439.788L79.5546 441.953C79.4068 445.409 79.9356 448.81 81.126 452.061L81.6398 453.464C81.7 453.627 81.6799 453.808 81.5872 453.953C81.4945 454.098 81.3391 454.194 81.1661 454.209L68.061 455.339C68.0459 455.339 68.0284 455.339 68.0134 455.339L68.0159 455.336ZM70.2239 442.003L68.655 454.171L80.3516 453.161L80.0884 452.439C78.8453 449.051 78.294 445.504 78.4494 441.9L78.512 440.434L70.2264 442.003H70.2239Z" fill="black"/>
<path d="M83.1136 446.82C83.9331 447.569 84.7977 448.432 85.4794 449.251C87.7727 452.011 94.0032 455.016 95.2388 455.394C96.1661 455.677 97.2638 456.113 98.1435 456.747C99.136 457.464 99.6497 458.67 99.5545 459.888L99.5069 460.482C99.4492 461.216 99.0357 461.878 98.3916 462.239C97.0533 462.99 94.3315 464.081 89.7626 464.121C82.7677 464.181 76.284 463.321 71.848 463.216C67.4119 463.111 64.6977 462.514 63.4496 460.853C62.3218 459.351 64.1964 451.199 65.9332 448.8C66.2064 448.422 66.6901 448.264 67.1438 448.382C67.9884 448.605 69.4796 449.151 70.635 450.414C71.7277 451.61 74.2239 452.522 76.462 452.73C78.2038 452.893 79.7402 451.577 79.868 449.833C79.9106 449.256 79.9632 448.627 80.0234 448.003C80.1737 446.482 81.9882 445.785 83.1161 446.818L83.1136 446.82Z" fill="white"/>
<path d="M89.0407 464.68C84.9781 464.68 81.1411 464.389 77.7351 464.131C75.4744 463.96 73.5246 463.812 71.8329 463.77C66.8504 463.65 64.2941 462.903 63.0034 461.186C61.6074 459.326 63.7252 450.903 65.4795 448.474C65.8805 447.92 66.6023 447.667 67.279 447.845C68.1412 448.071 69.7727 448.657 71.0384 450.041C71.9807 451.073 74.2815 451.973 76.507 452.181C77.1987 452.246 77.8654 452.033 78.3942 451.585C78.9306 451.131 79.2564 450.494 79.3065 449.795C79.3491 449.214 79.4017 448.582 79.4644 447.953C79.5546 447.038 80.1411 446.266 80.9982 445.938C81.8528 445.61 82.8052 445.793 83.4819 446.412C84.1536 447.028 85.121 447.958 85.9004 448.898C88.0683 451.507 94.0933 454.467 95.3941 454.865C96.6372 455.246 97.6697 455.73 98.4617 456.301C99.5845 457.113 100.214 458.507 100.101 459.935L100.053 460.529C99.9805 461.457 99.4567 462.279 98.6572 462.727C97.1109 463.597 94.3114 464.64 89.76 464.68C89.5169 464.68 89.2763 464.682 89.0332 464.682L89.0407 464.68ZM66.8429 448.898C66.66 448.898 66.4845 448.98 66.3793 449.126C64.5723 451.625 63.0635 459.419 63.8906 460.522C64.9357 461.915 67.3191 462.554 71.8579 462.662C73.5772 462.702 75.6348 462.86 77.8153 463.025C81.4017 463.296 85.4718 463.604 89.7525 463.567C94.2938 463.527 96.9404 462.416 98.1159 461.757C98.5945 461.489 98.9053 460.995 98.9504 460.439L98.9981 459.845C99.0808 458.797 98.6271 457.785 97.8151 457.198C97.1334 456.705 96.1835 456.266 95.0733 455.925C93.8502 455.552 87.4643 452.512 85.0508 449.607C84.4643 448.903 83.6648 448.081 82.7375 447.231C82.3666 446.89 81.8654 446.795 81.3992 446.976C80.9305 447.156 80.6223 447.562 80.5721 448.063C80.512 448.685 80.4594 449.306 80.4168 449.88C80.3416 450.88 79.8804 451.787 79.1135 452.434C78.3541 453.076 77.3942 453.381 76.4068 453.289C73.893 453.053 71.3492 452.028 70.2214 450.793C69.1487 449.62 67.7427 449.118 66.9983 448.923C66.9457 448.908 66.8931 448.903 66.8429 448.903V448.898Z" fill="black"/>
<path d="M86.1938 461.421C76.1488 461.421 65.818 459.517 65.2341 459.409C64.9333 459.354 64.7353 459.063 64.7905 458.762C64.8481 458.462 65.1388 458.264 65.4371 458.319C65.6301 458.354 84.7677 461.883 96.1636 459.439C96.4644 459.374 96.7576 459.567 96.8228 459.865C96.8879 460.166 96.6975 460.459 96.3967 460.524C93.3366 461.178 89.7827 461.424 86.1913 461.424L86.1938 461.421Z" fill="black"/>
<path d="M53.3193 340.686C54.7153 344.776 60.0386 372.385 61.5298 383.199C62.8882 393.036 65.0185 435.053 65.422 442.106C65.4571 442.715 65.9608 443.186 66.5698 443.186H82.3567C82.9482 443.186 83.4419 442.74 83.502 442.151C84.2364 434.838 88.7125 388.086 88.0283 368.282C87.2815 346.653 77.5773 320.921 75.7126 313.836C73.8455 306.751 71.5322 289.982 71.5322 289.982L25.2043 296.944C25.2043 296.944 19.3547 345.535 18.6079 355.232C17.861 364.929 16.4024 396.292 18.2695 413.074C19.4775 423.946 20.3873 439.592 20.8259 443.364C21.0289 445.113 22.5126 446.432 24.277 446.432H36.6052C37.2368 446.432 37.748 445.928 37.7556 445.299C37.8107 440.773 38.4849 417.725 41.3746 402.966C44.7329 385.811 48.4672 358.961 50.3319 348.147C50.9484 344.57 51.4848 340.465 51.9259 336.57C51.9259 336.57 51.9234 336.598 53.3193 340.688V340.686Z" fill="white"/>
<path d="M36.6051 446.986H24.2769C22.2318 446.986 20.5125 445.457 20.2744 443.427C20.1015 441.956 19.8634 438.738 19.5627 434.665C19.0965 428.389 18.4574 419.79 17.7181 413.134C15.8584 396.417 17.3146 364.811 18.0564 355.189C18.7957 345.593 24.5977 297.365 24.6553 296.879C24.6854 296.631 24.8759 296.433 25.124 296.398L71.4519 289.436C71.5973 289.413 71.7477 289.451 71.8655 289.541C71.9858 289.629 72.0635 289.761 72.0835 289.909C72.1061 290.077 74.4143 306.726 76.2514 313.698C76.6223 315.105 77.3065 317.257 78.1712 319.987C81.6022 330.789 87.9856 350.891 88.5846 368.267C89.3165 389.46 84.1085 441.687 84.0559 442.211C83.9681 443.086 83.2388 443.745 82.3591 443.745H66.5723C65.6675 443.745 64.9207 443.041 64.8705 442.141C64.8154 441.159 64.7252 439.497 64.6074 437.337C63.8706 423.688 62.1488 391.723 60.9834 383.279C59.4671 372.292 54.1864 344.944 52.798 340.871C52.5574 340.169 52.3594 339.585 52.194 339.097C51.7704 342.59 51.3293 345.661 50.8857 348.245C50.2391 352.001 49.3669 357.678 48.3569 364.254C46.4672 376.56 44.1188 391.878 41.9259 403.076C38.7229 419.434 38.3194 445.056 38.3169 445.311C38.3044 446.239 37.54 446.993 36.6101 446.993L36.6051 446.986ZM25.708 297.428C25.1315 302.217 19.8634 346.177 19.1642 355.272C18.4248 364.866 16.9737 396.372 18.8233 413.011C19.5652 419.69 20.2043 428.297 20.6704 434.582C20.9712 438.642 21.2093 441.85 21.3797 443.299C21.5526 444.768 22.7982 445.875 24.2794 445.875H36.6076C36.9309 445.875 37.1991 445.612 37.2041 445.289C37.2066 445.033 37.6126 419.309 40.8332 402.856C43.0211 391.678 45.3695 376.375 47.2567 364.079C48.2667 357.5 49.1389 351.816 49.788 348.049C50.3318 344.899 50.8657 341.019 51.3744 336.518C51.3744 336.513 51.3744 336.505 51.3744 336.5C51.412 336.197 51.6902 335.979 51.991 336.017C52.224 336.044 52.4045 336.21 52.4621 336.423C52.4822 336.49 52.6451 336.994 53.8456 340.505C55.2491 344.616 60.5598 372.097 62.0811 383.121C63.254 391.61 64.9783 423.607 65.7152 437.271C65.8304 439.429 65.9207 441.091 65.9758 442.073C65.9933 442.387 66.2565 442.632 66.5723 442.632H82.3591C82.6674 442.632 82.923 442.402 82.9531 442.096C83.0057 441.572 88.2062 389.42 87.4794 368.3C86.8854 351.077 80.5296 331.067 77.1161 320.317C76.2439 317.576 75.5572 315.408 75.1812 313.977C73.5196 307.668 71.487 293.583 71.066 290.611L25.7105 297.425L25.708 297.428Z" fill="black"/>
<path d="M52.2267 340.132C52.2066 340.132 52.1841 340.132 52.164 340.129C51.8608 340.094 51.6402 339.821 51.6753 339.515C51.9886 336.746 52.2292 334.247 52.4046 332.378C52.7455 328.743 54.6277 325.41 57.565 323.235C57.8106 323.052 58.159 323.104 58.3419 323.35C58.5249 323.596 58.4722 323.944 58.2266 324.127C55.5424 326.114 53.8232 329.159 53.5099 332.48C53.3344 334.355 53.0913 336.861 52.7781 339.638C52.7455 339.921 52.5049 340.129 52.2267 340.129V340.132Z" fill="black"/>
<path d="M25.099 318.38C24.7982 318.38 24.5501 318.14 24.5451 317.839C24.5376 317.533 24.7807 317.277 25.0864 317.272C30.8383 317.14 33.5149 311.43 34.3971 308.982C34.4999 308.693 34.8182 308.543 35.1064 308.648C35.3946 308.751 35.5425 309.069 35.4397 309.358C34.4798 312.022 31.55 318.232 25.1115 318.383C25.1065 318.383 25.104 318.383 25.099 318.383V318.38Z" fill="black"/>
<path d="M74.2289 317.448C74.2088 317.448 74.1863 317.448 74.1662 317.445C66.9006 316.621 67.1086 308.288 67.1111 308.205C67.1211 307.899 67.3968 307.676 67.6851 307.671C67.9908 307.681 68.2314 307.939 68.2214 308.245C68.2114 308.546 68.051 315.638 74.2915 316.345C74.5948 316.38 74.8153 316.653 74.7802 316.959C74.7476 317.242 74.5096 317.45 74.2289 317.45V317.448Z" fill="black"/>
<path d="M17.9135 304.323C17.8158 306.127 18.6378 312.827 19.0288 316.892C19.2418 319.12 20.0037 321.26 21.2368 323.127C21.8132 324.002 22.0288 324.533 22.3546 324.944C22.718 325.403 22.4047 326.08 21.8207 326.107L19.2844 326.533C19.2844 326.533 17.52 325.007 17.5376 325.275C18.703 343.187 8.71559 336.13 9.11909 325.684C9.25443 322.22 11.5301 320.566 11.6329 319.165C11.8384 316.353 10.6604 313.749 10.4173 309.899C10.2569 307.383 18.109 300.729 17.9135 304.325V304.323Z" fill="white"/>
<path d="M14.3822 336.811C13.8735 336.811 13.3447 336.658 12.8234 336.353C10.6078 335.062 8.36475 330.876 8.56525 325.664C8.65297 323.375 9.62539 321.814 10.3347 320.674C10.7181 320.057 11.0514 319.523 11.0815 319.125C11.1893 317.666 10.9011 316.255 10.5702 314.621C10.2946 313.263 9.97877 311.721 9.86599 309.934C9.74569 308.052 12.9487 304.802 15.1216 303.476C16.3346 302.736 17.2569 302.543 17.8609 302.904C18.1642 303.085 18.5175 303.483 18.4699 304.353C18.4023 305.614 18.8183 309.543 19.1867 313.012C19.3321 314.383 19.4749 315.711 19.5827 316.839C19.7857 318.964 20.5175 321.032 21.7005 322.821C21.9912 323.26 22.1942 323.618 22.3571 323.907C22.52 324.195 22.6478 324.42 22.7882 324.598C23.0864 324.974 23.1466 325.476 22.9486 325.912C22.7556 326.34 22.3496 326.623 21.8834 326.658L19.3747 327.082C19.2118 327.11 19.0464 327.062 18.9185 326.954C18.6729 326.741 18.3972 326.511 18.1466 326.31C18.3822 331.799 17.5376 335.29 15.6855 336.435C15.282 336.686 14.8384 336.811 14.3797 336.811H14.3822ZM17.1592 303.834C16.9436 303.834 16.485 303.944 15.698 304.423C13.4173 305.814 10.8986 308.714 10.9712 309.864C11.079 311.576 11.3722 313.012 11.6554 314.4C11.9913 316.045 12.3071 317.596 12.1868 319.207C12.1366 319.879 11.7382 320.521 11.277 321.263C10.5978 322.355 9.7507 323.714 9.67301 325.709C9.49507 330.315 11.4174 334.252 13.3797 335.398C14.0238 335.774 14.6028 335.806 15.104 335.495C15.678 335.142 17.5075 333.36 16.9837 325.315C16.9687 325.092 17.1015 324.854 17.302 324.754C17.6053 324.603 17.7782 324.518 19.4499 325.947L21.728 325.563C21.7506 325.561 21.7732 325.558 21.7932 325.556C21.8834 325.551 21.9235 325.491 21.9386 325.455C21.9586 325.415 21.9686 325.353 21.9185 325.29C21.723 325.044 21.5676 324.771 21.3897 324.456C21.2268 324.167 21.0413 323.841 20.7732 323.433C19.4925 321.493 18.698 319.25 18.4774 316.944C18.3697 315.821 18.2293 314.496 18.084 313.13C17.693 309.448 17.2895 305.644 17.3597 304.293C17.3747 304.005 17.3196 303.874 17.2895 303.857C17.2669 303.844 17.2243 303.832 17.1567 303.832L17.1592 303.834Z" fill="black"/>
<path d="M36.9159 250.228C34.763 250.855 29.347 250.326 25.0939 255.995C19.9511 262.852 19.7306 282.378 19.9662 290.782C20.1291 296.619 21.5125 303.619 21.2894 306.619C21.0087 310.411 18.1416 312.967 14.3847 313.553C14.3847 313.553 8.60534 314.694 5.34973 306.578C2.7658 300.137 -0.798084 281.764 0.159302 263.459C1.19689 243.617 20.1015 220.674 44.9334 227.346L36.9134 250.231L36.9159 250.228Z" fill="black"/>
<path d="M65.1537 255.644C70.1111 260.03 76.7902 274.381 78.319 282.945C79.3817 288.894 79.7476 296.017 80.3992 299.095C81.6398 304.939 86.0408 305.611 86.0408 305.611C90.0182 306.243 94.3365 304.817 94.9405 300.751C95.9229 294.15 95.3665 273.589 93.74 265.396C88.8453 240.762 69.8555 218.148 48.6501 225.176L45.5649 243.148C45.7153 243.193 55.3719 246.985 65.1537 255.644Z" fill="black"/>
<path d="M86.6248 317.724C86.6348 318.383 86.6674 319.165 87.0884 320.32L90.1235 329.34C90.344 329.999 91.0458 330.365 91.7124 330.17C92.4042 329.967 92.7976 329.237 92.5846 328.548L91.5044 325.027C91.2212 324.338 91.8578 323.616 92.5721 323.826C94.8452 324.493 97.6172 328.676 97.6172 328.676C97.6172 328.676 98.5044 330.388 99.2788 330.631L99.4818 330.691C100.286 330.932 101.076 330.172 100.915 329.31L99.2988 320.967C99.0983 319.897 98.5495 318.944 97.7425 318.273L94.0683 315.3C91.8653 313.255 92.958 305.634 92.958 305.634C93.5495 303.258 90.5646 302.165 88.9631 301.756C87.2964 301.33 85.5145 302.17 84.9255 303.786C84.8077 304.107 84.7401 304.446 84.7275 304.794L86.6273 317.726L86.6248 317.724Z" fill="white"/>
<path d="M99.785 331.29C99.6296 331.29 99.4742 331.267 99.3213 331.222L99.1208 331.162C98.1935 330.874 97.3364 329.335 97.1409 328.959C96.384 327.824 94.1083 324.854 92.4191 324.358C92.2412 324.308 92.1259 324.408 92.0833 324.455C92.0382 324.503 91.9455 324.636 92.0206 324.816L93.1184 328.385C93.2637 328.861 93.2136 329.365 92.978 329.804C92.7424 330.242 92.349 330.561 91.8703 330.701C90.9154 330.982 89.9179 330.46 89.5996 329.518L86.5646 320.498C86.141 319.333 86.0859 318.511 86.0733 317.771L84.1786 304.874C84.1736 304.842 84.1711 304.807 84.1736 304.774C84.1886 304.373 84.2663 303.977 84.4067 303.596C85.0733 301.761 87.1335 300.716 89.1009 301.22C92.3916 302.06 93.9931 303.706 93.5043 305.739C93.2136 307.801 92.8226 313.385 94.4442 314.894L98.0908 317.842C99.0005 318.598 99.6221 319.671 99.8451 320.867L101.462 329.207C101.577 329.826 101.366 330.44 100.9 330.859C100.584 331.142 100.188 331.295 99.7875 331.295L99.785 331.29ZM92.3214 323.235C92.4567 323.235 92.5946 323.255 92.7299 323.295C95.1685 324.012 97.9629 328.195 98.0807 328.373C98.0908 328.388 98.1008 328.405 98.1108 328.423C98.4893 329.152 99.1158 329.999 99.4441 330.102L99.6396 330.16C99.8928 330.235 100.086 330.095 100.158 330.029C100.334 329.871 100.414 329.641 100.371 329.41L98.7549 321.07C98.5795 320.125 98.0933 319.283 97.3865 318.696L93.7174 315.729C91.3414 313.523 92.2913 306.363 92.4091 305.553C92.4116 305.536 92.4166 305.516 92.4191 305.498C92.8853 303.629 90.3665 302.686 88.8252 302.293C87.4066 301.932 85.9229 302.669 85.4468 303.974C85.3515 304.233 85.2989 304.498 85.2839 304.766L87.1761 317.646C87.1811 317.671 87.1811 317.694 87.1811 317.719C87.1936 318.4 87.2337 319.097 87.6122 320.135L90.6497 329.167C90.7775 329.543 91.1735 329.754 91.557 329.641C91.7475 329.586 91.9054 329.458 92.0006 329.282C92.0958 329.107 92.1159 328.907 92.0557 328.716L90.9755 325.195C90.7775 324.724 90.8803 324.14 91.2562 323.719C91.5369 323.408 91.9204 323.24 92.3214 323.24V323.235Z" fill="black"/>
<path d="M6.43481 244.757C6.43481 244.757 22.4622 215.903 60.111 223.604C97.7598 231.306 75.344 304.295 75.344 304.295L20.8633 304.172L6.43481 244.759V244.757Z" fill="black"/>
<path d="M21.8083 306.273H21.8033C21.4975 306.27 21.2519 306.02 21.2544 305.711C21.2795 303.185 20.7582 297.731 20.297 292.917C20.1692 291.574 20.0439 290.275 19.9361 289.092C19.0113 278.92 19.9061 269.017 22.5251 260.459C22.6153 260.165 22.9236 260 23.2168 260.09C23.51 260.18 23.6755 260.491 23.5852 260.782C21.0088 269.205 20.1291 278.96 21.0414 288.99C21.1492 290.17 21.272 291.466 21.4023 292.809C21.866 297.649 22.3923 303.135 22.3647 305.719C22.3622 306.022 22.1141 306.268 21.8108 306.268L21.8083 306.273Z" fill="white"/>
<path d="M40.3544 280.927C40.1965 280.927 40.0386 280.859 39.9283 280.729C39.7328 280.493 39.7629 280.145 39.9985 279.947C46.7578 274.301 52.8254 266.611 57.5397 257.712C57.6825 257.441 58.0209 257.338 58.2891 257.481C58.5597 257.624 58.6625 257.96 58.5196 258.231C53.7377 267.256 47.5774 275.06 40.7077 280.799C40.605 280.887 40.4772 280.927 40.3519 280.927H40.3544Z" fill="white"/>
<path d="M40.2666 206.614C40.2341 206.815 40.1263 215.587 39.7579 218.935C39.5524 220.797 38.8957 222.581 37.8456 224.133L35.8958 227.015C37.7704 227.627 40.2967 228.007 44.2967 227.709C48.3769 227.406 51.4796 226.105 53.2465 225.203C52.9106 224.752 52.4094 224.185 51.7001 223.657C50.5798 222.825 49.4721 222.484 48.7854 222.331C49.2716 219.855 49.3543 210.787 49.8405 208.313L40.2641 206.614H40.2666Z" fill="white"/>
<path d="M41.6602 228.369C39.3469 228.369 37.4221 228.098 35.7254 227.541C35.56 227.486 35.4296 227.359 35.372 227.193C35.3169 227.028 35.3394 226.847 35.4372 226.702L37.387 223.82C38.382 222.349 39.0111 220.637 39.2065 218.872C39.4847 216.354 39.6126 210.74 39.6727 208.04C39.7053 206.659 39.7078 206.597 39.7203 206.517C39.7454 206.371 39.8281 206.241 39.9484 206.156C40.0687 206.07 40.2166 206.035 40.3644 206.063L49.9408 207.762C50.0861 207.787 50.2165 207.872 50.3017 207.995C50.3869 208.118 50.417 208.268 50.3894 208.416C50.1538 209.614 50.011 212.529 49.8706 215.346C49.7403 217.98 49.6175 220.484 49.4195 221.915C50.3668 222.186 51.2465 222.622 52.0335 223.208C52.6651 223.677 53.2215 224.236 53.6951 224.867C53.7929 224.998 53.828 225.166 53.7904 225.326C53.7528 225.486 53.6475 225.619 53.5022 225.694C50.635 227.158 47.5523 228.02 44.3418 228.258C43.392 228.328 42.5023 228.366 41.6627 228.366L41.6602 228.369ZM36.7805 226.699C38.8055 227.238 41.2065 227.384 44.2566 227.156C47.0887 226.945 49.818 226.223 52.3743 225.015C52.0711 224.679 51.7328 224.374 51.3693 224.103C50.5673 223.506 49.6576 223.093 48.6676 222.875C48.3744 222.81 48.1839 222.521 48.2441 222.226C48.4796 221.028 48.6225 218.113 48.7629 215.296C48.8907 212.687 49.0135 210.203 49.2115 208.765L40.803 207.273C40.798 207.502 40.7905 207.777 40.7855 208.07C40.7228 210.785 40.595 216.431 40.3118 218.998C40.0963 220.943 39.4045 222.825 38.3093 224.446L36.7855 226.699H36.7805Z" fill="black"/>
<path d="M48.565 195.058C47.8006 194.043 46.8683 193.176 45.7154 192.67C44.9209 192.321 44.0588 192.163 43.2016 192.046C41.9335 191.873 40.6377 191.82 39.3646 191.97C38.8332 192.033 38.2217 192.316 37.7105 192.326C37.144 192.339 36.5075 191.925 35.9761 191.755C35.104 191.477 34.1466 191.409 33.2719 191.677C32.3972 191.945 31.6128 192.574 31.2644 193.421C30.7982 194.547 31.1366 195.835 30.9787 197.043C30.7682 198.652 29.683 200.238 30.2017 201.775C30.4875 202.622 31.2093 203.238 31.8985 203.81C32.8007 204.557 33.6553 205.399 34.708 205.913C36.5927 206.83 38.6503 206.434 40.6478 206.73C42.3545 206.983 43.4924 208.391 44.3771 209.752C44.6653 210.196 44.773 210.807 44.9084 211.309C45.2167 212.466 45.4422 213.752 46.3821 214.592C47.5174 215.607 50.3269 216.298 55.1088 214.524C55.8557 214.246 56.3043 213.481 56.1689 212.697C55.986 211.652 55.7479 210.319 55.4146 209.068C55.4146 206.674 53.8607 204.168 52.5499 202.294C51.4021 200.649 50.7028 198.742 49.768 196.968C49.4196 196.309 49.0261 195.66 48.575 195.061L48.565 195.058Z" fill="white"/>
<path d="M49.8732 216.173C47.5725 216.173 46.4096 215.366 46.0061 215.005C45.0562 214.153 44.748 212.943 44.4748 211.872L44.367 211.454C44.342 211.356 44.3169 211.253 44.2918 211.151C44.1941 210.752 44.0913 210.339 43.9084 210.055C43.0989 208.807 42.0688 207.502 40.5651 207.278C39.9084 207.181 39.2493 207.163 38.5525 207.143C37.2017 207.106 35.8057 207.065 34.4624 206.411C33.5751 205.978 32.8333 205.341 32.119 204.725C31.9285 204.562 31.7381 204.396 31.5451 204.236C30.8659 203.674 30.0213 202.975 29.6754 201.95C29.2845 200.787 29.6504 199.67 30.0037 198.587C30.1867 198.025 30.3596 197.494 30.4298 196.97C30.4849 196.552 30.4724 196.116 30.4624 195.652C30.4423 194.847 30.4198 194.013 30.7531 193.208C31.1491 192.249 32.0313 191.477 33.1115 191.146C34.0413 190.86 35.0939 190.888 36.1491 191.226C36.3445 191.289 36.5526 191.379 36.7656 191.474C37.1014 191.622 37.4448 191.787 37.7054 191.772C37.916 191.767 38.1992 191.687 38.4748 191.609C38.7455 191.532 39.0262 191.454 39.3069 191.421C40.53 191.279 41.8683 191.304 43.2843 191.499C44.1064 191.612 45.0638 191.78 45.946 192.166C47.0763 192.662 48.1089 193.524 49.0161 194.73C49.4497 195.306 49.8557 195.955 50.2567 196.712C50.585 197.334 50.8883 197.978 51.179 198.599C51.7454 199.802 52.2792 200.94 53.0035 201.98C54.3694 203.938 55.9384 206.497 55.9684 208.998C56.2892 210.213 56.5223 211.496 56.7153 212.607C56.8957 213.652 56.3043 214.677 55.3018 215.05C53.0336 215.892 51.2542 216.181 49.8783 216.181L49.8732 216.173ZM34.4423 192.058C34.119 192.058 33.7756 192.098 33.4298 192.206C32.6629 192.441 32.0438 192.973 31.7706 193.632C31.5275 194.221 31.5451 194.903 31.5626 195.624C31.5752 196.108 31.5877 196.609 31.5225 197.113C31.4423 197.74 31.2443 198.346 31.0514 198.933C30.7406 199.885 30.4448 200.785 30.7205 201.599C30.9461 202.271 31.52 202.782 32.2443 203.384C32.4423 203.547 32.6403 203.717 32.8358 203.885C33.5275 204.481 34.1842 205.045 34.9435 205.414C36.0714 205.963 37.2894 205.998 38.5776 206.033C39.2768 206.053 39.9986 206.073 40.7204 206.181C42.6753 206.469 43.9435 208.08 44.8332 209.451C45.1164 209.89 45.2492 210.419 45.362 210.882L45.545 211.599C45.8006 212.604 46.0412 213.554 46.7404 214.181C47.8307 215.156 50.5499 215.622 54.9058 214.005C55.4045 213.82 55.7003 213.311 55.61 212.792C55.4171 211.684 55.184 210.404 54.8657 209.211C54.8532 209.163 54.8456 209.116 54.8456 209.068C54.8456 206.852 53.3695 204.454 52.0812 202.612C51.3018 201.494 50.7229 200.261 50.1615 199.068C49.8758 198.459 49.58 197.827 49.2617 197.228C48.8908 196.524 48.5149 195.925 48.1164 195.394C47.3119 194.329 46.4522 193.604 45.4873 193.181C44.7304 192.85 43.9034 192.705 43.1189 192.597C41.7956 192.416 40.55 192.391 39.4197 192.522C39.2267 192.544 38.9987 192.609 38.7606 192.677C38.4197 192.775 38.0663 192.875 37.713 192.88C37.2017 192.88 36.728 192.675 36.3019 192.487C36.1265 192.409 35.9561 192.334 35.7982 192.281C35.4373 192.166 34.9586 192.058 34.4348 192.058H34.4423Z" fill="black"/>
<path d="M44.7704 199.364C44.8531 199.755 45.7328 200.314 46.031 200.574C46.031 200.574 46.8806 206.361 47.5799 208.324C48.2791 210.286 54.5197 208.579 54.5197 208.579L54.6099 206.637L55.8655 205.975C56.1187 205.842 56.2039 205.524 56.0485 205.284C55.0134 203.675 54.1738 201.925 53.6726 200.073C53.1462 198.123 53.1638 196.083 52.5372 194.148C52.0435 192.622 51.1713 191.168 49.8455 190.266C48.5323 189.371 46.8957 189.088 45.3067 189.008C41.7654 188.83 39.3393 189.82 37.0486 192.499C36.8907 192.682 36.7303 192.873 36.6552 193.103C36.4872 193.607 36.8657 194.018 37.3093 194.193C37.9659 194.452 38.7028 194.296 39.402 194.193C40.5398 194.028 41.6977 194.015 42.8406 194.153C43.6751 194.254 44.5223 194.447 45.2165 194.915C45.9132 195.384 46.437 196.181 46.3919 197.018C46.3644 197.539 46.1237 198.035 45.813 198.449C45.6952 198.607 44.7854 199.186 44.7679 199.256C44.7604 199.291 44.7604 199.326 44.7679 199.366L44.7704 199.364Z" fill="white"/>
<path d="M50.0761 209.82C48.6726 209.82 47.4145 209.512 47.0561 208.507C46.417 206.71 45.6777 201.955 45.5123 200.867C45.4747 200.837 45.4321 200.807 45.3895 200.775C44.7905 200.321 44.3243 199.938 44.2266 199.477C44.2015 199.356 44.2015 199.238 44.2266 199.126C44.2842 198.885 44.412 198.795 44.8882 198.456C45.0511 198.341 45.3268 198.146 45.392 198.081C45.5674 197.842 45.8105 197.431 45.8356 196.983C45.8681 196.404 45.5022 195.772 44.9057 195.369C44.3895 195.02 43.7328 194.815 42.7729 194.697C41.6802 194.564 40.5724 194.577 39.4822 194.735L39.2617 194.767C38.5925 194.87 37.8331 194.985 37.1063 194.7C36.2993 194.384 35.8883 193.634 36.1289 192.918C36.2417 192.579 36.4547 192.331 36.6276 192.131C38.9985 189.359 41.605 188.256 45.3368 188.447C47.427 188.552 48.9608 188.983 50.1588 189.8C51.8079 190.925 52.65 192.69 53.0661 193.97C53.422 195.066 53.5773 196.186 53.7277 197.271C53.8555 198.191 53.9758 199.06 54.2089 199.92C54.6651 201.604 55.4395 203.306 56.5147 204.973C56.6726 205.218 56.7202 205.519 56.6475 205.8C56.5723 206.08 56.3843 206.321 56.1262 206.456L55.1513 206.97L55.0761 208.597C55.0636 208.837 54.9006 209.043 54.6676 209.106C54.0285 209.281 51.9257 209.812 50.0761 209.812V209.82ZM45.4697 199.409C45.6501 199.579 45.9208 199.785 46.0611 199.89C46.1965 199.993 46.3143 200.083 46.3945 200.153C46.4947 200.241 46.5599 200.359 46.5774 200.489C46.5849 200.547 47.427 206.243 48.1012 208.131C48.427 209.043 51.6024 208.735 53.9834 208.138L54.0535 206.602C54.0636 206.406 54.1738 206.228 54.3493 206.138L55.5397 205.509C54.4245 203.765 53.6149 201.983 53.1362 200.208C52.8856 199.281 52.7553 198.336 52.6275 197.424C52.4771 196.339 52.3343 195.314 52.0084 194.311C51.645 193.193 50.9232 191.665 49.5323 190.715C48.5097 190.015 47.1564 189.647 45.2792 189.552C41.8882 189.381 39.6201 190.336 37.4697 192.848C37.3494 192.988 37.2241 193.133 37.1815 193.266C37.1038 193.499 37.5073 193.662 37.5123 193.662C37.9609 193.837 38.5123 193.755 39.0938 193.665L39.3218 193.629C40.5098 193.457 41.7153 193.444 42.9058 193.587C43.615 193.672 44.6601 193.855 45.5273 194.439C46.4546 195.063 46.9985 196.058 46.9458 197.033C46.9132 197.609 46.6777 198.208 46.2566 198.767C46.1513 198.905 45.9659 199.045 45.5323 199.351C45.5098 199.366 45.4872 199.384 45.4646 199.399L45.4697 199.409Z" fill="black"/>
<path d="M45.2868 204.564C45.2868 204.564 43.6903 200.91 42.3519 201.855C41.0136 202.797 42.8632 206.785 45.2868 204.564Z" fill="white"/>
<path d="M55.9409 204.113C55.803 204.113 55.6652 204.063 55.5599 203.96C55.3369 203.75 55.3294 203.399 55.5399 203.176C55.6101 203.101 55.6953 203.018 55.788 202.925C56.3795 202.331 57.3669 201.339 57.3544 200.356C57.3444 199.507 57.1714 198.687 56.8807 198.106C56.6602 197.665 56.3845 197.391 56.1614 197.391H56.1589C55.768 197.396 55.2467 198.201 55.0837 199.494C55.0462 199.797 54.7755 200.015 54.4647 199.975C54.1614 199.938 53.9459 199.659 53.9835 199.356C54.2166 197.502 55.0662 196.296 56.1464 196.284C56.8456 196.284 57.4421 196.747 57.8732 197.609C58.2416 198.346 58.4521 199.316 58.4647 200.344C58.4822 201.792 57.2892 202.993 56.575 203.71C56.4897 203.795 56.4121 203.873 56.3469 203.943C56.2366 204.058 56.0913 204.116 55.9434 204.116L55.9409 204.113Z" fill="black"/>
<path d="M50.9357 204.97C50.1387 204.97 49.4019 204.504 48.863 203.657C48.3693 202.883 48.0911 201.86 48.0786 200.775C48.051 198.404 49.2716 196.532 50.863 196.512C51.66 196.499 52.4169 196.968 52.9633 197.825C53.457 198.599 53.7352 199.622 53.7477 200.705C53.7753 203.076 52.5522 204.948 50.9633 204.968H50.9382L50.9357 204.97ZM50.8856 197.622H50.8756C49.9558 197.634 49.1688 199.101 49.1888 200.762C49.1989 201.642 49.4169 202.456 49.8004 203.06C49.9908 203.361 50.3918 203.86 50.9382 203.86H50.9482C51.868 203.847 52.655 202.381 52.6374 200.72C52.6274 199.84 52.4094 199.025 52.0259 198.421C51.8354 198.121 51.4344 197.622 50.8856 197.622Z" fill="black"/>
<path d="M48.8004 199.695H48.7954L45.8932 199.675C45.5874 199.675 45.3393 199.421 45.3418 199.116C45.3418 198.81 45.5924 198.564 45.8957 198.564H45.9007L48.8029 198.584C49.1087 198.584 49.3568 198.837 49.3543 199.143C49.3543 199.449 49.1037 199.695 48.8004 199.695Z" fill="black"/>
<path d="M135.499 185.484C132.471 183.028 130.817 179.943 134.584 176.935C138.399 173.89 143.75 175.649 146.757 178.97C148.83 181.258 151.384 190.354 146.115 190.469C145.313 190.486 144.529 190.243 143.775 189.975C141.702 189.236 138.095 187.589 135.499 185.484Z" fill="white"/>
<path d="M146.033 191.028C145.143 191.028 144.306 190.757 143.589 190.501C141.291 189.679 137.699 187.985 135.151 185.917C132.955 184.136 131.845 182.351 131.852 180.614C131.857 179.148 132.659 177.765 134.238 176.504C138.246 173.304 143.96 175.055 147.168 178.599C148.707 180.299 150.684 185.832 149.348 188.938C148.774 190.271 147.662 190.993 146.13 191.025C146.098 191.025 146.065 191.025 146.033 191.025V191.028ZM135.847 185.055C138.288 187.035 141.742 188.662 143.96 189.456C144.609 189.689 145.384 189.925 146.103 189.917C147.201 189.892 147.927 189.429 148.328 188.499C149.441 185.915 147.702 180.842 146.346 179.344C143.481 176.181 138.429 174.577 134.93 177.369C133.627 178.409 132.965 179.502 132.96 180.617C132.955 182.003 133.928 183.494 135.847 185.053V185.055Z" fill="black"/>
<path d="M156.93 202.679C157.551 202.078 158.206 201.504 158.895 200.96C161.619 198.81 165.04 197.466 167.481 195.03C170.456 192.06 170.659 188.226 167.747 185.125C165.105 182.313 160.749 181.025 156.581 180.963C154.178 180.927 151.516 181.321 149.592 182.617C147.624 183.94 147.201 186.343 145.1 187.531C142.973 188.734 139.772 188.12 137.376 188.431C133.539 188.93 130.805 191.957 129.532 195.11C128.156 198.514 130.223 200.331 133.296 202.178C137.256 204.559 138.785 208.421 142.594 210.792C146.97 213.514 150.742 211.732 152.754 208.098C153.842 206.133 155.258 204.306 156.932 202.682L156.93 202.679Z" fill="white"/>
<path d="M146.757 212.662C145.306 212.662 143.792 212.188 142.299 211.261C140.359 210.055 138.988 208.471 137.659 206.942C136.268 205.336 134.953 203.82 133.01 202.654C130.108 200.91 127.411 198.877 129.018 194.902C130.243 191.872 133.065 188.436 137.306 187.882C138.151 187.772 139.053 187.775 140.008 187.772C141.752 187.775 143.547 187.772 144.83 187.048C145.815 186.491 146.401 185.614 147.025 184.687C147.632 183.782 148.256 182.847 149.286 182.156C151.519 180.654 154.494 180.381 156.594 180.406C161.419 180.479 165.634 182.06 168.155 184.745C171.218 188.005 171.11 192.196 167.877 195.421C166.419 196.877 164.619 197.958 162.877 199C161.642 199.742 160.364 200.506 159.243 201.394C158.572 201.922 157.925 202.489 157.321 203.075C155.669 204.677 154.298 206.456 153.243 208.363C152.063 210.494 150.339 211.947 148.384 212.454C147.855 212.591 147.314 212.659 146.762 212.659L146.757 212.662ZM139.842 188.88C138.985 188.88 138.173 188.885 137.446 188.98C133.68 189.471 131.153 192.574 130.043 195.316C128.878 198.196 130.386 199.782 133.579 201.699C135.675 202.957 137.108 204.612 138.497 206.213C139.83 207.749 141.088 209.201 142.885 210.318C144.705 211.451 146.459 211.81 148.1 211.381C149.757 210.95 151.236 209.689 152.268 207.827C153.379 205.825 154.817 203.957 156.547 202.281C157.178 201.667 157.855 201.078 158.554 200.524C159.732 199.594 161.04 198.81 162.306 198.05C164.065 196.995 165.729 195.998 167.093 194.637C169.905 191.83 170 188.331 167.346 185.504C165.028 183.038 161.103 181.584 156.577 181.517C154.639 181.489 151.897 181.735 149.902 183.075C149.055 183.644 148.516 184.451 147.945 185.303C147.278 186.298 146.589 187.326 145.376 188.013C143.837 188.882 141.89 188.875 140.008 188.88C139.953 188.88 139.9 188.88 139.847 188.88H139.842Z" fill="black"/>
<path d="M174.511 418.051L178.987 435.023C179.882 438.417 180.118 441.948 179.684 445.429L178.787 452.599L201.393 448.91L198.471 446.757C193.398 443.021 189.817 437.607 188.361 431.477L184.471 415.103L174.511 418.051Z" fill="white"/>
<path d="M178.787 453.153C178.644 453.153 178.506 453.098 178.403 452.998C178.278 452.878 178.215 452.702 178.238 452.529L179.135 445.359C179.564 441.933 179.333 438.502 178.454 435.164L173.977 418.191C173.902 417.901 174.07 417.602 174.356 417.517L184.316 414.57C184.461 414.527 184.619 414.545 184.752 414.622C184.885 414.698 184.977 414.825 185.012 414.973L188.902 431.347C190.326 437.342 193.842 442.655 198.802 446.309L201.722 448.462C201.902 448.595 201.985 448.823 201.932 449.038C201.879 449.256 201.704 449.419 201.483 449.457L178.877 453.146C178.847 453.151 178.817 453.153 178.787 453.153ZM175.185 418.429L179.524 434.88C180.441 438.357 180.679 441.928 180.233 445.497L179.428 451.93L200.002 448.572L198.143 447.201C192.97 443.392 189.306 437.853 187.822 431.602L184.068 415.798L175.185 418.424V418.429Z" fill="black"/>
<path d="M176.586 456.103C176.416 453.108 176.376 447.141 178.328 443.399C178.677 442.733 179.479 442.447 180.175 442.725L185.348 444.795C186.15 445.116 187.025 444.524 187.025 443.66V443.306C187.025 442.805 187.418 442.392 187.917 442.367L192.373 442.134C194.035 442.046 195.694 442.359 197.213 443.041C201.822 445.106 211.606 449.986 213.947 455.086C214.478 456.246 213.616 457.569 212.34 457.627C208.3 457.808 198.08 458.128 178.539 457.963C177.499 457.953 176.647 457.141 176.586 456.103Z" fill="white"/>
<path d="M189.03 458.567C185.877 458.567 182.388 458.552 178.534 458.519C177.205 458.507 176.108 457.462 176.033 456.136C175.85 452.925 175.84 446.966 177.837 443.143C178.316 442.224 179.411 441.823 180.383 442.211L185.556 444.281C185.767 444.364 185.992 444.339 186.18 444.214C186.368 444.088 186.474 443.885 186.474 443.66V443.306C186.474 442.509 187.098 441.853 187.892 441.813L192.348 441.58C194.088 441.487 195.847 441.82 197.443 442.534C202.784 444.93 212.097 449.715 214.453 454.855C214.774 455.552 214.721 456.364 214.318 457.028C213.899 457.715 213.17 458.146 212.368 458.183C208.874 458.339 201.646 458.567 189.032 458.567H189.03ZM179.622 443.176C179.291 443.176 178.98 443.354 178.82 443.66C176.947 447.246 176.962 452.978 177.14 456.076C177.183 456.82 177.799 457.407 178.544 457.412C197.782 457.574 207.962 457.274 212.318 457.078C212.749 457.058 213.143 456.825 213.371 456.454C213.586 456.101 213.614 455.69 213.446 455.321C211.158 450.331 201.175 445.427 196.99 443.552C195.554 442.908 193.97 442.612 192.406 442.692L187.95 442.925C187.744 442.935 187.581 443.106 187.581 443.311V443.665C187.581 444.256 187.291 444.805 186.802 445.136C186.313 445.467 185.694 445.534 185.145 445.314L179.972 443.244C179.857 443.199 179.739 443.176 179.624 443.176H179.622Z" fill="black"/>
<path d="M194.759 455.126C190.699 455.126 185.724 455.031 179.789 454.76C179.483 454.745 179.245 454.487 179.26 454.181C179.275 453.875 179.536 453.645 179.839 453.652C199.381 454.547 208.458 453.522 208.548 453.512C208.857 453.474 209.127 453.695 209.165 453.998C209.2 454.301 208.982 454.577 208.679 454.615C208.616 454.622 204.132 455.128 194.762 455.128L194.759 455.126Z" fill="black"/>
<path d="M199.842 450.321C199.737 450.321 199.631 450.291 199.539 450.231L191.847 445.186C191.591 445.018 191.519 444.675 191.686 444.419C191.854 444.164 192.198 444.091 192.453 444.259L200.145 449.304C200.401 449.472 200.473 449.815 200.305 450.071C200.2 450.234 200.022 450.321 199.842 450.321Z" fill="black"/>
<path d="M128.697 420.918L125.963 440.111H119.043L119.717 421.234L128.697 420.918Z" fill="white"/>
<path d="M125.963 440.665H119.043C118.893 440.665 118.747 440.605 118.644 440.494C118.539 440.387 118.484 440.241 118.489 440.088L119.161 421.214C119.171 420.923 119.404 420.69 119.695 420.68L128.674 420.364C128.835 420.354 128.998 420.427 129.106 420.547C129.216 420.67 129.266 420.833 129.241 420.996L126.507 440.189C126.466 440.462 126.233 440.665 125.958 440.665H125.963ZM119.617 439.555H125.479L128.05 421.495L120.248 421.77L119.614 439.555H119.617Z" fill="black"/>
<path d="M173.378 294.643C173.378 294.643 182.451 353.244 182.812 367.237C183.173 381.232 188.995 423.575 188.995 423.575C188.995 423.575 181.516 426.352 172.975 424.409C172.975 424.409 146.196 349.422 144.193 326.433C142.191 303.443 148.882 292.919 148.882 292.919L173.376 294.641L173.378 294.643Z" fill="black"/>
<path d="M164.504 290.997C164.504 290.997 133.752 384.901 133.248 423.074C133.248 423.074 126.471 424.665 116.73 423.074C116.73 423.074 110.484 318.272 128.489 288.912L164.506 290.997H164.504Z" fill="black"/>
<path d="M125.697 457.97C122.865 458.274 118.895 458.998 112.833 458.028C111.058 457.745 109.94 455.96 110.427 454.231C111.707 449.675 114.391 441.261 117.787 436.853C118.033 436.534 118.537 436.62 118.667 437.003L118.787 437.795C118.86 438.271 119.504 438.364 119.71 437.93L120.457 436.346C120.632 436.053 120.938 435.863 121.279 435.83L123.905 435.73C124.462 435.677 124.965 436.063 125.063 436.612L125.153 437.863C125.188 438.349 125.835 438.487 126.068 438.061L127.201 436.898C127.429 436.587 127.925 436.755 127.915 437.143L127.78 442.131C127.682 445.735 127.943 449.336 128.559 452.888L128.87 454.672C129.033 456.319 127.341 457.795 125.695 457.973L125.697 457.97Z" fill="white"/>
<path d="M118.797 459.071C117.043 459.071 115.041 458.943 112.747 458.577C111.755 458.419 110.873 457.84 110.329 456.988C109.777 456.126 109.62 455.068 109.898 454.083C111.203 449.442 113.908 440.991 117.354 436.517C117.592 436.209 117.978 436.058 118.364 436.118C118.752 436.181 119.071 436.452 119.198 436.825C119.208 436.855 119.216 436.888 119.221 436.92L119.309 437.494L119.963 436.111C120.254 435.62 120.72 435.326 121.233 435.279L123.89 435.176C124.695 435.096 125.469 435.687 125.614 436.517C125.619 436.534 125.619 436.555 125.622 436.572L125.7 437.647L126.787 436.532C127.038 436.221 127.454 436.101 127.832 436.234C128.228 436.369 128.484 436.74 128.474 437.159L128.339 442.146C128.243 445.705 128.502 449.286 129.111 452.795L129.421 454.579C129.622 456.61 127.652 458.324 125.76 458.527C125.401 458.564 125.025 458.61 124.629 458.657C123.055 458.845 121.151 459.073 118.8 459.073L118.797 459.071ZM118.153 437.291C114.855 441.645 112.236 449.853 110.963 454.381C110.772 455.061 110.88 455.792 111.261 456.389C111.642 456.983 112.231 457.371 112.92 457.482C118.136 458.316 121.81 457.875 124.492 457.552C124.893 457.504 125.274 457.459 125.637 457.419C126.985 457.274 128.449 456.066 128.319 454.725L128.015 452.98C127.394 449.402 127.128 445.745 127.226 442.113L127.349 437.54L126.509 438.402C126.274 438.76 125.845 438.938 125.421 438.845C124.965 438.748 124.637 438.369 124.602 437.903L124.514 436.687C124.459 436.434 124.223 436.261 123.96 436.284L121.304 436.387C121.171 436.399 121.02 436.494 120.938 436.635L120.216 438.171C120.018 438.587 119.577 438.82 119.123 438.758C118.667 438.69 118.314 438.339 118.243 437.883L118.153 437.296V437.291Z" fill="black"/>
<path d="M119.8 455.502C118.068 455.502 116 455.299 113.685 454.69C113.389 454.612 113.211 454.309 113.289 454.013C113.366 453.717 113.67 453.539 113.965 453.617C120.447 455.321 124.983 453.652 125.028 453.635C125.316 453.527 125.634 453.67 125.742 453.955C125.85 454.241 125.707 454.562 125.421 454.67C125.291 454.72 123.188 455.499 119.797 455.499L119.8 455.502Z" fill="black"/>
<path d="M122.933 448.484H116.587C116.281 448.484 116.033 448.236 116.033 447.93C116.033 447.625 116.281 447.376 116.587 447.376H122.933C123.238 447.376 123.487 447.625 123.487 447.93C123.487 448.236 123.238 448.484 122.933 448.484Z" fill="black"/>
<path d="M218.328 203.872L224.183 197.77C225.178 196.734 226.852 197.9 226.225 199.191L224.423 202.91C224.423 202.91 225.654 203.481 226.263 203.519C227.599 203.604 228.889 203.03 229.814 202.065C230.884 200.947 232.614 199.168 233.198 198.732C234.067 198.083 235.187 197.075 236.431 196.975H236.468C237.766 196.877 238.613 198.306 237.907 199.399L235.458 203.183C233.681 205.93 231.075 208.035 228.017 209.195L220.102 212.198L219.516 234.764L209.238 226.91L213.854 211.985C214.777 209.003 216.298 206.243 218.325 203.87L218.328 203.872Z" fill="white"/>
<path d="M219.518 235.321C219.398 235.321 219.28 235.283 219.183 235.208L208.904 227.353C208.719 227.213 208.644 226.97 208.712 226.749L213.328 211.825C214.278 208.752 215.819 205.957 217.907 203.514C217.914 203.506 217.919 203.499 217.927 203.489L223.782 197.384C224.413 196.724 225.378 196.629 226.127 197.151C226.877 197.672 227.122 198.609 226.724 199.431L225.175 202.629C225.586 202.792 226.05 202.95 226.298 202.968C227.426 203.038 228.563 202.572 229.413 201.684C230.661 200.381 232.273 198.732 232.867 198.288C232.984 198.201 233.11 198.103 233.238 198.005C234.092 197.346 235.152 196.524 236.388 196.424C237.245 196.361 238.004 196.76 238.418 197.459C238.834 198.158 238.817 199.018 238.375 199.702L235.929 203.486C234.075 206.351 231.411 208.506 228.22 209.717L220.654 212.586L220.077 234.782C220.072 234.99 219.949 235.178 219.762 235.268C219.686 235.303 219.604 235.323 219.521 235.323L219.518 235.321ZM209.884 226.707L218.992 233.666L219.551 212.185C219.556 211.96 219.699 211.762 219.909 211.682L227.824 208.679C230.792 207.554 233.273 205.549 234.997 202.882L237.443 199.098C237.659 198.765 237.666 198.364 237.463 198.023C237.26 197.682 236.899 197.494 236.511 197.524C235.571 197.599 234.694 198.281 233.917 198.88C233.784 198.983 233.656 199.083 233.531 199.173C233.122 199.479 231.914 200.672 230.215 202.446C229.137 203.572 227.681 204.163 226.228 204.07C225.533 204.025 224.325 203.474 224.19 203.411C224.055 203.348 223.952 203.233 223.902 203.095C223.852 202.955 223.859 202.802 223.924 202.667L225.726 198.945C225.919 198.544 225.734 198.226 225.493 198.058C225.253 197.892 224.889 197.827 224.581 198.148L218.736 204.241C216.752 206.566 215.288 209.226 214.386 212.148L209.884 226.702V226.707Z" fill="black"/>
<path d="M236.664 240.604L208.04 220.626C208.04 220.626 197.451 233.734 192.17 234.263C187.682 234.714 177.065 224.481 173.983 221.403C172.313 219.438 170.018 218.037 167.419 217.509C161.484 216.301 151.048 212.183 134.675 218.276C134.675 218.276 126.677 222.822 126.168 229.443C125.614 236.659 130.747 249.721 128.92 259.3C125.577 276.821 121.742 282.553 119.828 296.922C119.828 296.922 119.439 306.784 124.251 307.097L175.536 310.079C178.561 310.195 182.258 295.302 182.599 292.292C183.073 288.082 183.083 280.626 181.343 267.541C181.035 265.225 180.882 261.055 180.617 256.032C191.331 258.827 211.965 260.05 236.664 240.604Z" fill="white"/>
<path d="M175.566 310.636C175.549 310.636 175.534 310.636 175.516 310.636L124.218 307.653C118.925 307.31 119.256 297.328 119.274 296.904C120.296 289.215 121.82 284.112 123.584 278.205C125.093 273.155 126.802 267.433 128.374 259.203C129.414 253.757 128.133 247.017 127.003 241.07C126.166 236.671 125.376 232.514 125.614 229.406C126.138 222.569 134.06 217.99 134.399 217.797C134.424 217.782 134.451 217.769 134.479 217.759C148.817 212.424 158.504 214.794 164.915 216.361C165.855 216.591 166.744 216.807 167.529 216.967C170.19 217.509 172.632 218.96 174.403 221.048C180.742 227.373 188.732 234.06 192.113 233.714C197.103 233.213 207.501 220.408 207.604 220.281C207.787 220.055 208.115 220.007 208.353 220.175L236.977 240.153C237.12 240.253 237.21 240.416 237.215 240.591C237.22 240.767 237.142 240.935 237.002 241.042C212.453 260.371 191.774 259.325 181.205 256.757C181.248 257.589 181.288 258.393 181.326 259.168C181.506 262.809 181.652 265.684 181.89 267.471C183.348 278.436 183.772 286.809 183.148 292.358C182.907 294.491 179.318 310.636 175.564 310.638L175.566 310.636ZM134.913 218.779C134.336 219.12 127.186 223.464 126.722 229.486C126.494 232.448 127.271 236.534 128.093 240.859C129.241 246.902 130.544 253.754 129.464 259.406C127.883 267.691 126.163 273.443 124.647 278.518C122.895 284.38 121.381 289.443 120.376 296.994C120.376 297.037 120.066 306.27 124.284 306.541L175.566 309.523C175.566 309.523 175.581 309.523 175.589 309.523C177.86 309.523 181.619 296.014 182.045 292.227C182.469 288.476 182.594 281.157 180.792 267.611C180.549 265.779 180.403 262.882 180.22 259.215C180.17 258.21 180.118 257.155 180.06 256.057C180.05 255.882 180.128 255.709 180.263 255.599C180.401 255.486 180.581 255.446 180.754 255.491C190.799 258.11 211.235 259.629 235.729 240.624L208.14 221.371C206.27 223.631 197.198 234.313 192.223 234.812C187.629 235.27 177.662 225.86 173.589 221.792C171.945 219.86 169.727 218.541 167.308 218.048C166.501 217.882 165.602 217.664 164.652 217.431C158.379 215.897 148.905 213.579 134.913 218.774V218.779Z" fill="black"/>
<path d="M121.083 268.33L129.248 281.042L132.907 278.561C135.146 277.045 137.887 276.461 140.549 276.939C140.549 276.939 144.484 277.461 146.163 278.816C150.213 282.085 146.622 284.12 145.847 284.528C144.599 285.19 142.865 285.804 141.018 285.538C139.937 285.383 137.095 285.751 134.529 287.147C132.587 288.202 130.318 290.355 127.236 289.521C124.602 288.806 123.444 287.252 123.444 287.252L112.893 274.097L121.085 268.33H121.083Z" fill="white"/>
<path d="M128.622 290.265C128.133 290.265 127.622 290.202 127.088 290.057C124.301 289.3 123.048 287.656 122.995 287.586L112.457 274.446C112.361 274.325 112.319 274.172 112.341 274.022C112.364 273.869 112.447 273.734 112.572 273.646L120.765 267.879C120.888 267.792 121.043 267.759 121.191 267.789C121.339 267.819 121.469 267.907 121.552 268.035L129.411 280.268L132.599 278.107C134.97 276.498 137.83 275.892 140.649 276.398C140.792 276.416 144.732 276.954 146.512 278.39C148.013 279.601 148.714 280.822 148.599 282.02C148.489 283.165 147.604 284.233 146.108 285.024C144.88 285.674 142.985 286.388 140.94 286.095C140.028 285.964 137.294 286.285 134.795 287.641C134.419 287.847 134.023 288.097 133.604 288.363C132.241 289.23 130.609 290.268 128.624 290.268L128.622 290.265ZM113.692 274.213L123.873 286.907C123.893 286.934 124.983 288.338 127.379 288.987C129.599 289.591 131.409 288.438 133.005 287.423C133.441 287.145 133.852 286.884 134.263 286.661C136.923 285.217 139.86 284.814 141.096 284.992C142.847 285.24 144.504 284.611 145.587 284.04C146.256 283.686 147.394 282.937 147.494 281.909C147.572 281.105 147.005 280.21 145.815 279.25C144.276 278.009 140.514 277.496 140.476 277.491C137.918 277.032 135.351 277.576 133.221 279.022L129.562 281.503C129.439 281.586 129.286 281.619 129.138 281.588C128.99 281.558 128.863 281.471 128.782 281.345L120.928 269.12L113.692 274.215V274.213Z" fill="black"/>
<path d="M137.604 238.554L123.838 245.925C120.938 247.476 119.69 250.972 120.948 254.012L126.041 266.847L102.484 284.736C102.484 284.736 89.7476 255.721 94.0032 242.666C101.311 220.243 148.01 215.183 148.01 215.183L137.607 238.554H137.604Z" fill="white"/>
<path d="M102.484 285.29C102.437 285.29 102.391 285.285 102.344 285.273C102.178 285.23 102.043 285.115 101.975 284.959C101.452 283.766 89.2036 255.601 93.4743 242.493C96.5194 233.15 106.928 225.368 123.577 219.987C136.075 215.95 147.835 214.644 147.95 214.632C148.246 214.596 148.529 214.82 148.562 215.123C148.594 215.429 148.374 215.702 148.07 215.734C147.607 215.784 101.645 221.012 94.5294 242.837C90.7375 254.473 100.883 279.511 102.715 283.862L125.369 266.656L120.431 254.215C119.061 250.907 120.411 247.128 123.577 245.436L128.835 242.621C129.106 242.478 129.441 242.579 129.587 242.849C129.732 243.12 129.629 243.456 129.359 243.601L124.101 246.416C121.441 247.839 120.306 251.015 121.462 253.802L126.559 266.644C126.652 266.874 126.577 267.14 126.379 267.29L102.823 285.18C102.725 285.253 102.607 285.293 102.487 285.293L102.484 285.29Z" fill="black"/>
<path d="M181.877 264.508C181.604 264.508 181.366 264.308 181.328 264.03L180.581 258.558C179.95 253.919 179.461 248.792 179.211 244.115L178.97 239.654C178.955 239.348 179.188 239.087 179.494 239.07C179.799 239.055 180.06 239.288 180.078 239.594L180.318 244.055C180.569 248.701 181.053 253.799 181.682 258.408L182.429 263.879C182.469 264.182 182.258 264.463 181.952 264.503C181.927 264.506 181.902 264.508 181.877 264.508Z" fill="black"/>
<path d="M161.156 203.048L159.394 217.682L168.504 220.489C168.504 220.489 155.486 229.491 139.619 220.413L148.183 216.754L152.599 199.772L161.153 203.045L161.156 203.048Z" fill="white"/>
<path d="M154.176 224.993C149.797 224.993 144.722 223.97 139.346 220.895C139.163 220.79 139.055 220.592 139.068 220.381C139.08 220.17 139.211 219.985 139.404 219.902L147.717 216.351L152.065 199.632C152.105 199.479 152.208 199.351 152.348 199.278C152.489 199.206 152.654 199.198 152.8 199.253L161.353 202.527C161.591 202.617 161.737 202.857 161.707 203.11L160 217.286L168.669 219.957C168.872 220.02 169.02 220.193 169.053 220.404C169.085 220.614 168.995 220.822 168.82 220.945C168.732 221.005 162.817 224.993 154.176 224.993ZM140.887 220.476C153.318 227.043 163.882 222.434 167.148 220.652L159.231 218.211C158.975 218.13 158.812 217.88 158.842 217.614L160.551 203.409L152.983 200.512L148.722 216.895C148.679 217.06 148.562 217.198 148.404 217.266L140.885 220.476H140.887Z" fill="black"/>
<path d="M152.406 203.872C152.406 203.872 149.138 205.106 148.276 202.266C147.414 199.426 150.231 199.604 150.231 199.604C150.231 199.604 147.231 193.379 151.895 192.772C156.559 192.166 159.965 190.441 159.965 190.441C159.965 190.441 163.356 196.379 164.446 201.356C165.103 204.359 164.922 207.01 162.657 207.8C156.454 209.963 152.406 203.87 152.406 203.87V203.872Z" fill="white"/>
<path d="M160.025 208.817C155.882 208.817 153.023 205.584 152.193 204.517C151.572 204.677 150.349 204.877 149.293 204.359C148.542 203.988 148.023 203.339 147.745 202.429C147.426 201.381 147.511 200.542 147.995 199.933C148.386 199.439 148.955 199.218 149.426 199.123C148.97 197.93 148.266 195.524 149.163 193.867C149.664 192.943 150.559 192.391 151.825 192.226C156.343 191.639 159.684 189.968 159.717 189.95C159.98 189.817 160.303 189.913 160.449 190.171C160.589 190.416 163.895 196.241 164.987 201.243C165.842 205.151 165.12 207.534 162.84 208.331C161.847 208.677 160.907 208.822 160.025 208.822V208.817ZM152.404 203.319C152.584 203.319 152.762 203.409 152.867 203.564C153.023 203.797 156.765 209.268 162.474 207.276C164.138 206.697 164.619 204.745 163.905 201.474C163.015 197.411 160.526 192.627 159.732 191.163C158.619 191.662 155.704 192.837 151.968 193.321C151.063 193.439 150.464 193.787 150.138 194.389C149.356 195.835 150.301 198.466 150.729 199.361C150.815 199.539 150.8 199.747 150.689 199.913C150.579 200.075 150.401 200.171 150.193 200.156C149.94 200.143 149.191 200.198 148.86 200.619C148.617 200.928 148.599 201.426 148.805 202.103C148.99 202.717 149.308 203.126 149.777 203.359C150.797 203.865 152.196 203.359 152.211 203.351C152.273 203.329 152.338 203.316 152.404 203.316V203.319Z" fill="black"/>
<path d="M233.007 188.349C232.836 188.349 232.668 188.271 232.561 188.123C232.378 187.878 232.43 187.529 232.678 187.346L289.48 145.404C289.728 145.221 290.074 145.274 290.257 145.522C290.44 145.768 290.387 146.116 290.139 146.299L233.338 188.241C233.237 188.314 233.122 188.349 233.009 188.349H233.007Z" fill="black"/>
<path d="M228.255 179.311C228.13 179.311 228.002 179.269 227.897 179.181C227.664 178.983 227.633 178.632 227.831 178.399L249.125 153.179C249.32 152.945 249.671 152.915 249.906 153.113C250.14 153.311 250.17 153.662 249.972 153.895L228.679 179.116C228.568 179.246 228.413 179.314 228.255 179.314V179.311Z" fill="black"/>
<path d="M431.852 187.186H431.842C431.537 187.181 431.291 186.928 431.298 186.622C431.389 181.672 431.266 176.655 430.937 171.71C430.917 171.404 431.148 171.141 431.454 171.121C431.75 171.101 432.025 171.331 432.045 171.637C432.376 176.612 432.496 181.66 432.406 186.642C432.401 186.945 432.153 187.186 431.852 187.186Z" fill="black"/>
<path d="M431.491 172.229C431.201 172.229 430.958 172.003 430.937 171.71C429.767 154.063 425.955 136.652 419.607 119.963C415.637 109.53 410.695 99.4523 404.915 90.0138C404.755 89.7531 404.837 89.4123 405.098 89.2519C405.359 89.0915 405.702 89.1742 405.86 89.4348C411.674 98.9335 416.649 109.071 420.642 119.57C427.03 136.362 430.865 153.88 432.043 171.64C432.063 171.945 431.832 172.209 431.526 172.229C431.514 172.229 431.501 172.229 431.489 172.229H431.491Z" fill="black"/>
<path d="M448.063 195.97C448.063 195.97 448.045 195.97 448.035 195.97C447.729 195.955 447.494 195.695 447.509 195.389C447.634 192.81 447.709 190.193 447.727 187.612C447.727 187.306 447.982 187.053 448.286 187.061C448.591 187.061 448.84 187.314 448.837 187.619C448.817 190.216 448.744 192.848 448.617 195.441C448.601 195.737 448.356 195.97 448.063 195.97Z" fill="black"/>
<path d="M448.281 188.171H448.276C447.97 188.171 447.724 187.918 447.724 187.612C447.897 164.269 443.757 141.314 435.416 119.387C430.649 106.853 424.554 94.8408 417.301 83.6805C417.133 83.4249 417.208 83.079 417.464 82.9136C417.719 82.7457 418.063 82.8209 418.231 83.0765C425.526 94.302 431.657 106.387 436.454 118.994C444.845 141.048 449.01 164.138 448.834 187.619C448.834 187.925 448.584 188.171 448.281 188.171Z" fill="black"/>
<path d="M420.785 175.131C420.679 175.131 420.574 175.101 420.484 175.043L408.667 167.404C408.504 167.299 408.409 167.118 408.414 166.925C408.419 166.732 408.524 166.555 408.689 166.459L420.912 159.377C421.085 159.276 421.301 159.276 421.474 159.379C421.647 159.482 421.75 159.67 421.744 159.87L421.338 174.592C421.333 174.793 421.218 174.973 421.043 175.068C420.963 175.111 420.872 175.133 420.785 175.133V175.131ZM410.03 166.963L420.258 173.574L420.609 160.833L410.03 166.963Z" fill="black"/>
<path d="M27.7255 92.8232C27.6504 92.8232 27.5727 92.8081 27.4975 92.773C27.2193 92.6477 27.094 92.3194 27.2218 92.0387C36.6202 71.2544 52.7454 52.3348 73.8555 37.3224C74.1061 37.1444 74.452 37.2046 74.6299 37.4527C74.8078 37.7033 74.7477 38.0492 74.4996 38.2271C53.5499 53.1242 37.55 71.891 28.2343 92.4948C28.1416 92.7004 27.9386 92.8206 27.728 92.8206L27.7255 92.8232Z" fill="black"/>
<path d="M10.1115 117.044C10.0689 117.044 10.0263 117.039 9.98623 117.029C9.68799 116.958 9.50253 116.66 9.5727 116.362C13.525 99.3695 21.1365 83.124 32.1966 68.0791C43.6326 52.5178 58.4796 38.6407 76.324 26.8363C76.5797 26.6659 76.923 26.736 77.0934 26.9917C77.2614 27.2473 77.1937 27.5907 76.938 27.7611C42.1714 50.7634 18.6303 82.317 10.6529 116.612C10.5927 116.868 10.3647 117.041 10.1141 117.041L10.1115 117.044Z" fill="black"/>
<path d="M22.8685 151.249C22.5803 151.249 22.3372 151.028 22.3171 150.738L22.0565 147.342C22.0339 147.036 22.262 146.77 22.5677 146.745C22.8835 146.723 23.1392 146.951 23.1642 147.256L23.4249 150.652C23.4474 150.958 23.2194 151.224 22.9136 151.249C22.8986 151.249 22.886 151.249 22.871 151.249H22.8685Z" fill="black"/>
<path d="M23.4723 159.161C23.184 159.161 22.9409 158.941 22.9209 158.65L22.6602 155.254C22.6377 154.948 22.8657 154.682 23.1715 154.657C23.4873 154.637 23.7429 154.863 23.768 155.169L24.0286 158.565C24.0512 158.87 23.8231 159.136 23.5174 159.161C23.5023 159.161 23.4898 159.161 23.4748 159.161H23.4723Z" fill="black"/>
<path d="M17.3871 153.938C17.0989 153.938 16.8558 153.718 16.8358 153.427C16.8132 153.121 17.0413 152.855 17.347 152.83L20.743 152.572C21.0538 152.552 21.3144 152.778 21.3395 153.083C21.3646 153.389 21.134 153.655 20.8282 153.68L17.4323 153.938C17.4172 153.938 17.4047 153.938 17.3896 153.938H17.3871Z" fill="black"/>
<path d="M25.2995 153.334C25.0113 153.334 24.7682 153.114 24.7481 152.823C24.7256 152.517 24.9536 152.251 25.2594 152.226L28.6554 151.966C28.9686 151.941 29.2268 152.171 29.2518 152.477C29.2744 152.783 29.0463 153.048 28.7406 153.073L25.3446 153.334C25.3296 153.334 25.317 153.334 25.302 153.334H25.2995Z" fill="black"/>
<path d="M30.7053 146.713C30.362 146.713 30.0161 146.662 29.6778 146.56C28.753 146.279 27.9911 145.647 27.5349 144.78C26.6076 143.011 27.2618 140.805 28.9961 139.86C29.2642 139.713 29.6026 139.813 29.748 140.084C29.8958 140.352 29.7956 140.69 29.5249 140.835C28.3194 141.492 27.8683 143.028 28.5149 144.264C28.8307 144.865 29.357 145.304 29.9961 145.497C30.6226 145.687 31.2818 145.62 31.8557 145.307C33.0612 144.65 33.5123 143.114 32.8657 141.878C32.7229 141.607 32.8281 141.271 33.0988 141.129C33.3695 140.986 33.7053 141.091 33.8482 141.362C34.7755 143.131 34.1214 145.337 32.387 146.281C31.8607 146.567 31.2868 146.713 30.7053 146.713Z" fill="black"/>
<path d="M40.605 167.164C39.6501 167.164 38.7003 166.795 37.996 166.066C37.783 165.845 37.7905 165.494 38.011 165.281C38.2316 165.068 38.5825 165.076 38.7955 165.296C39.7479 166.284 41.3494 166.314 42.3694 165.362C42.8656 164.898 43.1488 164.274 43.1664 163.605C43.1839 162.953 42.9433 162.334 42.4897 161.865C41.5398 160.878 39.9358 160.848 38.9158 161.8C38.6927 162.008 38.3419 161.998 38.1313 161.775C37.9233 161.552 37.9333 161.201 38.1589 160.991C39.62 159.625 41.9208 159.675 43.2892 161.096C43.9483 161.783 44.2992 162.682 44.2741 163.635C44.2491 164.602 43.8406 165.502 43.1263 166.171C42.417 166.835 41.5072 167.164 40.605 167.164Z" fill="black"/>
<path d="M100.293 167.65C110.87 157.074 110.87 139.926 100.293 129.349C89.7168 118.773 72.5691 118.773 61.9927 129.349C51.4164 139.926 51.4164 157.074 61.9927 167.65C72.5691 178.226 89.7168 178.226 100.293 167.65Z" fill="white"/>
<path d="M81.1437 176.138C65.9032 176.138 53.5073 163.74 53.5073 148.502C53.5073 133.264 65.9057 120.865 81.1437 120.865C96.3816 120.865 108.78 133.264 108.78 148.502C108.78 163.74 96.3816 176.138 81.1437 176.138ZM81.1437 121.973C66.5172 121.973 54.6151 133.873 54.6151 148.502C54.6151 163.131 66.5147 175.03 81.1437 175.03C95.7726 175.03 107.672 163.131 107.672 148.502C107.672 133.873 95.7726 121.973 81.1437 121.973Z" fill="black"/>
<path d="M84.7199 163.196H77.5044C76.0232 163.196 74.8228 161.995 74.8228 160.514V133.269C74.8228 132.605 75.3616 132.068 76.0232 132.068H85.2738C86.3465 132.068 87.2161 132.938 87.2161 134.011V160.7C87.2161 162.078 86.0983 163.196 84.7199 163.196Z" fill="black"/>
<path d="M66.5923 152.544V142.74C66.5923 142.178 67.0484 141.722 67.6098 141.722H93.6597C94.8853 141.722 95.8777 142.715 95.8777 143.94V151.527C95.8777 152.955 94.7199 154.116 93.2888 154.116H68.1637C67.2965 154.116 66.5923 153.411 66.5923 152.544Z" fill="black"/>
<path d="M148.764 57.4506C159.34 46.8742 159.34 29.7266 148.764 19.1502C138.187 8.57382 121.04 8.57382 110.463 19.1502C99.8871 29.7266 99.8871 46.8742 110.463 57.4506C121.04 68.027 138.187 68.027 148.764 57.4506Z" fill="white"/>
<path d="M129.614 65.9362C114.374 65.9362 101.978 53.5379 101.978 38.2999C101.978 23.0619 114.374 10.6635 129.614 10.6635C144.855 10.6635 157.251 23.0619 157.251 38.2999C157.251 53.5379 144.852 65.9362 129.614 65.9362ZM129.614 11.7713C114.988 11.7713 103.086 23.6709 103.086 38.2999C103.086 52.9288 114.985 64.8285 129.614 64.8285C144.243 64.8285 156.143 52.9288 156.143 38.2999C156.143 23.6709 144.243 11.7713 129.614 11.7713Z" fill="black"/>
<path d="M127.346 59.4476L127.231 54.5053C123.742 54.4301 120.339 53.5704 118.334 52.4727L119.755 46.3499C121.968 47.4953 125.063 48.5178 128.444 48.4401C131.409 48.3725 133.411 47.1795 133.364 45.0993C133.319 43.1219 131.624 41.9114 127.745 40.7009C122.133 38.9565 118.276 36.4428 118.158 31.3952C118.053 26.8163 121.196 23.1521 126.737 21.9291L126.622 16.9868L131.72 16.869L131.825 21.4479C135.314 21.5231 137.672 22.1973 139.409 22.9892L138.035 28.904C136.669 28.3626 134.248 27.2223 130.502 27.3075C127.121 27.3852 126.061 28.8689 126.096 30.325C126.136 32.0418 127.983 33.0919 132.444 34.6558C138.687 36.6984 141.251 39.5029 141.359 44.1845C141.466 48.8161 138.278 52.8461 132.321 54.0241L132.444 59.3323L127.344 59.4501L127.346 59.4476Z" fill="black"/>
<path d="M106.065 105.625C116.641 95.0491 116.641 77.9014 106.065 67.325C95.4885 56.7487 78.3408 56.7487 67.7645 67.325C57.1881 77.9014 57.1881 95.0491 67.7645 105.625C78.3408 116.202 95.4885 116.202 106.065 105.625Z" fill="white"/>
<path d="M86.9154 114.111C71.6749 114.111 59.2791 101.713 59.2791 86.4748C59.2791 71.2368 71.6774 58.8384 86.9154 58.8384C102.153 58.8384 114.552 71.2368 114.552 86.4748C114.552 101.713 102.153 114.111 86.9154 114.111ZM86.9154 59.9462C72.289 59.9462 60.3868 71.8458 60.3868 86.4748C60.3868 101.104 72.2865 113.003 86.9154 113.003C101.544 113.003 113.444 101.104 113.444 86.4748C113.444 71.8458 101.544 59.9462 86.9154 59.9462Z" fill="black"/>
<path d="M98.8125 78.0261H72.9756C72.7514 78.0261 72.5696 78.2079 72.5696 78.4321V101.081C72.5696 101.305 72.7514 101.487 72.9756 101.487H98.8125C99.0367 101.487 99.2185 101.305 99.2185 101.081V78.4321C99.2185 78.2079 99.0367 78.0261 98.8125 78.0261Z" fill="black"/>
<path d="M70.4619 79.1841H101.905C102.291 79.1841 102.477 78.713 102.193 78.4498L86.4717 63.8108C86.3088 63.6605 86.0557 63.6605 85.8928 63.8108L70.1711 78.4498C69.8904 78.713 70.0759 79.1841 70.4594 79.1841H70.4619Z" fill="black"/>
<path d="M76.512 82.6577H83.304C83.507 82.6577 83.6749 82.8231 83.6749 83.0286V89.8205C83.6749 90.0235 83.5095 90.1914 83.304 90.1914H76.512C76.309 90.1914 76.1411 90.026 76.1411 89.8205V83.0286C76.1411 82.8256 76.3065 82.6577 76.512 82.6577Z" fill="white"/>
</svg>
