<svg width="262" height="121" viewBox="0 0 262 121" fill="none" xmlns="http://www.w3.org/2000/svg">
<g clip-path="url(#clip0_1636_51451)">
<path d="M184.278 54.5606C184.108 54.5606 183.937 54.5184 183.784 54.4324L159.524 40.9876C159.192 40.804 158.989 40.4498 158.999 40.0709C159.008 39.692 159.228 39.348 159.568 39.1804L167.321 35.3605C163.745 29.9768 158.966 25.3873 153.444 22.0396C146.62 17.9035 138.769 15.7173 130.74 15.7173C125.792 15.7173 120.94 16.532 116.319 18.1396C111.85 19.6946 107.679 21.9566 103.919 24.867C100.194 27.7498 96.9699 31.1894 94.3378 35.0909C91.6678 39.0478 89.6784 43.3778 88.4221 47.9629C88.3507 48.2237 88.1787 48.4453 87.9426 48.5793C87.7079 48.7134 87.4296 48.7484 87.1672 48.677L74.4322 45.1865C73.8886 45.0378 73.5695 44.4767 73.7181 43.9331C75.4146 37.7449 78.0991 31.902 81.699 26.5649C85.2405 21.3153 89.5764 16.688 94.5884 12.8098C99.6559 8.88929 105.282 5.83744 111.309 3.74166C117.547 1.57301 124.084 0.472656 130.74 0.472656C140.987 0.472656 151.106 3.1514 160.004 8.22179C168.61 13.1246 175.879 20.1508 181.079 28.5806L187.947 25.1964C188.288 25.0288 188.693 25.0638 188.999 25.2882C189.305 25.5127 189.462 25.8887 189.406 26.2633L185.285 53.692C185.236 54.0228 185.027 54.3085 184.727 54.4557C184.584 54.5256 184.43 54.5606 184.277 54.5606H184.278ZM162.22 40.1481L183.488 51.9358L187.101 27.8883L181.143 30.8235C180.665 31.0596 180.088 30.8877 179.816 30.43C174.767 21.9449 167.568 14.8778 158.995 9.99402C150.403 5.09998 140.634 2.51305 130.741 2.51305C124.314 2.51305 118.002 3.57551 111.981 5.66983C106.162 7.6942 100.73 10.6397 95.8389 14.4246C90.9988 18.1687 86.8116 22.6386 83.3925 27.7061C80.1075 32.5739 77.6123 37.8804 75.9669 43.49L86.7358 46.4413C88.0592 42.0049 90.0456 37.8075 92.6471 33.9497C95.4002 29.8689 98.7727 26.2691 102.671 23.2537C106.606 20.2091 110.973 17.8393 115.65 16.2128C120.488 14.5295 125.566 13.6769 130.741 13.6769C139.143 13.6769 147.359 15.9651 154.502 20.2936C160.617 23.9999 165.861 29.1635 169.665 35.2264C169.818 35.4713 169.862 35.7686 169.781 36.0469C169.703 36.3253 169.51 36.5556 169.251 36.6838L162.22 40.1481Z" fill="black"/>
<path d="M131.261 120.473C121.014 120.473 110.895 117.794 101.998 112.724C93.3915 107.821 86.1218 100.795 80.9217 92.3649L74.0543 95.7491C73.7148 95.9167 73.3081 95.8817 73.0021 95.6572C72.696 95.4328 72.5386 95.0568 72.5955 94.6822L76.7156 67.2535C76.7651 66.9227 76.9736 66.637 77.2738 66.4898C77.574 66.3426 77.9267 66.3499 78.2197 66.5131L102.48 79.9579C102.812 80.1415 103.015 80.4957 103.005 80.8746C102.996 81.2535 102.776 81.5975 102.436 81.7651L94.6827 85.585C98.2593 90.9687 103.038 95.5581 108.56 98.9058C115.384 103.042 123.235 105.228 131.264 105.228C136.212 105.228 141.064 104.413 145.685 102.806C150.154 101.252 154.325 98.9889 158.085 96.0784C161.81 93.1957 165.034 89.7561 167.666 85.8546C170.336 81.8977 172.326 77.5677 173.582 72.9826C173.653 72.7217 173.825 72.5002 174.061 72.3661C174.296 72.2321 174.576 72.1971 174.837 72.2685L187.572 75.759C187.833 75.8304 188.054 76.0024 188.188 76.2385C188.322 76.4732 188.357 76.7515 188.286 77.0139C186.589 83.2021 183.905 89.0449 180.305 94.382C176.763 99.6316 172.428 104.259 167.416 108.137C162.348 112.058 156.722 115.108 150.695 117.205C144.458 119.374 137.92 120.474 131.264 120.474L131.261 120.473ZM81.3079 90.0156C81.6577 90.0156 81.9958 90.1948 82.1853 90.514C87.2338 98.9991 94.4335 106.066 103.006 110.95C111.598 115.844 121.367 118.431 131.26 118.431C137.687 118.431 143.999 117.369 150.02 115.276C155.839 113.251 161.271 110.306 166.162 106.521C171.002 102.777 175.189 98.3068 178.609 93.2394C181.894 88.3716 184.389 83.0651 186.034 77.4555L175.265 74.5042C173.942 78.9406 171.955 83.138 169.354 86.9958C166.601 91.0766 163.228 94.6764 159.33 97.6918C155.395 100.736 151.028 103.106 146.351 104.733C141.513 106.416 136.435 107.269 131.26 107.269C122.858 107.269 114.642 104.98 107.499 100.652C101.384 96.9456 96.1402 91.7819 92.3363 85.7191C92.1832 85.4742 92.1395 85.1769 92.2197 84.8985C92.2984 84.6202 92.4908 84.3899 92.7502 84.2616L99.7808 80.7973L78.5126 69.0097L74.8996 93.0572L80.8576 90.1219C81.0019 90.0505 81.1564 90.017 81.3079 90.017V90.0156Z" fill="black"/>
<g clip-path="url(#clip1_1636_51451)">
<path d="M131.04 78.7721C120.621 78.7721 112.08 70.3246 112.08 59.9998C112.08 49.6751 120.621 41.2275 131.04 41.2275C141.459 41.2275 150 49.6751 150 59.9998C150 70.3246 141.459 78.7721 131.04 78.7721ZM131.04 44.5127C122.499 44.5127 115.412 51.5523 115.412 59.9998C115.412 68.4473 122.499 75.4869 131.04 75.4869C139.581 75.4869 146.668 68.4473 146.668 59.9998C146.668 51.5523 139.581 44.5127 131.04 44.5127Z" fill="#010101"/>
<path d="M131.98 65.6312C132.449 65.6312 132.919 65.1619 133.388 64.6926C133.857 64.2233 133.857 63.754 133.857 63.2847C133.857 62.8154 133.857 62.3461 133.388 61.8768C132.919 61.4075 132.449 61.4075 131.98 60.9382V65.6312ZM130.572 53.4293C130.103 53.4293 129.633 53.8986 129.633 54.3679C129.164 54.8372 129.164 55.3065 129.164 55.7758C129.164 56.2451 129.164 56.7144 129.633 56.7144C129.633 57.1837 130.103 57.1837 130.572 57.653V53.4293ZM130.572 65.1619V60.4689C129.164 59.9996 128.225 59.5302 127.24 58.5916C126.771 57.653 126.301 56.7144 126.301 55.3065C126.301 53.8986 126.771 52.96 127.24 52.0213C128.179 51.0827 129.117 50.6134 130.572 50.6134V49.6748H131.98V50.6134C133.388 50.6134 134.326 51.0827 134.843 52.0213C135.312 52.4906 135.781 53.4293 136.251 54.8372L133.388 55.3065C133.388 54.3679 132.919 53.8986 131.98 53.4293V57.653C133.857 58.1223 134.843 58.5916 135.781 59.5303C136.251 60.4689 136.72 61.4075 136.72 62.3461C136.72 63.754 136.251 64.6926 135.312 65.6312C134.373 66.5699 133.435 67.0392 131.98 67.5085V69.3857H130.572V67.5085C129.164 67.5085 128.225 67.0392 127.24 66.1005C126.301 65.1619 125.832 64.2233 125.832 62.8154L128.695 62.3461C128.695 62.8154 129.164 63.2847 129.164 63.754C129.633 64.6926 130.103 65.1619 130.572 65.1619Z" fill="#010101"/>
</g>
</g>
<defs>
<clipPath id="clip0_1636_51451">
<rect width="116.837" height="120" fill="white" transform="translate(72.582 0.472656)"/>
</clipPath>
<clipPath id="clip1_1636_51451">
<rect width="37.92" height="37.5446" fill="white" transform="translate(112.08 41.2275)"/>
</clipPath>
</defs>
</svg>
