<svg width="196" height="91" viewBox="0 0 196 91" fill="none" xmlns="http://www.w3.org/2000/svg">
<g clip-path="url(#clip0_1636_51567)">
<path d="M94.2727 10.8306H101.325C106.967 10.8306 111.63 15.1012 112.273 20.5863H115.783C115.128 13.1591 108.906 7.33398 101.325 7.33398H94.2727C86.692 7.33398 80.47 13.1591 79.8164 20.5863H83.3263C83.9693 15.1012 88.6315 10.8306 94.274 10.8306H94.2727Z" fill="#231F20"/>
<path d="M128.284 20.5859H67.3133C59.2973 20.5859 52.7988 27.099 52.7988 35.1348V69.0627C52.7988 77.0985 59.2973 83.6116 67.3133 83.6116H128.284C136.3 83.6116 142.799 77.0985 142.799 69.0627V35.1348C142.799 27.1003 136.3 20.5859 128.284 20.5859ZM135.055 67.4011H60.5423V66.2329H135.055V67.4011ZM135.055 37.8152H60.5423V36.647H135.055V37.8152Z" fill="url(#paint0_linear_1636_51567)"/>
<path d="M96.9212 63.7656V60.9212C95.2714 60.8921 93.5925 60.3814 92.5977 59.6697L93.2803 57.7632C94.2765 58.4181 95.7556 58.987 97.3485 58.987C99.3674 58.987 100.733 57.8201 100.733 56.1995C100.733 54.5788 99.624 53.6686 97.5178 52.8153C94.6165 51.6775 92.8252 50.3413 92.8252 47.866C92.8252 45.3907 94.5028 43.7131 97.0918 43.2858V40.4414H98.8845V43.1998C100.562 43.2567 101.729 43.7118 102.582 44.1947L101.872 46.072C101.274 45.7307 100.108 45.0758 98.2878 45.0758C96.0983 45.0758 95.2727 46.3843 95.2727 47.5511C95.2727 49.0011 96.3245 49.742 98.7998 50.7938C101.729 51.9884 103.208 53.4397 103.208 55.9706C103.208 58.2461 101.644 60.351 98.7138 60.8061V63.7643H96.9225L96.9212 63.7656Z" fill="url(#paint1_linear_1636_51567)"/>
<path d="M83.5481 63.7656V60.9212C81.8984 60.8921 80.2208 60.3814 79.2246 59.6697L79.9073 57.7632C80.9022 58.4181 82.3813 58.987 83.9741 58.987C85.9943 58.987 87.3596 57.8201 87.3596 56.1995C87.3596 54.5788 86.2497 53.6686 84.1461 52.8153C81.2448 51.6775 79.4522 50.3413 79.4522 47.866C79.4522 45.3907 81.1297 43.7131 83.7188 43.2858V40.4414H85.5101V43.1998C87.189 43.2567 88.3545 43.7118 89.2079 44.1947L88.4974 46.072C87.8994 45.7307 86.7339 45.0758 84.9134 45.0758C82.7226 45.0758 81.8984 46.3843 81.8984 47.5511C81.8984 49.0011 82.9515 49.742 85.4254 50.7938C88.3545 51.9884 89.8336 53.4397 89.8336 55.9706C89.8336 58.2461 88.2699 60.351 85.3394 60.8061V63.7643H83.5468L83.5481 63.7656Z" fill="url(#paint2_linear_1636_51567)"/>
<path d="M110.075 63.7656V60.9212C108.426 60.8921 106.747 60.3814 105.752 59.6697L106.435 57.7632C107.429 58.4181 108.909 58.987 110.503 58.987C112.522 58.987 113.887 57.8201 113.887 56.1995C113.887 54.5788 112.778 53.6686 110.673 52.8153C107.772 51.6775 105.98 50.3413 105.98 47.866C105.98 45.3907 107.658 43.7131 110.246 43.2858V40.4414H112.037V43.1998C113.716 43.2567 114.882 43.7118 115.735 44.1947L115.025 46.072C114.427 45.7307 113.261 45.0758 111.441 45.0758C109.251 45.0758 108.426 46.3843 108.426 47.5511C108.426 49.0011 109.477 49.742 111.953 50.7938C114.882 51.9884 116.361 53.4397 116.361 55.9706C116.361 58.2461 114.797 60.351 111.867 60.8061V63.7643H110.075V63.7656Z" fill="url(#paint3_linear_1636_51567)"/>
<path d="M94.2727 10.8306H101.325C106.967 10.8306 111.63 15.1012 112.273 20.5863H115.783C115.128 13.1591 108.906 7.33398 101.325 7.33398H94.2727C86.692 7.33398 80.47 13.1591 79.8164 20.5863H83.3263C83.9693 15.1012 88.6315 10.8306 94.274 10.8306H94.2727Z" fill="#231F20"/>
<path d="M128.284 20.5859H67.3133C59.2973 20.5859 52.7988 27.099 52.7988 35.1348V69.0627C52.7988 77.0985 59.2973 83.6116 67.3133 83.6116H128.284C136.3 83.6116 142.799 77.0985 142.799 69.0627V35.1348C142.799 27.1003 136.3 20.5859 128.284 20.5859ZM135.055 67.4011H60.5423V66.2329H135.055V67.4011ZM135.055 37.8152H60.5423V36.647H135.055V37.8152Z" fill="#231F20"/>
<path d="M96.9212 63.7656V60.9212C95.2714 60.8921 93.5925 60.3814 92.5977 59.6697L93.2803 57.7632C94.2765 58.4181 95.7556 58.987 97.3485 58.987C99.3674 58.987 100.733 57.8201 100.733 56.1995C100.733 54.5788 99.624 53.6686 97.5178 52.8153C94.6165 51.6775 92.8252 50.3413 92.8252 47.866C92.8252 45.3907 94.5028 43.7131 97.0918 43.2858V40.4414H98.8845V43.1998C100.562 43.2567 101.729 43.7118 102.582 44.1947L101.872 46.072C101.274 45.7307 100.108 45.0758 98.2878 45.0758C96.0983 45.0758 95.2727 46.3843 95.2727 47.5511C95.2727 49.0011 96.3245 49.742 98.7998 50.7938C101.729 51.9884 103.208 53.4397 103.208 55.9706C103.208 58.2461 101.644 60.351 98.7138 60.8061V63.7643H96.9225L96.9212 63.7656Z" fill="white"/>
<path d="M83.5481 63.7656V60.9212C81.8984 60.8921 80.2208 60.3814 79.2246 59.6697L79.9073 57.7632C80.9022 58.4181 82.3813 58.987 83.9741 58.987C85.9943 58.987 87.3596 57.8201 87.3596 56.1995C87.3596 54.5788 86.2497 53.6686 84.1461 52.8153C81.2448 51.6775 79.4522 50.3413 79.4522 47.866C79.4522 45.3907 81.1297 43.7131 83.7188 43.2858V40.4414H85.5101V43.1998C87.189 43.2567 88.3545 43.7118 89.2079 44.1947L88.4974 46.072C87.8994 45.7307 86.7339 45.0758 84.9134 45.0758C82.7226 45.0758 81.8984 46.3843 81.8984 47.5511C81.8984 49.0011 82.9515 49.742 85.4254 50.7938C88.3545 51.9884 89.8336 53.4397 89.8336 55.9706C89.8336 58.2461 88.2699 60.351 85.3394 60.8061V63.7643H83.5468L83.5481 63.7656Z" fill="white"/>
<path d="M110.075 63.7656V60.9212C108.426 60.8921 106.747 60.3814 105.752 59.6697L106.435 57.7632C107.429 58.4181 108.909 58.987 110.503 58.987C112.522 58.987 113.887 57.8201 113.887 56.1995C113.887 54.5788 112.778 53.6686 110.673 52.8153C107.772 51.6775 105.98 50.3413 105.98 47.866C105.98 45.3907 107.658 43.7131 110.246 43.2858V40.4414H112.037V43.1998C113.716 43.2567 114.882 43.7118 115.735 44.1947L115.025 46.072C114.427 45.7307 113.261 45.0758 111.441 45.0758C109.251 45.0758 108.426 46.3843 108.426 47.5511C108.426 49.0011 109.477 49.742 111.953 50.7938C114.882 51.9884 116.361 53.4397 116.361 55.9706C116.361 58.2461 114.797 60.351 111.867 60.8061V63.7643H110.075V63.7656Z" fill="white"/>
</g>
<defs>
<linearGradient id="paint0_linear_1636_51567" x1="52.7988" y1="52.0981" x2="142.799" y2="52.0981" gradientUnits="userSpaceOnUse">
<stop stop-color="#7D9FD3"/>
<stop offset="1" stop-color="#1C75BC"/>
</linearGradient>
<linearGradient id="paint1_linear_1636_51567" x1="92.5963" y1="52.1035" x2="103.207" y2="52.1035" gradientUnits="userSpaceOnUse">
<stop stop-color="#FFF685"/>
<stop offset="1" stop-color="#FFF200"/>
</linearGradient>
<linearGradient id="paint2_linear_1636_51567" x1="79.2246" y1="7.33372" x2="89.8336" y2="7.33372" gradientUnits="userSpaceOnUse">
<stop stop-color="#FFF685"/>
<stop offset="1" stop-color="#FFF200"/>
</linearGradient>
<linearGradient id="paint3_linear_1636_51567" x1="105.752" y1="7.33372" x2="116.361" y2="7.33372" gradientUnits="userSpaceOnUse">
<stop stop-color="#FFF685"/>
<stop offset="1" stop-color="#FFF200"/>
</linearGradient>
<clipPath id="clip0_1636_51567">
<rect width="90" height="76.2767" fill="white" transform="translate(52.7988 7.33398)"/>
</clipPath>
</defs>
</svg>
