<svg width="450" height="449" viewBox="0 0 450 449" fill="none" xmlns="http://www.w3.org/2000/svg">
<path d="M151.604 47.5028L153.198 53.1449L159.593 52.8019C160.195 54.0416 160.891 55.2175 161.678 56.3151L158.336 61.7686L162.54 65.8575L167.908 62.3615C169.037 63.1234 170.228 63.7898 171.47 64.3533L171.301 70.7573L176.985 72.1979L179.88 66.4945C181.228 66.5876 182.592 66.568 183.964 66.4308L187.019 72.0582L192.662 70.4633L192.319 64.0691C193.558 63.4664 194.734 62.7682 195.832 61.9842L201.285 65.3259L205.374 61.1218L201.878 55.7541C202.64 54.6247 203.306 53.434 203.87 52.1919L210.274 52.3609L211.714 46.6772L206.011 43.7814C206.107 42.4339 206.085 41.0693 205.947 39.6974L211.575 36.6423L209.98 31.0002L203.586 31.3432C202.983 30.1035 202.287 28.9276 201.501 27.83L204.842 22.3765L200.638 18.2876L195.271 21.7836C194.141 21.0217 192.951 20.3553 191.709 19.7919L191.878 13.3878L186.194 11.9473L183.298 17.6507C181.951 17.5551 180.586 17.5772 179.214 17.7143L176.159 12.0869L170.517 13.6818L170.86 20.0761C169.62 20.6787 168.444 21.3745 167.347 22.1609L161.893 18.8193L157.804 23.0233L161.3 28.391C160.538 29.5205 159.872 30.7111 159.308 31.9532L152.904 31.7842L151.464 37.468L157.167 40.3637C157.072 41.7112 157.094 43.0758 157.231 44.4477L151.601 47.5028H151.604ZM177.487 27.5458C185.51 25.2772 193.852 29.9418 196.118 37.9653C198.387 45.9887 193.722 54.3307 185.699 56.5968C177.675 58.8655 169.333 54.2008 167.067 46.1774C164.799 38.1539 169.463 29.812 177.487 27.5434V27.5458Z" fill="white"/>
<path d="M176.987 72.7437C176.943 72.7437 176.899 72.7388 176.853 72.7265L171.169 71.286C170.921 71.2223 170.75 70.9969 170.757 70.7421L170.917 64.6957C169.878 64.2057 168.868 63.6398 167.908 63.0126L162.839 66.3127C162.624 66.4523 162.344 66.4254 162.161 66.2465L157.957 62.1576C157.773 61.9788 157.739 61.6995 157.871 61.4814L161.026 56.3342C160.38 55.3983 159.789 54.4037 159.265 53.3649L153.228 53.6883C152.978 53.7005 152.743 53.5364 152.675 53.2914L151.08 47.6493C151.011 47.4043 151.121 47.1421 151.344 47.0221L156.658 44.1385C156.56 42.9797 156.543 41.8209 156.604 40.6866L151.222 37.9525C150.994 37.8374 150.876 37.5801 150.94 37.3327L152.381 31.6489C152.444 31.4015 152.687 31.2324 152.924 31.2373L158.971 31.3966C159.461 30.3578 160.027 29.3484 160.654 28.3881L157.354 23.3217C157.214 23.1085 157.241 22.8268 157.42 22.643L161.509 18.439C161.688 18.2553 161.967 18.221 162.185 18.3533L167.332 21.5087C168.266 20.862 169.263 20.2715 170.302 19.7473L169.978 13.7107C169.964 13.4559 170.13 13.2256 170.375 13.157L176.017 11.5621C176.262 11.4935 176.524 11.6038 176.644 11.8267L179.528 17.1406C180.687 17.0426 181.846 17.0254 182.98 17.0867L185.714 11.7042C185.829 11.4764 186.086 11.3588 186.334 11.4225L192.018 12.863C192.265 12.9267 192.437 13.1521 192.429 13.4069L192.27 19.4533C193.309 19.9432 194.318 20.5092 195.278 21.1364L200.347 17.8363C200.563 17.6967 200.842 17.7236 201.026 17.9025L205.23 21.9914C205.414 22.1702 205.448 22.4495 205.316 22.6675L202.16 27.8148C202.807 28.7482 203.397 29.7453 203.922 30.7841L209.958 30.4607C210.208 30.446 210.443 30.6126 210.512 30.8576L212.107 36.4997C212.175 36.7447 212.065 37.0069 211.842 37.1269L206.528 40.0104C206.626 41.1717 206.644 42.3281 206.582 43.4624L211.965 46.1965C212.193 46.3116 212.31 46.5688 212.247 46.8163L210.806 52.5001C210.742 52.7475 210.502 52.9166 210.262 52.9117L204.216 52.7524C203.726 53.7912 203.16 54.8005 202.533 55.7609L205.833 60.8298C205.972 61.0429 205.945 61.3246 205.767 61.5084L201.678 65.7124C201.499 65.8962 201.22 65.9305 201.001 65.7982L195.854 62.6427C194.918 63.2895 193.921 63.8823 192.885 64.4042L193.208 70.4408C193.223 70.6955 193.056 70.9258 192.811 70.9944L187.169 72.5893C186.924 72.6579 186.662 72.5477 186.542 72.3247L183.659 67.0109C182.5 67.1089 181.341 67.126 180.207 67.0648L177.473 72.4472C177.377 72.6334 177.188 72.7461 176.985 72.7461L176.987 72.7437ZM171.86 70.3354L176.698 71.5604L179.398 66.2465C179.499 66.0505 179.707 65.9329 179.922 65.9501C181.231 66.0407 182.573 66.0211 183.916 65.8888C184.131 65.8668 184.345 65.9795 184.45 66.1706L187.297 71.4158L192.098 70.0586L191.778 64.0979C191.765 63.8799 191.885 63.6741 192.084 63.5786C193.297 62.9881 194.453 62.3046 195.519 61.5402C195.697 61.4128 195.935 61.4055 196.121 61.5182L201.202 64.632L204.684 61.0552L201.425 56.0524C201.305 55.8687 201.308 55.6311 201.43 55.4498C202.173 54.3473 202.829 53.1762 203.378 51.9684C203.469 51.77 203.674 51.6426 203.89 51.65L209.858 51.8068L211.083 46.9682L205.769 44.2684C205.573 44.1679 205.455 43.9621 205.473 43.7441C205.563 42.4383 205.544 41.0958 205.411 39.7508C205.389 39.5327 205.502 39.322 205.693 39.2167L210.938 36.3699L209.581 31.5656L203.62 31.8865C203.4 31.8963 203.197 31.7788 203.101 31.5803C202.511 30.3676 201.825 29.2112 201.063 28.1455C200.935 27.9667 200.928 27.7291 201.041 27.5429L204.155 22.4618L200.578 18.9804L195.575 22.2388C195.391 22.3589 195.154 22.3564 194.972 22.2339C193.87 21.4916 192.699 20.8375 191.488 20.2862C191.29 20.1956 191.163 19.9947 191.17 19.7742L191.327 13.8062L186.488 12.5813L183.788 17.8951C183.688 18.0911 183.482 18.2063 183.264 18.1916C181.958 18.1009 180.613 18.1205 179.271 18.2528C179.053 18.2749 178.842 18.1622 178.737 17.9711L175.89 12.7258L171.086 14.0831L171.407 20.0437C171.419 20.2617 171.299 20.4675 171.1 20.5631C169.885 21.1535 168.731 21.8395 167.666 22.6014C167.487 22.7288 167.249 22.7386 167.063 22.6234L161.982 19.5096L158.5 23.0865L161.759 28.0892C161.879 28.2729 161.876 28.5106 161.754 28.6919C161.012 29.7919 160.357 30.9654 159.806 32.1732C159.716 32.3716 159.515 32.4966 159.294 32.4917L153.326 32.3349L152.101 37.1734L157.415 39.8732C157.611 39.9737 157.729 40.1795 157.712 40.3975C157.621 41.7058 157.641 43.0483 157.773 44.3909C157.795 44.6089 157.682 44.8196 157.491 44.925L152.246 47.7718L153.603 52.576L159.564 52.2551C159.784 52.2428 159.988 52.3629 160.083 52.5613C160.674 53.774 161.36 54.9304 162.121 55.9961C162.249 56.1749 162.256 56.4126 162.143 56.5988L159.03 61.6799L162.607 65.1612L167.609 61.9028C167.793 61.7828 168.031 61.7852 168.212 61.9077C169.312 62.65 170.485 63.3042 171.696 63.8554C171.894 63.946 172.022 64.1469 172.014 64.3674L171.857 70.3354H171.86ZM181.569 57.7184C178.93 57.7184 176.324 57.0447 173.957 55.7217C170.311 53.6834 167.675 50.3466 166.541 46.3263C165.404 42.306 165.902 38.0848 167.94 34.4369C169.978 30.7914 173.315 28.1553 177.335 27.021C181.356 25.8843 185.577 26.3816 189.225 28.4199C192.87 30.4583 195.506 33.795 196.643 37.8153C197.78 41.8356 197.283 46.0568 195.244 49.7047C193.206 53.3502 189.869 55.9863 185.846 57.1231C184.435 57.5224 182.997 57.7208 181.569 57.7208V57.7184ZM177.634 28.0696C173.893 29.128 170.789 31.5779 168.893 34.9685C166.997 38.3617 166.534 42.2889 167.592 46.0274C168.65 49.7684 171.1 52.8725 174.491 54.7687C177.884 56.6649 181.811 57.1279 185.55 56.0696C189.291 55.0112 192.395 52.5613 194.291 49.1706C196.187 45.7775 196.65 41.8503 195.592 38.1118C194.534 34.3708 192.084 31.2667 188.693 29.3705C185.302 27.4743 181.373 27.0112 177.634 28.0696Z" fill="black"/>
<path d="M58.3216 106.859L61.0508 116.514L71.9945 115.926C73.026 118.048 74.2191 120.059 75.5616 121.938L69.8411 131.27L77.034 138.267L86.2212 132.284C88.1541 133.588 90.1925 134.727 92.3165 135.692L92.0299 146.65L101.756 149.115L106.712 139.355C109.018 139.516 111.352 139.48 113.702 139.247L118.93 148.877L128.585 146.148L127.997 135.205C130.119 134.173 132.13 132.98 134.009 131.637L143.343 137.358L150.34 130.165L144.357 120.978C145.661 119.045 146.8 117.007 147.765 114.885L158.724 115.172L161.188 105.445L151.428 100.489C151.59 98.184 151.553 95.8468 151.32 93.4997L160.951 88.2716L158.222 78.6166L147.278 79.2045C146.246 77.0829 145.053 75.0715 143.711 73.1925L149.431 63.8608L142.238 56.8638L133.051 62.8465C131.118 61.5431 129.08 60.4039 126.958 59.4387L127.245 48.4802L117.519 46.0156L112.563 55.7761C110.257 55.6144 107.92 55.6511 105.573 55.8839L100.345 46.2533L90.6898 48.9825L91.2778 59.9262C89.1561 60.9576 87.1448 62.1507 85.2657 63.4933L75.934 57.7727L68.9371 64.9657L74.9197 74.1504C73.6164 76.0833 72.4772 78.1217 71.5119 80.2457L60.5535 79.9591L58.0889 89.6852L67.8493 94.6414C67.6876 96.9468 67.7244 99.2815 67.9571 101.631L58.3265 106.859H58.3216ZM102.611 72.7098C116.338 68.8292 130.613 76.811 134.494 90.5403C138.375 104.267 130.393 118.543 116.664 122.423C102.937 126.304 88.6613 118.322 84.7806 104.593C80.9 90.8661 88.8818 76.5905 102.611 72.7098Z" fill="white"/>
<path d="M101.756 149.664C101.711 149.664 101.667 149.659 101.621 149.647L91.8947 147.182C91.6472 147.118 91.4757 146.893 91.4831 146.638L91.7599 136.04C89.8416 135.148 87.9822 134.107 86.2158 132.941L77.3324 138.727C77.1168 138.867 76.8375 138.84 76.6538 138.661L69.4609 131.664C69.2771 131.486 69.2428 131.206 69.3751 130.988L74.907 121.963C73.7065 120.25 72.6163 118.413 71.6609 116.492L61.0773 117.061C60.8249 117.075 60.5922 116.909 60.5236 116.664L57.7944 107.009C57.7258 106.764 57.836 106.501 58.059 106.381L67.3735 101.325C67.18 99.1884 67.1481 97.0521 67.2755 94.9648L57.836 90.1703C57.6082 90.0552 57.4906 89.7979 57.5543 89.5505L60.0189 79.8243C60.0802 79.5769 60.2982 79.403 60.5628 79.4128L71.1611 79.6896C72.0529 77.7713 73.0941 75.9094 74.2602 74.1455L68.4735 65.2621C68.3339 65.049 68.3608 64.7672 68.5397 64.5835L75.5366 57.3905C75.7155 57.2068 75.9948 57.1725 76.2128 57.3048L85.2383 62.8367C86.9483 61.6362 88.7857 60.546 90.7089 59.5906L90.1405 49.007C90.1258 48.7522 90.2924 48.5219 90.5374 48.4533L100.193 45.7241C100.437 45.6555 100.7 45.7657 100.82 45.9887L105.876 55.3032C108.013 55.1097 110.149 55.0778 112.236 55.2052L117.031 45.7657C117.146 45.5379 117.403 45.4203 117.651 45.484L127.377 47.9486C127.624 48.0123 127.796 48.2377 127.788 48.4925L127.511 59.0908C129.43 59.9825 131.292 61.0238 133.053 62.1899L141.936 56.4032C142.152 56.2636 142.431 56.2905 142.615 56.4694L149.808 63.4663C149.992 63.6452 150.026 63.9245 149.894 64.1425L144.362 73.168C145.562 74.878 146.653 76.7154 147.608 78.6386L158.192 78.0702C158.444 78.0555 158.677 78.2221 158.745 78.4671L161.474 88.1222C161.543 88.3672 161.433 88.6293 161.21 88.7494L151.895 93.806C152.089 95.9423 152.121 98.0786 151.993 100.166L161.43 104.96C161.658 105.076 161.776 105.333 161.712 105.58L159.248 115.306C159.184 115.554 158.954 115.728 158.704 115.718L148.105 115.441C147.214 117.357 146.172 119.219 145.006 120.985L150.793 129.869C150.933 130.082 150.906 130.364 150.727 130.547L143.73 137.74C143.551 137.924 143.272 137.958 143.054 137.826L134.028 132.294C132.316 133.497 130.478 134.585 128.558 135.54L129.126 146.124C129.141 146.379 128.974 146.609 128.729 146.677L119.074 149.407C118.829 149.475 118.567 149.365 118.447 149.142L113.39 139.827C111.254 140.021 109.12 140.053 107.03 139.925L102.236 149.365C102.14 149.551 101.952 149.664 101.748 149.664H101.756ZM92.5855 146.232L101.466 148.481L106.227 139.11C106.327 138.914 106.533 138.799 106.751 138.813C109.01 138.972 111.332 138.936 113.65 138.705C113.865 138.683 114.079 138.796 114.184 138.987L119.204 148.236L128.021 145.744L127.458 135.236C127.445 135.018 127.565 134.813 127.764 134.717C129.858 133.698 131.855 132.515 133.697 131.196C133.876 131.069 134.114 131.062 134.3 131.174L143.262 136.667L149.651 130.101L143.906 121.282C143.786 121.098 143.789 120.86 143.911 120.679C145.195 118.775 146.327 116.752 147.275 114.664C147.365 114.466 147.569 114.339 147.787 114.346L158.309 114.623L160.558 105.742L151.187 100.982C150.991 100.881 150.874 100.676 150.891 100.457C151.05 98.1987 151.013 95.8786 150.786 93.5585C150.763 93.3405 150.876 93.1298 151.067 93.0245L160.316 88.0046L157.824 79.1874L147.316 79.7509C147.096 79.7631 146.893 79.6431 146.797 79.4446C145.778 77.3475 144.592 75.3508 143.277 73.5109C143.149 73.3321 143.142 73.0945 143.255 72.9083L148.747 63.9465L142.181 57.5571L133.362 63.3022C133.178 63.4222 132.94 63.4198 132.759 63.2973C130.856 62.016 128.832 60.8841 126.745 59.9335C126.546 59.8429 126.419 59.642 126.426 59.4215L126.703 48.8992L117.822 46.6501L113.062 56.021C112.964 56.217 112.758 56.3346 112.538 56.3175C110.279 56.1582 107.959 56.195 105.639 56.4228C105.423 56.4449 105.21 56.3322 105.105 56.1411L100.082 46.8927L91.265 49.3842L91.8285 59.8919C91.8408 60.1099 91.7207 60.3157 91.5223 60.4113C89.4252 61.4304 87.4285 62.6162 85.5886 63.9318C85.4098 64.0592 85.1721 64.069 84.9859 63.9538L76.0242 58.4612L69.6348 65.0269L75.3798 73.8466C75.4999 74.0303 75.4974 74.268 75.3749 74.4492C74.0936 76.3504 72.9618 78.374 72.0112 80.4638C71.9206 80.6622 71.7246 80.7896 71.4992 80.7823L60.9768 80.5054L58.7278 89.3863L68.0987 94.1465C68.2947 94.247 68.4123 94.4528 68.3951 94.6708C68.2359 96.9296 68.2726 99.2497 68.5005 101.57C68.5225 101.788 68.4098 101.998 68.2188 102.104L58.9703 107.124L61.4619 115.941L71.9696 115.377C72.195 115.365 72.3934 115.488 72.4889 115.684C73.5081 117.778 74.6914 119.775 76.0095 121.617C76.1369 121.796 76.1442 122.034 76.0315 122.22L70.5388 131.182L77.1046 137.571L85.9242 131.826C86.108 131.706 86.3456 131.708 86.5269 131.831C88.4305 133.112 90.4541 134.244 92.5414 135.195C92.7399 135.285 92.8673 135.486 92.8599 135.707L92.5831 146.229L92.5855 146.232ZM109.647 123.945C98.1395 123.945 87.5363 116.348 84.2558 104.74C80.2992 90.7436 88.4672 76.1397 102.461 72.1831C109.24 70.2673 116.362 71.1051 122.511 74.5423C128.66 77.982 133.102 83.6095 135.02 90.3884C136.936 97.1672 136.098 104.289 132.661 110.438C129.221 116.588 123.594 121.029 116.815 122.948C114.426 123.624 112.018 123.945 109.649 123.945H109.647ZM109.676 72.2688C107.366 72.2688 105.043 72.5873 102.76 73.2341C89.3443 77.0266 81.5144 91.0278 85.3069 104.446C89.0993 117.862 103.101 125.692 116.519 121.899C123.018 120.062 128.413 115.804 131.708 109.909C135.003 104.015 135.807 97.1893 133.969 90.6897C132.132 84.1901 127.874 78.7954 121.98 75.5003C118.155 73.3615 113.939 72.2737 109.676 72.2737V72.2688Z" fill="black"/>
<path d="M424.087 0.879883H311.215C306.811 0.879883 303.24 4.45017 303.24 8.85433V133.391C303.24 137.795 306.811 141.365 311.215 141.365H424.087C428.491 141.365 432.061 137.795 432.061 133.391V8.85433C432.061 4.45017 428.491 0.879883 424.087 0.879883Z" fill="white"/>
<path d="M424.087 141.909H311.215C306.516 141.909 302.694 138.087 302.694 133.388V8.85476C302.694 4.15584 306.516 0.333984 311.215 0.333984H424.087C428.786 0.333984 432.608 4.15584 432.608 8.85476V133.388C432.608 138.087 428.786 141.909 424.087 141.909ZM311.215 1.42419C307.119 1.42419 303.787 4.75607 303.787 8.85231V133.386C303.787 137.482 307.119 140.814 311.215 140.814H424.087C428.184 140.814 431.515 137.482 431.515 133.386V8.85476C431.515 4.75852 428.184 1.42664 424.087 1.42664H311.215V1.42419Z" fill="black"/>
<path d="M425.827 14.5106H309.581C309.28 14.5106 309.035 14.2656 309.035 13.9643C309.035 13.663 309.28 13.418 309.581 13.418H425.827C426.129 13.418 426.373 13.663 426.373 13.9643C426.373 14.2656 426.129 14.5106 425.827 14.5106Z" fill="black"/>
<path d="M311.625 9.0601C312.755 9.0601 313.67 8.14422 313.67 7.01442C313.67 5.88463 312.755 4.96875 311.625 4.96875C310.495 4.96875 309.579 5.88463 309.579 7.01442C309.579 8.14422 310.495 9.0601 311.625 9.0601Z" fill="black"/>
<path d="M319.805 9.0601C320.935 9.0601 321.851 8.14422 321.851 7.01442C321.851 5.88463 320.935 4.96875 319.805 4.96875C318.676 4.96875 317.76 5.88463 317.76 7.01442C317.76 8.14422 318.676 9.0601 319.805 9.0601Z" fill="black"/>
<path d="M327.983 9.0601C329.113 9.0601 330.029 8.14422 330.029 7.01442C330.029 5.88463 329.113 4.96875 327.983 4.96875C326.853 4.96875 325.938 5.88463 325.938 7.01442C325.938 8.14422 326.853 9.0601 327.983 9.0601Z" fill="black"/>
<path d="M425.828 7.55848H414.308C414.007 7.55848 413.762 7.31349 413.762 7.01215C413.762 6.71081 414.007 6.46582 414.308 6.46582H425.828C426.129 6.46582 426.374 6.71081 426.374 7.01215C426.374 7.31349 426.129 7.55848 425.828 7.55848Z" fill="black"/>
<path d="M409.126 7.55848H361.414C361.113 7.55848 360.868 7.31349 360.868 7.01215C360.868 6.71081 361.113 6.46582 361.414 6.46582H409.126C409.428 6.46582 409.673 6.71081 409.673 7.01215C409.673 7.31349 409.428 7.55848 409.126 7.55848Z" fill="black"/>
<path d="M348.873 7.55848H338.718C338.417 7.55848 338.172 7.31349 338.172 7.01215C338.172 6.71081 338.417 6.46582 338.718 6.46582H348.873C349.174 6.46582 349.419 6.71081 349.419 7.01215C349.419 7.31349 349.174 7.55848 348.873 7.55848Z" fill="black"/>
<path d="M348.107 67.5135C351.823 61.0115 358.739 56.4179 366.775 55.5874L367.333 23.7998C344.25 23.8782 323.879 36.8823 314.602 56.1043L348.107 67.516V67.5135Z" fill="white"/>
<path d="M348.106 68.0598C348.047 68.0598 347.989 68.05 347.93 68.0304L314.425 56.6187C314.278 56.5673 314.158 56.457 314.096 56.3125C314.035 56.1679 314.04 56.0062 314.109 55.8642C323.634 36.1277 344.524 23.3269 367.331 23.251C367.492 23.2583 367.617 23.3098 367.72 23.4127C367.823 23.518 367.879 23.6577 367.877 23.8047L367.318 55.5922C367.313 55.8691 367.103 56.0969 366.828 56.1263C359.116 56.925 352.293 61.2809 348.576 67.7805C348.476 67.9544 348.295 68.0549 348.104 68.0549L348.106 68.0598ZM315.366 55.7858L347.861 66.852C351.717 60.3989 358.528 56.0405 366.238 55.0973L366.777 24.3485C344.818 24.6254 324.751 36.8994 315.363 55.7858H315.366Z" fill="black"/>
<path d="M346.53 32.9839C346.315 32.9839 346.111 32.8541 346.023 32.6434C345.911 32.3641 346.045 32.0456 346.325 31.9329C351.535 29.8235 357.026 28.5079 362.643 28.0204C362.945 27.9959 363.207 28.2164 363.234 28.5177C363.261 28.8191 363.038 29.0812 362.736 29.1082C357.227 29.5859 351.842 30.8746 346.731 32.9447C346.665 32.9717 346.594 32.9839 346.528 32.9839H346.53Z" fill="black"/>
<path d="M328.14 45.244C328.002 45.244 327.865 45.1926 327.757 45.0872C327.542 44.8765 327.539 44.5311 327.75 44.3155C331.682 40.3001 336.246 36.9143 341.313 34.2537C341.58 34.1141 341.908 34.217 342.05 34.484C342.19 34.7511 342.087 35.0818 341.82 35.2214C336.854 37.8281 332.383 41.1453 328.529 45.0799C328.421 45.1901 328.282 45.244 328.14 45.244Z" fill="black"/>
<path d="M392.636 81.6006C390.744 92.0445 381.229 100.257 369.572 100.619C366.096 100.727 362.776 100.127 359.763 98.9533L341.567 127.125C350.024 130.942 359.579 132.813 369.572 132.238C398.636 130.569 421.483 108.689 424.021 82.3527L392.636 81.6006Z" fill="white"/>
<path d="M366.086 132.884C357.506 132.884 349.02 131.086 341.344 127.622C341.2 127.555 341.09 127.43 341.045 127.279C341.001 127.127 341.023 126.963 341.112 126.828L359.307 98.6563C359.447 98.4383 359.721 98.3501 359.964 98.4432C363.004 99.6289 366.231 100.175 369.558 100.072C380.734 99.7245 390.215 91.9142 392.102 81.5021C392.151 81.2375 392.393 81.0513 392.65 81.0537L424.036 81.8059C424.188 81.8108 424.33 81.8769 424.431 81.9896C424.531 82.1023 424.58 82.2542 424.565 82.4036C421.956 109.473 398.329 131.132 369.604 132.781C368.431 132.85 367.257 132.882 366.086 132.882V132.884ZM342.373 126.884C350.789 130.569 360.169 132.232 369.543 131.693C397.528 130.086 420.584 109.152 423.421 82.8838L393.086 82.1562C390.916 92.8427 381.114 100.805 369.592 101.163C366.267 101.265 363.038 100.746 359.983 99.6167L342.373 126.882V126.884Z" fill="black"/>
<path d="M366.029 128.327C359.897 128.327 353.912 127.357 348.241 125.441C347.954 125.346 347.802 125.035 347.898 124.75C347.993 124.464 348.302 124.312 348.589 124.407C354.147 126.284 360.015 127.235 366.027 127.235C367.107 127.235 368.202 127.203 369.278 127.142C369.577 127.122 369.837 127.355 369.854 127.654C369.871 127.955 369.641 128.212 369.339 128.229C368.242 128.293 367.125 128.325 366.025 128.325L366.029 128.327Z" fill="black"/>
<path d="M380.803 126.36C380.562 126.36 380.342 126.201 380.276 125.959C380.197 125.667 380.369 125.368 380.658 125.29C399.75 120.084 414.494 104.929 418.22 86.6792C418.281 86.3828 418.568 86.1941 418.864 86.2529C419.158 86.3142 419.349 86.6008 419.291 86.8972C415.481 105.546 400.431 121.029 380.947 126.343C380.898 126.355 380.852 126.363 380.803 126.363V126.36Z" fill="black"/>
<path d="M335.873 124.161L354.235 95.9062C348.742 91.8394 345.212 85.5113 345.212 78.333C345.212 76.5985 345.42 74.9081 345.812 73.2813L312.18 62.0068C310.374 67.3011 309.399 72.9359 309.399 78.774C309.399 98.1013 320.005 114.741 335.876 124.161H335.873Z" fill="white"/>
<path d="M335.874 124.707C335.778 124.707 335.682 124.682 335.597 124.631C318.852 114.692 308.854 97.5497 308.854 78.7736C308.854 72.9992 309.799 67.2982 311.664 61.83C311.759 61.5458 312.068 61.394 312.354 61.4895L345.987 72.764C346.256 72.8546 346.411 73.1339 346.344 73.4083C345.957 75.0203 345.759 76.6765 345.759 78.3326C345.759 85.0797 348.966 91.3245 354.561 95.4673C354.794 95.6388 354.851 95.9622 354.694 96.2022L336.332 124.457C336.226 124.616 336.052 124.704 335.874 124.704V124.707ZM312.523 62.6973C310.811 67.8936 309.944 73.3005 309.944 78.7736C309.944 96.9911 319.562 113.643 335.702 123.423L353.501 96.0357C347.881 91.6871 344.666 85.2659 344.666 78.3351C344.666 76.7598 344.835 75.1845 345.168 73.6435L312.521 62.6998L312.523 62.6973Z" fill="black"/>
<path d="M377.203 54.3848C387.819 55.965 395.979 64.1893 396.949 74.3564L448.272 75.8435C448.272 75.8215 448.272 75.7994 448.272 75.7774C448.272 38.1272 418.273 5.90355 378.122 1.75586L377.203 54.3823V54.3848Z" fill="white"/>
<path d="M448.268 76.3894C448.268 76.3894 448.26 76.3894 448.258 76.3894L396.935 74.9023C396.66 74.895 396.432 74.6818 396.408 74.4099C395.462 64.4878 387.532 56.4741 377.125 54.9258C376.853 54.8866 376.654 54.6514 376.659 54.377L377.578 1.75051C377.58 1.59862 377.647 1.45407 377.762 1.35118C377.877 1.25073 378.026 1.20173 378.181 1.21643C397.662 3.22781 415.588 11.9715 428.654 25.8307C441.658 39.6261 448.821 57.3659 448.821 75.7794C448.821 75.9264 448.763 76.1003 448.655 76.2032C448.552 76.3037 448.412 76.3894 448.268 76.3894ZM397.442 73.8244L447.726 75.2821C447.467 37.9014 417.903 6.69688 378.656 2.36299L377.754 53.9189C388.26 55.6828 396.259 63.7724 397.439 73.8244H397.442Z" fill="black"/>
<path d="M319.658 62.2207H252.486C249.175 62.2207 246.491 64.9047 246.491 68.2156V157.468C246.491 160.779 249.175 163.463 252.486 163.463H319.658C322.969 163.463 325.653 160.779 325.653 157.468V68.2156C325.653 64.9047 322.969 62.2207 319.658 62.2207Z" fill="white"/>
<path d="M319.66 164.009H252.486C248.88 164.009 245.947 161.077 245.947 157.471V68.2156C245.947 64.6093 248.88 61.6768 252.486 61.6768H319.66C323.266 61.6768 326.199 64.6093 326.199 68.2156V157.471C326.199 161.077 323.266 164.009 319.66 164.009ZM252.484 62.767C249.48 62.767 247.035 65.212 247.035 68.2156V157.471C247.035 160.474 249.48 162.919 252.484 162.919H319.658C322.661 162.919 325.106 160.474 325.106 157.471V68.2156C325.106 65.212 322.661 62.767 319.658 62.767H252.484Z" fill="black"/>
<path d="M273.145 91.1533H255.9V147.822H273.145V91.1533Z" fill="white"/>
<path d="M273.146 148.369H255.901C255.6 148.369 255.354 148.124 255.354 147.823V91.1537C255.354 90.8524 255.6 90.6074 255.901 90.6074H273.146C273.447 90.6074 273.692 90.8524 273.692 91.1537V147.823C273.692 148.124 273.447 148.369 273.146 148.369ZM256.447 147.276H272.599V91.7001H256.447V147.276Z" fill="black"/>
<path d="M294.695 75.5156H277.45V147.822H294.695V75.5156Z" fill="white"/>
<path d="M294.693 148.369H277.448C277.146 148.369 276.901 148.124 276.901 147.823V75.5161C276.901 75.2147 277.146 74.9697 277.448 74.9697H294.693C294.994 74.9697 295.239 75.2147 295.239 75.5161V147.823C295.239 148.124 294.994 148.369 294.693 148.369ZM277.994 147.276H294.146V76.0624H277.994V147.276Z" fill="black"/>
<path d="M316.242 114.039H298.997V147.823H316.242V114.039Z" fill="white"/>
<path d="M316.242 148.369H298.997C298.696 148.369 298.451 148.124 298.451 147.823V114.039C298.451 113.737 298.696 113.492 298.997 113.492H316.242C316.544 113.492 316.789 113.737 316.789 114.039V147.823C316.789 148.124 316.544 148.369 316.242 148.369ZM299.544 147.276H315.696V114.582H299.544V147.276Z" fill="black"/>
<path d="M185.653 366.972L187.16 381.328L196.867 382.465V365.445L185.653 366.972Z" fill="white"/>
<path d="M196.867 383.011C196.845 383.011 196.825 383.011 196.803 383.007L187.097 381.87C186.842 381.84 186.643 381.639 186.616 381.385L185.11 367.028C185.078 366.734 185.286 366.47 185.578 366.43L196.791 364.902C196.948 364.88 197.104 364.929 197.224 365.032C197.342 365.134 197.411 365.284 197.411 365.443V382.465C197.411 382.622 197.345 382.769 197.227 382.872C197.126 382.96 196.997 383.009 196.864 383.009L196.867 383.011ZM187.658 380.836L196.32 381.853V366.07L186.251 367.442L187.658 380.838V380.836Z" fill="black"/>
<path d="M198.396 407.456C194.351 408.024 187.717 408.527 179.931 407.449C177.378 407.096 175.688 404.619 176.302 402.118C178.017 395.148 180.972 381.928 186.041 375.803L187.3 379.125L189.04 375.997C189.277 375.568 189.706 375.279 190.193 375.218L194.003 374.735C194.799 374.634 195.539 375.161 195.703 375.945L196.308 378.829L197.636 375.044L202.068 402.598C202.379 404.952 200.743 407.125 198.391 407.456H198.396Z" fill="white"/>
<path d="M189.219 408.63C186.382 408.63 183.226 408.456 179.855 407.988C178.481 407.797 177.248 407.033 176.472 405.886C175.698 404.747 175.443 403.324 175.773 401.986L176.141 400.482C177.89 393.291 180.818 381.26 185.622 375.454C185.747 375.304 185.941 375.233 186.132 375.263C186.323 375.294 186.484 375.427 186.553 375.608L187.396 377.833L188.564 375.731C188.885 375.152 189.468 374.758 190.125 374.675L193.935 374.192C194.998 374.057 196.017 374.777 196.238 375.833L196.441 376.806L197.122 374.863C197.205 374.628 197.44 374.479 197.685 374.501C197.933 374.523 198.136 374.711 198.175 374.956L202.607 402.51C202.958 405.171 201.101 407.626 198.467 407.996C196.088 408.331 192.923 408.63 189.214 408.63H189.219ZM185.877 376.904C181.572 382.772 178.853 393.946 177.202 400.742L176.834 402.248C176.575 403.302 176.768 404.377 177.378 405.274C177.981 406.163 178.941 406.759 180.009 406.908C187.663 407.966 194.194 407.496 198.325 406.915C200.368 406.629 201.809 404.723 201.537 402.67L197.448 377.254L196.83 379.011C196.75 379.241 196.522 379.391 196.279 379.374C196.034 379.359 195.831 379.18 195.782 378.942L195.174 376.059C195.069 375.557 194.589 375.211 194.074 375.277L190.265 375.76C189.951 375.799 189.674 375.988 189.52 376.265L187.78 379.393C187.678 379.579 187.477 379.687 187.264 379.672C187.053 379.658 186.869 379.521 186.793 379.322L185.877 376.906V376.904Z" fill="black"/>
<path d="M187.154 404.013C184.567 404.013 181.766 403.782 178.976 403.148C178.682 403.082 178.498 402.788 178.564 402.494C178.633 402.2 178.924 402.016 179.218 402.082C188.729 404.25 198.69 401.462 198.791 401.435C199.08 401.352 199.381 401.521 199.464 401.81C199.548 402.099 199.379 402.403 199.09 402.484C198.791 402.57 193.641 404.01 187.154 404.01V404.013Z" fill="black"/>
<path d="M184.835 393.339C184.541 393.339 184.301 393.106 184.291 392.812C184.282 392.511 184.517 392.258 184.818 392.249L193.917 391.947C194.216 391.945 194.471 392.173 194.48 392.474C194.49 392.775 194.255 393.028 193.954 393.038L184.855 393.339C184.855 393.339 184.843 393.339 184.835 393.339Z" fill="black"/>
<path d="M231.117 359.328L232.572 380.277H244.251L244.795 359.328H231.117Z" fill="white"/>
<path d="M244.251 380.825H232.573C232.286 380.825 232.048 380.602 232.029 380.317L230.573 359.368C230.564 359.216 230.615 359.069 230.718 358.959C230.821 358.849 230.965 358.785 231.117 358.785H244.795C244.942 358.785 245.084 358.844 245.187 358.949C245.29 359.055 245.346 359.197 245.341 359.344L244.798 380.293C244.79 380.589 244.548 380.825 244.251 380.825ZM233.082 379.734H243.72L244.234 359.878H231.7L233.08 379.734H233.082Z" fill="black"/>
<path d="M229.522 392.106C229.493 394.088 230.847 395.827 232.778 396.275C239.493 397.838 254.619 401.317 258.933 401.959C264.534 402.792 271.415 401.077 274.375 397.802C277.334 394.526 267.75 386.706 263.201 383.859C256.444 379.633 249.952 371.276 247.23 370.902C244.508 370.527 239.427 378.423 239.427 378.423L231.122 374.934C231.122 374.934 229.674 382.051 229.524 392.103L229.522 392.106Z" fill="white"/>
<path d="M261.861 402.716C260.844 402.716 259.833 402.645 258.85 402.501C254.492 401.852 239.077 398.304 232.653 396.807C230.49 396.303 228.944 394.323 228.976 392.096C229.126 382.11 230.569 374.898 230.583 374.827C230.615 374.668 230.718 374.53 230.862 374.452C231.007 374.376 231.179 374.369 231.328 374.432L239.214 377.745C240.5 375.802 244.599 369.988 247.301 370.363C248.84 370.576 251.045 372.668 254.095 375.562C256.939 378.259 260.161 381.319 263.485 383.397C267.138 385.682 274.865 391.726 275.439 395.827C275.568 396.751 275.345 397.537 274.777 398.165C272.281 400.928 266.994 402.712 261.861 402.712V402.716ZM231.531 375.701C231.181 377.681 230.189 383.955 230.066 392.113C230.042 393.828 231.232 395.357 232.898 395.744C239.31 397.236 254.69 400.776 259.009 401.421C264.625 402.256 271.193 400.507 273.964 397.437C274.309 397.052 274.439 396.577 274.356 395.982C273.871 392.503 266.658 386.672 262.905 384.325C259.487 382.189 256.224 379.09 253.343 376.355C250.77 373.915 248.34 371.61 247.149 371.446C245.422 371.206 241.772 375.782 239.881 378.722C239.736 378.945 239.454 379.033 239.209 378.93L231.526 375.704L231.531 375.701Z" fill="black"/>
<path d="M261.743 398.877C249.604 398.877 233.285 392.284 232.366 391.907C232.087 391.792 231.955 391.473 232.068 391.196C232.18 390.917 232.501 390.785 232.778 390.898C233.077 391.02 262.657 402.973 271.364 395.109C271.589 394.908 271.932 394.925 272.136 395.148C272.337 395.371 272.319 395.717 272.097 395.92C269.713 398.073 265.982 398.877 261.743 398.877Z" fill="black"/>
<path d="M248.798 386.183C248.648 386.183 248.501 386.122 248.391 386.002C248.19 385.779 248.207 385.433 248.43 385.232L254.371 379.874C254.597 379.674 254.94 379.691 255.143 379.914C255.344 380.137 255.327 380.482 255.104 380.683L249.163 386.041C249.057 386.134 248.928 386.18 248.798 386.18V386.183Z" fill="black"/>
<path d="M182.342 222.761C182.342 222.761 178.723 288.25 176.83 310.857C174.936 333.465 181.259 369.805 181.259 369.805L199.288 368.856C199.288 368.856 200.523 324.672 201.863 312.401C201.863 312.401 209.477 295.766 211.736 280.932C213.992 266.098 221.68 242.664 221.68 242.664C221.68 242.664 227.922 359.62 228.525 368.81C228.525 368.81 242.663 369.44 247.73 366.25C247.73 366.25 256.711 323.604 255.42 300.401C254.131 277.198 255.548 219.552 255.548 219.552L182.342 222.761Z" fill="black"/>
<path d="M198.541 312.945H193.031C192.729 312.945 192.484 312.7 192.484 312.399C192.484 312.098 192.729 311.853 193.031 311.853H198.541C198.842 311.853 199.087 312.098 199.087 312.399C199.087 312.7 198.842 312.945 198.541 312.945Z" fill="white"/>
<path d="M237.797 346.959C237.797 346.959 237.79 346.959 237.788 346.959C237.486 346.954 237.246 346.704 237.251 346.403C237.449 335.594 249.314 316.212 249.819 315.394C249.976 315.137 250.314 315.059 250.569 315.215C250.826 315.372 250.904 315.71 250.748 315.965C250.625 316.163 238.535 335.912 238.341 346.422C238.336 346.721 238.091 346.959 237.795 346.959H237.797Z" fill="white"/>
<path d="M261.253 118.022C262.566 117.92 269.007 131.112 289.167 130.559C309.327 130.005 325.502 107.446 325.502 107.446C325.502 107.446 332.464 95.7062 337.749 91.4605C343.033 87.2173 343.861 86.6562 343.861 86.6562C343.861 86.6562 345.517 88.8636 343.861 91.4605C342.205 94.0574 337.631 98.918 337.631 98.918C337.631 98.918 342.671 101.684 340.397 107.446C337.783 114.073 330.419 113.542 330.419 113.542C330.419 113.542 315.472 179.718 253.697 148.271L261.253 118.02V118.022Z" fill="white"/>
<path d="M284.331 157.297C274.951 157.297 264.624 154.448 253.45 148.759C253.225 148.644 253.107 148.387 253.168 148.142L260.724 117.89C260.78 117.663 260.976 117.496 261.211 117.479C261.753 117.437 262.179 117.912 263.211 119.061C266.266 122.469 273.417 130.449 289.155 130.015C308.818 129.476 324.902 107.353 325.061 107.13C325.321 106.687 332.109 95.2949 337.409 91.0394C342.649 86.8281 343.523 86.2303 343.558 86.2082C343.798 86.0465 344.126 86.1004 344.3 86.3332C344.376 86.4361 346.162 88.8762 344.325 91.7597C342.945 93.923 339.662 97.5366 338.469 98.8277C339.8 99.8199 342.842 102.748 340.909 107.65C338.57 113.581 332.568 114.078 330.85 114.096C329.909 117.77 322.596 143.739 301.767 153.515C296.395 156.035 290.574 157.297 284.336 157.297H284.331ZM254.332 147.983C272.457 157.116 288.254 158.647 301.294 152.53C323.133 142.282 329.824 113.711 329.887 113.422C329.946 113.16 330.191 112.981 330.458 112.998C330.742 113.018 337.46 113.412 339.89 107.248C341.953 102.017 337.556 99.5014 337.367 99.3985C337.22 99.3177 337.117 99.1707 337.092 99.0041C337.066 98.8375 337.119 98.6685 337.235 98.546C337.279 98.497 341.791 93.6951 343.401 91.1693C344.413 89.5842 344.018 88.1682 343.693 87.4601C343.021 87.9697 341.475 89.1677 338.09 91.8871C332.942 96.0226 326.041 107.608 325.97 107.723C325.781 107.99 309.379 130.549 289.182 131.103C288.758 131.115 288.337 131.12 287.925 131.12C272.555 131.12 265.469 123.214 262.395 119.787C262.111 119.471 261.824 119.15 261.591 118.912L254.33 147.98L254.332 147.983Z" fill="black"/>
<path d="M161.337 148.274C161.337 148.274 167.386 109.224 188.761 99.6183C210.134 90.0098 239.05 91.3475 247.025 96.1444C254.999 100.941 275.782 122.635 275.782 122.635L257.417 148.274C257.417 148.274 261.614 217.292 258.297 235.512C258.297 235.512 237.867 237.896 229.202 234.483C220.536 231.071 192.044 226.288 178.425 232.545L180.899 145.165L161.339 148.274H161.337Z" fill="white"/>
<path d="M243.876 236.877C238.45 236.877 232.71 236.451 228.998 234.991C220.467 231.632 192.262 226.788 178.65 233.043C178.478 233.121 178.28 233.107 178.121 233.001C177.964 232.899 177.871 232.72 177.876 232.531L180.333 145.807L161.422 148.813C161.251 148.84 161.074 148.783 160.952 148.661C160.829 148.538 160.771 148.362 160.797 148.191C161.047 146.583 167.138 108.74 188.535 99.1213C209.6 89.6524 238.707 90.505 247.304 95.6767C255.249 100.457 275.323 121.369 276.173 122.258C276.355 122.447 276.377 122.741 276.222 122.954L257.971 148.436C258.213 152.507 262.035 218.01 258.831 235.611C258.786 235.846 258.595 236.027 258.358 236.054C257.877 236.11 251.16 236.877 243.876 236.877ZM196.936 228.947C209.854 228.947 223.804 231.772 229.4 233.974C237.176 237.036 254.925 235.322 257.829 235.013C260.967 216.472 256.912 148.989 256.871 148.306C256.863 148.181 256.898 148.056 256.971 147.955L275.073 122.685C272.44 119.955 254.031 100.995 246.743 96.6102C239.239 92.095 210.369 90.5001 188.984 100.114C169.735 108.767 162.98 142.191 162.003 147.615L180.811 144.626C180.972 144.601 181.134 144.648 181.257 144.756C181.379 144.864 181.445 145.018 181.443 145.182L178.993 231.705C183.827 229.709 190.243 228.952 196.936 228.952V228.947Z" fill="black"/>
<path d="M197.196 215.083C196.936 215.083 196.706 214.897 196.66 214.632C196.608 214.336 196.804 214.051 197.103 214C229.589 208.257 239.072 185.765 239.163 185.539C239.276 185.26 239.594 185.125 239.873 185.238C240.153 185.351 240.288 185.669 240.175 185.949C240.082 186.181 230.4 209.223 197.292 215.073C197.26 215.078 197.228 215.08 197.196 215.08V215.083Z" fill="black"/>
<path d="M255.868 175.566H214.276L227.303 129.108H268.895L255.868 175.566Z" fill="black"/>
<path d="M165.004 148.424L186.054 139.014C186.054 139.014 183.089 174.679 225.676 158.211C225.676 158.211 224.106 153.627 224.329 148.274C224.552 142.921 227.754 148.1 228.202 152.451C228.65 156.802 238.648 155.036 244.658 153.321C250.668 151.606 258.554 152.728 244.658 160.394C230.762 168.06 227.717 164.64 227.717 164.64C227.717 164.64 209.972 189.472 187.891 184.195C160.734 177.708 165.004 148.421 165.004 148.421V148.424Z" fill="white"/>
<path d="M194.053 185.469C192.002 185.469 189.905 185.238 187.766 184.726C173.481 181.314 167.905 171.585 165.739 164.027C163.407 155.876 164.419 148.649 164.463 148.345C164.49 148.161 164.61 148.002 164.781 147.926L185.831 138.516C186.007 138.438 186.211 138.457 186.37 138.57C186.527 138.683 186.615 138.869 186.598 139.06C186.588 139.19 185.625 152.14 194.112 158.483C200.675 163.39 211.067 163.189 225.003 157.885C224.601 156.538 223.599 152.679 223.782 148.252C223.812 147.569 223.898 145.486 225.164 145.449C225.174 145.449 225.184 145.449 225.194 145.449C226.84 145.449 228.452 149.582 228.744 152.397C228.805 152.988 229.087 153.446 229.606 153.799C232.102 155.487 239.192 154.316 244.506 152.799C247.294 152.003 252.018 151.474 252.829 153.443C253.522 155.126 250.935 157.557 244.92 160.876C233.533 167.156 229.207 166.171 227.83 165.401C225.544 168.385 211.677 185.473 194.053 185.473V185.469ZM165.507 148.796C165.345 150.234 164.779 156.734 166.798 163.762C169.833 174.331 176.975 181.027 188.019 183.665C190.072 184.155 192.093 184.378 194.065 184.378C212.704 184.378 227.114 164.544 227.274 164.323C227.369 164.189 227.523 164.105 227.688 164.096C227.862 164.086 228.013 164.154 228.124 164.277C228.143 164.294 231.262 167.158 244.394 159.916C252.253 155.58 251.888 154.019 251.822 153.855C251.486 153.039 248.282 152.853 244.808 153.845C241.99 154.649 232.524 157.086 228.996 154.698C228.205 154.161 227.754 153.424 227.661 152.505C227.335 149.342 225.733 146.628 225.199 146.537C225.208 146.557 224.936 146.848 224.875 148.294C224.66 153.475 226.178 157.986 226.196 158.032C226.291 158.309 226.149 158.613 225.877 158.718C211.325 164.345 200.415 164.559 193.455 159.353C185.731 153.573 185.385 143.041 185.468 139.873L165.511 148.796H165.507Z" fill="black"/>
<path d="M221.19 81.8207C219.372 83.4866 215.817 85.5176 213.034 84.1162C210.962 83.0726 209.805 80.3703 209.879 77.2736C208.921 77.352 207.662 77.2834 206.765 76.4921C205.383 75.2721 205.643 73.0255 205.697 71.5482C205.947 64.735 201.988 63.6889 202.955 59.0659C203.717 55.4327 206.571 53.267 207.106 52.8628C209.8 50.8195 211.626 51.4786 216.156 50.2904C223.78 48.2937 224.022 45.0084 229.044 44.9912C229.336 44.9912 236.171 45.0647 238.491 49.7881C240.378 53.6296 238.175 58.2967 235.894 60.749C232.945 63.9241 230.826 62.3562 227.864 65.0192C222.665 69.6961 226.59 76.8719 221.188 81.8158L221.19 81.8207Z" fill="black"/>
<path d="M236.405 69.6637L236.104 69.404C234.594 68.1031 233.024 66.594 232.625 64.6439C230.922 56.3509 223.325 53.34 222.974 60.9543C222.886 62.875 215.867 62.777 216.7 64.7933C218.871 70.0533 218.92 68.6372 215.855 70.5751C215.507 70.5898 215.164 70.6657 214.838 70.8176C213.268 71.5502 212.709 73.684 213.596 75.5827C214.133 76.7366 215.081 77.5279 216.09 77.817V86.1271C216.09 89.2409 214.206 92.0461 211.323 93.2269L208.518 94.3735C208.518 94.3735 221.6 102.911 234.879 93.5381L233.107 92.7443C229.986 91.3454 227.938 88.2855 227.83 84.8679L227.816 83.2436C228.707 83.322 229.572 83.2632 230.371 83.0304C234.085 81.95 235.32 77.67 234.687 72.3513L236.199 71.5379C236.905 71.1582 237.01 70.1905 236.405 69.6662V69.6637Z" fill="white"/>
<path d="M221.453 98.4478C213.897 98.4478 208.306 94.8856 208.218 94.8293C208.049 94.719 207.954 94.523 207.973 94.3197C207.993 94.1188 208.123 93.9424 208.309 93.8665L211.114 92.7199C213.804 91.6199 215.541 89.0328 215.541 86.1272V78.2067C214.497 77.7877 213.62 76.9352 213.098 75.8131C212.087 73.6449 212.763 71.1803 214.605 70.3229C214.938 70.1661 215.298 70.073 215.681 70.0387C216.188 69.7226 216.604 69.5021 216.942 69.3208C217.329 69.115 217.694 68.9191 217.704 68.8211C217.729 68.5736 217.425 67.8754 217.006 66.9077C216.783 66.3932 216.511 65.7685 216.195 65.0016C216.043 64.6366 216.048 64.2691 216.21 63.9384C216.631 63.0736 217.988 62.6938 219.556 62.2529C220.691 61.9344 222.403 61.4542 222.428 60.9299C222.621 56.7357 224.814 56.1134 225.747 56.0399C228.43 55.8316 232.024 59.0165 233.156 64.5337C233.526 66.3393 235.055 67.7823 236.458 68.9901L236.76 69.2498C237.181 69.6124 237.397 70.1587 237.335 70.7124C237.274 71.2661 236.946 71.7511 236.456 72.0157L235.268 72.6527C235.878 78.53 234.158 82.4916 230.522 83.5499C229.856 83.7435 229.128 83.8316 228.364 83.8169L228.374 84.8606C228.474 88.0357 230.419 90.9388 233.327 92.2446L235.099 93.0384C235.277 93.1192 235.4 93.2883 235.42 93.4843C235.439 93.6803 235.351 93.8689 235.192 93.9816C230.41 97.3576 225.63 98.4478 221.45 98.4478H221.453ZM209.764 94.452C212.885 96.0885 223.236 100.489 233.763 93.6337L232.884 93.2393C229.596 91.7644 227.399 88.484 227.286 84.8827L227.271 83.2461C227.271 83.0918 227.332 82.9448 227.448 82.8394C227.56 82.7341 227.712 82.6826 227.866 82.6973C228.724 82.7733 229.518 82.7096 230.223 82.5038C233.371 81.5875 234.802 77.9102 234.151 72.4126C234.124 72.1897 234.236 71.9741 234.435 71.8687L235.946 71.0554C236.123 70.9598 236.235 70.7932 236.257 70.5948C236.279 70.3964 236.206 70.2077 236.054 70.0779L235.753 69.8182C234.214 68.4928 232.534 66.8954 232.095 64.7542C231.115 59.9769 228.065 56.9537 225.84 57.1276C224.476 57.2354 223.633 58.6392 223.525 60.9814C223.464 62.2945 221.712 62.7869 219.858 63.3063C218.821 63.5954 217.403 63.9947 217.197 64.4186C217.185 64.4431 217.168 64.4823 217.209 64.5876C217.523 65.3471 217.792 65.9669 218.013 66.4765C219.039 68.8382 219.253 69.3306 217.462 70.2886C217.114 70.4747 216.68 70.7075 216.151 71.0407C216.07 71.0921 215.977 71.1215 215.882 71.124C215.59 71.1362 215.318 71.1999 215.073 71.3151C213.777 71.9202 213.339 73.7307 214.093 75.355C214.539 76.3129 215.345 77.0381 216.242 77.2953C216.477 77.3614 216.639 77.577 216.639 77.8196V86.1272C216.639 89.4787 214.635 92.4627 211.533 93.7317L209.767 94.4544L209.764 94.452Z" fill="black"/>
<path d="M227.817 83.7853C227.79 83.7853 227.761 83.7853 227.734 83.778C222.381 82.9572 219.975 78.8708 219.874 78.6993C219.725 78.4396 219.813 78.1064 220.075 77.9545C220.335 77.8051 220.668 77.8933 220.82 78.153C220.842 78.1897 223.079 81.9601 227.898 82.7C228.197 82.7466 228.4 83.0234 228.353 83.3223C228.312 83.5918 228.079 83.7853 227.815 83.7853H227.817Z" fill="black"/>
<path d="M50.4291 155.708C49.7432 155.708 49.0572 155.568 48.4055 155.294C47.134 154.752 46.1491 153.75 45.6322 152.469C44.5641 149.823 45.8478 146.802 48.4937 145.737C51.1396 144.669 54.1579 145.952 55.2261 148.598C56.2942 151.244 55.0105 154.265 52.3646 155.331C51.7398 155.583 51.0833 155.71 50.4291 155.71V155.708ZM50.4218 146.45C49.9147 146.45 49.4002 146.545 48.9004 146.746C46.8131 147.589 45.8013 149.973 46.644 152.06C47.0532 153.072 47.8298 153.863 48.8318 154.289C49.8363 154.716 50.9436 154.725 51.9554 154.319C54.0427 153.476 55.0546 151.092 54.2118 149.005C53.5699 147.417 52.0363 146.45 50.4218 146.45Z" fill="black"/>
<path d="M431.721 167.186C431.586 167.186 431.449 167.137 431.343 167.034C431.125 166.826 431.118 166.48 431.326 166.262L433.884 163.589C434.092 163.371 434.438 163.364 434.656 163.572C434.874 163.781 434.881 164.126 434.673 164.344L432.115 167.017C432.007 167.13 431.865 167.186 431.721 167.186Z" fill="black"/>
<path d="M422.769 176.539C422.634 176.539 422.497 176.49 422.391 176.388C422.173 176.179 422.166 175.834 422.374 175.616L424.932 172.943C425.14 172.725 425.485 172.718 425.703 172.926C425.922 173.134 425.929 173.48 425.721 173.698L423.163 176.37C423.055 176.483 422.913 176.539 422.769 176.539Z" fill="black"/>
<path d="M425.277 167.328C425.14 167.328 425 167.277 424.895 167.171L422.298 164.614C422.082 164.403 422.08 164.058 422.293 163.842C422.504 163.626 422.849 163.624 423.065 163.837L425.659 166.395C425.875 166.605 425.877 166.951 425.664 167.166C425.556 167.274 425.417 167.328 425.275 167.328H425.277Z" fill="black"/>
<path d="M434.364 176.282C434.226 176.282 434.087 176.231 433.981 176.125L431.387 173.568C431.171 173.357 431.169 173.012 431.382 172.796C431.593 172.58 431.938 172.578 432.154 172.791L434.751 175.349C434.966 175.56 434.969 175.905 434.755 176.121C434.648 176.228 434.508 176.282 434.366 176.282H434.364Z" fill="black"/>
<path d="M246.446 11.1654C246.312 11.1654 246.174 11.1164 246.069 11.0135C245.851 10.8053 245.844 10.4598 246.052 10.2418L248.61 7.56895C248.818 7.35091 249.163 7.34356 249.381 7.5518C249.599 7.76005 249.607 8.10548 249.398 8.32353L246.841 10.9964C246.733 11.1091 246.591 11.1654 246.446 11.1654Z" fill="black"/>
<path d="M237.494 20.5189C237.359 20.5189 237.222 20.4699 237.117 20.367C236.899 20.1588 236.891 19.8134 237.1 19.5953L239.657 16.9225C239.866 16.7044 240.211 16.6971 240.429 16.9053C240.647 17.1136 240.654 17.459 240.446 17.677L237.889 20.3499C237.781 20.4626 237.639 20.5189 237.494 20.5189Z" fill="black"/>
<path d="M240.005 11.3077C239.868 11.3077 239.728 11.2562 239.623 11.1509L237.028 8.59316C236.813 8.38247 236.81 8.03703 237.024 7.82144C237.234 7.60585 237.58 7.6034 237.795 7.81654L240.392 10.3742C240.608 10.5849 240.61 10.9304 240.397 11.146C240.289 11.2538 240.15 11.3077 240.008 11.3077H240.005Z" fill="black"/>
<path d="M249.09 20.2618C248.952 20.2618 248.813 20.2103 248.707 20.105L246.111 17.5473C245.895 17.3366 245.892 16.9911 246.106 16.7755C246.316 16.56 246.662 16.5575 246.877 16.7706L249.474 19.3283C249.69 19.539 249.692 19.8845 249.479 20.1001C249.371 20.2079 249.232 20.2618 249.09 20.2618Z" fill="black"/>
<path d="M167.78 353.969L159.495 438.809L153.583 438.562L156.52 349.373L167.78 353.969Z" fill="white"/>
<path d="M159.495 439.355C159.495 439.355 159.48 439.355 159.473 439.355L153.561 439.108C153.262 439.095 153.03 438.843 153.039 438.544L155.977 349.355C155.982 349.176 156.075 349.012 156.224 348.914C156.374 348.816 156.562 348.799 156.726 348.868L167.986 353.466C168.209 353.557 168.346 353.785 168.322 354.025L160.036 438.865C160.009 439.147 159.774 439.357 159.492 439.357L159.495 439.355ZM154.147 438.039L159.002 438.243L167.197 354.321L157.038 350.173L154.144 438.039H154.147Z" fill="black"/>
<path d="M56.6426 350.915L64.7297 439.019L70.8422 438.56L67.9048 346.152L56.6426 350.915Z" fill="white"/>
<path d="M64.7276 439.565C64.4483 439.565 64.2107 439.352 64.1837 439.07L56.099 350.967C56.077 350.729 56.2117 350.506 56.4298 350.415L67.6895 345.653C67.8561 345.582 68.0448 345.599 68.1967 345.697C68.3486 345.795 68.4417 345.959 68.449 346.14L71.3865 438.548C71.3963 438.84 71.1733 439.087 70.8818 439.109L64.7693 439.568C64.7546 439.568 64.7423 439.568 64.7276 439.568V439.565ZM57.2235 351.263L65.2225 438.436L70.2791 438.056L67.3833 346.966L57.2235 351.263Z" fill="black"/>
<path d="M28.498 330.185L30.8769 422.701L35.6493 421.667L40.0273 325.787L28.498 330.185Z" fill="white"/>
<path d="M30.8765 423.247C30.7564 423.247 30.6364 423.208 30.5384 423.129C30.411 423.029 30.3351 422.877 30.3302 422.715L27.9513 330.199C27.9464 329.969 28.086 329.758 28.3016 329.675L39.8309 325.275C40.0024 325.209 40.1959 325.236 40.3454 325.344C40.4948 325.451 40.5781 325.628 40.5708 325.812L36.1928 421.691C36.1805 421.939 36.0041 422.147 35.7641 422.198L30.9916 423.232C30.9524 423.24 30.9157 423.244 30.8765 423.244V423.247ZM29.0538 330.557L31.4057 422.027L35.1246 421.221L39.4438 326.591L29.0538 330.555V330.557Z" fill="black"/>
<path d="M121.764 328.117L124.143 420.63L129.104 420.657L133.293 323.717L121.764 328.117Z" fill="white"/>
<path d="M97.8012 255.861V277.389C97.8012 298.441 114.404 315.509 134.888 315.509C155.372 315.509 171.975 332.575 171.975 353.63C171.975 355.507 170.456 357.025 168.584 357.025H70.4136C39.7089 357.025 14.8154 331.441 14.8154 299.879V253.948C14.8154 241.395 24.7155 231.218 36.9283 231.218H73.8239C87.0657 231.218 97.8012 242.252 97.8012 255.861Z" fill="white"/>
<path d="M168.584 357.57H70.4136C39.4565 357.57 14.2715 331.689 14.2715 299.877V253.946C14.2715 241.113 24.4362 230.672 36.9307 230.672H73.8263C87.3473 230.672 98.3499 241.973 98.3499 255.862V277.389C98.3499 298.108 114.742 314.963 134.89 314.963C155.038 314.963 172.523 332.309 172.523 353.628C172.523 355.801 170.757 357.57 168.589 357.57H168.584ZM36.9282 231.765C25.0364 231.765 15.3617 241.716 15.3617 253.948V299.879C15.3617 331.089 40.0592 356.48 70.4136 356.48H168.584C170.152 356.48 171.428 355.201 171.428 353.628C171.428 332.909 155.036 316.054 134.888 316.054C114.74 316.054 97.2548 298.708 97.2548 277.389V255.862C97.2548 242.574 86.7447 231.762 73.8239 231.762H36.9282V231.765Z" fill="black"/>
<path d="M5.3071 215.698C3.80285 215.076 2.47745 213.99 1.64448 212.503C0.409729 210.301 -0.249296 206.775 2.524 201.738C8.78841 190.363 19.252 195.741 23.2551 194.423C32.2242 191.471 30.1026 186.62 33.7481 181.909C36.4748 178.383 45.8898 171.732 60.1899 184.121C60.1899 184.121 66.6111 192.884 73.8898 189.55C82.832 185.454 100.8 194.722 95.1232 208.503C93.4866 212.476 90.5369 215.531 86.9429 217.19C86.2913 217.491 85.5783 217.78 84.8042 218.047C82.5625 218.819 80.8304 220.818 80.2694 223.396C78.4417 231.789 71.5208 247.99 45.8359 231.686C43.898 230.456 41.6 230.302 39.596 231.23C37.1339 232.374 34.4635 236.804 22.5912 234.935C14.9646 233.734 12.5417 224.858 10.5278 220.818C8.92316 217.602 6.62025 216.239 5.3071 215.696V215.698Z" fill="black"/>
<path d="M137.379 277.639C127.278 280.797 107.929 272.034 104.629 257.334C102.012 245.68 97.9235 239.766 96.3408 237.813C95.5838 236.522 94.5892 235.31 93.2736 234.153C83.8659 225.885 67.5716 228.563 60.5207 229.721C52.5218 231.035 45.8948 232.125 41.3894 237.199C40.1914 238.546 39.3437 239.957 38.7607 241.459V241.454C30.1492 257.665 37.129 274.403 41.4311 282.135C42.1415 313.138 31.8887 308.265 34.6644 322.031C38.572 341.425 69.8034 334.176 81.1637 331.699C85.1497 330.829 106.018 337.027 111.119 320.927C114.095 311.531 108.438 307.192 103.443 291.207C129.032 307.112 148.039 279.989 148.039 279.989L150.011 270.481C150.011 270.481 144.849 275.302 137.377 277.639H137.379Z" fill="white"/>
<path d="M56.8138 335.651C50.7601 335.651 44.9195 334.698 40.6028 331.878C37.1582 329.629 34.9802 326.353 34.1301 322.137C32.8855 315.963 34.184 313.425 35.9773 309.912C38.2117 305.541 41.2691 299.559 40.8894 282.282C36.2027 273.815 29.7154 257.329 38.2729 241.207C38.9001 239.612 39.7845 238.181 40.98 236.836C45.6153 231.618 52.4799 230.488 60.4323 229.183C67.4954 228.021 84.0323 225.304 93.6335 233.744C94.9491 234.898 95.9805 236.128 96.789 237.502C98.4549 239.565 102.541 245.555 105.16 257.214C106.581 263.545 111.363 269.466 118.28 273.457C124.821 277.233 132.254 278.668 137.215 277.117C144.472 274.849 149.587 270.128 149.638 270.081C149.812 269.92 150.072 269.888 150.278 270.005C150.484 270.123 150.594 270.358 150.545 270.591L148.573 280.099C148.558 280.172 148.529 280.241 148.484 280.302C148.435 280.371 143.575 287.233 135.618 292.03C128.461 296.342 117.324 299.811 104.403 292.415C105.993 297.261 107.642 301.031 108.99 304.11C111.792 310.522 113.644 314.755 111.638 321.091C107.488 334.188 93.2684 333 85.6272 332.363C83.704 332.204 82.0454 332.064 81.2786 332.231L80.5681 332.385C74.9162 333.622 65.6408 335.651 56.8138 335.651ZM39.2112 241.768C30.8938 257.496 37.3272 273.641 41.9086 281.87C41.9527 281.949 41.9747 282.034 41.9772 282.123C42.3814 299.779 39.2431 305.923 36.9499 310.409C35.1934 313.849 34.0297 316.122 35.2007 321.924C35.9896 325.841 38.0083 328.884 41.1981 330.966C51.4289 337.645 70.9522 333.375 80.3354 331.322L81.0483 331.165C81.9744 330.964 83.5448 331.094 85.7203 331.275C93.5722 331.929 106.714 333.027 110.602 320.76C112.486 314.817 110.793 310.951 107.992 304.547C106.51 301.156 104.665 296.94 102.924 291.368C102.855 291.15 102.931 290.913 103.11 290.773C103.291 290.634 103.538 290.621 103.732 290.741C114.147 297.214 124.674 297.339 135.027 291.111C142.308 286.731 146.939 280.574 147.529 279.763L149.156 271.921C147.186 273.492 142.992 276.456 137.541 278.159C132.3 279.798 124.527 278.323 117.733 274.403C110.553 270.26 105.582 264.081 104.095 257.454C101.515 245.959 97.5141 240.131 95.9143 238.159C95.8972 238.137 95.8825 238.115 95.8678 238.09C95.1157 236.804 94.148 235.653 92.9132 234.565C83.6991 226.468 67.5199 229.126 60.6087 230.26C52.5436 231.586 46.1739 232.632 41.7959 237.561C40.6738 238.823 39.8482 240.163 39.2676 241.657C39.2529 241.697 39.2333 241.733 39.2112 241.768Z" fill="black"/>
<path d="M92.7275 275.104C92.7275 275.104 111.153 268.386 116.906 256.107L128.766 245.056C128.766 245.056 128.599 250.399 125.076 252.628C125.076 252.628 128.099 258.716 123.638 262.918C123.638 262.918 120.291 265.579 118.297 265.625C118.297 265.625 112.457 284.81 96.6866 290.523C96.6866 290.523 92.2571 283.791 92.7251 275.104H92.7275Z" fill="white"/>
<path d="M96.6888 291.07C96.51 291.07 96.336 290.982 96.2332 290.825C96.0494 290.543 91.7106 283.843 92.1835 275.075C92.1957 274.857 92.3353 274.665 92.5411 274.592C92.7224 274.526 110.822 267.808 116.413 255.877C116.442 255.813 116.484 255.757 116.536 255.711L128.396 244.659C128.557 244.51 128.792 244.47 128.993 244.561C129.194 244.652 129.319 244.855 129.314 245.075C129.307 245.296 129.108 250.353 125.757 252.827C126.365 254.358 128.004 259.559 124.015 263.318C123.849 263.452 120.855 265.816 118.709 266.137C117.805 268.796 111.535 285.729 96.8775 291.038C96.8162 291.06 96.7525 291.07 96.6913 291.07H96.6888ZM93.2565 275.489C92.9846 282.596 96.0543 288.375 96.9216 289.857C111.944 284.115 117.721 265.655 117.778 265.469C117.846 265.243 118.052 265.089 118.287 265.081C119.772 265.045 122.41 263.2 123.302 262.492C127.374 258.653 124.706 253.104 124.591 252.871C124.468 252.621 124.552 252.317 124.787 252.168C126.938 250.806 127.746 248.131 128.048 246.474L117.356 256.438C111.895 267.94 95.8828 274.484 93.2565 275.491V275.489Z" fill="black"/>
<path d="M76.119 296.621C60.7654 296.621 51.9531 289.014 51.8355 288.909C51.6101 288.708 51.5905 288.365 51.789 288.139C51.9899 287.914 52.3329 287.892 52.5582 288.093C52.7126 288.23 68.3969 301.717 94.4982 292.032C94.78 291.927 95.0936 292.071 95.1989 292.353C95.3042 292.635 95.1597 292.948 94.878 293.054C87.8639 295.656 81.5774 296.618 76.119 296.618V296.621Z" fill="black"/>
<path d="M85.5417 275.846C72.1652 275.846 64.377 268.229 60.1117 261.514C55.0943 253.615 53.7591 245.224 53.7468 245.139C53.7003 244.84 53.9061 244.563 54.2025 244.516C54.5038 244.47 54.7782 244.676 54.8248 244.972C54.837 245.053 56.1453 253.25 61.05 260.955C67.5839 271.22 77.0699 275.799 89.2435 274.56C89.54 274.528 89.8119 274.748 89.8413 275.047C89.8707 275.346 89.6527 275.615 89.3538 275.645C88.0357 275.78 86.7642 275.843 85.5417 275.843V275.846Z" fill="black"/>
<path d="M95.9172 266.171C95.8903 266.171 95.8633 266.171 95.8364 266.166C95.5375 266.122 95.3317 265.845 95.3758 265.546C97.7816 249.097 90.2555 239.793 90.1795 239.7C89.9884 239.467 90.0203 239.124 90.2506 238.93C90.4833 238.737 90.8263 238.769 91.0174 239.001C91.3408 239.391 98.9355 248.747 96.4537 265.703C96.4145 265.975 96.1818 266.171 95.9148 266.171H95.9172Z" fill="black"/>
<path d="M92.5165 219.949C92.0044 216.524 92.8252 207.433 92.6757 207.653C91.2082 209.804 86.377 207.259 82.0284 207.087C77.6774 206.916 79.1424 213.45 79.1424 213.45C79.1424 213.45 77.8685 209.015 75.154 211.791C73.5787 213.401 75.3157 215.481 76.9326 216.84C76.4892 217.348 68.6519 225.792 63.8525 230.815L74.4974 238.894L79.8259 233.916L78.7406 232.184C77.9665 230.949 77.8954 229.399 78.5569 228.1L81.1636 223.683C81.7614 224.406 82.5184 225.234 83.2142 225.721C84.6033 226.689 86.328 226.54 87.553 225.371C89.2311 223.769 90.4071 221.968 90.9387 220.219L92.5165 219.949Z" fill="white"/>
<path d="M74.4971 239.438C74.3819 239.438 74.2643 239.401 74.1663 239.328L63.5215 231.248C63.3966 231.155 63.3206 231.01 63.3084 230.856C63.2961 230.702 63.35 230.547 63.4578 230.435C67.8431 225.846 74.4946 218.69 76.1557 216.882C75.1243 215.939 74.0561 214.655 73.9924 213.342C73.9581 212.619 74.2178 211.967 74.7641 211.409C75.6314 210.522 76.4913 210.179 77.3267 210.39C77.7285 210.49 78.0715 210.713 78.363 210.99C78.3826 209.828 78.6031 208.523 79.3504 207.626C79.9873 206.859 80.8938 206.497 82.0501 206.541C83.6916 206.604 85.4114 207.001 86.9304 207.349C89.3852 207.913 91.5043 208.4 92.2271 207.344C92.3643 207.141 92.6264 207.053 92.8591 207.131C93.145 207.227 93.243 208.075 93.1531 209.674C92.9988 212.425 92.7121 217.548 93.06 219.868C93.1041 220.162 92.9057 220.437 92.6117 220.486L91.3598 220.699C90.7547 222.45 89.5763 224.195 87.9324 225.763C86.5163 227.115 84.4952 227.277 82.9052 226.164C82.4201 225.826 81.864 225.305 81.249 224.614L79.0319 228.374C78.4782 229.467 78.537 230.824 79.2058 231.89L80.2911 233.622C80.4308 233.842 80.3916 234.132 80.2005 234.31L74.8719 239.289C74.7666 239.387 74.6343 239.436 74.4995 239.436L74.4971 239.438ZM64.6681 230.748L74.4603 238.181L79.125 233.825L78.2773 232.475C77.4051 231.086 77.3267 229.315 78.0715 227.855L80.6929 223.408C80.7836 223.254 80.9428 223.156 81.1192 223.141C81.2956 223.127 81.4695 223.2 81.5822 223.337C82.3392 224.251 82.9934 224.903 83.525 225.275C84.6961 226.093 86.1292 225.976 87.1754 224.979C88.7825 223.443 89.9046 221.742 90.4166 220.062C90.4778 219.863 90.6444 219.719 90.8478 219.682L91.911 219.501C91.6513 216.906 91.9135 212.217 92.0605 209.615C92.0752 209.334 92.0923 209.054 92.1046 208.802C90.7988 209.361 88.8535 208.915 86.6829 208.415C85.1395 208.06 83.5446 207.695 82.0036 207.633C81.2 207.602 80.5998 207.829 80.1858 208.327C79.1299 209.596 79.4557 212.369 79.6713 213.332C79.735 213.618 79.561 213.905 79.2744 213.979C78.9902 214.052 78.6962 213.886 78.6154 213.601C78.4733 213.109 77.878 211.656 77.0548 211.45C76.6261 211.343 76.1165 211.585 75.5407 212.175C75.21 212.514 75.0581 212.879 75.0777 213.293C75.1194 214.155 75.9033 215.267 77.2802 216.426C77.3929 216.522 77.4615 216.656 77.4737 216.803C77.486 216.95 77.437 217.095 77.339 217.205C76.9274 217.673 69.5875 225.589 64.6656 230.753L64.6681 230.748Z" fill="black"/>
<path d="M81.1634 224.229C80.9943 224.229 80.8253 224.151 80.72 224.002L79.887 222.84C79.7106 222.595 79.7669 222.255 80.0119 222.078C80.2569 221.902 80.5975 221.958 80.7738 222.203L81.6068 223.365C81.7832 223.61 81.7269 223.95 81.4819 224.127C81.3863 224.195 81.2736 224.229 81.1634 224.229Z" fill="black"/>
<path d="M172.888 395.117C172.783 395.551 177.883 418.886 177.883 418.886L166.163 416.924L162.633 397.195L172.891 395.117H172.888Z" fill="white"/>
<path d="M177.884 419.432C177.854 419.432 177.825 419.432 177.793 419.425L166.073 417.463C165.845 417.424 165.666 417.247 165.627 417.022L162.096 397.293C162.045 397.001 162.234 396.719 162.525 396.661L172.783 394.583C172.967 394.546 173.155 394.605 173.285 394.74C173.39 394.85 173.444 394.997 173.437 395.147C173.515 396.114 176.453 409.772 178.42 418.773C178.459 418.95 178.408 419.136 178.283 419.266C178.18 419.376 178.035 419.435 177.888 419.435L177.884 419.432ZM166.631 416.448L177.178 418.215C173.694 402.263 172.709 397.337 172.445 395.764L163.262 397.623L166.631 416.448Z" fill="black"/>
<path d="M171.659 411.233C172.376 410.63 173.401 410.042 174.706 409.986C176.671 409.902 178.462 411.132 179.275 412.938C181.309 417.455 186.667 430.041 188.183 440.325C188.72 443.961 185.976 446.918 181.701 444.534C174.697 440.632 164.98 431.67 159.892 418.433C159.309 416.914 159.517 415.197 160.475 413.884C161.259 412.813 162.32 411.517 163.554 410.41C164.733 409.354 166.506 409.339 167.729 410.343L168.829 411.25C169.655 411.928 170.84 411.919 171.659 411.23V411.233Z" fill="white"/>
<path d="M184.587 445.94C183.727 445.94 182.676 445.703 181.434 445.009C174.106 440.925 164.463 431.851 159.382 418.629C158.723 416.916 158.968 415.02 160.034 413.562C161.063 412.156 162.123 410.958 163.189 410.005C164.571 408.768 166.624 408.731 168.074 409.924L169.177 410.831C169.794 411.34 170.691 411.333 171.308 410.814C172.318 409.966 173.484 409.491 174.682 409.439C176.798 409.348 178.849 410.664 179.773 412.712C181.96 417.573 187.211 429.987 188.722 440.244C189.031 442.341 188.335 444.257 186.907 445.245C186.439 445.568 185.665 445.94 184.589 445.94H184.587ZM165.671 410.147C165.041 410.147 164.419 410.373 163.919 410.818C162.91 411.722 161.901 412.862 160.916 414.207C160.068 415.365 159.877 416.872 160.401 418.237C165.379 431.187 174.804 440.065 181.965 444.056C183.656 445 185.189 445.1 186.284 444.345C187.37 443.596 187.889 442.087 187.642 440.404C186.152 430.283 180.946 417.98 178.778 413.161C178.038 411.514 176.414 410.456 174.731 410.529C173.761 410.571 172.847 410.948 172.011 411.649C170.992 412.506 169.51 412.516 168.483 411.673L167.381 410.767C166.876 410.353 166.271 410.147 165.668 410.147H165.671Z" fill="black"/>
<path d="M185.515 441.845C184.592 441.845 174.709 441.267 162.724 417.581C162.586 417.312 162.694 416.983 162.964 416.849C163.233 416.711 163.562 416.819 163.696 417.089C175.708 440.828 185.429 440.757 185.532 440.755C185.848 440.743 186.086 440.98 186.098 441.282C186.108 441.583 185.873 441.835 185.571 441.845C185.559 441.845 185.54 441.845 185.515 441.845Z" fill="black"/>
<path d="M178.014 428.806C177.796 428.806 177.59 428.676 177.507 428.46C177.397 428.181 177.534 427.862 177.813 427.752L183.369 425.56C183.651 425.449 183.967 425.587 184.078 425.866C184.188 426.145 184.051 426.464 183.771 426.574L178.215 428.767C178.149 428.793 178.083 428.806 178.014 428.806Z" fill="black"/>
<path d="M176.066 424.549C175.848 424.549 175.642 424.416 175.556 424.201C175.446 423.919 175.586 423.603 175.867 423.495L182.384 420.96C182.666 420.849 182.982 420.989 183.09 421.271C183.2 421.552 183.06 421.869 182.779 421.976L176.262 424.512C176.196 424.536 176.13 424.549 176.063 424.549H176.066Z" fill="black"/>
<path d="M122.45 397.236C122.173 397.586 116.992 420.905 116.992 420.905L107.18 414.197L112.268 394.811L122.45 397.236Z" fill="white"/>
<path d="M116.992 421.448C116.884 421.448 116.776 421.416 116.683 421.353L106.871 414.645C106.68 414.515 106.592 414.28 106.651 414.057L111.739 394.671C111.815 394.384 112.104 394.21 112.393 394.279L122.575 396.704C122.757 396.748 122.904 396.88 122.965 397.057C123.014 397.201 123.002 397.356 122.933 397.488C122.597 398.399 119.523 412.026 117.524 421.022C117.484 421.198 117.359 421.345 117.19 421.411C117.127 421.436 117.058 421.451 116.989 421.451L116.992 421.448ZM107.807 413.961L116.634 419.998C120.179 404.061 121.355 399.176 121.774 397.635L112.66 395.464L107.805 413.964L107.807 413.961Z" fill="black"/>
<path d="M114.561 411.345C115.465 411.1 116.643 410.997 117.849 411.494C119.666 412.244 120.774 414.113 120.754 416.093C120.7 421.046 120.274 434.717 117.324 444.688C116.283 448.211 112.552 449.742 109.673 445.783C104.957 439.296 99.9079 427.08 100.856 412.935C100.964 411.31 101.875 409.84 103.296 409.054C104.457 408.412 105.966 407.682 107.549 407.197C109.063 406.734 110.678 407.466 111.366 408.892L111.986 410.176C112.451 411.139 113.529 411.629 114.561 411.347V411.345Z" fill="white"/>
<path d="M113.451 448.668C112.368 448.668 110.768 448.217 109.232 446.103C104.298 439.317 99.3641 427.03 100.312 412.897C100.435 411.064 101.451 409.45 103.034 408.575C104.558 407.733 106.023 407.093 107.392 406.674C109.166 406.133 111.045 406.963 111.859 408.654L112.478 409.937C112.826 410.658 113.642 411.03 114.419 410.819C115.69 410.474 116.95 410.533 118.059 410.991C120.024 411.799 121.328 413.855 121.303 416.101C121.244 421.432 120.791 434.904 117.851 444.844C117.251 446.877 115.813 448.323 114.1 448.617C113.914 448.648 113.699 448.671 113.454 448.671L113.451 448.668ZM108.483 407.598C108.228 407.598 107.966 407.635 107.711 407.713C106.415 408.11 105.019 408.72 103.563 409.526C102.306 410.222 101.5 411.508 101.402 412.968C100.476 426.81 105.298 438.829 110.117 445.459C111.254 447.024 112.601 447.762 113.914 447.536C115.213 447.313 116.32 446.159 116.803 444.53C119.703 434.721 120.152 421.369 120.21 416.084C120.23 414.279 119.199 412.635 117.643 411.995C116.744 411.625 115.756 411.584 114.705 411.868C113.419 412.218 112.072 411.603 111.496 410.408L110.876 409.124C110.416 408.169 109.48 407.598 108.483 407.598Z" fill="black"/>
<path d="M114.529 445.007C114.458 445.007 114.387 444.992 114.319 444.965C113.927 444.801 104.73 440.624 103.786 413.347C103.777 413.045 104.012 412.793 104.313 412.783C104.607 412.776 104.867 413.009 104.877 413.31C105.798 439.897 114.652 443.924 114.742 443.961C115.019 444.079 115.152 444.397 115.034 444.676C114.946 444.885 114.745 445.009 114.532 445.009L114.529 445.007Z" fill="black"/>
<path d="M119.135 430.356C119.135 430.356 119.113 430.356 119.103 430.356L113.14 430.011C112.839 429.993 112.609 429.736 112.628 429.435C112.645 429.133 112.898 428.906 113.204 428.923L119.167 429.268C119.468 429.285 119.699 429.543 119.679 429.844C119.662 430.133 119.422 430.358 119.135 430.358V430.356Z" fill="black"/>
<path d="M120.173 425.766C120.173 425.766 120.151 425.766 120.139 425.766L113.159 425.327C112.858 425.308 112.63 425.05 112.65 424.749C112.669 424.448 112.931 424.22 113.228 424.239L120.208 424.678C120.509 424.698 120.737 424.955 120.717 425.256C120.7 425.545 120.46 425.768 120.173 425.768V425.766Z" fill="black"/>
<path d="M67.626 305.328C67.626 305.328 139.002 302.231 146.805 309.475C157.388 319.304 175.571 401.129 175.571 401.129L158.015 406.051C158.015 406.051 131.561 338.899 125.008 338.899C118.454 338.899 56.6553 336.694 56.6553 336.694L67.6235 305.328H67.626Z" fill="black"/>
<path d="M62.9073 303.542C57.2652 303.253 52.2233 307.021 50.8954 312.513C48.8399 321.02 47.0588 332.652 51.6622 335.748C59.154 340.788 113.15 340.359 111.276 339.73C109.404 339.1 106.447 384.979 106.447 402.621L123.447 403.278C123.447 403.278 150.541 332.326 147.62 324.403C142.395 310.23 102.177 306.982 89.3075 305.088C87.5779 304.833 72.9005 304.054 62.9048 303.542H62.9073Z" fill="black"/>
<path d="M138.644 363.442C138.587 363.442 138.534 363.435 138.477 363.415C138.191 363.322 138.031 363.016 138.124 362.729C138.737 360.821 139.344 358.944 139.937 357.104C144.695 342.402 148.804 329.707 147.103 324.572C143.492 313.672 116.482 309.493 107.606 308.121C107.307 308.074 107.104 307.795 107.15 307.498C107.197 307.2 107.476 306.996 107.772 307.043C123.459 309.471 144.712 313.89 148.137 324.229C149.95 329.702 145.989 341.942 140.974 357.44C140.378 359.277 139.771 361.154 139.161 363.06C139.087 363.29 138.872 363.44 138.641 363.44L138.644 363.442Z" fill="white"/>
<path d="M294.987 341.379L303.273 426.219L309.187 425.972L306.25 336.78L294.987 341.379Z" fill="white"/>
<path d="M303.273 426.765C302.993 426.765 302.758 426.552 302.729 426.273L294.443 341.432C294.419 341.192 294.556 340.964 294.779 340.874L306.039 336.275C306.203 336.207 306.391 336.226 306.541 336.322C306.69 336.42 306.783 336.584 306.788 336.763L309.726 425.952C309.736 426.25 309.503 426.503 309.204 426.515L303.292 426.762C303.292 426.762 303.278 426.762 303.27 426.762L303.273 426.765ZM295.57 341.729L303.765 425.65L308.621 425.447L305.728 337.581L295.57 341.729Z" fill="black"/>
<path d="M406.125 338.326L398.04 426.43L391.928 425.972L394.865 333.563L406.125 338.326Z" fill="white"/>
<path d="M398.04 426.976C398.025 426.976 398.013 426.976 397.998 426.976L391.886 426.518C391.594 426.496 391.371 426.248 391.381 425.957L394.319 333.548C394.324 333.37 394.419 333.203 394.571 333.105C394.723 333.007 394.911 332.992 395.078 333.061L406.338 337.824C406.556 337.917 406.691 338.14 406.669 338.375L398.584 426.478C398.557 426.76 398.322 426.973 398.04 426.973V426.976ZM392.489 425.464L397.545 425.844L405.544 338.671L395.384 334.374L392.489 425.464Z" fill="black"/>
<path d="M434.27 317.594L431.892 410.108L427.117 409.074L422.741 313.194L434.27 317.594Z" fill="white"/>
<path d="M431.892 410.655C431.853 410.655 431.814 410.65 431.777 410.642L427.004 409.608C426.762 409.557 426.585 409.346 426.576 409.101L422.198 313.222C422.19 313.038 422.274 312.862 422.423 312.754C422.573 312.646 422.766 312.621 422.938 312.685L434.467 317.085C434.682 317.168 434.825 317.377 434.817 317.609L432.438 410.125C432.433 410.287 432.358 410.439 432.23 410.539C432.132 410.615 432.015 410.657 431.892 410.657V410.655ZM427.644 408.631L431.363 409.437L433.715 317.967L423.325 314.003L427.644 408.633V408.631Z" fill="black"/>
<path d="M341.003 315.525L338.624 408.04L333.665 408.067L329.474 311.127L341.003 315.525Z" fill="white"/>
<path d="M333.666 408.613C333.374 408.613 333.134 408.383 333.122 408.092L328.93 311.151C328.923 310.967 329.006 310.794 329.156 310.686C329.305 310.578 329.499 310.553 329.67 310.62L341.199 315.02C341.415 315.103 341.557 315.311 341.55 315.544L339.171 408.06C339.163 408.354 338.923 408.589 338.629 408.591L333.671 408.618H333.668L333.666 408.613ZM330.055 311.93L334.188 407.518L338.093 407.496L340.447 315.897L330.055 311.93Z" fill="black"/>
<path d="M364.965 243.272V264.799C364.965 285.851 348.362 302.919 327.879 302.919C307.395 302.919 290.792 319.986 290.792 341.04C290.792 342.917 292.311 344.436 294.183 344.436H392.353C423.058 344.436 447.951 318.851 447.951 287.289V241.358C447.951 228.805 438.051 218.628 425.838 218.628H388.943C375.701 218.628 364.965 229.662 364.965 243.272Z" fill="white"/>
<path d="M392.356 344.98H294.186C292.015 344.98 290.251 343.211 290.251 341.038C290.251 319.719 307.133 302.374 327.884 302.374C348.635 302.374 364.424 285.518 364.424 264.799V243.272C364.424 229.381 375.424 218.082 388.946 218.082H425.841C438.336 218.082 448.5 228.524 448.5 241.356V287.287C448.5 319.099 423.315 344.98 392.356 344.98ZM388.943 219.172C376.022 219.172 365.512 229.984 365.512 243.272V264.799C365.512 286.118 348.63 303.464 327.879 303.464C307.128 303.464 291.339 320.319 291.339 341.038C291.339 342.611 292.615 343.89 294.183 343.89H392.353C422.71 343.89 447.405 318.499 447.405 287.289V241.359C447.405 229.126 437.731 219.175 425.839 219.175H388.943V219.172Z" fill="black"/>
<path d="M357.96 244.285C357.96 244.285 352.609 292.931 316.674 296.116L357.96 296.704C357.96 296.704 373.247 265.693 373.867 253.617C374.487 241.542 357.96 244.285 357.96 244.285Z" fill="white"/>
<path d="M357.96 297.248H357.953L316.667 296.66C316.375 296.655 316.14 296.425 316.13 296.136C316.12 295.846 316.338 295.597 316.628 295.572C334.921 293.953 345.029 280.12 350.287 268.802C356.02 256.467 357.406 244.347 357.419 244.224C357.445 243.982 357.632 243.786 357.872 243.747C358.247 243.685 367.108 242.269 371.736 246.402C373.671 248.13 374.57 250.567 374.414 253.644C373.794 265.693 359.077 295.672 358.45 296.944C358.357 297.13 358.168 297.248 357.96 297.248ZM322.694 295.655L357.622 296.153C359.212 292.884 372.748 264.774 373.323 253.588C373.463 250.856 372.686 248.713 371.008 247.216C367.292 243.896 360.204 244.545 358.45 244.768C358.149 247.034 356.483 258.047 351.289 269.236C344.635 283.572 334.828 292.598 322.696 295.655H322.694Z" fill="black"/>
<path d="M409.102 213.368C402.132 211.727 399.224 211.704 373.884 212.623C367.691 212.849 360.324 220.629 359.597 226.791C361.566 232.7 370.651 261.881 354.79 284.68C352.538 287.914 349.481 291.461 345.279 294.864C347.639 296.775 351.306 299.262 356.23 300.724C364.406 303.155 368.517 300.528 375.104 300.724C392.533 301.244 398.922 320.676 410.18 318.236C413.186 317.585 417.169 315.238 420.903 307.364C423.02 300.835 424.904 293.169 425.952 284.506C428.797 261.021 424.144 241.466 419.987 229.194C418.752 225.321 417.319 215.301 409.102 213.368Z" fill="black"/>
<path d="M353.239 249.737C353.239 249.737 357.338 216.842 369.147 214.034L366.434 257.304L353.239 249.737Z" fill="black"/>
<path d="M413.257 240.957C418.652 243.242 424.987 245.937 430.565 248.333C430.565 248.404 430.565 248.47 430.57 248.541L413.262 241.072L413.257 240.954V240.957Z" fill="white"/>
<path d="M430.571 249.087C430.497 249.087 430.424 249.073 430.355 249.043L413.049 241.574C412.858 241.49 412.73 241.307 412.72 241.098L412.716 240.981C412.706 240.792 412.794 240.613 412.948 240.508C413.103 240.4 413.301 240.38 413.473 240.454C420.063 243.247 426.048 245.797 430.784 247.833C430.98 247.916 431.107 248.107 431.114 248.321L431.119 248.531C431.122 248.718 431.031 248.891 430.877 248.994C430.786 249.056 430.678 249.087 430.573 249.087H430.571Z" fill="black"/>
<path d="M433.591 255.766C433.591 255.766 432.437 236.226 430.749 228.675C427.202 212.793 406.64 212.626 406.64 212.626L410.231 253.052L433.589 255.766H433.591Z" fill="black"/>
<path d="M388.939 209.93L388.243 200.048C387.77 200.016 387.444 199.994 387.349 199.994C384.595 199.962 383.701 199.068 383.463 196.804C383.314 195.388 383.263 193.283 383.953 190.652C384.027 190.37 384.01 190.071 383.897 189.804L383.427 188.7C383.329 188.337 383.454 187.947 383.745 187.71L383.995 187.504C384.894 186.767 385.641 185.86 386.239 184.853C386.79 183.927 387.726 182.193 388.368 181.884C390.179 181.019 397.519 177.173 401.625 183.893C404.824 189.131 399.596 196.343 397.695 198.705C397.237 199.276 400.797 210.474 400.797 210.474L405.402 211.589C405.402 211.589 401.85 217.907 391.058 215.293C383.373 213.434 384.593 210.57 384.593 210.57L388.941 209.928L388.939 209.93Z" fill="white"/>
<path d="M396.032 216.482C394.537 216.482 392.842 216.288 390.926 215.825C387.281 214.943 385.037 213.706 384.257 212.153C383.767 211.175 384.054 210.438 384.088 210.357C384.162 210.183 384.324 210.058 384.51 210.031L388.359 209.463L387.731 200.557C387.533 200.545 387.398 200.538 387.342 200.535C384.395 200.501 383.197 199.504 382.92 196.858C382.697 194.731 382.863 192.654 383.424 190.51C383.469 190.341 383.459 190.165 383.393 190.015L382.922 188.91C382.912 188.886 382.905 188.864 382.898 188.839C382.743 188.268 382.939 187.658 383.395 187.284L383.645 187.078C384.461 186.409 385.174 185.564 385.767 184.569L386.012 184.15C386.813 182.776 387.477 181.7 388.128 181.387L388.322 181.294C394.65 178.234 399.28 179.01 402.085 183.604C405.339 188.932 400.515 196.037 398.193 198.948C398.19 199.891 399.689 205.18 401.218 210.014L405.525 211.055C405.692 211.094 405.829 211.212 405.898 211.369C405.966 211.525 405.956 211.704 405.873 211.854C405.746 212.079 403.173 216.477 396.029 216.477L396.032 216.482ZM385.066 211.053C385.071 211.214 385.115 211.442 385.259 211.712C385.632 212.407 386.898 213.725 391.183 214.764C399.422 216.758 403.266 213.375 404.479 211.93L400.667 211.008C400.481 210.964 400.334 210.825 400.275 210.643C396.625 199.166 397.058 198.627 397.266 198.367C399.413 195.699 404.085 188.976 401.154 184.18C397.443 178.101 390.936 181.249 388.797 182.283L388.601 182.379C388.199 182.572 387.359 184.013 386.955 184.706L386.705 185.135C386.048 186.237 385.252 187.178 384.338 187.928L384.088 188.134C383.973 188.229 383.917 188.386 383.944 188.531L384.397 189.591C384.556 189.964 384.586 190.388 384.48 190.789C383.954 192.803 383.797 194.753 384.005 196.745C384.199 198.587 384.728 199.416 387.354 199.445C387.455 199.445 387.79 199.467 388.278 199.501C388.55 199.521 388.765 199.736 388.785 200.008L389.481 209.891C389.5 210.176 389.299 210.428 389.015 210.469L385.061 211.053H385.066Z" fill="black"/>
<path d="M399.358 175.351C397.369 174.922 395.081 175.228 394.116 174.873C392.557 174.3 392.516 172.433 390.36 171.906C387.751 171.271 386.663 172.386 385.644 173.939C385.475 174.199 385.325 174.488 385.203 174.816C383.564 179.219 385.634 181.368 386.555 182.066C386.555 182.066 392.423 185.101 393.427 185.968C394.368 186.779 395.451 188.7 394.77 191.461C394.682 191.816 394.836 192.186 395.137 192.37C395.49 192.583 395.946 192.483 396.188 192.13C396.95 191.023 398.619 188.881 399.804 189.389C401.294 190.026 400.831 194.497 397.543 195.014C396.534 195.173 395.713 196.207 395.813 197.265C395.88 197.956 396.529 198.794 397.494 199.014C398.084 199.149 398.665 198.911 399.185 198.578C401.331 197.206 407.382 191.393 408.134 186.179C409.04 179.9 402.007 175.921 399.358 175.351Z" fill="black"/>
<path d="M387.501 200.493C387.21 200.493 386.967 200.263 386.957 199.969C386.945 199.668 387.18 199.416 387.482 199.403C387.504 199.403 389.606 199.305 391.041 198.085C391.272 197.889 391.615 197.919 391.811 198.146C392.007 198.377 391.977 198.72 391.75 198.916C390.022 200.386 387.626 200.489 387.526 200.493C387.519 200.493 387.511 200.493 387.506 200.493H387.501Z" fill="black"/>
<path d="M340.442 398.803C339.438 397.786 333.636 379.713 333.636 379.713L322.171 387.903L334.741 404.817L340.445 398.8L340.442 398.803Z" fill="white"/>
<path d="M334.739 405.363C334.739 405.363 334.717 405.363 334.707 405.363C334.545 405.353 334.398 405.273 334.3 405.145L321.73 388.231C321.642 388.113 321.607 387.966 321.63 387.822C321.652 387.677 321.732 387.548 321.852 387.462L333.318 379.272C333.46 379.171 333.641 379.142 333.806 379.198C333.972 379.252 334.1 379.384 334.153 379.549C336.353 386.403 340.114 397.587 340.834 398.425C341.016 398.638 341.03 398.976 340.837 399.18L335.133 405.197C335.031 405.304 334.886 405.366 334.737 405.366L334.739 405.363ZM322.938 388.023L334.79 403.969L339.761 398.724C338.402 396.127 334.59 384.441 333.345 380.587L322.94 388.02L322.938 388.023Z" fill="black"/>
<path d="M319.78 421.652L327.406 421.608C332.451 421.579 337.145 419.011 339.896 414.778L347.437 402.827C349.519 399.524 348.355 395.149 344.908 393.314C341.76 391.641 338.465 390.009 337.691 390.082C336.123 390.232 335.488 397.663 335.488 397.663L328.695 397.925C328.695 397.925 325.339 411.896 322.386 413.484C320.235 414.64 318.734 416.341 317.722 417.891C316.663 419.516 317.844 421.664 319.78 421.654V421.652Z" fill="black"/>
<path d="M320.544 419.216C320.279 419.216 320.047 419.023 320.005 418.751C319.961 418.452 320.164 418.175 320.463 418.131L330.895 416.558C333.08 416.228 334.986 414.951 336.121 413.05L345.337 397.635C345.491 397.375 345.827 397.292 346.084 397.447C346.344 397.601 346.427 397.937 346.273 398.194L337.056 413.609C335.753 415.789 333.565 417.257 331.057 417.634L320.625 419.207C320.598 419.212 320.571 419.214 320.544 419.214V419.216Z" fill="white"/>
<path d="M333.42 407.623C333.374 407.623 333.325 407.616 333.276 407.603L327.465 406.018C327.173 405.94 327.002 405.639 327.083 405.349C327.161 405.058 327.46 404.886 327.751 404.967L333.563 406.552C333.854 406.631 334.026 406.932 333.945 407.221C333.879 407.464 333.658 407.623 333.418 407.623H333.42Z" fill="white"/>
<path d="M330.392 410.609C330.348 410.609 330.306 410.605 330.262 410.595L326.367 409.639C326.073 409.568 325.894 409.272 325.968 408.98C326.039 408.686 326.338 408.507 326.627 408.581L330.522 409.536C330.816 409.607 330.995 409.904 330.921 410.195C330.86 410.445 330.637 410.612 330.392 410.612V410.609Z" fill="white"/>
<path d="M301.318 395.353L288.005 408.744L280.949 406.15L293.221 389.018L301.318 395.353Z" fill="white"/>
<path d="M288.005 409.291C287.941 409.291 287.878 409.281 287.817 409.257L280.758 406.662C280.599 406.603 280.477 406.474 280.425 406.309C280.376 406.148 280.403 405.969 280.504 405.832L292.775 388.699C292.861 388.579 292.993 388.499 293.14 388.477C293.287 388.454 293.437 388.496 293.554 388.587L301.651 394.922C301.774 395.018 301.85 395.162 301.859 395.319C301.869 395.476 301.813 395.628 301.703 395.738L288.39 409.129C288.284 409.235 288.145 409.291 288.003 409.291H288.005ZM281.809 405.886L287.866 408.112L300.497 395.405L293.331 389.799L281.807 405.886H281.809Z" fill="black"/>
<path d="M371.784 296.494C371.784 296.494 310.943 289.026 292.851 305.539C274.758 322.049 321.409 393.047 321.409 393.047L336.163 381.513L322.169 331.331L378.409 314.493L371.782 296.494H371.784Z" fill="white"/>
<path d="M321.41 393.594C321.38 393.594 321.351 393.594 321.321 393.586C321.172 393.562 321.037 393.476 320.954 393.349C319.038 390.433 274.259 321.77 292.484 305.137C310.554 288.647 369.357 295.649 371.851 295.955C372.054 295.979 372.226 296.117 372.297 296.308L378.924 314.307C378.975 314.449 378.968 314.606 378.899 314.741C378.831 314.876 378.713 314.976 378.568 315.02L322.84 331.704L336.69 381.371C336.748 381.584 336.675 381.812 336.501 381.947L321.748 393.481C321.652 393.557 321.532 393.596 321.412 393.596L321.41 393.594ZM341.788 295.387C323.771 295.387 302.57 297.41 293.221 305.943C276.459 321.24 317.451 385.898 321.544 392.254L335.541 381.312L321.645 331.481C321.564 331.194 321.728 330.898 322.015 330.812L377.699 314.141L371.388 297.001C369.202 296.751 356.566 295.389 341.788 295.389V295.387Z" fill="black"/>
<path d="M405.267 329.173C396.43 332.13 380.616 335.952 358.516 335.636C352.236 335.545 346.437 339.203 343.586 345.102C337.04 358.638 322.869 383.007 299.789 398.802L288.767 392.54L316.901 325.77C319.471 319.675 324.273 314.937 330.214 312.639L385.974 291.082C385.974 291.082 403.263 285.986 411.74 302.258C413.254 305.164 416.064 299.97 416.735 302.315C419.031 310.353 412.859 326.63 405.267 329.171V329.173Z" fill="white"/>
<path d="M299.789 399.346C299.696 399.346 299.603 399.321 299.52 399.275L288.498 393.013C288.257 392.876 288.157 392.582 288.265 392.327L316.4 325.559C319.011 319.361 323.975 314.469 330.019 312.132L385.779 290.575C385.997 290.509 403.641 285.53 412.225 302.009C412.404 302.354 412.6 302.555 412.811 302.606C413.249 302.719 413.913 302.273 414.496 301.881C415.195 301.413 415.854 300.97 416.495 301.205C416.86 301.337 417.118 301.661 417.262 302.165C419.597 310.341 413.372 327.037 405.444 329.688C396.078 332.821 380.332 336.493 358.511 336.177C358.435 336.177 358.362 336.177 358.286 336.177C352.249 336.177 346.82 339.671 344.081 345.338C337.65 358.633 323.387 383.316 300.103 399.25C300.01 399.314 299.902 399.346 299.794 399.346H299.789ZM289.458 392.305L299.762 398.158C322.671 382.361 336.736 358.006 343.094 344.862C346.012 338.833 352.065 334.999 358.523 335.09C380.19 335.403 395.808 331.763 405.094 328.656C412.419 326.204 418.382 310.076 416.209 302.467C416.152 302.271 416.099 302.222 416.099 302.222C415.947 302.205 415.42 302.574 415.101 302.788C414.327 303.307 413.45 303.895 412.536 303.665C412.015 303.532 411.583 303.143 411.255 302.513C403.09 286.839 386.815 291.405 386.126 291.609L330.411 313.151C324.641 315.38 319.9 320.059 317.404 325.983L289.458 392.305Z" fill="black"/>
<path d="M292.211 406.649C292.211 406.649 292.856 412.345 291.763 417.38C291.182 420.063 288.767 421.949 286.025 421.949H253.353C251.019 421.949 249.96 419.031 251.749 417.529C257.557 412.656 268.244 405.216 281.383 403.033L285.048 408.168L292.211 406.649Z" fill="black"/>
<path d="M288.767 417.997H254.907C254.605 417.997 254.36 417.752 254.36 417.451C254.36 417.149 254.605 416.904 254.907 416.904H288.767C289.068 416.904 289.313 417.149 289.313 417.451C289.313 417.752 289.068 417.997 288.767 417.997Z" fill="white"/>
<path d="M273.801 411.975C273.585 411.975 273.382 411.848 273.296 411.637L271.502 407.284C271.387 407.004 271.52 406.686 271.799 406.571C272.076 406.456 272.397 406.588 272.512 406.867L274.305 411.221C274.42 411.5 274.288 411.819 274.009 411.934C273.94 411.961 273.872 411.975 273.801 411.975Z" fill="white"/>
<path d="M267.906 413.12C267.676 413.12 267.462 412.976 267.387 412.745L266.091 408.818C265.995 408.531 266.152 408.223 266.438 408.13C266.725 408.034 267.034 408.191 267.127 408.477L268.423 412.405C268.518 412.691 268.362 413 268.075 413.093C268.019 413.113 267.96 413.12 267.903 413.12H267.906Z" fill="white"/>
<path d="M416.289 251.982C410.357 273.595 392.733 287.386 367.178 294.645L371.076 301.928C406.589 300.679 425.214 285.244 432.659 255.623L416.289 251.979V251.982Z" fill="white"/>
<path d="M371.076 302.474C370.875 302.474 370.689 302.364 370.595 302.185L366.698 294.901C366.619 294.757 366.612 294.583 366.676 294.431C366.739 294.279 366.869 294.164 367.028 294.12C393.75 286.528 410.147 272.304 415.762 251.837C415.838 251.555 416.122 251.386 416.406 251.45L432.777 255.093C432.921 255.125 433.046 255.213 433.122 255.338C433.2 255.463 433.223 255.615 433.186 255.757C425.481 286.41 405.752 301.257 371.093 302.474C371.085 302.474 371.081 302.474 371.073 302.474H371.076ZM367.979 294.982L371.397 301.372C405.08 300.095 424.351 285.678 431.993 256.034L416.676 252.626C410.872 273.051 394.494 287.297 367.979 294.982Z" fill="black"/>
<path d="M373.244 294.046C372.881 293.338 372.276 292.779 371.529 292.51C370.995 292.319 370.468 292.064 369.966 291.797L363.011 288.107C361.707 287.47 359.846 288.958 358.493 289.401C354.412 290.741 345.962 293.899 346.658 296.866C347.41 300.065 354.671 298.551 357.249 297.907C357.839 297.76 363.173 299.693 364.86 299.82C367.19 299.997 367.729 299.404 368.869 298.806C369.388 298.534 369.966 298.409 370.596 298.407C371.556 298.4 372.47 297.998 373.07 297.248L373.085 297.231C373.746 296.403 373.864 295.264 373.381 294.318L373.244 294.051V294.046Z" fill="white"/>
<path d="M365.625 300.394C365.38 300.394 365.113 300.384 364.821 300.362C363.891 300.291 362.07 299.752 360.314 299.23C359.123 298.875 357.636 298.427 357.335 298.444C354.642 299.122 349.693 300.061 347.363 298.642C346.709 298.243 346.295 297.689 346.131 296.991C345.394 293.845 352.356 290.847 358.327 288.884C358.692 288.764 359.121 288.549 359.574 288.321C360.757 287.725 362.097 287.052 363.256 287.618L370.226 291.314C370.804 291.621 371.279 291.839 371.718 291.996C372.583 292.307 373.301 292.946 373.734 293.796L373.871 294.063C374.452 295.198 374.312 296.572 373.516 297.564C372.813 298.441 371.757 298.939 370.606 298.946C370.037 298.951 369.555 299.061 369.131 299.284C368.957 299.375 368.798 299.468 368.641 299.556C367.891 299.985 367.178 300.391 365.63 300.391L365.625 300.394ZM357.332 297.351C357.761 297.351 358.564 297.572 360.622 298.182C362.247 298.664 364.086 299.211 364.902 299.272C366.696 299.407 367.281 299.073 368.092 298.608C368.259 298.512 368.428 298.414 368.616 298.316C369.192 298.015 369.856 297.858 370.593 297.853C371.417 297.848 372.164 297.501 372.646 296.898C373.188 296.222 373.281 295.31 372.896 294.558L372.759 294.291C372.45 293.688 371.948 293.238 371.346 293.02C370.856 292.843 370.336 292.608 369.711 292.275L362.756 288.585C362.102 288.264 361.017 288.811 360.061 289.291C359.571 289.536 359.108 289.769 358.665 289.916C351.178 292.375 346.78 294.989 347.192 296.736C347.287 297.143 347.528 297.459 347.929 297.704C349.363 298.578 352.797 298.454 357.119 297.371C357.18 297.356 357.251 297.346 357.335 297.346L357.332 297.351Z" fill="black"/>
<path d="M113.5 303.799H386.731C391.822 303.799 395.779 307.148 395.2 310.97L376.334 436.143H362.71L374.521 318.665C374.729 316.595 372.561 314.828 369.814 314.828H135.27C131.159 314.828 127.918 317.472 128.229 320.568L139.922 436.878H126.298L107.108 309.208C106.675 306.325 109.659 303.801 113.498 303.801L113.5 303.799Z" fill="white"/>
<path d="M139.922 437.422H126.298C126.029 437.422 125.799 437.224 125.759 436.957L106.569 309.287C106.378 308.008 106.775 306.72 107.689 305.656C108.985 304.152 111.156 303.253 113.498 303.253H386.729C389.784 303.253 392.611 304.422 394.296 306.379C395.475 307.749 395.987 309.407 395.739 311.051L376.87 436.224C376.831 436.491 376.601 436.687 376.331 436.687H362.707C362.553 436.687 362.406 436.621 362.303 436.508C362.2 436.393 362.149 436.241 362.166 436.087L373.977 318.609C374.06 317.776 373.658 317.139 373.308 316.749C372.529 315.887 371.221 315.373 369.812 315.373H135.268C133.085 315.373 131.056 316.176 129.839 317.521C129.033 318.413 128.663 319.447 128.77 320.51L140.464 436.819C140.479 436.974 140.43 437.126 140.327 437.241C140.224 437.356 140.077 437.42 139.922 437.42V437.422ZM126.769 436.332H139.32L127.688 320.623C127.55 319.263 128.028 317.901 129.033 316.791C130.454 315.221 132.786 314.282 135.272 314.282H369.817C371.529 314.282 373.139 314.932 374.121 316.019C374.827 316.801 375.163 317.759 375.067 318.719L363.317 435.597H375.868L394.666 310.889C394.87 309.547 394.456 308.234 393.476 307.092C391.996 305.372 389.477 304.346 386.736 304.346H113.5C111.472 304.346 109.61 305.103 108.517 306.369C107.802 307.2 107.503 308.153 107.647 309.125L126.766 436.329L126.769 436.332Z" fill="black"/>
<path d="M340.291 299.793L325.608 256.521C324.729 255.163 323.195 254.343 321.546 254.343H282.409C280.633 254.343 279.491 256.067 280.069 257.591C280.3 258.196 280.55 258.794 280.75 259.412L294.022 299.874H294.027C294.068 302.241 295.994 304.144 298.368 304.144H370.591C372.99 304.144 374.935 302.197 374.935 299.796H340.293L340.291 299.793Z" fill="white"/>
<path d="M370.589 304.688H298.365C295.754 304.688 293.583 302.586 293.483 299.985L280.231 259.581C280.092 259.154 279.922 258.721 279.758 258.302L279.557 257.785C279.219 256.9 279.347 255.896 279.896 255.102C280.466 254.274 281.383 253.799 282.409 253.799H321.546C323.391 253.799 325.079 254.705 326.066 256.227C326.091 256.266 326.111 256.305 326.125 256.349L340.683 299.252H374.935C375.236 299.252 375.481 299.497 375.481 299.798C375.481 302.498 373.288 304.693 370.591 304.693L370.589 304.688ZM294.517 299.639C294.548 299.708 294.568 299.781 294.568 299.862C294.605 301.922 296.307 303.598 298.363 303.598H370.586C372.495 303.598 374.082 302.18 374.347 300.34H340.288C340.055 300.34 339.847 300.19 339.771 299.97L325.111 256.763C324.322 255.587 322.992 254.889 321.542 254.889H282.404C281.743 254.889 281.155 255.193 280.79 255.722C280.444 256.222 280.366 256.849 280.574 257.398L280.77 257.905C280.939 258.339 281.113 258.784 281.263 259.24L294.512 299.639H294.517Z" fill="black"/>
<path d="M311.2 276.521C311.751 278.354 310.909 280.23 309.316 280.711C307.724 281.191 305.987 280.096 305.435 278.263C304.884 276.431 305.727 274.554 307.319 274.074C308.912 273.594 310.649 274.689 311.2 276.521Z" fill="black"/>
<path d="M104.785 300.503H184.15V301.191C184.15 303.164 182.55 304.763 180.578 304.763H108.357C106.385 304.763 104.785 303.164 104.785 301.191V300.503Z" fill="white"/>
<path d="M180.575 305.31H108.355C106.084 305.31 104.236 303.463 104.236 301.192V300.503C104.236 300.202 104.481 299.957 104.783 299.957H184.147C184.449 299.957 184.694 300.202 184.694 300.503V301.192C184.694 303.463 182.847 305.31 180.575 305.31ZM105.329 301.047V301.192C105.329 302.86 106.686 304.217 108.355 304.217H180.575C182.244 304.217 183.601 302.86 183.601 301.192V301.047H105.329Z" fill="black"/>
<path d="M184.15 300.579H138.738L153.166 258.108C154.028 256.78 155.532 255.974 157.149 255.974H195.537C197.279 255.974 198.401 257.664 197.833 259.156C197.607 259.749 197.362 260.337 197.164 260.94L184.147 300.582L184.15 300.579Z" fill="white"/>
<path d="M184.15 301.126H138.738C138.562 301.126 138.398 301.04 138.295 300.898C138.192 300.756 138.165 300.572 138.221 300.406L152.649 257.934C152.663 257.892 152.683 257.851 152.708 257.811C153.678 256.319 155.339 255.428 157.149 255.428H195.539C196.549 255.428 197.45 255.896 198.014 256.711C198.553 257.493 198.675 258.48 198.344 259.35L198.148 259.857C197.989 260.266 197.823 260.69 197.685 261.109L184.669 300.751C184.596 300.974 184.387 301.126 184.15 301.126ZM139.498 300.033H183.753L196.647 260.769C196.794 260.323 196.965 259.884 197.129 259.46L197.323 258.961C197.526 258.426 197.448 257.816 197.115 257.329C196.759 256.812 196.186 256.518 195.539 256.518H157.149C155.731 256.518 154.43 257.201 153.658 258.348L139.498 300.031V300.033Z" fill="black"/>
<path d="M167.297 277.702C166.755 279.498 167.583 281.336 169.144 281.806C170.705 282.276 172.41 281.203 172.951 279.408C173.493 277.612 172.664 275.774 171.104 275.304C169.543 274.834 167.838 275.907 167.297 277.702Z" fill="black"/>
<path d="M433.612 438.902H359.247C354.783 438.902 351.444 434.806 352.343 430.433L363.625 375.589C364.573 370.976 368.633 367.666 373.341 367.666H437.127L433.609 438.902H433.612Z" fill="white"/>
<path d="M433.612 439.447H359.247C356.954 439.447 354.808 438.428 353.36 436.651C351.912 434.875 351.346 432.567 351.807 430.323L363.089 375.48C364.086 370.636 368.395 367.123 373.339 367.123H437.125C437.275 367.123 437.417 367.184 437.52 367.292C437.622 367.4 437.676 367.547 437.669 367.696L434.151 438.932C434.136 439.224 433.896 439.452 433.607 439.452L433.612 439.447ZM373.342 368.213C368.912 368.213 365.051 371.361 364.16 375.7L352.878 430.544C352.483 432.467 352.966 434.442 354.208 435.963C355.448 437.484 357.285 438.357 359.25 438.357H433.095L436.559 368.213H373.347H373.342Z" fill="black"/>
<path d="M443.132 438.904H428.702C424.238 438.904 420.899 434.808 421.798 430.435L434.224 370.027C434.506 368.653 435.716 367.668 437.118 367.668H440.829C442.368 367.668 443.649 368.849 443.774 370.382L448.858 432.693C449.13 436.038 446.489 438.904 443.135 438.904H443.132Z" fill="white"/>
<path d="M443.132 439.447H428.703C426.409 439.447 424.266 438.428 422.815 436.652C421.367 434.876 420.802 432.568 421.262 430.324L433.688 369.916C434.021 368.297 435.462 367.121 437.115 367.121H440.827C442.635 367.121 444.169 368.535 444.316 370.335L449.399 432.646C449.541 434.391 448.944 436.133 447.755 437.419C446.567 438.707 444.884 439.445 443.132 439.445V439.447ZM437.118 368.214C435.981 368.214 434.987 369.022 434.759 370.137L422.333 430.544C421.938 432.467 422.421 434.442 423.663 435.964C424.903 437.485 426.74 438.357 428.703 438.357H443.132C444.602 438.357 445.957 437.762 446.954 436.681C447.949 435.601 448.432 434.2 448.312 432.737L443.228 370.426C443.128 369.186 442.072 368.214 440.827 368.214H437.115H437.118Z" fill="black"/>
<path d="M423.479 397.003H365.254C364.953 397.003 364.708 396.758 364.708 396.457C364.708 396.156 364.953 395.911 365.254 395.911H423.479C424.959 395.911 426.23 394.906 426.571 393.466L431.703 371.799C431.772 371.505 432.066 371.323 432.36 371.394C432.654 371.463 432.835 371.757 432.764 372.051L427.631 393.718C427.173 395.651 425.466 397.003 423.476 397.003H423.479Z" fill="black"/>
<path d="M401.007 396.457L399.375 403.035C399.111 404.147 398.118 404.934 396.974 404.934H385.443C384.188 404.934 383.277 403.736 383.615 402.528L385.303 396.457H401.007Z" fill="white"/>
<path d="M396.976 405.479H385.445C384.675 405.479 383.965 405.127 383.5 404.514C383.034 403.902 382.885 403.123 383.09 402.38L384.778 396.309C384.845 396.074 385.06 395.91 385.305 395.91H401.009C401.178 395.91 401.335 395.989 401.438 396.118C401.541 396.251 401.577 396.422 401.538 396.586L399.907 403.164C399.583 404.524 398.378 405.477 396.976 405.477V405.479ZM385.719 397.003L384.141 402.674C384.026 403.086 384.11 403.515 384.367 403.855C384.624 404.196 385.016 404.389 385.442 404.389H396.974C397.868 404.389 398.638 403.782 398.846 402.91L400.311 397.003H385.719Z" fill="black"/>
<path d="M418.165 433.938H356.31C356.009 433.938 355.764 433.693 355.764 433.392C355.764 433.091 356.009 432.846 356.31 432.846H418.165C418.467 432.846 418.712 433.091 418.712 433.392C418.712 433.693 418.467 433.938 418.165 433.938Z" fill="black"/>
<path d="M388.036 365.18H383.207C381.904 365.18 380.846 366.238 380.846 367.541H390.398C390.398 366.238 389.34 365.18 388.036 365.18Z" fill="black"/>
<path d="M390.398 368.087H380.846C380.545 368.087 380.3 367.842 380.3 367.541C380.3 365.939 381.603 364.633 383.208 364.633H388.037C389.639 364.633 390.945 365.936 390.945 367.541C390.945 367.842 390.7 368.087 390.398 368.087ZM381.476 366.995H389.769C389.536 366.26 388.848 365.723 388.037 365.723H383.208C382.397 365.723 381.709 366.257 381.476 366.995Z" fill="black"/>
<path d="M426.732 365.18H421.904C420.6 365.18 419.542 366.238 419.542 367.541H429.094C429.094 366.238 428.036 365.18 426.732 365.18Z" fill="black"/>
<path d="M429.095 368.087H419.542C419.241 368.087 418.996 367.842 418.996 367.541C418.996 365.939 420.299 364.633 421.904 364.633H426.733C428.335 364.633 429.641 365.936 429.641 367.541C429.641 367.842 429.396 368.087 429.095 368.087ZM420.172 366.995H428.465C428.232 366.26 427.544 365.723 426.733 365.723H421.904C421.093 365.723 420.405 366.257 420.172 366.995Z" fill="black"/>
<path d="M425.471 365.052L426.25 360.432C426.802 357.154 424.592 354.498 421.314 354.498H392.361C389.083 354.498 385.979 357.156 385.428 360.432L384.648 365.052H386.863L387.468 361.456C387.897 358.905 390.313 356.838 392.865 356.838H420.018C422.568 356.838 424.288 358.905 423.859 361.456L423.254 365.052H425.469H425.471Z" fill="white"/>
<path d="M425.471 365.598H423.256C423.095 365.598 422.943 365.527 422.84 365.404C422.737 365.282 422.693 365.12 422.717 364.961L423.322 361.365C423.506 360.279 423.256 359.27 422.622 358.518C422.002 357.785 421.078 357.381 420.02 357.381H392.868C390.574 357.381 388.397 359.248 388.009 361.546L387.404 365.142C387.36 365.404 387.132 365.598 386.865 365.598H384.648C384.486 365.598 384.335 365.527 384.232 365.404C384.129 365.282 384.085 365.12 384.109 364.961L384.888 360.341C385.481 356.818 388.833 353.951 392.36 353.951H421.313C423.046 353.951 424.572 354.627 425.608 355.852C426.664 357.102 427.083 358.76 426.787 360.522L426.007 365.142C425.963 365.404 425.736 365.598 425.469 365.598H425.471ZM423.901 364.505H425.01L425.711 360.338C425.954 358.898 425.62 357.555 424.775 356.555C423.95 355.578 422.72 355.039 421.313 355.039H392.36C389.342 355.039 386.473 357.496 385.966 360.519L385.295 364.505H386.405L386.934 361.365C387.404 358.567 390.067 356.291 392.868 356.291H420.02C421.404 356.291 422.624 356.832 423.455 357.815C424.3 358.814 424.636 360.14 424.398 361.546L423.901 364.505Z" fill="black"/>
<path d="M419.876 352.58H394.443C393.419 352.58 392.446 353.411 392.275 354.435L391.9 356.657C391.729 357.681 392.42 358.511 393.444 358.511H418.876C419.9 358.511 420.873 357.681 421.044 356.657L421.419 354.435C421.591 353.411 420.9 352.58 419.876 352.58Z" fill="black"/>
<path d="M418.879 359.061H393.446C392.792 359.061 392.214 358.804 391.817 358.333C391.415 357.858 391.253 357.231 391.366 356.569L391.741 354.347C391.959 353.051 393.147 352.037 394.448 352.037H419.881C420.535 352.037 421.113 352.294 421.51 352.765C421.912 353.24 422.073 353.867 421.961 354.529L421.586 356.751C421.368 358.047 420.179 359.061 418.879 359.061ZM394.443 353.127C393.686 353.127 392.941 353.769 392.814 354.529L392.439 356.751C392.383 357.091 392.456 357.402 392.647 357.63C392.834 357.851 393.115 357.971 393.444 357.971H418.876C419.633 357.971 420.378 357.329 420.505 356.569L420.88 354.347C420.936 354.007 420.863 353.696 420.672 353.468C420.486 353.247 420.204 353.127 419.876 353.127H394.443Z" fill="black"/>
<path d="M428.565 433.937C428.376 433.937 428.19 433.839 428.09 433.663C427.94 433.401 428.031 433.068 428.293 432.918L437.987 427.396V371.925C437.987 371.624 438.232 371.379 438.534 371.379C438.835 371.379 439.08 371.624 439.08 371.925V427.715C439.08 427.911 438.975 428.092 438.805 428.19L428.837 433.869C428.751 433.918 428.658 433.94 428.567 433.94L428.565 433.937Z" fill="black"/>
</svg>
