<svg width="16" height="16" viewBox="0 0 16 16" fill="none" xmlns="http://www.w3.org/2000/svg">
<g id="Icon">
<path id="Vector" d="M1.01318 8.00047C1.01318 7.85825 1.05763 7.74269 1.14652 7.6538C1.23541 7.56491 1.35096 7.52047 1.49318 7.52047H13.2799L10.1332 4.3738C10.0265 4.26714 9.97318 4.14269 9.97318 4.00047C9.97318 3.85825 10.0265 3.74269 10.1332 3.6538C10.2399 3.56491 10.3643 3.52047 10.5065 3.52047C10.6487 3.52047 10.7732 3.55602 10.8799 3.62714L14.8799 7.62714C14.951 7.7338 14.9865 7.85825 14.9865 8.00047C14.9865 8.14269 14.951 8.26714 14.8799 8.3738L10.8799 12.3738C10.7732 12.4449 10.6487 12.4805 10.5065 12.4805C10.3643 12.4805 10.2399 12.436 10.1332 12.3471C10.0265 12.2582 9.97318 12.1427 9.97318 12.0005C9.97318 11.8582 10.0265 11.7338 10.1332 11.6271L13.2799 8.48047H1.49318C1.35096 8.48047 1.23541 8.43602 1.14652 8.34714C1.05763 8.25825 1.01318 8.14269 1.01318 8.00047Z" fill="#241F1F"/>
</g>
</svg>
