<svg width="20" height="20" viewBox="0 0 20 20" fill="none" xmlns="http://www.w3.org/2000/svg">
<g id="clock">
<g id="Union">
<path d="M10 4.375C10 4.02982 9.72018 3.75 9.375 3.75C9.02982 3.75 8.75 4.02982 8.75 4.375V11.25C8.75 11.4743 8.87018 11.6814 9.06491 11.7927L13.4399 14.2927C13.7396 14.4639 14.1214 14.3598 14.2927 14.0601C14.4639 13.7604 14.3598 13.3786 14.0601 13.2073L10 10.8873V4.375Z" fill="#333333"/>
<path d="M10 20C15.5228 20 20 15.5228 20 10C20 4.47715 15.5228 0 10 0C4.47715 0 0 4.47715 0 10C0 15.5228 4.47715 20 10 20ZM18.75 10C18.75 14.8325 14.8325 18.75 10 18.75C5.16751 18.75 1.25 14.8325 1.25 10C1.25 5.16751 5.16751 1.25 10 1.25C14.8325 1.25 18.75 5.16751 18.75 10Z" fill="#333333"/>
</g>
</g>
</svg>
