<svg width="46" height="38" viewBox="0 0 46 38" fill="none" xmlns="http://www.w3.org/2000/svg">
<g id="Property 1=Down">
<g id="Vector" filter="url(#filter0_d_1262_36829)">
<path d="M7 9.01377L7.33333 7.27292C7.66667 5.53207 8.33333 2.05036 9 1.2124C9.66667 0.374442 10.3333 2.18022 11 3.76244C11.6667 5.34467 12.3333 6.70332 13 6.67904C13.6667 6.65476 14.3333 5.24754 15 6.0858C15.6667 6.92406 16.3333 10.0078 17 11.2623C17.6667 12.5168 18.3333 11.9421 19 12.3753C19.6667 12.8085 20.3333 14.2498 21 13.4961C21.6667 12.7425 22.3333 9.79402 23 10.3018C23.6667 10.8095 24.3333 14.7735 25 17.4696C25.6667 20.1656 26.3333 21.5937 27 21.6C27.6667 21.6064 28.3333 20.191 29 18.3779C29.6667 16.5648 30.3333 14.354 31 14.5156C31.6667 14.6772 32.3333 17.2114 33 18.1135C33.6667 19.0157 34.3333 18.286 35 18.2022C35.6667 18.1184 36.3333 18.6805 37 19.9211C37.6667 21.1617 38.3333 23.0809 38.6667 24.0404L39 25" stroke="#D92A2A" stroke-width="1.5"/>
</g>
</g>
<defs>
<filter id="filter0_d_1262_36829" x="0.263672" y="0.25" width="45.4453" height="36.9961" filterUnits="userSpaceOnUse" color-interpolation-filters="sRGB">
<feFlood flood-opacity="0" result="BackgroundImageFix"/>
<feColorMatrix in="SourceAlpha" type="matrix" values="0 0 0 0 0 0 0 0 0 0 0 0 0 0 0 0 0 0 127 0" result="hardAlpha"/>
<feOffset dy="6"/>
<feGaussianBlur stdDeviation="3"/>
<feComposite in2="hardAlpha" operator="out"/>
<feColorMatrix type="matrix" values="0 0 0 0 0.85098 0 0 0 0 0.164706 0 0 0 0 0.164706 0 0 0 0.2 0"/>
<feBlend mode="normal" in2="BackgroundImageFix" result="effect1_dropShadow_1262_36829"/>
<feBlend mode="normal" in="SourceGraphic" in2="effect1_dropShadow_1262_36829" result="shape"/>
</filter>
</defs>
</svg>
