<svg width="17" height="17" viewBox="0 0 17 17" fill="none" xmlns="http://www.w3.org/2000/svg">
<g id="download">
<g id="v2">
<path d="M1 10.4C1.27614 10.4 1.5 10.6239 1.5 10.9V13.4C1.5 13.9523 1.94772 14.4 2.5 14.4H14.5C15.0523 14.4 15.5 13.9523 15.5 13.4V10.9C15.5 10.6239 15.7239 10.4 16 10.4C16.2761 10.4 16.5 10.6239 16.5 10.9V13.4C16.5 14.5046 15.6046 15.4 14.5 15.4H2.5C1.39543 15.4 0.5 14.5046 0.5 13.4V10.9C0.5 10.6239 0.723858 10.4 1 10.4Z" fill="#616161"/>
<path d="M8.14645 12.3536C8.34171 12.5488 8.65829 12.5488 8.85355 12.3536L11.8536 9.35355C12.0488 9.15829 12.0488 8.84171 11.8536 8.64645C11.6583 8.45118 11.3417 8.45118 11.1464 8.64645L9 10.7929V2C9 1.72386 8.77614 1.5 8.5 1.5C8.22386 1.5 8 1.72386 8 2V10.7929L5.85355 8.64645C5.65829 8.45118 5.34171 8.45118 5.14645 8.64645C4.95118 8.84171 4.95118 9.15829 5.14645 9.35355L8.14645 12.3536Z" fill="#616161"/>
</g>
</g>
</svg>
