<svg width="24" height="25" viewBox="0 0 24 25" fill="none" xmlns="http://www.w3.org/2000/svg">
<g id="file-earmark-pdf-fill">
<g id="Subtract">
<path d="M8.28448 19.1362C8.49326 19.0129 8.72405 18.8934 8.97237 18.7789C8.74207 19.1189 8.51543 19.4254 8.29774 19.6878C7.87829 20.1934 7.55114 20.4619 7.34596 20.5464C7.3226 20.556 7.3051 20.5615 7.29267 20.5646C7.28291 20.5516 7.26941 20.5308 7.25326 20.4985C7.16992 20.3318 7.17338 20.1738 7.31347 19.9567C7.47271 19.7098 7.79256 19.4267 8.28448 19.1362Z" fill="#ED1C24"/>
<path d="M11.9669 16.6661C11.7892 16.7023 11.611 16.7411 11.433 16.7827C11.577 16.5001 11.7173 16.2142 11.8526 15.9277C11.9655 15.6887 12.0755 15.448 12.1818 15.2071C12.2954 15.4176 12.4132 15.6256 12.5341 15.8296C12.6675 16.0546 12.8058 16.2769 12.9481 16.494C12.6222 16.542 12.2935 16.5998 11.9669 16.6661Z" fill="#ED1C24"/>
<path d="M15.7539 18.0746C15.5458 17.9103 15.3266 17.7027 15.1023 17.4602C15.4438 17.4659 15.7535 17.4923 16.0204 17.5403C16.496 17.6259 16.7197 17.7603 16.7973 17.8529C16.8243 17.8851 16.834 17.9114 16.8354 17.9491C16.8371 17.9966 16.825 18.0923 16.747 18.2484C16.6861 18.3701 16.6323 18.4172 16.6053 18.4349C16.5831 18.4494 16.5553 18.4604 16.5021 18.4583C16.3655 18.4528 16.1146 18.3596 15.7539 18.0746Z" fill="#ED1C24"/>
<path d="M12.4177 10.9562C12.358 11.3212 12.2554 11.7411 12.1176 12.1981C12.065 12.0195 12.0202 11.8461 11.9842 11.6793C11.8696 11.1497 11.8534 10.7342 11.9146 10.447C11.9713 10.1809 12.0785 10.0745 12.209 10.0223C12.321 9.97753 12.3904 9.9653 12.4266 9.9624C12.445 10.008 12.4687 10.0999 12.4746 10.2593C12.4814 10.4413 12.4638 10.6742 12.4177 10.9562Z" fill="#ED1C24"/>
<path fill-rule="evenodd" clip-rule="evenodd" d="M6 0.5H13.9393C14.3372 0.5 14.7187 0.658035 15 0.93934L20.5607 6.5C20.842 6.78131 21 7.16284 21 7.56066V21.5C21 23.1569 19.6569 24.5 18 24.5H6C4.34315 24.5 3 23.1569 3 21.5V3.5C3 1.84315 4.34315 0.5 6 0.5ZM14.25 2.75V5.75C14.25 6.57843 14.9216 7.25 15.75 7.25H18.75L14.25 2.75ZM6.24704 21.0016C6.38253 21.2726 6.59239 21.516 6.90461 21.63C7.21484 21.7433 7.52198 21.6906 7.77452 21.5866C8.25198 21.3898 8.72757 20.9317 9.1636 20.4061C9.66263 19.8045 10.1883 19.0161 10.6952 18.1414C11.1785 17.9975 11.6832 17.8718 12.191 17.7686C12.7041 17.6643 13.2101 17.5851 13.6905 17.5329C14.14 18.1065 14.6058 18.6015 15.0566 18.9575C15.4759 19.2887 15.96 19.5624 16.457 19.5824C16.7207 19.593 16.9843 19.5313 17.2213 19.3762C17.4535 19.2243 17.6265 19.0049 17.7532 18.7516C17.8889 18.4802 17.9701 18.1958 17.9596 17.9082C17.9488 17.6107 17.8408 17.3466 17.6595 17.1302C17.3206 16.726 16.7654 16.5313 16.2196 16.4331C15.6494 16.3305 14.9597 16.3114 14.2173 16.3583C13.973 16.0152 13.732 15.6443 13.5019 15.2561C13.225 14.7887 12.9697 14.3062 12.7476 13.8296C13.1222 12.8396 13.4029 11.9025 13.5279 11.1377C13.5815 10.8103 13.6093 10.4983 13.5988 10.2174C13.5886 9.94335 13.5407 9.65657 13.4084 9.40992C13.2647 9.14217 13.0251 8.93307 12.6932 8.86211C12.39 8.79726 12.0785 8.86287 11.7912 8.9778C11.2253 9.20415 10.9274 9.68174 10.8143 10.2124C10.7056 10.7221 10.7547 11.3164 10.8846 11.9171C11.016 12.525 11.2413 13.1883 11.5287 13.8595C11.3214 14.3777 11.0877 14.9129 10.8353 15.4474C10.5509 16.0497 10.2468 16.6424 9.93617 17.2C9.10845 17.4713 8.33799 17.798 7.71235 18.1675C7.1566 18.4958 6.6648 18.8868 6.36808 19.3469C6.05219 19.8366 5.95535 20.4183 6.24704 21.0016Z" fill="#ED1C24"/>
</g>
</g>
</svg>
