<svg width="21" height="20" viewBox="0 0 21 20" fill="none" xmlns="http://www.w3.org/2000/svg">
<g id="file-earmark-zip">
<g id="Union">
<path d="M6.74941 9.375C6.74941 8.68464 7.30906 8.125 7.99941 8.125H9.24941C9.93977 8.125 10.4994 8.68464 10.4994 9.375V10.5481L10.9989 12.5461C11.1271 13.0586 10.9192 13.5963 10.4796 13.8893L9.31779 14.6639C8.89791 14.9438 8.35091 14.9438 7.93104 14.6639L6.7692 13.8893C6.32966 13.5963 6.12177 13.0586 6.2499 12.5461L6.74941 10.5481V9.375ZM9.24941 9.375H7.99941V10.5481C7.99941 10.6503 7.98688 10.7521 7.96209 10.8512L7.46258 12.8493L8.62441 13.6238L9.78625 12.8493L9.28673 10.8512C9.26195 10.7521 9.24941 10.6503 9.24941 10.5481V9.375Z" fill="#333333"/>
<path d="M18 5.625V17.5C18 18.8807 16.8807 20 15.5 20H5.5C4.11929 20 3 18.8807 3 17.5V2.5C3 1.11929 4.11929 0 5.5 0H12.375L18 5.625ZM14.25 5.625C13.2145 5.625 12.375 4.78553 12.375 3.75V1.25H9.875V2.5H8.625V3.75H9.875V5H8.625V6.25H9.875V7.5H8V6.25H6.75V5H8V3.75H6.75V2.5H8V1.25H5.5C4.80964 1.25 4.25 1.80964 4.25 2.5V17.5C4.25 18.1904 4.80964 18.75 5.5 18.75H15.5C16.1904 18.75 16.75 18.1904 16.75 17.5V5.625H14.25Z" fill="#333333"/>
</g>
</g>
</svg>
