<svg width="78" height="80" viewBox="0 0 78 80" fill="none" xmlns="http://www.w3.org/2000/svg">
<g id="Group">
<path id="Vector" d="M71.0943 44.5833C70.8282 63.8012 55.0792 79.2953 35.6924 79.2953C16.3057 79.2953 0.28418 63.5366 0.28418 44.0919C0.28418 24.6471 16.2803 9.05225 35.6924 8.88843V12.0704C18.0865 12.2342 3.49101 26.5437 3.49101 44.0856C3.49101 61.6274 17.9344 76.107 35.6924 76.107C44.2545 76.107 52.3097 72.8053 58.3874 66.8068C64.4018 60.8713 67.7671 52.9888 67.8938 44.5833H71.1007H71.0943Z" fill="url(#paint0_linear_1080_30961)"/>
<path id="Vector_2" d="M67.1973 44.5826C66.9311 61.7086 52.7729 75.6022 35.5092 75.6022C27.1816 75.6022 19.5955 72.3887 13.9296 67.1526C13.8156 67.0455 13.7015 66.9384 13.5874 66.825C7.69977 61.11 4.04297 53.1393 4.04297 44.3306C4.04297 27.0471 18.1442 12.9644 35.5092 12.8762V32.4029H23.5121V56.2583H47.5063V56.1008H47.538V44.5889H67.2036L67.1973 44.5826Z" fill="url(#paint1_linear_1080_30961)"/>
<path id="Vector_3" d="M35.6165 35.9697V33.1658H24.3926V55.4901H46.8467V44.5831H44.1849V52.913H26.9466V35.9697H35.6165Z" fill="url(#paint2_linear_1080_30961)"/>
<g id="Group_2">
<g id="Group_3">
<path id="Vector_4" d="M62.849 26.7401C62.849 26.4629 62.849 26.1793 62.849 25.8958C62.6842 16.5704 59.5724 11.7627 58.1211 10.0237V33.6586C58.6851 32.285 59.4964 30.8105 60.6688 29.2668C61.3913 28.309 62.1265 27.4773 62.8553 26.7464L62.849 26.7401Z" fill="url(#paint3_linear_1080_30961)"/>
<path id="Vector_5" d="M63.2869 26.9165C63.2108 26.9921 63.1348 27.0614 63.0587 27.137C62.9827 27.2126 62.9066 27.2945 62.8306 27.3701C62.2221 28.0002 61.6137 28.7059 61.0117 29.5062C59.535 31.4595 58.6351 33.3056 58.1027 34.9565C58.0266 35.2022 57.9569 35.4417 57.8936 35.6748C57.9759 35.9961 58.0457 36.3112 58.1027 36.6136C58.483 38.6488 58.3309 40.2934 58.1027 41.3898C58.09 41.4402 58.0837 41.4906 58.071 41.541L58.1027 41.4969L60.473 38.2141L61.1131 37.3256L61.6644 36.5569L71.9947 22.2349C70.4103 22.4617 66.8993 23.3627 63.2805 26.9165H63.2869Z" fill="url(#paint4_linear_1080_30961)"/>
<path id="Vector_6" d="M57.6716 36.721C57.6399 36.5383 57.6019 36.3556 57.5575 36.1729C57.5195 36.009 57.4815 35.8452 57.4371 35.6814C56.9555 33.8478 56.0175 31.7559 54.319 29.5128C53.5712 28.5235 52.8043 27.6666 52.0502 26.9231C48.4314 23.3693 44.9203 22.4683 43.3359 22.2415L53.6663 36.5635L57.2597 41.5413L57.5259 41.913C57.5385 41.8752 57.5449 41.8374 57.5575 41.7996C57.5956 41.6547 57.6336 41.4909 57.6716 41.3081C57.8871 40.2622 58.0329 38.6743 57.6716 36.7147V36.721Z" fill="url(#paint5_linear_1080_30961)"/>
</g>
<path id="Vector_7" d="M76.4808 17.4006L73.0395 22.1263C73.0395 22.1263 73.0268 22.0885 73.0205 22.0696L77.3364 15.4158L76.8611 15.1323L72.5705 21.7546C71.4234 21.8302 67.4624 22.3847 63.2859 26.3165C63.2859 26.1778 63.2859 26.0392 63.2859 25.8943C63.1021 15.4221 59.2869 10.5893 58.0574 9.29758L58.1081 0.829102H57.5504L57.4996 9.07705C57.487 9.07705 57.4806 9.08965 57.468 9.10225L57.1701 2.94622L56.6124 2.97143L56.9356 9.67564C55.4526 11.4021 52.2204 16.2664 52.0556 25.888C52.0556 26.0329 52.0556 26.1715 52.0556 26.3102C48.0693 22.5485 44.273 21.8806 42.9485 21.7609L38.6452 15.126L38.1699 15.4095L42.3781 21.8995C42.3781 21.8995 42.3654 21.9436 42.3527 21.9688L39.0255 17.4006L38.5692 17.7031L42.169 22.6493C41.7253 24.5585 41.2817 29.2968 45.4265 35.3331C49.9009 41.8357 55.3005 42.7304 57.075 42.8439V44.5892H58.4313V42.825C60.3516 42.6674 65.5674 41.6467 69.915 35.3268C73.9458 29.4669 73.6416 24.8231 73.2106 22.8131L76.9371 17.6968L76.4808 17.3943V17.4006ZM58.1144 10.0222C59.5657 11.7676 62.6838 16.5689 62.8486 25.8943C62.8486 26.1841 62.8486 26.4677 62.8486 26.7449C62.1134 27.4695 61.3783 28.3076 60.6621 29.259C59.4897 30.8027 58.6784 32.2772 58.1144 33.6508V10.0222ZM57.6771 41.3064C57.6391 41.4892 57.601 41.653 57.563 41.7979C57.5503 41.8294 57.544 41.8672 57.5313 41.9113L57.2588 41.5396L53.6654 36.5618L43.3351 22.2397C44.9258 22.4729 48.4305 23.3676 52.0493 26.9214C52.8098 27.6649 53.5703 28.5218 54.3182 29.5173C56.0103 31.7605 56.9483 33.8524 57.4363 35.6797C57.4806 35.8498 57.5187 36.0136 57.5567 36.1712C57.6011 36.3602 57.6391 36.5429 57.6708 36.7193C57.8292 37.5826 57.8862 38.3702 57.8862 39.0696C57.8862 39.9643 57.7912 40.7204 57.6708 41.3064H57.6771ZM61.6825 36.5555L61.1248 37.3179L60.4847 38.2064L58.1144 41.4892L58.0827 41.5333C58.0954 41.4829 58.1017 41.4324 58.1144 41.382C58.3426 40.292 58.4947 38.6411 58.1144 36.6122C58.0574 36.3035 57.9876 35.9947 57.9053 35.6734C57.9686 35.4402 58.0383 35.2008 58.1144 34.9551C58.6468 33.3042 59.5467 31.458 61.0234 29.5047C61.6254 28.7045 62.2338 27.9988 62.8423 27.3687C62.912 27.2931 62.9944 27.2112 63.0641 27.1356L63.2922 26.9087C66.9173 23.355 70.422 22.4603 72.0065 22.2271L61.6761 36.5492L61.6825 36.5555Z" fill="url(#paint6_linear_1080_30961)"/>
</g>
<g id="Group_4">
<path id="Vector_8" d="M8.20625 50.3487L7.71191 48.7104L15.9952 49.1326L16.5339 50.9221L9.84135 55.7738L9.33434 54.0852L10.735 53.1463L9.90473 50.3991L8.20625 50.3424V50.3487ZM11.3244 50.4369L11.8947 52.3335L14.5755 50.5314V50.5125L11.3244 50.4432V50.4369Z" fill="white"/>
<path id="Vector_9" d="M17.1738 59.2201L19.2082 61.7594L15.9126 64.368L15.2345 63.5237L15.8999 62.7928C15.2662 62.7676 14.3409 62.7424 13.4536 61.6334C12.2811 60.1716 12.2748 58.004 14.4169 56.3028C16.0774 54.9859 18.3843 54.6582 20.0194 56.6934L20.032 56.7124C21.5214 58.5774 20.894 60.2724 20.1081 61.0096L19.0877 59.7368C19.3286 59.5478 19.7469 58.5081 19.0307 57.6134C18.3082 56.706 17.0027 56.3658 15.4373 57.6134C13.7705 58.9366 14.062 60.1842 14.7528 61.0474C14.9746 61.3246 15.8302 62.169 17.2752 61.457L16.1408 60.0456L17.1738 59.2327V59.2201Z" fill="white"/>
<path id="Vector_10" d="M23.3472 60.5249L26.8329 62.3711C28.6645 63.3414 28.2779 64.8663 27.961 65.4585C27.5554 66.2147 26.8266 66.6557 26.0217 66.5234C26.4526 67.0716 26.6491 67.4434 25.9646 68.7224C25.426 69.7243 25.2929 69.97 25.54 70.2473L25.445 70.43L23.8542 69.5857C23.9303 69.2076 24.0634 68.8296 24.4436 68.1239C24.9443 67.1913 25.0837 66.7944 24.019 66.2336L22.5297 65.446L21.091 68.1302L19.6777 67.3803L23.3536 60.5312L23.3472 60.5249ZM24.8302 65.1813C25.5781 65.5783 26.0787 65.5153 26.4463 64.8348C26.6428 64.4693 26.7632 63.8518 25.9203 63.4044L24.1267 62.453L23.1444 64.2866L24.8302 65.1813Z" fill="white"/>
<path id="Vector_11" d="M30.7983 71.7085L29.2012 71.3808L30.7792 63.7693L32.3763 64.0969L30.7983 71.7085Z" fill="white"/>
<path id="Vector_12" d="M35.9083 69.7741C35.9526 70.2026 36.2315 71.0091 37.6511 70.902C38.4243 70.8453 39.2672 70.5933 39.2038 69.7741C39.1595 69.1693 38.5574 69.0558 37.7208 68.9235L36.8716 68.7912C35.5914 68.5959 34.3556 68.4068 34.2225 66.7056C34.1591 65.8424 34.5077 64.286 37.0364 64.097C39.4257 63.9143 40.1798 65.4202 40.2686 66.3716L38.7032 66.4914C38.6335 66.1511 38.4433 65.3383 37.0174 65.4454C36.3963 65.4895 35.6801 65.773 35.7308 66.4788C35.7752 67.0836 36.2885 67.1719 36.6181 67.2223L38.5511 67.5436C39.6348 67.72 40.6425 68.0792 40.7502 69.4717C40.9277 71.8031 38.5574 72.1874 37.8729 72.2378C35.0274 72.4521 34.4189 70.8642 34.3429 69.9002L35.9019 69.7805L35.9083 69.7741Z" fill="white"/>
<path id="Vector_13" d="M47.5192 62.3963L43.7736 64.1606L44.4771 65.635L47.9184 64.0157L48.5078 65.257L45.0665 66.8763L45.9348 68.6973L49.8514 66.8574L50.4408 68.0987L45.0792 70.6191L41.7393 63.5998L46.9298 61.155L47.5192 62.3963Z" fill="white"/>
<path id="Vector_14" d="M53.5895 58.2878C53.1586 58.0673 52.341 57.6514 51.4221 58.6344C50.8897 59.2015 50.4841 60.3986 52.1002 61.892C53.1269 62.8434 54.4324 63.2908 55.3704 62.2889C55.9852 61.6336 56.0422 60.8271 55.4718 60.0332L56.5809 58.8486C57.6012 60.2348 57.7153 61.8479 56.3781 63.2719C54.9648 64.7841 52.9177 64.9164 50.9467 63.0891C48.9504 61.2367 49.0011 59.1511 50.3764 57.6829C51.9671 55.9817 53.7923 56.3786 54.6986 57.0969L53.5895 58.2878Z" fill="white"/>
<path id="Vector_15" d="M54.4573 50.9095C54.8059 49.9392 56.1305 47.5385 59.5908 48.7609C63.0448 49.977 62.5568 52.6738 62.2146 53.6441C61.8723 54.6145 60.5414 57.0151 57.0811 55.7928C53.6271 54.5767 54.1151 51.8736 54.4573 50.9095ZM60.909 53.1842C61.2006 52.3587 61.1055 51.0166 59.0458 50.2857C56.986 49.5611 56.0544 50.5378 55.7629 51.3695C55.4713 52.1949 55.5664 53.537 57.6261 54.2679C59.6859 54.9925 60.6175 54.0159 60.909 53.1842Z" fill="white"/>
</g>
</g>
<defs>
<linearGradient id="paint0_linear_1080_30961" x1="39.6661" y1="17.1994" x2="30.1042" y2="82.7137" gradientUnits="userSpaceOnUse">
<stop stop-color="#FAAE42"/>
<stop offset="1" stop-color="#F15B2C"/>
</linearGradient>
<linearGradient id="paint1_linear_1080_30961" x1="60.3146" y1="28.7924" x2="8.28351" y2="61.6655" gradientUnits="userSpaceOnUse">
<stop stop-color="#F28021"/>
<stop offset="1" stop-color="#FEC015"/>
</linearGradient>
<linearGradient id="paint2_linear_1080_30961" x1="48.146" y1="28.837" x2="28.0021" y2="54.0415" gradientUnits="userSpaceOnUse">
<stop stop-color="#F28021"/>
<stop offset="1" stop-color="#FEC015"/>
</linearGradient>
<linearGradient id="paint3_linear_1080_30961" x1="58.1971" y1="39.8272" x2="60.4025" y2="18.8675" gradientUnits="userSpaceOnUse">
<stop stop-color="#FAAE42"/>
<stop offset="1" stop-color="#F6E92D"/>
</linearGradient>
<linearGradient id="paint4_linear_1080_30961" x1="59.4906" y1="40.5265" x2="67.5002" y2="22.9746" gradientUnits="userSpaceOnUse">
<stop stop-color="#FAAE42"/>
<stop offset="1" stop-color="#F6E92D"/>
</linearGradient>
<linearGradient id="paint5_linear_1080_30961" x1="56.9681" y1="41.5287" x2="49.0123" y2="25.695" gradientUnits="userSpaceOnUse">
<stop stop-color="#FAAE42"/>
<stop offset="1" stop-color="#F6E92D"/>
</linearGradient>
<linearGradient id="paint6_linear_1080_30961" x1="48.5446" y1="40.4495" x2="61.0295" y2="7.78724" gradientUnits="userSpaceOnUse">
<stop stop-color="#F28021"/>
<stop offset="1" stop-color="#FEC015"/>
</linearGradient>
</defs>
</svg>
