<svg width="16" height="17" viewBox="0 0 16 17" fill="none" xmlns="http://www.w3.org/2000/svg">
<g id="house">
<g id="Union">
<path d="M8.70711 1.99992C8.31658 1.6094 7.68342 1.6094 7.29289 1.99992L0.646447 8.64637C0.451184 8.84163 0.451184 9.15822 0.646447 9.35348C0.841709 9.54874 1.15829 9.54874 1.35355 9.35348L2 8.70703V13.9999C2 14.8284 2.67157 15.4999 3.5 15.4999H12.5C13.3284 15.4999 14 14.8284 14 13.9999V8.70703L14.6464 9.35348C14.8417 9.54874 15.1583 9.54874 15.3536 9.35348C15.5488 9.15822 15.5488 8.84163 15.3536 8.64637L13 6.29282V2.99992C13 2.72378 12.7761 2.49992 12.5 2.49992H11.5C11.2239 2.49992 11 2.72378 11 2.99992V4.29282L8.70711 1.99992ZM13 7.70703V13.9999C13 14.2761 12.7761 14.4999 12.5 14.4999H3.5C3.22386 14.4999 3 14.2761 3 13.9999V7.70703L8 2.70703L13 7.70703Z" fill="black"/>
</g>
</g>
</svg>
