<svg width="20" height="21" viewBox="0 0 20 21" fill="none" xmlns="http://www.w3.org/2000/svg">
<g id="icon-wrapper">
<path id="Union" fill-rule="evenodd" clip-rule="evenodd" d="M17.9433 14.6914C17.8853 14.7496 17.8163 14.7958 17.7404 14.8273C17.6644 14.8588 17.583 14.875 17.5008 14.875C17.4186 14.875 17.3372 14.8588 17.2613 14.8273C17.1854 14.7958 17.1164 14.7496 17.0583 14.6914L10.0008 7.63263L2.94334 14.6914C2.88523 14.7495 2.81624 14.7956 2.74032 14.827C2.66439 14.8585 2.58302 14.8747 2.50084 14.8747C2.41866 14.8747 2.33728 14.8585 2.26136 14.827C2.18543 14.7956 2.11645 14.7495 2.05834 14.6914C2.00023 14.6333 1.95413 14.5643 1.92268 14.4884C1.89123 14.4124 1.87505 14.3311 1.87505 14.2489C1.87505 14.1667 1.89123 14.0853 1.92268 14.0094C1.95413 13.9335 2.00023 13.8645 2.05834 13.8064L9.55834 6.30638C9.61639 6.24818 9.68536 6.202 9.76129 6.17049C9.83723 6.13899 9.91863 6.12277 10.0008 6.12277C10.083 6.12277 10.1644 6.13899 10.2404 6.17049C10.3163 6.202 10.3853 6.24818 10.4433 6.30638L17.9433 13.8064C18.0015 13.8644 18.0477 13.9334 18.0792 14.0093C18.1107 14.0853 18.127 14.1667 18.127 14.2489C18.127 14.3311 18.1107 14.4125 18.0792 14.4884C18.0477 14.5644 18.0015 14.6333 17.9433 14.6914Z" fill="#241F1F"/>
</g>
</svg>
