<svg width="20" height="20" viewBox="0 0 20 20" fill="none" xmlns="http://www.w3.org/2000/svg">
<g id="link-45deg">
<g id="Vector">
<path d="M5.89369 8.17662L4.17899 9.89132C2.71453 11.3558 2.71453 13.7302 4.17899 15.1946C5.64346 16.6591 8.01783 16.6591 9.48229 15.1946L11.7678 12.9091C13.2323 11.4446 13.2323 9.07025 11.7678 7.60578C11.4579 7.29586 11.1072 7.05153 10.7331 6.87279L10.0001 7.60579C9.92384 7.68201 9.85952 7.76563 9.8071 7.85433C10.2014 7.96731 10.5734 8.17909 10.8839 8.48967C11.8603 9.46598 11.8603 11.0489 10.8839 12.0252L8.59841 14.3107C7.6221 15.287 6.03919 15.287 5.06288 14.3107C4.08657 13.3344 4.08657 11.7515 5.06288 10.7752L6.05363 9.78445C5.91339 9.25929 5.86008 8.71575 5.89369 8.17662Z" fill="#333333"/>
<path d="M8.23229 5.83802C6.76783 7.30248 6.76783 9.67685 8.23229 11.1413C8.54222 11.4512 8.89289 11.6956 9.26706 11.8743L10.2366 10.9048C9.82613 10.7952 9.43817 10.5794 9.11618 10.2574C8.13987 9.28112 8.13987 7.69821 9.11618 6.7219L11.4017 4.43637C12.378 3.46006 13.9609 3.46006 14.9372 4.43637C15.9136 5.41268 15.9136 6.99559 14.9372 7.9719L13.9465 8.96266C14.0867 9.48781 14.14 10.0314 14.1064 10.5705L15.8211 8.85578C17.2856 7.39132 17.2856 5.01695 15.8211 3.55248C14.3567 2.08802 11.9823 2.08802 10.5178 3.55248L8.23229 5.83802Z" fill="#333333"/>
</g>
</g>
</svg>
