<svg width="21" height="20" viewBox="0 0 21 20" fill="none" xmlns="http://www.w3.org/2000/svg">
<g id="paperclip">
<path id="Vector (Stroke)" d="M6.125 3.75C6.125 2.02411 7.52411 0.625 9.25 0.625C10.9759 0.625 12.375 2.02411 12.375 3.75V15C12.375 16.0355 11.5355 16.875 10.5 16.875C9.46447 16.875 8.625 16.0355 8.625 15V6.25C8.625 5.90482 8.90482 5.625 9.25 5.625C9.59518 5.625 9.875 5.90482 9.875 6.25V15C9.875 15.3452 10.1548 15.625 10.5 15.625C10.8452 15.625 11.125 15.3452 11.125 15V3.75C11.125 2.71447 10.2855 1.875 9.25 1.875C8.21447 1.875 7.375 2.71447 7.375 3.75V15C7.375 16.7259 8.77411 18.125 10.5 18.125C12.2259 18.125 13.625 16.7259 13.625 15V6.25C13.625 5.90482 13.9048 5.625 14.25 5.625C14.5952 5.625 14.875 5.90482 14.875 6.25V15C14.875 17.4162 12.9162 19.375 10.5 19.375C8.08375 19.375 6.125 17.4162 6.125 15V3.75Z" fill="#333333"/>
</g>
</svg>
