<svg width="16" height="20" viewBox="0 0 16 20" fill="none" xmlns="http://www.w3.org/2000/svg">
<path id="Subtract" d="M8.57975 0.0575741C7.38515 -0.241077 6.27609 0.662628 6.19538 1.83231C6.10468 3.14681 5.90864 4.35201 5.65946 5.07095C5.50387 5.51988 5.06118 6.33589 4.36099 7.11836C3.66364 7.89765 2.75731 8.59174 1.69616 8.8812C0.856867 9.11015 0 9.83741 0 10.9002V15.9014C0 16.957 0.85291 17.7312 1.8099 17.8327C3.14676 17.9745 3.76475 18.3517 4.39493 18.7364L4.45443 18.7727C4.7954 18.9805 5.1772 19.2093 5.66792 19.3783C6.16368 19.549 6.7442 19.6506 7.5 19.6506H11.875C13.0463 19.6506 13.8737 19.0533 14.2927 18.3201C14.4977 17.9613 14.6094 17.5623 14.6094 17.1799C14.6094 16.9895 14.5809 16.7898 14.5133 16.5993C14.7651 16.2715 14.9894 15.8776 15.1242 15.4733C15.2613 15.0617 15.3386 14.5214 15.1283 14.0379C15.2147 13.8746 15.2794 13.7018 15.3275 13.5333C15.424 13.1956 15.4687 12.8242 15.4687 12.4631C15.4687 12.102 15.424 11.7307 15.3275 11.393C15.2844 11.2421 15.228 11.0877 15.1546 10.9397C15.6479 10.2254 15.6776 9.43857 15.447 8.77309C15.1905 8.03302 14.5955 7.39864 13.9476 7.18269C12.8887 6.82972 11.6934 6.83785 10.8028 6.91881C10.605 6.93679 10.4191 6.95868 10.2493 6.98193C10.8373 4.48464 10.4463 2.36502 10.1707 1.34502C9.99903 0.709397 9.48457 0.283777 8.90653 0.139268L8.57975 0.0575741ZM11.875 18.4006H7.5C6.86163 18.4006 6.42117 18.3156 6.0749 18.1964C5.72359 18.0754 5.44231 17.9109 5.10491 17.7053L5.05503 17.6749C4.36145 17.2517 3.557 16.761 1.94171 16.5897C1.52569 16.5456 1.25 16.2266 1.25 15.9014V10.9002C1.25 10.5822 1.53237 10.2215 2.02512 10.0871C3.39433 9.71363 4.49606 8.8419 5.29249 7.95189C6.08607 7.06506 6.62288 6.10828 6.84054 5.48027C7.1438 4.60528 7.34913 3.27034 7.44242 1.91834C7.47367 1.46546 7.89332 1.17442 8.27659 1.27023L8.60336 1.35193C8.80412 1.40212 8.92634 1.53161 8.96398 1.67097C9.23944 2.69069 9.64907 4.97697 8.78207 7.57796C8.70994 7.79437 8.76143 8.03289 8.91642 8.20026C9.07137 8.36758 9.30535 8.43717 9.52659 8.38194L9.52983 8.38115L9.54696 8.37706C9.56289 8.3733 9.58768 8.36758 9.62057 8.36033C9.68639 8.34582 9.78445 8.32528 9.90873 8.30226C10.1578 8.25614 10.5094 8.20062 10.916 8.16366C11.7441 8.08837 12.7363 8.0965 13.5524 8.36853C13.7717 8.44165 14.1142 8.74477 14.2659 9.18243C14.3991 9.56664 14.3732 10.0185 13.9331 10.4587L13.4911 10.9006L13.9331 11.3425C13.9862 11.3957 14.0634 11.5187 14.1256 11.7364C14.1854 11.9455 14.2187 12.1992 14.2187 12.4631C14.2187 12.727 14.1854 12.9807 14.1256 13.1898C14.0634 13.4075 13.9862 13.5305 13.9331 13.5837L13.4911 14.0256L13.9331 14.4675C13.9918 14.5263 14.0683 14.6881 13.9383 15.078C13.8162 15.4443 13.5601 15.8316 13.3081 16.0837L12.8661 16.5256L13.3081 16.9675C13.3146 16.9741 13.3594 17.0296 13.3594 17.1799C13.3594 17.3248 13.3148 17.5118 13.2073 17.6999C13.0013 18.0605 12.5787 18.4006 11.875 18.4006Z" fill="#333333"/>
</svg>
